%TF.GenerationSoftware,KiCad,Pcbnew,10.0.6*%
%TF.CreationDate,2026-10-05T11:43:44+09:00*%
%TF.ProjectId,Linetracer2-Lite,4c696e65-7472-4616-9365-72322d4c6974,rev?*%
%TF.SameCoordinates,Original*%
%TF.FileFunction,Legend,Bot*%
%TF.FilePolarity,Positive*%
%FSLAX46Y46*%
G04 Gerber Fmt 4.6, Leading zero omitted, Abs format (unit mm)*
G04 Created by KiCad (PCBNEW 10.0.6) date 2026-10-05 11:43:44*
%MOMM*%
%LPD*%
G01*
G04 APERTURE LIST*
%ADD10C,0.150000*%
%ADD11C,0.180000*%
%ADD12C,0.600000*%
%ADD13C,0.120000*%
%ADD14C,0.300000*%
G04 APERTURE END LIST*
D10*
X151219047Y-66924199D02*
X151104761Y-66962294D01*
X151104761Y-66962294D02*
X150914285Y-66962294D01*
X150914285Y-66962294D02*
X150838094Y-66924199D01*
X150838094Y-66924199D02*
X150799999Y-66886103D01*
X150799999Y-66886103D02*
X150761904Y-66809913D01*
X150761904Y-66809913D02*
X150761904Y-66733722D01*
X150761904Y-66733722D02*
X150799999Y-66657532D01*
X150799999Y-66657532D02*
X150838094Y-66619437D01*
X150838094Y-66619437D02*
X150914285Y-66581341D01*
X150914285Y-66581341D02*
X151066666Y-66543246D01*
X151066666Y-66543246D02*
X151142856Y-66505151D01*
X151142856Y-66505151D02*
X151180951Y-66467056D01*
X151180951Y-66467056D02*
X151219047Y-66390865D01*
X151219047Y-66390865D02*
X151219047Y-66314675D01*
X151219047Y-66314675D02*
X151180951Y-66238484D01*
X151180951Y-66238484D02*
X151142856Y-66200389D01*
X151142856Y-66200389D02*
X151066666Y-66162294D01*
X151066666Y-66162294D02*
X150876189Y-66162294D01*
X150876189Y-66162294D02*
X150761904Y-66200389D01*
X150419046Y-66962294D02*
X150419046Y-66162294D01*
X149961903Y-66962294D02*
X150304761Y-66505151D01*
X149961903Y-66162294D02*
X150419046Y-66619437D01*
X149619046Y-66962294D02*
X149619046Y-66162294D01*
X149238094Y-66962294D02*
X149238094Y-66162294D01*
X149238094Y-66162294D02*
X149047618Y-66162294D01*
X149047618Y-66162294D02*
X148933332Y-66200389D01*
X148933332Y-66200389D02*
X148857142Y-66276579D01*
X148857142Y-66276579D02*
X148819047Y-66352770D01*
X148819047Y-66352770D02*
X148780951Y-66505151D01*
X148780951Y-66505151D02*
X148780951Y-66619437D01*
X148780951Y-66619437D02*
X148819047Y-66771818D01*
X148819047Y-66771818D02*
X148857142Y-66848008D01*
X148857142Y-66848008D02*
X148933332Y-66924199D01*
X148933332Y-66924199D02*
X149047618Y-66962294D01*
X149047618Y-66962294D02*
X149238094Y-66962294D01*
X166521429Y-71965700D02*
X166392858Y-72008557D01*
X166392858Y-72008557D02*
X166178572Y-72008557D01*
X166178572Y-72008557D02*
X166092858Y-71965700D01*
X166092858Y-71965700D02*
X166050000Y-71922842D01*
X166050000Y-71922842D02*
X166007143Y-71837128D01*
X166007143Y-71837128D02*
X166007143Y-71751414D01*
X166007143Y-71751414D02*
X166050000Y-71665700D01*
X166050000Y-71665700D02*
X166092858Y-71622842D01*
X166092858Y-71622842D02*
X166178572Y-71579985D01*
X166178572Y-71579985D02*
X166350000Y-71537128D01*
X166350000Y-71537128D02*
X166435715Y-71494271D01*
X166435715Y-71494271D02*
X166478572Y-71451414D01*
X166478572Y-71451414D02*
X166521429Y-71365700D01*
X166521429Y-71365700D02*
X166521429Y-71279985D01*
X166521429Y-71279985D02*
X166478572Y-71194271D01*
X166478572Y-71194271D02*
X166435715Y-71151414D01*
X166435715Y-71151414D02*
X166350000Y-71108557D01*
X166350000Y-71108557D02*
X166135715Y-71108557D01*
X166135715Y-71108557D02*
X166007143Y-71151414D01*
X165621429Y-71537128D02*
X165321429Y-71537128D01*
X165192857Y-72008557D02*
X165621429Y-72008557D01*
X165621429Y-72008557D02*
X165621429Y-71108557D01*
X165621429Y-71108557D02*
X165192857Y-71108557D01*
X164807143Y-72008557D02*
X164807143Y-71108557D01*
X164807143Y-71108557D02*
X164292857Y-72008557D01*
X164292857Y-72008557D02*
X164292857Y-71108557D01*
X163907143Y-71965700D02*
X163778572Y-72008557D01*
X163778572Y-72008557D02*
X163564286Y-72008557D01*
X163564286Y-72008557D02*
X163478572Y-71965700D01*
X163478572Y-71965700D02*
X163435714Y-71922842D01*
X163435714Y-71922842D02*
X163392857Y-71837128D01*
X163392857Y-71837128D02*
X163392857Y-71751414D01*
X163392857Y-71751414D02*
X163435714Y-71665700D01*
X163435714Y-71665700D02*
X163478572Y-71622842D01*
X163478572Y-71622842D02*
X163564286Y-71579985D01*
X163564286Y-71579985D02*
X163735714Y-71537128D01*
X163735714Y-71537128D02*
X163821429Y-71494271D01*
X163821429Y-71494271D02*
X163864286Y-71451414D01*
X163864286Y-71451414D02*
X163907143Y-71365700D01*
X163907143Y-71365700D02*
X163907143Y-71279985D01*
X163907143Y-71279985D02*
X163864286Y-71194271D01*
X163864286Y-71194271D02*
X163821429Y-71151414D01*
X163821429Y-71151414D02*
X163735714Y-71108557D01*
X163735714Y-71108557D02*
X163521429Y-71108557D01*
X163521429Y-71108557D02*
X163392857Y-71151414D01*
X162835714Y-71108557D02*
X162664286Y-71108557D01*
X162664286Y-71108557D02*
X162578571Y-71151414D01*
X162578571Y-71151414D02*
X162492857Y-71237128D01*
X162492857Y-71237128D02*
X162450000Y-71408557D01*
X162450000Y-71408557D02*
X162450000Y-71708557D01*
X162450000Y-71708557D02*
X162492857Y-71879985D01*
X162492857Y-71879985D02*
X162578571Y-71965700D01*
X162578571Y-71965700D02*
X162664286Y-72008557D01*
X162664286Y-72008557D02*
X162835714Y-72008557D01*
X162835714Y-72008557D02*
X162921429Y-71965700D01*
X162921429Y-71965700D02*
X163007143Y-71879985D01*
X163007143Y-71879985D02*
X163050000Y-71708557D01*
X163050000Y-71708557D02*
X163050000Y-71408557D01*
X163050000Y-71408557D02*
X163007143Y-71237128D01*
X163007143Y-71237128D02*
X162921429Y-71151414D01*
X162921429Y-71151414D02*
X162835714Y-71108557D01*
X161550000Y-72008557D02*
X161850000Y-71579985D01*
X162064286Y-72008557D02*
X162064286Y-71108557D01*
X162064286Y-71108557D02*
X161721429Y-71108557D01*
X161721429Y-71108557D02*
X161635714Y-71151414D01*
X161635714Y-71151414D02*
X161592857Y-71194271D01*
X161592857Y-71194271D02*
X161550000Y-71279985D01*
X161550000Y-71279985D02*
X161550000Y-71408557D01*
X161550000Y-71408557D02*
X161592857Y-71494271D01*
X161592857Y-71494271D02*
X161635714Y-71537128D01*
X161635714Y-71537128D02*
X161721429Y-71579985D01*
X161721429Y-71579985D02*
X162064286Y-71579985D01*
X160521429Y-71965700D02*
X160392858Y-72008557D01*
X160392858Y-72008557D02*
X160178572Y-72008557D01*
X160178572Y-72008557D02*
X160092858Y-71965700D01*
X160092858Y-71965700D02*
X160050000Y-71922842D01*
X160050000Y-71922842D02*
X160007143Y-71837128D01*
X160007143Y-71837128D02*
X160007143Y-71751414D01*
X160007143Y-71751414D02*
X160050000Y-71665700D01*
X160050000Y-71665700D02*
X160092858Y-71622842D01*
X160092858Y-71622842D02*
X160178572Y-71579985D01*
X160178572Y-71579985D02*
X160350000Y-71537128D01*
X160350000Y-71537128D02*
X160435715Y-71494271D01*
X160435715Y-71494271D02*
X160478572Y-71451414D01*
X160478572Y-71451414D02*
X160521429Y-71365700D01*
X160521429Y-71365700D02*
X160521429Y-71279985D01*
X160521429Y-71279985D02*
X160478572Y-71194271D01*
X160478572Y-71194271D02*
X160435715Y-71151414D01*
X160435715Y-71151414D02*
X160350000Y-71108557D01*
X160350000Y-71108557D02*
X160135715Y-71108557D01*
X160135715Y-71108557D02*
X160007143Y-71151414D01*
X159621429Y-72008557D02*
X159621429Y-71108557D01*
X159192858Y-72008557D02*
X159192858Y-71108557D01*
X159192858Y-71108557D02*
X158978572Y-71108557D01*
X158978572Y-71108557D02*
X158850001Y-71151414D01*
X158850001Y-71151414D02*
X158764286Y-71237128D01*
X158764286Y-71237128D02*
X158721429Y-71322842D01*
X158721429Y-71322842D02*
X158678572Y-71494271D01*
X158678572Y-71494271D02*
X158678572Y-71622842D01*
X158678572Y-71622842D02*
X158721429Y-71794271D01*
X158721429Y-71794271D02*
X158764286Y-71879985D01*
X158764286Y-71879985D02*
X158850001Y-71965700D01*
X158850001Y-71965700D02*
X158978572Y-72008557D01*
X158978572Y-72008557D02*
X159192858Y-72008557D01*
X158292858Y-71537128D02*
X157992858Y-71537128D01*
X157864286Y-72008557D02*
X158292858Y-72008557D01*
X158292858Y-72008557D02*
X158292858Y-71108557D01*
X158292858Y-71108557D02*
X157864286Y-71108557D01*
X157478572Y-71922842D02*
X157435715Y-71965700D01*
X157435715Y-71965700D02*
X157478572Y-72008557D01*
X157478572Y-72008557D02*
X157521429Y-71965700D01*
X157521429Y-71965700D02*
X157478572Y-71922842D01*
X157478572Y-71922842D02*
X157478572Y-72008557D01*
X157478572Y-71451414D02*
X157435715Y-71494271D01*
X157435715Y-71494271D02*
X157478572Y-71537128D01*
X157478572Y-71537128D02*
X157521429Y-71494271D01*
X157521429Y-71494271D02*
X157478572Y-71451414D01*
X157478572Y-71451414D02*
X157478572Y-71537128D01*
X155935715Y-72008557D02*
X156364287Y-72008557D01*
X156364287Y-72008557D02*
X156364287Y-71108557D01*
X155335716Y-71537128D02*
X155207144Y-71579985D01*
X155207144Y-71579985D02*
X155164287Y-71622842D01*
X155164287Y-71622842D02*
X155121430Y-71708557D01*
X155121430Y-71708557D02*
X155121430Y-71837128D01*
X155121430Y-71837128D02*
X155164287Y-71922842D01*
X155164287Y-71922842D02*
X155207144Y-71965700D01*
X155207144Y-71965700D02*
X155292859Y-72008557D01*
X155292859Y-72008557D02*
X155635716Y-72008557D01*
X155635716Y-72008557D02*
X155635716Y-71108557D01*
X155635716Y-71108557D02*
X155335716Y-71108557D01*
X155335716Y-71108557D02*
X155250002Y-71151414D01*
X155250002Y-71151414D02*
X155207144Y-71194271D01*
X155207144Y-71194271D02*
X155164287Y-71279985D01*
X155164287Y-71279985D02*
X155164287Y-71365700D01*
X155164287Y-71365700D02*
X155207144Y-71451414D01*
X155207144Y-71451414D02*
X155250002Y-71494271D01*
X155250002Y-71494271D02*
X155335716Y-71537128D01*
X155335716Y-71537128D02*
X155635716Y-71537128D01*
X154221430Y-72008557D02*
X154521430Y-71579985D01*
X154735716Y-72008557D02*
X154735716Y-71108557D01*
X154735716Y-71108557D02*
X154392859Y-71108557D01*
X154392859Y-71108557D02*
X154307144Y-71151414D01*
X154307144Y-71151414D02*
X154264287Y-71194271D01*
X154264287Y-71194271D02*
X154221430Y-71279985D01*
X154221430Y-71279985D02*
X154221430Y-71408557D01*
X154221430Y-71408557D02*
X154264287Y-71494271D01*
X154264287Y-71494271D02*
X154307144Y-71537128D01*
X154307144Y-71537128D02*
X154392859Y-71579985D01*
X154392859Y-71579985D02*
X154735716Y-71579985D01*
X153835716Y-71665700D02*
X153150002Y-71665700D01*
X152250001Y-72008557D02*
X152764287Y-72008557D01*
X152507144Y-72008557D02*
X152507144Y-71108557D01*
X152507144Y-71108557D02*
X152592858Y-71237128D01*
X152592858Y-71237128D02*
X152678573Y-71322842D01*
X152678573Y-71322842D02*
X152764287Y-71365700D01*
X151907144Y-71194271D02*
X151864287Y-71151414D01*
X151864287Y-71151414D02*
X151778573Y-71108557D01*
X151778573Y-71108557D02*
X151564287Y-71108557D01*
X151564287Y-71108557D02*
X151478573Y-71151414D01*
X151478573Y-71151414D02*
X151435715Y-71194271D01*
X151435715Y-71194271D02*
X151392858Y-71279985D01*
X151392858Y-71279985D02*
X151392858Y-71365700D01*
X151392858Y-71365700D02*
X151435715Y-71494271D01*
X151435715Y-71494271D02*
X151950001Y-72008557D01*
X151950001Y-72008557D02*
X151392858Y-72008557D01*
X151092858Y-71108557D02*
X150535715Y-71108557D01*
X150535715Y-71108557D02*
X150835715Y-71451414D01*
X150835715Y-71451414D02*
X150707144Y-71451414D01*
X150707144Y-71451414D02*
X150621430Y-71494271D01*
X150621430Y-71494271D02*
X150578572Y-71537128D01*
X150578572Y-71537128D02*
X150535715Y-71622842D01*
X150535715Y-71622842D02*
X150535715Y-71837128D01*
X150535715Y-71837128D02*
X150578572Y-71922842D01*
X150578572Y-71922842D02*
X150621430Y-71965700D01*
X150621430Y-71965700D02*
X150707144Y-72008557D01*
X150707144Y-72008557D02*
X150964287Y-72008557D01*
X150964287Y-72008557D02*
X151050001Y-71965700D01*
X151050001Y-71965700D02*
X151092858Y-71922842D01*
X149850001Y-71537128D02*
X150150001Y-71537128D01*
X150150001Y-72008557D02*
X150150001Y-71108557D01*
X150150001Y-71108557D02*
X149721429Y-71108557D01*
X148778572Y-72008557D02*
X148307144Y-71408557D01*
X148778572Y-71408557D02*
X148307144Y-72008557D01*
X148050001Y-71108557D02*
X147492858Y-71108557D01*
X147492858Y-71108557D02*
X147792858Y-71451414D01*
X147792858Y-71451414D02*
X147664287Y-71451414D01*
X147664287Y-71451414D02*
X147578573Y-71494271D01*
X147578573Y-71494271D02*
X147535715Y-71537128D01*
X147535715Y-71537128D02*
X147492858Y-71622842D01*
X147492858Y-71622842D02*
X147492858Y-71837128D01*
X147492858Y-71837128D02*
X147535715Y-71922842D01*
X147535715Y-71922842D02*
X147578573Y-71965700D01*
X147578573Y-71965700D02*
X147664287Y-72008557D01*
X147664287Y-72008557D02*
X147921430Y-72008557D01*
X147921430Y-72008557D02*
X148007144Y-71965700D01*
X148007144Y-71965700D02*
X148050001Y-71922842D01*
X145478573Y-72351414D02*
X145521430Y-72308557D01*
X145521430Y-72308557D02*
X145607144Y-72179985D01*
X145607144Y-72179985D02*
X145650002Y-72094271D01*
X145650002Y-72094271D02*
X145692859Y-71965700D01*
X145692859Y-71965700D02*
X145735716Y-71751414D01*
X145735716Y-71751414D02*
X145735716Y-71579985D01*
X145735716Y-71579985D02*
X145692859Y-71365700D01*
X145692859Y-71365700D02*
X145650002Y-71237128D01*
X145650002Y-71237128D02*
X145607144Y-71151414D01*
X145607144Y-71151414D02*
X145521430Y-71022842D01*
X145521430Y-71022842D02*
X145478573Y-70979985D01*
X145007144Y-72008557D02*
X145092859Y-71965700D01*
X145092859Y-71965700D02*
X145135716Y-71879985D01*
X145135716Y-71879985D02*
X145135716Y-71108557D01*
X144321430Y-71965700D02*
X144407144Y-72008557D01*
X144407144Y-72008557D02*
X144578573Y-72008557D01*
X144578573Y-72008557D02*
X144664287Y-71965700D01*
X144664287Y-71965700D02*
X144707144Y-71879985D01*
X144707144Y-71879985D02*
X144707144Y-71537128D01*
X144707144Y-71537128D02*
X144664287Y-71451414D01*
X144664287Y-71451414D02*
X144578573Y-71408557D01*
X144578573Y-71408557D02*
X144407144Y-71408557D01*
X144407144Y-71408557D02*
X144321430Y-71451414D01*
X144321430Y-71451414D02*
X144278573Y-71537128D01*
X144278573Y-71537128D02*
X144278573Y-71622842D01*
X144278573Y-71622842D02*
X144707144Y-71708557D01*
X143892858Y-71408557D02*
X143892858Y-72008557D01*
X143892858Y-71494271D02*
X143850001Y-71451414D01*
X143850001Y-71451414D02*
X143764286Y-71408557D01*
X143764286Y-71408557D02*
X143635715Y-71408557D01*
X143635715Y-71408557D02*
X143550001Y-71451414D01*
X143550001Y-71451414D02*
X143507144Y-71537128D01*
X143507144Y-71537128D02*
X143507144Y-72008557D01*
X143121429Y-71965700D02*
X143035715Y-72008557D01*
X143035715Y-72008557D02*
X142864286Y-72008557D01*
X142864286Y-72008557D02*
X142778572Y-71965700D01*
X142778572Y-71965700D02*
X142735715Y-71879985D01*
X142735715Y-71879985D02*
X142735715Y-71837128D01*
X142735715Y-71837128D02*
X142778572Y-71751414D01*
X142778572Y-71751414D02*
X142864286Y-71708557D01*
X142864286Y-71708557D02*
X142992858Y-71708557D01*
X142992858Y-71708557D02*
X143078572Y-71665700D01*
X143078572Y-71665700D02*
X143121429Y-71579985D01*
X143121429Y-71579985D02*
X143121429Y-71537128D01*
X143121429Y-71537128D02*
X143078572Y-71451414D01*
X143078572Y-71451414D02*
X142992858Y-71408557D01*
X142992858Y-71408557D02*
X142864286Y-71408557D01*
X142864286Y-71408557D02*
X142778572Y-71451414D01*
X141792858Y-71408557D02*
X141450001Y-71408557D01*
X141664287Y-71108557D02*
X141664287Y-71879985D01*
X141664287Y-71879985D02*
X141621430Y-71965700D01*
X141621430Y-71965700D02*
X141535715Y-72008557D01*
X141535715Y-72008557D02*
X141450001Y-72008557D01*
X141021429Y-72008557D02*
X141107144Y-71965700D01*
X141107144Y-71965700D02*
X141150001Y-71922842D01*
X141150001Y-71922842D02*
X141192858Y-71837128D01*
X141192858Y-71837128D02*
X141192858Y-71579985D01*
X141192858Y-71579985D02*
X141150001Y-71494271D01*
X141150001Y-71494271D02*
X141107144Y-71451414D01*
X141107144Y-71451414D02*
X141021429Y-71408557D01*
X141021429Y-71408557D02*
X140892858Y-71408557D01*
X140892858Y-71408557D02*
X140807144Y-71451414D01*
X140807144Y-71451414D02*
X140764287Y-71494271D01*
X140764287Y-71494271D02*
X140721429Y-71579985D01*
X140721429Y-71579985D02*
X140721429Y-71837128D01*
X140721429Y-71837128D02*
X140764287Y-71922842D01*
X140764287Y-71922842D02*
X140807144Y-71965700D01*
X140807144Y-71965700D02*
X140892858Y-72008557D01*
X140892858Y-72008557D02*
X141021429Y-72008557D01*
X139778572Y-71408557D02*
X139435715Y-71408557D01*
X139650001Y-71108557D02*
X139650001Y-71879985D01*
X139650001Y-71879985D02*
X139607144Y-71965700D01*
X139607144Y-71965700D02*
X139521429Y-72008557D01*
X139521429Y-72008557D02*
X139435715Y-72008557D01*
X139135715Y-72008557D02*
X139135715Y-71108557D01*
X138750001Y-72008557D02*
X138750001Y-71537128D01*
X138750001Y-71537128D02*
X138792858Y-71451414D01*
X138792858Y-71451414D02*
X138878572Y-71408557D01*
X138878572Y-71408557D02*
X139007143Y-71408557D01*
X139007143Y-71408557D02*
X139092858Y-71451414D01*
X139092858Y-71451414D02*
X139135715Y-71494271D01*
X137978572Y-71965700D02*
X138064286Y-72008557D01*
X138064286Y-72008557D02*
X138235715Y-72008557D01*
X138235715Y-72008557D02*
X138321429Y-71965700D01*
X138321429Y-71965700D02*
X138364286Y-71879985D01*
X138364286Y-71879985D02*
X138364286Y-71537128D01*
X138364286Y-71537128D02*
X138321429Y-71451414D01*
X138321429Y-71451414D02*
X138235715Y-71408557D01*
X138235715Y-71408557D02*
X138064286Y-71408557D01*
X138064286Y-71408557D02*
X137978572Y-71451414D01*
X137978572Y-71451414D02*
X137935715Y-71537128D01*
X137935715Y-71537128D02*
X137935715Y-71622842D01*
X137935715Y-71622842D02*
X138364286Y-71708557D01*
X136992857Y-71408557D02*
X136650000Y-71408557D01*
X136864286Y-72008557D02*
X136864286Y-71237128D01*
X136864286Y-71237128D02*
X136821429Y-71151414D01*
X136821429Y-71151414D02*
X136735714Y-71108557D01*
X136735714Y-71108557D02*
X136650000Y-71108557D01*
X136221428Y-72008557D02*
X136307143Y-71965700D01*
X136307143Y-71965700D02*
X136350000Y-71879985D01*
X136350000Y-71879985D02*
X136350000Y-71108557D01*
X135749999Y-72008557D02*
X135835714Y-71965700D01*
X135835714Y-71965700D02*
X135878571Y-71922842D01*
X135878571Y-71922842D02*
X135921428Y-71837128D01*
X135921428Y-71837128D02*
X135921428Y-71579985D01*
X135921428Y-71579985D02*
X135878571Y-71494271D01*
X135878571Y-71494271D02*
X135835714Y-71451414D01*
X135835714Y-71451414D02*
X135749999Y-71408557D01*
X135749999Y-71408557D02*
X135621428Y-71408557D01*
X135621428Y-71408557D02*
X135535714Y-71451414D01*
X135535714Y-71451414D02*
X135492857Y-71494271D01*
X135492857Y-71494271D02*
X135449999Y-71579985D01*
X135449999Y-71579985D02*
X135449999Y-71837128D01*
X135449999Y-71837128D02*
X135492857Y-71922842D01*
X135492857Y-71922842D02*
X135535714Y-71965700D01*
X135535714Y-71965700D02*
X135621428Y-72008557D01*
X135621428Y-72008557D02*
X135749999Y-72008557D01*
X134935713Y-72008557D02*
X135021428Y-71965700D01*
X135021428Y-71965700D02*
X135064285Y-71922842D01*
X135064285Y-71922842D02*
X135107142Y-71837128D01*
X135107142Y-71837128D02*
X135107142Y-71579985D01*
X135107142Y-71579985D02*
X135064285Y-71494271D01*
X135064285Y-71494271D02*
X135021428Y-71451414D01*
X135021428Y-71451414D02*
X134935713Y-71408557D01*
X134935713Y-71408557D02*
X134807142Y-71408557D01*
X134807142Y-71408557D02*
X134721428Y-71451414D01*
X134721428Y-71451414D02*
X134678571Y-71494271D01*
X134678571Y-71494271D02*
X134635713Y-71579985D01*
X134635713Y-71579985D02*
X134635713Y-71837128D01*
X134635713Y-71837128D02*
X134678571Y-71922842D01*
X134678571Y-71922842D02*
X134721428Y-71965700D01*
X134721428Y-71965700D02*
X134807142Y-72008557D01*
X134807142Y-72008557D02*
X134935713Y-72008557D01*
X134249999Y-72008557D02*
X134249999Y-71408557D01*
X134249999Y-71579985D02*
X134207142Y-71494271D01*
X134207142Y-71494271D02*
X134164285Y-71451414D01*
X134164285Y-71451414D02*
X134078570Y-71408557D01*
X134078570Y-71408557D02*
X133992856Y-71408557D01*
X133778570Y-72351414D02*
X133735713Y-72308557D01*
X133735713Y-72308557D02*
X133649999Y-72179985D01*
X133649999Y-72179985D02*
X133607142Y-72094271D01*
X133607142Y-72094271D02*
X133564284Y-71965700D01*
X133564284Y-71965700D02*
X133521427Y-71751414D01*
X133521427Y-71751414D02*
X133521427Y-71579985D01*
X133521427Y-71579985D02*
X133564284Y-71365700D01*
X133564284Y-71365700D02*
X133607142Y-71237128D01*
X133607142Y-71237128D02*
X133649999Y-71151414D01*
X133649999Y-71151414D02*
X133735713Y-71022842D01*
X133735713Y-71022842D02*
X133778570Y-70979985D01*
X168023811Y-137954819D02*
X168357144Y-137478628D01*
X168595239Y-137954819D02*
X168595239Y-136954819D01*
X168595239Y-136954819D02*
X168214287Y-136954819D01*
X168214287Y-136954819D02*
X168119049Y-137002438D01*
X168119049Y-137002438D02*
X168071430Y-137050057D01*
X168071430Y-137050057D02*
X168023811Y-137145295D01*
X168023811Y-137145295D02*
X168023811Y-137288152D01*
X168023811Y-137288152D02*
X168071430Y-137383390D01*
X168071430Y-137383390D02*
X168119049Y-137431009D01*
X168119049Y-137431009D02*
X168214287Y-137478628D01*
X168214287Y-137478628D02*
X168595239Y-137478628D01*
X167166668Y-137954819D02*
X167166668Y-137431009D01*
X167166668Y-137431009D02*
X167214287Y-137335771D01*
X167214287Y-137335771D02*
X167309525Y-137288152D01*
X167309525Y-137288152D02*
X167500001Y-137288152D01*
X167500001Y-137288152D02*
X167595239Y-137335771D01*
X167166668Y-137907200D02*
X167261906Y-137954819D01*
X167261906Y-137954819D02*
X167500001Y-137954819D01*
X167500001Y-137954819D02*
X167595239Y-137907200D01*
X167595239Y-137907200D02*
X167642858Y-137811961D01*
X167642858Y-137811961D02*
X167642858Y-137716723D01*
X167642858Y-137716723D02*
X167595239Y-137621485D01*
X167595239Y-137621485D02*
X167500001Y-137573866D01*
X167500001Y-137573866D02*
X167261906Y-137573866D01*
X167261906Y-137573866D02*
X167166668Y-137526247D01*
X166738096Y-137907200D02*
X166642858Y-137954819D01*
X166642858Y-137954819D02*
X166452382Y-137954819D01*
X166452382Y-137954819D02*
X166357144Y-137907200D01*
X166357144Y-137907200D02*
X166309525Y-137811961D01*
X166309525Y-137811961D02*
X166309525Y-137764342D01*
X166309525Y-137764342D02*
X166357144Y-137669104D01*
X166357144Y-137669104D02*
X166452382Y-137621485D01*
X166452382Y-137621485D02*
X166595239Y-137621485D01*
X166595239Y-137621485D02*
X166690477Y-137573866D01*
X166690477Y-137573866D02*
X166738096Y-137478628D01*
X166738096Y-137478628D02*
X166738096Y-137431009D01*
X166738096Y-137431009D02*
X166690477Y-137335771D01*
X166690477Y-137335771D02*
X166595239Y-137288152D01*
X166595239Y-137288152D02*
X166452382Y-137288152D01*
X166452382Y-137288152D02*
X166357144Y-137335771D01*
X165880953Y-137288152D02*
X165880953Y-138288152D01*
X165880953Y-137335771D02*
X165785715Y-137288152D01*
X165785715Y-137288152D02*
X165595239Y-137288152D01*
X165595239Y-137288152D02*
X165500001Y-137335771D01*
X165500001Y-137335771D02*
X165452382Y-137383390D01*
X165452382Y-137383390D02*
X165404763Y-137478628D01*
X165404763Y-137478628D02*
X165404763Y-137764342D01*
X165404763Y-137764342D02*
X165452382Y-137859580D01*
X165452382Y-137859580D02*
X165500001Y-137907200D01*
X165500001Y-137907200D02*
X165595239Y-137954819D01*
X165595239Y-137954819D02*
X165785715Y-137954819D01*
X165785715Y-137954819D02*
X165880953Y-137907200D01*
X164976191Y-137954819D02*
X164976191Y-136954819D01*
X164976191Y-137335771D02*
X164880953Y-137288152D01*
X164880953Y-137288152D02*
X164690477Y-137288152D01*
X164690477Y-137288152D02*
X164595239Y-137335771D01*
X164595239Y-137335771D02*
X164547620Y-137383390D01*
X164547620Y-137383390D02*
X164500001Y-137478628D01*
X164500001Y-137478628D02*
X164500001Y-137764342D01*
X164500001Y-137764342D02*
X164547620Y-137859580D01*
X164547620Y-137859580D02*
X164595239Y-137907200D01*
X164595239Y-137907200D02*
X164690477Y-137954819D01*
X164690477Y-137954819D02*
X164880953Y-137954819D01*
X164880953Y-137954819D02*
X164976191Y-137907200D01*
X163690477Y-137907200D02*
X163785715Y-137954819D01*
X163785715Y-137954819D02*
X163976191Y-137954819D01*
X163976191Y-137954819D02*
X164071429Y-137907200D01*
X164071429Y-137907200D02*
X164119048Y-137811961D01*
X164119048Y-137811961D02*
X164119048Y-137431009D01*
X164119048Y-137431009D02*
X164071429Y-137335771D01*
X164071429Y-137335771D02*
X163976191Y-137288152D01*
X163976191Y-137288152D02*
X163785715Y-137288152D01*
X163785715Y-137288152D02*
X163690477Y-137335771D01*
X163690477Y-137335771D02*
X163642858Y-137431009D01*
X163642858Y-137431009D02*
X163642858Y-137526247D01*
X163642858Y-137526247D02*
X164119048Y-137621485D01*
X163214286Y-137954819D02*
X163214286Y-137288152D01*
X163214286Y-137478628D02*
X163166667Y-137383390D01*
X163166667Y-137383390D02*
X163119048Y-137335771D01*
X163119048Y-137335771D02*
X163023810Y-137288152D01*
X163023810Y-137288152D02*
X162928572Y-137288152D01*
X162595238Y-137954819D02*
X162595238Y-137288152D01*
X162595238Y-137478628D02*
X162547619Y-137383390D01*
X162547619Y-137383390D02*
X162500000Y-137335771D01*
X162500000Y-137335771D02*
X162404762Y-137288152D01*
X162404762Y-137288152D02*
X162309524Y-137288152D01*
X162071428Y-137288152D02*
X161833333Y-137954819D01*
X161595238Y-137288152D02*
X161833333Y-137954819D01*
X161833333Y-137954819D02*
X161928571Y-138192914D01*
X161928571Y-138192914D02*
X161976190Y-138240533D01*
X161976190Y-138240533D02*
X162071428Y-138288152D01*
X160452380Y-137954819D02*
X160452380Y-136954819D01*
X160452380Y-136954819D02*
X160071428Y-136954819D01*
X160071428Y-136954819D02*
X159976190Y-137002438D01*
X159976190Y-137002438D02*
X159928571Y-137050057D01*
X159928571Y-137050057D02*
X159880952Y-137145295D01*
X159880952Y-137145295D02*
X159880952Y-137288152D01*
X159880952Y-137288152D02*
X159928571Y-137383390D01*
X159928571Y-137383390D02*
X159976190Y-137431009D01*
X159976190Y-137431009D02*
X160071428Y-137478628D01*
X160071428Y-137478628D02*
X160452380Y-137478628D01*
X159452380Y-137954819D02*
X159452380Y-137288152D01*
X159452380Y-136954819D02*
X159499999Y-137002438D01*
X159499999Y-137002438D02*
X159452380Y-137050057D01*
X159452380Y-137050057D02*
X159404761Y-137002438D01*
X159404761Y-137002438D02*
X159452380Y-136954819D01*
X159452380Y-136954819D02*
X159452380Y-137050057D01*
X158214285Y-137954819D02*
X158214285Y-136954819D01*
X158214285Y-136954819D02*
X157833333Y-136954819D01*
X157833333Y-136954819D02*
X157738095Y-137002438D01*
X157738095Y-137002438D02*
X157690476Y-137050057D01*
X157690476Y-137050057D02*
X157642857Y-137145295D01*
X157642857Y-137145295D02*
X157642857Y-137288152D01*
X157642857Y-137288152D02*
X157690476Y-137383390D01*
X157690476Y-137383390D02*
X157738095Y-137431009D01*
X157738095Y-137431009D02*
X157833333Y-137478628D01*
X157833333Y-137478628D02*
X158214285Y-137478628D01*
X157214285Y-137954819D02*
X157214285Y-137288152D01*
X157214285Y-136954819D02*
X157261904Y-137002438D01*
X157261904Y-137002438D02*
X157214285Y-137050057D01*
X157214285Y-137050057D02*
X157166666Y-137002438D01*
X157166666Y-137002438D02*
X157214285Y-136954819D01*
X157214285Y-136954819D02*
X157214285Y-137050057D01*
X156309524Y-137907200D02*
X156404762Y-137954819D01*
X156404762Y-137954819D02*
X156595238Y-137954819D01*
X156595238Y-137954819D02*
X156690476Y-137907200D01*
X156690476Y-137907200D02*
X156738095Y-137859580D01*
X156738095Y-137859580D02*
X156785714Y-137764342D01*
X156785714Y-137764342D02*
X156785714Y-137478628D01*
X156785714Y-137478628D02*
X156738095Y-137383390D01*
X156738095Y-137383390D02*
X156690476Y-137335771D01*
X156690476Y-137335771D02*
X156595238Y-137288152D01*
X156595238Y-137288152D02*
X156404762Y-137288152D01*
X156404762Y-137288152D02*
X156309524Y-137335771D01*
X155738095Y-137954819D02*
X155833333Y-137907200D01*
X155833333Y-137907200D02*
X155880952Y-137859580D01*
X155880952Y-137859580D02*
X155928571Y-137764342D01*
X155928571Y-137764342D02*
X155928571Y-137478628D01*
X155928571Y-137478628D02*
X155880952Y-137383390D01*
X155880952Y-137383390D02*
X155833333Y-137335771D01*
X155833333Y-137335771D02*
X155738095Y-137288152D01*
X155738095Y-137288152D02*
X155595238Y-137288152D01*
X155595238Y-137288152D02*
X155500000Y-137335771D01*
X155500000Y-137335771D02*
X155452381Y-137383390D01*
X155452381Y-137383390D02*
X155404762Y-137478628D01*
X155404762Y-137478628D02*
X155404762Y-137764342D01*
X155404762Y-137764342D02*
X155452381Y-137859580D01*
X155452381Y-137859580D02*
X155500000Y-137907200D01*
X155500000Y-137907200D02*
X155595238Y-137954819D01*
X155595238Y-137954819D02*
X155738095Y-137954819D01*
X154214285Y-137573866D02*
X153452381Y-137573866D01*
X153833333Y-137954819D02*
X153833333Y-137192914D01*
X152357142Y-136954819D02*
X151785714Y-136954819D01*
X152071428Y-137954819D02*
X152071428Y-136954819D01*
X150880952Y-137859580D02*
X150928571Y-137907200D01*
X150928571Y-137907200D02*
X151071428Y-137954819D01*
X151071428Y-137954819D02*
X151166666Y-137954819D01*
X151166666Y-137954819D02*
X151309523Y-137907200D01*
X151309523Y-137907200D02*
X151404761Y-137811961D01*
X151404761Y-137811961D02*
X151452380Y-137716723D01*
X151452380Y-137716723D02*
X151499999Y-137526247D01*
X151499999Y-137526247D02*
X151499999Y-137383390D01*
X151499999Y-137383390D02*
X151452380Y-137192914D01*
X151452380Y-137192914D02*
X151404761Y-137097676D01*
X151404761Y-137097676D02*
X151309523Y-137002438D01*
X151309523Y-137002438D02*
X151166666Y-136954819D01*
X151166666Y-136954819D02*
X151071428Y-136954819D01*
X151071428Y-136954819D02*
X150928571Y-137002438D01*
X150928571Y-137002438D02*
X150880952Y-137050057D01*
X150547618Y-136954819D02*
X149880952Y-136954819D01*
X149880952Y-136954819D02*
X150309523Y-137954819D01*
X149357142Y-137383390D02*
X149452380Y-137335771D01*
X149452380Y-137335771D02*
X149499999Y-137288152D01*
X149499999Y-137288152D02*
X149547618Y-137192914D01*
X149547618Y-137192914D02*
X149547618Y-137145295D01*
X149547618Y-137145295D02*
X149499999Y-137050057D01*
X149499999Y-137050057D02*
X149452380Y-137002438D01*
X149452380Y-137002438D02*
X149357142Y-136954819D01*
X149357142Y-136954819D02*
X149166666Y-136954819D01*
X149166666Y-136954819D02*
X149071428Y-137002438D01*
X149071428Y-137002438D02*
X149023809Y-137050057D01*
X149023809Y-137050057D02*
X148976190Y-137145295D01*
X148976190Y-137145295D02*
X148976190Y-137192914D01*
X148976190Y-137192914D02*
X149023809Y-137288152D01*
X149023809Y-137288152D02*
X149071428Y-137335771D01*
X149071428Y-137335771D02*
X149166666Y-137383390D01*
X149166666Y-137383390D02*
X149357142Y-137383390D01*
X149357142Y-137383390D02*
X149452380Y-137431009D01*
X149452380Y-137431009D02*
X149499999Y-137478628D01*
X149499999Y-137478628D02*
X149547618Y-137573866D01*
X149547618Y-137573866D02*
X149547618Y-137764342D01*
X149547618Y-137764342D02*
X149499999Y-137859580D01*
X149499999Y-137859580D02*
X149452380Y-137907200D01*
X149452380Y-137907200D02*
X149357142Y-137954819D01*
X149357142Y-137954819D02*
X149166666Y-137954819D01*
X149166666Y-137954819D02*
X149071428Y-137907200D01*
X149071428Y-137907200D02*
X149023809Y-137859580D01*
X149023809Y-137859580D02*
X148976190Y-137764342D01*
X148976190Y-137764342D02*
X148976190Y-137573866D01*
X148976190Y-137573866D02*
X149023809Y-137478628D01*
X149023809Y-137478628D02*
X149071428Y-137431009D01*
X149071428Y-137431009D02*
X149166666Y-137383390D01*
X148547618Y-137954819D02*
X148547618Y-136954819D01*
X148547618Y-137431009D02*
X147976190Y-137431009D01*
X147976190Y-137954819D02*
X147976190Y-136954819D01*
X147071428Y-136954819D02*
X147261904Y-136954819D01*
X147261904Y-136954819D02*
X147357142Y-137002438D01*
X147357142Y-137002438D02*
X147404761Y-137050057D01*
X147404761Y-137050057D02*
X147499999Y-137192914D01*
X147499999Y-137192914D02*
X147547618Y-137383390D01*
X147547618Y-137383390D02*
X147547618Y-137764342D01*
X147547618Y-137764342D02*
X147499999Y-137859580D01*
X147499999Y-137859580D02*
X147452380Y-137907200D01*
X147452380Y-137907200D02*
X147357142Y-137954819D01*
X147357142Y-137954819D02*
X147166666Y-137954819D01*
X147166666Y-137954819D02*
X147071428Y-137907200D01*
X147071428Y-137907200D02*
X147023809Y-137859580D01*
X147023809Y-137859580D02*
X146976190Y-137764342D01*
X146976190Y-137764342D02*
X146976190Y-137526247D01*
X146976190Y-137526247D02*
X147023809Y-137431009D01*
X147023809Y-137431009D02*
X147071428Y-137383390D01*
X147071428Y-137383390D02*
X147166666Y-137335771D01*
X147166666Y-137335771D02*
X147357142Y-137335771D01*
X147357142Y-137335771D02*
X147452380Y-137383390D01*
X147452380Y-137383390D02*
X147499999Y-137431009D01*
X147499999Y-137431009D02*
X147547618Y-137526247D01*
X146071428Y-136954819D02*
X146547618Y-136954819D01*
X146547618Y-136954819D02*
X146595237Y-137431009D01*
X146595237Y-137431009D02*
X146547618Y-137383390D01*
X146547618Y-137383390D02*
X146452380Y-137335771D01*
X146452380Y-137335771D02*
X146214285Y-137335771D01*
X146214285Y-137335771D02*
X146119047Y-137383390D01*
X146119047Y-137383390D02*
X146071428Y-137431009D01*
X146071428Y-137431009D02*
X146023809Y-137526247D01*
X146023809Y-137526247D02*
X146023809Y-137764342D01*
X146023809Y-137764342D02*
X146071428Y-137859580D01*
X146071428Y-137859580D02*
X146119047Y-137907200D01*
X146119047Y-137907200D02*
X146214285Y-137954819D01*
X146214285Y-137954819D02*
X146452380Y-137954819D01*
X146452380Y-137954819D02*
X146547618Y-137907200D01*
X146547618Y-137907200D02*
X146595237Y-137859580D01*
X145690475Y-136954819D02*
X145071428Y-136954819D01*
X145071428Y-136954819D02*
X145404761Y-137335771D01*
X145404761Y-137335771D02*
X145261904Y-137335771D01*
X145261904Y-137335771D02*
X145166666Y-137383390D01*
X145166666Y-137383390D02*
X145119047Y-137431009D01*
X145119047Y-137431009D02*
X145071428Y-137526247D01*
X145071428Y-137526247D02*
X145071428Y-137764342D01*
X145071428Y-137764342D02*
X145119047Y-137859580D01*
X145119047Y-137859580D02*
X145166666Y-137907200D01*
X145166666Y-137907200D02*
X145261904Y-137954819D01*
X145261904Y-137954819D02*
X145547618Y-137954819D01*
X145547618Y-137954819D02*
X145642856Y-137907200D01*
X145642856Y-137907200D02*
X145690475Y-137859580D01*
X144309523Y-137431009D02*
X144642856Y-137431009D01*
X144642856Y-137954819D02*
X144642856Y-136954819D01*
X144642856Y-136954819D02*
X144166666Y-136954819D01*
X143928570Y-136954819D02*
X143357142Y-136954819D01*
X143642856Y-137954819D02*
X143642856Y-136954819D01*
X142499999Y-137002438D02*
X142595237Y-136954819D01*
X142595237Y-136954819D02*
X142738094Y-136954819D01*
X142738094Y-136954819D02*
X142880951Y-137002438D01*
X142880951Y-137002438D02*
X142976189Y-137097676D01*
X142976189Y-137097676D02*
X143023808Y-137192914D01*
X143023808Y-137192914D02*
X143071427Y-137383390D01*
X143071427Y-137383390D02*
X143071427Y-137526247D01*
X143071427Y-137526247D02*
X143023808Y-137716723D01*
X143023808Y-137716723D02*
X142976189Y-137811961D01*
X142976189Y-137811961D02*
X142880951Y-137907200D01*
X142880951Y-137907200D02*
X142738094Y-137954819D01*
X142738094Y-137954819D02*
X142642856Y-137954819D01*
X142642856Y-137954819D02*
X142499999Y-137907200D01*
X142499999Y-137907200D02*
X142452380Y-137859580D01*
X142452380Y-137859580D02*
X142452380Y-137526247D01*
X142452380Y-137526247D02*
X142642856Y-137526247D01*
X141261903Y-137573866D02*
X140499999Y-137573866D01*
X140880951Y-137954819D02*
X140880951Y-137192914D01*
X138928570Y-137431009D02*
X139261903Y-137431009D01*
X139261903Y-137954819D02*
X139261903Y-136954819D01*
X139261903Y-136954819D02*
X138785713Y-136954819D01*
X138452379Y-137669104D02*
X137976189Y-137669104D01*
X138547617Y-137954819D02*
X138214284Y-136954819D01*
X138214284Y-136954819D02*
X137880951Y-137954819D01*
X137547617Y-137573866D02*
X136785713Y-137573866D01*
X135785713Y-137954819D02*
X136357141Y-137954819D01*
X136071427Y-137954819D02*
X136071427Y-136954819D01*
X136071427Y-136954819D02*
X136166665Y-137097676D01*
X136166665Y-137097676D02*
X136261903Y-137192914D01*
X136261903Y-137192914D02*
X136357141Y-137240533D01*
X135452379Y-136954819D02*
X134833332Y-136954819D01*
X134833332Y-136954819D02*
X135166665Y-137335771D01*
X135166665Y-137335771D02*
X135023808Y-137335771D01*
X135023808Y-137335771D02*
X134928570Y-137383390D01*
X134928570Y-137383390D02*
X134880951Y-137431009D01*
X134880951Y-137431009D02*
X134833332Y-137526247D01*
X134833332Y-137526247D02*
X134833332Y-137764342D01*
X134833332Y-137764342D02*
X134880951Y-137859580D01*
X134880951Y-137859580D02*
X134928570Y-137907200D01*
X134928570Y-137907200D02*
X135023808Y-137954819D01*
X135023808Y-137954819D02*
X135309522Y-137954819D01*
X135309522Y-137954819D02*
X135404760Y-137907200D01*
X135404760Y-137907200D02*
X135452379Y-137859580D01*
X134214284Y-136954819D02*
X134119046Y-136954819D01*
X134119046Y-136954819D02*
X134023808Y-137002438D01*
X134023808Y-137002438D02*
X133976189Y-137050057D01*
X133976189Y-137050057D02*
X133928570Y-137145295D01*
X133928570Y-137145295D02*
X133880951Y-137335771D01*
X133880951Y-137335771D02*
X133880951Y-137573866D01*
X133880951Y-137573866D02*
X133928570Y-137764342D01*
X133928570Y-137764342D02*
X133976189Y-137859580D01*
X133976189Y-137859580D02*
X134023808Y-137907200D01*
X134023808Y-137907200D02*
X134119046Y-137954819D01*
X134119046Y-137954819D02*
X134214284Y-137954819D01*
X134214284Y-137954819D02*
X134309522Y-137907200D01*
X134309522Y-137907200D02*
X134357141Y-137859580D01*
X134357141Y-137859580D02*
X134404760Y-137764342D01*
X134404760Y-137764342D02*
X134452379Y-137573866D01*
X134452379Y-137573866D02*
X134452379Y-137335771D01*
X134452379Y-137335771D02*
X134404760Y-137145295D01*
X134404760Y-137145295D02*
X134357141Y-137050057D01*
X134357141Y-137050057D02*
X134309522Y-137002438D01*
X134309522Y-137002438D02*
X134214284Y-136954819D01*
X132785712Y-137954819D02*
X132261903Y-137288152D01*
X132785712Y-137288152D02*
X132261903Y-137954819D01*
X131928569Y-137050057D02*
X131880950Y-137002438D01*
X131880950Y-137002438D02*
X131785712Y-136954819D01*
X131785712Y-136954819D02*
X131547617Y-136954819D01*
X131547617Y-136954819D02*
X131452379Y-137002438D01*
X131452379Y-137002438D02*
X131404760Y-137050057D01*
X131404760Y-137050057D02*
X131357141Y-137145295D01*
X131357141Y-137145295D02*
X131357141Y-137240533D01*
X131357141Y-137240533D02*
X131404760Y-137383390D01*
X131404760Y-137383390D02*
X131976188Y-137954819D01*
X131976188Y-137954819D02*
X131357141Y-137954819D01*
D11*
X160599999Y-135045782D02*
X160599999Y-134245782D01*
X160599999Y-134474354D02*
X160542856Y-134360068D01*
X160542856Y-134360068D02*
X160485714Y-134302925D01*
X160485714Y-134302925D02*
X160371428Y-134245782D01*
X160371428Y-134245782D02*
X160257142Y-134245782D01*
X159399999Y-134988640D02*
X159514285Y-135045782D01*
X159514285Y-135045782D02*
X159742857Y-135045782D01*
X159742857Y-135045782D02*
X159857142Y-134988640D01*
X159857142Y-134988640D02*
X159914285Y-134874354D01*
X159914285Y-134874354D02*
X159914285Y-134417211D01*
X159914285Y-134417211D02*
X159857142Y-134302925D01*
X159857142Y-134302925D02*
X159742857Y-134245782D01*
X159742857Y-134245782D02*
X159514285Y-134245782D01*
X159514285Y-134245782D02*
X159399999Y-134302925D01*
X159399999Y-134302925D02*
X159342857Y-134417211D01*
X159342857Y-134417211D02*
X159342857Y-134531497D01*
X159342857Y-134531497D02*
X159914285Y-134645782D01*
X158942857Y-134245782D02*
X158657143Y-135045782D01*
X158657143Y-135045782D02*
X158371428Y-134245782D01*
X157914285Y-134931497D02*
X157857142Y-134988640D01*
X157857142Y-134988640D02*
X157914285Y-135045782D01*
X157914285Y-135045782D02*
X157971428Y-134988640D01*
X157971428Y-134988640D02*
X157914285Y-134931497D01*
X157914285Y-134931497D02*
X157914285Y-135045782D01*
X156771428Y-135045782D02*
X157342856Y-135045782D01*
X157342856Y-135045782D02*
X157342856Y-133845782D01*
X155742856Y-135045782D02*
X156428570Y-135045782D01*
X156085713Y-135045782D02*
X156085713Y-133845782D01*
X156085713Y-133845782D02*
X156199999Y-134017211D01*
X156199999Y-134017211D02*
X156314284Y-134131497D01*
X156314284Y-134131497D02*
X156428570Y-134188640D01*
X153457141Y-133960068D02*
X153399998Y-133902925D01*
X153399998Y-133902925D02*
X153285713Y-133845782D01*
X153285713Y-133845782D02*
X152999998Y-133845782D01*
X152999998Y-133845782D02*
X152885713Y-133902925D01*
X152885713Y-133902925D02*
X152828570Y-133960068D01*
X152828570Y-133960068D02*
X152771427Y-134074354D01*
X152771427Y-134074354D02*
X152771427Y-134188640D01*
X152771427Y-134188640D02*
X152828570Y-134360068D01*
X152828570Y-134360068D02*
X153514284Y-135045782D01*
X153514284Y-135045782D02*
X152771427Y-135045782D01*
X152028570Y-133845782D02*
X151914284Y-133845782D01*
X151914284Y-133845782D02*
X151799998Y-133902925D01*
X151799998Y-133902925D02*
X151742856Y-133960068D01*
X151742856Y-133960068D02*
X151685713Y-134074354D01*
X151685713Y-134074354D02*
X151628570Y-134302925D01*
X151628570Y-134302925D02*
X151628570Y-134588640D01*
X151628570Y-134588640D02*
X151685713Y-134817211D01*
X151685713Y-134817211D02*
X151742856Y-134931497D01*
X151742856Y-134931497D02*
X151799998Y-134988640D01*
X151799998Y-134988640D02*
X151914284Y-135045782D01*
X151914284Y-135045782D02*
X152028570Y-135045782D01*
X152028570Y-135045782D02*
X152142856Y-134988640D01*
X152142856Y-134988640D02*
X152199998Y-134931497D01*
X152199998Y-134931497D02*
X152257141Y-134817211D01*
X152257141Y-134817211D02*
X152314284Y-134588640D01*
X152314284Y-134588640D02*
X152314284Y-134302925D01*
X152314284Y-134302925D02*
X152257141Y-134074354D01*
X152257141Y-134074354D02*
X152199998Y-133960068D01*
X152199998Y-133960068D02*
X152142856Y-133902925D01*
X152142856Y-133902925D02*
X152028570Y-133845782D01*
X151171427Y-133960068D02*
X151114284Y-133902925D01*
X151114284Y-133902925D02*
X150999999Y-133845782D01*
X150999999Y-133845782D02*
X150714284Y-133845782D01*
X150714284Y-133845782D02*
X150599999Y-133902925D01*
X150599999Y-133902925D02*
X150542856Y-133960068D01*
X150542856Y-133960068D02*
X150485713Y-134074354D01*
X150485713Y-134074354D02*
X150485713Y-134188640D01*
X150485713Y-134188640D02*
X150542856Y-134360068D01*
X150542856Y-134360068D02*
X151228570Y-135045782D01*
X151228570Y-135045782D02*
X150485713Y-135045782D01*
X149457142Y-133845782D02*
X149685713Y-133845782D01*
X149685713Y-133845782D02*
X149799999Y-133902925D01*
X149799999Y-133902925D02*
X149857142Y-133960068D01*
X149857142Y-133960068D02*
X149971427Y-134131497D01*
X149971427Y-134131497D02*
X150028570Y-134360068D01*
X150028570Y-134360068D02*
X150028570Y-134817211D01*
X150028570Y-134817211D02*
X149971427Y-134931497D01*
X149971427Y-134931497D02*
X149914284Y-134988640D01*
X149914284Y-134988640D02*
X149799999Y-135045782D01*
X149799999Y-135045782D02*
X149571427Y-135045782D01*
X149571427Y-135045782D02*
X149457142Y-134988640D01*
X149457142Y-134988640D02*
X149399999Y-134931497D01*
X149399999Y-134931497D02*
X149342856Y-134817211D01*
X149342856Y-134817211D02*
X149342856Y-134531497D01*
X149342856Y-134531497D02*
X149399999Y-134417211D01*
X149399999Y-134417211D02*
X149457142Y-134360068D01*
X149457142Y-134360068D02*
X149571427Y-134302925D01*
X149571427Y-134302925D02*
X149799999Y-134302925D01*
X149799999Y-134302925D02*
X149914284Y-134360068D01*
X149914284Y-134360068D02*
X149971427Y-134417211D01*
X149971427Y-134417211D02*
X150028570Y-134531497D01*
X148828570Y-134588640D02*
X147914285Y-134588640D01*
X146714285Y-135045782D02*
X147399999Y-135045782D01*
X147057142Y-135045782D02*
X147057142Y-133845782D01*
X147057142Y-133845782D02*
X147171428Y-134017211D01*
X147171428Y-134017211D02*
X147285713Y-134131497D01*
X147285713Y-134131497D02*
X147399999Y-134188640D01*
X145971428Y-133845782D02*
X145857142Y-133845782D01*
X145857142Y-133845782D02*
X145742856Y-133902925D01*
X145742856Y-133902925D02*
X145685714Y-133960068D01*
X145685714Y-133960068D02*
X145628571Y-134074354D01*
X145628571Y-134074354D02*
X145571428Y-134302925D01*
X145571428Y-134302925D02*
X145571428Y-134588640D01*
X145571428Y-134588640D02*
X145628571Y-134817211D01*
X145628571Y-134817211D02*
X145685714Y-134931497D01*
X145685714Y-134931497D02*
X145742856Y-134988640D01*
X145742856Y-134988640D02*
X145857142Y-135045782D01*
X145857142Y-135045782D02*
X145971428Y-135045782D01*
X145971428Y-135045782D02*
X146085714Y-134988640D01*
X146085714Y-134988640D02*
X146142856Y-134931497D01*
X146142856Y-134931497D02*
X146199999Y-134817211D01*
X146199999Y-134817211D02*
X146257142Y-134588640D01*
X146257142Y-134588640D02*
X146257142Y-134302925D01*
X146257142Y-134302925D02*
X146199999Y-134074354D01*
X146199999Y-134074354D02*
X146142856Y-133960068D01*
X146142856Y-133960068D02*
X146085714Y-133902925D01*
X146085714Y-133902925D02*
X145971428Y-133845782D01*
X143228570Y-134417211D02*
X142828570Y-134417211D01*
X142657142Y-135045782D02*
X143228570Y-135045782D01*
X143228570Y-135045782D02*
X143228570Y-133845782D01*
X143228570Y-133845782D02*
X142657142Y-133845782D01*
X142142856Y-135045782D02*
X142142856Y-133845782D01*
X142142856Y-133845782D02*
X141857142Y-133845782D01*
X141857142Y-133845782D02*
X141685713Y-133902925D01*
X141685713Y-133902925D02*
X141571428Y-134017211D01*
X141571428Y-134017211D02*
X141514285Y-134131497D01*
X141514285Y-134131497D02*
X141457142Y-134360068D01*
X141457142Y-134360068D02*
X141457142Y-134531497D01*
X141457142Y-134531497D02*
X141514285Y-134760068D01*
X141514285Y-134760068D02*
X141571428Y-134874354D01*
X141571428Y-134874354D02*
X141685713Y-134988640D01*
X141685713Y-134988640D02*
X141857142Y-135045782D01*
X141857142Y-135045782D02*
X142142856Y-135045782D01*
X141114285Y-133845782D02*
X140428571Y-133845782D01*
X140771428Y-135045782D02*
X140771428Y-133845782D01*
X139342856Y-134931497D02*
X139399999Y-134988640D01*
X139399999Y-134988640D02*
X139571427Y-135045782D01*
X139571427Y-135045782D02*
X139685713Y-135045782D01*
X139685713Y-135045782D02*
X139857142Y-134988640D01*
X139857142Y-134988640D02*
X139971427Y-134874354D01*
X139971427Y-134874354D02*
X140028570Y-134760068D01*
X140028570Y-134760068D02*
X140085713Y-134531497D01*
X140085713Y-134531497D02*
X140085713Y-134360068D01*
X140085713Y-134360068D02*
X140028570Y-134131497D01*
X140028570Y-134131497D02*
X139971427Y-134017211D01*
X139971427Y-134017211D02*
X139857142Y-133902925D01*
X139857142Y-133902925D02*
X139685713Y-133845782D01*
X139685713Y-133845782D02*
X139571427Y-133845782D01*
X139571427Y-133845782D02*
X139399999Y-133902925D01*
X139399999Y-133902925D02*
X139342856Y-133960068D01*
D12*
X165714285Y-131356657D02*
X167142857Y-131356657D01*
X167142857Y-131356657D02*
X167142857Y-128356657D01*
X164714286Y-131356657D02*
X164714286Y-129356657D01*
X164714286Y-128356657D02*
X164857143Y-128499514D01*
X164857143Y-128499514D02*
X164714286Y-128642371D01*
X164714286Y-128642371D02*
X164571429Y-128499514D01*
X164571429Y-128499514D02*
X164714286Y-128356657D01*
X164714286Y-128356657D02*
X164714286Y-128642371D01*
X163285715Y-129356657D02*
X163285715Y-131356657D01*
X163285715Y-129642371D02*
X163142858Y-129499514D01*
X163142858Y-129499514D02*
X162857143Y-129356657D01*
X162857143Y-129356657D02*
X162428572Y-129356657D01*
X162428572Y-129356657D02*
X162142858Y-129499514D01*
X162142858Y-129499514D02*
X162000001Y-129785228D01*
X162000001Y-129785228D02*
X162000001Y-131356657D01*
X159428572Y-131213800D02*
X159714286Y-131356657D01*
X159714286Y-131356657D02*
X160285715Y-131356657D01*
X160285715Y-131356657D02*
X160571429Y-131213800D01*
X160571429Y-131213800D02*
X160714286Y-130928085D01*
X160714286Y-130928085D02*
X160714286Y-129785228D01*
X160714286Y-129785228D02*
X160571429Y-129499514D01*
X160571429Y-129499514D02*
X160285715Y-129356657D01*
X160285715Y-129356657D02*
X159714286Y-129356657D01*
X159714286Y-129356657D02*
X159428572Y-129499514D01*
X159428572Y-129499514D02*
X159285715Y-129785228D01*
X159285715Y-129785228D02*
X159285715Y-130070942D01*
X159285715Y-130070942D02*
X160714286Y-130356657D01*
X158428571Y-129356657D02*
X157285714Y-129356657D01*
X158000000Y-128356657D02*
X158000000Y-130928085D01*
X158000000Y-130928085D02*
X157857143Y-131213800D01*
X157857143Y-131213800D02*
X157571428Y-131356657D01*
X157571428Y-131356657D02*
X157285714Y-131356657D01*
X156285714Y-131356657D02*
X156285714Y-129356657D01*
X156285714Y-129928085D02*
X156142857Y-129642371D01*
X156142857Y-129642371D02*
X156000000Y-129499514D01*
X156000000Y-129499514D02*
X155714285Y-129356657D01*
X155714285Y-129356657D02*
X155428571Y-129356657D01*
X153142857Y-131356657D02*
X153142857Y-129785228D01*
X153142857Y-129785228D02*
X153285714Y-129499514D01*
X153285714Y-129499514D02*
X153571428Y-129356657D01*
X153571428Y-129356657D02*
X154142857Y-129356657D01*
X154142857Y-129356657D02*
X154428571Y-129499514D01*
X153142857Y-131213800D02*
X153428571Y-131356657D01*
X153428571Y-131356657D02*
X154142857Y-131356657D01*
X154142857Y-131356657D02*
X154428571Y-131213800D01*
X154428571Y-131213800D02*
X154571428Y-130928085D01*
X154571428Y-130928085D02*
X154571428Y-130642371D01*
X154571428Y-130642371D02*
X154428571Y-130356657D01*
X154428571Y-130356657D02*
X154142857Y-130213800D01*
X154142857Y-130213800D02*
X153428571Y-130213800D01*
X153428571Y-130213800D02*
X153142857Y-130070942D01*
X150428571Y-131213800D02*
X150714285Y-131356657D01*
X150714285Y-131356657D02*
X151285713Y-131356657D01*
X151285713Y-131356657D02*
X151571428Y-131213800D01*
X151571428Y-131213800D02*
X151714285Y-131070942D01*
X151714285Y-131070942D02*
X151857142Y-130785228D01*
X151857142Y-130785228D02*
X151857142Y-129928085D01*
X151857142Y-129928085D02*
X151714285Y-129642371D01*
X151714285Y-129642371D02*
X151571428Y-129499514D01*
X151571428Y-129499514D02*
X151285713Y-129356657D01*
X151285713Y-129356657D02*
X150714285Y-129356657D01*
X150714285Y-129356657D02*
X150428571Y-129499514D01*
X147999999Y-131213800D02*
X148285713Y-131356657D01*
X148285713Y-131356657D02*
X148857142Y-131356657D01*
X148857142Y-131356657D02*
X149142856Y-131213800D01*
X149142856Y-131213800D02*
X149285713Y-130928085D01*
X149285713Y-130928085D02*
X149285713Y-129785228D01*
X149285713Y-129785228D02*
X149142856Y-129499514D01*
X149142856Y-129499514D02*
X148857142Y-129356657D01*
X148857142Y-129356657D02*
X148285713Y-129356657D01*
X148285713Y-129356657D02*
X147999999Y-129499514D01*
X147999999Y-129499514D02*
X147857142Y-129785228D01*
X147857142Y-129785228D02*
X147857142Y-130070942D01*
X147857142Y-130070942D02*
X149285713Y-130356657D01*
X146571427Y-131356657D02*
X146571427Y-129356657D01*
X146571427Y-129928085D02*
X146428570Y-129642371D01*
X146428570Y-129642371D02*
X146285713Y-129499514D01*
X146285713Y-129499514D02*
X145999998Y-129356657D01*
X145999998Y-129356657D02*
X145714284Y-129356657D01*
X144857141Y-128642371D02*
X144714284Y-128499514D01*
X144714284Y-128499514D02*
X144428570Y-128356657D01*
X144428570Y-128356657D02*
X143714284Y-128356657D01*
X143714284Y-128356657D02*
X143428570Y-128499514D01*
X143428570Y-128499514D02*
X143285712Y-128642371D01*
X143285712Y-128642371D02*
X143142855Y-128928085D01*
X143142855Y-128928085D02*
X143142855Y-129213800D01*
X143142855Y-129213800D02*
X143285712Y-129642371D01*
X143285712Y-129642371D02*
X144999998Y-131356657D01*
X144999998Y-131356657D02*
X143142855Y-131356657D01*
X138142855Y-131356657D02*
X139571427Y-131356657D01*
X139571427Y-131356657D02*
X139571427Y-128356657D01*
X137142856Y-131356657D02*
X137142856Y-129356657D01*
X137142856Y-128356657D02*
X137285713Y-128499514D01*
X137285713Y-128499514D02*
X137142856Y-128642371D01*
X137142856Y-128642371D02*
X136999999Y-128499514D01*
X136999999Y-128499514D02*
X137142856Y-128356657D01*
X137142856Y-128356657D02*
X137142856Y-128642371D01*
X136142856Y-129356657D02*
X134999999Y-129356657D01*
X135714285Y-128356657D02*
X135714285Y-130928085D01*
X135714285Y-130928085D02*
X135571428Y-131213800D01*
X135571428Y-131213800D02*
X135285713Y-131356657D01*
X135285713Y-131356657D02*
X134999999Y-131356657D01*
X132857142Y-131213800D02*
X133142856Y-131356657D01*
X133142856Y-131356657D02*
X133714285Y-131356657D01*
X133714285Y-131356657D02*
X133999999Y-131213800D01*
X133999999Y-131213800D02*
X134142856Y-130928085D01*
X134142856Y-130928085D02*
X134142856Y-129785228D01*
X134142856Y-129785228D02*
X133999999Y-129499514D01*
X133999999Y-129499514D02*
X133714285Y-129356657D01*
X133714285Y-129356657D02*
X133142856Y-129356657D01*
X133142856Y-129356657D02*
X132857142Y-129499514D01*
X132857142Y-129499514D02*
X132714285Y-129785228D01*
X132714285Y-129785228D02*
X132714285Y-130070942D01*
X132714285Y-130070942D02*
X134142856Y-130356657D01*
D10*
G36*
X163637152Y-73681236D02*
G01*
X163852184Y-73514956D01*
X163942277Y-73549628D01*
X164011235Y-73566637D01*
X164752658Y-73717189D01*
X164752658Y-73452039D01*
X164742255Y-73269777D01*
X164732533Y-73193630D01*
X165066266Y-73193630D01*
X165051417Y-73350143D01*
X165048387Y-73452039D01*
X165048387Y-73773364D01*
X165572533Y-73860999D01*
X165518799Y-74155360D01*
X165048387Y-74056491D01*
X165048387Y-74669931D01*
X165044654Y-74758231D01*
X165031028Y-74834754D01*
X165015955Y-74876497D01*
X164994768Y-74913797D01*
X164970661Y-74942689D01*
X164940677Y-74968276D01*
X164862121Y-75009148D01*
X164745874Y-75038938D01*
X164570625Y-75055736D01*
X164463768Y-75057789D01*
X164146087Y-75046721D01*
X163801374Y-75013023D01*
X163769337Y-75008549D01*
X163760348Y-74703637D01*
X163922035Y-74733081D01*
X164089563Y-74756544D01*
X164243130Y-74771395D01*
X164396470Y-74779146D01*
X164466015Y-74780036D01*
X164560808Y-74776786D01*
X164632574Y-74766540D01*
X164671796Y-74754374D01*
X164701748Y-74737893D01*
X164720925Y-74720106D01*
X164734847Y-74698762D01*
X164750172Y-74641852D01*
X164752658Y-74591285D01*
X164752658Y-73995821D01*
X164062819Y-73858752D01*
X164157174Y-74008043D01*
X164229152Y-74104250D01*
X164310042Y-74200452D01*
X164421172Y-74312653D01*
X164174780Y-74458710D01*
X164056001Y-74325238D01*
X163903661Y-74118992D01*
X163747411Y-73870675D01*
X163711109Y-73804823D01*
X163640667Y-73686700D01*
X163637152Y-73681236D01*
G37*
G36*
X162900223Y-73263288D02*
G01*
X163110760Y-73487307D01*
X162924644Y-73630848D01*
X162658020Y-73864726D01*
X162550760Y-73971201D01*
X162322344Y-73738193D01*
X162467143Y-73601964D01*
X162721819Y-73393397D01*
X162900223Y-73263288D01*
G37*
G36*
X163180223Y-74755123D02*
G01*
X162992058Y-75050852D01*
X162773902Y-75001764D01*
X162552217Y-74927671D01*
X162331755Y-74829375D01*
X162161046Y-74734997D01*
X161958970Y-74599104D01*
X161767458Y-74441010D01*
X161593618Y-74265975D01*
X161515730Y-74174501D01*
X161444793Y-74081587D01*
X161332281Y-73906233D01*
X161506964Y-73590378D01*
X161601563Y-73763352D01*
X161661837Y-73853719D01*
X161729558Y-73943857D01*
X161804426Y-74032939D01*
X161886116Y-74120108D01*
X161972110Y-74202519D01*
X162064010Y-74281522D01*
X162157452Y-74353382D01*
X162255804Y-74420694D01*
X162322344Y-74461739D01*
X162419598Y-74516140D01*
X162525566Y-74567776D01*
X162635262Y-74613960D01*
X162752505Y-74656053D01*
X162871019Y-74691663D01*
X162995963Y-74722222D01*
X163180223Y-74755123D01*
G37*
G36*
X161070160Y-73605325D02*
G01*
X161070160Y-73910043D01*
X160828164Y-73901055D01*
X160637850Y-73901055D01*
X160637850Y-74206260D01*
X160647102Y-74408319D01*
X160651235Y-74441808D01*
X160337627Y-74441808D01*
X160339406Y-74409890D01*
X160346615Y-74206260D01*
X160346615Y-73901055D01*
X159815729Y-73901055D01*
X159815729Y-73986344D01*
X159818876Y-74103064D01*
X159828401Y-74208766D01*
X159842505Y-74294990D01*
X159861951Y-74373495D01*
X159884887Y-74440007D01*
X159912587Y-74500782D01*
X159943868Y-74554361D01*
X159979709Y-74603425D01*
X160065862Y-74690055D01*
X160177324Y-74766845D01*
X160325927Y-74839004D01*
X160438450Y-74881543D01*
X160198799Y-75108200D01*
X160100308Y-75061385D01*
X160011306Y-75011922D01*
X159936051Y-74962944D01*
X159868429Y-74911325D01*
X159810421Y-74859196D01*
X159758804Y-74804366D01*
X159713947Y-74747642D01*
X159674686Y-74688047D01*
X159611075Y-74557944D01*
X159565198Y-74407596D01*
X159536152Y-74227274D01*
X159524690Y-74000914D01*
X159524591Y-73975109D01*
X159524591Y-73901055D01*
X159358799Y-73901055D01*
X159112407Y-73907796D01*
X159112407Y-73609819D01*
X159183313Y-73619520D01*
X159272546Y-73624508D01*
X159358799Y-73625549D01*
X159524591Y-73625549D01*
X159524591Y-73389415D01*
X159516344Y-73231803D01*
X159512925Y-73197960D01*
X159511109Y-73180245D01*
X159829211Y-73180245D01*
X159820068Y-73266227D01*
X159815734Y-73384970D01*
X159815729Y-73389415D01*
X159815729Y-73625549D01*
X160346615Y-73625549D01*
X160346615Y-73402897D01*
X160337388Y-73231810D01*
X160333133Y-73200566D01*
X160651235Y-73200566D01*
X160642015Y-73302574D01*
X160637850Y-73402897D01*
X160637850Y-73625549D01*
X160828164Y-73625549D01*
X160990572Y-73616520D01*
X161070160Y-73605325D01*
G37*
G36*
X158753956Y-73929484D02*
G01*
X158753956Y-74281194D01*
X158393356Y-74269959D01*
X157190509Y-74269959D01*
X156988267Y-74277933D01*
X156928387Y-74281194D01*
X156928387Y-73929484D01*
X156950648Y-73931242D01*
X157058002Y-73938880D01*
X157190509Y-73942967D01*
X158393356Y-73942967D01*
X158692208Y-73933739D01*
X158753956Y-73929484D01*
G37*
G36*
X156409234Y-73365494D02*
G01*
X156417627Y-73427810D01*
X156426268Y-73487539D01*
X156478687Y-73885289D01*
X156500521Y-74125410D01*
X156509462Y-74362576D01*
X156498121Y-74633754D01*
X156465606Y-74884665D01*
X156419874Y-75081529D01*
X156166741Y-75061404D01*
X156171235Y-74969568D01*
X156160097Y-74864251D01*
X156100375Y-74644815D01*
X155998799Y-74328968D01*
X156135380Y-74217007D01*
X156167364Y-74287516D01*
X156236203Y-74447670D01*
X156245191Y-74302101D01*
X156234216Y-74105317D01*
X156192830Y-73760087D01*
X156137627Y-73434551D01*
X156102712Y-73285548D01*
X156086140Y-73234272D01*
X156395254Y-73207307D01*
X156409234Y-73365494D01*
G37*
G36*
X155298647Y-73329735D02*
G01*
X155297627Y-73358054D01*
X155295380Y-73607768D01*
X155452184Y-73610015D01*
X155608803Y-73606889D01*
X155762072Y-73597510D01*
X155844242Y-73589792D01*
X155844242Y-73856407D01*
X155650688Y-73866385D01*
X155457216Y-73869789D01*
X155452184Y-73869792D01*
X155293230Y-73867642D01*
X155283330Y-74176830D01*
X155277501Y-74328968D01*
X155423070Y-74319980D01*
X155495314Y-74323060D01*
X155562825Y-74332113D01*
X155624178Y-74346521D01*
X155680481Y-74366141D01*
X155730223Y-74390005D01*
X155774714Y-74418318D01*
X155812693Y-74449854D01*
X155845293Y-74485135D01*
X155871729Y-74522976D01*
X155892647Y-74563966D01*
X155907701Y-74607344D01*
X155916995Y-74653392D01*
X155920348Y-74704418D01*
X155917252Y-74754777D01*
X155908085Y-74801630D01*
X155893522Y-74843773D01*
X155873557Y-74882498D01*
X155818215Y-74949366D01*
X155741027Y-75003228D01*
X155639318Y-75043128D01*
X155510049Y-75066213D01*
X155418576Y-75070294D01*
X155346713Y-75067218D01*
X155282139Y-75058191D01*
X155227185Y-75044336D01*
X155178398Y-75025616D01*
X155136836Y-75003103D01*
X155100657Y-74976511D01*
X155043787Y-74912231D01*
X155004960Y-74831516D01*
X154984070Y-74731143D01*
X154981870Y-74702171D01*
X154838280Y-74813049D01*
X154708513Y-74929219D01*
X154553956Y-74693085D01*
X154660665Y-74600537D01*
X154716627Y-74559924D01*
X155266266Y-74559924D01*
X155266266Y-74600566D01*
X155269532Y-74655915D01*
X155279888Y-74702957D01*
X155293480Y-74733832D01*
X155312330Y-74759372D01*
X155333917Y-74777571D01*
X155360296Y-74791359D01*
X155429863Y-74805468D01*
X155449937Y-74806023D01*
X155506004Y-74802827D01*
X155555694Y-74792955D01*
X155590989Y-74779363D01*
X155619824Y-74760623D01*
X155638350Y-74740759D01*
X155651128Y-74716959D01*
X155658325Y-74675109D01*
X155655256Y-74647811D01*
X155646283Y-74623025D01*
X155611732Y-74581495D01*
X155553184Y-74550863D01*
X155468038Y-74535689D01*
X155445540Y-74535109D01*
X155322669Y-74546935D01*
X155266266Y-74559924D01*
X154716627Y-74559924D01*
X154787502Y-74508489D01*
X154868320Y-74460297D01*
X154956414Y-74416635D01*
X154988513Y-74402925D01*
X154990273Y-74373101D01*
X155003417Y-74133947D01*
X155013230Y-73851034D01*
X154695967Y-73817296D01*
X154666015Y-73813030D01*
X154666015Y-73533030D01*
X154803108Y-73558242D01*
X154948410Y-73577968D01*
X155013230Y-73584516D01*
X155006489Y-73353951D01*
X154993007Y-73209554D01*
X155313356Y-73209554D01*
X155298647Y-73329735D01*
G37*
G36*
X153991709Y-73336365D02*
G01*
X153991709Y-73632192D01*
X153785731Y-73646573D01*
X153561034Y-73654922D01*
X153380223Y-73656812D01*
X152996975Y-73646641D01*
X152732882Y-73629945D01*
X152732882Y-73331773D01*
X153081284Y-73356307D01*
X153382470Y-73363330D01*
X153612745Y-73360203D01*
X153820626Y-73350824D01*
X153991709Y-73336365D01*
G37*
G36*
X153803545Y-74287838D02*
G01*
X154097027Y-74260873D01*
X154102085Y-74284145D01*
X154128480Y-74419783D01*
X154138028Y-74498647D01*
X154141772Y-74584251D01*
X154138646Y-74641258D01*
X154129271Y-74694932D01*
X154114500Y-74742990D01*
X154094043Y-74787909D01*
X154037492Y-74866624D01*
X153958317Y-74933272D01*
X153852938Y-74988329D01*
X153716197Y-75030490D01*
X153542032Y-75056912D01*
X153371235Y-75064041D01*
X153198249Y-75060991D01*
X153036073Y-75052145D01*
X152885407Y-75037903D01*
X152748001Y-75018748D01*
X152593956Y-74987935D01*
X152596203Y-74671885D01*
X152796516Y-74716125D01*
X153063651Y-74748948D01*
X153217371Y-74758306D01*
X153376643Y-74761665D01*
X153382470Y-74761669D01*
X153474109Y-74758606D01*
X153554785Y-74749673D01*
X153620942Y-74736253D01*
X153677913Y-74718293D01*
X153723128Y-74697658D01*
X153760725Y-74673588D01*
X153789421Y-74647938D01*
X153811678Y-74619676D01*
X153837234Y-74557797D01*
X153841646Y-74514690D01*
X153830352Y-74399302D01*
X153803545Y-74287838D01*
G37*
G36*
X152007090Y-73440510D02*
G01*
X152007090Y-73718361D01*
X151695785Y-73736855D01*
X151619623Y-73738487D01*
X151665357Y-73918599D01*
X151720317Y-74104408D01*
X151771519Y-74253493D01*
X151827659Y-74393416D01*
X151874905Y-74493197D01*
X151610635Y-74587377D01*
X151600208Y-74569495D01*
X151547913Y-74488703D01*
X151464285Y-74402413D01*
X151360369Y-74330682D01*
X151236735Y-74275575D01*
X151094970Y-74239813D01*
X150938143Y-74226244D01*
X150927438Y-74226191D01*
X150866925Y-74229237D01*
X150812326Y-74238052D01*
X150764428Y-74251887D01*
X150722345Y-74270379D01*
X150686632Y-74292693D01*
X150656647Y-74318638D01*
X150632602Y-74347530D01*
X150614279Y-74379134D01*
X150594923Y-74449154D01*
X150593705Y-74472974D01*
X150596783Y-74516684D01*
X150605824Y-74557066D01*
X150640185Y-74627495D01*
X150696748Y-74687547D01*
X150778812Y-74738408D01*
X150891558Y-74778897D01*
X151040195Y-74805801D01*
X151227603Y-74814561D01*
X151451038Y-74800397D01*
X151579274Y-74782576D01*
X151500823Y-75071564D01*
X151359058Y-75083858D01*
X151224095Y-75089059D01*
X151104150Y-75087394D01*
X150990941Y-75079305D01*
X150891894Y-75065917D01*
X150799304Y-75046804D01*
X150719333Y-75023856D01*
X150645427Y-74995845D01*
X150582226Y-74965133D01*
X150524691Y-74929926D01*
X150475891Y-74892644D01*
X150432439Y-74851298D01*
X150396005Y-74807879D01*
X150364758Y-74760665D01*
X150339339Y-74710761D01*
X150319152Y-74657157D01*
X150294985Y-74538578D01*
X150291235Y-74463986D01*
X150294328Y-74408473D01*
X150303472Y-74355590D01*
X150318350Y-74305830D01*
X150338805Y-74258998D01*
X150395950Y-74174446D01*
X150474555Y-74102739D01*
X150574747Y-74045572D01*
X150696490Y-74005537D01*
X150839030Y-73985797D01*
X150893831Y-73984293D01*
X150988149Y-73987502D01*
X151079443Y-73997466D01*
X151160773Y-74012877D01*
X151240822Y-74034711D01*
X151317513Y-74062270D01*
X151394089Y-74096525D01*
X151449337Y-74125465D01*
X151375327Y-73848100D01*
X151348513Y-73733504D01*
X150957133Y-73702197D01*
X150508523Y-73645013D01*
X150459274Y-73637175D01*
X150463768Y-73370461D01*
X150772381Y-73425148D01*
X151128592Y-73464914D01*
X151292533Y-73475877D01*
X151279148Y-73406414D01*
X151268742Y-73355524D01*
X151227564Y-73176728D01*
X151543419Y-73163344D01*
X151541727Y-73254657D01*
X151549722Y-73353428D01*
X151554654Y-73391076D01*
X151568039Y-73483204D01*
X151799079Y-73468357D01*
X152007090Y-73440510D01*
G37*
G36*
X149251933Y-73159729D02*
G01*
X149323545Y-73429177D01*
X148959222Y-73511143D01*
X148666195Y-73568957D01*
X148423070Y-73608745D01*
X148355952Y-73334900D01*
X148674012Y-73286466D01*
X148919341Y-73240230D01*
X149144840Y-73189621D01*
X149251933Y-73159729D01*
G37*
G36*
X149238450Y-73610992D02*
G01*
X149538576Y-73570643D01*
X149571344Y-73951922D01*
X149601253Y-74199652D01*
X149634239Y-74419032D01*
X149650635Y-74507461D01*
X149393007Y-74572820D01*
X149364996Y-74518709D01*
X149327421Y-74463982D01*
X149310160Y-74442101D01*
X149220914Y-74353099D01*
X149112197Y-74279559D01*
X148985361Y-74223795D01*
X148842816Y-74188487D01*
X148688212Y-74176170D01*
X148687438Y-74176170D01*
X148631765Y-74179230D01*
X148579801Y-74188146D01*
X148532069Y-74202499D01*
X148488971Y-74221903D01*
X148451688Y-74245431D01*
X148419743Y-74273055D01*
X148394410Y-74303215D01*
X148374839Y-74336503D01*
X148361819Y-74371159D01*
X148354843Y-74408104D01*
X148353705Y-74430866D01*
X148356825Y-74476227D01*
X148366159Y-74519316D01*
X148381171Y-74558940D01*
X148401996Y-74596175D01*
X148461221Y-74663252D01*
X148546528Y-74720911D01*
X148662263Y-74767653D01*
X148813238Y-74800311D01*
X149003777Y-74814566D01*
X149237073Y-74805541D01*
X149381772Y-74789219D01*
X149296678Y-75082799D01*
X149147203Y-75092183D01*
X149008681Y-75094654D01*
X148884829Y-75090751D01*
X148770686Y-75080933D01*
X148669332Y-75066078D01*
X148576561Y-75046197D01*
X148494708Y-75022398D01*
X148420455Y-74994343D01*
X148355305Y-74963179D01*
X148296941Y-74928405D01*
X148246016Y-74890924D01*
X148201257Y-74850350D01*
X148162558Y-74806986D01*
X148129619Y-74760932D01*
X148079587Y-74659709D01*
X148050328Y-74545320D01*
X148042344Y-74437607D01*
X148045451Y-74382859D01*
X148054690Y-74329341D01*
X148069984Y-74277327D01*
X148091199Y-74227334D01*
X148118173Y-74179817D01*
X148150812Y-74135101D01*
X148188806Y-74093759D01*
X148232175Y-74055966D01*
X148280464Y-74022317D01*
X148333825Y-73992929D01*
X148391723Y-73968337D01*
X148454395Y-73948693D01*
X148521314Y-73934436D01*
X148592727Y-73925801D01*
X148662819Y-73923134D01*
X148751513Y-73926297D01*
X148838863Y-73935930D01*
X148921178Y-73951416D01*
X149002161Y-73973224D01*
X149079490Y-74000637D01*
X149155472Y-74034368D01*
X149228959Y-74073945D01*
X149301052Y-74119990D01*
X149323545Y-74135919D01*
X149295946Y-73936358D01*
X149258554Y-73709210D01*
X149238450Y-73610992D01*
G37*
G36*
X146753454Y-73313462D02*
G01*
X146911965Y-73349489D01*
X147061638Y-73408487D01*
X147199565Y-73489153D01*
X147322496Y-73589534D01*
X147377302Y-73646298D01*
X147427157Y-73706924D01*
X147471624Y-73770835D01*
X147510658Y-73837972D01*
X147543649Y-73907210D01*
X147570827Y-73979014D01*
X147591630Y-74051804D01*
X147606335Y-74126513D01*
X147616678Y-74262436D01*
X147613610Y-74341703D01*
X147604643Y-74417390D01*
X147589914Y-74490001D01*
X147569866Y-74558198D01*
X147544835Y-74621671D01*
X147515206Y-74679970D01*
X147481839Y-74732035D01*
X147444709Y-74778341D01*
X147405373Y-74817466D01*
X147363141Y-74850487D01*
X147320103Y-74876174D01*
X147274973Y-74895616D01*
X147229885Y-74908148D01*
X147183384Y-74914376D01*
X147161995Y-74915053D01*
X147117713Y-74911950D01*
X147074598Y-74902736D01*
X146990673Y-74865794D01*
X146907796Y-74801726D01*
X146824734Y-74705327D01*
X146741541Y-74569644D01*
X146659461Y-74386919D01*
X146590760Y-74183888D01*
X146522644Y-73925458D01*
X146463953Y-73620529D01*
X146457547Y-73581976D01*
X146761046Y-73581976D01*
X146809335Y-73856795D01*
X146879748Y-74125465D01*
X146922564Y-74255954D01*
X146964978Y-74363163D01*
X147000034Y-74434749D01*
X147035138Y-74490906D01*
X147064447Y-74526021D01*
X147093976Y-74550820D01*
X147119338Y-74563912D01*
X147144971Y-74569739D01*
X147153007Y-74570085D01*
X147203591Y-74557529D01*
X147251372Y-74518788D01*
X147292442Y-74450669D01*
X147308712Y-74404340D01*
X147320799Y-74350311D01*
X147329937Y-74233225D01*
X147317519Y-74122000D01*
X147278566Y-74001871D01*
X147249149Y-73941956D01*
X147213250Y-73883499D01*
X147172164Y-73828835D01*
X147125080Y-73777167D01*
X147074643Y-73731406D01*
X147018873Y-73689788D01*
X146961125Y-73654785D01*
X146898689Y-73624718D01*
X146834928Y-73601216D01*
X146767006Y-73583233D01*
X146761046Y-73581976D01*
X146457547Y-73581976D01*
X146456427Y-73575235D01*
X146393004Y-73589207D01*
X146333868Y-73608575D01*
X146279666Y-73632815D01*
X146229804Y-73661889D01*
X146184451Y-73695497D01*
X146143566Y-73733477D01*
X146075001Y-73822469D01*
X146024773Y-73928565D01*
X145994447Y-74051564D01*
X145986015Y-74168159D01*
X145989090Y-74233542D01*
X145998110Y-74295498D01*
X146012840Y-74354225D01*
X146032943Y-74409430D01*
X146089099Y-74510671D01*
X146166016Y-74599242D01*
X146263505Y-74674158D01*
X146380969Y-74733348D01*
X146496678Y-74769484D01*
X146591603Y-74789097D01*
X146705066Y-74805339D01*
X146537027Y-75072150D01*
X146437776Y-75053636D01*
X146344572Y-75029870D01*
X146259719Y-75001843D01*
X146180621Y-74969108D01*
X146109019Y-74932763D01*
X146042926Y-74892182D01*
X145983461Y-74848377D01*
X145929325Y-74800728D01*
X145881045Y-74749937D01*
X145838003Y-74695606D01*
X145767756Y-74576906D01*
X145718217Y-74444075D01*
X145689946Y-74296161D01*
X145683545Y-74177147D01*
X145686647Y-74097901D01*
X145695863Y-74020782D01*
X145711013Y-73946218D01*
X145731973Y-73874323D01*
X145758460Y-73805694D01*
X145790425Y-73740250D01*
X145827446Y-73678690D01*
X145869598Y-73620802D01*
X145916324Y-73567292D01*
X145967830Y-73517911D01*
X146023475Y-73473289D01*
X146083561Y-73433229D01*
X146147444Y-73398236D01*
X146215448Y-73368227D01*
X146287011Y-73343579D01*
X146362403Y-73324339D01*
X146441206Y-73310789D01*
X146523567Y-73303087D01*
X146588513Y-73301292D01*
X146753454Y-73313462D01*
G37*
G36*
X145408039Y-73441390D02*
G01*
X144588262Y-73441390D01*
X144612452Y-73591248D01*
X144621772Y-73644697D01*
X145316203Y-73644697D01*
X145316203Y-75167698D01*
X145056329Y-75167698D01*
X145056329Y-75051536D01*
X143759399Y-75051536D01*
X143759399Y-75167698D01*
X143486140Y-75167698D01*
X143486140Y-74802995D01*
X143759399Y-74802995D01*
X144001297Y-74802995D01*
X144243293Y-74802995D01*
X144588262Y-74802995D01*
X144827913Y-74802995D01*
X145056329Y-74802995D01*
X145056329Y-73891187D01*
X144827913Y-73891187D01*
X144827913Y-74802995D01*
X144588262Y-74802995D01*
X144588262Y-74638863D01*
X144243293Y-74638863D01*
X144243293Y-74802995D01*
X144001297Y-74802995D01*
X144001297Y-74428326D01*
X144243293Y-74428326D01*
X144588262Y-74428326D01*
X144588262Y-74257454D01*
X144243293Y-74257454D01*
X144243293Y-74428326D01*
X144001297Y-74428326D01*
X144001297Y-74046916D01*
X144243293Y-74046916D01*
X144588262Y-74046916D01*
X144588262Y-73891187D01*
X144243293Y-73891187D01*
X144243293Y-74046916D01*
X144001297Y-74046916D01*
X144001297Y-73891187D01*
X143759399Y-73891187D01*
X143759399Y-74802995D01*
X143486140Y-74802995D01*
X143486140Y-73644697D01*
X144341870Y-73644697D01*
X144279148Y-73441390D01*
X143383070Y-73441390D01*
X143383070Y-73188256D01*
X145408039Y-73188256D01*
X145408039Y-73441390D01*
G37*
G36*
X142276552Y-73395570D02*
G01*
X142276552Y-73682213D01*
X141976935Y-73699386D01*
X141586630Y-73698176D01*
X141313356Y-73682213D01*
X141313356Y-73393420D01*
X141591219Y-73414573D01*
X141779405Y-73419635D01*
X141971136Y-73418050D01*
X142132148Y-73410243D01*
X142276193Y-73395619D01*
X142276552Y-73395570D01*
G37*
G36*
X142097376Y-74354076D02*
G01*
X142354905Y-74329359D01*
X142379965Y-74462766D01*
X142392024Y-74579923D01*
X142393007Y-74621473D01*
X142389875Y-74671742D01*
X142380457Y-74718731D01*
X142365741Y-74760042D01*
X142345348Y-74798237D01*
X142288930Y-74863600D01*
X142209088Y-74916719D01*
X142101115Y-74957211D01*
X141958753Y-74982515D01*
X141821870Y-74989010D01*
X141639874Y-74985959D01*
X141483275Y-74977110D01*
X141355969Y-74963968D01*
X141243893Y-74946512D01*
X141250635Y-74643944D01*
X141394907Y-74670549D01*
X141534047Y-74688854D01*
X141787915Y-74702288D01*
X141810635Y-74702367D01*
X141893222Y-74699291D01*
X141961817Y-74690266D01*
X142011330Y-74677611D01*
X142051112Y-74660773D01*
X142078835Y-74642385D01*
X142099623Y-74620979D01*
X142121376Y-74572603D01*
X142124242Y-74542827D01*
X142111768Y-74419740D01*
X142097376Y-74354076D01*
G37*
G36*
X142621521Y-73245995D02*
G01*
X142935129Y-73219129D01*
X142950434Y-73379218D01*
X142957501Y-73438068D01*
X142973217Y-73541702D01*
X143023777Y-73902640D01*
X143043605Y-74113654D01*
X143051584Y-74327112D01*
X143040317Y-74601841D01*
X143007591Y-74865243D01*
X142964242Y-75061599D01*
X142704368Y-75043427D01*
X142708862Y-74951006D01*
X142697627Y-74845688D01*
X142644264Y-74641244D01*
X142536329Y-74295653D01*
X142675254Y-74185549D01*
X142776078Y-74414746D01*
X142784968Y-74268689D01*
X142774029Y-74083811D01*
X142733770Y-73772703D01*
X142677501Y-73444809D01*
X142652845Y-73347893D01*
X142621521Y-73245995D01*
G37*
G36*
X140153007Y-74087754D02*
G01*
X140126820Y-74133677D01*
X139979034Y-74397370D01*
X139913351Y-74523640D01*
X139864019Y-74631829D01*
X139608736Y-74499157D01*
X139706021Y-74321138D01*
X139865845Y-74058256D01*
X139915603Y-73977649D01*
X140153007Y-74087754D01*
G37*
G36*
X139398101Y-73085479D02*
G01*
X139398101Y-73544655D01*
X140253831Y-73544655D01*
X140253831Y-73815765D01*
X139398101Y-73815765D01*
X139398101Y-74840901D01*
X139401409Y-74869861D01*
X139412060Y-74890041D01*
X139443453Y-74905775D01*
X139474305Y-74908312D01*
X139746987Y-74908079D01*
X139899874Y-74903818D01*
X139846004Y-75013218D01*
X139817802Y-75089880D01*
X139798834Y-75160166D01*
X139796901Y-75170336D01*
X139561897Y-75168336D01*
X139380883Y-75153039D01*
X139268262Y-75125591D01*
X139226861Y-75106556D01*
X139192962Y-75082665D01*
X139170317Y-75058466D01*
X139152229Y-75029517D01*
X139128745Y-74954920D01*
X139120348Y-74840901D01*
X139120348Y-73815765D01*
X138871709Y-73815765D01*
X138871709Y-73544655D01*
X139120348Y-73544655D01*
X139120348Y-73085479D01*
X139398101Y-73085479D01*
G37*
G36*
X140444242Y-73071997D02*
G01*
X140540764Y-73299409D01*
X140662845Y-73524224D01*
X140730567Y-73629573D01*
X140801826Y-73728670D01*
X140873011Y-73816930D01*
X140946197Y-73897259D01*
X140981772Y-73932611D01*
X140909135Y-74050726D01*
X140824968Y-74213685D01*
X140694743Y-74066175D01*
X140666015Y-74029331D01*
X140666015Y-75163692D01*
X140392658Y-75163692D01*
X140392658Y-73611871D01*
X140257399Y-73342336D01*
X140177627Y-73154844D01*
X140444242Y-73071997D01*
G37*
G36*
X138170635Y-73220399D02*
G01*
X138502121Y-73186693D01*
X138502638Y-73199859D01*
X138507148Y-73289632D01*
X138517850Y-73382087D01*
X138555618Y-73678629D01*
X138573165Y-73870591D01*
X138585498Y-74081997D01*
X138589462Y-74277286D01*
X138578274Y-74473031D01*
X138543102Y-74700019D01*
X138487509Y-74926271D01*
X138461772Y-75004739D01*
X138213133Y-74980120D01*
X138217627Y-74887991D01*
X138214511Y-74837718D01*
X138205209Y-74781779D01*
X138204242Y-74777984D01*
X138130063Y-74484288D01*
X138051933Y-74230099D01*
X138190760Y-74140315D01*
X138258373Y-74302711D01*
X138298325Y-74400775D01*
X138316945Y-74260320D01*
X138318255Y-74068244D01*
X138297089Y-73820784D01*
X138251415Y-73532525D01*
X138224368Y-73402213D01*
X138170635Y-73220399D01*
G37*
G36*
X137939874Y-73620078D02*
G01*
X137939874Y-73904572D01*
X137881969Y-73907005D01*
X137594905Y-73915807D01*
X137344019Y-73911313D01*
X137344019Y-73992108D01*
X137347645Y-74171313D01*
X137360521Y-74323937D01*
X137375160Y-74410610D01*
X137395716Y-74489445D01*
X137418843Y-74552181D01*
X137447503Y-74610846D01*
X137519421Y-74714466D01*
X137552407Y-74751020D01*
X137631610Y-74822285D01*
X137752674Y-74900833D01*
X137812184Y-74930685D01*
X137554654Y-75134969D01*
X137473318Y-75079584D01*
X137401477Y-75022936D01*
X137341544Y-74967765D01*
X137289142Y-74911001D01*
X137244707Y-74853745D01*
X137206531Y-74794546D01*
X137146419Y-74667717D01*
X137104442Y-74522063D01*
X137078313Y-74343526D01*
X137066969Y-74102485D01*
X137066266Y-73995332D01*
X137066266Y-73901055D01*
X136734780Y-73874188D01*
X136732533Y-73582855D01*
X136943664Y-73612573D01*
X137068513Y-73623302D01*
X137068513Y-73335486D01*
X137068121Y-73326805D01*
X137057376Y-73182492D01*
X137382121Y-73182492D01*
X137368162Y-73252529D01*
X137357501Y-73337733D01*
X137348513Y-73640301D01*
X137601646Y-73644697D01*
X137835803Y-73632851D01*
X137939874Y-73620078D01*
G37*
G36*
X135053820Y-73240151D02*
G01*
X135137627Y-73249219D01*
X135373099Y-73260055D01*
X135863419Y-73269540D01*
X135965317Y-73267293D01*
X136067215Y-73258305D01*
X136058325Y-73549443D01*
X135874654Y-73531662D01*
X135332533Y-73509289D01*
X135698873Y-73811972D01*
X135800697Y-73894802D01*
X135984522Y-74048840D01*
X136362944Y-74364237D01*
X136159050Y-74574969D01*
X136053283Y-74459449D01*
X135946959Y-74357604D01*
X135873587Y-74297528D01*
X135797972Y-74245068D01*
X135730887Y-74206651D01*
X135661072Y-74174569D01*
X135594104Y-74150983D01*
X135524019Y-74133310D01*
X135453315Y-74122145D01*
X135379022Y-74116942D01*
X135352658Y-74116575D01*
X135285424Y-74119653D01*
X135221557Y-74128694D01*
X135161870Y-74143329D01*
X135106595Y-74163300D01*
X135057495Y-74187619D01*
X135013588Y-74216469D01*
X134976901Y-74248066D01*
X134945854Y-74283337D01*
X134921967Y-74320059D01*
X134903941Y-74359693D01*
X134892497Y-74400294D01*
X134887125Y-74443220D01*
X134886741Y-74458515D01*
X134889862Y-74509622D01*
X134899207Y-74557279D01*
X134913866Y-74599412D01*
X134934118Y-74638327D01*
X134990247Y-74705383D01*
X135069648Y-74760470D01*
X135072658Y-74762060D01*
X135083746Y-74708509D01*
X135100781Y-74657281D01*
X135123222Y-74609665D01*
X135151213Y-74565232D01*
X135183810Y-74525358D01*
X135221515Y-74489398D01*
X135263181Y-74458471D01*
X135309548Y-74432093D01*
X135359583Y-74411002D01*
X135413992Y-74395070D01*
X135472116Y-74384752D01*
X135534375Y-74380241D01*
X135549811Y-74380064D01*
X135656137Y-74391962D01*
X135751578Y-74426333D01*
X135832754Y-74480800D01*
X135866764Y-74514602D01*
X135895462Y-74551790D01*
X135918523Y-74591801D01*
X135935632Y-74634084D01*
X135946323Y-74677236D01*
X135950673Y-74721514D01*
X135950760Y-74728745D01*
X135947681Y-74772246D01*
X135938630Y-74813511D01*
X135903263Y-74889615D01*
X135844543Y-74957394D01*
X135761058Y-75015516D01*
X135651784Y-75060764D01*
X135517846Y-75088623D01*
X135404242Y-75095304D01*
X135308042Y-75092225D01*
X135217944Y-75083176D01*
X135135274Y-75068725D01*
X135058495Y-75049042D01*
X134988647Y-75024809D01*
X134924500Y-74996019D01*
X134866718Y-74963353D01*
X134814488Y-74926738D01*
X134768070Y-74886675D01*
X134727127Y-74843196D01*
X134720383Y-74833281D01*
X135330286Y-74833281D01*
X135460223Y-74840022D01*
X135513562Y-74836970D01*
X135560961Y-74828111D01*
X135600070Y-74814645D01*
X135632602Y-74796680D01*
X135656156Y-74776597D01*
X135673272Y-74753359D01*
X135682952Y-74729466D01*
X135686481Y-74703392D01*
X135686489Y-74701976D01*
X135674470Y-74657580D01*
X135638647Y-74620104D01*
X135612397Y-74606590D01*
X135581279Y-74597960D01*
X135547564Y-74595095D01*
X135510568Y-74598172D01*
X135476340Y-74607202D01*
X135417423Y-74641631D01*
X135371232Y-74697396D01*
X135340117Y-74774934D01*
X135330286Y-74833281D01*
X134720383Y-74833281D01*
X134661513Y-74746727D01*
X134617453Y-74638150D01*
X134595597Y-74518113D01*
X134593356Y-74463009D01*
X134596440Y-74404502D01*
X134605520Y-74348193D01*
X134641156Y-74241802D01*
X134699362Y-74145113D01*
X134779421Y-74060094D01*
X134880273Y-73989446D01*
X135000041Y-73936351D01*
X135066252Y-73917369D01*
X135135840Y-73903986D01*
X135263070Y-73894802D01*
X135346247Y-73898201D01*
X135429317Y-73909492D01*
X135475854Y-73919519D01*
X135325577Y-73798721D01*
X135136982Y-73647271D01*
X134978674Y-73527168D01*
X134869595Y-73454580D01*
X134821870Y-73424195D01*
X134967438Y-73224307D01*
X135053820Y-73240151D01*
G37*
G36*
X176739108Y-140211039D02*
G01*
X176739108Y-140640479D01*
X174930062Y-140640479D01*
X175101144Y-140773428D01*
X175282627Y-140900739D01*
X175443326Y-141001812D01*
X175668921Y-141001812D01*
X175668921Y-141581913D01*
X177121238Y-141581913D01*
X177121238Y-142022307D01*
X175668921Y-142022307D01*
X175668921Y-142893570D01*
X175674432Y-142935360D01*
X175692686Y-142961239D01*
X175746772Y-142976652D01*
X175770844Y-142977394D01*
X176389682Y-142966599D01*
X176291844Y-143162290D01*
X176239536Y-143297494D01*
X176204094Y-143417948D01*
X175881000Y-143414500D01*
X175618180Y-143388899D01*
X175443326Y-143341426D01*
X175377943Y-143309985D01*
X175324766Y-143271565D01*
X175288017Y-143231876D01*
X175259105Y-143185288D01*
X175222229Y-143066743D01*
X175210270Y-142900873D01*
X175210270Y-142022307D01*
X173761604Y-142022307D01*
X173761604Y-141581913D01*
X175210270Y-141581913D01*
X175210270Y-141348380D01*
X174836852Y-141107180D01*
X174442133Y-140805157D01*
X174258517Y-140645989D01*
X174090955Y-140486793D01*
X174041812Y-140436793D01*
X174373140Y-140185320D01*
X174475062Y-140211039D01*
X176739108Y-140211039D01*
G37*
G36*
X170765844Y-140176430D02*
G01*
X171053513Y-140293117D01*
X170908563Y-140532011D01*
X170769495Y-140800507D01*
X170474682Y-140676358D01*
X170583904Y-140474456D01*
X170713333Y-140256242D01*
X170765844Y-140176430D01*
G37*
G36*
X170332752Y-140008464D02*
G01*
X170623914Y-140128961D01*
X170478375Y-140355480D01*
X170329101Y-140632541D01*
X170037939Y-140508551D01*
X170241691Y-140150286D01*
X170332752Y-140008464D01*
G37*
G36*
X172523928Y-140231042D02*
G01*
X172982580Y-140417265D01*
X172730968Y-140988397D01*
X172476618Y-141504757D01*
X172615679Y-141614669D01*
X172741352Y-141730171D01*
X172830423Y-141827112D01*
X172908037Y-141928748D01*
X172965176Y-142021273D01*
X173011836Y-142118053D01*
X173044531Y-142210290D01*
X173067164Y-142306588D01*
X173080851Y-142464607D01*
X173075835Y-142565707D01*
X173061043Y-142659147D01*
X173037667Y-142742831D01*
X173005774Y-142819707D01*
X172918224Y-142953438D01*
X172797388Y-143065332D01*
X172638526Y-143157630D01*
X172434075Y-143229712D01*
X172174589Y-143278457D01*
X171849515Y-143298800D01*
X171806978Y-143299038D01*
X171266434Y-143280487D01*
X170783744Y-143228041D01*
X170638520Y-143204418D01*
X170631217Y-142683534D01*
X171036948Y-142755220D01*
X171297615Y-142786216D01*
X171559046Y-142806867D01*
X171817773Y-142814826D01*
X171976344Y-142809766D01*
X172116474Y-142794662D01*
X172226514Y-142772649D01*
X172321654Y-142742725D01*
X172394172Y-142709292D01*
X172454714Y-142669645D01*
X172499437Y-142628162D01*
X172534193Y-142581618D01*
X172572840Y-142478781D01*
X172578541Y-142413487D01*
X172558859Y-142278281D01*
X172499388Y-142146109D01*
X172393864Y-142009530D01*
X172228478Y-141860897D01*
X172072580Y-141749244D01*
X171699847Y-141529519D01*
X171241102Y-141295281D01*
X171169882Y-141260270D01*
X170805851Y-141066903D01*
X171038907Y-140636192D01*
X171246843Y-140780613D01*
X171373728Y-140855120D01*
X171617219Y-140989450D01*
X172068928Y-141242012D01*
X172216797Y-140951116D01*
X172366530Y-140625263D01*
X172523928Y-140231042D01*
G37*
G36*
X169651999Y-141518569D02*
G01*
X169677559Y-141958010D01*
X169352967Y-142029455D01*
X168978548Y-142078190D01*
X169004108Y-142447461D01*
X168999092Y-142561369D01*
X168984300Y-142666354D01*
X168961086Y-142759486D01*
X168929454Y-142844631D01*
X168890534Y-142920635D01*
X168844160Y-142989259D01*
X168729668Y-143105561D01*
X168584034Y-143196392D01*
X168402957Y-143261666D01*
X168181058Y-143298447D01*
X168028541Y-143304753D01*
X167875541Y-143299739D01*
X167730678Y-143284962D01*
X167596062Y-143261205D01*
X167469997Y-143228715D01*
X167354936Y-143188724D01*
X167248704Y-143141054D01*
X167153733Y-143087416D01*
X167067747Y-143027130D01*
X166992778Y-142962224D01*
X166926883Y-142891622D01*
X166871436Y-142817326D01*
X166825162Y-142738166D01*
X166788769Y-142655685D01*
X166761749Y-142569044D01*
X166744390Y-142478963D01*
X166736769Y-142385314D01*
X166736411Y-142359668D01*
X166741517Y-142247726D01*
X166756944Y-142139387D01*
X166817017Y-141935132D01*
X166921280Y-141726636D01*
X167089488Y-141486023D01*
X167602752Y-141594614D01*
X167503463Y-141694744D01*
X167418492Y-141796053D01*
X167354953Y-141887994D01*
X167303782Y-141981101D01*
X167268064Y-142067634D01*
X167243412Y-142155316D01*
X167227766Y-142301245D01*
X167232826Y-142370336D01*
X167247919Y-142436524D01*
X167272482Y-142498428D01*
X167306543Y-142556585D01*
X167402972Y-142660047D01*
X167538860Y-142744138D01*
X167716772Y-142804058D01*
X167938743Y-142833382D01*
X168014094Y-142835147D01*
X168118489Y-142830087D01*
X168211978Y-142814982D01*
X168287912Y-142792450D01*
X168354559Y-142761689D01*
X168408279Y-142725664D01*
X168453801Y-142682633D01*
X168518560Y-142579330D01*
X168552102Y-142447529D01*
X168556411Y-142370622D01*
X168545828Y-142162862D01*
X168541805Y-142103591D01*
X168396224Y-142103591D01*
X167947295Y-142086685D01*
X167751985Y-142070887D01*
X167741030Y-141637954D01*
X168189511Y-141674684D01*
X168472587Y-141681454D01*
X168498147Y-141681454D01*
X168436231Y-141189146D01*
X168162316Y-141184346D01*
X167928647Y-141171068D01*
X167726425Y-141152790D01*
X167711978Y-140719382D01*
X167923126Y-140745320D01*
X168174432Y-140764054D01*
X168377967Y-140770660D01*
X168337960Y-140488706D01*
X168335731Y-140474145D01*
X168312375Y-140331298D01*
X168276044Y-140162777D01*
X168789308Y-140133406D01*
X168784288Y-140262080D01*
X168792960Y-140459336D01*
X168822171Y-140756055D01*
X169030513Y-140733615D01*
X169234891Y-140701116D01*
X169412555Y-140662873D01*
X169575636Y-140616824D01*
X169597386Y-141036421D01*
X169263691Y-141112826D01*
X168873133Y-141167396D01*
X168934889Y-141663356D01*
X169188969Y-141629762D01*
X169444573Y-141578472D01*
X169651999Y-141518569D01*
G37*
G36*
X164881763Y-140185012D02*
G01*
X164948636Y-140399294D01*
X165021985Y-140597138D01*
X166030256Y-140597138D01*
X166030256Y-143406993D01*
X165593354Y-143406993D01*
X165593354Y-141026578D01*
X163442185Y-141026578D01*
X163442185Y-142897539D01*
X163447509Y-142936986D01*
X163464456Y-142961692D01*
X163515715Y-142976891D01*
X163533154Y-142977394D01*
X163711853Y-142980670D01*
X163985281Y-142974968D01*
X164068326Y-142970250D01*
X163990299Y-143155497D01*
X163951592Y-143283196D01*
X163927774Y-143398676D01*
X163926238Y-143410645D01*
X163515462Y-143399466D01*
X163357135Y-143378633D01*
X163226921Y-143341538D01*
X163209288Y-143334123D01*
X163153435Y-143303263D01*
X163107734Y-143265497D01*
X163047794Y-143175843D01*
X163014239Y-143049860D01*
X163005442Y-142904683D01*
X163005442Y-140597138D01*
X164526978Y-140597138D01*
X164398146Y-140339930D01*
X164272171Y-140063553D01*
X164829094Y-139983063D01*
X164881763Y-140185012D01*
G37*
G36*
X165240277Y-142886585D02*
G01*
X164843541Y-142886585D01*
X164843541Y-142631937D01*
X163809868Y-142631937D01*
X163809868Y-142249807D01*
X164210256Y-142249807D01*
X164843541Y-142249807D01*
X164843541Y-141758134D01*
X164210256Y-141758134D01*
X164210256Y-142249807D01*
X163809868Y-142249807D01*
X163809868Y-141379655D01*
X165240277Y-141379655D01*
X165240277Y-142886585D01*
G37*
G36*
X161680449Y-140245648D02*
G01*
X162219115Y-140190877D01*
X162219955Y-140212271D01*
X162227284Y-140358153D01*
X162244675Y-140508392D01*
X162306047Y-140990272D01*
X162334561Y-141302211D01*
X162354602Y-141645745D01*
X162361044Y-141963091D01*
X162342864Y-142281176D01*
X162285709Y-142650031D01*
X162195371Y-143017690D01*
X162153548Y-143145202D01*
X161749509Y-143105195D01*
X161756812Y-142955486D01*
X161751749Y-142873791D01*
X161736633Y-142782891D01*
X161735062Y-142776725D01*
X161614520Y-142299469D01*
X161487559Y-141886411D01*
X161713154Y-141740512D01*
X161823025Y-142004406D01*
X161887946Y-142163760D01*
X161918204Y-141935520D01*
X161920332Y-141623397D01*
X161885937Y-141221274D01*
X161811717Y-140752853D01*
X161767766Y-140541096D01*
X161680449Y-140245648D01*
G37*
G36*
X161305463Y-140895127D02*
G01*
X161305463Y-141357429D01*
X161211368Y-141361383D01*
X160744889Y-141375687D01*
X160337199Y-141368384D01*
X160337199Y-141499676D01*
X160343091Y-141790883D01*
X160364015Y-142038898D01*
X160387803Y-142179742D01*
X160421207Y-142307848D01*
X160458789Y-142409794D01*
X160505360Y-142505126D01*
X160622227Y-142673508D01*
X160675830Y-142732907D01*
X160804535Y-142848713D01*
X161001264Y-142976354D01*
X161097967Y-143024863D01*
X160679481Y-143356826D01*
X160547309Y-143266824D01*
X160430569Y-143174771D01*
X160333177Y-143085119D01*
X160248024Y-142992878D01*
X160175818Y-142899836D01*
X160113780Y-142803638D01*
X160016099Y-142597541D01*
X159947887Y-142360853D01*
X159905427Y-142070730D01*
X159886993Y-141679039D01*
X159885851Y-141504915D01*
X159885851Y-141351714D01*
X159347185Y-141308056D01*
X159343534Y-140834640D01*
X159686623Y-140882931D01*
X159889502Y-140900366D01*
X159889502Y-140432665D01*
X159888865Y-140418558D01*
X159871404Y-140184050D01*
X160399115Y-140184050D01*
X160376432Y-140297860D01*
X160359108Y-140436316D01*
X160344502Y-140927989D01*
X160755844Y-140935133D01*
X161136348Y-140915883D01*
X161305463Y-140895127D01*
G37*
G36*
X158251597Y-140286925D02*
G01*
X158251597Y-140756690D01*
X157872960Y-140745735D01*
X156478907Y-140745735D01*
X156078520Y-140756690D01*
X156078520Y-140286925D01*
X156296273Y-140302426D01*
X156471604Y-140305182D01*
X157872960Y-140305182D01*
X158070494Y-140301531D01*
X158251597Y-140286925D01*
G37*
G36*
X155772752Y-141342824D02*
G01*
X156096618Y-141142630D01*
X156209026Y-141169587D01*
X156362379Y-141178986D01*
X158164122Y-141178986D01*
X158586418Y-141157236D01*
X158586418Y-141630493D01*
X158263430Y-141613385D01*
X158164122Y-141612236D01*
X156406037Y-141612236D01*
X156453933Y-141743480D01*
X156516363Y-141877851D01*
X156581389Y-141991017D01*
X156659245Y-142102984D01*
X156781023Y-142243616D01*
X156981971Y-142420968D01*
X157100745Y-142505103D01*
X157229965Y-142584064D01*
X157370104Y-142657606D01*
X157519983Y-142724540D01*
X157678177Y-142783836D01*
X157845170Y-142835251D01*
X158040449Y-142882299D01*
X157680069Y-143294751D01*
X157508839Y-143241094D01*
X157338698Y-143176400D01*
X157180546Y-143105003D01*
X157025232Y-143023003D01*
X156882120Y-142935560D01*
X156743102Y-142837987D01*
X156615678Y-142735734D01*
X156493278Y-142623770D01*
X156380636Y-142506360D01*
X156205323Y-142283239D01*
X156054367Y-142029035D01*
X155924238Y-141735825D01*
X155841812Y-141495707D01*
X155772752Y-141342824D01*
G37*
G36*
X155197573Y-141665578D02*
G01*
X154968326Y-142124230D01*
X154511172Y-141970597D01*
X154020307Y-141765376D01*
X153683340Y-141600011D01*
X153683340Y-142764818D01*
X153697895Y-143121528D01*
X153708900Y-143241568D01*
X153133721Y-143241568D01*
X153154428Y-143102561D01*
X153166425Y-142764818D01*
X153166425Y-141294244D01*
X152759759Y-141002633D01*
X152360703Y-140668289D01*
X152187365Y-140504423D01*
X152580449Y-140129437D01*
X152811749Y-140379950D01*
X153137966Y-140673483D01*
X153317859Y-140815109D01*
X153500079Y-140944834D01*
X153606978Y-141014036D01*
X153794366Y-141122710D01*
X153998591Y-141228831D01*
X154214586Y-141329182D01*
X154446190Y-141424961D01*
X154685415Y-141512469D01*
X154938831Y-141593732D01*
X155197573Y-141665578D01*
G37*
G36*
X150906030Y-140315343D02*
G01*
X151248154Y-140679375D01*
X150945715Y-140912628D01*
X150512450Y-141292680D01*
X150338154Y-141465702D01*
X149966978Y-141087065D01*
X150202276Y-140865692D01*
X150616124Y-140526770D01*
X150906030Y-140315343D01*
G37*
G36*
X151361030Y-142739575D02*
G01*
X151055263Y-143220135D01*
X150700760Y-143140367D01*
X150340521Y-143019965D01*
X149982271Y-142860234D01*
X149704868Y-142706871D01*
X149376495Y-142486044D01*
X149065287Y-142229141D01*
X148782798Y-141944709D01*
X148656230Y-141796065D01*
X148540957Y-141645078D01*
X148358126Y-141360128D01*
X148641985Y-140846864D01*
X148795708Y-141127947D01*
X148893654Y-141274793D01*
X149003700Y-141421268D01*
X149125360Y-141566027D01*
X149258107Y-141707676D01*
X149397846Y-141841594D01*
X149547185Y-141969974D01*
X149699027Y-142086746D01*
X149858850Y-142196128D01*
X149966978Y-142262825D01*
X150125015Y-142351228D01*
X150297213Y-142435137D01*
X150475469Y-142510186D01*
X150665989Y-142578587D01*
X150858574Y-142636453D01*
X151061608Y-142686111D01*
X151361030Y-142739575D01*
G37*
G36*
X147000270Y-142732114D02*
G01*
X147018234Y-143084773D01*
X147036625Y-143241568D01*
X146468907Y-143241568D01*
X146501611Y-142732114D01*
X146501611Y-141701934D01*
X146153181Y-141827036D01*
X145775977Y-141975128D01*
X145471874Y-142106352D01*
X145196596Y-142239536D01*
X145187573Y-142244251D01*
X144980076Y-141741941D01*
X145366307Y-141573925D01*
X146025181Y-141329947D01*
X146501611Y-141177715D01*
X146501611Y-140639050D01*
X146486277Y-140364063D01*
X146469113Y-140204125D01*
X146468907Y-140202307D01*
X147036625Y-140202307D01*
X147008169Y-140430768D01*
X147000270Y-140639050D01*
X147000270Y-142732114D01*
G37*
G36*
X143793520Y-142932942D02*
G01*
X143447587Y-143231407D01*
X143316632Y-143164006D01*
X143248464Y-143138636D01*
X143232946Y-143133136D01*
X142984791Y-143046792D01*
X142743490Y-142951663D01*
X142520088Y-142852501D01*
X142304425Y-142745208D01*
X142106750Y-142635333D01*
X141917390Y-142517976D01*
X141745313Y-142399181D01*
X141581894Y-142273515D01*
X141434569Y-142147197D01*
X141296086Y-142014554D01*
X141121784Y-141822749D01*
X141380242Y-141411566D01*
X141599375Y-141648054D01*
X141875951Y-141888510D01*
X142205520Y-142123182D01*
X142572867Y-142337057D01*
X142762739Y-142430595D01*
X142948678Y-142511123D01*
X143251044Y-142616379D01*
X143251044Y-140723509D01*
X143232966Y-140440331D01*
X143214689Y-140308675D01*
X143786217Y-140308675D01*
X143752943Y-140561203D01*
X143746210Y-140723509D01*
X143746210Y-142696393D01*
X143753434Y-142811929D01*
X143793520Y-142932942D01*
G37*
G36*
X140528347Y-141397913D02*
G01*
X140528347Y-141969441D01*
X139942372Y-141951184D01*
X137987745Y-141951184D01*
X137659102Y-141964141D01*
X137561798Y-141969441D01*
X137561798Y-141397913D01*
X137597971Y-141400769D01*
X137772421Y-141413180D01*
X137987745Y-141419821D01*
X139942372Y-141419821D01*
X140428006Y-141404827D01*
X140528347Y-141397913D01*
G37*
G36*
X137085842Y-140871154D02*
G01*
X137085842Y-141366320D01*
X136692599Y-141351714D01*
X136383338Y-141351714D01*
X136383338Y-141847674D01*
X136398373Y-142176019D01*
X136405088Y-142230439D01*
X135895476Y-142230439D01*
X135898366Y-142178572D01*
X135910081Y-141847674D01*
X135910081Y-141351714D01*
X135047391Y-141351714D01*
X135047391Y-141490310D01*
X135052505Y-141679979D01*
X135067983Y-141851745D01*
X135090902Y-141991859D01*
X135122502Y-142119429D01*
X135159773Y-142227511D01*
X135204785Y-142326272D01*
X135255617Y-142413336D01*
X135313858Y-142493066D01*
X135453857Y-142633840D01*
X135634983Y-142758623D01*
X135876463Y-142875881D01*
X136059314Y-142945008D01*
X135669881Y-143313326D01*
X135509832Y-143237251D01*
X135365204Y-143156874D01*
X135242916Y-143077285D01*
X135133030Y-142993403D01*
X135038766Y-142908694D01*
X134954888Y-142819596D01*
X134881995Y-142727419D01*
X134818197Y-142630576D01*
X134714828Y-142419159D01*
X134640279Y-142174843D01*
X134593079Y-141881821D01*
X134574453Y-141513986D01*
X134574293Y-141472053D01*
X134574293Y-141351714D01*
X134304881Y-141351714D01*
X133904493Y-141362668D01*
X133904493Y-140878457D01*
X134019716Y-140894220D01*
X134164719Y-140902326D01*
X134304881Y-140904017D01*
X134574293Y-140904017D01*
X134574293Y-140520299D01*
X134560891Y-140264179D01*
X134555336Y-140209185D01*
X134552384Y-140180399D01*
X135069300Y-140180399D01*
X135054442Y-140320119D01*
X135047400Y-140513076D01*
X135047391Y-140520299D01*
X135047391Y-140904017D01*
X135910081Y-140904017D01*
X135910081Y-140542208D01*
X135895087Y-140264191D01*
X135888173Y-140213420D01*
X136405088Y-140213420D01*
X136390106Y-140379183D01*
X136383338Y-140542208D01*
X136383338Y-140904017D01*
X136692599Y-140904017D01*
X136956512Y-140889346D01*
X137085842Y-140871154D01*
G37*
G36*
X133322011Y-141397913D02*
G01*
X133322011Y-141969441D01*
X132736036Y-141951184D01*
X130781409Y-141951184D01*
X130452765Y-141964141D01*
X130355462Y-141969441D01*
X130355462Y-141397913D01*
X130391635Y-141400769D01*
X130566085Y-141413180D01*
X130781409Y-141419821D01*
X132736036Y-141419821D01*
X133221669Y-141404827D01*
X133322011Y-141397913D01*
G37*
G36*
X129350842Y-140315343D02*
G01*
X129765676Y-140315343D01*
X129765676Y-140683026D01*
X129350842Y-140683026D01*
X129350842Y-140935133D01*
X129889507Y-140935133D01*
X129889507Y-141310120D01*
X129154300Y-141310120D01*
X129354493Y-141490786D01*
X129587391Y-141490786D01*
X129587391Y-141665578D01*
X129771743Y-141781346D01*
X129966784Y-141886812D01*
X129969521Y-141888157D01*
X129777341Y-142097837D01*
X129678359Y-142226152D01*
X129366536Y-142026186D01*
X129114134Y-141829258D01*
X128855835Y-141829258D01*
X129045074Y-142013099D01*
X129187004Y-142013099D01*
X129187004Y-142299657D01*
X129918560Y-142354429D01*
X129874902Y-142740369D01*
X129187004Y-142682105D01*
X129187004Y-142992000D01*
X129193850Y-143027161D01*
X129221452Y-143043218D01*
X129248919Y-143046772D01*
X129594694Y-143043120D01*
X129516118Y-143229592D01*
X129470863Y-143414296D01*
X129173872Y-143404562D01*
X129054009Y-143387159D01*
X128949899Y-143356746D01*
X128939500Y-143352539D01*
X128887795Y-143322466D01*
X128847621Y-143286352D01*
X128799978Y-143202321D01*
X128777930Y-143078475D01*
X128775662Y-143002637D01*
X128775662Y-142641939D01*
X128116817Y-142583357D01*
X128116817Y-142208371D01*
X128775662Y-142262984D01*
X128775662Y-142190114D01*
X128527120Y-141972212D01*
X128270386Y-141696883D01*
X128262398Y-141687328D01*
X128072799Y-141859066D01*
X128022198Y-141913241D01*
X127935714Y-141790660D01*
X127854708Y-141654624D01*
X127785500Y-141906313D01*
X127707600Y-142143486D01*
X127603553Y-142401421D01*
X127686212Y-142510269D01*
X127776831Y-142612205D01*
X127872655Y-142704431D01*
X127976716Y-142790190D01*
X128088305Y-142868792D01*
X128208708Y-142941073D01*
X128393532Y-143032007D01*
X128282842Y-143177769D01*
X128144826Y-143414896D01*
X128138726Y-143428584D01*
X127985095Y-143345320D01*
X127841634Y-143255649D01*
X127713667Y-143163584D01*
X127594649Y-143065180D01*
X127487271Y-142963137D01*
X127388030Y-142854664D01*
X127367004Y-142829591D01*
X127276423Y-142952559D01*
X127178509Y-143067381D01*
X127078820Y-143168234D01*
X126971739Y-143261529D01*
X126751817Y-143414296D01*
X126632802Y-143239296D01*
X126539889Y-143127233D01*
X126450805Y-143036644D01*
X126449701Y-143035659D01*
X126656341Y-142906185D01*
X126845551Y-142740954D01*
X127019319Y-142536599D01*
X127097592Y-142423171D01*
X126957453Y-142112342D01*
X126840238Y-141752784D01*
X126744642Y-141327476D01*
X126700856Y-141054678D01*
X127152204Y-141054678D01*
X127185276Y-141279165D01*
X127226998Y-141490817D01*
X127274695Y-141680202D01*
X127330252Y-141858221D01*
X127348747Y-141910224D01*
X127460839Y-141556851D01*
X127516239Y-141310120D01*
X128175081Y-141310120D01*
X128248927Y-141435327D01*
X128329795Y-141550226D01*
X128346222Y-141570959D01*
X128473546Y-141469195D01*
X128553719Y-141490786D01*
X128764708Y-141490786D01*
X128604680Y-141310120D01*
X128175081Y-141310120D01*
X127516239Y-141310120D01*
X127558431Y-141122212D01*
X127570849Y-141054678D01*
X127152204Y-141054678D01*
X126700856Y-141054678D01*
X126486215Y-141054678D01*
X126486215Y-140650639D01*
X127461624Y-140650639D01*
X127345050Y-140130989D01*
X127330648Y-140052281D01*
X127774694Y-139983063D01*
X127817798Y-140233667D01*
X127871057Y-140478576D01*
X127928836Y-140694873D01*
X127995584Y-140901902D01*
X128109514Y-141182796D01*
X128109514Y-140935133D01*
X128335268Y-140935133D01*
X128220636Y-140741438D01*
X128189716Y-140683026D01*
X128659134Y-140683026D01*
X128826624Y-140935133D01*
X128946803Y-140935133D01*
X128946803Y-140683026D01*
X128659134Y-140683026D01*
X128189716Y-140683026D01*
X128114487Y-140540910D01*
X127956631Y-140187543D01*
X128360669Y-140074348D01*
X128436256Y-140257970D01*
X128520429Y-140435667D01*
X128590074Y-140566657D01*
X128590074Y-140315343D01*
X128946803Y-140315343D01*
X128946803Y-139983063D01*
X129350842Y-139983063D01*
X129350842Y-140315343D01*
G37*
G36*
X123668740Y-139990683D02*
G01*
X123668740Y-140742084D01*
X124644307Y-140742084D01*
X124644307Y-141157077D01*
X123799874Y-141157077D01*
X123987284Y-141487756D01*
X124220649Y-141817713D01*
X124348516Y-141972301D01*
X124482323Y-142117706D01*
X124614739Y-142246452D01*
X124750250Y-142363267D01*
X124957377Y-142512710D01*
X124803731Y-142663899D01*
X124640655Y-142869757D01*
X124392219Y-142658781D01*
X124127383Y-142381233D01*
X123860175Y-142043308D01*
X123668740Y-141758452D01*
X123668740Y-142873408D01*
X123674064Y-142915193D01*
X123691010Y-142941517D01*
X123742100Y-142959416D01*
X123759708Y-142960884D01*
X124251222Y-142953581D01*
X124152813Y-143207305D01*
X124105641Y-143393975D01*
X123769739Y-143385709D01*
X123631348Y-143371792D01*
X123511993Y-143348168D01*
X123406631Y-143310310D01*
X123348981Y-143277858D01*
X123302361Y-143238260D01*
X123270031Y-143196707D01*
X123244963Y-143147660D01*
X123213752Y-143017630D01*
X123206437Y-142877060D01*
X123206437Y-141157077D01*
X122857011Y-141157077D01*
X122857011Y-140742084D01*
X123206437Y-140742084D01*
X123206437Y-139990683D01*
X123668740Y-139990683D01*
G37*
G36*
X125648926Y-139983380D02*
G01*
X125648926Y-140742084D01*
X126213152Y-140742084D01*
X126213152Y-141157077D01*
X125703539Y-141157077D01*
X125829397Y-141527733D01*
X125908631Y-141713933D01*
X125996747Y-141893926D01*
X126086254Y-142053234D01*
X126181498Y-142200136D01*
X126318726Y-142374273D01*
X126231514Y-142516955D01*
X126146377Y-142678698D01*
X126092972Y-142807841D01*
X125944663Y-142600404D01*
X125787256Y-142311868D01*
X125648926Y-141995318D01*
X125648926Y-143408581D01*
X125208532Y-143408581D01*
X125208532Y-141754800D01*
X125055690Y-141957650D01*
X124928208Y-142144582D01*
X124899113Y-142192019D01*
X124644307Y-141820367D01*
X124907971Y-141544870D01*
X125208532Y-141251855D01*
X125208532Y-141157077D01*
X124746229Y-141157077D01*
X124746229Y-140742084D01*
X125208532Y-140742084D01*
X125208532Y-139983380D01*
X125648926Y-139983380D01*
G37*
X167271428Y-54362295D02*
X167271428Y-53562295D01*
X167271428Y-53562295D02*
X166966666Y-53562295D01*
X166966666Y-53562295D02*
X166890476Y-53600390D01*
X166890476Y-53600390D02*
X166852381Y-53638485D01*
X166852381Y-53638485D02*
X166814285Y-53714676D01*
X166814285Y-53714676D02*
X166814285Y-53828961D01*
X166814285Y-53828961D02*
X166852381Y-53905152D01*
X166852381Y-53905152D02*
X166890476Y-53943247D01*
X166890476Y-53943247D02*
X166966666Y-53981342D01*
X166966666Y-53981342D02*
X167271428Y-53981342D01*
X166509524Y-54324200D02*
X166395238Y-54362295D01*
X166395238Y-54362295D02*
X166204762Y-54362295D01*
X166204762Y-54362295D02*
X166128571Y-54324200D01*
X166128571Y-54324200D02*
X166090476Y-54286104D01*
X166090476Y-54286104D02*
X166052381Y-54209914D01*
X166052381Y-54209914D02*
X166052381Y-54133723D01*
X166052381Y-54133723D02*
X166090476Y-54057533D01*
X166090476Y-54057533D02*
X166128571Y-54019438D01*
X166128571Y-54019438D02*
X166204762Y-53981342D01*
X166204762Y-53981342D02*
X166357143Y-53943247D01*
X166357143Y-53943247D02*
X166433333Y-53905152D01*
X166433333Y-53905152D02*
X166471428Y-53867057D01*
X166471428Y-53867057D02*
X166509524Y-53790866D01*
X166509524Y-53790866D02*
X166509524Y-53714676D01*
X166509524Y-53714676D02*
X166471428Y-53638485D01*
X166471428Y-53638485D02*
X166433333Y-53600390D01*
X166433333Y-53600390D02*
X166357143Y-53562295D01*
X166357143Y-53562295D02*
X166166666Y-53562295D01*
X166166666Y-53562295D02*
X166052381Y-53600390D01*
X165785714Y-53562295D02*
X165290476Y-53562295D01*
X165290476Y-53562295D02*
X165557142Y-53867057D01*
X165557142Y-53867057D02*
X165442857Y-53867057D01*
X165442857Y-53867057D02*
X165366666Y-53905152D01*
X165366666Y-53905152D02*
X165328571Y-53943247D01*
X165328571Y-53943247D02*
X165290476Y-54019438D01*
X165290476Y-54019438D02*
X165290476Y-54209914D01*
X165290476Y-54209914D02*
X165328571Y-54286104D01*
X165328571Y-54286104D02*
X165366666Y-54324200D01*
X165366666Y-54324200D02*
X165442857Y-54362295D01*
X165442857Y-54362295D02*
X165671428Y-54362295D01*
X165671428Y-54362295D02*
X165747619Y-54324200D01*
X165747619Y-54324200D02*
X165785714Y-54286104D01*
X155271428Y-54362295D02*
X155271428Y-53562295D01*
X155271428Y-53562295D02*
X154966666Y-53562295D01*
X154966666Y-53562295D02*
X154890476Y-53600390D01*
X154890476Y-53600390D02*
X154852381Y-53638485D01*
X154852381Y-53638485D02*
X154814285Y-53714676D01*
X154814285Y-53714676D02*
X154814285Y-53828961D01*
X154814285Y-53828961D02*
X154852381Y-53905152D01*
X154852381Y-53905152D02*
X154890476Y-53943247D01*
X154890476Y-53943247D02*
X154966666Y-53981342D01*
X154966666Y-53981342D02*
X155271428Y-53981342D01*
X154509524Y-54324200D02*
X154395238Y-54362295D01*
X154395238Y-54362295D02*
X154204762Y-54362295D01*
X154204762Y-54362295D02*
X154128571Y-54324200D01*
X154128571Y-54324200D02*
X154090476Y-54286104D01*
X154090476Y-54286104D02*
X154052381Y-54209914D01*
X154052381Y-54209914D02*
X154052381Y-54133723D01*
X154052381Y-54133723D02*
X154090476Y-54057533D01*
X154090476Y-54057533D02*
X154128571Y-54019438D01*
X154128571Y-54019438D02*
X154204762Y-53981342D01*
X154204762Y-53981342D02*
X154357143Y-53943247D01*
X154357143Y-53943247D02*
X154433333Y-53905152D01*
X154433333Y-53905152D02*
X154471428Y-53867057D01*
X154471428Y-53867057D02*
X154509524Y-53790866D01*
X154509524Y-53790866D02*
X154509524Y-53714676D01*
X154509524Y-53714676D02*
X154471428Y-53638485D01*
X154471428Y-53638485D02*
X154433333Y-53600390D01*
X154433333Y-53600390D02*
X154357143Y-53562295D01*
X154357143Y-53562295D02*
X154166666Y-53562295D01*
X154166666Y-53562295D02*
X154052381Y-53600390D01*
X153747619Y-53638485D02*
X153709523Y-53600390D01*
X153709523Y-53600390D02*
X153633333Y-53562295D01*
X153633333Y-53562295D02*
X153442857Y-53562295D01*
X153442857Y-53562295D02*
X153366666Y-53600390D01*
X153366666Y-53600390D02*
X153328571Y-53638485D01*
X153328571Y-53638485D02*
X153290476Y-53714676D01*
X153290476Y-53714676D02*
X153290476Y-53790866D01*
X153290476Y-53790866D02*
X153328571Y-53905152D01*
X153328571Y-53905152D02*
X153785714Y-54362295D01*
X153785714Y-54362295D02*
X153290476Y-54362295D01*
X143271428Y-54362295D02*
X143271428Y-53562295D01*
X143271428Y-53562295D02*
X142966666Y-53562295D01*
X142966666Y-53562295D02*
X142890476Y-53600390D01*
X142890476Y-53600390D02*
X142852381Y-53638485D01*
X142852381Y-53638485D02*
X142814285Y-53714676D01*
X142814285Y-53714676D02*
X142814285Y-53828961D01*
X142814285Y-53828961D02*
X142852381Y-53905152D01*
X142852381Y-53905152D02*
X142890476Y-53943247D01*
X142890476Y-53943247D02*
X142966666Y-53981342D01*
X142966666Y-53981342D02*
X143271428Y-53981342D01*
X142509524Y-54324200D02*
X142395238Y-54362295D01*
X142395238Y-54362295D02*
X142204762Y-54362295D01*
X142204762Y-54362295D02*
X142128571Y-54324200D01*
X142128571Y-54324200D02*
X142090476Y-54286104D01*
X142090476Y-54286104D02*
X142052381Y-54209914D01*
X142052381Y-54209914D02*
X142052381Y-54133723D01*
X142052381Y-54133723D02*
X142090476Y-54057533D01*
X142090476Y-54057533D02*
X142128571Y-54019438D01*
X142128571Y-54019438D02*
X142204762Y-53981342D01*
X142204762Y-53981342D02*
X142357143Y-53943247D01*
X142357143Y-53943247D02*
X142433333Y-53905152D01*
X142433333Y-53905152D02*
X142471428Y-53867057D01*
X142471428Y-53867057D02*
X142509524Y-53790866D01*
X142509524Y-53790866D02*
X142509524Y-53714676D01*
X142509524Y-53714676D02*
X142471428Y-53638485D01*
X142471428Y-53638485D02*
X142433333Y-53600390D01*
X142433333Y-53600390D02*
X142357143Y-53562295D01*
X142357143Y-53562295D02*
X142166666Y-53562295D01*
X142166666Y-53562295D02*
X142052381Y-53600390D01*
X141290476Y-54362295D02*
X141747619Y-54362295D01*
X141519047Y-54362295D02*
X141519047Y-53562295D01*
X141519047Y-53562295D02*
X141595238Y-53676580D01*
X141595238Y-53676580D02*
X141671428Y-53752771D01*
X141671428Y-53752771D02*
X141747619Y-53790866D01*
%TO.C,PS3*%
D13*
X160650000Y-52400000D02*
X161050000Y-52000000D01*
X160650000Y-56000000D02*
X163350000Y-56000000D01*
X161050000Y-52000000D02*
X163350000Y-52000000D01*
D14*
X158750000Y-52400000D02*
G75*
G02*
X158450000Y-52400000I-150000J0D01*
G01*
X158450000Y-52400000D02*
G75*
G02*
X158750000Y-52400000I150000J0D01*
G01*
%TO.C,PS2*%
D13*
X148650000Y-52400000D02*
X149050000Y-52000000D01*
X148650000Y-56000000D02*
X151350000Y-56000000D01*
X149050000Y-52000000D02*
X151350000Y-52000000D01*
D14*
X146750000Y-52400000D02*
G75*
G02*
X146450000Y-52400000I-150000J0D01*
G01*
X146450000Y-52400000D02*
G75*
G02*
X146750000Y-52400000I150000J0D01*
G01*
%TO.C,PS1*%
D13*
X136650000Y-52400000D02*
X137050000Y-52000000D01*
X136650000Y-56000000D02*
X139350000Y-56000000D01*
X137050000Y-52000000D02*
X139350000Y-52000000D01*
D14*
X134750000Y-52400000D02*
G75*
G02*
X134450000Y-52400000I-150000J0D01*
G01*
X134450000Y-52400000D02*
G75*
G02*
X134750000Y-52400000I150000J0D01*
G01*
%TD*%
M02*
