%TF.GenerationSoftware,KiCad,Pcbnew,10.0.6*%
%TF.CreationDate,2026-10-07T19:47:17+09:00*%
%TF.ProjectId,Linetracer2-Lite,4c696e65-7472-4616-9365-72322d4c6974,rev?*%
%TF.SameCoordinates,Original*%
%TF.FileFunction,Legend,Bot*%
%TF.FilePolarity,Positive*%
%FSLAX46Y46*%
G04 Gerber Fmt 4.6, Leading zero omitted, Abs format (unit mm)*
G04 Created by KiCad (PCBNEW 10.0.6) date 2026-10-07 19:47:17*
%MOMM*%
%LPD*%
G01*
G04 APERTURE LIST*
%ADD10C,0.150000*%
%ADD11C,0.180000*%
%ADD12C,0.600000*%
%ADD13C,0.120000*%
%ADD14C,0.160000*%
%ADD15C,0.500000*%
%ADD16C,0.100000*%
G04 APERTURE END LIST*
D10*
X158150000Y-71000000D02*
G75*
G02*
X155450000Y-71000000I-1350000J0D01*
G01*
X155450000Y-71000000D02*
G75*
G02*
X158150000Y-71000000I1350000J0D01*
G01*
X132685714Y-54365700D02*
X132557143Y-54408557D01*
X132557143Y-54408557D02*
X132342857Y-54408557D01*
X132342857Y-54408557D02*
X132257143Y-54365700D01*
X132257143Y-54365700D02*
X132214285Y-54322842D01*
X132214285Y-54322842D02*
X132171428Y-54237128D01*
X132171428Y-54237128D02*
X132171428Y-54151414D01*
X132171428Y-54151414D02*
X132214285Y-54065700D01*
X132214285Y-54065700D02*
X132257143Y-54022842D01*
X132257143Y-54022842D02*
X132342857Y-53979985D01*
X132342857Y-53979985D02*
X132514285Y-53937128D01*
X132514285Y-53937128D02*
X132600000Y-53894271D01*
X132600000Y-53894271D02*
X132642857Y-53851414D01*
X132642857Y-53851414D02*
X132685714Y-53765700D01*
X132685714Y-53765700D02*
X132685714Y-53679985D01*
X132685714Y-53679985D02*
X132642857Y-53594271D01*
X132642857Y-53594271D02*
X132600000Y-53551414D01*
X132600000Y-53551414D02*
X132514285Y-53508557D01*
X132514285Y-53508557D02*
X132300000Y-53508557D01*
X132300000Y-53508557D02*
X132171428Y-53551414D01*
X131314285Y-54408557D02*
X131828571Y-54408557D01*
X131571428Y-54408557D02*
X131571428Y-53508557D01*
X131571428Y-53508557D02*
X131657142Y-53637128D01*
X131657142Y-53637128D02*
X131742857Y-53722842D01*
X131742857Y-53722842D02*
X131828571Y-53765700D01*
X144685714Y-54365700D02*
X144557143Y-54408557D01*
X144557143Y-54408557D02*
X144342857Y-54408557D01*
X144342857Y-54408557D02*
X144257143Y-54365700D01*
X144257143Y-54365700D02*
X144214285Y-54322842D01*
X144214285Y-54322842D02*
X144171428Y-54237128D01*
X144171428Y-54237128D02*
X144171428Y-54151414D01*
X144171428Y-54151414D02*
X144214285Y-54065700D01*
X144214285Y-54065700D02*
X144257143Y-54022842D01*
X144257143Y-54022842D02*
X144342857Y-53979985D01*
X144342857Y-53979985D02*
X144514285Y-53937128D01*
X144514285Y-53937128D02*
X144600000Y-53894271D01*
X144600000Y-53894271D02*
X144642857Y-53851414D01*
X144642857Y-53851414D02*
X144685714Y-53765700D01*
X144685714Y-53765700D02*
X144685714Y-53679985D01*
X144685714Y-53679985D02*
X144642857Y-53594271D01*
X144642857Y-53594271D02*
X144600000Y-53551414D01*
X144600000Y-53551414D02*
X144514285Y-53508557D01*
X144514285Y-53508557D02*
X144300000Y-53508557D01*
X144300000Y-53508557D02*
X144171428Y-53551414D01*
X143828571Y-53594271D02*
X143785714Y-53551414D01*
X143785714Y-53551414D02*
X143700000Y-53508557D01*
X143700000Y-53508557D02*
X143485714Y-53508557D01*
X143485714Y-53508557D02*
X143400000Y-53551414D01*
X143400000Y-53551414D02*
X143357142Y-53594271D01*
X143357142Y-53594271D02*
X143314285Y-53679985D01*
X143314285Y-53679985D02*
X143314285Y-53765700D01*
X143314285Y-53765700D02*
X143357142Y-53894271D01*
X143357142Y-53894271D02*
X143871428Y-54408557D01*
X143871428Y-54408557D02*
X143314285Y-54408557D01*
X156685714Y-54365700D02*
X156557143Y-54408557D01*
X156557143Y-54408557D02*
X156342857Y-54408557D01*
X156342857Y-54408557D02*
X156257143Y-54365700D01*
X156257143Y-54365700D02*
X156214285Y-54322842D01*
X156214285Y-54322842D02*
X156171428Y-54237128D01*
X156171428Y-54237128D02*
X156171428Y-54151414D01*
X156171428Y-54151414D02*
X156214285Y-54065700D01*
X156214285Y-54065700D02*
X156257143Y-54022842D01*
X156257143Y-54022842D02*
X156342857Y-53979985D01*
X156342857Y-53979985D02*
X156514285Y-53937128D01*
X156514285Y-53937128D02*
X156600000Y-53894271D01*
X156600000Y-53894271D02*
X156642857Y-53851414D01*
X156642857Y-53851414D02*
X156685714Y-53765700D01*
X156685714Y-53765700D02*
X156685714Y-53679985D01*
X156685714Y-53679985D02*
X156642857Y-53594271D01*
X156642857Y-53594271D02*
X156600000Y-53551414D01*
X156600000Y-53551414D02*
X156514285Y-53508557D01*
X156514285Y-53508557D02*
X156300000Y-53508557D01*
X156300000Y-53508557D02*
X156171428Y-53551414D01*
X155871428Y-53508557D02*
X155314285Y-53508557D01*
X155314285Y-53508557D02*
X155614285Y-53851414D01*
X155614285Y-53851414D02*
X155485714Y-53851414D01*
X155485714Y-53851414D02*
X155400000Y-53894271D01*
X155400000Y-53894271D02*
X155357142Y-53937128D01*
X155357142Y-53937128D02*
X155314285Y-54022842D01*
X155314285Y-54022842D02*
X155314285Y-54237128D01*
X155314285Y-54237128D02*
X155357142Y-54322842D01*
X155357142Y-54322842D02*
X155400000Y-54365700D01*
X155400000Y-54365700D02*
X155485714Y-54408557D01*
X155485714Y-54408557D02*
X155742857Y-54408557D01*
X155742857Y-54408557D02*
X155828571Y-54365700D01*
X155828571Y-54365700D02*
X155871428Y-54322842D01*
X167285714Y-130854819D02*
X166619048Y-131854819D01*
X166619048Y-130854819D02*
X167285714Y-131854819D01*
X166238095Y-131854819D02*
X166238095Y-130854819D01*
X165809524Y-131569104D02*
X165333334Y-131569104D01*
X165904762Y-131854819D02*
X165571429Y-130854819D01*
X165571429Y-130854819D02*
X165238096Y-131854819D01*
X164714286Y-130854819D02*
X164523810Y-130854819D01*
X164523810Y-130854819D02*
X164428572Y-130902438D01*
X164428572Y-130902438D02*
X164333334Y-130997676D01*
X164333334Y-130997676D02*
X164285715Y-131188152D01*
X164285715Y-131188152D02*
X164285715Y-131521485D01*
X164285715Y-131521485D02*
X164333334Y-131711961D01*
X164333334Y-131711961D02*
X164428572Y-131807200D01*
X164428572Y-131807200D02*
X164523810Y-131854819D01*
X164523810Y-131854819D02*
X164714286Y-131854819D01*
X164714286Y-131854819D02*
X164809524Y-131807200D01*
X164809524Y-131807200D02*
X164904762Y-131711961D01*
X164904762Y-131711961D02*
X164952381Y-131521485D01*
X164952381Y-131521485D02*
X164952381Y-131188152D01*
X164952381Y-131188152D02*
X164904762Y-130997676D01*
X164904762Y-130997676D02*
X164809524Y-130902438D01*
X164809524Y-130902438D02*
X164714286Y-130854819D01*
X163095238Y-131331009D02*
X162761905Y-131331009D01*
X162619048Y-131854819D02*
X163095238Y-131854819D01*
X163095238Y-131854819D02*
X163095238Y-130854819D01*
X163095238Y-130854819D02*
X162619048Y-130854819D01*
X162238095Y-131807200D02*
X162095238Y-131854819D01*
X162095238Y-131854819D02*
X161857143Y-131854819D01*
X161857143Y-131854819D02*
X161761905Y-131807200D01*
X161761905Y-131807200D02*
X161714286Y-131759580D01*
X161714286Y-131759580D02*
X161666667Y-131664342D01*
X161666667Y-131664342D02*
X161666667Y-131569104D01*
X161666667Y-131569104D02*
X161714286Y-131473866D01*
X161714286Y-131473866D02*
X161761905Y-131426247D01*
X161761905Y-131426247D02*
X161857143Y-131378628D01*
X161857143Y-131378628D02*
X162047619Y-131331009D01*
X162047619Y-131331009D02*
X162142857Y-131283390D01*
X162142857Y-131283390D02*
X162190476Y-131235771D01*
X162190476Y-131235771D02*
X162238095Y-131140533D01*
X162238095Y-131140533D02*
X162238095Y-131045295D01*
X162238095Y-131045295D02*
X162190476Y-130950057D01*
X162190476Y-130950057D02*
X162142857Y-130902438D01*
X162142857Y-130902438D02*
X162047619Y-130854819D01*
X162047619Y-130854819D02*
X161809524Y-130854819D01*
X161809524Y-130854819D02*
X161666667Y-130902438D01*
X161238095Y-131854819D02*
X161238095Y-130854819D01*
X161238095Y-130854819D02*
X160857143Y-130854819D01*
X160857143Y-130854819D02*
X160761905Y-130902438D01*
X160761905Y-130902438D02*
X160714286Y-130950057D01*
X160714286Y-130950057D02*
X160666667Y-131045295D01*
X160666667Y-131045295D02*
X160666667Y-131188152D01*
X160666667Y-131188152D02*
X160714286Y-131283390D01*
X160714286Y-131283390D02*
X160761905Y-131331009D01*
X160761905Y-131331009D02*
X160857143Y-131378628D01*
X160857143Y-131378628D02*
X161238095Y-131378628D01*
X160333333Y-130854819D02*
X159714286Y-130854819D01*
X159714286Y-130854819D02*
X160047619Y-131235771D01*
X160047619Y-131235771D02*
X159904762Y-131235771D01*
X159904762Y-131235771D02*
X159809524Y-131283390D01*
X159809524Y-131283390D02*
X159761905Y-131331009D01*
X159761905Y-131331009D02*
X159714286Y-131426247D01*
X159714286Y-131426247D02*
X159714286Y-131664342D01*
X159714286Y-131664342D02*
X159761905Y-131759580D01*
X159761905Y-131759580D02*
X159809524Y-131807200D01*
X159809524Y-131807200D02*
X159904762Y-131854819D01*
X159904762Y-131854819D02*
X160190476Y-131854819D01*
X160190476Y-131854819D02*
X160285714Y-131807200D01*
X160285714Y-131807200D02*
X160333333Y-131759580D01*
X159333333Y-130950057D02*
X159285714Y-130902438D01*
X159285714Y-130902438D02*
X159190476Y-130854819D01*
X159190476Y-130854819D02*
X158952381Y-130854819D01*
X158952381Y-130854819D02*
X158857143Y-130902438D01*
X158857143Y-130902438D02*
X158809524Y-130950057D01*
X158809524Y-130950057D02*
X158761905Y-131045295D01*
X158761905Y-131045295D02*
X158761905Y-131140533D01*
X158761905Y-131140533D02*
X158809524Y-131283390D01*
X158809524Y-131283390D02*
X159380952Y-131854819D01*
X159380952Y-131854819D02*
X158761905Y-131854819D01*
X157761905Y-131759580D02*
X157809524Y-131807200D01*
X157809524Y-131807200D02*
X157952381Y-131854819D01*
X157952381Y-131854819D02*
X158047619Y-131854819D01*
X158047619Y-131854819D02*
X158190476Y-131807200D01*
X158190476Y-131807200D02*
X158285714Y-131711961D01*
X158285714Y-131711961D02*
X158333333Y-131616723D01*
X158333333Y-131616723D02*
X158380952Y-131426247D01*
X158380952Y-131426247D02*
X158380952Y-131283390D01*
X158380952Y-131283390D02*
X158333333Y-131092914D01*
X158333333Y-131092914D02*
X158285714Y-130997676D01*
X158285714Y-130997676D02*
X158190476Y-130902438D01*
X158190476Y-130902438D02*
X158047619Y-130854819D01*
X158047619Y-130854819D02*
X157952381Y-130854819D01*
X157952381Y-130854819D02*
X157809524Y-130902438D01*
X157809524Y-130902438D02*
X157761905Y-130950057D01*
X156904762Y-130854819D02*
X157095238Y-130854819D01*
X157095238Y-130854819D02*
X157190476Y-130902438D01*
X157190476Y-130902438D02*
X157238095Y-130950057D01*
X157238095Y-130950057D02*
X157333333Y-131092914D01*
X157333333Y-131092914D02*
X157380952Y-131283390D01*
X157380952Y-131283390D02*
X157380952Y-131664342D01*
X157380952Y-131664342D02*
X157333333Y-131759580D01*
X157333333Y-131759580D02*
X157285714Y-131807200D01*
X157285714Y-131807200D02*
X157190476Y-131854819D01*
X157190476Y-131854819D02*
X157000000Y-131854819D01*
X157000000Y-131854819D02*
X156904762Y-131807200D01*
X156904762Y-131807200D02*
X156857143Y-131759580D01*
X156857143Y-131759580D02*
X156809524Y-131664342D01*
X156809524Y-131664342D02*
X156809524Y-131426247D01*
X156809524Y-131426247D02*
X156857143Y-131331009D01*
X156857143Y-131331009D02*
X156904762Y-131283390D01*
X156904762Y-131283390D02*
X157000000Y-131235771D01*
X157000000Y-131235771D02*
X157190476Y-131235771D01*
X157190476Y-131235771D02*
X157285714Y-131283390D01*
X157285714Y-131283390D02*
X157333333Y-131331009D01*
X157333333Y-131331009D02*
X157380952Y-131426247D01*
X155619047Y-131473866D02*
X154857143Y-131473866D01*
X155238095Y-131854819D02*
X155238095Y-131092914D01*
X153761904Y-130854819D02*
X153190476Y-130854819D01*
X153476190Y-131854819D02*
X153476190Y-130854819D01*
X152285714Y-131759580D02*
X152333333Y-131807200D01*
X152333333Y-131807200D02*
X152476190Y-131854819D01*
X152476190Y-131854819D02*
X152571428Y-131854819D01*
X152571428Y-131854819D02*
X152714285Y-131807200D01*
X152714285Y-131807200D02*
X152809523Y-131711961D01*
X152809523Y-131711961D02*
X152857142Y-131616723D01*
X152857142Y-131616723D02*
X152904761Y-131426247D01*
X152904761Y-131426247D02*
X152904761Y-131283390D01*
X152904761Y-131283390D02*
X152857142Y-131092914D01*
X152857142Y-131092914D02*
X152809523Y-130997676D01*
X152809523Y-130997676D02*
X152714285Y-130902438D01*
X152714285Y-130902438D02*
X152571428Y-130854819D01*
X152571428Y-130854819D02*
X152476190Y-130854819D01*
X152476190Y-130854819D02*
X152333333Y-130902438D01*
X152333333Y-130902438D02*
X152285714Y-130950057D01*
X151952380Y-130854819D02*
X151285714Y-130854819D01*
X151285714Y-130854819D02*
X151714285Y-131854819D01*
X150761904Y-131283390D02*
X150857142Y-131235771D01*
X150857142Y-131235771D02*
X150904761Y-131188152D01*
X150904761Y-131188152D02*
X150952380Y-131092914D01*
X150952380Y-131092914D02*
X150952380Y-131045295D01*
X150952380Y-131045295D02*
X150904761Y-130950057D01*
X150904761Y-130950057D02*
X150857142Y-130902438D01*
X150857142Y-130902438D02*
X150761904Y-130854819D01*
X150761904Y-130854819D02*
X150571428Y-130854819D01*
X150571428Y-130854819D02*
X150476190Y-130902438D01*
X150476190Y-130902438D02*
X150428571Y-130950057D01*
X150428571Y-130950057D02*
X150380952Y-131045295D01*
X150380952Y-131045295D02*
X150380952Y-131092914D01*
X150380952Y-131092914D02*
X150428571Y-131188152D01*
X150428571Y-131188152D02*
X150476190Y-131235771D01*
X150476190Y-131235771D02*
X150571428Y-131283390D01*
X150571428Y-131283390D02*
X150761904Y-131283390D01*
X150761904Y-131283390D02*
X150857142Y-131331009D01*
X150857142Y-131331009D02*
X150904761Y-131378628D01*
X150904761Y-131378628D02*
X150952380Y-131473866D01*
X150952380Y-131473866D02*
X150952380Y-131664342D01*
X150952380Y-131664342D02*
X150904761Y-131759580D01*
X150904761Y-131759580D02*
X150857142Y-131807200D01*
X150857142Y-131807200D02*
X150761904Y-131854819D01*
X150761904Y-131854819D02*
X150571428Y-131854819D01*
X150571428Y-131854819D02*
X150476190Y-131807200D01*
X150476190Y-131807200D02*
X150428571Y-131759580D01*
X150428571Y-131759580D02*
X150380952Y-131664342D01*
X150380952Y-131664342D02*
X150380952Y-131473866D01*
X150380952Y-131473866D02*
X150428571Y-131378628D01*
X150428571Y-131378628D02*
X150476190Y-131331009D01*
X150476190Y-131331009D02*
X150571428Y-131283390D01*
X149952380Y-131854819D02*
X149952380Y-130854819D01*
X149952380Y-131331009D02*
X149380952Y-131331009D01*
X149380952Y-131854819D02*
X149380952Y-130854819D01*
X148476190Y-130854819D02*
X148666666Y-130854819D01*
X148666666Y-130854819D02*
X148761904Y-130902438D01*
X148761904Y-130902438D02*
X148809523Y-130950057D01*
X148809523Y-130950057D02*
X148904761Y-131092914D01*
X148904761Y-131092914D02*
X148952380Y-131283390D01*
X148952380Y-131283390D02*
X148952380Y-131664342D01*
X148952380Y-131664342D02*
X148904761Y-131759580D01*
X148904761Y-131759580D02*
X148857142Y-131807200D01*
X148857142Y-131807200D02*
X148761904Y-131854819D01*
X148761904Y-131854819D02*
X148571428Y-131854819D01*
X148571428Y-131854819D02*
X148476190Y-131807200D01*
X148476190Y-131807200D02*
X148428571Y-131759580D01*
X148428571Y-131759580D02*
X148380952Y-131664342D01*
X148380952Y-131664342D02*
X148380952Y-131426247D01*
X148380952Y-131426247D02*
X148428571Y-131331009D01*
X148428571Y-131331009D02*
X148476190Y-131283390D01*
X148476190Y-131283390D02*
X148571428Y-131235771D01*
X148571428Y-131235771D02*
X148761904Y-131235771D01*
X148761904Y-131235771D02*
X148857142Y-131283390D01*
X148857142Y-131283390D02*
X148904761Y-131331009D01*
X148904761Y-131331009D02*
X148952380Y-131426247D01*
X147476190Y-130854819D02*
X147952380Y-130854819D01*
X147952380Y-130854819D02*
X147999999Y-131331009D01*
X147999999Y-131331009D02*
X147952380Y-131283390D01*
X147952380Y-131283390D02*
X147857142Y-131235771D01*
X147857142Y-131235771D02*
X147619047Y-131235771D01*
X147619047Y-131235771D02*
X147523809Y-131283390D01*
X147523809Y-131283390D02*
X147476190Y-131331009D01*
X147476190Y-131331009D02*
X147428571Y-131426247D01*
X147428571Y-131426247D02*
X147428571Y-131664342D01*
X147428571Y-131664342D02*
X147476190Y-131759580D01*
X147476190Y-131759580D02*
X147523809Y-131807200D01*
X147523809Y-131807200D02*
X147619047Y-131854819D01*
X147619047Y-131854819D02*
X147857142Y-131854819D01*
X147857142Y-131854819D02*
X147952380Y-131807200D01*
X147952380Y-131807200D02*
X147999999Y-131759580D01*
X147095237Y-130854819D02*
X146476190Y-130854819D01*
X146476190Y-130854819D02*
X146809523Y-131235771D01*
X146809523Y-131235771D02*
X146666666Y-131235771D01*
X146666666Y-131235771D02*
X146571428Y-131283390D01*
X146571428Y-131283390D02*
X146523809Y-131331009D01*
X146523809Y-131331009D02*
X146476190Y-131426247D01*
X146476190Y-131426247D02*
X146476190Y-131664342D01*
X146476190Y-131664342D02*
X146523809Y-131759580D01*
X146523809Y-131759580D02*
X146571428Y-131807200D01*
X146571428Y-131807200D02*
X146666666Y-131854819D01*
X146666666Y-131854819D02*
X146952380Y-131854819D01*
X146952380Y-131854819D02*
X147047618Y-131807200D01*
X147047618Y-131807200D02*
X147095237Y-131759580D01*
X145714285Y-131331009D02*
X146047618Y-131331009D01*
X146047618Y-131854819D02*
X146047618Y-130854819D01*
X146047618Y-130854819D02*
X145571428Y-130854819D01*
X145333332Y-130854819D02*
X144761904Y-130854819D01*
X145047618Y-131854819D02*
X145047618Y-130854819D01*
X143904761Y-130902438D02*
X143999999Y-130854819D01*
X143999999Y-130854819D02*
X144142856Y-130854819D01*
X144142856Y-130854819D02*
X144285713Y-130902438D01*
X144285713Y-130902438D02*
X144380951Y-130997676D01*
X144380951Y-130997676D02*
X144428570Y-131092914D01*
X144428570Y-131092914D02*
X144476189Y-131283390D01*
X144476189Y-131283390D02*
X144476189Y-131426247D01*
X144476189Y-131426247D02*
X144428570Y-131616723D01*
X144428570Y-131616723D02*
X144380951Y-131711961D01*
X144380951Y-131711961D02*
X144285713Y-131807200D01*
X144285713Y-131807200D02*
X144142856Y-131854819D01*
X144142856Y-131854819D02*
X144047618Y-131854819D01*
X144047618Y-131854819D02*
X143904761Y-131807200D01*
X143904761Y-131807200D02*
X143857142Y-131759580D01*
X143857142Y-131759580D02*
X143857142Y-131426247D01*
X143857142Y-131426247D02*
X144047618Y-131426247D01*
X142666665Y-131473866D02*
X141904761Y-131473866D01*
X142285713Y-131854819D02*
X142285713Y-131092914D01*
X140333332Y-131331009D02*
X140666665Y-131331009D01*
X140666665Y-131854819D02*
X140666665Y-130854819D01*
X140666665Y-130854819D02*
X140190475Y-130854819D01*
X139857141Y-131569104D02*
X139380951Y-131569104D01*
X139952379Y-131854819D02*
X139619046Y-130854819D01*
X139619046Y-130854819D02*
X139285713Y-131854819D01*
X138952379Y-131473866D02*
X138190475Y-131473866D01*
X137190475Y-131854819D02*
X137761903Y-131854819D01*
X137476189Y-131854819D02*
X137476189Y-130854819D01*
X137476189Y-130854819D02*
X137571427Y-130997676D01*
X137571427Y-130997676D02*
X137666665Y-131092914D01*
X137666665Y-131092914D02*
X137761903Y-131140533D01*
X136857141Y-130854819D02*
X136238094Y-130854819D01*
X136238094Y-130854819D02*
X136571427Y-131235771D01*
X136571427Y-131235771D02*
X136428570Y-131235771D01*
X136428570Y-131235771D02*
X136333332Y-131283390D01*
X136333332Y-131283390D02*
X136285713Y-131331009D01*
X136285713Y-131331009D02*
X136238094Y-131426247D01*
X136238094Y-131426247D02*
X136238094Y-131664342D01*
X136238094Y-131664342D02*
X136285713Y-131759580D01*
X136285713Y-131759580D02*
X136333332Y-131807200D01*
X136333332Y-131807200D02*
X136428570Y-131854819D01*
X136428570Y-131854819D02*
X136714284Y-131854819D01*
X136714284Y-131854819D02*
X136809522Y-131807200D01*
X136809522Y-131807200D02*
X136857141Y-131759580D01*
X135619046Y-130854819D02*
X135523808Y-130854819D01*
X135523808Y-130854819D02*
X135428570Y-130902438D01*
X135428570Y-130902438D02*
X135380951Y-130950057D01*
X135380951Y-130950057D02*
X135333332Y-131045295D01*
X135333332Y-131045295D02*
X135285713Y-131235771D01*
X135285713Y-131235771D02*
X135285713Y-131473866D01*
X135285713Y-131473866D02*
X135333332Y-131664342D01*
X135333332Y-131664342D02*
X135380951Y-131759580D01*
X135380951Y-131759580D02*
X135428570Y-131807200D01*
X135428570Y-131807200D02*
X135523808Y-131854819D01*
X135523808Y-131854819D02*
X135619046Y-131854819D01*
X135619046Y-131854819D02*
X135714284Y-131807200D01*
X135714284Y-131807200D02*
X135761903Y-131759580D01*
X135761903Y-131759580D02*
X135809522Y-131664342D01*
X135809522Y-131664342D02*
X135857141Y-131473866D01*
X135857141Y-131473866D02*
X135857141Y-131235771D01*
X135857141Y-131235771D02*
X135809522Y-131045295D01*
X135809522Y-131045295D02*
X135761903Y-130950057D01*
X135761903Y-130950057D02*
X135714284Y-130902438D01*
X135714284Y-130902438D02*
X135619046Y-130854819D01*
X134190474Y-131854819D02*
X133666665Y-131188152D01*
X134190474Y-131188152D02*
X133666665Y-131854819D01*
X133333331Y-130950057D02*
X133285712Y-130902438D01*
X133285712Y-130902438D02*
X133190474Y-130854819D01*
X133190474Y-130854819D02*
X132952379Y-130854819D01*
X132952379Y-130854819D02*
X132857141Y-130902438D01*
X132857141Y-130902438D02*
X132809522Y-130950057D01*
X132809522Y-130950057D02*
X132761903Y-131045295D01*
X132761903Y-131045295D02*
X132761903Y-131140533D01*
X132761903Y-131140533D02*
X132809522Y-131283390D01*
X132809522Y-131283390D02*
X133380950Y-131854819D01*
X133380950Y-131854819D02*
X132761903Y-131854819D01*
X156990476Y-71454819D02*
X157561904Y-71454819D01*
X157276190Y-71454819D02*
X157276190Y-70454819D01*
X157276190Y-70454819D02*
X157371428Y-70597676D01*
X157371428Y-70597676D02*
X157466666Y-70692914D01*
X157466666Y-70692914D02*
X157561904Y-70740533D01*
X156133333Y-70788152D02*
X156133333Y-71454819D01*
X156371428Y-70407200D02*
X156609523Y-71121485D01*
X156609523Y-71121485D02*
X155990476Y-71121485D01*
D11*
X160599999Y-129145782D02*
X160599999Y-128345782D01*
X160599999Y-128574354D02*
X160542856Y-128460068D01*
X160542856Y-128460068D02*
X160485714Y-128402925D01*
X160485714Y-128402925D02*
X160371428Y-128345782D01*
X160371428Y-128345782D02*
X160257142Y-128345782D01*
X159399999Y-129088640D02*
X159514285Y-129145782D01*
X159514285Y-129145782D02*
X159742857Y-129145782D01*
X159742857Y-129145782D02*
X159857142Y-129088640D01*
X159857142Y-129088640D02*
X159914285Y-128974354D01*
X159914285Y-128974354D02*
X159914285Y-128517211D01*
X159914285Y-128517211D02*
X159857142Y-128402925D01*
X159857142Y-128402925D02*
X159742857Y-128345782D01*
X159742857Y-128345782D02*
X159514285Y-128345782D01*
X159514285Y-128345782D02*
X159399999Y-128402925D01*
X159399999Y-128402925D02*
X159342857Y-128517211D01*
X159342857Y-128517211D02*
X159342857Y-128631497D01*
X159342857Y-128631497D02*
X159914285Y-128745782D01*
X158942857Y-128345782D02*
X158657143Y-129145782D01*
X158657143Y-129145782D02*
X158371428Y-128345782D01*
X157914285Y-129031497D02*
X157857142Y-129088640D01*
X157857142Y-129088640D02*
X157914285Y-129145782D01*
X157914285Y-129145782D02*
X157971428Y-129088640D01*
X157971428Y-129088640D02*
X157914285Y-129031497D01*
X157914285Y-129031497D02*
X157914285Y-129145782D01*
X156771428Y-129145782D02*
X157342856Y-129145782D01*
X157342856Y-129145782D02*
X157342856Y-127945782D01*
X156485713Y-127945782D02*
X155742856Y-127945782D01*
X155742856Y-127945782D02*
X156142856Y-128402925D01*
X156142856Y-128402925D02*
X155971427Y-128402925D01*
X155971427Y-128402925D02*
X155857142Y-128460068D01*
X155857142Y-128460068D02*
X155799999Y-128517211D01*
X155799999Y-128517211D02*
X155742856Y-128631497D01*
X155742856Y-128631497D02*
X155742856Y-128917211D01*
X155742856Y-128917211D02*
X155799999Y-129031497D01*
X155799999Y-129031497D02*
X155857142Y-129088640D01*
X155857142Y-129088640D02*
X155971427Y-129145782D01*
X155971427Y-129145782D02*
X156314284Y-129145782D01*
X156314284Y-129145782D02*
X156428570Y-129088640D01*
X156428570Y-129088640D02*
X156485713Y-129031497D01*
X153457141Y-128060068D02*
X153399998Y-128002925D01*
X153399998Y-128002925D02*
X153285713Y-127945782D01*
X153285713Y-127945782D02*
X152999998Y-127945782D01*
X152999998Y-127945782D02*
X152885713Y-128002925D01*
X152885713Y-128002925D02*
X152828570Y-128060068D01*
X152828570Y-128060068D02*
X152771427Y-128174354D01*
X152771427Y-128174354D02*
X152771427Y-128288640D01*
X152771427Y-128288640D02*
X152828570Y-128460068D01*
X152828570Y-128460068D02*
X153514284Y-129145782D01*
X153514284Y-129145782D02*
X152771427Y-129145782D01*
X152028570Y-127945782D02*
X151914284Y-127945782D01*
X151914284Y-127945782D02*
X151799998Y-128002925D01*
X151799998Y-128002925D02*
X151742856Y-128060068D01*
X151742856Y-128060068D02*
X151685713Y-128174354D01*
X151685713Y-128174354D02*
X151628570Y-128402925D01*
X151628570Y-128402925D02*
X151628570Y-128688640D01*
X151628570Y-128688640D02*
X151685713Y-128917211D01*
X151685713Y-128917211D02*
X151742856Y-129031497D01*
X151742856Y-129031497D02*
X151799998Y-129088640D01*
X151799998Y-129088640D02*
X151914284Y-129145782D01*
X151914284Y-129145782D02*
X152028570Y-129145782D01*
X152028570Y-129145782D02*
X152142856Y-129088640D01*
X152142856Y-129088640D02*
X152199998Y-129031497D01*
X152199998Y-129031497D02*
X152257141Y-128917211D01*
X152257141Y-128917211D02*
X152314284Y-128688640D01*
X152314284Y-128688640D02*
X152314284Y-128402925D01*
X152314284Y-128402925D02*
X152257141Y-128174354D01*
X152257141Y-128174354D02*
X152199998Y-128060068D01*
X152199998Y-128060068D02*
X152142856Y-128002925D01*
X152142856Y-128002925D02*
X152028570Y-127945782D01*
X151171427Y-128060068D02*
X151114284Y-128002925D01*
X151114284Y-128002925D02*
X150999999Y-127945782D01*
X150999999Y-127945782D02*
X150714284Y-127945782D01*
X150714284Y-127945782D02*
X150599999Y-128002925D01*
X150599999Y-128002925D02*
X150542856Y-128060068D01*
X150542856Y-128060068D02*
X150485713Y-128174354D01*
X150485713Y-128174354D02*
X150485713Y-128288640D01*
X150485713Y-128288640D02*
X150542856Y-128460068D01*
X150542856Y-128460068D02*
X151228570Y-129145782D01*
X151228570Y-129145782D02*
X150485713Y-129145782D01*
X149457142Y-127945782D02*
X149685713Y-127945782D01*
X149685713Y-127945782D02*
X149799999Y-128002925D01*
X149799999Y-128002925D02*
X149857142Y-128060068D01*
X149857142Y-128060068D02*
X149971427Y-128231497D01*
X149971427Y-128231497D02*
X150028570Y-128460068D01*
X150028570Y-128460068D02*
X150028570Y-128917211D01*
X150028570Y-128917211D02*
X149971427Y-129031497D01*
X149971427Y-129031497D02*
X149914284Y-129088640D01*
X149914284Y-129088640D02*
X149799999Y-129145782D01*
X149799999Y-129145782D02*
X149571427Y-129145782D01*
X149571427Y-129145782D02*
X149457142Y-129088640D01*
X149457142Y-129088640D02*
X149399999Y-129031497D01*
X149399999Y-129031497D02*
X149342856Y-128917211D01*
X149342856Y-128917211D02*
X149342856Y-128631497D01*
X149342856Y-128631497D02*
X149399999Y-128517211D01*
X149399999Y-128517211D02*
X149457142Y-128460068D01*
X149457142Y-128460068D02*
X149571427Y-128402925D01*
X149571427Y-128402925D02*
X149799999Y-128402925D01*
X149799999Y-128402925D02*
X149914284Y-128460068D01*
X149914284Y-128460068D02*
X149971427Y-128517211D01*
X149971427Y-128517211D02*
X150028570Y-128631497D01*
X148828570Y-128688640D02*
X147914285Y-128688640D01*
X146714285Y-129145782D02*
X147399999Y-129145782D01*
X147057142Y-129145782D02*
X147057142Y-127945782D01*
X147057142Y-127945782D02*
X147171428Y-128117211D01*
X147171428Y-128117211D02*
X147285713Y-128231497D01*
X147285713Y-128231497D02*
X147399999Y-128288640D01*
X145971428Y-127945782D02*
X145857142Y-127945782D01*
X145857142Y-127945782D02*
X145742856Y-128002925D01*
X145742856Y-128002925D02*
X145685714Y-128060068D01*
X145685714Y-128060068D02*
X145628571Y-128174354D01*
X145628571Y-128174354D02*
X145571428Y-128402925D01*
X145571428Y-128402925D02*
X145571428Y-128688640D01*
X145571428Y-128688640D02*
X145628571Y-128917211D01*
X145628571Y-128917211D02*
X145685714Y-129031497D01*
X145685714Y-129031497D02*
X145742856Y-129088640D01*
X145742856Y-129088640D02*
X145857142Y-129145782D01*
X145857142Y-129145782D02*
X145971428Y-129145782D01*
X145971428Y-129145782D02*
X146085714Y-129088640D01*
X146085714Y-129088640D02*
X146142856Y-129031497D01*
X146142856Y-129031497D02*
X146199999Y-128917211D01*
X146199999Y-128917211D02*
X146257142Y-128688640D01*
X146257142Y-128688640D02*
X146257142Y-128402925D01*
X146257142Y-128402925D02*
X146199999Y-128174354D01*
X146199999Y-128174354D02*
X146142856Y-128060068D01*
X146142856Y-128060068D02*
X146085714Y-128002925D01*
X146085714Y-128002925D02*
X145971428Y-127945782D01*
X143228570Y-128517211D02*
X142828570Y-128517211D01*
X142657142Y-129145782D02*
X143228570Y-129145782D01*
X143228570Y-129145782D02*
X143228570Y-127945782D01*
X143228570Y-127945782D02*
X142657142Y-127945782D01*
X142142856Y-129145782D02*
X142142856Y-127945782D01*
X142142856Y-127945782D02*
X141857142Y-127945782D01*
X141857142Y-127945782D02*
X141685713Y-128002925D01*
X141685713Y-128002925D02*
X141571428Y-128117211D01*
X141571428Y-128117211D02*
X141514285Y-128231497D01*
X141514285Y-128231497D02*
X141457142Y-128460068D01*
X141457142Y-128460068D02*
X141457142Y-128631497D01*
X141457142Y-128631497D02*
X141514285Y-128860068D01*
X141514285Y-128860068D02*
X141571428Y-128974354D01*
X141571428Y-128974354D02*
X141685713Y-129088640D01*
X141685713Y-129088640D02*
X141857142Y-129145782D01*
X141857142Y-129145782D02*
X142142856Y-129145782D01*
X141114285Y-127945782D02*
X140428571Y-127945782D01*
X140771428Y-129145782D02*
X140771428Y-127945782D01*
X139342856Y-129031497D02*
X139399999Y-129088640D01*
X139399999Y-129088640D02*
X139571427Y-129145782D01*
X139571427Y-129145782D02*
X139685713Y-129145782D01*
X139685713Y-129145782D02*
X139857142Y-129088640D01*
X139857142Y-129088640D02*
X139971427Y-128974354D01*
X139971427Y-128974354D02*
X140028570Y-128860068D01*
X140028570Y-128860068D02*
X140085713Y-128631497D01*
X140085713Y-128631497D02*
X140085713Y-128460068D01*
X140085713Y-128460068D02*
X140028570Y-128231497D01*
X140028570Y-128231497D02*
X139971427Y-128117211D01*
X139971427Y-128117211D02*
X139857142Y-128002925D01*
X139857142Y-128002925D02*
X139685713Y-127945782D01*
X139685713Y-127945782D02*
X139571427Y-127945782D01*
X139571427Y-127945782D02*
X139399999Y-128002925D01*
X139399999Y-128002925D02*
X139342856Y-128060068D01*
D12*
X165714285Y-125356657D02*
X167142857Y-125356657D01*
X167142857Y-125356657D02*
X167142857Y-122356657D01*
X164714286Y-125356657D02*
X164714286Y-123356657D01*
X164714286Y-122356657D02*
X164857143Y-122499514D01*
X164857143Y-122499514D02*
X164714286Y-122642371D01*
X164714286Y-122642371D02*
X164571429Y-122499514D01*
X164571429Y-122499514D02*
X164714286Y-122356657D01*
X164714286Y-122356657D02*
X164714286Y-122642371D01*
X163285715Y-123356657D02*
X163285715Y-125356657D01*
X163285715Y-123642371D02*
X163142858Y-123499514D01*
X163142858Y-123499514D02*
X162857143Y-123356657D01*
X162857143Y-123356657D02*
X162428572Y-123356657D01*
X162428572Y-123356657D02*
X162142858Y-123499514D01*
X162142858Y-123499514D02*
X162000001Y-123785228D01*
X162000001Y-123785228D02*
X162000001Y-125356657D01*
X159428572Y-125213800D02*
X159714286Y-125356657D01*
X159714286Y-125356657D02*
X160285715Y-125356657D01*
X160285715Y-125356657D02*
X160571429Y-125213800D01*
X160571429Y-125213800D02*
X160714286Y-124928085D01*
X160714286Y-124928085D02*
X160714286Y-123785228D01*
X160714286Y-123785228D02*
X160571429Y-123499514D01*
X160571429Y-123499514D02*
X160285715Y-123356657D01*
X160285715Y-123356657D02*
X159714286Y-123356657D01*
X159714286Y-123356657D02*
X159428572Y-123499514D01*
X159428572Y-123499514D02*
X159285715Y-123785228D01*
X159285715Y-123785228D02*
X159285715Y-124070942D01*
X159285715Y-124070942D02*
X160714286Y-124356657D01*
X158428571Y-123356657D02*
X157285714Y-123356657D01*
X158000000Y-122356657D02*
X158000000Y-124928085D01*
X158000000Y-124928085D02*
X157857143Y-125213800D01*
X157857143Y-125213800D02*
X157571428Y-125356657D01*
X157571428Y-125356657D02*
X157285714Y-125356657D01*
X156285714Y-125356657D02*
X156285714Y-123356657D01*
X156285714Y-123928085D02*
X156142857Y-123642371D01*
X156142857Y-123642371D02*
X156000000Y-123499514D01*
X156000000Y-123499514D02*
X155714285Y-123356657D01*
X155714285Y-123356657D02*
X155428571Y-123356657D01*
X153142857Y-125356657D02*
X153142857Y-123785228D01*
X153142857Y-123785228D02*
X153285714Y-123499514D01*
X153285714Y-123499514D02*
X153571428Y-123356657D01*
X153571428Y-123356657D02*
X154142857Y-123356657D01*
X154142857Y-123356657D02*
X154428571Y-123499514D01*
X153142857Y-125213800D02*
X153428571Y-125356657D01*
X153428571Y-125356657D02*
X154142857Y-125356657D01*
X154142857Y-125356657D02*
X154428571Y-125213800D01*
X154428571Y-125213800D02*
X154571428Y-124928085D01*
X154571428Y-124928085D02*
X154571428Y-124642371D01*
X154571428Y-124642371D02*
X154428571Y-124356657D01*
X154428571Y-124356657D02*
X154142857Y-124213800D01*
X154142857Y-124213800D02*
X153428571Y-124213800D01*
X153428571Y-124213800D02*
X153142857Y-124070942D01*
X150428571Y-125213800D02*
X150714285Y-125356657D01*
X150714285Y-125356657D02*
X151285713Y-125356657D01*
X151285713Y-125356657D02*
X151571428Y-125213800D01*
X151571428Y-125213800D02*
X151714285Y-125070942D01*
X151714285Y-125070942D02*
X151857142Y-124785228D01*
X151857142Y-124785228D02*
X151857142Y-123928085D01*
X151857142Y-123928085D02*
X151714285Y-123642371D01*
X151714285Y-123642371D02*
X151571428Y-123499514D01*
X151571428Y-123499514D02*
X151285713Y-123356657D01*
X151285713Y-123356657D02*
X150714285Y-123356657D01*
X150714285Y-123356657D02*
X150428571Y-123499514D01*
X147999999Y-125213800D02*
X148285713Y-125356657D01*
X148285713Y-125356657D02*
X148857142Y-125356657D01*
X148857142Y-125356657D02*
X149142856Y-125213800D01*
X149142856Y-125213800D02*
X149285713Y-124928085D01*
X149285713Y-124928085D02*
X149285713Y-123785228D01*
X149285713Y-123785228D02*
X149142856Y-123499514D01*
X149142856Y-123499514D02*
X148857142Y-123356657D01*
X148857142Y-123356657D02*
X148285713Y-123356657D01*
X148285713Y-123356657D02*
X147999999Y-123499514D01*
X147999999Y-123499514D02*
X147857142Y-123785228D01*
X147857142Y-123785228D02*
X147857142Y-124070942D01*
X147857142Y-124070942D02*
X149285713Y-124356657D01*
X146571427Y-125356657D02*
X146571427Y-123356657D01*
X146571427Y-123928085D02*
X146428570Y-123642371D01*
X146428570Y-123642371D02*
X146285713Y-123499514D01*
X146285713Y-123499514D02*
X145999998Y-123356657D01*
X145999998Y-123356657D02*
X145714284Y-123356657D01*
X144857141Y-122642371D02*
X144714284Y-122499514D01*
X144714284Y-122499514D02*
X144428570Y-122356657D01*
X144428570Y-122356657D02*
X143714284Y-122356657D01*
X143714284Y-122356657D02*
X143428570Y-122499514D01*
X143428570Y-122499514D02*
X143285712Y-122642371D01*
X143285712Y-122642371D02*
X143142855Y-122928085D01*
X143142855Y-122928085D02*
X143142855Y-123213800D01*
X143142855Y-123213800D02*
X143285712Y-123642371D01*
X143285712Y-123642371D02*
X144999998Y-125356657D01*
X144999998Y-125356657D02*
X143142855Y-125356657D01*
X138142855Y-125356657D02*
X139571427Y-125356657D01*
X139571427Y-125356657D02*
X139571427Y-122356657D01*
X137142856Y-125356657D02*
X137142856Y-123356657D01*
X137142856Y-122356657D02*
X137285713Y-122499514D01*
X137285713Y-122499514D02*
X137142856Y-122642371D01*
X137142856Y-122642371D02*
X136999999Y-122499514D01*
X136999999Y-122499514D02*
X137142856Y-122356657D01*
X137142856Y-122356657D02*
X137142856Y-122642371D01*
X136142856Y-123356657D02*
X134999999Y-123356657D01*
X135714285Y-122356657D02*
X135714285Y-124928085D01*
X135714285Y-124928085D02*
X135571428Y-125213800D01*
X135571428Y-125213800D02*
X135285713Y-125356657D01*
X135285713Y-125356657D02*
X134999999Y-125356657D01*
X132857142Y-125213800D02*
X133142856Y-125356657D01*
X133142856Y-125356657D02*
X133714285Y-125356657D01*
X133714285Y-125356657D02*
X133999999Y-125213800D01*
X133999999Y-125213800D02*
X134142856Y-124928085D01*
X134142856Y-124928085D02*
X134142856Y-123785228D01*
X134142856Y-123785228D02*
X133999999Y-123499514D01*
X133999999Y-123499514D02*
X133714285Y-123356657D01*
X133714285Y-123356657D02*
X133142856Y-123356657D01*
X133142856Y-123356657D02*
X132857142Y-123499514D01*
X132857142Y-123499514D02*
X132714285Y-123785228D01*
X132714285Y-123785228D02*
X132714285Y-124070942D01*
X132714285Y-124070942D02*
X134142856Y-124356657D01*
D10*
G36*
X154045467Y-67606998D02*
G01*
X153998426Y-67832092D01*
X153830411Y-67796848D01*
X153428949Y-67727972D01*
X153371796Y-68033739D01*
X153353504Y-68169912D01*
X153349961Y-68203366D01*
X153106402Y-68159695D01*
X153150073Y-67995051D01*
X153210523Y-67692654D01*
X152845990Y-67633889D01*
X152816855Y-67629241D01*
X152667864Y-67608683D01*
X152713220Y-67386886D01*
X152884605Y-67427260D01*
X153249138Y-67491080D01*
X153301235Y-67222242D01*
X152965279Y-67168533D01*
X152919901Y-67162298D01*
X152810673Y-67148383D01*
X152851046Y-66928272D01*
X153008949Y-66963589D01*
X153339849Y-67018983D01*
X153366741Y-66864451D01*
X153379910Y-66774898D01*
X153385279Y-66733366D01*
X153622096Y-66772054D01*
X153621417Y-66774389D01*
X153588538Y-66899695D01*
X153558276Y-67052616D01*
X153890935Y-67101342D01*
X154047152Y-67113066D01*
X154001796Y-67344901D01*
X153883573Y-67317463D01*
X153847264Y-67309657D01*
X153517976Y-67255875D01*
X153467564Y-67526325D01*
X153870785Y-67588533D01*
X153892651Y-67591273D01*
X154045467Y-67606998D01*
G37*
G36*
X151041646Y-67292218D02*
G01*
X151176029Y-67196450D01*
X151240658Y-67219114D01*
X151261758Y-67223341D01*
X151775840Y-67324165D01*
X151821196Y-67161206D01*
X151848014Y-67033491D01*
X152073182Y-67087274D01*
X152049196Y-67138700D01*
X152029253Y-67195454D01*
X152026140Y-67206562D01*
X151982470Y-67362780D01*
X152143743Y-67391356D01*
X152298276Y-67411506D01*
X152246179Y-67613153D01*
X151932058Y-67545889D01*
X151888466Y-67710710D01*
X151777452Y-68127162D01*
X151760962Y-68193475D01*
X151749132Y-68259978D01*
X151747264Y-68275027D01*
X151518799Y-68217947D01*
X151548224Y-68129566D01*
X151564155Y-68080121D01*
X151725429Y-67502218D01*
X151337302Y-67423303D01*
X151391589Y-67507391D01*
X151495146Y-67634899D01*
X151584305Y-67725700D01*
X151399511Y-67818097D01*
X151301637Y-67700599D01*
X151172742Y-67518003D01*
X151110160Y-67417982D01*
X151058816Y-67326540D01*
X151041646Y-67292218D01*
G37*
G36*
X149438949Y-66959413D02*
G01*
X149576702Y-66856831D01*
X149647791Y-66872084D01*
X149749699Y-66878739D01*
X150342770Y-66878739D01*
X150505151Y-66870999D01*
X150540973Y-66866942D01*
X150540973Y-67105592D01*
X150493692Y-67102117D01*
X150342770Y-67093795D01*
X149773220Y-67093795D01*
X149813078Y-67192389D01*
X149884768Y-67320066D01*
X149983653Y-67458477D01*
X150023593Y-67506101D01*
X150149799Y-67632850D01*
X150224001Y-67697167D01*
X150304038Y-67759977D01*
X150384612Y-67817033D01*
X150468851Y-67870433D01*
X150548636Y-67915223D01*
X150630250Y-67955138D01*
X150712358Y-67989043D01*
X150539288Y-68170759D01*
X150385851Y-68087843D01*
X150226181Y-67980797D01*
X150065526Y-67851201D01*
X149911756Y-67703884D01*
X149907676Y-67699615D01*
X149802904Y-67803344D01*
X149701655Y-67910399D01*
X149611977Y-68012144D01*
X149530643Y-68112226D01*
X149484305Y-68174130D01*
X149292770Y-68007508D01*
X149446619Y-67833928D01*
X149559932Y-67716508D01*
X149678642Y-67601177D01*
X149761496Y-67526251D01*
X149658583Y-67371988D01*
X149558008Y-67191221D01*
X149497714Y-67063607D01*
X149454350Y-66983124D01*
X149438949Y-66959413D01*
G37*
G36*
X148204155Y-66767291D02*
G01*
X148447714Y-66691234D01*
X148479110Y-66779021D01*
X148525017Y-66867016D01*
X148582042Y-66960115D01*
X148657957Y-67066248D01*
X148714857Y-67135125D01*
X148780503Y-67205496D01*
X148843565Y-67265446D01*
X148913784Y-67324768D01*
X148983325Y-67376904D01*
X149059249Y-67427333D01*
X148877826Y-67566918D01*
X148744921Y-67463886D01*
X148609576Y-67336254D01*
X148479373Y-67189060D01*
X148434305Y-67131237D01*
X147953782Y-67131237D01*
X147987586Y-67232902D01*
X148051355Y-67365096D01*
X148092925Y-67435339D01*
X148138576Y-67503024D01*
X148295261Y-67400405D01*
X148439361Y-67312954D01*
X148588838Y-67466021D01*
X148356945Y-67622589D01*
X148283070Y-67676241D01*
X148348218Y-67737847D01*
X148420651Y-67798154D01*
X148486912Y-67846489D01*
X148559555Y-67892874D01*
X148631665Y-67932947D01*
X148710043Y-67970651D01*
X148790402Y-68003818D01*
X148877197Y-68034236D01*
X148899661Y-68041286D01*
X148704755Y-68211206D01*
X148543223Y-68140405D01*
X148396254Y-68056551D01*
X148261878Y-67959452D01*
X148138157Y-67848293D01*
X148103332Y-67812528D01*
X147926964Y-67962225D01*
X147767302Y-67772155D01*
X147953782Y-67630885D01*
X147857001Y-67479407D01*
X147772326Y-67315225D01*
X147707556Y-67153518D01*
X147705167Y-67146405D01*
X147662712Y-67050703D01*
X147649699Y-67027117D01*
X147821085Y-66921164D01*
X147893904Y-66935502D01*
X147967264Y-66939702D01*
X148308276Y-66939702D01*
X148264404Y-66861767D01*
X148204155Y-66767291D01*
G37*
G36*
X147325467Y-67322113D02*
G01*
X147325467Y-67585896D01*
X147055017Y-67577469D01*
X146152882Y-67577469D01*
X146001200Y-67583449D01*
X145956290Y-67585896D01*
X145956290Y-67322113D01*
X145972986Y-67323432D01*
X146053501Y-67329160D01*
X146152882Y-67332225D01*
X147055017Y-67332225D01*
X147279156Y-67325304D01*
X147325467Y-67322113D01*
G37*
G36*
X152437152Y-70381236D02*
G01*
X152652184Y-70214956D01*
X152742277Y-70249628D01*
X152811235Y-70266637D01*
X153552658Y-70417189D01*
X153552658Y-70152039D01*
X153542255Y-69969777D01*
X153532533Y-69893630D01*
X153866266Y-69893630D01*
X153851417Y-70050143D01*
X153848387Y-70152039D01*
X153848387Y-70473364D01*
X154372533Y-70560999D01*
X154318799Y-70855360D01*
X153848387Y-70756491D01*
X153848387Y-71369931D01*
X153844654Y-71458231D01*
X153831028Y-71534754D01*
X153815955Y-71576497D01*
X153794768Y-71613797D01*
X153770661Y-71642689D01*
X153740677Y-71668276D01*
X153662121Y-71709148D01*
X153545874Y-71738938D01*
X153370625Y-71755736D01*
X153263768Y-71757789D01*
X152946087Y-71746721D01*
X152601374Y-71713023D01*
X152569337Y-71708549D01*
X152560348Y-71403637D01*
X152722035Y-71433081D01*
X152889563Y-71456544D01*
X153043130Y-71471395D01*
X153196470Y-71479146D01*
X153266015Y-71480036D01*
X153360808Y-71476786D01*
X153432574Y-71466540D01*
X153471796Y-71454374D01*
X153501748Y-71437893D01*
X153520925Y-71420106D01*
X153534847Y-71398762D01*
X153550172Y-71341852D01*
X153552658Y-71291285D01*
X153552658Y-70695821D01*
X152862819Y-70558752D01*
X152957174Y-70708043D01*
X153029152Y-70804250D01*
X153110042Y-70900452D01*
X153221172Y-71012653D01*
X152974780Y-71158710D01*
X152856001Y-71025238D01*
X152703661Y-70818992D01*
X152547411Y-70570675D01*
X152511109Y-70504823D01*
X152440667Y-70386700D01*
X152437152Y-70381236D01*
G37*
G36*
X151700223Y-69963288D02*
G01*
X151910760Y-70187307D01*
X151724644Y-70330848D01*
X151458020Y-70564726D01*
X151350760Y-70671201D01*
X151122344Y-70438193D01*
X151267143Y-70301964D01*
X151521819Y-70093397D01*
X151700223Y-69963288D01*
G37*
G36*
X151980223Y-71455123D02*
G01*
X151792058Y-71750852D01*
X151573902Y-71701764D01*
X151352217Y-71627671D01*
X151131755Y-71529375D01*
X150961046Y-71434997D01*
X150758970Y-71299104D01*
X150567458Y-71141010D01*
X150393618Y-70965975D01*
X150315730Y-70874501D01*
X150244793Y-70781587D01*
X150132281Y-70606233D01*
X150306964Y-70290378D01*
X150401563Y-70463352D01*
X150461837Y-70553719D01*
X150529558Y-70643857D01*
X150604426Y-70732939D01*
X150686116Y-70820108D01*
X150772110Y-70902519D01*
X150864010Y-70981522D01*
X150957452Y-71053382D01*
X151055804Y-71120694D01*
X151122344Y-71161739D01*
X151219598Y-71216140D01*
X151325566Y-71267776D01*
X151435262Y-71313960D01*
X151552505Y-71356053D01*
X151671019Y-71391663D01*
X151795963Y-71422222D01*
X151980223Y-71455123D01*
G37*
G36*
X149870160Y-70305325D02*
G01*
X149870160Y-70610043D01*
X149628164Y-70601055D01*
X149437850Y-70601055D01*
X149437850Y-70906260D01*
X149447102Y-71108319D01*
X149451235Y-71141808D01*
X149137627Y-71141808D01*
X149139406Y-71109890D01*
X149146615Y-70906260D01*
X149146615Y-70601055D01*
X148615729Y-70601055D01*
X148615729Y-70686344D01*
X148618876Y-70803064D01*
X148628401Y-70908766D01*
X148642505Y-70994990D01*
X148661951Y-71073495D01*
X148684887Y-71140007D01*
X148712587Y-71200782D01*
X148743868Y-71254361D01*
X148779709Y-71303425D01*
X148865862Y-71390055D01*
X148977324Y-71466845D01*
X149125927Y-71539004D01*
X149238450Y-71581543D01*
X148998799Y-71808200D01*
X148900308Y-71761385D01*
X148811306Y-71711922D01*
X148736051Y-71662944D01*
X148668429Y-71611325D01*
X148610421Y-71559196D01*
X148558804Y-71504366D01*
X148513947Y-71447642D01*
X148474686Y-71388047D01*
X148411075Y-71257944D01*
X148365198Y-71107596D01*
X148336152Y-70927274D01*
X148324690Y-70700914D01*
X148324591Y-70675109D01*
X148324591Y-70601055D01*
X148158799Y-70601055D01*
X147912407Y-70607796D01*
X147912407Y-70309819D01*
X147983313Y-70319520D01*
X148072546Y-70324508D01*
X148158799Y-70325549D01*
X148324591Y-70325549D01*
X148324591Y-70089415D01*
X148316344Y-69931803D01*
X148312925Y-69897960D01*
X148311109Y-69880245D01*
X148629211Y-69880245D01*
X148620068Y-69966227D01*
X148615734Y-70084970D01*
X148615729Y-70089415D01*
X148615729Y-70325549D01*
X149146615Y-70325549D01*
X149146615Y-70102897D01*
X149137388Y-69931810D01*
X149133133Y-69900566D01*
X149451235Y-69900566D01*
X149442015Y-70002574D01*
X149437850Y-70102897D01*
X149437850Y-70325549D01*
X149628164Y-70325549D01*
X149790572Y-70316520D01*
X149870160Y-70305325D01*
G37*
G36*
X147553956Y-70629484D02*
G01*
X147553956Y-70981194D01*
X147193356Y-70969959D01*
X145990509Y-70969959D01*
X145788267Y-70977933D01*
X145728387Y-70981194D01*
X145728387Y-70629484D01*
X145750648Y-70631242D01*
X145858002Y-70638880D01*
X145990509Y-70642967D01*
X147193356Y-70642967D01*
X147492208Y-70633739D01*
X147553956Y-70629484D01*
G37*
G36*
X169666701Y-134075002D02*
G01*
X169666701Y-134481764D01*
X169383482Y-134501538D01*
X169074522Y-134513018D01*
X168825908Y-134515616D01*
X168298942Y-134501632D01*
X167935813Y-134478675D01*
X167935813Y-134068689D01*
X168414866Y-134102422D01*
X168828997Y-134112078D01*
X169145625Y-134107780D01*
X169431462Y-134094884D01*
X169666701Y-134075002D01*
G37*
G36*
X169407975Y-135383277D02*
G01*
X169811513Y-135346201D01*
X169818468Y-135378200D01*
X169854761Y-135564702D01*
X169867889Y-135673140D01*
X169873038Y-135790845D01*
X169868740Y-135869230D01*
X169855849Y-135943031D01*
X169835538Y-136009111D01*
X169807411Y-136070875D01*
X169729653Y-136179108D01*
X169620787Y-136270749D01*
X169475890Y-136346453D01*
X169287872Y-136404424D01*
X169048395Y-136440754D01*
X168813549Y-136450557D01*
X168575693Y-136446363D01*
X168352701Y-136434199D01*
X168145536Y-136414617D01*
X167956603Y-136388278D01*
X167744791Y-136345911D01*
X167747881Y-135911342D01*
X168023310Y-135972172D01*
X168390622Y-136017303D01*
X168601986Y-136030171D01*
X168820986Y-136034789D01*
X168828997Y-136034795D01*
X168955001Y-136030584D01*
X169065931Y-136018301D01*
X169156896Y-135999847D01*
X169235232Y-135975153D01*
X169297403Y-135946780D01*
X169349098Y-135913684D01*
X169388555Y-135878415D01*
X169419159Y-135839555D01*
X169454297Y-135754471D01*
X169460365Y-135695199D01*
X169444835Y-135536540D01*
X169407975Y-135383277D01*
G37*
G36*
X164840365Y-133856979D02*
G01*
X165083777Y-133955714D01*
X164961127Y-134157856D01*
X164843455Y-134385044D01*
X164593997Y-134279995D01*
X164686416Y-134109155D01*
X164795933Y-133924512D01*
X164840365Y-133856979D01*
G37*
G36*
X164473903Y-133714854D02*
G01*
X164720271Y-133816813D01*
X164597122Y-134008483D01*
X164470813Y-134242919D01*
X164224446Y-134138005D01*
X164396851Y-133834858D01*
X164473903Y-133714854D01*
G37*
G36*
X166327975Y-133903190D02*
G01*
X166716065Y-134060763D01*
X166503163Y-134544028D01*
X166287943Y-134980948D01*
X166405610Y-135073951D01*
X166511949Y-135171683D01*
X166587317Y-135253710D01*
X166652990Y-135339710D01*
X166701338Y-135418000D01*
X166740820Y-135499891D01*
X166768485Y-135577938D01*
X166787636Y-135659421D01*
X166799217Y-135793129D01*
X166794973Y-135878675D01*
X166782456Y-135957740D01*
X166762677Y-136028550D01*
X166735691Y-136093598D01*
X166661610Y-136206755D01*
X166559364Y-136301435D01*
X166424942Y-136379533D01*
X166251945Y-136440525D01*
X166032380Y-136481771D01*
X165757318Y-136498984D01*
X165721325Y-136499186D01*
X165263942Y-136483489D01*
X164855512Y-136439111D01*
X164732629Y-136419123D01*
X164726450Y-135978375D01*
X165069761Y-136039032D01*
X165290326Y-136065260D01*
X165511536Y-136082734D01*
X165730459Y-136089468D01*
X165864635Y-136085186D01*
X165983206Y-136072406D01*
X166076317Y-136053780D01*
X166156820Y-136028460D01*
X166218182Y-136000170D01*
X166269409Y-135966623D01*
X166307252Y-135931522D01*
X166336660Y-135892138D01*
X166369362Y-135805122D01*
X166374186Y-135749873D01*
X166357532Y-135635469D01*
X166307210Y-135523631D01*
X166217921Y-135408064D01*
X166077978Y-135282298D01*
X165946065Y-135187822D01*
X165630676Y-135001901D01*
X165242506Y-134803699D01*
X165182244Y-134774074D01*
X164874217Y-134610456D01*
X165071419Y-134246009D01*
X165247365Y-134368211D01*
X165354728Y-134431255D01*
X165560760Y-134544919D01*
X165942975Y-134758626D01*
X166068095Y-134512483D01*
X166194792Y-134236761D01*
X166327975Y-133903190D01*
G37*
G36*
X163897881Y-134992635D02*
G01*
X163919508Y-135364470D01*
X163644854Y-135424924D01*
X163328038Y-135466161D01*
X163349665Y-135778621D01*
X163345421Y-135875005D01*
X163332905Y-135963838D01*
X163313263Y-136042642D01*
X163286497Y-136114687D01*
X163253565Y-136178999D01*
X163214325Y-136237065D01*
X163117447Y-136335475D01*
X162994219Y-136412332D01*
X162840999Y-136467563D01*
X162653238Y-136498686D01*
X162524186Y-136504022D01*
X162394724Y-136499779D01*
X162272148Y-136487275D01*
X162158242Y-136467174D01*
X162051572Y-136439682D01*
X161954213Y-136405843D01*
X161864324Y-136365507D01*
X161783963Y-136320121D01*
X161711206Y-136269110D01*
X161647771Y-136214190D01*
X161592013Y-136154449D01*
X161545097Y-136091583D01*
X161505942Y-136024602D01*
X161475148Y-135954810D01*
X161452285Y-135881499D01*
X161437597Y-135805276D01*
X161431148Y-135726035D01*
X161430845Y-135704334D01*
X161435166Y-135609614D01*
X161448219Y-135517943D01*
X161499050Y-135345112D01*
X161587273Y-135168692D01*
X161729603Y-134965096D01*
X162163903Y-135056981D01*
X162079889Y-135141706D01*
X162007990Y-135227429D01*
X161954227Y-135305225D01*
X161910928Y-135384008D01*
X161880705Y-135457229D01*
X161859846Y-135531421D01*
X161846607Y-135654899D01*
X161850888Y-135713361D01*
X161863660Y-135769366D01*
X161884444Y-135821747D01*
X161913264Y-135870956D01*
X161994858Y-135958501D01*
X162109840Y-136029655D01*
X162260382Y-136080356D01*
X162448203Y-136105169D01*
X162511961Y-136106663D01*
X162600296Y-136102381D01*
X162679402Y-136089600D01*
X162743654Y-136070534D01*
X162800047Y-136044506D01*
X162845503Y-136014023D01*
X162884021Y-135977612D01*
X162938818Y-135890202D01*
X162967199Y-135778678D01*
X162970845Y-135713603D01*
X162961890Y-135537806D01*
X162958486Y-135487654D01*
X162835302Y-135487654D01*
X162455439Y-135473349D01*
X162290177Y-135459981D01*
X162280908Y-135093654D01*
X162660391Y-135124732D01*
X162899917Y-135130461D01*
X162921544Y-135130461D01*
X162869154Y-134713893D01*
X162637380Y-134709831D01*
X162439660Y-134698596D01*
X162268549Y-134683130D01*
X162256325Y-134316400D01*
X162434988Y-134338348D01*
X162647632Y-134354200D01*
X162819854Y-134359789D01*
X162786002Y-134121213D01*
X162784116Y-134108892D01*
X162764353Y-133988022D01*
X162733612Y-133845426D01*
X163167912Y-133820575D01*
X163163664Y-133929452D01*
X163171002Y-134096361D01*
X163195719Y-134347431D01*
X163372008Y-134328443D01*
X163544944Y-134300944D01*
X163695274Y-134268585D01*
X163833266Y-134229620D01*
X163851670Y-134584664D01*
X163569313Y-134649314D01*
X163238840Y-134695489D01*
X163291096Y-135115147D01*
X163506087Y-135086722D01*
X163722367Y-135043322D01*
X163897881Y-134992635D01*
G37*
G36*
X160272404Y-133978890D02*
G01*
X160266576Y-134207858D01*
X160266576Y-134232441D01*
X160358997Y-134232441D01*
X160654837Y-134216600D01*
X160854822Y-134192410D01*
X160833329Y-134552827D01*
X160417086Y-134576589D01*
X160331190Y-134577410D01*
X160266576Y-134577410D01*
X160266576Y-134791269D01*
X160278934Y-134791269D01*
X160350096Y-134795498D01*
X160417768Y-134807911D01*
X160542431Y-134856155D01*
X160650775Y-134934040D01*
X160739619Y-135039810D01*
X160804797Y-135171056D01*
X160827117Y-135245297D01*
X160841746Y-135324063D01*
X160848643Y-135430831D01*
X160844460Y-135520489D01*
X160832369Y-135601495D01*
X160813284Y-135673405D01*
X160787795Y-135737271D01*
X160756453Y-135793490D01*
X160720016Y-135842049D01*
X160632397Y-135918481D01*
X160527330Y-135967110D01*
X160408268Y-135986139D01*
X160395939Y-135986300D01*
X160346639Y-135983211D01*
X160346639Y-136046347D01*
X160344739Y-136115730D01*
X160335744Y-136184282D01*
X160314707Y-136250176D01*
X160276680Y-136311587D01*
X160241103Y-136347727D01*
X160195223Y-136380798D01*
X160139421Y-136409588D01*
X160071421Y-136434571D01*
X159886433Y-136472315D01*
X159615256Y-136487993D01*
X159598266Y-136488036D01*
X159419488Y-136483687D01*
X159226551Y-136470438D01*
X159065700Y-136450678D01*
X158939386Y-136423259D01*
X158929822Y-136420198D01*
X158829982Y-136385617D01*
X158745570Y-136346849D01*
X158681577Y-136308061D01*
X158628190Y-136265485D01*
X158586333Y-136221228D01*
X158552453Y-136173215D01*
X158504489Y-136062227D01*
X158478020Y-135916464D01*
X158474029Y-135863116D01*
X158467570Y-135595993D01*
X158467849Y-135502028D01*
X158895970Y-135371993D01*
X158873205Y-135626618D01*
X158871387Y-135755247D01*
X158875762Y-135820438D01*
X158889191Y-135878756D01*
X158908739Y-135924087D01*
X158935882Y-135964003D01*
X159009229Y-136024543D01*
X159099217Y-136061258D01*
X159257373Y-136093909D01*
X159510140Y-136114398D01*
X159570459Y-136115260D01*
X159710656Y-136110965D01*
X159813566Y-136098093D01*
X159870870Y-136082389D01*
X159912094Y-136061643D01*
X159936523Y-136039926D01*
X159952701Y-136014540D01*
X159967042Y-135948198D01*
X159967818Y-135918462D01*
X159964728Y-135795278D01*
X159890865Y-135675931D01*
X159837730Y-135526494D01*
X159810254Y-135349308D01*
X159808313Y-135291393D01*
X160158840Y-135291393D01*
X160163268Y-135372885D01*
X160177069Y-135447763D01*
X160196323Y-135502839D01*
X160223097Y-135549151D01*
X160251019Y-135579296D01*
X160284565Y-135601210D01*
X160355908Y-135616614D01*
X160425360Y-135599791D01*
X160455861Y-135579182D01*
X160482122Y-135550813D01*
X160502948Y-135515237D01*
X160517491Y-135472554D01*
X160525302Y-135402890D01*
X160521133Y-135339616D01*
X160509145Y-135282352D01*
X160490127Y-135231744D01*
X160464853Y-135188379D01*
X160434894Y-135153633D01*
X160400437Y-135126955D01*
X160363821Y-135109479D01*
X160324368Y-135100468D01*
X160303517Y-135099296D01*
X160268611Y-135103532D01*
X160237579Y-135115992D01*
X160190094Y-135162681D01*
X160162784Y-135239821D01*
X160158840Y-135291393D01*
X159808313Y-135291393D01*
X159807692Y-135272855D01*
X159811961Y-135194929D01*
X159824649Y-135122193D01*
X159844501Y-135058135D01*
X159871736Y-135000117D01*
X159897024Y-134960798D01*
X159897024Y-134552827D01*
X159696932Y-134530608D01*
X159491052Y-134497462D01*
X159345719Y-134466585D01*
X159345719Y-134096899D01*
X159653225Y-134167916D01*
X159897024Y-134204769D01*
X159892969Y-134040862D01*
X159881781Y-133913934D01*
X159866127Y-133819500D01*
X160297338Y-133819500D01*
X160272404Y-133978890D01*
G37*
G36*
X159090082Y-134358849D02*
G01*
X158896966Y-134520545D01*
X158613519Y-134800316D01*
X158455625Y-134979202D01*
X158178360Y-134693877D01*
X158353649Y-134505430D01*
X158495849Y-134370597D01*
X158643269Y-134242727D01*
X158831356Y-134103078D01*
X159090082Y-134358849D01*
G37*
G36*
X157152724Y-133915548D02*
G01*
X157608517Y-133869203D01*
X157609229Y-133887306D01*
X157615430Y-134010744D01*
X157630145Y-134137870D01*
X157682075Y-134545615D01*
X157706203Y-134809563D01*
X157723160Y-135100246D01*
X157728612Y-135368769D01*
X157713229Y-135637918D01*
X157664867Y-135950026D01*
X157588427Y-136261122D01*
X157553038Y-136369017D01*
X157211159Y-136335165D01*
X157217338Y-136208488D01*
X157213054Y-136139362D01*
X157200263Y-136062446D01*
X157198934Y-136057228D01*
X157096938Y-135653397D01*
X156989508Y-135303886D01*
X157180396Y-135180433D01*
X157273365Y-135403728D01*
X157328298Y-135538566D01*
X157353901Y-135345440D01*
X157355701Y-135081336D01*
X157326598Y-134741078D01*
X157263797Y-134344722D01*
X157226607Y-134165543D01*
X157152724Y-133915548D01*
G37*
G36*
X156835428Y-134465107D02*
G01*
X156835428Y-134856286D01*
X156755808Y-134859632D01*
X156361096Y-134871735D01*
X156016127Y-134865555D01*
X156016127Y-134976649D01*
X156021113Y-135223055D01*
X156038817Y-135432914D01*
X156058946Y-135552089D01*
X156087211Y-135660487D01*
X156119011Y-135746749D01*
X156158417Y-135827414D01*
X156257305Y-135969891D01*
X156302661Y-136020152D01*
X156411565Y-136118142D01*
X156578028Y-136226145D01*
X156659854Y-136267192D01*
X156305751Y-136548083D01*
X156193913Y-136471928D01*
X156095132Y-136394037D01*
X156012724Y-136318177D01*
X155940671Y-136240127D01*
X155879574Y-136161400D01*
X155827081Y-136080001D01*
X155744427Y-135905612D01*
X155686709Y-135705337D01*
X155650782Y-135459848D01*
X155635184Y-135128417D01*
X155634217Y-134981082D01*
X155634217Y-134851450D01*
X155178423Y-134814509D01*
X155175334Y-134413926D01*
X155465640Y-134454788D01*
X155637307Y-134469540D01*
X155637307Y-134073793D01*
X155636768Y-134061857D01*
X155621993Y-133863427D01*
X156068517Y-133863427D01*
X156049325Y-133959727D01*
X156034665Y-134076883D01*
X156022307Y-134492914D01*
X156370365Y-134498959D01*
X156692330Y-134482670D01*
X156835428Y-134465107D01*
G37*
G36*
X153552853Y-133950475D02*
G01*
X153552853Y-134347968D01*
X153232467Y-134338699D01*
X152052884Y-134338699D01*
X151714095Y-134347968D01*
X151714095Y-133950475D01*
X151898347Y-133963591D01*
X152046705Y-133965923D01*
X153232467Y-133965923D01*
X153399612Y-133962834D01*
X153552853Y-133950475D01*
G37*
G36*
X151455368Y-134843928D02*
G01*
X151729409Y-134674533D01*
X151824523Y-134697343D01*
X151954283Y-134705295D01*
X153478835Y-134705295D01*
X153836162Y-134686892D01*
X153836162Y-135087340D01*
X153562865Y-135072864D01*
X153478835Y-135071892D01*
X151991225Y-135071892D01*
X152031752Y-135182945D01*
X152084578Y-135296643D01*
X152139600Y-135392399D01*
X152205478Y-135487140D01*
X152308521Y-135606136D01*
X152478554Y-135756203D01*
X152579055Y-135827394D01*
X152688395Y-135894208D01*
X152806973Y-135956436D01*
X152933794Y-136013072D01*
X153067651Y-136063246D01*
X153208952Y-136106751D01*
X153374189Y-136146560D01*
X153069252Y-136495559D01*
X152924365Y-136450157D01*
X152780399Y-136395415D01*
X152646579Y-136335002D01*
X152515159Y-136265617D01*
X152394064Y-136191628D01*
X152276434Y-136109066D01*
X152168614Y-136022544D01*
X152065044Y-135927805D01*
X151969732Y-135828458D01*
X151821390Y-135639663D01*
X151693658Y-135424568D01*
X151583549Y-135176468D01*
X151513804Y-134973291D01*
X151455368Y-134843928D01*
G37*
G36*
X150968678Y-135117028D02*
G01*
X150774700Y-135505117D01*
X150387878Y-135375120D01*
X149972530Y-135201472D01*
X149687404Y-135061548D01*
X149687404Y-136047153D01*
X149699720Y-136348985D01*
X149709032Y-136450557D01*
X149222342Y-136450557D01*
X149239864Y-136332936D01*
X149250014Y-136047153D01*
X149250014Y-134802822D01*
X148905913Y-134556074D01*
X148568250Y-134273167D01*
X148421579Y-134134512D01*
X148754189Y-133817216D01*
X148949904Y-134029188D01*
X149225934Y-134277563D01*
X149378151Y-134397399D01*
X149532337Y-134507167D01*
X149622790Y-134565723D01*
X149781350Y-134657677D01*
X149954155Y-134747472D01*
X150136920Y-134832385D01*
X150332893Y-134913428D01*
X150535314Y-134987474D01*
X150749742Y-135056234D01*
X150968678Y-135117028D01*
G37*
G36*
X147337373Y-133974521D02*
G01*
X147626862Y-134282548D01*
X147370952Y-134479916D01*
X147004344Y-134801498D01*
X146856862Y-134947902D01*
X146542790Y-134627516D01*
X146741888Y-134440201D01*
X147092068Y-134153421D01*
X147337373Y-133974521D01*
G37*
G36*
X147722373Y-136025794D02*
G01*
X147463647Y-136432422D01*
X147163682Y-136364926D01*
X146858865Y-136263047D01*
X146555730Y-136127890D01*
X146321005Y-135998122D01*
X146043150Y-135811268D01*
X145779821Y-135593888D01*
X145540792Y-135353215D01*
X145433696Y-135227440D01*
X145336157Y-135099682D01*
X145181454Y-134858570D01*
X145421642Y-134424270D01*
X145551716Y-134662109D01*
X145634593Y-134786363D01*
X145727709Y-134910303D01*
X145830652Y-135032792D01*
X145942976Y-135152649D01*
X146061217Y-135265964D01*
X146187580Y-135374594D01*
X146316063Y-135473400D01*
X146451298Y-135565954D01*
X146542790Y-135622391D01*
X146676514Y-135697193D01*
X146822220Y-135768193D01*
X146973052Y-135831695D01*
X147134261Y-135889574D01*
X147297218Y-135938537D01*
X147469015Y-135980555D01*
X147722373Y-136025794D01*
G37*
G36*
X144032499Y-136019481D02*
G01*
X144047699Y-136317884D01*
X144063261Y-136450557D01*
X143582884Y-136450557D01*
X143610557Y-136019481D01*
X143610557Y-135147790D01*
X143315732Y-135253646D01*
X142996559Y-135378954D01*
X142739240Y-135489990D01*
X142506313Y-135602684D01*
X142498678Y-135606674D01*
X142323104Y-135181642D01*
X142649915Y-135039475D01*
X143207423Y-134833032D01*
X143610557Y-134704221D01*
X143610557Y-134248427D01*
X143597582Y-134015746D01*
X143583059Y-133880413D01*
X143582884Y-133878875D01*
X144063261Y-133878875D01*
X144039182Y-134072189D01*
X144032499Y-134248427D01*
X144032499Y-136019481D01*
G37*
G36*
X141319095Y-136189413D02*
G01*
X141026382Y-136441960D01*
X140915574Y-136384928D01*
X140857894Y-136363461D01*
X140844763Y-136358807D01*
X140634786Y-136285747D01*
X140430608Y-136205253D01*
X140241575Y-136121347D01*
X140059092Y-136030561D01*
X139891828Y-135937589D01*
X139731600Y-135838288D01*
X139585997Y-135737769D01*
X139447719Y-135631436D01*
X139323060Y-135524551D01*
X139205882Y-135412314D01*
X139058395Y-135250018D01*
X139277090Y-134902094D01*
X139462511Y-135102199D01*
X139696537Y-135305662D01*
X139975403Y-135504230D01*
X140286235Y-135685202D01*
X140446896Y-135764350D01*
X140604229Y-135832489D01*
X140860077Y-135921551D01*
X140860077Y-134319892D01*
X140844780Y-134080280D01*
X140829315Y-133968879D01*
X141312916Y-133968879D01*
X141284761Y-134182557D01*
X141279064Y-134319892D01*
X141279064Y-135989256D01*
X141285176Y-136087017D01*
X141319095Y-136189413D01*
G37*
G36*
X138556256Y-134890541D02*
G01*
X138556256Y-135374142D01*
X138060431Y-135358694D01*
X136406516Y-135358694D01*
X136128433Y-135369658D01*
X136046099Y-135374142D01*
X136046099Y-134890541D01*
X136076708Y-134892958D01*
X136224319Y-134903460D01*
X136406516Y-134909079D01*
X138060431Y-134909079D01*
X138471352Y-134896392D01*
X138556256Y-134890541D01*
G37*
G36*
X135643367Y-134444823D02*
G01*
X135643367Y-134863809D01*
X135310623Y-134851450D01*
X135048941Y-134851450D01*
X135048941Y-135271108D01*
X135061663Y-135548939D01*
X135067345Y-135594987D01*
X134636134Y-135594987D01*
X134638580Y-135551099D01*
X134648493Y-135271108D01*
X134648493Y-134851450D01*
X133918524Y-134851450D01*
X133918524Y-134968724D01*
X133922852Y-135129213D01*
X133935948Y-135274553D01*
X133955341Y-135393112D01*
X133982080Y-135501056D01*
X134013617Y-135592509D01*
X134051704Y-135676076D01*
X134094715Y-135749746D01*
X134143997Y-135817209D01*
X134262457Y-135936326D01*
X134415717Y-136041912D01*
X134620047Y-136141130D01*
X134774767Y-136199622D01*
X134445246Y-136511276D01*
X134309820Y-136446905D01*
X134187443Y-136378894D01*
X134083968Y-136311549D01*
X133990988Y-136240571D01*
X133911227Y-136168895D01*
X133840252Y-136093504D01*
X133778574Y-136015508D01*
X133724591Y-135933564D01*
X133637125Y-135754673D01*
X133574045Y-135547944D01*
X133534106Y-135300002D01*
X133518346Y-134988757D01*
X133518210Y-134953275D01*
X133518210Y-134851450D01*
X133290246Y-134851450D01*
X132951457Y-134860719D01*
X132951457Y-134451002D01*
X133048953Y-134464340D01*
X133171648Y-134471199D01*
X133290246Y-134472630D01*
X133518210Y-134472630D01*
X133518210Y-134147945D01*
X133506871Y-133931229D01*
X133502170Y-133884695D01*
X133499672Y-133860337D01*
X133937062Y-133860337D01*
X133924491Y-133978562D01*
X133918532Y-134141833D01*
X133918524Y-134147945D01*
X133918524Y-134472630D01*
X134648493Y-134472630D01*
X134648493Y-134166483D01*
X134635805Y-133931238D01*
X134629955Y-133888279D01*
X135067345Y-133888279D01*
X135054667Y-134028540D01*
X135048941Y-134166483D01*
X135048941Y-134472630D01*
X135310623Y-134472630D01*
X135533934Y-134460215D01*
X135643367Y-134444823D01*
G37*
G36*
X132458587Y-134890541D02*
G01*
X132458587Y-135374142D01*
X131962762Y-135358694D01*
X130308847Y-135358694D01*
X130030764Y-135369658D01*
X129948430Y-135374142D01*
X129948430Y-134890541D01*
X129979039Y-134892958D01*
X130126650Y-134903460D01*
X130308847Y-134909079D01*
X131962762Y-134909079D01*
X132373683Y-134896392D01*
X132458587Y-134890541D01*
G37*
%TO.C,PS2*%
D13*
X145650000Y-52250000D02*
X145650000Y-56250000D01*
X145650000Y-56250000D02*
X154350000Y-56250000D01*
X146150000Y-51750000D02*
X145650000Y-52250000D01*
X154350000Y-51750000D02*
X146150000Y-51750000D01*
X154350000Y-56250000D02*
X154350000Y-51750000D01*
D14*
X146920000Y-54000000D02*
G75*
G02*
X146080000Y-54000000I-420000J0D01*
G01*
X146080000Y-54000000D02*
G75*
G02*
X146920000Y-54000000I420000J0D01*
G01*
D15*
X153750000Y-54000000D02*
G75*
G02*
X153250000Y-54000000I-250000J0D01*
G01*
X153250000Y-54000000D02*
G75*
G02*
X153750000Y-54000000I250000J0D01*
G01*
D16*
X145350000Y-51450000D02*
X144150000Y-51450000D01*
X145350000Y-52650000D01*
X145350000Y-51450000D01*
G36*
X145350000Y-52650000D02*
G01*
X144150000Y-51450000D01*
X145350000Y-51450000D01*
X145350000Y-52650000D01*
G37*
%TO.C,PS3*%
D13*
X157650000Y-52250000D02*
X157650000Y-56250000D01*
X157650000Y-56250000D02*
X166350000Y-56250000D01*
X158150000Y-51750000D02*
X157650000Y-52250000D01*
X166350000Y-51750000D02*
X158150000Y-51750000D01*
X166350000Y-56250000D02*
X166350000Y-51750000D01*
D14*
X158920000Y-54000000D02*
G75*
G02*
X158080000Y-54000000I-420000J0D01*
G01*
X158080000Y-54000000D02*
G75*
G02*
X158920000Y-54000000I420000J0D01*
G01*
D15*
X165750000Y-54000000D02*
G75*
G02*
X165250000Y-54000000I-250000J0D01*
G01*
X165250000Y-54000000D02*
G75*
G02*
X165750000Y-54000000I250000J0D01*
G01*
D16*
X157350000Y-51450000D02*
X156150000Y-51450000D01*
X157350000Y-52650000D01*
X157350000Y-51450000D01*
G36*
X157350000Y-52650000D02*
G01*
X156150000Y-51450000D01*
X157350000Y-51450000D01*
X157350000Y-52650000D01*
G37*
%TO.C,PS1*%
D13*
X133650000Y-52250000D02*
X133650000Y-56250000D01*
X133650000Y-56250000D02*
X142350000Y-56250000D01*
X134150000Y-51750000D02*
X133650000Y-52250000D01*
X142350000Y-51750000D02*
X134150000Y-51750000D01*
X142350000Y-56250000D02*
X142350000Y-51750000D01*
D14*
X134920000Y-54000000D02*
G75*
G02*
X134080000Y-54000000I-420000J0D01*
G01*
X134080000Y-54000000D02*
G75*
G02*
X134920000Y-54000000I420000J0D01*
G01*
D15*
X141750000Y-54000000D02*
G75*
G02*
X141250000Y-54000000I-250000J0D01*
G01*
X141250000Y-54000000D02*
G75*
G02*
X141750000Y-54000000I250000J0D01*
G01*
D16*
X133350000Y-51450000D02*
X132150000Y-51450000D01*
X133350000Y-52650000D01*
X133350000Y-51450000D01*
G36*
X133350000Y-52650000D02*
G01*
X132150000Y-51450000D01*
X133350000Y-51450000D01*
X133350000Y-52650000D01*
G37*
%TD*%
M02*
