M48
; DRILL file KiCad 10.0.6 date 2026-10-09T02:43:07
; FORMAT={-:-/ absolute / metric / decimal}
; #@! TF.CreationDate,2026-10-09T02:43:07+09:00
; #@! TF.GenerationSoftware,Kicad,Pcbnew,10.0.6
; #@! TF.FileFunction,Plated,1,2,PTH
FMAT,2
METRIC
; #@! TA.AperFunction,Plated,PTH,ComponentDrill
T1C0.800
; #@! TA.AperFunction,Plated,PTH,ComponentDrill
T2C0.900
; #@! TA.AperFunction,Plated,PTH,ComponentDrill
T3C1.000
; #@! TA.AperFunction,Plated,PTH,ComponentDrill
T4C1.100
%
G90
G05
T1
X125.58Y-53.2
X125.58Y-58.0
X125.58Y-68.16
X125.58Y-74.5
X125.58Y-84.66
X128.12Y-53.2
X130.66Y-53.2
X132.0Y-58.0
X132.0Y-68.16
X132.5Y-74.5
X132.5Y-84.66
X138.0Y-58.0
X138.0Y-68.16
X143.29Y-108.35
X144.0Y-58.0
X144.0Y-68.16
X145.79Y-108.35
X154.25Y-108.35
X156.0Y-58.0
X156.0Y-68.16
X156.75Y-108.35
X162.0Y-58.0
X162.0Y-68.16
X164.8Y-100.75
X164.8Y-104.25
X168.0Y-58.0
X168.0Y-68.16
X172.85Y-95.25
X176.35Y-95.25
T2
X119.85Y-53.965
X119.85Y-56.505
X119.85Y-60.965
X119.85Y-63.505
X119.85Y-67.965
X119.85Y-70.505
X121.65Y-52.695
X121.65Y-55.235
X121.65Y-59.695
X121.65Y-62.235
X121.65Y-66.695
X121.65Y-69.235
X135.95Y-52.73
X135.95Y-55.27
X140.05Y-52.73
X140.05Y-55.27
X147.95Y-52.73
X147.95Y-55.27
X152.05Y-52.73
X152.05Y-55.27
X159.95Y-52.73
X159.95Y-55.27
X164.05Y-52.73
X164.05Y-55.27
X178.35Y-53.965
X178.35Y-56.505
X178.35Y-60.965
X178.35Y-63.505
X178.35Y-67.965
X178.35Y-70.505
X180.15Y-52.695
X180.15Y-55.235
X180.15Y-59.695
X180.15Y-62.235
X180.15Y-66.695
X180.15Y-69.235
T3
X132.5Y-97.5
X132.5Y-102.5
X141.11Y-97.79
X141.11Y-105.41
X143.65Y-97.79
X143.65Y-105.41
X146.19Y-97.79
X146.19Y-105.41
X148.73Y-97.79
X148.73Y-105.41
X151.27Y-97.79
X151.27Y-105.41
X153.81Y-97.79
X153.81Y-105.41
X156.35Y-97.79
X156.35Y-105.41
X158.89Y-97.79
X158.89Y-105.41
X163.43Y-73.38
X163.43Y-88.62
X165.97Y-73.38
X165.97Y-88.62
X168.51Y-73.38
X168.51Y-88.62
X171.05Y-73.38
X171.05Y-88.62
X172.8Y-103.0
X173.59Y-73.38
X173.59Y-88.62
X175.3Y-103.0
X176.13Y-73.38
X176.13Y-88.62
X178.67Y-73.38
X178.67Y-88.62
T4
X119.08Y-87.4
X119.08Y-91.9
X125.58Y-87.4
X125.58Y-91.9
X140.5Y-111.5
X145.58Y-111.5
X154.42Y-111.5
X159.5Y-111.5
X180.6Y-95.25
X180.6Y-105.41
M30
