%TF.GenerationSoftware,KiCad,Pcbnew,10.0.6*%
%TF.CreationDate,2026-10-05T21:20:23+09:00*%
%TF.ProjectId,Linetracer2-Lite,4c696e65-7472-4616-9365-72322d4c6974,rev?*%
%TF.SameCoordinates,Original*%
%TF.FileFunction,Soldermask,Bot*%
%TF.FilePolarity,Negative*%
%FSLAX46Y46*%
G04 Gerber Fmt 4.6, Leading zero omitted, Abs format (unit mm)*
G04 Created by KiCad (PCBNEW 10.0.6) date 2026-10-05 21:20:23*
%MOMM*%
%LPD*%
G01*
G04 APERTURE LIST*
G04 Aperture macros list*
%AMRoundRect*
0 Rectangle with rounded corners*
0 $1 Rounding radius*
0 $2 $3 $4 $5 $6 $7 $8 $9 X,Y pos of 4 corners*
0 Add a 4 corners polygon primitive as box body*
4,1,4,$2,$3,$4,$5,$6,$7,$8,$9,$2,$3,0*
0 Add four circle primitives for the rounded corners*
1,1,$1+$1,$2,$3*
1,1,$1+$1,$4,$5*
1,1,$1+$1,$6,$7*
1,1,$1+$1,$8,$9*
0 Add four rect primitives between the rounded corners*
20,1,$1+$1,$2,$3,$4,$5,0*
20,1,$1+$1,$4,$5,$6,$7,0*
20,1,$1+$1,$6,$7,$8,$9,0*
20,1,$1+$1,$8,$9,$2,$3,0*%
G04 Aperture macros list end*
%ADD10C,3.200000*%
%ADD11C,1.600000*%
%ADD12C,2.000000*%
%ADD13R,1.500000X1.500000*%
%ADD14C,1.500000*%
%ADD15C,1.700000*%
%ADD16R,2.300000X2.300000*%
%ADD17C,2.300000*%
%ADD18R,1.800000X1.800000*%
%ADD19C,1.800000*%
%ADD20RoundRect,0.250000X-0.550000X-0.550000X0.550000X-0.550000X0.550000X0.550000X-0.550000X0.550000X0*%
%ADD21R,1.800000X2.200000*%
%ADD22O,1.800000X2.200000*%
%ADD23RoundRect,0.249999X0.850001X0.850001X-0.850001X0.850001X-0.850001X-0.850001X0.850001X-0.850001X0*%
%ADD24C,2.200000*%
%ADD25RoundRect,0.425000X-0.425000X1.575000X-0.425000X-1.575000X0.425000X-1.575000X0.425000X1.575000X0*%
%ADD26O,1.700000X4.000000*%
%ADD27R,1.600000X1.600000*%
G04 APERTURE END LIST*
D10*
%TO.C,H4*%
X170000000Y-146000000D03*
%TD*%
D11*
%TO.C,R7*%
X126000000Y-68160000D03*
X126000000Y-58000000D03*
%TD*%
D12*
%TO.C,SW1*%
X120000000Y-74500000D03*
X126500000Y-74500000D03*
X120000000Y-79000000D03*
X126500000Y-79000000D03*
%TD*%
D13*
%TO.C,Q1*%
X120500000Y-54500000D03*
D14*
X123040000Y-54500000D03*
X125580000Y-54500000D03*
%TD*%
D11*
%TO.C,R5*%
X156000000Y-68160000D03*
X156000000Y-58000000D03*
%TD*%
D10*
%TO.C,H1*%
X130000000Y-112000000D03*
%TD*%
D15*
%TO.C,M2*%
X159500000Y-114900000D03*
X154420000Y-114900000D03*
D16*
X159500000Y-111500000D03*
D17*
X154420000Y-111500000D03*
%TD*%
D11*
%TO.C,R4*%
X138000000Y-68160000D03*
X138000000Y-58000000D03*
%TD*%
%TO.C,R2*%
X144000000Y-68160000D03*
X144000000Y-58000000D03*
%TD*%
%TO.C,R1*%
X132000000Y-68160000D03*
X132000000Y-58000000D03*
%TD*%
D18*
%TO.C,U2*%
X146890000Y-96190000D03*
D19*
X144350000Y-96190000D03*
X141810000Y-96190000D03*
X139270000Y-96190000D03*
X136730000Y-96190000D03*
X134190000Y-96190000D03*
X131650000Y-96190000D03*
X129110000Y-96190000D03*
X129110000Y-103810000D03*
X131650000Y-103810000D03*
X134190000Y-103810000D03*
X136730000Y-103810000D03*
X139270000Y-103810000D03*
X141810000Y-103810000D03*
X144350000Y-103810000D03*
X146890000Y-103810000D03*
%TD*%
D20*
%TO.C,C1*%
X151500000Y-101000000D03*
D11*
X155000000Y-101000000D03*
%TD*%
D21*
%TO.C,J1*%
X162500000Y-101500000D03*
D22*
X165000000Y-101500000D03*
%TD*%
D11*
%TO.C,C4*%
X155710000Y-107500000D03*
X158210000Y-107500000D03*
%TD*%
D18*
%TO.C,D2*%
X154500000Y-92500000D03*
D19*
X154500000Y-89960000D03*
%TD*%
D11*
%TO.C,C3*%
X141790000Y-107500000D03*
X144290000Y-107500000D03*
%TD*%
D10*
%TO.C,H3*%
X170000000Y-112000000D03*
%TD*%
D23*
%TO.C,D1*%
X180800000Y-98000000D03*
D24*
X170640000Y-98000000D03*
%TD*%
D11*
%TO.C,R8*%
X154500000Y-77500000D03*
X154500000Y-87660000D03*
%TD*%
%TO.C,R3*%
X162000000Y-68160000D03*
X162000000Y-58000000D03*
%TD*%
D15*
%TO.C,M1*%
X145580000Y-114900000D03*
X140500000Y-114900000D03*
D16*
X145580000Y-111500000D03*
D17*
X140500000Y-111500000D03*
%TD*%
D20*
%TO.C,C2*%
X121000000Y-94500000D03*
D11*
X124500000Y-94500000D03*
%TD*%
%TO.C,R6*%
X168000000Y-68160000D03*
X168000000Y-58000000D03*
%TD*%
D19*
%TO.C,U1*%
X180530000Y-80700000D03*
X176330000Y-80700000D03*
X180530000Y-89300000D03*
X176330000Y-89300000D03*
D25*
X178670000Y-76180000D03*
D26*
X176130000Y-76180000D03*
X173590000Y-76180000D03*
X171050000Y-76180000D03*
X168510000Y-76180000D03*
X165970000Y-76180000D03*
X163430000Y-76180000D03*
X163430000Y-93820000D03*
X165970000Y-93820000D03*
X168510000Y-93820000D03*
X171050000Y-93820000D03*
X173590000Y-93820000D03*
X176130000Y-93820000D03*
X178670000Y-93820000D03*
%TD*%
D10*
%TO.C,H2*%
X130000000Y-146000000D03*
%TD*%
%TO.C,H5*%
X150000000Y-61000000D03*
%TD*%
D27*
%TO.C,PS1*%
X135950000Y-52730000D03*
D11*
X135950000Y-55270000D03*
X140050000Y-52730000D03*
X140050000Y-55270000D03*
%TD*%
D27*
%TO.C,PS3*%
X159950000Y-52730000D03*
D11*
X159950000Y-55270000D03*
X164050000Y-52730000D03*
X164050000Y-55270000D03*
%TD*%
D27*
%TO.C,PS2*%
X147950000Y-52730000D03*
D11*
X147950000Y-55270000D03*
X152050000Y-52730000D03*
X152050000Y-55270000D03*
%TD*%
M02*
