M48
; DRILL file KiCad 10.0.6 date 2026-10-07T15:57:34
; FORMAT={-:-/ absolute / metric / decimal}
; #@! TF.CreationDate,2026-10-07T15:57:34+09:00
; #@! TF.GenerationSoftware,Kicad,Pcbnew,10.0.6
; #@! TF.FileFunction,Plated,1,2,PTH
FMAT,2
METRIC
; #@! TA.AperFunction,Plated,PTH,ComponentDrill
T1C0.800
; #@! TA.AperFunction,Plated,PTH,ComponentDrill
T2C0.900
; #@! TA.AperFunction,Plated,PTH,ComponentDrill
T3C1.000
; #@! TA.AperFunction,Plated,PTH,ComponentDrill
T4C1.100
%
G90
G05
T1
X120.5Y-54.5
X123.04Y-54.5
X125.58Y-54.5
X125.58Y-58.0
X125.58Y-68.16
X131.0Y-74.5
X131.0Y-84.66
X132.0Y-58.0
X132.0Y-68.16
X138.0Y-58.0
X138.0Y-68.16
X140.0Y-74.5
X140.0Y-84.66
X143.29Y-108.35
X144.0Y-58.0
X144.0Y-68.16
X145.79Y-108.35
X154.25Y-108.35
X156.0Y-58.0
X156.0Y-68.16
X156.75Y-108.35
X162.0Y-58.0
X162.0Y-68.16
X164.8Y-100.75
X164.8Y-104.25
X168.0Y-58.0
X168.0Y-68.16
X172.85Y-95.25
X176.35Y-95.25
T2
X135.95Y-52.73
X135.95Y-55.27
X140.0Y-87.2
X140.0Y-89.74
X140.05Y-52.73
X140.05Y-55.27
X147.95Y-52.73
X147.95Y-55.27
X152.05Y-52.73
X152.05Y-55.27
X159.95Y-52.73
X159.95Y-55.27
X164.05Y-52.73
X164.05Y-55.27
T3
X131.0Y-91.0
X131.0Y-96.0
X141.11Y-97.79
X141.11Y-105.41
X143.65Y-97.79
X143.65Y-105.41
X146.19Y-97.79
X146.19Y-105.41
X148.73Y-97.79
X148.73Y-105.41
X151.27Y-97.79
X151.27Y-105.41
X153.81Y-97.79
X153.81Y-105.41
X156.35Y-97.79
X156.35Y-105.41
X158.89Y-97.79
X158.89Y-105.41
X163.43Y-73.38
X163.43Y-88.62
X165.97Y-73.38
X165.97Y-88.62
X168.51Y-73.38
X168.51Y-88.62
X171.05Y-73.38
X171.05Y-88.62
X172.8Y-103.0
X173.59Y-73.38
X173.59Y-88.62
X175.3Y-103.0
X176.13Y-73.38
X176.13Y-88.62
X178.67Y-73.38
X178.67Y-88.62
T4
X119.5Y-73.5
X119.5Y-78.0
X126.0Y-73.5
X126.0Y-78.0
X140.5Y-111.5
X145.58Y-111.5
X154.42Y-111.5
X159.5Y-111.5
X180.6Y-95.25
X180.6Y-105.41
M30
