%TF.GenerationSoftware,KiCad,Pcbnew,10.0.6*%
%TF.CreationDate,2026-10-05T21:20:23+09:00*%
%TF.ProjectId,Linetracer2-Lite,4c696e65-7472-4616-9365-72322d4c6974,rev?*%
%TF.SameCoordinates,Original*%
%TF.FileFunction,Legend,Top*%
%TF.FilePolarity,Positive*%
%FSLAX46Y46*%
G04 Gerber Fmt 4.6, Leading zero omitted, Abs format (unit mm)*
G04 Created by KiCad (PCBNEW 10.0.6) date 2026-10-05 21:20:23*
%MOMM*%
%LPD*%
G01*
G04 APERTURE LIST*
%ADD10C,0.150000*%
%ADD11C,0.120000*%
%ADD12C,0.180000*%
%ADD13C,0.210000*%
%ADD14C,0.300000*%
%ADD15C,0.250000*%
G04 APERTURE END LIST*
D10*
X121450000Y-61600000D02*
G75*
G02*
X119150000Y-61600000I-1150000J0D01*
G01*
X119150000Y-61600000D02*
G75*
G02*
X121450000Y-61600000I1150000J0D01*
G01*
D11*
X120500000Y-115950000D02*
X149000000Y-115950000D01*
X120500000Y-136050000D02*
X120500000Y-115950000D01*
D10*
X129750000Y-91600000D02*
G75*
G02*
X127450000Y-91600000I-1150000J0D01*
G01*
X127450000Y-91600000D02*
G75*
G02*
X129750000Y-91600000I1150000J0D01*
G01*
X131150000Y-73600000D02*
G75*
G02*
X128850000Y-73600000I-1150000J0D01*
G01*
X128850000Y-73600000D02*
G75*
G02*
X131150000Y-73600000I1150000J0D01*
G01*
X131550000Y-101400000D02*
G75*
G02*
X129250000Y-101400000I-1150000J0D01*
G01*
X129250000Y-101400000D02*
G75*
G02*
X131550000Y-101400000I1150000J0D01*
G01*
X144900000Y-88560000D02*
X148100000Y-88560000D01*
X145100000Y-86560000D02*
X145100000Y-88560000D01*
X145100000Y-86560000D02*
G75*
G02*
X147900000Y-86560000I1400000J0D01*
G01*
X145900000Y-88560000D02*
X145900000Y-91960000D01*
X147100000Y-88560000D02*
X147100000Y-90460000D01*
X148850000Y-107500000D02*
G75*
G02*
X146550000Y-107500000I-1150000J0D01*
G01*
X146550000Y-107500000D02*
G75*
G02*
X148850000Y-107500000I1150000J0D01*
G01*
X147900000Y-86560000D02*
X147900000Y-88560000D01*
D11*
X149000000Y-115950000D02*
X149000000Y-136050000D01*
X149000000Y-136050000D02*
X120500000Y-136050000D01*
D10*
X151150000Y-75400000D02*
G75*
G02*
X148850000Y-75400000I-1150000J0D01*
G01*
X148850000Y-75400000D02*
G75*
G02*
X151150000Y-75400000I1150000J0D01*
G01*
X151150000Y-111500000D02*
G75*
G02*
X148850000Y-111500000I-1150000J0D01*
G01*
X148850000Y-111500000D02*
G75*
G02*
X151150000Y-111500000I1150000J0D01*
G01*
X152150000Y-83560000D02*
G75*
G02*
X149850000Y-83560000I-1150000J0D01*
G01*
X149850000Y-83560000D02*
G75*
G02*
X152150000Y-83560000I1150000J0D01*
G01*
D11*
X151000000Y-115950000D02*
X179500000Y-115950000D01*
X151000000Y-136050000D02*
X151000000Y-115950000D01*
D10*
X159950000Y-96700000D02*
G75*
G02*
X157650000Y-96700000I-1150000J0D01*
G01*
X157650000Y-96700000D02*
G75*
G02*
X159950000Y-96700000I1150000J0D01*
G01*
X163550000Y-81200000D02*
G75*
G02*
X161250000Y-81200000I-1150000J0D01*
G01*
X161250000Y-81200000D02*
G75*
G02*
X163550000Y-81200000I1150000J0D01*
G01*
X164900000Y-97600000D02*
G75*
G02*
X162600000Y-97600000I-1150000J0D01*
G01*
X162600000Y-97600000D02*
G75*
G02*
X164900000Y-97600000I1150000J0D01*
G01*
X176850000Y-101400000D02*
G75*
G02*
X174550000Y-101400000I-1150000J0D01*
G01*
X174550000Y-101400000D02*
G75*
G02*
X176850000Y-101400000I1150000J0D01*
G01*
D11*
X179500000Y-115950000D02*
X179500000Y-136050000D01*
X179500000Y-136050000D02*
X151000000Y-136050000D01*
D10*
X132400000Y-86162295D02*
X132400000Y-85628961D01*
X132400000Y-85781342D02*
X132438095Y-85705152D01*
X132438095Y-85705152D02*
X132476190Y-85667057D01*
X132476190Y-85667057D02*
X132552381Y-85628961D01*
X132552381Y-85628961D02*
X132628571Y-85628961D01*
X133200000Y-86124200D02*
X133123809Y-86162295D01*
X133123809Y-86162295D02*
X132971428Y-86162295D01*
X132971428Y-86162295D02*
X132895238Y-86124200D01*
X132895238Y-86124200D02*
X132857142Y-86048009D01*
X132857142Y-86048009D02*
X132857142Y-85743247D01*
X132857142Y-85743247D02*
X132895238Y-85667057D01*
X132895238Y-85667057D02*
X132971428Y-85628961D01*
X132971428Y-85628961D02*
X133123809Y-85628961D01*
X133123809Y-85628961D02*
X133200000Y-85667057D01*
X133200000Y-85667057D02*
X133238095Y-85743247D01*
X133238095Y-85743247D02*
X133238095Y-85819438D01*
X133238095Y-85819438D02*
X132857142Y-85895628D01*
X133504761Y-85628961D02*
X133695237Y-86162295D01*
X133695237Y-86162295D02*
X133885714Y-85628961D01*
X134190476Y-86086104D02*
X134228571Y-86124200D01*
X134228571Y-86124200D02*
X134190476Y-86162295D01*
X134190476Y-86162295D02*
X134152380Y-86124200D01*
X134152380Y-86124200D02*
X134190476Y-86086104D01*
X134190476Y-86086104D02*
X134190476Y-86162295D01*
X134952380Y-86162295D02*
X134571428Y-86162295D01*
X134571428Y-86162295D02*
X134571428Y-85362295D01*
X135180951Y-85438485D02*
X135219047Y-85400390D01*
X135219047Y-85400390D02*
X135295237Y-85362295D01*
X135295237Y-85362295D02*
X135485713Y-85362295D01*
X135485713Y-85362295D02*
X135561904Y-85400390D01*
X135561904Y-85400390D02*
X135599999Y-85438485D01*
X135599999Y-85438485D02*
X135638094Y-85514676D01*
X135638094Y-85514676D02*
X135638094Y-85590866D01*
X135638094Y-85590866D02*
X135599999Y-85705152D01*
X135599999Y-85705152D02*
X135142856Y-86162295D01*
X135142856Y-86162295D02*
X135638094Y-86162295D01*
X137390475Y-56924200D02*
X137504761Y-56962295D01*
X137504761Y-56962295D02*
X137695237Y-56962295D01*
X137695237Y-56962295D02*
X137771428Y-56924200D01*
X137771428Y-56924200D02*
X137809523Y-56886104D01*
X137809523Y-56886104D02*
X137847618Y-56809914D01*
X137847618Y-56809914D02*
X137847618Y-56733723D01*
X137847618Y-56733723D02*
X137809523Y-56657533D01*
X137809523Y-56657533D02*
X137771428Y-56619438D01*
X137771428Y-56619438D02*
X137695237Y-56581342D01*
X137695237Y-56581342D02*
X137542856Y-56543247D01*
X137542856Y-56543247D02*
X137466666Y-56505152D01*
X137466666Y-56505152D02*
X137428571Y-56467057D01*
X137428571Y-56467057D02*
X137390475Y-56390866D01*
X137390475Y-56390866D02*
X137390475Y-56314676D01*
X137390475Y-56314676D02*
X137428571Y-56238485D01*
X137428571Y-56238485D02*
X137466666Y-56200390D01*
X137466666Y-56200390D02*
X137542856Y-56162295D01*
X137542856Y-56162295D02*
X137733333Y-56162295D01*
X137733333Y-56162295D02*
X137847618Y-56200390D01*
X138609523Y-56962295D02*
X138152380Y-56962295D01*
X138380952Y-56962295D02*
X138380952Y-56162295D01*
X138380952Y-56162295D02*
X138304761Y-56276580D01*
X138304761Y-56276580D02*
X138228571Y-56352771D01*
X138228571Y-56352771D02*
X138152380Y-56390866D01*
X149390475Y-56924200D02*
X149504761Y-56962295D01*
X149504761Y-56962295D02*
X149695237Y-56962295D01*
X149695237Y-56962295D02*
X149771428Y-56924200D01*
X149771428Y-56924200D02*
X149809523Y-56886104D01*
X149809523Y-56886104D02*
X149847618Y-56809914D01*
X149847618Y-56809914D02*
X149847618Y-56733723D01*
X149847618Y-56733723D02*
X149809523Y-56657533D01*
X149809523Y-56657533D02*
X149771428Y-56619438D01*
X149771428Y-56619438D02*
X149695237Y-56581342D01*
X149695237Y-56581342D02*
X149542856Y-56543247D01*
X149542856Y-56543247D02*
X149466666Y-56505152D01*
X149466666Y-56505152D02*
X149428571Y-56467057D01*
X149428571Y-56467057D02*
X149390475Y-56390866D01*
X149390475Y-56390866D02*
X149390475Y-56314676D01*
X149390475Y-56314676D02*
X149428571Y-56238485D01*
X149428571Y-56238485D02*
X149466666Y-56200390D01*
X149466666Y-56200390D02*
X149542856Y-56162295D01*
X149542856Y-56162295D02*
X149733333Y-56162295D01*
X149733333Y-56162295D02*
X149847618Y-56200390D01*
X150152380Y-56238485D02*
X150190476Y-56200390D01*
X150190476Y-56200390D02*
X150266666Y-56162295D01*
X150266666Y-56162295D02*
X150457142Y-56162295D01*
X150457142Y-56162295D02*
X150533333Y-56200390D01*
X150533333Y-56200390D02*
X150571428Y-56238485D01*
X150571428Y-56238485D02*
X150609523Y-56314676D01*
X150609523Y-56314676D02*
X150609523Y-56390866D01*
X150609523Y-56390866D02*
X150571428Y-56505152D01*
X150571428Y-56505152D02*
X150114285Y-56962295D01*
X150114285Y-56962295D02*
X150609523Y-56962295D01*
X161390475Y-56924200D02*
X161504761Y-56962295D01*
X161504761Y-56962295D02*
X161695237Y-56962295D01*
X161695237Y-56962295D02*
X161771428Y-56924200D01*
X161771428Y-56924200D02*
X161809523Y-56886104D01*
X161809523Y-56886104D02*
X161847618Y-56809914D01*
X161847618Y-56809914D02*
X161847618Y-56733723D01*
X161847618Y-56733723D02*
X161809523Y-56657533D01*
X161809523Y-56657533D02*
X161771428Y-56619438D01*
X161771428Y-56619438D02*
X161695237Y-56581342D01*
X161695237Y-56581342D02*
X161542856Y-56543247D01*
X161542856Y-56543247D02*
X161466666Y-56505152D01*
X161466666Y-56505152D02*
X161428571Y-56467057D01*
X161428571Y-56467057D02*
X161390475Y-56390866D01*
X161390475Y-56390866D02*
X161390475Y-56314676D01*
X161390475Y-56314676D02*
X161428571Y-56238485D01*
X161428571Y-56238485D02*
X161466666Y-56200390D01*
X161466666Y-56200390D02*
X161542856Y-56162295D01*
X161542856Y-56162295D02*
X161733333Y-56162295D01*
X161733333Y-56162295D02*
X161847618Y-56200390D01*
X162114285Y-56162295D02*
X162609523Y-56162295D01*
X162609523Y-56162295D02*
X162342857Y-56467057D01*
X162342857Y-56467057D02*
X162457142Y-56467057D01*
X162457142Y-56467057D02*
X162533333Y-56505152D01*
X162533333Y-56505152D02*
X162571428Y-56543247D01*
X162571428Y-56543247D02*
X162609523Y-56619438D01*
X162609523Y-56619438D02*
X162609523Y-56809914D01*
X162609523Y-56809914D02*
X162571428Y-56886104D01*
X162571428Y-56886104D02*
X162533333Y-56924200D01*
X162533333Y-56924200D02*
X162457142Y-56962295D01*
X162457142Y-56962295D02*
X162228571Y-56962295D01*
X162228571Y-56962295D02*
X162152380Y-56924200D01*
X162152380Y-56924200D02*
X162114285Y-56886104D01*
X149828571Y-111908557D02*
X149314285Y-111908557D01*
X149571428Y-111908557D02*
X149571428Y-111008557D01*
X149571428Y-111008557D02*
X149485714Y-111137128D01*
X149485714Y-111137128D02*
X149399999Y-111222842D01*
X149399999Y-111222842D02*
X149314285Y-111265700D01*
X150385714Y-111008557D02*
X150471428Y-111008557D01*
X150471428Y-111008557D02*
X150557142Y-111051414D01*
X150557142Y-111051414D02*
X150600000Y-111094271D01*
X150600000Y-111094271D02*
X150642857Y-111179985D01*
X150642857Y-111179985D02*
X150685714Y-111351414D01*
X150685714Y-111351414D02*
X150685714Y-111565700D01*
X150685714Y-111565700D02*
X150642857Y-111737128D01*
X150642857Y-111737128D02*
X150600000Y-111822842D01*
X150600000Y-111822842D02*
X150557142Y-111865700D01*
X150557142Y-111865700D02*
X150471428Y-111908557D01*
X150471428Y-111908557D02*
X150385714Y-111908557D01*
X150385714Y-111908557D02*
X150300000Y-111865700D01*
X150300000Y-111865700D02*
X150257142Y-111822842D01*
X150257142Y-111822842D02*
X150214285Y-111737128D01*
X150214285Y-111737128D02*
X150171428Y-111565700D01*
X150171428Y-111565700D02*
X150171428Y-111351414D01*
X150171428Y-111351414D02*
X150214285Y-111179985D01*
X150214285Y-111179985D02*
X150257142Y-111094271D01*
X150257142Y-111094271D02*
X150300000Y-111051414D01*
X150300000Y-111051414D02*
X150385714Y-111008557D01*
X163538095Y-83654819D02*
X164204761Y-84654819D01*
X164204761Y-83654819D02*
X163538095Y-84654819D01*
X164585714Y-84654819D02*
X164585714Y-83654819D01*
X165014285Y-84369104D02*
X165490475Y-84369104D01*
X164919047Y-84654819D02*
X165252380Y-83654819D01*
X165252380Y-83654819D02*
X165585713Y-84654819D01*
X166109523Y-83654819D02*
X166299999Y-83654819D01*
X166299999Y-83654819D02*
X166395237Y-83702438D01*
X166395237Y-83702438D02*
X166490475Y-83797676D01*
X166490475Y-83797676D02*
X166538094Y-83988152D01*
X166538094Y-83988152D02*
X166538094Y-84321485D01*
X166538094Y-84321485D02*
X166490475Y-84511961D01*
X166490475Y-84511961D02*
X166395237Y-84607200D01*
X166395237Y-84607200D02*
X166299999Y-84654819D01*
X166299999Y-84654819D02*
X166109523Y-84654819D01*
X166109523Y-84654819D02*
X166014285Y-84607200D01*
X166014285Y-84607200D02*
X165919047Y-84511961D01*
X165919047Y-84511961D02*
X165871428Y-84321485D01*
X165871428Y-84321485D02*
X165871428Y-83988152D01*
X165871428Y-83988152D02*
X165919047Y-83797676D01*
X165919047Y-83797676D02*
X166014285Y-83702438D01*
X166014285Y-83702438D02*
X166109523Y-83654819D01*
X167728571Y-84131009D02*
X168061904Y-84131009D01*
X168204761Y-84654819D02*
X167728571Y-84654819D01*
X167728571Y-84654819D02*
X167728571Y-83654819D01*
X167728571Y-83654819D02*
X168204761Y-83654819D01*
X168585714Y-84607200D02*
X168728571Y-84654819D01*
X168728571Y-84654819D02*
X168966666Y-84654819D01*
X168966666Y-84654819D02*
X169061904Y-84607200D01*
X169061904Y-84607200D02*
X169109523Y-84559580D01*
X169109523Y-84559580D02*
X169157142Y-84464342D01*
X169157142Y-84464342D02*
X169157142Y-84369104D01*
X169157142Y-84369104D02*
X169109523Y-84273866D01*
X169109523Y-84273866D02*
X169061904Y-84226247D01*
X169061904Y-84226247D02*
X168966666Y-84178628D01*
X168966666Y-84178628D02*
X168776190Y-84131009D01*
X168776190Y-84131009D02*
X168680952Y-84083390D01*
X168680952Y-84083390D02*
X168633333Y-84035771D01*
X168633333Y-84035771D02*
X168585714Y-83940533D01*
X168585714Y-83940533D02*
X168585714Y-83845295D01*
X168585714Y-83845295D02*
X168633333Y-83750057D01*
X168633333Y-83750057D02*
X168680952Y-83702438D01*
X168680952Y-83702438D02*
X168776190Y-83654819D01*
X168776190Y-83654819D02*
X169014285Y-83654819D01*
X169014285Y-83654819D02*
X169157142Y-83702438D01*
X169585714Y-84654819D02*
X169585714Y-83654819D01*
X169585714Y-83654819D02*
X169966666Y-83654819D01*
X169966666Y-83654819D02*
X170061904Y-83702438D01*
X170061904Y-83702438D02*
X170109523Y-83750057D01*
X170109523Y-83750057D02*
X170157142Y-83845295D01*
X170157142Y-83845295D02*
X170157142Y-83988152D01*
X170157142Y-83988152D02*
X170109523Y-84083390D01*
X170109523Y-84083390D02*
X170061904Y-84131009D01*
X170061904Y-84131009D02*
X169966666Y-84178628D01*
X169966666Y-84178628D02*
X169585714Y-84178628D01*
X170490476Y-83654819D02*
X171109523Y-83654819D01*
X171109523Y-83654819D02*
X170776190Y-84035771D01*
X170776190Y-84035771D02*
X170919047Y-84035771D01*
X170919047Y-84035771D02*
X171014285Y-84083390D01*
X171014285Y-84083390D02*
X171061904Y-84131009D01*
X171061904Y-84131009D02*
X171109523Y-84226247D01*
X171109523Y-84226247D02*
X171109523Y-84464342D01*
X171109523Y-84464342D02*
X171061904Y-84559580D01*
X171061904Y-84559580D02*
X171014285Y-84607200D01*
X171014285Y-84607200D02*
X170919047Y-84654819D01*
X170919047Y-84654819D02*
X170633333Y-84654819D01*
X170633333Y-84654819D02*
X170538095Y-84607200D01*
X170538095Y-84607200D02*
X170490476Y-84559580D01*
X171490476Y-83750057D02*
X171538095Y-83702438D01*
X171538095Y-83702438D02*
X171633333Y-83654819D01*
X171633333Y-83654819D02*
X171871428Y-83654819D01*
X171871428Y-83654819D02*
X171966666Y-83702438D01*
X171966666Y-83702438D02*
X172014285Y-83750057D01*
X172014285Y-83750057D02*
X172061904Y-83845295D01*
X172061904Y-83845295D02*
X172061904Y-83940533D01*
X172061904Y-83940533D02*
X172014285Y-84083390D01*
X172014285Y-84083390D02*
X171442857Y-84654819D01*
X171442857Y-84654819D02*
X172061904Y-84654819D01*
X173061904Y-84559580D02*
X173014285Y-84607200D01*
X173014285Y-84607200D02*
X172871428Y-84654819D01*
X172871428Y-84654819D02*
X172776190Y-84654819D01*
X172776190Y-84654819D02*
X172633333Y-84607200D01*
X172633333Y-84607200D02*
X172538095Y-84511961D01*
X172538095Y-84511961D02*
X172490476Y-84416723D01*
X172490476Y-84416723D02*
X172442857Y-84226247D01*
X172442857Y-84226247D02*
X172442857Y-84083390D01*
X172442857Y-84083390D02*
X172490476Y-83892914D01*
X172490476Y-83892914D02*
X172538095Y-83797676D01*
X172538095Y-83797676D02*
X172633333Y-83702438D01*
X172633333Y-83702438D02*
X172776190Y-83654819D01*
X172776190Y-83654819D02*
X172871428Y-83654819D01*
X172871428Y-83654819D02*
X173014285Y-83702438D01*
X173014285Y-83702438D02*
X173061904Y-83750057D01*
X173919047Y-83654819D02*
X173728571Y-83654819D01*
X173728571Y-83654819D02*
X173633333Y-83702438D01*
X173633333Y-83702438D02*
X173585714Y-83750057D01*
X173585714Y-83750057D02*
X173490476Y-83892914D01*
X173490476Y-83892914D02*
X173442857Y-84083390D01*
X173442857Y-84083390D02*
X173442857Y-84464342D01*
X173442857Y-84464342D02*
X173490476Y-84559580D01*
X173490476Y-84559580D02*
X173538095Y-84607200D01*
X173538095Y-84607200D02*
X173633333Y-84654819D01*
X173633333Y-84654819D02*
X173823809Y-84654819D01*
X173823809Y-84654819D02*
X173919047Y-84607200D01*
X173919047Y-84607200D02*
X173966666Y-84559580D01*
X173966666Y-84559580D02*
X174014285Y-84464342D01*
X174014285Y-84464342D02*
X174014285Y-84226247D01*
X174014285Y-84226247D02*
X173966666Y-84131009D01*
X173966666Y-84131009D02*
X173919047Y-84083390D01*
X173919047Y-84083390D02*
X173823809Y-84035771D01*
X173823809Y-84035771D02*
X173633333Y-84035771D01*
X173633333Y-84035771D02*
X173538095Y-84083390D01*
X173538095Y-84083390D02*
X173490476Y-84131009D01*
X173490476Y-84131009D02*
X173442857Y-84226247D01*
X177138095Y-84454819D02*
X177138095Y-85264342D01*
X177138095Y-85264342D02*
X177185714Y-85359580D01*
X177185714Y-85359580D02*
X177233333Y-85407200D01*
X177233333Y-85407200D02*
X177328571Y-85454819D01*
X177328571Y-85454819D02*
X177519047Y-85454819D01*
X177519047Y-85454819D02*
X177614285Y-85407200D01*
X177614285Y-85407200D02*
X177661904Y-85359580D01*
X177661904Y-85359580D02*
X177709523Y-85264342D01*
X177709523Y-85264342D02*
X177709523Y-84454819D01*
X178138095Y-85407200D02*
X178280952Y-85454819D01*
X178280952Y-85454819D02*
X178519047Y-85454819D01*
X178519047Y-85454819D02*
X178614285Y-85407200D01*
X178614285Y-85407200D02*
X178661904Y-85359580D01*
X178661904Y-85359580D02*
X178709523Y-85264342D01*
X178709523Y-85264342D02*
X178709523Y-85169104D01*
X178709523Y-85169104D02*
X178661904Y-85073866D01*
X178661904Y-85073866D02*
X178614285Y-85026247D01*
X178614285Y-85026247D02*
X178519047Y-84978628D01*
X178519047Y-84978628D02*
X178328571Y-84931009D01*
X178328571Y-84931009D02*
X178233333Y-84883390D01*
X178233333Y-84883390D02*
X178185714Y-84835771D01*
X178185714Y-84835771D02*
X178138095Y-84740533D01*
X178138095Y-84740533D02*
X178138095Y-84645295D01*
X178138095Y-84645295D02*
X178185714Y-84550057D01*
X178185714Y-84550057D02*
X178233333Y-84502438D01*
X178233333Y-84502438D02*
X178328571Y-84454819D01*
X178328571Y-84454819D02*
X178566666Y-84454819D01*
X178566666Y-84454819D02*
X178709523Y-84502438D01*
X179471428Y-84931009D02*
X179614285Y-84978628D01*
X179614285Y-84978628D02*
X179661904Y-85026247D01*
X179661904Y-85026247D02*
X179709523Y-85121485D01*
X179709523Y-85121485D02*
X179709523Y-85264342D01*
X179709523Y-85264342D02*
X179661904Y-85359580D01*
X179661904Y-85359580D02*
X179614285Y-85407200D01*
X179614285Y-85407200D02*
X179519047Y-85454819D01*
X179519047Y-85454819D02*
X179138095Y-85454819D01*
X179138095Y-85454819D02*
X179138095Y-84454819D01*
X179138095Y-84454819D02*
X179471428Y-84454819D01*
X179471428Y-84454819D02*
X179566666Y-84502438D01*
X179566666Y-84502438D02*
X179614285Y-84550057D01*
X179614285Y-84550057D02*
X179661904Y-84645295D01*
X179661904Y-84645295D02*
X179661904Y-84740533D01*
X179661904Y-84740533D02*
X179614285Y-84835771D01*
X179614285Y-84835771D02*
X179566666Y-84883390D01*
X179566666Y-84883390D02*
X179471428Y-84931009D01*
X179471428Y-84931009D02*
X179138095Y-84931009D01*
D12*
X120528572Y-61345782D02*
X120528572Y-62145782D01*
X120242857Y-60888640D02*
X119957143Y-61745782D01*
X119957143Y-61745782D02*
X120700000Y-61745782D01*
X128828572Y-90945782D02*
X128600000Y-90945782D01*
X128600000Y-90945782D02*
X128485714Y-91002925D01*
X128485714Y-91002925D02*
X128428572Y-91060068D01*
X128428572Y-91060068D02*
X128314286Y-91231497D01*
X128314286Y-91231497D02*
X128257143Y-91460068D01*
X128257143Y-91460068D02*
X128257143Y-91917211D01*
X128257143Y-91917211D02*
X128314286Y-92031497D01*
X128314286Y-92031497D02*
X128371429Y-92088640D01*
X128371429Y-92088640D02*
X128485714Y-92145782D01*
X128485714Y-92145782D02*
X128714286Y-92145782D01*
X128714286Y-92145782D02*
X128828572Y-92088640D01*
X128828572Y-92088640D02*
X128885714Y-92031497D01*
X128885714Y-92031497D02*
X128942857Y-91917211D01*
X128942857Y-91917211D02*
X128942857Y-91631497D01*
X128942857Y-91631497D02*
X128885714Y-91517211D01*
X128885714Y-91517211D02*
X128828572Y-91460068D01*
X128828572Y-91460068D02*
X128714286Y-91402925D01*
X128714286Y-91402925D02*
X128485714Y-91402925D01*
X128485714Y-91402925D02*
X128371429Y-91460068D01*
X128371429Y-91460068D02*
X128314286Y-91517211D01*
X128314286Y-91517211D02*
X128257143Y-91631497D01*
X130228572Y-73345782D02*
X130228572Y-74145782D01*
X129942857Y-72888640D02*
X129657143Y-73745782D01*
X129657143Y-73745782D02*
X130400000Y-73745782D01*
X130000000Y-100745782D02*
X130800000Y-100745782D01*
X130800000Y-100745782D02*
X130285714Y-101945782D01*
X144342857Y-91448639D02*
X145257143Y-91448639D01*
X144800000Y-91905781D02*
X144800000Y-90991496D01*
X145728571Y-84105782D02*
X145157143Y-84105782D01*
X145157143Y-84105782D02*
X145157143Y-82905782D01*
X146128572Y-83477211D02*
X146528572Y-83477211D01*
X146700000Y-84105782D02*
X146128572Y-84105782D01*
X146128572Y-84105782D02*
X146128572Y-82905782D01*
X146128572Y-82905782D02*
X146700000Y-82905782D01*
X147214286Y-84105782D02*
X147214286Y-82905782D01*
X147214286Y-82905782D02*
X147500000Y-82905782D01*
X147500000Y-82905782D02*
X147671429Y-82962925D01*
X147671429Y-82962925D02*
X147785714Y-83077211D01*
X147785714Y-83077211D02*
X147842857Y-83191497D01*
X147842857Y-83191497D02*
X147900000Y-83420068D01*
X147900000Y-83420068D02*
X147900000Y-83591497D01*
X147900000Y-83591497D02*
X147842857Y-83820068D01*
X147842857Y-83820068D02*
X147785714Y-83934354D01*
X147785714Y-83934354D02*
X147671429Y-84048640D01*
X147671429Y-84048640D02*
X147500000Y-84105782D01*
X147500000Y-84105782D02*
X147214286Y-84105782D01*
X147300000Y-106845782D02*
X148042857Y-106845782D01*
X148042857Y-106845782D02*
X147642857Y-107302925D01*
X147642857Y-107302925D02*
X147814286Y-107302925D01*
X147814286Y-107302925D02*
X147928572Y-107360068D01*
X147928572Y-107360068D02*
X147985714Y-107417211D01*
X147985714Y-107417211D02*
X148042857Y-107531497D01*
X148042857Y-107531497D02*
X148042857Y-107817211D01*
X148042857Y-107817211D02*
X147985714Y-107931497D01*
X147985714Y-107931497D02*
X147928572Y-107988640D01*
X147928572Y-107988640D02*
X147814286Y-108045782D01*
X147814286Y-108045782D02*
X147471429Y-108045782D01*
X147471429Y-108045782D02*
X147357143Y-107988640D01*
X147357143Y-107988640D02*
X147300000Y-107931497D01*
X150342857Y-75945782D02*
X149657143Y-75945782D01*
X150000000Y-75945782D02*
X150000000Y-74745782D01*
X150000000Y-74745782D02*
X149885714Y-74917211D01*
X149885714Y-74917211D02*
X149771429Y-75031497D01*
X149771429Y-75031497D02*
X149657143Y-75088640D01*
X151228572Y-83305782D02*
X151228572Y-84105782D01*
X150942857Y-82848640D02*
X150657143Y-83705782D01*
X150657143Y-83705782D02*
X151400000Y-83705782D01*
X159028572Y-96045782D02*
X158800000Y-96045782D01*
X158800000Y-96045782D02*
X158685714Y-96102925D01*
X158685714Y-96102925D02*
X158628572Y-96160068D01*
X158628572Y-96160068D02*
X158514286Y-96331497D01*
X158514286Y-96331497D02*
X158457143Y-96560068D01*
X158457143Y-96560068D02*
X158457143Y-97017211D01*
X158457143Y-97017211D02*
X158514286Y-97131497D01*
X158514286Y-97131497D02*
X158571429Y-97188640D01*
X158571429Y-97188640D02*
X158685714Y-97245782D01*
X158685714Y-97245782D02*
X158914286Y-97245782D01*
X158914286Y-97245782D02*
X159028572Y-97188640D01*
X159028572Y-97188640D02*
X159085714Y-97131497D01*
X159085714Y-97131497D02*
X159142857Y-97017211D01*
X159142857Y-97017211D02*
X159142857Y-96731497D01*
X159142857Y-96731497D02*
X159085714Y-96617211D01*
X159085714Y-96617211D02*
X159028572Y-96560068D01*
X159028572Y-96560068D02*
X158914286Y-96502925D01*
X158914286Y-96502925D02*
X158685714Y-96502925D01*
X158685714Y-96502925D02*
X158571429Y-96560068D01*
X158571429Y-96560068D02*
X158514286Y-96617211D01*
X158514286Y-96617211D02*
X158457143Y-96731497D01*
X162285714Y-81060068D02*
X162171429Y-81002925D01*
X162171429Y-81002925D02*
X162114286Y-80945782D01*
X162114286Y-80945782D02*
X162057143Y-80831497D01*
X162057143Y-80831497D02*
X162057143Y-80774354D01*
X162057143Y-80774354D02*
X162114286Y-80660068D01*
X162114286Y-80660068D02*
X162171429Y-80602925D01*
X162171429Y-80602925D02*
X162285714Y-80545782D01*
X162285714Y-80545782D02*
X162514286Y-80545782D01*
X162514286Y-80545782D02*
X162628572Y-80602925D01*
X162628572Y-80602925D02*
X162685714Y-80660068D01*
X162685714Y-80660068D02*
X162742857Y-80774354D01*
X162742857Y-80774354D02*
X162742857Y-80831497D01*
X162742857Y-80831497D02*
X162685714Y-80945782D01*
X162685714Y-80945782D02*
X162628572Y-81002925D01*
X162628572Y-81002925D02*
X162514286Y-81060068D01*
X162514286Y-81060068D02*
X162285714Y-81060068D01*
X162285714Y-81060068D02*
X162171429Y-81117211D01*
X162171429Y-81117211D02*
X162114286Y-81174354D01*
X162114286Y-81174354D02*
X162057143Y-81288640D01*
X162057143Y-81288640D02*
X162057143Y-81517211D01*
X162057143Y-81517211D02*
X162114286Y-81631497D01*
X162114286Y-81631497D02*
X162171429Y-81688640D01*
X162171429Y-81688640D02*
X162285714Y-81745782D01*
X162285714Y-81745782D02*
X162514286Y-81745782D01*
X162514286Y-81745782D02*
X162628572Y-81688640D01*
X162628572Y-81688640D02*
X162685714Y-81631497D01*
X162685714Y-81631497D02*
X162742857Y-81517211D01*
X162742857Y-81517211D02*
X162742857Y-81288640D01*
X162742857Y-81288640D02*
X162685714Y-81174354D01*
X162685714Y-81174354D02*
X162628572Y-81117211D01*
X162628572Y-81117211D02*
X162514286Y-81060068D01*
X164035714Y-96945782D02*
X163464286Y-96945782D01*
X163464286Y-96945782D02*
X163407143Y-97517211D01*
X163407143Y-97517211D02*
X163464286Y-97460068D01*
X163464286Y-97460068D02*
X163578572Y-97402925D01*
X163578572Y-97402925D02*
X163864286Y-97402925D01*
X163864286Y-97402925D02*
X163978572Y-97460068D01*
X163978572Y-97460068D02*
X164035714Y-97517211D01*
X164035714Y-97517211D02*
X164092857Y-97631497D01*
X164092857Y-97631497D02*
X164092857Y-97917211D01*
X164092857Y-97917211D02*
X164035714Y-98031497D01*
X164035714Y-98031497D02*
X163978572Y-98088640D01*
X163978572Y-98088640D02*
X163864286Y-98145782D01*
X163864286Y-98145782D02*
X163578572Y-98145782D01*
X163578572Y-98145782D02*
X163464286Y-98088640D01*
X163464286Y-98088640D02*
X163407143Y-98031497D01*
X175357143Y-100860068D02*
X175414286Y-100802925D01*
X175414286Y-100802925D02*
X175528572Y-100745782D01*
X175528572Y-100745782D02*
X175814286Y-100745782D01*
X175814286Y-100745782D02*
X175928572Y-100802925D01*
X175928572Y-100802925D02*
X175985714Y-100860068D01*
X175985714Y-100860068D02*
X176042857Y-100974354D01*
X176042857Y-100974354D02*
X176042857Y-101088640D01*
X176042857Y-101088640D02*
X175985714Y-101260068D01*
X175985714Y-101260068D02*
X175300000Y-101945782D01*
X175300000Y-101945782D02*
X176042857Y-101945782D01*
D13*
X151466667Y-90063413D02*
X152533334Y-90063413D01*
X152000000Y-90596746D02*
X152000000Y-89530080D01*
D14*
X126142857Y-84278328D02*
X125428571Y-84278328D01*
X125428571Y-84278328D02*
X125428571Y-82778328D01*
X126642857Y-84278328D02*
X126642857Y-83278328D01*
X126642857Y-82778328D02*
X126571429Y-82849757D01*
X126571429Y-82849757D02*
X126642857Y-82921185D01*
X126642857Y-82921185D02*
X126714286Y-82849757D01*
X126714286Y-82849757D02*
X126642857Y-82778328D01*
X126642857Y-82778328D02*
X126642857Y-82921185D01*
X127357143Y-83278328D02*
X127357143Y-84278328D01*
X127357143Y-83421185D02*
X127428572Y-83349757D01*
X127428572Y-83349757D02*
X127571429Y-83278328D01*
X127571429Y-83278328D02*
X127785715Y-83278328D01*
X127785715Y-83278328D02*
X127928572Y-83349757D01*
X127928572Y-83349757D02*
X128000001Y-83492614D01*
X128000001Y-83492614D02*
X128000001Y-84278328D01*
X129285715Y-84206900D02*
X129142858Y-84278328D01*
X129142858Y-84278328D02*
X128857144Y-84278328D01*
X128857144Y-84278328D02*
X128714286Y-84206900D01*
X128714286Y-84206900D02*
X128642858Y-84064042D01*
X128642858Y-84064042D02*
X128642858Y-83492614D01*
X128642858Y-83492614D02*
X128714286Y-83349757D01*
X128714286Y-83349757D02*
X128857144Y-83278328D01*
X128857144Y-83278328D02*
X129142858Y-83278328D01*
X129142858Y-83278328D02*
X129285715Y-83349757D01*
X129285715Y-83349757D02*
X129357144Y-83492614D01*
X129357144Y-83492614D02*
X129357144Y-83635471D01*
X129357144Y-83635471D02*
X128642858Y-83778328D01*
X129785715Y-83278328D02*
X130357143Y-83278328D01*
X130000000Y-82778328D02*
X130000000Y-84064042D01*
X130000000Y-84064042D02*
X130071429Y-84206900D01*
X130071429Y-84206900D02*
X130214286Y-84278328D01*
X130214286Y-84278328D02*
X130357143Y-84278328D01*
X130857143Y-84278328D02*
X130857143Y-83278328D01*
X130857143Y-83564042D02*
X130928572Y-83421185D01*
X130928572Y-83421185D02*
X131000001Y-83349757D01*
X131000001Y-83349757D02*
X131142858Y-83278328D01*
X131142858Y-83278328D02*
X131285715Y-83278328D01*
X132428572Y-84278328D02*
X132428572Y-83492614D01*
X132428572Y-83492614D02*
X132357143Y-83349757D01*
X132357143Y-83349757D02*
X132214286Y-83278328D01*
X132214286Y-83278328D02*
X131928572Y-83278328D01*
X131928572Y-83278328D02*
X131785714Y-83349757D01*
X132428572Y-84206900D02*
X132285714Y-84278328D01*
X132285714Y-84278328D02*
X131928572Y-84278328D01*
X131928572Y-84278328D02*
X131785714Y-84206900D01*
X131785714Y-84206900D02*
X131714286Y-84064042D01*
X131714286Y-84064042D02*
X131714286Y-83921185D01*
X131714286Y-83921185D02*
X131785714Y-83778328D01*
X131785714Y-83778328D02*
X131928572Y-83706900D01*
X131928572Y-83706900D02*
X132285714Y-83706900D01*
X132285714Y-83706900D02*
X132428572Y-83635471D01*
X133785715Y-84206900D02*
X133642857Y-84278328D01*
X133642857Y-84278328D02*
X133357143Y-84278328D01*
X133357143Y-84278328D02*
X133214286Y-84206900D01*
X133214286Y-84206900D02*
X133142857Y-84135471D01*
X133142857Y-84135471D02*
X133071429Y-83992614D01*
X133071429Y-83992614D02*
X133071429Y-83564042D01*
X133071429Y-83564042D02*
X133142857Y-83421185D01*
X133142857Y-83421185D02*
X133214286Y-83349757D01*
X133214286Y-83349757D02*
X133357143Y-83278328D01*
X133357143Y-83278328D02*
X133642857Y-83278328D01*
X133642857Y-83278328D02*
X133785715Y-83349757D01*
X135000000Y-84206900D02*
X134857143Y-84278328D01*
X134857143Y-84278328D02*
X134571429Y-84278328D01*
X134571429Y-84278328D02*
X134428571Y-84206900D01*
X134428571Y-84206900D02*
X134357143Y-84064042D01*
X134357143Y-84064042D02*
X134357143Y-83492614D01*
X134357143Y-83492614D02*
X134428571Y-83349757D01*
X134428571Y-83349757D02*
X134571429Y-83278328D01*
X134571429Y-83278328D02*
X134857143Y-83278328D01*
X134857143Y-83278328D02*
X135000000Y-83349757D01*
X135000000Y-83349757D02*
X135071429Y-83492614D01*
X135071429Y-83492614D02*
X135071429Y-83635471D01*
X135071429Y-83635471D02*
X134357143Y-83778328D01*
X135714285Y-84278328D02*
X135714285Y-83278328D01*
X135714285Y-83564042D02*
X135785714Y-83421185D01*
X135785714Y-83421185D02*
X135857143Y-83349757D01*
X135857143Y-83349757D02*
X136000000Y-83278328D01*
X136000000Y-83278328D02*
X136142857Y-83278328D01*
X136571428Y-82921185D02*
X136642856Y-82849757D01*
X136642856Y-82849757D02*
X136785714Y-82778328D01*
X136785714Y-82778328D02*
X137142856Y-82778328D01*
X137142856Y-82778328D02*
X137285714Y-82849757D01*
X137285714Y-82849757D02*
X137357142Y-82921185D01*
X137357142Y-82921185D02*
X137428571Y-83064042D01*
X137428571Y-83064042D02*
X137428571Y-83206900D01*
X137428571Y-83206900D02*
X137357142Y-83421185D01*
X137357142Y-83421185D02*
X136499999Y-84278328D01*
X136499999Y-84278328D02*
X137428571Y-84278328D01*
X139928570Y-84278328D02*
X139214284Y-84278328D01*
X139214284Y-84278328D02*
X139214284Y-82778328D01*
X140428570Y-84278328D02*
X140428570Y-83278328D01*
X140428570Y-82778328D02*
X140357142Y-82849757D01*
X140357142Y-82849757D02*
X140428570Y-82921185D01*
X140428570Y-82921185D02*
X140499999Y-82849757D01*
X140499999Y-82849757D02*
X140428570Y-82778328D01*
X140428570Y-82778328D02*
X140428570Y-82921185D01*
X140928571Y-83278328D02*
X141499999Y-83278328D01*
X141142856Y-82778328D02*
X141142856Y-84064042D01*
X141142856Y-84064042D02*
X141214285Y-84206900D01*
X141214285Y-84206900D02*
X141357142Y-84278328D01*
X141357142Y-84278328D02*
X141499999Y-84278328D01*
X142571428Y-84206900D02*
X142428571Y-84278328D01*
X142428571Y-84278328D02*
X142142857Y-84278328D01*
X142142857Y-84278328D02*
X141999999Y-84206900D01*
X141999999Y-84206900D02*
X141928571Y-84064042D01*
X141928571Y-84064042D02*
X141928571Y-83492614D01*
X141928571Y-83492614D02*
X141999999Y-83349757D01*
X141999999Y-83349757D02*
X142142857Y-83278328D01*
X142142857Y-83278328D02*
X142428571Y-83278328D01*
X142428571Y-83278328D02*
X142571428Y-83349757D01*
X142571428Y-83349757D02*
X142642857Y-83492614D01*
X142642857Y-83492614D02*
X142642857Y-83635471D01*
X142642857Y-83635471D02*
X141928571Y-83778328D01*
D10*
G36*
X137711083Y-65385432D02*
G01*
X137891291Y-65385432D01*
X137876379Y-65202433D01*
X137874298Y-65088219D01*
X137881209Y-64945444D01*
X137894381Y-64823313D01*
X137709538Y-64818679D01*
X137696336Y-65029961D01*
X137695634Y-65089764D01*
X137703256Y-65296897D01*
X137711083Y-65385432D01*
G37*
G36*
X138098702Y-65302280D02*
G01*
X138081709Y-65487056D01*
X138180646Y-65504788D01*
X138288851Y-65513251D01*
X138321230Y-65511109D01*
X138351519Y-65504717D01*
X138378671Y-65494585D01*
X138403795Y-65480596D01*
X138447651Y-65441364D01*
X138483894Y-65385337D01*
X138511823Y-65309353D01*
X138529361Y-65209624D01*
X138533876Y-65114414D01*
X138526545Y-64938893D01*
X138510837Y-64800208D01*
X138315113Y-64792551D01*
X138330370Y-64889054D01*
X138340595Y-64983428D01*
X138346010Y-65112869D01*
X138343917Y-65166588D01*
X138337865Y-65211033D01*
X138329221Y-65243973D01*
X138317843Y-65270402D01*
X138305107Y-65289520D01*
X138290452Y-65303959D01*
X138256626Y-65320406D01*
X138226991Y-65323840D01*
X138159409Y-65316317D01*
X138098702Y-65302280D01*
G37*
G36*
X137288402Y-64983506D02*
G01*
X137339247Y-65105145D01*
X137431831Y-65048144D01*
X137553509Y-64985051D01*
X137499574Y-64861800D01*
X137365894Y-64935012D01*
X137288402Y-64983506D01*
G37*
G36*
X137219019Y-64801753D02*
G01*
X137268319Y-64923459D01*
X137364528Y-64861604D01*
X137481103Y-64798663D01*
X137428713Y-64677024D01*
X137303809Y-64746281D01*
X137219019Y-64801753D01*
G37*
G36*
X137474924Y-65868966D02*
G01*
X137472437Y-65957417D01*
X137463627Y-66054427D01*
X137462633Y-66063011D01*
X137655133Y-66058376D01*
X137661245Y-65872056D01*
X137658222Y-65770432D01*
X137788056Y-65802739D01*
X138007921Y-65869258D01*
X138137198Y-65914945D01*
X138262633Y-65964128D01*
X138364154Y-66008653D01*
X138451287Y-66052462D01*
X138483098Y-66070735D01*
X138555503Y-65855129D01*
X138389506Y-65785671D01*
X138137932Y-65697847D01*
X137840580Y-65610239D01*
X137641229Y-65564029D01*
X137624128Y-65439565D01*
X137602518Y-65319044D01*
X137590451Y-65263793D01*
X137397884Y-65263793D01*
X137422380Y-65376945D01*
X137442534Y-65491308D01*
X137447184Y-65522452D01*
X137390160Y-65510161D01*
X137243669Y-65476309D01*
X137225198Y-65711930D01*
X137298349Y-65710257D01*
X137382435Y-65716497D01*
X137470290Y-65730401D01*
X137474924Y-65868966D01*
G37*
G36*
X137355031Y-64219618D02*
G01*
X137351942Y-64456784D01*
X137440737Y-64446649D01*
X137509448Y-64444493D01*
X137699933Y-64441798D01*
X137814494Y-64436700D01*
X137926285Y-64427567D01*
X138014193Y-64416277D01*
X138093719Y-64401764D01*
X138162536Y-64384953D01*
X138224088Y-64365520D01*
X138276557Y-64344563D01*
X138322762Y-64321506D01*
X138361487Y-64297494D01*
X138394798Y-64271822D01*
X138422116Y-64245460D01*
X138444685Y-64217792D01*
X138462475Y-64189316D01*
X138475966Y-64159812D01*
X138490799Y-64097367D01*
X138492299Y-64068695D01*
X138490097Y-64037005D01*
X138483275Y-64006389D01*
X138472545Y-63978860D01*
X138457314Y-63952050D01*
X138412380Y-63900245D01*
X138342284Y-63847501D01*
X138236784Y-63791199D01*
X138130136Y-63746831D01*
X137941733Y-63900845D01*
X138019995Y-63921879D01*
X138100613Y-63949515D01*
X138153589Y-63972785D01*
X138198041Y-63998555D01*
X138221744Y-64017722D01*
X138238024Y-64037795D01*
X138245864Y-64064127D01*
X138243742Y-64083345D01*
X138237481Y-64101184D01*
X138212657Y-64133414D01*
X138167379Y-64163327D01*
X138093321Y-64191114D01*
X137979010Y-64215418D01*
X137870738Y-64228887D01*
X137670630Y-64238158D01*
X137543434Y-64238089D01*
X137430448Y-64230522D01*
X137355031Y-64219618D01*
G37*
G36*
X137390563Y-63449618D02*
G01*
X137453901Y-63645208D01*
X137533092Y-63586631D01*
X137637806Y-63529981D01*
X137770738Y-63476814D01*
X137932007Y-63429692D01*
X138115420Y-63392392D01*
X138268970Y-63372645D01*
X138190318Y-63169398D01*
X138050860Y-63187750D01*
X137875236Y-63228323D01*
X137782567Y-63256324D01*
X137691418Y-63288555D01*
X137609564Y-63322150D01*
X137533087Y-63358654D01*
X137472088Y-63392695D01*
X137418022Y-63428409D01*
X137390563Y-63449618D01*
G37*
G36*
X137711083Y-62305432D02*
G01*
X137891291Y-62305432D01*
X137876379Y-62122433D01*
X137874298Y-62008219D01*
X137881209Y-61865444D01*
X137894381Y-61743313D01*
X137709538Y-61738679D01*
X137696336Y-61949961D01*
X137695634Y-62009764D01*
X137703256Y-62216897D01*
X137711083Y-62305432D01*
G37*
G36*
X138098702Y-62222280D02*
G01*
X138081709Y-62407056D01*
X138180646Y-62424788D01*
X138288851Y-62433251D01*
X138321230Y-62431109D01*
X138351519Y-62424717D01*
X138378671Y-62414585D01*
X138403795Y-62400596D01*
X138447651Y-62361364D01*
X138483894Y-62305337D01*
X138511823Y-62229353D01*
X138529361Y-62129624D01*
X138533876Y-62034414D01*
X138526545Y-61858893D01*
X138510837Y-61720208D01*
X138315113Y-61712551D01*
X138330370Y-61809054D01*
X138340595Y-61903428D01*
X138346010Y-62032869D01*
X138343917Y-62086588D01*
X138337865Y-62131033D01*
X138329221Y-62163973D01*
X138317843Y-62190402D01*
X138305107Y-62209520D01*
X138290452Y-62223959D01*
X138256626Y-62240406D01*
X138226991Y-62243840D01*
X138159409Y-62236317D01*
X138098702Y-62222280D01*
G37*
G36*
X137288402Y-61903506D02*
G01*
X137339247Y-62025145D01*
X137431831Y-61968144D01*
X137553509Y-61905051D01*
X137499574Y-61781800D01*
X137365894Y-61855012D01*
X137288402Y-61903506D01*
G37*
G36*
X137219019Y-61721753D02*
G01*
X137268319Y-61843459D01*
X137364528Y-61781604D01*
X137481103Y-61718663D01*
X137428713Y-61597024D01*
X137303809Y-61666281D01*
X137219019Y-61721753D01*
G37*
G36*
X137474924Y-62788966D02*
G01*
X137472437Y-62877417D01*
X137463627Y-62974427D01*
X137462633Y-62983011D01*
X137655133Y-62978376D01*
X137661245Y-62792056D01*
X137658222Y-62690432D01*
X137788056Y-62722739D01*
X138007921Y-62789258D01*
X138137198Y-62834945D01*
X138262633Y-62884128D01*
X138364154Y-62928653D01*
X138451287Y-62972462D01*
X138483098Y-62990735D01*
X138555503Y-62775129D01*
X138389506Y-62705671D01*
X138137932Y-62617847D01*
X137840580Y-62530239D01*
X137641229Y-62484029D01*
X137624128Y-62359565D01*
X137602518Y-62239044D01*
X137590451Y-62183793D01*
X137397884Y-62183793D01*
X137422380Y-62296945D01*
X137442534Y-62411308D01*
X137447184Y-62442452D01*
X137390160Y-62430161D01*
X137243669Y-62396309D01*
X137225198Y-62631930D01*
X137298349Y-62630257D01*
X137382435Y-62636497D01*
X137470290Y-62650401D01*
X137474924Y-62788966D01*
G37*
G36*
X137355031Y-61139618D02*
G01*
X137351942Y-61376784D01*
X137440737Y-61366649D01*
X137509448Y-61364493D01*
X137699933Y-61361798D01*
X137814494Y-61356700D01*
X137926285Y-61347567D01*
X138014193Y-61336277D01*
X138093719Y-61321764D01*
X138162536Y-61304953D01*
X138224088Y-61285520D01*
X138276557Y-61264563D01*
X138322762Y-61241506D01*
X138361487Y-61217494D01*
X138394798Y-61191822D01*
X138422116Y-61165460D01*
X138444685Y-61137792D01*
X138462475Y-61109316D01*
X138475966Y-61079812D01*
X138490799Y-61017367D01*
X138492299Y-60988695D01*
X138490097Y-60957005D01*
X138483275Y-60926389D01*
X138472545Y-60898860D01*
X138457314Y-60872050D01*
X138412380Y-60820245D01*
X138342284Y-60767501D01*
X138236784Y-60711199D01*
X138130136Y-60666831D01*
X137941733Y-60820845D01*
X138019995Y-60841879D01*
X138100613Y-60869515D01*
X138153589Y-60892785D01*
X138198041Y-60918555D01*
X138221744Y-60937722D01*
X138238024Y-60957795D01*
X138245864Y-60984127D01*
X138243742Y-61003345D01*
X138237481Y-61021184D01*
X138212657Y-61053414D01*
X138167379Y-61083327D01*
X138093321Y-61111114D01*
X137979010Y-61135418D01*
X137870738Y-61148887D01*
X137670630Y-61158158D01*
X137543434Y-61158089D01*
X137430448Y-61150522D01*
X137355031Y-61139618D01*
G37*
G36*
X137390563Y-60369618D02*
G01*
X137453901Y-60565208D01*
X137533092Y-60506631D01*
X137637806Y-60449981D01*
X137770738Y-60396814D01*
X137932007Y-60349692D01*
X138115420Y-60312392D01*
X138268970Y-60292645D01*
X138190318Y-60089398D01*
X138050860Y-60107750D01*
X137875236Y-60148323D01*
X137782567Y-60176324D01*
X137691418Y-60208555D01*
X137609564Y-60242150D01*
X137533087Y-60278654D01*
X137472088Y-60312695D01*
X137418022Y-60348409D01*
X137390563Y-60369618D01*
G37*
G36*
X155711083Y-65385432D02*
G01*
X155891291Y-65385432D01*
X155876379Y-65202433D01*
X155874298Y-65088219D01*
X155881209Y-64945444D01*
X155894381Y-64823313D01*
X155709538Y-64818679D01*
X155696336Y-65029961D01*
X155695634Y-65089764D01*
X155703256Y-65296897D01*
X155711083Y-65385432D01*
G37*
G36*
X156098702Y-65302280D02*
G01*
X156081709Y-65487056D01*
X156180646Y-65504788D01*
X156288851Y-65513251D01*
X156321230Y-65511109D01*
X156351519Y-65504717D01*
X156378671Y-65494585D01*
X156403795Y-65480596D01*
X156447651Y-65441364D01*
X156483894Y-65385337D01*
X156511823Y-65309353D01*
X156529361Y-65209624D01*
X156533876Y-65114414D01*
X156526545Y-64938893D01*
X156510837Y-64800208D01*
X156315113Y-64792551D01*
X156330370Y-64889054D01*
X156340595Y-64983428D01*
X156346010Y-65112869D01*
X156343917Y-65166588D01*
X156337865Y-65211033D01*
X156329221Y-65243973D01*
X156317843Y-65270402D01*
X156305107Y-65289520D01*
X156290452Y-65303959D01*
X156256626Y-65320406D01*
X156226991Y-65323840D01*
X156159409Y-65316317D01*
X156098702Y-65302280D01*
G37*
G36*
X155288402Y-64983506D02*
G01*
X155339247Y-65105145D01*
X155431831Y-65048144D01*
X155553509Y-64985051D01*
X155499574Y-64861800D01*
X155365894Y-64935012D01*
X155288402Y-64983506D01*
G37*
G36*
X155219019Y-64801753D02*
G01*
X155268319Y-64923459D01*
X155364528Y-64861604D01*
X155481103Y-64798663D01*
X155428713Y-64677024D01*
X155303809Y-64746281D01*
X155219019Y-64801753D01*
G37*
G36*
X155474924Y-65868966D02*
G01*
X155472437Y-65957417D01*
X155463627Y-66054427D01*
X155462633Y-66063011D01*
X155655133Y-66058376D01*
X155661245Y-65872056D01*
X155658222Y-65770432D01*
X155788056Y-65802739D01*
X156007921Y-65869258D01*
X156137198Y-65914945D01*
X156262633Y-65964128D01*
X156364154Y-66008653D01*
X156451287Y-66052462D01*
X156483098Y-66070735D01*
X156555503Y-65855129D01*
X156389506Y-65785671D01*
X156137932Y-65697847D01*
X155840580Y-65610239D01*
X155641229Y-65564029D01*
X155624128Y-65439565D01*
X155602518Y-65319044D01*
X155590451Y-65263793D01*
X155397884Y-65263793D01*
X155422380Y-65376945D01*
X155442534Y-65491308D01*
X155447184Y-65522452D01*
X155390160Y-65510161D01*
X155243669Y-65476309D01*
X155225198Y-65711930D01*
X155298349Y-65710257D01*
X155382435Y-65716497D01*
X155470290Y-65730401D01*
X155474924Y-65868966D01*
G37*
G36*
X155355031Y-64219618D02*
G01*
X155351942Y-64456784D01*
X155440737Y-64446649D01*
X155509448Y-64444493D01*
X155699933Y-64441798D01*
X155814494Y-64436700D01*
X155926285Y-64427567D01*
X156014193Y-64416277D01*
X156093719Y-64401764D01*
X156162536Y-64384953D01*
X156224088Y-64365520D01*
X156276557Y-64344563D01*
X156322762Y-64321506D01*
X156361487Y-64297494D01*
X156394798Y-64271822D01*
X156422116Y-64245460D01*
X156444685Y-64217792D01*
X156462475Y-64189316D01*
X156475966Y-64159812D01*
X156490799Y-64097367D01*
X156492299Y-64068695D01*
X156490097Y-64037005D01*
X156483275Y-64006389D01*
X156472545Y-63978860D01*
X156457314Y-63952050D01*
X156412380Y-63900245D01*
X156342284Y-63847501D01*
X156236784Y-63791199D01*
X156130136Y-63746831D01*
X155941733Y-63900845D01*
X156019995Y-63921879D01*
X156100613Y-63949515D01*
X156153589Y-63972785D01*
X156198041Y-63998555D01*
X156221744Y-64017722D01*
X156238024Y-64037795D01*
X156245864Y-64064127D01*
X156243742Y-64083345D01*
X156237481Y-64101184D01*
X156212657Y-64133414D01*
X156167379Y-64163327D01*
X156093321Y-64191114D01*
X155979010Y-64215418D01*
X155870738Y-64228887D01*
X155670630Y-64238158D01*
X155543434Y-64238089D01*
X155430448Y-64230522D01*
X155355031Y-64219618D01*
G37*
G36*
X155390563Y-63449618D02*
G01*
X155453901Y-63645208D01*
X155533092Y-63586631D01*
X155637806Y-63529981D01*
X155770738Y-63476814D01*
X155932007Y-63429692D01*
X156115420Y-63392392D01*
X156268970Y-63372645D01*
X156190318Y-63169398D01*
X156050860Y-63187750D01*
X155875236Y-63228323D01*
X155782567Y-63256324D01*
X155691418Y-63288555D01*
X155609564Y-63322150D01*
X155533087Y-63358654D01*
X155472088Y-63392695D01*
X155418022Y-63428409D01*
X155390563Y-63449618D01*
G37*
G36*
X155711083Y-62305432D02*
G01*
X155891291Y-62305432D01*
X155876379Y-62122433D01*
X155874298Y-62008219D01*
X155881209Y-61865444D01*
X155894381Y-61743313D01*
X155709538Y-61738679D01*
X155696336Y-61949961D01*
X155695634Y-62009764D01*
X155703256Y-62216897D01*
X155711083Y-62305432D01*
G37*
G36*
X156098702Y-62222280D02*
G01*
X156081709Y-62407056D01*
X156180646Y-62424788D01*
X156288851Y-62433251D01*
X156321230Y-62431109D01*
X156351519Y-62424717D01*
X156378671Y-62414585D01*
X156403795Y-62400596D01*
X156447651Y-62361364D01*
X156483894Y-62305337D01*
X156511823Y-62229353D01*
X156529361Y-62129624D01*
X156533876Y-62034414D01*
X156526545Y-61858893D01*
X156510837Y-61720208D01*
X156315113Y-61712551D01*
X156330370Y-61809054D01*
X156340595Y-61903428D01*
X156346010Y-62032869D01*
X156343917Y-62086588D01*
X156337865Y-62131033D01*
X156329221Y-62163973D01*
X156317843Y-62190402D01*
X156305107Y-62209520D01*
X156290452Y-62223959D01*
X156256626Y-62240406D01*
X156226991Y-62243840D01*
X156159409Y-62236317D01*
X156098702Y-62222280D01*
G37*
G36*
X155288402Y-61903506D02*
G01*
X155339247Y-62025145D01*
X155431831Y-61968144D01*
X155553509Y-61905051D01*
X155499574Y-61781800D01*
X155365894Y-61855012D01*
X155288402Y-61903506D01*
G37*
G36*
X155219019Y-61721753D02*
G01*
X155268319Y-61843459D01*
X155364528Y-61781604D01*
X155481103Y-61718663D01*
X155428713Y-61597024D01*
X155303809Y-61666281D01*
X155219019Y-61721753D01*
G37*
G36*
X155474924Y-62788966D02*
G01*
X155472437Y-62877417D01*
X155463627Y-62974427D01*
X155462633Y-62983011D01*
X155655133Y-62978376D01*
X155661245Y-62792056D01*
X155658222Y-62690432D01*
X155788056Y-62722739D01*
X156007921Y-62789258D01*
X156137198Y-62834945D01*
X156262633Y-62884128D01*
X156364154Y-62928653D01*
X156451287Y-62972462D01*
X156483098Y-62990735D01*
X156555503Y-62775129D01*
X156389506Y-62705671D01*
X156137932Y-62617847D01*
X155840580Y-62530239D01*
X155641229Y-62484029D01*
X155624128Y-62359565D01*
X155602518Y-62239044D01*
X155590451Y-62183793D01*
X155397884Y-62183793D01*
X155422380Y-62296945D01*
X155442534Y-62411308D01*
X155447184Y-62442452D01*
X155390160Y-62430161D01*
X155243669Y-62396309D01*
X155225198Y-62631930D01*
X155298349Y-62630257D01*
X155382435Y-62636497D01*
X155470290Y-62650401D01*
X155474924Y-62788966D01*
G37*
G36*
X155355031Y-61139618D02*
G01*
X155351942Y-61376784D01*
X155440737Y-61366649D01*
X155509448Y-61364493D01*
X155699933Y-61361798D01*
X155814494Y-61356700D01*
X155926285Y-61347567D01*
X156014193Y-61336277D01*
X156093719Y-61321764D01*
X156162536Y-61304953D01*
X156224088Y-61285520D01*
X156276557Y-61264563D01*
X156322762Y-61241506D01*
X156361487Y-61217494D01*
X156394798Y-61191822D01*
X156422116Y-61165460D01*
X156444685Y-61137792D01*
X156462475Y-61109316D01*
X156475966Y-61079812D01*
X156490799Y-61017367D01*
X156492299Y-60988695D01*
X156490097Y-60957005D01*
X156483275Y-60926389D01*
X156472545Y-60898860D01*
X156457314Y-60872050D01*
X156412380Y-60820245D01*
X156342284Y-60767501D01*
X156236784Y-60711199D01*
X156130136Y-60666831D01*
X155941733Y-60820845D01*
X156019995Y-60841879D01*
X156100613Y-60869515D01*
X156153589Y-60892785D01*
X156198041Y-60918555D01*
X156221744Y-60937722D01*
X156238024Y-60957795D01*
X156245864Y-60984127D01*
X156243742Y-61003345D01*
X156237481Y-61021184D01*
X156212657Y-61053414D01*
X156167379Y-61083327D01*
X156093321Y-61111114D01*
X155979010Y-61135418D01*
X155870738Y-61148887D01*
X155670630Y-61158158D01*
X155543434Y-61158089D01*
X155430448Y-61150522D01*
X155355031Y-61139618D01*
G37*
G36*
X155390563Y-60369618D02*
G01*
X155453901Y-60565208D01*
X155533092Y-60506631D01*
X155637806Y-60449981D01*
X155770738Y-60396814D01*
X155932007Y-60349692D01*
X156115420Y-60312392D01*
X156268970Y-60292645D01*
X156190318Y-60089398D01*
X156050860Y-60107750D01*
X155875236Y-60148323D01*
X155782567Y-60176324D01*
X155691418Y-60208555D01*
X155609564Y-60242150D01*
X155533087Y-60278654D01*
X155472088Y-60312695D01*
X155418022Y-60348409D01*
X155390563Y-60369618D01*
G37*
G36*
X167711083Y-65385432D02*
G01*
X167891291Y-65385432D01*
X167876379Y-65202433D01*
X167874298Y-65088219D01*
X167881209Y-64945444D01*
X167894381Y-64823313D01*
X167709538Y-64818679D01*
X167696336Y-65029961D01*
X167695634Y-65089764D01*
X167703256Y-65296897D01*
X167711083Y-65385432D01*
G37*
G36*
X168098702Y-65302280D02*
G01*
X168081709Y-65487056D01*
X168180646Y-65504788D01*
X168288851Y-65513251D01*
X168321230Y-65511109D01*
X168351519Y-65504717D01*
X168378671Y-65494585D01*
X168403795Y-65480596D01*
X168447651Y-65441364D01*
X168483894Y-65385337D01*
X168511823Y-65309353D01*
X168529361Y-65209624D01*
X168533876Y-65114414D01*
X168526545Y-64938893D01*
X168510837Y-64800208D01*
X168315113Y-64792551D01*
X168330370Y-64889054D01*
X168340595Y-64983428D01*
X168346010Y-65112869D01*
X168343917Y-65166588D01*
X168337865Y-65211033D01*
X168329221Y-65243973D01*
X168317843Y-65270402D01*
X168305107Y-65289520D01*
X168290452Y-65303959D01*
X168256626Y-65320406D01*
X168226991Y-65323840D01*
X168159409Y-65316317D01*
X168098702Y-65302280D01*
G37*
G36*
X167288402Y-64983506D02*
G01*
X167339247Y-65105145D01*
X167431831Y-65048144D01*
X167553509Y-64985051D01*
X167499574Y-64861800D01*
X167365894Y-64935012D01*
X167288402Y-64983506D01*
G37*
G36*
X167219019Y-64801753D02*
G01*
X167268319Y-64923459D01*
X167364528Y-64861604D01*
X167481103Y-64798663D01*
X167428713Y-64677024D01*
X167303809Y-64746281D01*
X167219019Y-64801753D01*
G37*
G36*
X167474924Y-65868966D02*
G01*
X167472437Y-65957417D01*
X167463627Y-66054427D01*
X167462633Y-66063011D01*
X167655133Y-66058376D01*
X167661245Y-65872056D01*
X167658222Y-65770432D01*
X167788056Y-65802739D01*
X168007921Y-65869258D01*
X168137198Y-65914945D01*
X168262633Y-65964128D01*
X168364154Y-66008653D01*
X168451287Y-66052462D01*
X168483098Y-66070735D01*
X168555503Y-65855129D01*
X168389506Y-65785671D01*
X168137932Y-65697847D01*
X167840580Y-65610239D01*
X167641229Y-65564029D01*
X167624128Y-65439565D01*
X167602518Y-65319044D01*
X167590451Y-65263793D01*
X167397884Y-65263793D01*
X167422380Y-65376945D01*
X167442534Y-65491308D01*
X167447184Y-65522452D01*
X167390160Y-65510161D01*
X167243669Y-65476309D01*
X167225198Y-65711930D01*
X167298349Y-65710257D01*
X167382435Y-65716497D01*
X167470290Y-65730401D01*
X167474924Y-65868966D01*
G37*
G36*
X167355031Y-64219618D02*
G01*
X167351942Y-64456784D01*
X167440737Y-64446649D01*
X167509448Y-64444493D01*
X167699933Y-64441798D01*
X167814494Y-64436700D01*
X167926285Y-64427567D01*
X168014193Y-64416277D01*
X168093719Y-64401764D01*
X168162536Y-64384953D01*
X168224088Y-64365520D01*
X168276557Y-64344563D01*
X168322762Y-64321506D01*
X168361487Y-64297494D01*
X168394798Y-64271822D01*
X168422116Y-64245460D01*
X168444685Y-64217792D01*
X168462475Y-64189316D01*
X168475966Y-64159812D01*
X168490799Y-64097367D01*
X168492299Y-64068695D01*
X168490097Y-64037005D01*
X168483275Y-64006389D01*
X168472545Y-63978860D01*
X168457314Y-63952050D01*
X168412380Y-63900245D01*
X168342284Y-63847501D01*
X168236784Y-63791199D01*
X168130136Y-63746831D01*
X167941733Y-63900845D01*
X168019995Y-63921879D01*
X168100613Y-63949515D01*
X168153589Y-63972785D01*
X168198041Y-63998555D01*
X168221744Y-64017722D01*
X168238024Y-64037795D01*
X168245864Y-64064127D01*
X168243742Y-64083345D01*
X168237481Y-64101184D01*
X168212657Y-64133414D01*
X168167379Y-64163327D01*
X168093321Y-64191114D01*
X167979010Y-64215418D01*
X167870738Y-64228887D01*
X167670630Y-64238158D01*
X167543434Y-64238089D01*
X167430448Y-64230522D01*
X167355031Y-64219618D01*
G37*
G36*
X167390563Y-63449618D02*
G01*
X167453901Y-63645208D01*
X167533092Y-63586631D01*
X167637806Y-63529981D01*
X167770738Y-63476814D01*
X167932007Y-63429692D01*
X168115420Y-63392392D01*
X168268970Y-63372645D01*
X168190318Y-63169398D01*
X168050860Y-63187750D01*
X167875236Y-63228323D01*
X167782567Y-63256324D01*
X167691418Y-63288555D01*
X167609564Y-63322150D01*
X167533087Y-63358654D01*
X167472088Y-63392695D01*
X167418022Y-63428409D01*
X167390563Y-63449618D01*
G37*
G36*
X167711083Y-62305432D02*
G01*
X167891291Y-62305432D01*
X167876379Y-62122433D01*
X167874298Y-62008219D01*
X167881209Y-61865444D01*
X167894381Y-61743313D01*
X167709538Y-61738679D01*
X167696336Y-61949961D01*
X167695634Y-62009764D01*
X167703256Y-62216897D01*
X167711083Y-62305432D01*
G37*
G36*
X168098702Y-62222280D02*
G01*
X168081709Y-62407056D01*
X168180646Y-62424788D01*
X168288851Y-62433251D01*
X168321230Y-62431109D01*
X168351519Y-62424717D01*
X168378671Y-62414585D01*
X168403795Y-62400596D01*
X168447651Y-62361364D01*
X168483894Y-62305337D01*
X168511823Y-62229353D01*
X168529361Y-62129624D01*
X168533876Y-62034414D01*
X168526545Y-61858893D01*
X168510837Y-61720208D01*
X168315113Y-61712551D01*
X168330370Y-61809054D01*
X168340595Y-61903428D01*
X168346010Y-62032869D01*
X168343917Y-62086588D01*
X168337865Y-62131033D01*
X168329221Y-62163973D01*
X168317843Y-62190402D01*
X168305107Y-62209520D01*
X168290452Y-62223959D01*
X168256626Y-62240406D01*
X168226991Y-62243840D01*
X168159409Y-62236317D01*
X168098702Y-62222280D01*
G37*
G36*
X167288402Y-61903506D02*
G01*
X167339247Y-62025145D01*
X167431831Y-61968144D01*
X167553509Y-61905051D01*
X167499574Y-61781800D01*
X167365894Y-61855012D01*
X167288402Y-61903506D01*
G37*
G36*
X167219019Y-61721753D02*
G01*
X167268319Y-61843459D01*
X167364528Y-61781604D01*
X167481103Y-61718663D01*
X167428713Y-61597024D01*
X167303809Y-61666281D01*
X167219019Y-61721753D01*
G37*
G36*
X167474924Y-62788966D02*
G01*
X167472437Y-62877417D01*
X167463627Y-62974427D01*
X167462633Y-62983011D01*
X167655133Y-62978376D01*
X167661245Y-62792056D01*
X167658222Y-62690432D01*
X167788056Y-62722739D01*
X168007921Y-62789258D01*
X168137198Y-62834945D01*
X168262633Y-62884128D01*
X168364154Y-62928653D01*
X168451287Y-62972462D01*
X168483098Y-62990735D01*
X168555503Y-62775129D01*
X168389506Y-62705671D01*
X168137932Y-62617847D01*
X167840580Y-62530239D01*
X167641229Y-62484029D01*
X167624128Y-62359565D01*
X167602518Y-62239044D01*
X167590451Y-62183793D01*
X167397884Y-62183793D01*
X167422380Y-62296945D01*
X167442534Y-62411308D01*
X167447184Y-62442452D01*
X167390160Y-62430161D01*
X167243669Y-62396309D01*
X167225198Y-62631930D01*
X167298349Y-62630257D01*
X167382435Y-62636497D01*
X167470290Y-62650401D01*
X167474924Y-62788966D01*
G37*
G36*
X167355031Y-61139618D02*
G01*
X167351942Y-61376784D01*
X167440737Y-61366649D01*
X167509448Y-61364493D01*
X167699933Y-61361798D01*
X167814494Y-61356700D01*
X167926285Y-61347567D01*
X168014193Y-61336277D01*
X168093719Y-61321764D01*
X168162536Y-61304953D01*
X168224088Y-61285520D01*
X168276557Y-61264563D01*
X168322762Y-61241506D01*
X168361487Y-61217494D01*
X168394798Y-61191822D01*
X168422116Y-61165460D01*
X168444685Y-61137792D01*
X168462475Y-61109316D01*
X168475966Y-61079812D01*
X168490799Y-61017367D01*
X168492299Y-60988695D01*
X168490097Y-60957005D01*
X168483275Y-60926389D01*
X168472545Y-60898860D01*
X168457314Y-60872050D01*
X168412380Y-60820245D01*
X168342284Y-60767501D01*
X168236784Y-60711199D01*
X168130136Y-60666831D01*
X167941733Y-60820845D01*
X168019995Y-60841879D01*
X168100613Y-60869515D01*
X168153589Y-60892785D01*
X168198041Y-60918555D01*
X168221744Y-60937722D01*
X168238024Y-60957795D01*
X168245864Y-60984127D01*
X168243742Y-61003345D01*
X168237481Y-61021184D01*
X168212657Y-61053414D01*
X168167379Y-61083327D01*
X168093321Y-61111114D01*
X167979010Y-61135418D01*
X167870738Y-61148887D01*
X167670630Y-61158158D01*
X167543434Y-61158089D01*
X167430448Y-61150522D01*
X167355031Y-61139618D01*
G37*
G36*
X167390563Y-60369618D02*
G01*
X167453901Y-60565208D01*
X167533092Y-60506631D01*
X167637806Y-60449981D01*
X167770738Y-60396814D01*
X167932007Y-60349692D01*
X168115420Y-60312392D01*
X168268970Y-60292645D01*
X168190318Y-60089398D01*
X168050860Y-60107750D01*
X167875236Y-60148323D01*
X167782567Y-60176324D01*
X167691418Y-60208555D01*
X167609564Y-60242150D01*
X167533087Y-60278654D01*
X167472088Y-60312695D01*
X167418022Y-60348409D01*
X167390563Y-60369618D01*
G37*
G36*
X127070204Y-122539500D02*
G01*
X127312230Y-122539500D01*
X127312230Y-121978132D01*
X127303962Y-121806533D01*
X127284443Y-121602831D01*
X127277700Y-121537261D01*
X127284924Y-121537261D01*
X127392324Y-121852554D01*
X127601646Y-122417573D01*
X127756355Y-122417573D01*
X127963773Y-121852554D01*
X128072998Y-121537261D01*
X128082126Y-121537261D01*
X128059345Y-121756774D01*
X128050871Y-121872398D01*
X128047517Y-121977655D01*
X128047517Y-122539500D01*
X128293195Y-122539500D01*
X128293195Y-121193233D01*
X127994730Y-121193233D01*
X127769056Y-121825407D01*
X127731965Y-121944259D01*
X127688963Y-122080927D01*
X127679913Y-122080927D01*
X127597994Y-121825407D01*
X127368669Y-121193233D01*
X127070204Y-121193233D01*
X127070204Y-122539500D01*
G37*
G36*
X128605869Y-122539500D02*
G01*
X129415692Y-122539500D01*
X129415692Y-122321128D01*
X129162712Y-122321128D01*
X129162712Y-121193233D01*
X128964344Y-121193233D01*
X128910310Y-121224592D01*
X128852748Y-121251309D01*
X128730393Y-121289983D01*
X128651353Y-121306110D01*
X128651353Y-121473520D01*
X128897031Y-121473520D01*
X128897031Y-122321128D01*
X128605869Y-122321128D01*
X128605869Y-122539500D01*
G37*
G36*
X130102717Y-121238955D02*
G01*
X130120895Y-121475584D01*
X130211426Y-121461769D01*
X130230120Y-121459232D01*
X130468574Y-121431925D01*
X130396204Y-121529319D01*
X130331450Y-121628644D01*
X130290015Y-121702943D01*
X130254027Y-121779586D01*
X130227590Y-121848678D01*
X130206132Y-121920339D01*
X130191057Y-121989239D01*
X130180893Y-122060943D01*
X130175507Y-122166419D01*
X130178007Y-122222654D01*
X130185340Y-122275408D01*
X130197160Y-122324360D01*
X130213263Y-122369906D01*
X130257601Y-122451198D01*
X130317570Y-122520077D01*
X130393053Y-122576553D01*
X130484083Y-122619689D01*
X130590131Y-122647677D01*
X130709348Y-122658222D01*
X130716078Y-122658250D01*
X130784651Y-122655747D01*
X130848595Y-122648386D01*
X130906935Y-122636662D01*
X130961051Y-122620688D01*
X131010671Y-122600850D01*
X131056356Y-122577242D01*
X131136916Y-122519046D01*
X131204413Y-122446002D01*
X131259606Y-122357092D01*
X131302251Y-122250725D01*
X131331155Y-122125250D01*
X131344379Y-121979638D01*
X131342140Y-121849300D01*
X131388772Y-121927646D01*
X131438144Y-122000986D01*
X131544159Y-122133635D01*
X131691566Y-121922170D01*
X131583137Y-121808999D01*
X131494272Y-121688805D01*
X131422992Y-121560688D01*
X131367665Y-121423019D01*
X131326704Y-121272783D01*
X131303879Y-121147431D01*
X131072807Y-121211490D01*
X131105511Y-121309999D01*
X131129696Y-121432584D01*
X131147480Y-121549419D01*
X131158465Y-121655164D01*
X131163614Y-121755149D01*
X131163114Y-121843988D01*
X131157401Y-121927244D01*
X131147314Y-121999973D01*
X131132641Y-122067432D01*
X131114790Y-122125511D01*
X131092928Y-122178689D01*
X131068795Y-122223944D01*
X131041131Y-122264643D01*
X131011635Y-122298917D01*
X130978957Y-122328883D01*
X130944324Y-122353670D01*
X130906709Y-122374239D01*
X130823324Y-122402178D01*
X130726710Y-122412469D01*
X130721555Y-122412493D01*
X130670134Y-122409907D01*
X130621626Y-122401962D01*
X130580972Y-122390007D01*
X130543596Y-122373288D01*
X130512799Y-122353762D01*
X130485407Y-122329969D01*
X130463077Y-122303607D01*
X130444312Y-122273221D01*
X130429681Y-122239520D01*
X130418968Y-122201740D01*
X130410310Y-122115378D01*
X130419878Y-121994719D01*
X130448704Y-121872945D01*
X130497051Y-121750778D01*
X130564583Y-121630526D01*
X130648668Y-121517463D01*
X130740553Y-121422448D01*
X130779740Y-121390093D01*
X130853628Y-121356737D01*
X130870788Y-121350006D01*
X130803395Y-121147431D01*
X130694814Y-121176713D01*
X130490958Y-121211612D01*
X130232884Y-121237641D01*
X130206465Y-121238955D01*
X130102717Y-121238955D01*
G37*
G36*
X132678007Y-121658552D02*
G01*
X132678007Y-121871526D01*
X132894279Y-121853903D01*
X133029259Y-121851443D01*
X133197993Y-121859611D01*
X133342330Y-121875177D01*
X133347807Y-121656726D01*
X133098109Y-121641124D01*
X133027434Y-121640295D01*
X132782640Y-121649302D01*
X132678007Y-121658552D01*
G37*
G36*
X132776279Y-122116648D02*
G01*
X132557907Y-122096565D01*
X132536951Y-122213490D01*
X132526949Y-122341370D01*
X132529480Y-122379635D01*
X132537035Y-122415432D01*
X132549009Y-122447521D01*
X132565541Y-122477212D01*
X132611906Y-122529042D01*
X132678120Y-122571874D01*
X132767919Y-122604881D01*
X132885781Y-122625609D01*
X132998301Y-122630944D01*
X133205735Y-122622281D01*
X133369636Y-122603717D01*
X133378685Y-122372407D01*
X133264636Y-122390438D01*
X133153103Y-122402522D01*
X133000127Y-122408921D01*
X132936642Y-122406448D01*
X132884116Y-122399295D01*
X132845186Y-122389079D01*
X132813952Y-122375633D01*
X132791358Y-122360581D01*
X132774293Y-122343261D01*
X132754857Y-122303285D01*
X132750798Y-122268262D01*
X132759689Y-122188393D01*
X132776279Y-122116648D01*
G37*
G36*
X133153011Y-121159021D02*
G01*
X133009256Y-121219110D01*
X133076621Y-121328528D01*
X133151185Y-121472329D01*
X133296846Y-121408588D01*
X133210322Y-121250603D01*
X133153011Y-121159021D01*
G37*
G36*
X133367810Y-121077022D02*
G01*
X133223976Y-121135286D01*
X133297077Y-121248988D01*
X133371462Y-121386759D01*
X133515217Y-121324843D01*
X133433368Y-121177229D01*
X133367810Y-121077022D01*
G37*
G36*
X132106559Y-121379456D02*
G01*
X132002026Y-121376517D01*
X131887378Y-121366104D01*
X131877233Y-121364930D01*
X131882710Y-121592430D01*
X132102907Y-121599653D01*
X132223007Y-121596081D01*
X132184826Y-121749520D01*
X132106213Y-122009361D01*
X132052220Y-122162143D01*
X131994094Y-122310385D01*
X131941474Y-122430363D01*
X131889700Y-122533339D01*
X131868104Y-122570934D01*
X132122911Y-122656504D01*
X132204998Y-122460326D01*
X132308790Y-122163011D01*
X132412326Y-121811595D01*
X132466939Y-121575998D01*
X132614032Y-121555787D01*
X132756466Y-121530249D01*
X132821763Y-121515988D01*
X132821763Y-121288408D01*
X132688038Y-121317358D01*
X132552881Y-121341177D01*
X132516074Y-121346672D01*
X132530601Y-121279280D01*
X132570608Y-121106154D01*
X132292147Y-121084325D01*
X132294124Y-121170776D01*
X132286749Y-121270151D01*
X132270317Y-121373979D01*
X132106559Y-121379456D01*
G37*
G36*
X134239550Y-121078213D02*
G01*
X133990221Y-121067179D01*
X133980889Y-121215841D01*
X133975694Y-121259276D01*
X133946425Y-121499775D01*
X133927315Y-121740226D01*
X133924733Y-121842235D01*
X133932904Y-122018593D01*
X133948388Y-122146494D01*
X134172236Y-122131889D01*
X134163407Y-122042810D01*
X134161581Y-121972304D01*
X134163108Y-121938760D01*
X134176858Y-121834747D01*
X134212432Y-121718515D01*
X134238305Y-121659690D01*
X134268690Y-121603332D01*
X134302193Y-121551940D01*
X134339159Y-121505067D01*
X134375944Y-121466797D01*
X134415014Y-121434119D01*
X134451652Y-121410308D01*
X134489642Y-121392249D01*
X134524633Y-121381452D01*
X134560368Y-121376186D01*
X134574449Y-121375725D01*
X134607177Y-121378252D01*
X134637879Y-121385781D01*
X134691652Y-121414576D01*
X134737532Y-121462493D01*
X134775558Y-121532561D01*
X134803803Y-121629098D01*
X134818794Y-121756336D01*
X134820127Y-121813024D01*
X134817614Y-121882555D01*
X134810180Y-121946807D01*
X134798543Y-122003819D01*
X134782647Y-122056370D01*
X134763109Y-122103671D01*
X134739763Y-122147091D01*
X134682017Y-122223238D01*
X134608054Y-122287932D01*
X134514597Y-122343180D01*
X134396127Y-122390073D01*
X134243673Y-122429218D01*
X134132229Y-122448928D01*
X134270507Y-122660314D01*
X134365837Y-122640400D01*
X134456318Y-122615948D01*
X134534873Y-122589333D01*
X134608903Y-122558562D01*
X134673389Y-122526141D01*
X134733626Y-122489876D01*
X134786241Y-122452155D01*
X134834811Y-122410818D01*
X134877271Y-122367889D01*
X134915796Y-122321476D01*
X134949309Y-122273011D01*
X134978889Y-122221094D01*
X135004122Y-122166377D01*
X135025306Y-122108134D01*
X135055155Y-121980402D01*
X135067480Y-121835187D01*
X135067710Y-121811198D01*
X135065210Y-121734302D01*
X135057867Y-121661522D01*
X135046005Y-121593423D01*
X135029829Y-121529707D01*
X135009839Y-121471217D01*
X134986090Y-121417310D01*
X134959329Y-121368979D01*
X134929373Y-121325357D01*
X134897202Y-121287398D01*
X134862380Y-121254213D01*
X134826000Y-121226536D01*
X134787467Y-121203665D01*
X134747777Y-121186030D01*
X134706371Y-121173255D01*
X134663933Y-121165518D01*
X134620158Y-121162757D01*
X134618108Y-121162751D01*
X134529525Y-121172372D01*
X134443109Y-121201104D01*
X134358606Y-121249424D01*
X134277106Y-121317926D01*
X134201873Y-121405533D01*
X134166759Y-121457724D01*
X134194331Y-121281240D01*
X134239550Y-121078213D01*
G37*
G36*
X136008271Y-121725866D02*
G01*
X136008271Y-121964399D01*
X136206639Y-121955271D01*
X136503278Y-121955271D01*
X136503278Y-122306999D01*
X136505996Y-122360898D01*
X136514861Y-122410213D01*
X136526849Y-122445594D01*
X136543818Y-122477823D01*
X136563543Y-122503758D01*
X136587997Y-122526986D01*
X136650374Y-122563994D01*
X136737800Y-122590343D01*
X136860516Y-122604293D01*
X136918271Y-122605543D01*
X137279179Y-122597676D01*
X137413278Y-122591016D01*
X137429630Y-122345259D01*
X137247657Y-122360598D01*
X137056203Y-122369588D01*
X136960104Y-122370819D01*
X136899281Y-122368182D01*
X136849662Y-122359883D01*
X136819035Y-122349374D01*
X136794464Y-122334967D01*
X136777998Y-122319237D01*
X136765739Y-122300259D01*
X136753352Y-122252355D01*
X136752607Y-122234129D01*
X136752607Y-121955271D01*
X137307704Y-121955271D01*
X137390069Y-121955955D01*
X137480591Y-121960748D01*
X137478766Y-121727691D01*
X137302227Y-121735073D01*
X136752607Y-121735073D01*
X136752607Y-121421844D01*
X137180301Y-121421844D01*
X137303320Y-121425544D01*
X137344139Y-121427401D01*
X137344139Y-121199901D01*
X137183981Y-121208946D01*
X137180301Y-121208950D01*
X136304910Y-121208950D01*
X136160740Y-121202215D01*
X136128371Y-121199901D01*
X136128371Y-121427401D01*
X136304910Y-121421844D01*
X136503278Y-121421844D01*
X136503278Y-121735073D01*
X136206639Y-121735073D01*
X136008271Y-121725866D01*
G37*
G36*
X137802790Y-121698956D02*
G01*
X137802790Y-121984720D01*
X138095778Y-121975592D01*
X139073091Y-121975592D01*
X139237413Y-121982070D01*
X139286065Y-121984720D01*
X139286065Y-121698956D01*
X139267978Y-121700384D01*
X139180753Y-121706590D01*
X139073091Y-121709910D01*
X138095778Y-121709910D01*
X137852961Y-121702413D01*
X137802790Y-121698956D01*
G37*
G36*
X140490878Y-121097899D02*
G01*
X140227023Y-121015504D01*
X140193010Y-121110606D01*
X140143278Y-121205934D01*
X140081501Y-121306791D01*
X139999259Y-121421769D01*
X139937618Y-121496385D01*
X139866501Y-121572620D01*
X139798184Y-121637566D01*
X139722114Y-121701832D01*
X139646777Y-121758313D01*
X139564526Y-121812944D01*
X139761068Y-121964161D01*
X139905048Y-121852543D01*
X140051673Y-121714276D01*
X140192726Y-121554815D01*
X140241549Y-121492174D01*
X140762116Y-121492174D01*
X140725495Y-121602311D01*
X140656411Y-121745520D01*
X140611378Y-121821617D01*
X140561922Y-121894943D01*
X140392180Y-121783772D01*
X140236072Y-121689034D01*
X140074139Y-121854856D01*
X140325356Y-122024472D01*
X140405387Y-122082594D01*
X140334810Y-122149334D01*
X140256341Y-122214667D01*
X140184558Y-122267030D01*
X140105861Y-122317280D01*
X140027742Y-122360693D01*
X139942834Y-122401539D01*
X139855777Y-122437470D01*
X139761749Y-122470422D01*
X139737413Y-122478060D01*
X139948561Y-122662140D01*
X140123554Y-122585439D01*
X140282771Y-122494597D01*
X140428345Y-122389407D01*
X140562376Y-122268984D01*
X140600104Y-122230239D01*
X140791169Y-122392410D01*
X140964135Y-122186501D01*
X140762116Y-122033459D01*
X140866962Y-121869358D01*
X140958693Y-121691494D01*
X141028861Y-121516311D01*
X141031449Y-121508605D01*
X141077442Y-121404928D01*
X141091539Y-121379377D01*
X140905871Y-121264595D01*
X140826984Y-121280127D01*
X140747510Y-121284677D01*
X140378081Y-121284677D01*
X140425609Y-121200248D01*
X140490878Y-121097899D01*
G37*
G36*
X141442790Y-121698956D02*
G01*
X141442790Y-121984720D01*
X141735778Y-121975592D01*
X142713091Y-121975592D01*
X142877413Y-121982070D01*
X142926065Y-121984720D01*
X142926065Y-121698956D01*
X142907978Y-121700384D01*
X142820753Y-121706590D01*
X142713091Y-121709910D01*
X141735778Y-121709910D01*
X141492961Y-121702413D01*
X141442790Y-121698956D01*
G37*
G36*
X129814921Y-98325866D02*
G01*
X129814921Y-98564399D01*
X130013289Y-98555271D01*
X130309928Y-98555271D01*
X130309928Y-98906999D01*
X130312646Y-98960898D01*
X130321511Y-99010213D01*
X130333499Y-99045594D01*
X130350468Y-99077823D01*
X130370194Y-99103758D01*
X130394648Y-99126986D01*
X130457024Y-99163994D01*
X130544450Y-99190343D01*
X130667167Y-99204293D01*
X130724921Y-99205543D01*
X131085829Y-99197676D01*
X131219928Y-99191016D01*
X131236280Y-98945259D01*
X131054307Y-98960598D01*
X130862853Y-98969588D01*
X130766754Y-98970819D01*
X130705931Y-98968182D01*
X130656312Y-98959883D01*
X130625686Y-98949374D01*
X130601114Y-98934967D01*
X130584648Y-98919237D01*
X130572389Y-98900259D01*
X130560003Y-98852355D01*
X130559257Y-98834129D01*
X130559257Y-98555271D01*
X131114354Y-98555271D01*
X131196720Y-98555955D01*
X131287242Y-98560748D01*
X131285416Y-98327691D01*
X131108877Y-98335073D01*
X130559257Y-98335073D01*
X130559257Y-98021844D01*
X130986951Y-98021844D01*
X131109971Y-98025544D01*
X131150789Y-98027401D01*
X131150789Y-97799901D01*
X130990631Y-97808946D01*
X130986951Y-97808950D01*
X130111560Y-97808950D01*
X129967391Y-97802215D01*
X129935022Y-97799901D01*
X129935022Y-98027401D01*
X130111560Y-98021844D01*
X130309928Y-98021844D01*
X130309928Y-98335073D01*
X130013289Y-98335073D01*
X129814921Y-98325866D01*
G37*
G36*
X131609441Y-98298956D02*
G01*
X131609441Y-98584720D01*
X131902428Y-98575592D01*
X132879742Y-98575592D01*
X133044063Y-98582070D01*
X133092715Y-98584720D01*
X133092715Y-98298956D01*
X133074629Y-98300384D01*
X132987404Y-98306590D01*
X132879742Y-98309910D01*
X131902428Y-98309910D01*
X131659611Y-98302413D01*
X131609441Y-98298956D01*
G37*
G36*
X134297529Y-97697899D02*
G01*
X134033673Y-97615504D01*
X133999661Y-97710606D01*
X133949928Y-97805934D01*
X133888151Y-97906791D01*
X133805910Y-98021769D01*
X133744268Y-98096385D01*
X133673151Y-98172620D01*
X133604834Y-98237566D01*
X133528764Y-98301832D01*
X133453428Y-98358313D01*
X133371177Y-98412944D01*
X133567719Y-98564161D01*
X133711699Y-98452543D01*
X133858323Y-98314276D01*
X133999376Y-98154815D01*
X134048199Y-98092174D01*
X134568766Y-98092174D01*
X134532146Y-98202311D01*
X134463062Y-98345520D01*
X134418028Y-98421617D01*
X134368573Y-98494943D01*
X134198831Y-98383772D01*
X134042722Y-98289034D01*
X133880789Y-98454856D01*
X134132006Y-98624472D01*
X134212037Y-98682594D01*
X134141460Y-98749334D01*
X134062991Y-98814667D01*
X133991208Y-98867030D01*
X133912512Y-98917280D01*
X133834393Y-98960693D01*
X133749484Y-99001539D01*
X133662428Y-99037470D01*
X133568400Y-99070422D01*
X133544064Y-99078060D01*
X133755212Y-99262140D01*
X133930205Y-99185439D01*
X134089421Y-99094597D01*
X134234995Y-98989407D01*
X134369027Y-98868984D01*
X134406754Y-98830239D01*
X134597819Y-98992410D01*
X134770786Y-98786501D01*
X134568766Y-98633459D01*
X134673612Y-98469358D01*
X134765344Y-98291494D01*
X134835511Y-98116311D01*
X134838099Y-98108605D01*
X134884092Y-98004928D01*
X134898189Y-97979377D01*
X134712522Y-97864595D01*
X134633634Y-97880127D01*
X134554161Y-97884677D01*
X134184731Y-97884677D01*
X134232259Y-97800248D01*
X134297529Y-97697899D01*
G37*
G36*
X135249441Y-98298956D02*
G01*
X135249441Y-98584720D01*
X135542428Y-98575592D01*
X136519742Y-98575592D01*
X136684063Y-98582070D01*
X136732715Y-98584720D01*
X136732715Y-98298956D01*
X136714629Y-98300384D01*
X136627404Y-98306590D01*
X136519742Y-98309910D01*
X135542428Y-98309910D01*
X135299611Y-98302413D01*
X135249441Y-98298956D01*
G37*
G36*
X138555970Y-97786565D02*
G01*
X138403086Y-97850306D01*
X138456829Y-97930331D01*
X138502413Y-98008806D01*
X138563273Y-98132419D01*
X138721634Y-98061454D01*
X138635484Y-97910982D01*
X138555970Y-97786565D01*
G37*
G36*
X138794424Y-97686468D02*
G01*
X138643366Y-97757512D01*
X138717490Y-97863326D01*
X138783577Y-97975040D01*
X138812602Y-98030497D01*
X138965486Y-97955880D01*
X138891308Y-97829084D01*
X138794424Y-97686468D01*
G37*
G36*
X137829811Y-98993284D02*
G01*
X137820829Y-99168657D01*
X137811634Y-99246185D01*
X138097318Y-99246185D01*
X138080891Y-99047449D01*
X138079141Y-98993284D01*
X138079141Y-98478194D01*
X138236590Y-98533452D01*
X138407569Y-98599287D01*
X138559987Y-98663718D01*
X138701185Y-98730341D01*
X138737986Y-98749352D01*
X138839908Y-98496371D01*
X138649103Y-98413363D01*
X138316906Y-98289875D01*
X138079141Y-98212512D01*
X138079141Y-97946752D01*
X138086808Y-97807542D01*
X138095392Y-97727442D01*
X138095493Y-97726555D01*
X137811634Y-97726555D01*
X137826166Y-97845957D01*
X137829811Y-97946752D01*
X137829811Y-98993284D01*
G37*
G36*
X139540586Y-97743462D02*
G01*
X139540586Y-97978345D01*
X139729905Y-97972867D01*
X140426931Y-97972867D01*
X140627125Y-97978345D01*
X140627125Y-97743462D01*
X140518248Y-97751213D01*
X140430582Y-97752591D01*
X139729905Y-97752591D01*
X139631137Y-97750765D01*
X139540586Y-97743462D01*
G37*
G36*
X140780009Y-98271412D02*
G01*
X140618076Y-98171315D01*
X140561872Y-98184793D01*
X140485195Y-98189493D01*
X139584324Y-98189493D01*
X139373176Y-98178618D01*
X139373176Y-98415246D01*
X139534670Y-98406692D01*
X139584324Y-98406118D01*
X140463366Y-98406118D01*
X140439418Y-98471740D01*
X140408203Y-98538925D01*
X140375690Y-98595508D01*
X140336762Y-98651492D01*
X140275873Y-98721808D01*
X140175399Y-98810484D01*
X140116012Y-98852551D01*
X140051402Y-98892032D01*
X139981333Y-98928803D01*
X139906393Y-98962270D01*
X139827296Y-98991918D01*
X139743800Y-99017625D01*
X139646160Y-99041149D01*
X139826350Y-99247375D01*
X139911965Y-99220547D01*
X139997036Y-99188200D01*
X140076111Y-99152501D01*
X140153769Y-99111501D01*
X140225325Y-99067780D01*
X140294833Y-99018993D01*
X140358546Y-98967867D01*
X140419746Y-98911885D01*
X140476067Y-98853180D01*
X140563723Y-98741619D01*
X140639201Y-98614517D01*
X140704266Y-98467912D01*
X140745479Y-98347853D01*
X140780009Y-98271412D01*
G37*
G36*
X141067598Y-98432789D02*
G01*
X141182222Y-98662115D01*
X141410799Y-98585298D01*
X141656231Y-98482688D01*
X141824715Y-98400005D01*
X141824715Y-98982409D01*
X141817437Y-99160764D01*
X141811935Y-99220784D01*
X142099524Y-99220784D01*
X142089170Y-99151280D01*
X142083172Y-98982409D01*
X142083172Y-98247122D01*
X142286505Y-98101316D01*
X142486033Y-97934144D01*
X142572702Y-97852211D01*
X142376160Y-97664718D01*
X142260510Y-97789975D01*
X142097402Y-97936741D01*
X142007455Y-98007554D01*
X141916345Y-98072417D01*
X141862896Y-98107018D01*
X141769201Y-98161355D01*
X141667089Y-98214415D01*
X141559092Y-98264591D01*
X141443290Y-98312480D01*
X141323677Y-98356234D01*
X141196969Y-98396866D01*
X141067598Y-98432789D01*
G37*
G36*
X144157502Y-97687183D02*
G01*
X144013747Y-97747273D01*
X144077670Y-97851393D01*
X144146682Y-97982646D01*
X144155677Y-98000253D01*
X144301258Y-97936512D01*
X144242943Y-97828567D01*
X144174945Y-97713890D01*
X144157502Y-97687183D01*
G37*
G36*
X144372302Y-97605264D02*
G01*
X144228467Y-97665353D01*
X144302748Y-97781557D01*
X144374127Y-97914683D01*
X144519708Y-97852846D01*
X144422904Y-97683847D01*
X144372302Y-97605264D01*
G37*
G36*
X143087395Y-98573528D02*
G01*
X143010002Y-98746176D01*
X142958592Y-98842383D01*
X142902088Y-98937123D01*
X142803457Y-99079489D01*
X143058263Y-99186889D01*
X143154055Y-99034605D01*
X143258735Y-98830884D01*
X143327596Y-98666322D01*
X143393844Y-98465759D01*
X143465590Y-98195193D01*
X143482305Y-98118528D01*
X143524105Y-97942614D01*
X143525964Y-97936512D01*
X143260282Y-97881979D01*
X143232241Y-98076803D01*
X143181264Y-98294533D01*
X143109730Y-98515732D01*
X143087395Y-98573528D01*
G37*
G36*
X143986441Y-98535346D02*
G01*
X144075907Y-98804083D01*
X144164293Y-99130160D01*
X144175680Y-99177760D01*
X144445092Y-99090443D01*
X144344303Y-98766662D01*
X144233944Y-98455253D01*
X144107341Y-98156494D01*
X144031302Y-97991803D01*
X143964612Y-97858244D01*
X143722506Y-97936512D01*
X143816102Y-98124925D01*
X143947403Y-98432220D01*
X143986441Y-98535346D01*
G37*
G36*
X144725379Y-98298956D02*
G01*
X144725379Y-98584720D01*
X145018367Y-98575592D01*
X145995680Y-98575592D01*
X146160002Y-98582070D01*
X146208654Y-98584720D01*
X146208654Y-98298956D01*
X146190567Y-98300384D01*
X146103342Y-98306590D01*
X145995680Y-98309910D01*
X145018367Y-98309910D01*
X144775550Y-98302413D01*
X144725379Y-98298956D01*
G37*
G36*
X147877804Y-64906029D02*
G01*
X147728572Y-64794899D01*
X147651559Y-64811424D01*
X147541158Y-64818633D01*
X146898665Y-64818633D01*
X146722752Y-64810248D01*
X146683945Y-64805853D01*
X146683945Y-65064390D01*
X146735166Y-65060626D01*
X146898665Y-65051610D01*
X147515677Y-65051610D01*
X147472498Y-65158421D01*
X147394833Y-65296737D01*
X147287708Y-65446682D01*
X147244439Y-65498276D01*
X147107716Y-65635586D01*
X147027332Y-65705263D01*
X146940624Y-65773307D01*
X146853336Y-65835118D01*
X146762077Y-65892968D01*
X146675643Y-65941490D01*
X146587229Y-65984732D01*
X146498278Y-66021462D01*
X146685771Y-66218322D01*
X146851993Y-66128495D01*
X147024969Y-66012529D01*
X147199012Y-65872133D01*
X147365597Y-65712540D01*
X147370017Y-65707915D01*
X147483520Y-65820289D01*
X147593206Y-65936264D01*
X147690357Y-66046489D01*
X147778469Y-66154910D01*
X147828668Y-66221973D01*
X148036165Y-66041466D01*
X147869495Y-65853421D01*
X147746739Y-65726216D01*
X147618137Y-65601274D01*
X147528378Y-65520105D01*
X147639867Y-65352986D01*
X147748824Y-65157155D01*
X147814142Y-65018906D01*
X147861120Y-64931717D01*
X147877804Y-64906029D01*
G37*
G36*
X148347410Y-65607580D02*
G01*
X148398371Y-65851432D01*
X148580387Y-65813251D01*
X149015304Y-65738635D01*
X149077219Y-66069883D01*
X149097037Y-66217404D01*
X149100874Y-66253645D01*
X149364730Y-66206336D01*
X149317420Y-66027971D01*
X149251933Y-65700374D01*
X149646843Y-65636712D01*
X149678406Y-65631677D01*
X149839813Y-65609406D01*
X149790677Y-65369126D01*
X149605010Y-65412864D01*
X149210100Y-65482003D01*
X149153661Y-65190762D01*
X149517614Y-65132577D01*
X149566773Y-65125822D01*
X149685103Y-65110748D01*
X149641366Y-64872293D01*
X149470304Y-64910554D01*
X149111829Y-64970564D01*
X149082697Y-64803154D01*
X149068430Y-64706138D01*
X149062614Y-64661145D01*
X148806061Y-64703057D01*
X148806797Y-64705588D01*
X148842417Y-64841336D01*
X148875200Y-65006999D01*
X148514820Y-65059786D01*
X148345584Y-65072487D01*
X148394719Y-65323642D01*
X148522795Y-65293917D01*
X148562130Y-65285461D01*
X148918859Y-65227197D01*
X148973471Y-65520184D01*
X148536649Y-65587577D01*
X148512960Y-65590545D01*
X148347410Y-65607580D01*
G37*
G36*
X150919049Y-65057405D02*
G01*
X150702503Y-65128449D01*
X150764596Y-65277541D01*
X150811717Y-65407987D01*
X150845905Y-65517026D01*
X150849910Y-65532488D01*
X151068281Y-65456046D01*
X151005199Y-65276382D01*
X150919049Y-65057405D01*
G37*
G36*
X151590594Y-65190285D02*
G01*
X151335788Y-65108366D01*
X151310624Y-65266703D01*
X151264779Y-65427797D01*
X151235214Y-65504203D01*
X151201547Y-65576762D01*
X151165936Y-65641354D01*
X151127123Y-65700638D01*
X151102890Y-65732682D01*
X151015397Y-65826846D01*
X150904014Y-65918059D01*
X150771506Y-66001576D01*
X150626300Y-66070432D01*
X150498658Y-66113065D01*
X150689723Y-66307782D01*
X150764255Y-66277008D01*
X150839277Y-66240434D01*
X150913523Y-66198484D01*
X150986918Y-66150959D01*
X151056715Y-66099561D01*
X151124477Y-66043035D01*
X151186879Y-65984175D01*
X151246326Y-65920724D01*
X151299433Y-65856433D01*
X151382961Y-65732575D01*
X151455537Y-65590379D01*
X151516501Y-65428894D01*
X151546936Y-65323166D01*
X151550505Y-65311246D01*
X151590594Y-65190285D01*
G37*
G36*
X150496832Y-65153930D02*
G01*
X150278381Y-65232197D01*
X150328622Y-65342164D01*
X150421521Y-65585614D01*
X150444045Y-65652588D01*
X150666068Y-65568843D01*
X150556627Y-65289180D01*
X150496832Y-65153930D01*
G37*
G36*
X153061168Y-64786564D02*
G01*
X152908285Y-64850305D01*
X152962027Y-64930330D01*
X153007612Y-65008805D01*
X153068471Y-65132418D01*
X153226832Y-65061453D01*
X153140683Y-64910981D01*
X153061168Y-64786564D01*
G37*
G36*
X153299623Y-64686467D02*
G01*
X153148565Y-64757511D01*
X153222689Y-64863325D01*
X153288776Y-64975039D01*
X153317800Y-65030496D01*
X153470684Y-64955879D01*
X153396507Y-64829083D01*
X153299623Y-64686467D01*
G37*
G36*
X152335010Y-65993283D02*
G01*
X152326028Y-66168656D01*
X152316832Y-66246184D01*
X152602517Y-66246184D01*
X152586089Y-66047448D01*
X152584339Y-65993283D01*
X152584339Y-65478193D01*
X152741788Y-65533451D01*
X152912767Y-65599286D01*
X153065185Y-65663717D01*
X153206384Y-65730340D01*
X153243184Y-65749351D01*
X153345107Y-65496370D01*
X153154301Y-65413362D01*
X152822104Y-65289874D01*
X152584339Y-65212511D01*
X152584339Y-64946751D01*
X152592006Y-64807541D01*
X152600591Y-64727441D01*
X152600691Y-64726554D01*
X152316832Y-64726554D01*
X152331365Y-64845956D01*
X152335010Y-64946751D01*
X152335010Y-65993283D01*
G37*
G36*
X157980204Y-122539500D02*
G01*
X158222230Y-122539500D01*
X158222230Y-121978132D01*
X158213962Y-121806533D01*
X158194443Y-121602831D01*
X158187700Y-121537261D01*
X158194924Y-121537261D01*
X158302324Y-121852554D01*
X158511646Y-122417573D01*
X158666355Y-122417573D01*
X158873773Y-121852554D01*
X158982998Y-121537261D01*
X158992126Y-121537261D01*
X158969345Y-121756774D01*
X158960871Y-121872398D01*
X158957517Y-121977655D01*
X158957517Y-122539500D01*
X159203195Y-122539500D01*
X159203195Y-121193233D01*
X158904730Y-121193233D01*
X158679056Y-121825407D01*
X158641965Y-121944259D01*
X158598963Y-122080927D01*
X158589913Y-122080927D01*
X158507994Y-121825407D01*
X158278669Y-121193233D01*
X157980204Y-121193233D01*
X157980204Y-122539500D01*
G37*
G36*
X159444824Y-122539500D02*
G01*
X160347601Y-122539500D01*
X160347601Y-122313825D01*
X160056360Y-122313825D01*
X159905151Y-122322256D01*
X159834337Y-122330257D01*
X159934227Y-122227988D01*
X160026603Y-122124014D01*
X160091282Y-122042742D01*
X160148655Y-121961104D01*
X160190344Y-121892392D01*
X160225277Y-121823794D01*
X160249646Y-121764230D01*
X160267848Y-121704997D01*
X160278520Y-121652328D01*
X160283516Y-121600096D01*
X160283860Y-121582666D01*
X160281349Y-121530740D01*
X160273936Y-121481594D01*
X160261993Y-121435994D01*
X160245622Y-121393414D01*
X160225229Y-121354398D01*
X160200831Y-121318645D01*
X160140978Y-121257765D01*
X160066964Y-121211500D01*
X159979357Y-121181049D01*
X159878695Y-121168135D01*
X159859818Y-121167832D01*
X159801797Y-121170362D01*
X159747793Y-121177915D01*
X159699310Y-121189811D01*
X159653545Y-121206215D01*
X159567414Y-121252911D01*
X159480763Y-121322722D01*
X159430298Y-121373502D01*
X159579531Y-121517258D01*
X159626820Y-121469293D01*
X159678333Y-121428205D01*
X159715554Y-121406219D01*
X159754964Y-121390050D01*
X159789269Y-121381849D01*
X159825208Y-121378980D01*
X159862479Y-121381485D01*
X159896223Y-121388859D01*
X159925204Y-121400322D01*
X159950754Y-121415891D01*
X159990692Y-121457821D01*
X160016668Y-121514726D01*
X160027151Y-121588033D01*
X160027228Y-121595446D01*
X160017190Y-121676381D01*
X159985073Y-121767326D01*
X159925707Y-121873065D01*
X159830908Y-121999567D01*
X159688483Y-122155293D01*
X159479055Y-122354201D01*
X159444824Y-122384869D01*
X159444824Y-122539500D01*
G37*
G36*
X162044643Y-121241098D02*
G01*
X162021666Y-121266098D01*
X161982807Y-121317540D01*
X161943617Y-121390132D01*
X161898616Y-121485109D01*
X161800791Y-121710545D01*
X161824578Y-121714432D01*
X161916377Y-121733382D01*
X162005347Y-121757537D01*
X162103217Y-121790471D01*
X162195701Y-121827629D01*
X162201178Y-121765396D01*
X162204607Y-121702276D01*
X162201178Y-121565996D01*
X162439553Y-121593461D01*
X162428272Y-121750120D01*
X162405023Y-121931854D01*
X162511252Y-121995873D01*
X162599740Y-122054415D01*
X162494166Y-122308507D01*
X162419331Y-122243942D01*
X162337710Y-122180627D01*
X162283749Y-122296247D01*
X162213046Y-122403541D01*
X162171326Y-122453164D01*
X162124852Y-122500469D01*
X162072416Y-122546291D01*
X162014492Y-122589872D01*
X161948223Y-122632843D01*
X161875407Y-122673571D01*
X161682516Y-122515924D01*
X161685294Y-122514724D01*
X161755130Y-122481705D01*
X161818279Y-122446338D01*
X161876487Y-122407879D01*
X161928380Y-122367507D01*
X161976419Y-122323424D01*
X162018344Y-122277876D01*
X162057291Y-122227351D01*
X162090123Y-122175908D01*
X162120623Y-122117011D01*
X162144740Y-122058066D01*
X162003194Y-121989912D01*
X161857709Y-121939907D01*
X161713395Y-121909945D01*
X161707788Y-121923254D01*
X161667077Y-122019468D01*
X161571391Y-122231855D01*
X161507724Y-122348514D01*
X161504435Y-122353475D01*
X161447441Y-122422973D01*
X161385847Y-122469718D01*
X161351242Y-122486364D01*
X161314197Y-122498309D01*
X161270766Y-122506131D01*
X161223865Y-122508700D01*
X161148755Y-122499936D01*
X161080190Y-122473196D01*
X161023744Y-122430258D01*
X161000515Y-122403117D01*
X160980868Y-122372304D01*
X160965036Y-122337841D01*
X160953360Y-122299948D01*
X160946071Y-122258371D01*
X160943578Y-122213570D01*
X160943631Y-122206541D01*
X160945515Y-122178802D01*
X161156472Y-122178802D01*
X161156730Y-122187663D01*
X161160532Y-122211984D01*
X161168422Y-122232124D01*
X161180103Y-122248359D01*
X161194810Y-122260146D01*
X161212900Y-122267714D01*
X161232914Y-122270246D01*
X161234844Y-122270229D01*
X161255457Y-122267525D01*
X161274381Y-122259900D01*
X161300490Y-122239339D01*
X161327613Y-122206267D01*
X161360237Y-122153140D01*
X161393429Y-122088583D01*
X161461520Y-121938698D01*
X161475020Y-121908120D01*
X161416397Y-121920173D01*
X161367631Y-121935600D01*
X161323613Y-121954746D01*
X161284282Y-121977253D01*
X161249984Y-122002554D01*
X161221119Y-122029868D01*
X161197416Y-122058981D01*
X161166503Y-122119097D01*
X161156472Y-122178802D01*
X160945515Y-122178802D01*
X160946924Y-122158068D01*
X160955210Y-122111142D01*
X160968599Y-122065109D01*
X160986803Y-122021003D01*
X161010223Y-121978036D01*
X161038298Y-121937431D01*
X161071665Y-121898482D01*
X161109497Y-121862382D01*
X161152488Y-121828676D01*
X161199684Y-121798331D01*
X161251599Y-121771204D01*
X161307374Y-121747945D01*
X161367150Y-121728659D01*
X161430362Y-121713712D01*
X161496698Y-121703323D01*
X161565988Y-121697686D01*
X161612749Y-121587425D01*
X161711569Y-121366676D01*
X161607339Y-121371256D01*
X161398578Y-121381202D01*
X161251171Y-121395887D01*
X161242043Y-121161005D01*
X161393101Y-121170134D01*
X161513299Y-121167700D01*
X161775310Y-121153702D01*
X161821889Y-121148921D01*
X161899062Y-121128222D01*
X162044643Y-121241098D01*
G37*
G36*
X164079442Y-121051065D02*
G01*
X163944736Y-121107345D01*
X164027394Y-121240859D01*
X164086666Y-121358103D01*
X164223198Y-121298013D01*
X164150610Y-121164843D01*
X164079442Y-121051065D01*
G37*
G36*
X164279636Y-120969384D02*
G01*
X164146756Y-121029315D01*
X164198821Y-121102883D01*
X164244354Y-121177131D01*
X164295988Y-121274358D01*
X164432520Y-121209029D01*
X164326080Y-121035799D01*
X164279636Y-120969384D01*
G37*
G36*
X163220404Y-122046080D02*
G01*
X162994729Y-122004168D01*
X162964276Y-122069489D01*
X162938281Y-122138576D01*
X162920487Y-122213825D01*
X162914636Y-122297632D01*
X162918133Y-122343692D01*
X162926524Y-122386374D01*
X162939138Y-122424381D01*
X162956092Y-122459360D01*
X163002222Y-122520067D01*
X163066166Y-122570678D01*
X163151189Y-122611789D01*
X163262008Y-122642439D01*
X163404313Y-122660351D01*
X163509740Y-122663648D01*
X163745813Y-122654246D01*
X163952039Y-122630865D01*
X163964740Y-122397808D01*
X163792293Y-122424290D01*
X163573782Y-122437248D01*
X163507914Y-122437894D01*
X163422941Y-122435305D01*
X163348905Y-122427338D01*
X163295648Y-122416379D01*
X163250120Y-122401309D01*
X163217326Y-122385009D01*
X163190280Y-122365462D01*
X163170977Y-122345121D01*
X163156339Y-122322013D01*
X163141388Y-122269382D01*
X163140310Y-122248417D01*
X163149647Y-122180429D01*
X163177809Y-122112214D01*
X163220404Y-122046080D01*
G37*
G36*
X162870978Y-121623705D02*
G01*
X162883678Y-121838345D01*
X163249446Y-121850647D01*
X163436989Y-121849734D01*
X163610739Y-121843821D01*
X163673578Y-121840171D01*
X163721801Y-121934265D01*
X163775501Y-122029728D01*
X163648861Y-122017463D01*
X163548001Y-122007819D01*
X163529743Y-122182771D01*
X163729899Y-122204975D01*
X163923619Y-122232456D01*
X163961088Y-122239288D01*
X164070314Y-122073466D01*
X164027628Y-122029268D01*
X163990343Y-121981461D01*
X163988395Y-121978687D01*
X163942281Y-121903364D01*
X163897402Y-121820107D01*
X163895601Y-121816516D01*
X164115943Y-121777209D01*
X164186763Y-121760078D01*
X164150407Y-121543612D01*
X163999111Y-121584323D01*
X163907530Y-121603477D01*
X163802807Y-121619498D01*
X163771849Y-121534324D01*
X163744543Y-121447245D01*
X163924317Y-121417233D01*
X164001175Y-121399936D01*
X163972043Y-121190852D01*
X163875909Y-121217036D01*
X163758519Y-121240069D01*
X163691756Y-121248957D01*
X163661529Y-121088722D01*
X163657147Y-121058368D01*
X163413294Y-121085595D01*
X163471559Y-121265309D01*
X163342832Y-121266961D01*
X163205513Y-121263440D01*
X162903682Y-121239828D01*
X162916462Y-121447245D01*
X163213188Y-121466582D01*
X163356298Y-121468720D01*
X163488730Y-121465922D01*
X163529743Y-121463994D01*
X163566178Y-121575442D01*
X163588007Y-121638231D01*
X163449405Y-121644451D01*
X163298858Y-121645846D01*
X163141459Y-121641992D01*
X162975074Y-121632439D01*
X162870978Y-121623705D01*
G37*
G36*
X165098271Y-121725866D02*
G01*
X165098271Y-121964399D01*
X165296639Y-121955271D01*
X165593278Y-121955271D01*
X165593278Y-122306999D01*
X165595996Y-122360898D01*
X165604861Y-122410213D01*
X165616849Y-122445594D01*
X165633818Y-122477823D01*
X165653543Y-122503758D01*
X165677997Y-122526986D01*
X165740374Y-122563994D01*
X165827800Y-122590343D01*
X165950516Y-122604293D01*
X166008271Y-122605543D01*
X166369179Y-122597676D01*
X166503278Y-122591016D01*
X166519630Y-122345259D01*
X166337657Y-122360598D01*
X166146203Y-122369588D01*
X166050104Y-122370819D01*
X165989281Y-122368182D01*
X165939662Y-122359883D01*
X165909035Y-122349374D01*
X165884464Y-122334967D01*
X165867998Y-122319237D01*
X165855739Y-122300259D01*
X165843352Y-122252355D01*
X165842607Y-122234129D01*
X165842607Y-121955271D01*
X166397704Y-121955271D01*
X166480069Y-121955955D01*
X166570591Y-121960748D01*
X166568766Y-121727691D01*
X166392227Y-121735073D01*
X165842607Y-121735073D01*
X165842607Y-121421844D01*
X166270301Y-121421844D01*
X166393320Y-121425544D01*
X166434139Y-121427401D01*
X166434139Y-121199901D01*
X166273981Y-121208946D01*
X166270301Y-121208950D01*
X165394910Y-121208950D01*
X165250740Y-121202215D01*
X165218371Y-121199901D01*
X165218371Y-121427401D01*
X165394910Y-121421844D01*
X165593278Y-121421844D01*
X165593278Y-121735073D01*
X165296639Y-121735073D01*
X165098271Y-121725866D01*
G37*
G36*
X166892790Y-121698956D02*
G01*
X166892790Y-121984720D01*
X167185778Y-121975592D01*
X168163091Y-121975592D01*
X168327413Y-121982070D01*
X168376065Y-121984720D01*
X168376065Y-121698956D01*
X168357978Y-121700384D01*
X168270753Y-121706590D01*
X168163091Y-121709910D01*
X167185778Y-121709910D01*
X166942961Y-121702413D01*
X166892790Y-121698956D01*
G37*
G36*
X169580878Y-121097899D02*
G01*
X169317023Y-121015504D01*
X169283010Y-121110606D01*
X169233278Y-121205934D01*
X169171501Y-121306791D01*
X169089259Y-121421769D01*
X169027618Y-121496385D01*
X168956501Y-121572620D01*
X168888184Y-121637566D01*
X168812114Y-121701832D01*
X168736777Y-121758313D01*
X168654526Y-121812944D01*
X168851068Y-121964161D01*
X168995048Y-121852543D01*
X169141673Y-121714276D01*
X169282726Y-121554815D01*
X169331549Y-121492174D01*
X169852116Y-121492174D01*
X169815495Y-121602311D01*
X169746411Y-121745520D01*
X169701378Y-121821617D01*
X169651922Y-121894943D01*
X169482180Y-121783772D01*
X169326072Y-121689034D01*
X169164139Y-121854856D01*
X169415356Y-122024472D01*
X169495387Y-122082594D01*
X169424810Y-122149334D01*
X169346341Y-122214667D01*
X169274558Y-122267030D01*
X169195861Y-122317280D01*
X169117742Y-122360693D01*
X169032834Y-122401539D01*
X168945777Y-122437470D01*
X168851749Y-122470422D01*
X168827413Y-122478060D01*
X169038561Y-122662140D01*
X169213554Y-122585439D01*
X169372771Y-122494597D01*
X169518345Y-122389407D01*
X169652376Y-122268984D01*
X169690104Y-122230239D01*
X169881169Y-122392410D01*
X170054135Y-122186501D01*
X169852116Y-122033459D01*
X169956962Y-121869358D01*
X170048693Y-121691494D01*
X170118861Y-121516311D01*
X170121449Y-121508605D01*
X170167442Y-121404928D01*
X170181539Y-121379377D01*
X169995871Y-121264595D01*
X169916984Y-121280127D01*
X169837510Y-121284677D01*
X169468081Y-121284677D01*
X169515609Y-121200248D01*
X169580878Y-121097899D01*
G37*
G36*
X170532790Y-121698956D02*
G01*
X170532790Y-121984720D01*
X170825778Y-121975592D01*
X171803091Y-121975592D01*
X171967413Y-121982070D01*
X172016065Y-121984720D01*
X172016065Y-121698956D01*
X171997978Y-121700384D01*
X171910753Y-121706590D01*
X171803091Y-121709910D01*
X170825778Y-121709910D01*
X170582961Y-121702413D01*
X170532790Y-121698956D01*
G37*
G36*
X126192460Y-63227861D02*
G01*
X126289515Y-63254890D01*
X126376646Y-63298817D01*
X126454218Y-63359999D01*
X126489403Y-63397401D01*
X126522252Y-63439820D01*
X126552577Y-63487492D01*
X126580123Y-63540561D01*
X126604933Y-63599920D01*
X126626447Y-63665183D01*
X126644730Y-63737887D01*
X126659124Y-63817112D01*
X126468455Y-63937292D01*
X126446976Y-63811828D01*
X126429896Y-63751528D01*
X126409444Y-63697097D01*
X126386013Y-63648575D01*
X126359824Y-63605594D01*
X126330997Y-63567809D01*
X126299973Y-63535345D01*
X126266422Y-63507596D01*
X126231218Y-63485067D01*
X126193515Y-63467141D01*
X126154734Y-63454439D01*
X126113705Y-63446602D01*
X126072275Y-63444031D01*
X126037675Y-63446204D01*
X125968989Y-63464858D01*
X125937500Y-63481149D01*
X125908090Y-63502089D01*
X125880980Y-63527730D01*
X125856536Y-63558012D01*
X125834828Y-63593326D01*
X125816437Y-63633350D01*
X125824039Y-63636378D01*
X125910478Y-63673967D01*
X125991814Y-63715021D01*
X126070507Y-63760626D01*
X126143258Y-63808721D01*
X126210903Y-63859534D01*
X126271919Y-63911615D01*
X126371931Y-64015560D01*
X126506637Y-63973647D01*
X126570299Y-64182970D01*
X126495762Y-64206625D01*
X126529195Y-64284422D01*
X126558971Y-64390352D01*
X126568552Y-64488737D01*
X126564465Y-64539183D01*
X126544208Y-64604924D01*
X126508666Y-64658040D01*
X126485385Y-64679772D01*
X126458067Y-64698354D01*
X126426581Y-64713464D01*
X126390873Y-64724737D01*
X126349959Y-64731935D01*
X126304459Y-64734415D01*
X126256184Y-64731772D01*
X126205105Y-64723403D01*
X126154328Y-64709593D01*
X126101403Y-64689444D01*
X126049500Y-64663911D01*
X125996975Y-64632007D01*
X125946335Y-64595040D01*
X125897131Y-64552607D01*
X125850712Y-64505742D01*
X125768334Y-64400993D01*
X125706513Y-64292195D01*
X125920582Y-64292195D01*
X125955269Y-64338399D01*
X125994011Y-64381455D01*
X126035071Y-64419580D01*
X126117734Y-64477438D01*
X126193348Y-64509862D01*
X126256911Y-64519695D01*
X126271269Y-64519135D01*
X126311635Y-64508187D01*
X126325859Y-64497535D01*
X126336418Y-64483222D01*
X126343926Y-64462170D01*
X126346450Y-64435950D01*
X126346299Y-64428518D01*
X126341442Y-64390162D01*
X126330039Y-64348437D01*
X126311312Y-64301835D01*
X126286201Y-64253934D01*
X126128832Y-64276894D01*
X125920582Y-64292195D01*
X125706513Y-64292195D01*
X125703401Y-64286718D01*
X125472647Y-64270366D01*
X125472647Y-64328551D01*
X125463884Y-64602825D01*
X125461772Y-64650670D01*
X125250545Y-64656147D01*
X125267983Y-64499592D01*
X125276105Y-64321248D01*
X125276105Y-64248457D01*
X125177595Y-64237582D01*
X125154263Y-64236229D01*
X125068608Y-64233931D01*
X125074085Y-63997302D01*
X125142873Y-64015751D01*
X125170531Y-64022783D01*
X125269437Y-64041040D01*
X125261863Y-63906178D01*
X125234664Y-63657348D01*
X125189502Y-63422202D01*
X125400491Y-63420376D01*
X125421602Y-63554648D01*
X125439012Y-63703771D01*
X125454238Y-63884530D01*
X125464233Y-64066521D01*
X125632437Y-64079221D01*
X125609055Y-63948385D01*
X125601483Y-63835369D01*
X125785320Y-63835369D01*
X125793570Y-63942306D01*
X125807243Y-64017980D01*
X125825565Y-64086524D01*
X125831043Y-64086524D01*
X125918775Y-64084960D01*
X126029410Y-64078173D01*
X126132603Y-64066521D01*
X126035479Y-63980531D01*
X125918983Y-63901624D01*
X125785320Y-63835369D01*
X125601483Y-63835369D01*
X125599653Y-63808063D01*
X125599653Y-63775280D01*
X125489237Y-63758927D01*
X125542659Y-63536905D01*
X125636088Y-63569609D01*
X125642567Y-63550815D01*
X125688669Y-63452229D01*
X125748410Y-63369767D01*
X125819396Y-63304566D01*
X125899689Y-63257237D01*
X125987938Y-63228257D01*
X126034717Y-63220865D01*
X126083309Y-63218357D01*
X126192460Y-63227861D01*
G37*
G36*
X125272374Y-61613156D02*
G01*
X125365406Y-61829702D01*
X125465502Y-61761150D01*
X125615749Y-61682046D01*
X125811685Y-61600308D01*
X125918561Y-61563391D01*
X126017490Y-61534344D01*
X126059257Y-61523934D01*
X125951302Y-61292783D01*
X125767959Y-61360514D01*
X125636300Y-61417086D01*
X125503520Y-61479957D01*
X125393593Y-61537774D01*
X125300193Y-61594019D01*
X125272374Y-61613156D01*
G37*
G36*
X125474711Y-62978156D02*
G01*
X125721579Y-62956248D01*
X125707619Y-62864756D01*
X125690463Y-62754228D01*
X125672205Y-62597773D01*
X125812517Y-62637313D01*
X125966552Y-62687456D01*
X126095427Y-62735431D01*
X126223965Y-62789966D01*
X126325359Y-62839033D01*
X126421573Y-62892255D01*
X126532355Y-62965376D01*
X126626896Y-62728748D01*
X126476625Y-62645877D01*
X126275385Y-62556977D01*
X126022455Y-62465551D01*
X125734250Y-62379850D01*
X125647677Y-62357493D01*
X125645942Y-62333609D01*
X125640295Y-62231915D01*
X125643748Y-62168167D01*
X125657757Y-62118175D01*
X125670306Y-62098635D01*
X125687465Y-62082653D01*
X125733240Y-62062748D01*
X125806832Y-62055376D01*
X125912864Y-62057929D01*
X126021161Y-62065636D01*
X126120564Y-62077837D01*
X126210693Y-62094846D01*
X126267079Y-62110215D01*
X126313587Y-62128167D01*
X126338881Y-62143137D01*
X126358555Y-62160648D01*
X126382764Y-62201481D01*
X126392021Y-62255434D01*
X126392172Y-62264699D01*
X126383325Y-62351598D01*
X126353832Y-62488547D01*
X126594192Y-62448540D01*
X126609236Y-62361425D01*
X126618690Y-62266276D01*
X126619672Y-62230089D01*
X126616986Y-62172752D01*
X126608344Y-62119933D01*
X126596354Y-62080493D01*
X126579398Y-62044188D01*
X126559570Y-62014336D01*
X126535028Y-61987121D01*
X126506504Y-61963364D01*
X126472953Y-61942168D01*
X126452262Y-61931625D01*
X126356213Y-61894876D01*
X126216414Y-61862483D01*
X126028887Y-61838479D01*
X125806265Y-61827989D01*
X125781193Y-61827876D01*
X125722355Y-61830377D01*
X125669847Y-61837724D01*
X125625805Y-61848905D01*
X125586947Y-61864005D01*
X125554189Y-61882081D01*
X125525832Y-61903434D01*
X125481568Y-61955170D01*
X125451452Y-62020868D01*
X125435240Y-62104259D01*
X125432878Y-62157299D01*
X125438665Y-62286260D01*
X125440101Y-62310183D01*
X125252291Y-62272001D01*
X125100915Y-62239218D01*
X125073530Y-62510376D01*
X125237909Y-62517388D01*
X125442944Y-62545976D01*
X125457406Y-62548637D01*
X125473837Y-62783360D01*
X125474777Y-62806061D01*
X125477491Y-62892337D01*
X125474711Y-62978156D01*
G37*
G36*
X131301665Y-64710760D02*
G01*
X131527418Y-64710760D01*
X131542445Y-64457826D01*
X131543770Y-64395943D01*
X131690111Y-64433103D01*
X131841081Y-64477758D01*
X131962213Y-64519359D01*
X132075900Y-64564973D01*
X132156972Y-64603360D01*
X132233494Y-64388640D01*
X132218965Y-64380169D01*
X132153321Y-64337679D01*
X132083210Y-64269731D01*
X132024929Y-64185300D01*
X131980155Y-64084847D01*
X131951098Y-63969663D01*
X131940073Y-63842241D01*
X131940030Y-63833544D01*
X131942505Y-63784377D01*
X131949667Y-63740015D01*
X131960908Y-63701098D01*
X131975933Y-63666905D01*
X131994063Y-63637889D01*
X132015143Y-63613525D01*
X132038618Y-63593989D01*
X132064297Y-63579101D01*
X132121187Y-63563374D01*
X132140541Y-63562385D01*
X132176056Y-63564886D01*
X132208866Y-63572232D01*
X132266090Y-63600150D01*
X132314882Y-63646108D01*
X132356207Y-63712785D01*
X132389104Y-63804391D01*
X132410963Y-63925158D01*
X132418081Y-64077427D01*
X132406572Y-64258969D01*
X132392093Y-64363160D01*
X132626896Y-64299419D01*
X132636885Y-64184234D01*
X132641110Y-64074577D01*
X132639757Y-63977122D01*
X132633186Y-63885139D01*
X132622307Y-63804664D01*
X132606778Y-63729434D01*
X132588133Y-63664458D01*
X132565374Y-63604409D01*
X132540421Y-63553059D01*
X132511815Y-63506311D01*
X132481523Y-63466661D01*
X132447929Y-63431356D01*
X132412652Y-63401754D01*
X132374290Y-63376365D01*
X132333743Y-63355713D01*
X132290190Y-63339311D01*
X132193845Y-63319675D01*
X132133238Y-63316628D01*
X132088134Y-63319141D01*
X132045167Y-63326571D01*
X132004737Y-63338659D01*
X131966686Y-63355279D01*
X131897988Y-63401709D01*
X131839725Y-63465575D01*
X131793278Y-63546982D01*
X131760749Y-63645898D01*
X131744710Y-63761712D01*
X131743488Y-63806237D01*
X131746096Y-63882871D01*
X131754191Y-63957047D01*
X131766713Y-64023128D01*
X131784452Y-64088168D01*
X131806844Y-64150479D01*
X131834677Y-64212698D01*
X131858190Y-64257586D01*
X131632832Y-64197453D01*
X131539722Y-64175667D01*
X131514285Y-63857670D01*
X131467823Y-63493175D01*
X131461454Y-63453160D01*
X131244750Y-63456811D01*
X131289182Y-63707559D01*
X131321493Y-63996981D01*
X131330400Y-64130183D01*
X131273961Y-64119308D01*
X131232613Y-64110853D01*
X131087341Y-64077396D01*
X131076467Y-64334028D01*
X131150659Y-64332653D01*
X131230910Y-64339149D01*
X131261499Y-64343156D01*
X131336353Y-64354031D01*
X131324290Y-64541752D01*
X131301665Y-64710760D01*
G37*
G36*
X131628229Y-62168253D02*
G01*
X131509796Y-62006241D01*
X131428003Y-62090168D01*
X131334607Y-62206434D01*
X131453199Y-62366621D01*
X131543897Y-62256048D01*
X131628229Y-62168253D01*
G37*
G36*
X131913041Y-62908938D02*
G01*
X132134191Y-62805190D01*
X132072210Y-62678952D01*
X131999088Y-62532206D01*
X132101407Y-62486721D01*
X132399598Y-62377874D01*
X132557763Y-62327960D01*
X132704052Y-62288353D01*
X132649439Y-62059028D01*
X132453160Y-62123488D01*
X132223683Y-62204235D01*
X132013773Y-62286528D01*
X131905738Y-62333838D01*
X131850752Y-62199836D01*
X131807279Y-62072965D01*
X131788682Y-62000409D01*
X131778717Y-61935797D01*
X131777462Y-61907970D01*
X131779900Y-61870890D01*
X131786809Y-61838520D01*
X131797635Y-61810709D01*
X131811737Y-61787582D01*
X131828801Y-61768833D01*
X131847962Y-61754857D01*
X131891111Y-61740970D01*
X131900182Y-61740560D01*
X131932290Y-61743103D01*
X131961524Y-61750744D01*
X131985794Y-61762407D01*
X132007066Y-61778486D01*
X132024504Y-61798195D01*
X132038689Y-61822039D01*
X132056535Y-61883181D01*
X132059575Y-61927973D01*
X132050174Y-62009555D01*
X132018671Y-62113477D01*
X132010121Y-62133644D01*
X132219682Y-62139121D01*
X132237329Y-62085163D01*
X132253348Y-62018619D01*
X132261899Y-61964447D01*
X132265166Y-61911621D01*
X132262652Y-61850650D01*
X132255213Y-61795018D01*
X132243754Y-61747135D01*
X132228140Y-61703927D01*
X132209380Y-61666811D01*
X132187037Y-61633888D01*
X132161749Y-61605611D01*
X132133236Y-61581265D01*
X132066196Y-61543844D01*
X131983854Y-61521278D01*
X131900182Y-61514885D01*
X131859690Y-61517439D01*
X131819669Y-61525158D01*
X131781676Y-61537732D01*
X131745240Y-61555371D01*
X131712232Y-61577145D01*
X131681651Y-61603729D01*
X131655027Y-61633836D01*
X131631516Y-61668499D01*
X131612084Y-61706544D01*
X131596379Y-61748991D01*
X131584941Y-61795120D01*
X131577864Y-61845621D01*
X131575522Y-61898841D01*
X131585019Y-61995562D01*
X131617865Y-62128214D01*
X131682764Y-62312611D01*
X131724754Y-62417582D01*
X131586397Y-62486721D01*
X131478759Y-62541334D01*
X131566393Y-62767008D01*
X131643119Y-62711238D01*
X131691971Y-62681438D01*
X131810483Y-62617776D01*
X131863588Y-62747005D01*
X131898701Y-62853787D01*
X131913041Y-62908938D01*
G37*
G36*
X143301665Y-64710760D02*
G01*
X143527418Y-64710760D01*
X143542445Y-64457826D01*
X143543770Y-64395943D01*
X143690111Y-64433103D01*
X143841081Y-64477758D01*
X143962213Y-64519359D01*
X144075900Y-64564973D01*
X144156972Y-64603360D01*
X144233494Y-64388640D01*
X144218965Y-64380169D01*
X144153321Y-64337679D01*
X144083210Y-64269731D01*
X144024929Y-64185300D01*
X143980155Y-64084847D01*
X143951098Y-63969663D01*
X143940073Y-63842241D01*
X143940030Y-63833544D01*
X143942505Y-63784377D01*
X143949667Y-63740015D01*
X143960908Y-63701098D01*
X143975933Y-63666905D01*
X143994063Y-63637889D01*
X144015143Y-63613525D01*
X144038618Y-63593989D01*
X144064297Y-63579101D01*
X144121187Y-63563374D01*
X144140541Y-63562385D01*
X144176056Y-63564886D01*
X144208866Y-63572232D01*
X144266090Y-63600150D01*
X144314882Y-63646108D01*
X144356207Y-63712785D01*
X144389104Y-63804391D01*
X144410963Y-63925158D01*
X144418081Y-64077427D01*
X144406572Y-64258969D01*
X144392093Y-64363160D01*
X144626896Y-64299419D01*
X144636885Y-64184234D01*
X144641110Y-64074577D01*
X144639757Y-63977122D01*
X144633186Y-63885139D01*
X144622307Y-63804664D01*
X144606778Y-63729434D01*
X144588133Y-63664458D01*
X144565374Y-63604409D01*
X144540421Y-63553059D01*
X144511815Y-63506311D01*
X144481523Y-63466661D01*
X144447929Y-63431356D01*
X144412652Y-63401754D01*
X144374290Y-63376365D01*
X144333743Y-63355713D01*
X144290190Y-63339311D01*
X144193845Y-63319675D01*
X144133238Y-63316628D01*
X144088134Y-63319141D01*
X144045167Y-63326571D01*
X144004737Y-63338659D01*
X143966686Y-63355279D01*
X143897988Y-63401709D01*
X143839725Y-63465575D01*
X143793278Y-63546982D01*
X143760749Y-63645898D01*
X143744710Y-63761712D01*
X143743488Y-63806237D01*
X143746096Y-63882871D01*
X143754191Y-63957047D01*
X143766713Y-64023128D01*
X143784452Y-64088168D01*
X143806844Y-64150479D01*
X143834677Y-64212698D01*
X143858190Y-64257586D01*
X143632832Y-64197453D01*
X143539722Y-64175667D01*
X143514285Y-63857670D01*
X143467823Y-63493175D01*
X143461454Y-63453160D01*
X143244750Y-63456811D01*
X143289182Y-63707559D01*
X143321493Y-63996981D01*
X143330400Y-64130183D01*
X143273961Y-64119308D01*
X143232613Y-64110853D01*
X143087341Y-64077396D01*
X143076467Y-64334028D01*
X143150659Y-64332653D01*
X143230910Y-64339149D01*
X143261499Y-64343156D01*
X143336353Y-64354031D01*
X143324290Y-64541752D01*
X143301665Y-64710760D01*
G37*
G36*
X143628229Y-62168253D02*
G01*
X143509796Y-62006241D01*
X143428003Y-62090168D01*
X143334607Y-62206434D01*
X143453199Y-62366621D01*
X143543897Y-62256048D01*
X143628229Y-62168253D01*
G37*
G36*
X143913041Y-62908938D02*
G01*
X144134191Y-62805190D01*
X144072210Y-62678952D01*
X143999088Y-62532206D01*
X144101407Y-62486721D01*
X144399598Y-62377874D01*
X144557763Y-62327960D01*
X144704052Y-62288353D01*
X144649439Y-62059028D01*
X144453160Y-62123488D01*
X144223683Y-62204235D01*
X144013773Y-62286528D01*
X143905738Y-62333838D01*
X143850752Y-62199836D01*
X143807279Y-62072965D01*
X143788682Y-62000409D01*
X143778717Y-61935797D01*
X143777462Y-61907970D01*
X143779900Y-61870890D01*
X143786809Y-61838520D01*
X143797635Y-61810709D01*
X143811737Y-61787582D01*
X143828801Y-61768833D01*
X143847962Y-61754857D01*
X143891111Y-61740970D01*
X143900182Y-61740560D01*
X143932290Y-61743103D01*
X143961524Y-61750744D01*
X143985794Y-61762407D01*
X144007066Y-61778486D01*
X144024504Y-61798195D01*
X144038689Y-61822039D01*
X144056535Y-61883181D01*
X144059575Y-61927973D01*
X144050174Y-62009555D01*
X144018671Y-62113477D01*
X144010121Y-62133644D01*
X144219682Y-62139121D01*
X144237329Y-62085163D01*
X144253348Y-62018619D01*
X144261899Y-61964447D01*
X144265166Y-61911621D01*
X144262652Y-61850650D01*
X144255213Y-61795018D01*
X144243754Y-61747135D01*
X144228140Y-61703927D01*
X144209380Y-61666811D01*
X144187037Y-61633888D01*
X144161749Y-61605611D01*
X144133236Y-61581265D01*
X144066196Y-61543844D01*
X143983854Y-61521278D01*
X143900182Y-61514885D01*
X143859690Y-61517439D01*
X143819669Y-61525158D01*
X143781676Y-61537732D01*
X143745240Y-61555371D01*
X143712232Y-61577145D01*
X143681651Y-61603729D01*
X143655027Y-61633836D01*
X143631516Y-61668499D01*
X143612084Y-61706544D01*
X143596379Y-61748991D01*
X143584941Y-61795120D01*
X143577864Y-61845621D01*
X143575522Y-61898841D01*
X143585019Y-61995562D01*
X143617865Y-62128214D01*
X143682764Y-62312611D01*
X143724754Y-62417582D01*
X143586397Y-62486721D01*
X143478759Y-62541334D01*
X143566393Y-62767008D01*
X143643119Y-62711238D01*
X143691971Y-62681438D01*
X143810483Y-62617776D01*
X143863588Y-62747005D01*
X143898701Y-62853787D01*
X143913041Y-62908938D01*
G37*
G36*
X154692460Y-82727861D02*
G01*
X154789515Y-82754890D01*
X154876646Y-82798817D01*
X154954218Y-82859999D01*
X154989403Y-82897401D01*
X155022252Y-82939820D01*
X155052577Y-82987492D01*
X155080123Y-83040561D01*
X155104933Y-83099920D01*
X155126447Y-83165183D01*
X155144730Y-83237887D01*
X155159124Y-83317112D01*
X154968455Y-83437292D01*
X154946976Y-83311828D01*
X154929896Y-83251528D01*
X154909444Y-83197097D01*
X154886013Y-83148575D01*
X154859824Y-83105594D01*
X154830997Y-83067809D01*
X154799973Y-83035345D01*
X154766422Y-83007596D01*
X154731218Y-82985067D01*
X154693515Y-82967141D01*
X154654734Y-82954439D01*
X154613705Y-82946602D01*
X154572275Y-82944031D01*
X154537675Y-82946204D01*
X154468989Y-82964858D01*
X154437500Y-82981149D01*
X154408090Y-83002089D01*
X154380980Y-83027730D01*
X154356536Y-83058012D01*
X154334828Y-83093326D01*
X154316437Y-83133350D01*
X154324039Y-83136378D01*
X154410478Y-83173967D01*
X154491814Y-83215021D01*
X154570507Y-83260626D01*
X154643258Y-83308721D01*
X154710903Y-83359534D01*
X154771919Y-83411615D01*
X154871931Y-83515560D01*
X155006637Y-83473647D01*
X155070299Y-83682970D01*
X154995762Y-83706625D01*
X155029195Y-83784422D01*
X155058971Y-83890352D01*
X155068552Y-83988737D01*
X155064465Y-84039183D01*
X155044208Y-84104924D01*
X155008666Y-84158040D01*
X154985385Y-84179772D01*
X154958067Y-84198354D01*
X154926581Y-84213464D01*
X154890873Y-84224737D01*
X154849959Y-84231935D01*
X154804459Y-84234415D01*
X154756184Y-84231772D01*
X154705105Y-84223403D01*
X154654328Y-84209593D01*
X154601403Y-84189444D01*
X154549500Y-84163911D01*
X154496975Y-84132007D01*
X154446335Y-84095040D01*
X154397131Y-84052607D01*
X154350712Y-84005742D01*
X154268334Y-83900993D01*
X154206513Y-83792195D01*
X154420582Y-83792195D01*
X154455269Y-83838399D01*
X154494011Y-83881455D01*
X154535071Y-83919580D01*
X154617734Y-83977438D01*
X154693348Y-84009862D01*
X154756911Y-84019695D01*
X154771269Y-84019135D01*
X154811635Y-84008187D01*
X154825859Y-83997535D01*
X154836418Y-83983222D01*
X154843926Y-83962170D01*
X154846450Y-83935950D01*
X154846299Y-83928518D01*
X154841442Y-83890162D01*
X154830039Y-83848437D01*
X154811312Y-83801835D01*
X154786201Y-83753934D01*
X154628832Y-83776894D01*
X154420582Y-83792195D01*
X154206513Y-83792195D01*
X154203401Y-83786718D01*
X153972647Y-83770366D01*
X153972647Y-83828551D01*
X153963884Y-84102825D01*
X153961772Y-84150670D01*
X153750545Y-84156147D01*
X153767983Y-83999592D01*
X153776105Y-83821248D01*
X153776105Y-83748457D01*
X153677595Y-83737582D01*
X153654263Y-83736229D01*
X153568608Y-83733931D01*
X153574085Y-83497302D01*
X153642873Y-83515751D01*
X153670531Y-83522783D01*
X153769437Y-83541040D01*
X153761863Y-83406178D01*
X153734664Y-83157348D01*
X153689502Y-82922202D01*
X153900491Y-82920376D01*
X153921602Y-83054648D01*
X153939012Y-83203771D01*
X153954238Y-83384530D01*
X153964233Y-83566521D01*
X154132437Y-83579221D01*
X154109055Y-83448385D01*
X154101483Y-83335369D01*
X154285320Y-83335369D01*
X154293570Y-83442306D01*
X154307243Y-83517980D01*
X154325565Y-83586524D01*
X154331043Y-83586524D01*
X154418775Y-83584960D01*
X154529410Y-83578173D01*
X154632603Y-83566521D01*
X154535479Y-83480531D01*
X154418983Y-83401624D01*
X154285320Y-83335369D01*
X154101483Y-83335369D01*
X154099653Y-83308063D01*
X154099653Y-83275280D01*
X153989237Y-83258927D01*
X154042659Y-83036905D01*
X154136088Y-83069609D01*
X154142567Y-83050815D01*
X154188669Y-82952229D01*
X154248410Y-82869767D01*
X154319396Y-82804566D01*
X154399689Y-82757237D01*
X154487938Y-82728257D01*
X154534717Y-82720865D01*
X154583309Y-82718357D01*
X154692460Y-82727861D01*
G37*
G36*
X153772374Y-81113156D02*
G01*
X153865406Y-81329702D01*
X153965502Y-81261150D01*
X154115749Y-81182046D01*
X154311685Y-81100308D01*
X154418561Y-81063391D01*
X154517490Y-81034344D01*
X154559257Y-81023934D01*
X154451302Y-80792783D01*
X154267959Y-80860514D01*
X154136300Y-80917086D01*
X154003520Y-80979957D01*
X153893593Y-81037774D01*
X153800193Y-81094019D01*
X153772374Y-81113156D01*
G37*
G36*
X153974711Y-82478156D02*
G01*
X154221579Y-82456248D01*
X154207619Y-82364756D01*
X154190463Y-82254228D01*
X154172205Y-82097773D01*
X154312517Y-82137313D01*
X154466552Y-82187456D01*
X154595427Y-82235431D01*
X154723965Y-82289966D01*
X154825359Y-82339033D01*
X154921573Y-82392255D01*
X155032355Y-82465376D01*
X155126896Y-82228748D01*
X154976625Y-82145877D01*
X154775385Y-82056977D01*
X154522455Y-81965551D01*
X154234250Y-81879850D01*
X154147677Y-81857493D01*
X154145942Y-81833609D01*
X154140295Y-81731915D01*
X154143748Y-81668167D01*
X154157757Y-81618175D01*
X154170306Y-81598635D01*
X154187465Y-81582653D01*
X154233240Y-81562748D01*
X154306832Y-81555376D01*
X154412864Y-81557929D01*
X154521161Y-81565636D01*
X154620564Y-81577837D01*
X154710693Y-81594846D01*
X154767079Y-81610215D01*
X154813587Y-81628167D01*
X154838881Y-81643137D01*
X154858555Y-81660648D01*
X154882764Y-81701481D01*
X154892021Y-81755434D01*
X154892172Y-81764699D01*
X154883325Y-81851598D01*
X154853832Y-81988547D01*
X155094192Y-81948540D01*
X155109236Y-81861425D01*
X155118690Y-81766276D01*
X155119672Y-81730089D01*
X155116986Y-81672752D01*
X155108344Y-81619933D01*
X155096354Y-81580493D01*
X155079398Y-81544188D01*
X155059570Y-81514336D01*
X155035028Y-81487121D01*
X155006504Y-81463364D01*
X154972953Y-81442168D01*
X154952262Y-81431625D01*
X154856213Y-81394876D01*
X154716414Y-81362483D01*
X154528887Y-81338479D01*
X154306265Y-81327989D01*
X154281193Y-81327876D01*
X154222355Y-81330377D01*
X154169847Y-81337724D01*
X154125805Y-81348905D01*
X154086947Y-81364005D01*
X154054189Y-81382081D01*
X154025832Y-81403434D01*
X153981568Y-81455170D01*
X153951452Y-81520868D01*
X153935240Y-81604259D01*
X153932878Y-81657299D01*
X153938665Y-81786260D01*
X153940101Y-81810183D01*
X153752291Y-81772001D01*
X153600915Y-81739218D01*
X153573530Y-82010376D01*
X153737909Y-82017388D01*
X153942944Y-82045976D01*
X153957406Y-82048637D01*
X153973837Y-82283360D01*
X153974777Y-82306061D01*
X153977491Y-82392337D01*
X153974711Y-82478156D01*
G37*
G36*
X161301665Y-64710760D02*
G01*
X161527418Y-64710760D01*
X161542445Y-64457826D01*
X161543770Y-64395943D01*
X161690111Y-64433103D01*
X161841081Y-64477758D01*
X161962213Y-64519359D01*
X162075900Y-64564973D01*
X162156972Y-64603360D01*
X162233494Y-64388640D01*
X162218965Y-64380169D01*
X162153321Y-64337679D01*
X162083210Y-64269731D01*
X162024929Y-64185300D01*
X161980155Y-64084847D01*
X161951098Y-63969663D01*
X161940073Y-63842241D01*
X161940030Y-63833544D01*
X161942505Y-63784377D01*
X161949667Y-63740015D01*
X161960908Y-63701098D01*
X161975933Y-63666905D01*
X161994063Y-63637889D01*
X162015143Y-63613525D01*
X162038618Y-63593989D01*
X162064297Y-63579101D01*
X162121187Y-63563374D01*
X162140541Y-63562385D01*
X162176056Y-63564886D01*
X162208866Y-63572232D01*
X162266090Y-63600150D01*
X162314882Y-63646108D01*
X162356207Y-63712785D01*
X162389104Y-63804391D01*
X162410963Y-63925158D01*
X162418081Y-64077427D01*
X162406572Y-64258969D01*
X162392093Y-64363160D01*
X162626896Y-64299419D01*
X162636885Y-64184234D01*
X162641110Y-64074577D01*
X162639757Y-63977122D01*
X162633186Y-63885139D01*
X162622307Y-63804664D01*
X162606778Y-63729434D01*
X162588133Y-63664458D01*
X162565374Y-63604409D01*
X162540421Y-63553059D01*
X162511815Y-63506311D01*
X162481523Y-63466661D01*
X162447929Y-63431356D01*
X162412652Y-63401754D01*
X162374290Y-63376365D01*
X162333743Y-63355713D01*
X162290190Y-63339311D01*
X162193845Y-63319675D01*
X162133238Y-63316628D01*
X162088134Y-63319141D01*
X162045167Y-63326571D01*
X162004737Y-63338659D01*
X161966686Y-63355279D01*
X161897988Y-63401709D01*
X161839725Y-63465575D01*
X161793278Y-63546982D01*
X161760749Y-63645898D01*
X161744710Y-63761712D01*
X161743488Y-63806237D01*
X161746096Y-63882871D01*
X161754191Y-63957047D01*
X161766713Y-64023128D01*
X161784452Y-64088168D01*
X161806844Y-64150479D01*
X161834677Y-64212698D01*
X161858190Y-64257586D01*
X161632832Y-64197453D01*
X161539722Y-64175667D01*
X161514285Y-63857670D01*
X161467823Y-63493175D01*
X161461454Y-63453160D01*
X161244750Y-63456811D01*
X161289182Y-63707559D01*
X161321493Y-63996981D01*
X161330400Y-64130183D01*
X161273961Y-64119308D01*
X161232613Y-64110853D01*
X161087341Y-64077396D01*
X161076467Y-64334028D01*
X161150659Y-64332653D01*
X161230910Y-64339149D01*
X161261499Y-64343156D01*
X161336353Y-64354031D01*
X161324290Y-64541752D01*
X161301665Y-64710760D01*
G37*
G36*
X161628229Y-62168253D02*
G01*
X161509796Y-62006241D01*
X161428003Y-62090168D01*
X161334607Y-62206434D01*
X161453199Y-62366621D01*
X161543897Y-62256048D01*
X161628229Y-62168253D01*
G37*
G36*
X161913041Y-62908938D02*
G01*
X162134191Y-62805190D01*
X162072210Y-62678952D01*
X161999088Y-62532206D01*
X162101407Y-62486721D01*
X162399598Y-62377874D01*
X162557763Y-62327960D01*
X162704052Y-62288353D01*
X162649439Y-62059028D01*
X162453160Y-62123488D01*
X162223683Y-62204235D01*
X162013773Y-62286528D01*
X161905738Y-62333838D01*
X161850752Y-62199836D01*
X161807279Y-62072965D01*
X161788682Y-62000409D01*
X161778717Y-61935797D01*
X161777462Y-61907970D01*
X161779900Y-61870890D01*
X161786809Y-61838520D01*
X161797635Y-61810709D01*
X161811737Y-61787582D01*
X161828801Y-61768833D01*
X161847962Y-61754857D01*
X161891111Y-61740970D01*
X161900182Y-61740560D01*
X161932290Y-61743103D01*
X161961524Y-61750744D01*
X161985794Y-61762407D01*
X162007066Y-61778486D01*
X162024504Y-61798195D01*
X162038689Y-61822039D01*
X162056535Y-61883181D01*
X162059575Y-61927973D01*
X162050174Y-62009555D01*
X162018671Y-62113477D01*
X162010121Y-62133644D01*
X162219682Y-62139121D01*
X162237329Y-62085163D01*
X162253348Y-62018619D01*
X162261899Y-61964447D01*
X162265166Y-61911621D01*
X162262652Y-61850650D01*
X162255213Y-61795018D01*
X162243754Y-61747135D01*
X162228140Y-61703927D01*
X162209380Y-61666811D01*
X162187037Y-61633888D01*
X162161749Y-61605611D01*
X162133236Y-61581265D01*
X162066196Y-61543844D01*
X161983854Y-61521278D01*
X161900182Y-61514885D01*
X161859690Y-61517439D01*
X161819669Y-61525158D01*
X161781676Y-61537732D01*
X161745240Y-61555371D01*
X161712232Y-61577145D01*
X161681651Y-61603729D01*
X161655027Y-61633836D01*
X161631516Y-61668499D01*
X161612084Y-61706544D01*
X161596379Y-61748991D01*
X161584941Y-61795120D01*
X161577864Y-61845621D01*
X161575522Y-61898841D01*
X161585019Y-61995562D01*
X161617865Y-62128214D01*
X161682764Y-62312611D01*
X161724754Y-62417582D01*
X161586397Y-62486721D01*
X161478759Y-62541334D01*
X161566393Y-62767008D01*
X161643119Y-62711238D01*
X161691971Y-62681438D01*
X161810483Y-62617776D01*
X161863588Y-62747005D01*
X161898701Y-62853787D01*
X161913041Y-62908938D01*
G37*
G36*
X128561100Y-52959115D02*
G01*
X127639914Y-51363709D01*
X126718728Y-52959115D01*
X128561100Y-52959115D01*
G37*
G36*
X129778321Y-51533568D02*
G01*
X129776355Y-51613240D01*
X129993619Y-51597579D01*
X130272254Y-51560410D01*
X130270287Y-51785748D01*
X130122686Y-51802074D01*
X129772423Y-51828918D01*
X129772423Y-52034510D01*
X129917515Y-52025766D01*
X130112380Y-52008751D01*
X130293796Y-51986809D01*
X130293796Y-52218815D01*
X130110082Y-52237539D01*
X129776355Y-52257967D01*
X129790033Y-52492367D01*
X129795684Y-52493995D01*
X129885508Y-52523540D01*
X129969577Y-52557602D01*
X130062416Y-52602701D01*
X130146420Y-52650610D01*
X130252982Y-52721785D01*
X130338846Y-52788402D01*
X130197711Y-53008013D01*
X130074429Y-52902848D01*
X129937359Y-52807499D01*
X129801830Y-52735487D01*
X129803796Y-52808063D01*
X129803439Y-52823227D01*
X129789596Y-52899515D01*
X129756562Y-52965721D01*
X129732889Y-52994925D01*
X129704398Y-53021262D01*
X129670603Y-53044744D01*
X129631838Y-53064723D01*
X129586998Y-53081249D01*
X129536925Y-53093506D01*
X129480064Y-53101331D01*
X129417660Y-53104012D01*
X129308736Y-53098645D01*
X129189717Y-53076609D01*
X129098180Y-53040808D01*
X129029679Y-52993422D01*
X128980849Y-52934803D01*
X128963161Y-52900571D01*
X128950347Y-52863458D01*
X128942186Y-52821539D01*
X128939457Y-52776605D01*
X128940666Y-52762927D01*
X129176592Y-52762927D01*
X129176616Y-52765288D01*
X129187597Y-52809273D01*
X129201377Y-52828735D01*
X129220604Y-52845427D01*
X129248374Y-52860588D01*
X129282766Y-52871937D01*
X129328581Y-52879830D01*
X129382355Y-52882521D01*
X129413309Y-52881525D01*
X129476320Y-52869629D01*
X129517734Y-52845328D01*
X129532934Y-52827485D01*
X129544328Y-52805273D01*
X129552179Y-52775417D01*
X129554863Y-52739333D01*
X129552897Y-52655045D01*
X129519742Y-52650312D01*
X129392185Y-52641282D01*
X129360404Y-52642289D01*
X129276426Y-52657351D01*
X129219749Y-52685447D01*
X129187392Y-52721355D01*
X129179310Y-52741553D01*
X129176592Y-52762927D01*
X128940666Y-52762927D01*
X128944265Y-52722217D01*
X128953984Y-52683965D01*
X128968798Y-52647849D01*
X128989026Y-52613378D01*
X129014282Y-52581483D01*
X129045502Y-52551430D01*
X129081787Y-52524509D01*
X129124565Y-52500128D01*
X129172448Y-52479537D01*
X129227007Y-52462500D01*
X129286630Y-52449968D01*
X129352644Y-52442060D01*
X129423558Y-52439367D01*
X129545033Y-52445265D01*
X129537254Y-52259506D01*
X129435270Y-52259506D01*
X129186793Y-52251549D01*
X128968864Y-52234032D01*
X128966898Y-52002709D01*
X129075690Y-52018032D01*
X129203084Y-52029557D01*
X129439202Y-52039981D01*
X129533321Y-52039981D01*
X129535287Y-51837552D01*
X129462711Y-51837552D01*
X129238149Y-51827524D01*
X128982541Y-51802332D01*
X128976643Y-51578789D01*
X129112635Y-51597573D01*
X129262867Y-51612268D01*
X129460744Y-51621959D01*
X129537254Y-51621959D01*
X129537254Y-51529721D01*
X129535773Y-51483329D01*
X129525457Y-51394398D01*
X129790033Y-51394398D01*
X129778321Y-51533568D01*
G37*
G36*
X131191474Y-51390893D02*
G01*
X131154202Y-51618796D01*
X131522512Y-51671123D01*
X131959813Y-51716762D01*
X131991100Y-51487406D01*
X131616071Y-51451701D01*
X131389309Y-51422765D01*
X131191474Y-51390893D01*
G37*
G36*
X132059745Y-52014250D02*
G01*
X131916643Y-51851743D01*
X131804914Y-51873285D01*
X131593885Y-51891988D01*
X131178080Y-51912758D01*
X131105219Y-51914318D01*
X130948623Y-51910885D01*
X130917067Y-51908505D01*
X130940575Y-52178808D01*
X130966265Y-52175023D01*
X131109152Y-52157266D01*
X131151144Y-52153601D01*
X131372017Y-52135147D01*
X131593253Y-52122046D01*
X131061667Y-52663144D01*
X130913135Y-52812936D01*
X130802373Y-52913113D01*
X130777897Y-52934496D01*
X131009220Y-53097430D01*
X131197646Y-52870623D01*
X131358084Y-52695223D01*
X131407201Y-52650916D01*
X131453371Y-52623467D01*
X131487423Y-52616662D01*
X131509897Y-52619516D01*
X131532167Y-52628549D01*
X131551402Y-52642746D01*
X131568843Y-52663188D01*
X131591287Y-52710867D01*
X131604433Y-52759050D01*
X131648135Y-52910987D01*
X131665783Y-52949200D01*
X131687247Y-52981748D01*
X131710522Y-53006914D01*
X131737433Y-53027857D01*
X131803330Y-53058229D01*
X131894964Y-53075623D01*
X131983321Y-53079478D01*
X132189922Y-53070149D01*
X132367491Y-53050157D01*
X132383135Y-52793274D01*
X132290626Y-52808877D01*
X132182901Y-52820910D01*
X131998965Y-52828665D01*
X131962791Y-52825940D01*
X131932180Y-52817808D01*
X131909426Y-52806074D01*
X131890725Y-52790152D01*
X131865146Y-52746839D01*
X131861762Y-52736427D01*
X131830895Y-52639834D01*
X131804914Y-52557763D01*
X131786610Y-52514190D01*
X131764736Y-52478864D01*
X131743820Y-52456067D01*
X131719648Y-52438414D01*
X131687372Y-52424321D01*
X131619995Y-52410283D01*
X131612829Y-52410558D01*
X131709992Y-52314592D01*
X131932372Y-52114267D01*
X131942910Y-52105451D01*
X132059745Y-52014250D01*
G37*
G36*
X160945237Y-106737859D02*
G01*
X160970711Y-107006624D01*
X161206161Y-106965309D01*
X161589854Y-106915844D01*
X161782135Y-106894724D01*
X161739724Y-106930086D01*
X161696900Y-106973105D01*
X161655005Y-107023240D01*
X161615212Y-107080123D01*
X161580930Y-107139194D01*
X161550637Y-107203448D01*
X161527229Y-107266669D01*
X161508853Y-107333669D01*
X161497076Y-107398424D01*
X161490860Y-107465924D01*
X161490033Y-107501240D01*
X161492727Y-107561717D01*
X161500643Y-107619295D01*
X161531340Y-107726288D01*
X161581206Y-107823411D01*
X161650254Y-107911289D01*
X161739105Y-107989738D01*
X161848426Y-108057622D01*
X161978151Y-108112860D01*
X162126551Y-108152650D01*
X162289745Y-108174007D01*
X162381898Y-107905499D01*
X162287413Y-107897658D01*
X162196067Y-107883853D01*
X162120493Y-107866609D01*
X162049272Y-107844072D01*
X161991239Y-107819709D01*
X161937869Y-107790753D01*
X161894762Y-107760891D01*
X161856285Y-107727007D01*
X161825543Y-107692377D01*
X161799368Y-107654104D01*
X161779152Y-107614518D01*
X161763582Y-107571451D01*
X161753132Y-107525939D01*
X161747641Y-107476895D01*
X161746830Y-107448240D01*
X161757422Y-107347418D01*
X161790031Y-107242464D01*
X161844583Y-107139647D01*
X161879309Y-107091590D01*
X161918367Y-107046987D01*
X161960517Y-107007217D01*
X162006152Y-106971956D01*
X162052734Y-106943003D01*
X162101902Y-106919226D01*
X162162372Y-106898657D01*
X162270237Y-106881776D01*
X162444044Y-106872827D01*
X162507108Y-106871689D01*
X162540643Y-106871130D01*
X162538677Y-106620232D01*
X162284851Y-106633493D01*
X161983965Y-106655537D01*
X161373253Y-106707701D01*
X161137236Y-106728114D01*
X160945237Y-106737859D01*
G37*
G36*
X162260338Y-107063557D02*
G01*
X162115270Y-107124337D01*
X162165468Y-107199829D01*
X162209024Y-107275719D01*
X162268203Y-107397205D01*
X162417117Y-107330441D01*
X162337020Y-107185726D01*
X162260338Y-107063557D01*
G37*
G36*
X162479863Y-106973199D02*
G01*
X162336762Y-107039963D01*
X162402226Y-107135353D01*
X162460756Y-107234446D01*
X162497473Y-107304967D01*
X162644508Y-107234271D01*
X162549686Y-107076734D01*
X162479863Y-106973199D01*
G37*
G36*
X163900881Y-106623822D02*
G01*
X163622541Y-106511922D01*
X163552625Y-106660362D01*
X163526542Y-106712214D01*
X163363394Y-107026512D01*
X163204210Y-107350391D01*
X163041901Y-107697231D01*
X162948647Y-107909650D01*
X162875830Y-108091771D01*
X163152117Y-108185890D01*
X163199715Y-108028806D01*
X163262603Y-107844471D01*
X163301118Y-107748463D01*
X163333730Y-107681883D01*
X163370880Y-107619979D01*
X163406565Y-107571646D01*
X163445277Y-107529691D01*
X163480505Y-107499978D01*
X163517686Y-107476678D01*
X163551444Y-107462293D01*
X163586516Y-107453888D01*
X163614677Y-107451830D01*
X163644066Y-107454520D01*
X163669252Y-107462408D01*
X163689004Y-107474274D01*
X163705006Y-107490239D01*
X163725766Y-107534061D01*
X163730338Y-107561849D01*
X163735228Y-107711760D01*
X163742135Y-107907550D01*
X163747162Y-107949127D01*
X163757747Y-107989263D01*
X163773076Y-108025494D01*
X163793644Y-108059267D01*
X163818041Y-108088470D01*
X163847317Y-108114484D01*
X163880115Y-108136028D01*
X163917575Y-108153764D01*
X163958967Y-108167063D01*
X164005003Y-108175882D01*
X164069457Y-108179991D01*
X164125496Y-108177285D01*
X164178712Y-108169281D01*
X164228714Y-108156297D01*
X164276060Y-108138453D01*
X164364003Y-108088148D01*
X164444336Y-108017302D01*
X164517957Y-107923378D01*
X164584821Y-107802722D01*
X164644009Y-107650949D01*
X164653490Y-107620748D01*
X164441830Y-107447983D01*
X164416493Y-107543795D01*
X164385844Y-107634284D01*
X164356552Y-107702543D01*
X164323345Y-107763788D01*
X164292723Y-107808156D01*
X164259212Y-107845752D01*
X164228381Y-107871731D01*
X164195345Y-107891634D01*
X164164120Y-107903774D01*
X164131074Y-107910317D01*
X164110575Y-107911397D01*
X164077508Y-107908565D01*
X164047490Y-107899678D01*
X164025566Y-107887140D01*
X164007363Y-107869594D01*
X163994799Y-107849328D01*
X163986321Y-107824516D01*
X163983203Y-107805396D01*
X163977378Y-107684672D01*
X163976967Y-107601965D01*
X163975338Y-107477390D01*
X163970271Y-107428748D01*
X163960096Y-107384871D01*
X163945991Y-107348075D01*
X163927617Y-107315750D01*
X163906225Y-107289197D01*
X163881166Y-107266929D01*
X163821547Y-107236034D01*
X163747331Y-107222888D01*
X163732304Y-107222559D01*
X163680979Y-107225365D01*
X163629122Y-107234065D01*
X163580517Y-107247992D01*
X163532623Y-107267848D01*
X163506880Y-107281373D01*
X163568334Y-107172393D01*
X163707547Y-106927710D01*
X163838135Y-106716146D01*
X163863196Y-106679019D01*
X163900881Y-106623822D01*
G37*
G36*
X164933796Y-106747946D02*
G01*
X164933796Y-106991066D01*
X165206187Y-107007248D01*
X165272829Y-107008676D01*
X165232811Y-107166274D01*
X165184721Y-107328857D01*
X165139920Y-107459306D01*
X165090798Y-107581739D01*
X165049457Y-107669047D01*
X165280694Y-107751455D01*
X165289817Y-107735808D01*
X165335575Y-107665115D01*
X165408750Y-107589611D01*
X165499676Y-107526847D01*
X165607856Y-107478628D01*
X165731900Y-107447336D01*
X165869124Y-107435463D01*
X165878490Y-107435417D01*
X165931439Y-107438082D01*
X165979214Y-107445796D01*
X166021125Y-107457901D01*
X166057947Y-107474081D01*
X166089196Y-107493606D01*
X166115433Y-107516308D01*
X166136472Y-107541589D01*
X166152505Y-107569243D01*
X166169442Y-107630510D01*
X166170507Y-107651352D01*
X166167814Y-107689598D01*
X166159903Y-107724933D01*
X166129838Y-107786558D01*
X166080345Y-107839104D01*
X166008539Y-107883607D01*
X165909886Y-107919035D01*
X165779828Y-107942576D01*
X165615846Y-107950241D01*
X165420340Y-107937847D01*
X165308135Y-107922254D01*
X165376779Y-108175118D01*
X165500824Y-108185876D01*
X165618916Y-108190427D01*
X165723868Y-108188970D01*
X165822926Y-108181892D01*
X165909592Y-108170177D01*
X165990608Y-108153454D01*
X166060583Y-108133374D01*
X166125251Y-108108864D01*
X166180551Y-108081992D01*
X166230895Y-108051186D01*
X166273595Y-108018564D01*
X166311615Y-107982386D01*
X166343495Y-107944394D01*
X166370836Y-107903082D01*
X166393078Y-107859416D01*
X166410741Y-107812512D01*
X166431888Y-107708756D01*
X166435169Y-107643487D01*
X166432462Y-107594914D01*
X166424461Y-107548641D01*
X166411443Y-107505101D01*
X166393545Y-107464124D01*
X166343543Y-107390141D01*
X166274764Y-107327396D01*
X166187096Y-107277376D01*
X166080570Y-107242345D01*
X165955847Y-107225073D01*
X165907897Y-107223756D01*
X165825369Y-107226565D01*
X165745486Y-107235283D01*
X165674322Y-107248767D01*
X165604280Y-107267872D01*
X165537175Y-107291986D01*
X165470171Y-107321960D01*
X165421830Y-107347282D01*
X165486588Y-107104588D01*
X165510050Y-107004316D01*
X165852508Y-106976922D01*
X166245041Y-106926886D01*
X166288135Y-106920028D01*
X166284202Y-106686654D01*
X166014166Y-106734504D01*
X165702481Y-106769300D01*
X165559033Y-106778892D01*
X165570744Y-106718112D01*
X165579849Y-106673583D01*
X165615881Y-106517137D01*
X165339508Y-106505426D01*
X165340988Y-106585325D01*
X165333992Y-106671749D01*
X165329677Y-106704691D01*
X165317965Y-106785303D01*
X165115805Y-106772313D01*
X164933796Y-106747946D01*
G37*
G36*
X129985083Y-75532355D02*
G01*
X129755495Y-75361385D01*
X129637014Y-75386807D01*
X129467166Y-75397899D01*
X128478715Y-75397899D01*
X128208080Y-75384999D01*
X128148377Y-75378237D01*
X128148377Y-75775987D01*
X128227178Y-75770195D01*
X128478715Y-75756325D01*
X129427965Y-75756325D01*
X129361536Y-75920649D01*
X129242052Y-76133443D01*
X129077244Y-76364128D01*
X129010676Y-76443503D01*
X128800333Y-76654750D01*
X128676664Y-76761945D01*
X128543268Y-76866628D01*
X128408979Y-76961721D01*
X128268581Y-77050722D01*
X128135605Y-77125372D01*
X127999583Y-77191897D01*
X127862735Y-77248405D01*
X128151186Y-77551266D01*
X128406913Y-77413071D01*
X128673030Y-77234661D01*
X128940788Y-77018669D01*
X129197073Y-76773141D01*
X129203872Y-76766025D01*
X129378492Y-76938908D01*
X129547240Y-77117331D01*
X129696703Y-77286908D01*
X129832260Y-77453710D01*
X129909490Y-77556884D01*
X130228715Y-77279180D01*
X129972300Y-76989880D01*
X129783445Y-76794181D01*
X129585595Y-76601962D01*
X129447505Y-76477086D01*
X129619027Y-76219980D01*
X129786652Y-75918701D01*
X129887142Y-75706011D01*
X129959416Y-75571874D01*
X129985083Y-75532355D01*
G37*
G36*
X132043073Y-75212152D02*
G01*
X131637142Y-75085390D01*
X131584815Y-75231702D01*
X131508304Y-75378360D01*
X131413262Y-75533526D01*
X131286737Y-75710414D01*
X131191904Y-75825208D01*
X131082493Y-75942493D01*
X130977390Y-76042410D01*
X130860359Y-76141280D01*
X130744457Y-76228174D01*
X130617916Y-76312222D01*
X130920289Y-76544863D01*
X131141797Y-76373143D01*
X131367373Y-76160424D01*
X131584377Y-75915100D01*
X131659490Y-75818729D01*
X132460362Y-75818729D01*
X132404023Y-75988171D01*
X132297740Y-76208493D01*
X132228457Y-76325565D01*
X132152372Y-76438374D01*
X131891231Y-76267342D01*
X131651064Y-76121591D01*
X131401936Y-76376702D01*
X131788424Y-76637649D01*
X131911549Y-76727069D01*
X131802969Y-76829745D01*
X131682247Y-76930257D01*
X131571811Y-77010815D01*
X131450740Y-77088124D01*
X131330557Y-77154912D01*
X131199928Y-77217752D01*
X131065995Y-77273031D01*
X130921336Y-77323727D01*
X130883897Y-77335478D01*
X131208740Y-77618677D01*
X131477960Y-77500675D01*
X131722908Y-77360918D01*
X131946868Y-77199088D01*
X132153071Y-77013822D01*
X132211113Y-76954214D01*
X132505059Y-77203709D01*
X132771161Y-76886926D01*
X132460362Y-76651475D01*
X132621664Y-76399012D01*
X132762789Y-76125375D01*
X132870739Y-75855863D01*
X132874720Y-75844009D01*
X132945479Y-75684505D01*
X132967166Y-75645195D01*
X132681524Y-75468607D01*
X132560159Y-75492504D01*
X132437892Y-75499504D01*
X131869539Y-75499504D01*
X131942659Y-75369613D01*
X132043073Y-75212152D01*
G37*
G36*
X133507554Y-76136856D02*
G01*
X133507554Y-76576493D01*
X133958304Y-76562449D01*
X135461863Y-76562449D01*
X135714666Y-76572416D01*
X135789515Y-76576493D01*
X135789515Y-76136856D01*
X135761689Y-76139053D01*
X135627497Y-76148600D01*
X135461863Y-76153709D01*
X133958304Y-76153709D01*
X133584739Y-76142174D01*
X133507554Y-76136856D01*
G37*
G36*
X136929152Y-77163164D02*
G01*
X136915333Y-77434440D01*
X136901186Y-77555052D01*
X137337892Y-77555052D01*
X137312735Y-77163164D01*
X137312735Y-76370718D01*
X137580758Y-76466951D01*
X137870915Y-76580867D01*
X138104841Y-76681809D01*
X138316593Y-76784258D01*
X138323534Y-76787885D01*
X138483147Y-76401493D01*
X138186046Y-76272250D01*
X137679220Y-76084575D01*
X137312735Y-75967473D01*
X137312735Y-75553115D01*
X137324530Y-75341587D01*
X137337733Y-75218558D01*
X137337892Y-75217159D01*
X136901186Y-75217159D01*
X136923076Y-75392899D01*
X136929152Y-75553115D01*
X136929152Y-77163164D01*
G37*
G36*
X164389951Y-81610146D02*
G01*
X164576516Y-81808322D01*
X164761995Y-82016512D01*
X164924720Y-82215868D01*
X165252372Y-81955017D01*
X164962514Y-81629752D01*
X164818353Y-81481064D01*
X165056261Y-81269622D01*
X165303793Y-81010247D01*
X165544937Y-80715823D01*
X165656138Y-80562819D01*
X165751925Y-80418633D01*
X165773098Y-80384658D01*
X165852303Y-80285327D01*
X165868353Y-80267055D01*
X165588328Y-80037344D01*
X165471370Y-80060699D01*
X165327965Y-80068241D01*
X163773970Y-80068241D01*
X163566155Y-80056418D01*
X163451936Y-80042962D01*
X163451936Y-80435094D01*
X163592986Y-80423217D01*
X163773970Y-80415554D01*
X165255059Y-80415554D01*
X165115795Y-80626755D01*
X165020635Y-80749139D01*
X164912604Y-80874615D01*
X164798554Y-80994593D01*
X164675439Y-81111552D01*
X164543946Y-81223143D01*
X164134110Y-80882043D01*
X164070725Y-80833332D01*
X163773970Y-81071713D01*
X163995109Y-81247407D01*
X164322683Y-81543422D01*
X164389951Y-81610146D01*
G37*
G36*
X166173534Y-80942752D02*
G01*
X166349877Y-81295561D01*
X166701534Y-81177382D01*
X167079123Y-81019520D01*
X167338328Y-80892316D01*
X167338328Y-81788321D01*
X167327132Y-82062714D01*
X167318667Y-82155052D01*
X167761113Y-82155052D01*
X167745183Y-82048123D01*
X167735956Y-81788321D01*
X167735956Y-80657110D01*
X168048775Y-80432794D01*
X168355741Y-80175607D01*
X168489078Y-80049556D01*
X168186706Y-79761106D01*
X168008783Y-79953808D01*
X167757847Y-80179602D01*
X167619468Y-80288545D01*
X167479299Y-80388334D01*
X167397069Y-80441566D01*
X167252923Y-80525161D01*
X167095828Y-80606793D01*
X166929678Y-80683986D01*
X166751520Y-80757662D01*
X166567502Y-80824976D01*
X166372566Y-80887486D01*
X166173534Y-80942752D01*
G37*
G36*
X169203122Y-81567648D02*
G01*
X169203122Y-81968084D01*
X169564357Y-81951353D01*
X170841137Y-81951353D01*
X170838328Y-82096556D01*
X171244260Y-82096556D01*
X171233147Y-81766584D01*
X171233147Y-80310774D01*
X171239925Y-80088509D01*
X171241451Y-80053220D01*
X170995132Y-80058838D01*
X169583897Y-80058838D01*
X169421645Y-80054930D01*
X169251150Y-80043206D01*
X169239515Y-80041985D01*
X169239515Y-80431186D01*
X169586706Y-80419951D01*
X170843946Y-80419951D01*
X170843946Y-81584501D01*
X169553122Y-81584501D01*
X169269516Y-81572966D01*
X169203122Y-81567648D01*
G37*
G36*
X172274720Y-79904110D02*
G01*
X172011549Y-80184134D01*
X172244194Y-80363560D01*
X172577474Y-80655907D01*
X172711549Y-80789002D01*
X172997069Y-80497742D01*
X172816070Y-80327456D01*
X172497725Y-80066746D01*
X172274720Y-79904110D01*
G37*
G36*
X171924720Y-81768904D02*
G01*
X172159926Y-82138565D01*
X172432621Y-82077205D01*
X172709728Y-81984588D01*
X172985305Y-81861718D01*
X173198691Y-81743747D01*
X173451286Y-81573880D01*
X173690677Y-81376262D01*
X173907976Y-81157468D01*
X174005336Y-81043127D01*
X174094008Y-80926983D01*
X174234647Y-80707791D01*
X174016294Y-80312972D01*
X173898045Y-80529190D01*
X173822702Y-80642148D01*
X173738051Y-80754821D01*
X173644466Y-80866174D01*
X173542354Y-80975135D01*
X173434862Y-81078149D01*
X173319986Y-81176903D01*
X173203184Y-81266728D01*
X173080243Y-81350867D01*
X172997069Y-81402173D01*
X172875501Y-81470176D01*
X172743041Y-81534721D01*
X172605922Y-81592450D01*
X172459368Y-81645067D01*
X172311225Y-81689579D01*
X172155045Y-81727777D01*
X171924720Y-81768904D01*
G37*
D15*
X151742857Y-109685000D02*
X152657143Y-109685000D01*
X161342857Y-109685000D02*
X162257143Y-109685000D01*
X161800000Y-110142142D02*
X161800000Y-109227857D01*
D10*
X147252295Y-93871428D02*
X147252295Y-94328571D01*
X147252295Y-94099999D02*
X146452295Y-94099999D01*
X146452295Y-94099999D02*
X146566580Y-94176190D01*
X146566580Y-94176190D02*
X146642771Y-94252380D01*
X146642771Y-94252380D02*
X146680866Y-94328571D01*
D14*
X158528571Y-101606900D02*
X159671429Y-101606900D01*
X159100000Y-102178328D02*
X159100000Y-101035471D01*
D10*
X161985714Y-106262295D02*
X161719047Y-105881342D01*
X161528571Y-106262295D02*
X161528571Y-105462295D01*
X161528571Y-105462295D02*
X161833333Y-105462295D01*
X161833333Y-105462295D02*
X161909523Y-105500390D01*
X161909523Y-105500390D02*
X161947618Y-105538485D01*
X161947618Y-105538485D02*
X161985714Y-105614676D01*
X161985714Y-105614676D02*
X161985714Y-105728961D01*
X161985714Y-105728961D02*
X161947618Y-105805152D01*
X161947618Y-105805152D02*
X161909523Y-105843247D01*
X161909523Y-105843247D02*
X161833333Y-105881342D01*
X161833333Y-105881342D02*
X161528571Y-105881342D01*
X162328571Y-105843247D02*
X162595237Y-105843247D01*
X162709523Y-106262295D02*
X162328571Y-106262295D01*
X162328571Y-106262295D02*
X162328571Y-105462295D01*
X162328571Y-105462295D02*
X162709523Y-105462295D01*
X163052381Y-106262295D02*
X163052381Y-105462295D01*
X163052381Y-105462295D02*
X163242857Y-105462295D01*
X163242857Y-105462295D02*
X163357143Y-105500390D01*
X163357143Y-105500390D02*
X163433333Y-105576580D01*
X163433333Y-105576580D02*
X163471428Y-105652771D01*
X163471428Y-105652771D02*
X163509524Y-105805152D01*
X163509524Y-105805152D02*
X163509524Y-105919438D01*
X163509524Y-105919438D02*
X163471428Y-106071819D01*
X163471428Y-106071819D02*
X163433333Y-106148009D01*
X163433333Y-106148009D02*
X163357143Y-106224200D01*
X163357143Y-106224200D02*
X163242857Y-106262295D01*
X163242857Y-106262295D02*
X163052381Y-106262295D01*
X164333333Y-105843247D02*
X164447619Y-105881342D01*
X164447619Y-105881342D02*
X164485714Y-105919438D01*
X164485714Y-105919438D02*
X164523810Y-105995628D01*
X164523810Y-105995628D02*
X164523810Y-106109914D01*
X164523810Y-106109914D02*
X164485714Y-106186104D01*
X164485714Y-106186104D02*
X164447619Y-106224200D01*
X164447619Y-106224200D02*
X164371429Y-106262295D01*
X164371429Y-106262295D02*
X164066667Y-106262295D01*
X164066667Y-106262295D02*
X164066667Y-105462295D01*
X164066667Y-105462295D02*
X164333333Y-105462295D01*
X164333333Y-105462295D02*
X164409524Y-105500390D01*
X164409524Y-105500390D02*
X164447619Y-105538485D01*
X164447619Y-105538485D02*
X164485714Y-105614676D01*
X164485714Y-105614676D02*
X164485714Y-105690866D01*
X164485714Y-105690866D02*
X164447619Y-105767057D01*
X164447619Y-105767057D02*
X164409524Y-105805152D01*
X164409524Y-105805152D02*
X164333333Y-105843247D01*
X164333333Y-105843247D02*
X164066667Y-105843247D01*
X165247619Y-106262295D02*
X164866667Y-106262295D01*
X164866667Y-106262295D02*
X164866667Y-105462295D01*
X165514286Y-106262295D02*
X165514286Y-105462295D01*
X165971429Y-106262295D02*
X165628571Y-105805152D01*
X165971429Y-105462295D02*
X165514286Y-105919438D01*
D14*
X167828571Y-101606900D02*
X168971429Y-101606900D01*
D10*
X180538095Y-100554819D02*
X180538095Y-99554819D01*
X181109523Y-100554819D02*
X180680952Y-99983390D01*
X181109523Y-99554819D02*
X180538095Y-100126247D01*
D15*
X137822857Y-109685000D02*
X138737143Y-109685000D01*
X147422857Y-109685000D02*
X148337143Y-109685000D01*
X147880000Y-110142142D02*
X147880000Y-109227857D01*
D10*
X179124819Y-72714285D02*
X179124819Y-73285713D01*
X179124819Y-72999999D02*
X178124819Y-72999999D01*
X178124819Y-72999999D02*
X178267676Y-73095237D01*
X178267676Y-73095237D02*
X178362914Y-73190475D01*
X178362914Y-73190475D02*
X178410533Y-73285713D01*
%TO.C,R7*%
D11*
X126000000Y-59040000D02*
X126000000Y-59810000D01*
X126000000Y-67120000D02*
X126000000Y-66350000D01*
X124630000Y-59810000D02*
X127370000Y-59810000D01*
X127370000Y-66350000D01*
X124630000Y-66350000D01*
X124630000Y-59810000D01*
%TO.C,SW1*%
X119750000Y-76000000D02*
X119750000Y-77500000D01*
X121000000Y-80000000D02*
X125500000Y-80000000D01*
X125500000Y-73500000D02*
X121000000Y-73500000D01*
X126750000Y-77500000D02*
X126750000Y-76000000D01*
%TO.C,Q1*%
X121240000Y-56350000D02*
X124840000Y-56350000D01*
X120683600Y-53401193D02*
G75*
G02*
X123040000Y-51900000I2356400J-1098807D01*
G01*
X121240000Y-56350000D02*
G75*
G02*
X120715816Y-55622795I1800000J1850000D01*
G01*
X123040000Y-51900000D02*
G75*
G02*
X125396400Y-53401193I0J-2600000D01*
G01*
X125364184Y-55622795D02*
G75*
G02*
X124840000Y-56350000I-2324184J1122795D01*
G01*
%TO.C,R5*%
X156000000Y-59040000D02*
X156000000Y-59810000D01*
X156000000Y-67120000D02*
X156000000Y-66350000D01*
X154630000Y-59810000D02*
X157370000Y-59810000D01*
X157370000Y-66350000D01*
X154630000Y-66350000D01*
X154630000Y-59810000D01*
%TO.C,R4*%
X138000000Y-59040000D02*
X138000000Y-59810000D01*
X138000000Y-67120000D02*
X138000000Y-66350000D01*
X136630000Y-59810000D02*
X139370000Y-59810000D01*
X139370000Y-66350000D01*
X136630000Y-66350000D01*
X136630000Y-59810000D01*
%TO.C,R2*%
X144000000Y-59040000D02*
X144000000Y-59810000D01*
X144000000Y-67120000D02*
X144000000Y-66350000D01*
X142630000Y-59810000D02*
X145370000Y-59810000D01*
X145370000Y-66350000D01*
X142630000Y-66350000D01*
X142630000Y-59810000D01*
%TO.C,R1*%
X132000000Y-59040000D02*
X132000000Y-59810000D01*
X132000000Y-67120000D02*
X132000000Y-66350000D01*
X130630000Y-59810000D02*
X133370000Y-59810000D01*
X133370000Y-66350000D01*
X130630000Y-66350000D01*
X130630000Y-59810000D01*
%TO.C,U2*%
X127900000Y-95000000D02*
X127900000Y-105000000D01*
X148100000Y-95000000D02*
X127900000Y-95000000D01*
X148100000Y-95000000D02*
X148100000Y-98800000D01*
X148100000Y-101200000D02*
X148100000Y-105000000D01*
X148100000Y-105000000D02*
X127900000Y-105000000D01*
X148100000Y-101200000D02*
G75*
G02*
X148100000Y-98800000I0J1200000D01*
G01*
%TO.C,C1*%
X148840302Y-98685000D02*
X149640302Y-98685000D01*
X149240302Y-98285000D02*
X149240302Y-99085000D01*
X153250000Y-96920000D02*
X153250000Y-105080000D01*
X153290000Y-96920000D02*
X153290000Y-105080000D01*
X153330000Y-96921000D02*
X153330000Y-105079000D01*
X153370000Y-96922000D02*
X153370000Y-105078000D01*
X153410000Y-96923000D02*
X153410000Y-105077000D01*
X153450000Y-96925000D02*
X153450000Y-105075000D01*
X153490000Y-96927000D02*
X153490000Y-105073000D01*
X153530000Y-96930000D02*
X153530000Y-105070000D01*
X153570000Y-96932000D02*
X153570000Y-105068000D01*
X153610000Y-96936000D02*
X153610000Y-105064000D01*
X153650000Y-96939000D02*
X153650000Y-105061000D01*
X153690000Y-96944000D02*
X153690000Y-105056000D01*
X153730000Y-96948000D02*
X153730000Y-105052000D01*
X153770000Y-96953000D02*
X153770000Y-105047000D01*
X153810000Y-96958000D02*
X153810000Y-105042000D01*
X153850000Y-96964000D02*
X153850000Y-105036000D01*
X153890000Y-96970000D02*
X153890000Y-105030000D01*
X153930000Y-96977000D02*
X153930000Y-105023000D01*
X153970000Y-96983000D02*
X153970000Y-99960000D01*
X153970000Y-102040000D02*
X153970000Y-105017000D01*
X154010000Y-96991000D02*
X154010000Y-99960000D01*
X154010000Y-102040000D02*
X154010000Y-105009000D01*
X154050000Y-96998000D02*
X154050000Y-99960000D01*
X154050000Y-102040000D02*
X154050000Y-105002000D01*
X154090000Y-97007000D02*
X154090000Y-99960000D01*
X154090000Y-102040000D02*
X154090000Y-104993000D01*
X154130000Y-97015000D02*
X154130000Y-99960000D01*
X154130000Y-102040000D02*
X154130000Y-104985000D01*
X154170000Y-97024000D02*
X154170000Y-99960000D01*
X154170000Y-102040000D02*
X154170000Y-104976000D01*
X154210000Y-97033000D02*
X154210000Y-99960000D01*
X154210000Y-102040000D02*
X154210000Y-104967000D01*
X154250000Y-97043000D02*
X154250000Y-99960000D01*
X154250000Y-102040000D02*
X154250000Y-104957000D01*
X154290000Y-97053000D02*
X154290000Y-99960000D01*
X154290000Y-102040000D02*
X154290000Y-104947000D01*
X154330000Y-97064000D02*
X154330000Y-99960000D01*
X154330000Y-102040000D02*
X154330000Y-104936000D01*
X154370000Y-97075000D02*
X154370000Y-99960000D01*
X154370000Y-102040000D02*
X154370000Y-104925000D01*
X154410000Y-97087000D02*
X154410000Y-99960000D01*
X154410000Y-102040000D02*
X154410000Y-104913000D01*
X154450000Y-97099000D02*
X154450000Y-99960000D01*
X154450000Y-102040000D02*
X154450000Y-104901000D01*
X154490000Y-97111000D02*
X154490000Y-99960000D01*
X154490000Y-102040000D02*
X154490000Y-104889000D01*
X154530000Y-97124000D02*
X154530000Y-99960000D01*
X154530000Y-102040000D02*
X154530000Y-104876000D01*
X154570000Y-97137000D02*
X154570000Y-99960000D01*
X154570000Y-102040000D02*
X154570000Y-104863000D01*
X154610000Y-97151000D02*
X154610000Y-99960000D01*
X154610000Y-102040000D02*
X154610000Y-104849000D01*
X154650000Y-97165000D02*
X154650000Y-99960000D01*
X154650000Y-102040000D02*
X154650000Y-104835000D01*
X154690000Y-97180000D02*
X154690000Y-99960000D01*
X154690000Y-102040000D02*
X154690000Y-104820000D01*
X154730000Y-97195000D02*
X154730000Y-99960000D01*
X154730000Y-102040000D02*
X154730000Y-104805000D01*
X154770000Y-97211000D02*
X154770000Y-99960000D01*
X154770000Y-102040000D02*
X154770000Y-104789000D01*
X154810000Y-97227000D02*
X154810000Y-99960000D01*
X154810000Y-102040000D02*
X154810000Y-104773000D01*
X154850000Y-97243000D02*
X154850000Y-99960000D01*
X154850000Y-102040000D02*
X154850000Y-104757000D01*
X154890000Y-97260000D02*
X154890000Y-99960000D01*
X154890000Y-102040000D02*
X154890000Y-104740000D01*
X154930000Y-97278000D02*
X154930000Y-99960000D01*
X154930000Y-102040000D02*
X154930000Y-104722000D01*
X154970000Y-97296000D02*
X154970000Y-99960000D01*
X154970000Y-102040000D02*
X154970000Y-104704000D01*
X155010000Y-97315000D02*
X155010000Y-99960000D01*
X155010000Y-102040000D02*
X155010000Y-104685000D01*
X155050000Y-97334000D02*
X155050000Y-99960000D01*
X155050000Y-102040000D02*
X155050000Y-104666000D01*
X155090000Y-97354000D02*
X155090000Y-99960000D01*
X155090000Y-102040000D02*
X155090000Y-104646000D01*
X155130000Y-97374000D02*
X155130000Y-99960000D01*
X155130000Y-102040000D02*
X155130000Y-104626000D01*
X155170000Y-97395000D02*
X155170000Y-99960000D01*
X155170000Y-102040000D02*
X155170000Y-104605000D01*
X155210000Y-97416000D02*
X155210000Y-99960000D01*
X155210000Y-102040000D02*
X155210000Y-104584000D01*
X155250000Y-97438000D02*
X155250000Y-99960000D01*
X155250000Y-102040000D02*
X155250000Y-104562000D01*
X155290000Y-97461000D02*
X155290000Y-99960000D01*
X155290000Y-102040000D02*
X155290000Y-104539000D01*
X155330000Y-97484000D02*
X155330000Y-99960000D01*
X155330000Y-102040000D02*
X155330000Y-104516000D01*
X155370000Y-97507000D02*
X155370000Y-99960000D01*
X155370000Y-102040000D02*
X155370000Y-104493000D01*
X155410000Y-97532000D02*
X155410000Y-99960000D01*
X155410000Y-102040000D02*
X155410000Y-104468000D01*
X155450000Y-97557000D02*
X155450000Y-99960000D01*
X155450000Y-102040000D02*
X155450000Y-104443000D01*
X155490000Y-97582000D02*
X155490000Y-99960000D01*
X155490000Y-102040000D02*
X155490000Y-104418000D01*
X155530000Y-97608000D02*
X155530000Y-99960000D01*
X155530000Y-102040000D02*
X155530000Y-104392000D01*
X155570000Y-97635000D02*
X155570000Y-99960000D01*
X155570000Y-102040000D02*
X155570000Y-104365000D01*
X155610000Y-97663000D02*
X155610000Y-99960000D01*
X155610000Y-102040000D02*
X155610000Y-104337000D01*
X155650000Y-97691000D02*
X155650000Y-99960000D01*
X155650000Y-102040000D02*
X155650000Y-104309000D01*
X155690000Y-97720000D02*
X155690000Y-99960000D01*
X155690000Y-102040000D02*
X155690000Y-104280000D01*
X155730000Y-97750000D02*
X155730000Y-99960000D01*
X155730000Y-102040000D02*
X155730000Y-104250000D01*
X155770000Y-97781000D02*
X155770000Y-99960000D01*
X155770000Y-102040000D02*
X155770000Y-104219000D01*
X155810000Y-97812000D02*
X155810000Y-99960000D01*
X155810000Y-102040000D02*
X155810000Y-104188000D01*
X155850000Y-97844000D02*
X155850000Y-99960000D01*
X155850000Y-102040000D02*
X155850000Y-104156000D01*
X155890000Y-97877000D02*
X155890000Y-99960000D01*
X155890000Y-102040000D02*
X155890000Y-104123000D01*
X155930000Y-97911000D02*
X155930000Y-99960000D01*
X155930000Y-102040000D02*
X155930000Y-104089000D01*
X155970000Y-97945000D02*
X155970000Y-99960000D01*
X155970000Y-102040000D02*
X155970000Y-104055000D01*
X156010000Y-97981000D02*
X156010000Y-99960000D01*
X156010000Y-102040000D02*
X156010000Y-104019000D01*
X156050000Y-98018000D02*
X156050000Y-103982000D01*
X156090000Y-98055000D02*
X156090000Y-103945000D01*
X156130000Y-98094000D02*
X156130000Y-103906000D01*
X156170000Y-98133000D02*
X156170000Y-103867000D01*
X156210000Y-98174000D02*
X156210000Y-103826000D01*
X156250000Y-98216000D02*
X156250000Y-103784000D01*
X156290000Y-98259000D02*
X156290000Y-103741000D01*
X156330000Y-98304000D02*
X156330000Y-103696000D01*
X156370000Y-98349000D02*
X156370000Y-103651000D01*
X156410000Y-98396000D02*
X156410000Y-103604000D01*
X156450000Y-98445000D02*
X156450000Y-103555000D01*
X156490000Y-98495000D02*
X156490000Y-103505000D01*
X156530000Y-98547000D02*
X156530000Y-103453000D01*
X156570000Y-98600000D02*
X156570000Y-103400000D01*
X156610000Y-98656000D02*
X156610000Y-103344000D01*
X156650000Y-98713000D02*
X156650000Y-103287000D01*
X156690000Y-98773000D02*
X156690000Y-103227000D01*
X156730000Y-98835000D02*
X156730000Y-103165000D01*
X156770000Y-98899000D02*
X156770000Y-103101000D01*
X156810000Y-98966000D02*
X156810000Y-103034000D01*
X156850000Y-99036000D02*
X156850000Y-102964000D01*
X156890000Y-99110000D02*
X156890000Y-102890000D01*
X156930000Y-99187000D02*
X156930000Y-102813000D01*
X156970000Y-99269000D02*
X156970000Y-102731000D01*
X157010000Y-99356000D02*
X157010000Y-102644000D01*
X157050000Y-99448000D02*
X157050000Y-102552000D01*
X157090000Y-99547000D02*
X157090000Y-102453000D01*
X157130000Y-99654000D02*
X157130000Y-102346000D01*
X157170000Y-99772000D02*
X157170000Y-102228000D01*
X157210000Y-99903000D02*
X157210000Y-102097000D01*
X157250000Y-100053000D02*
X157250000Y-101947000D01*
X157290000Y-100232000D02*
X157290000Y-101768000D01*
X157330000Y-100467000D02*
X157330000Y-101533000D01*
X157370000Y-101000000D02*
G75*
G02*
X149130000Y-101000000I-4120000J0D01*
G01*
X149130000Y-101000000D02*
G75*
G02*
X157370000Y-101000000I4120000J0D01*
G01*
%TO.C,J1*%
X160050000Y-99050000D02*
X167450000Y-99050000D01*
X167450000Y-104800000D01*
X160050000Y-104800000D01*
X160050000Y-99050000D01*
%TO.C,C4*%
X155340000Y-106380000D02*
X158580000Y-106380000D01*
X155340000Y-106528000D02*
X155340000Y-106380000D01*
X155340000Y-108620000D02*
X155340000Y-108472000D01*
X158580000Y-106380000D02*
X158580000Y-106528000D01*
X158580000Y-108472000D02*
X158580000Y-108620000D01*
X158580000Y-108620000D02*
X155340000Y-108620000D01*
%TO.C,D2*%
X153264000Y-92790000D02*
X153420000Y-92790000D01*
X155580000Y-92790000D02*
X155736000Y-92790000D01*
X153264484Y-92790000D02*
G75*
G02*
X153420000Y-89558563I1235516J1560000D01*
G01*
X153420000Y-92270961D02*
G75*
G02*
X153420000Y-90189039I1080000J1040961D01*
G01*
X155580000Y-89558563D02*
G75*
G02*
X155735516Y-92790000I-1080000J-1671437D01*
G01*
X155580000Y-90189039D02*
G75*
G02*
X155580000Y-92270961I-1080000J-1040961D01*
G01*
%TO.C,C3*%
X141420000Y-106380000D02*
X144660000Y-106380000D01*
X141420000Y-106528000D02*
X141420000Y-106380000D01*
X141420000Y-108620000D02*
X141420000Y-108472000D01*
X144660000Y-106380000D02*
X144660000Y-106528000D01*
X144660000Y-108472000D02*
X144660000Y-108620000D01*
X144660000Y-108620000D02*
X141420000Y-108620000D01*
%TO.C,D1*%
X171980000Y-98000000D02*
X173000000Y-98000000D01*
X177420000Y-99470000D02*
X177420000Y-96530000D01*
X177540000Y-99470000D02*
X177540000Y-96530000D01*
X177660000Y-99470000D02*
X177660000Y-96530000D01*
X179460000Y-98000000D02*
X178440000Y-98000000D01*
X173000000Y-96530000D02*
X178440000Y-96530000D01*
X178440000Y-99470000D01*
X173000000Y-99470000D01*
X173000000Y-96530000D01*
%TO.C,R8*%
X154500000Y-78540000D02*
X154500000Y-79310000D01*
X154500000Y-86620000D02*
X154500000Y-85850000D01*
X153130000Y-79310000D02*
X155870000Y-79310000D01*
X155870000Y-85850000D01*
X153130000Y-85850000D01*
X153130000Y-79310000D01*
%TO.C,R3*%
X162000000Y-59040000D02*
X162000000Y-59810000D01*
X162000000Y-67120000D02*
X162000000Y-66350000D01*
X160630000Y-59810000D02*
X163370000Y-59810000D01*
X163370000Y-66350000D01*
X160630000Y-66350000D01*
X160630000Y-59810000D01*
%TO.C,C2*%
X118340302Y-92185000D02*
X119140302Y-92185000D01*
X118740302Y-91785000D02*
X118740302Y-92585000D01*
X122750000Y-90420000D02*
X122750000Y-98580000D01*
X122790000Y-90420000D02*
X122790000Y-98580000D01*
X122830000Y-90421000D02*
X122830000Y-98579000D01*
X122870000Y-90422000D02*
X122870000Y-98578000D01*
X122910000Y-90423000D02*
X122910000Y-98577000D01*
X122950000Y-90425000D02*
X122950000Y-98575000D01*
X122990000Y-90427000D02*
X122990000Y-98573000D01*
X123030000Y-90430000D02*
X123030000Y-98570000D01*
X123070000Y-90432000D02*
X123070000Y-98568000D01*
X123110000Y-90436000D02*
X123110000Y-98564000D01*
X123150000Y-90439000D02*
X123150000Y-98561000D01*
X123190000Y-90444000D02*
X123190000Y-98556000D01*
X123230000Y-90448000D02*
X123230000Y-98552000D01*
X123270000Y-90453000D02*
X123270000Y-98547000D01*
X123310000Y-90458000D02*
X123310000Y-98542000D01*
X123350000Y-90464000D02*
X123350000Y-98536000D01*
X123390000Y-90470000D02*
X123390000Y-98530000D01*
X123430000Y-90477000D02*
X123430000Y-98523000D01*
X123470000Y-90483000D02*
X123470000Y-93460000D01*
X123470000Y-95540000D02*
X123470000Y-98517000D01*
X123510000Y-90491000D02*
X123510000Y-93460000D01*
X123510000Y-95540000D02*
X123510000Y-98509000D01*
X123550000Y-90498000D02*
X123550000Y-93460000D01*
X123550000Y-95540000D02*
X123550000Y-98502000D01*
X123590000Y-90507000D02*
X123590000Y-93460000D01*
X123590000Y-95540000D02*
X123590000Y-98493000D01*
X123630000Y-90515000D02*
X123630000Y-93460000D01*
X123630000Y-95540000D02*
X123630000Y-98485000D01*
X123670000Y-90524000D02*
X123670000Y-93460000D01*
X123670000Y-95540000D02*
X123670000Y-98476000D01*
X123710000Y-90533000D02*
X123710000Y-93460000D01*
X123710000Y-95540000D02*
X123710000Y-98467000D01*
X123750000Y-90543000D02*
X123750000Y-93460000D01*
X123750000Y-95540000D02*
X123750000Y-98457000D01*
X123790000Y-90553000D02*
X123790000Y-93460000D01*
X123790000Y-95540000D02*
X123790000Y-98447000D01*
X123830000Y-90564000D02*
X123830000Y-93460000D01*
X123830000Y-95540000D02*
X123830000Y-98436000D01*
X123870000Y-90575000D02*
X123870000Y-93460000D01*
X123870000Y-95540000D02*
X123870000Y-98425000D01*
X123910000Y-90587000D02*
X123910000Y-93460000D01*
X123910000Y-95540000D02*
X123910000Y-98413000D01*
X123950000Y-90599000D02*
X123950000Y-93460000D01*
X123950000Y-95540000D02*
X123950000Y-98401000D01*
X123990000Y-90611000D02*
X123990000Y-93460000D01*
X123990000Y-95540000D02*
X123990000Y-98389000D01*
X124030000Y-90624000D02*
X124030000Y-93460000D01*
X124030000Y-95540000D02*
X124030000Y-98376000D01*
X124070000Y-90637000D02*
X124070000Y-93460000D01*
X124070000Y-95540000D02*
X124070000Y-98363000D01*
X124110000Y-90651000D02*
X124110000Y-93460000D01*
X124110000Y-95540000D02*
X124110000Y-98349000D01*
X124150000Y-90665000D02*
X124150000Y-93460000D01*
X124150000Y-95540000D02*
X124150000Y-98335000D01*
X124190000Y-90680000D02*
X124190000Y-93460000D01*
X124190000Y-95540000D02*
X124190000Y-98320000D01*
X124230000Y-90695000D02*
X124230000Y-93460000D01*
X124230000Y-95540000D02*
X124230000Y-98305000D01*
X124270000Y-90711000D02*
X124270000Y-93460000D01*
X124270000Y-95540000D02*
X124270000Y-98289000D01*
X124310000Y-90727000D02*
X124310000Y-93460000D01*
X124310000Y-95540000D02*
X124310000Y-98273000D01*
X124350000Y-90743000D02*
X124350000Y-93460000D01*
X124350000Y-95540000D02*
X124350000Y-98257000D01*
X124390000Y-90760000D02*
X124390000Y-93460000D01*
X124390000Y-95540000D02*
X124390000Y-98240000D01*
X124430000Y-90778000D02*
X124430000Y-93460000D01*
X124430000Y-95540000D02*
X124430000Y-98222000D01*
X124470000Y-90796000D02*
X124470000Y-93460000D01*
X124470000Y-95540000D02*
X124470000Y-98204000D01*
X124510000Y-90815000D02*
X124510000Y-93460000D01*
X124510000Y-95540000D02*
X124510000Y-98185000D01*
X124550000Y-90834000D02*
X124550000Y-93460000D01*
X124550000Y-95540000D02*
X124550000Y-98166000D01*
X124590000Y-90854000D02*
X124590000Y-93460000D01*
X124590000Y-95540000D02*
X124590000Y-98146000D01*
X124630000Y-90874000D02*
X124630000Y-93460000D01*
X124630000Y-95540000D02*
X124630000Y-98126000D01*
X124670000Y-90895000D02*
X124670000Y-93460000D01*
X124670000Y-95540000D02*
X124670000Y-98105000D01*
X124710000Y-90916000D02*
X124710000Y-93460000D01*
X124710000Y-95540000D02*
X124710000Y-98084000D01*
X124750000Y-90938000D02*
X124750000Y-93460000D01*
X124750000Y-95540000D02*
X124750000Y-98062000D01*
X124790000Y-90961000D02*
X124790000Y-93460000D01*
X124790000Y-95540000D02*
X124790000Y-98039000D01*
X124830000Y-90984000D02*
X124830000Y-93460000D01*
X124830000Y-95540000D02*
X124830000Y-98016000D01*
X124870000Y-91007000D02*
X124870000Y-93460000D01*
X124870000Y-95540000D02*
X124870000Y-97993000D01*
X124910000Y-91032000D02*
X124910000Y-93460000D01*
X124910000Y-95540000D02*
X124910000Y-97968000D01*
X124950000Y-91057000D02*
X124950000Y-93460000D01*
X124950000Y-95540000D02*
X124950000Y-97943000D01*
X124990000Y-91082000D02*
X124990000Y-93460000D01*
X124990000Y-95540000D02*
X124990000Y-97918000D01*
X125030000Y-91108000D02*
X125030000Y-93460000D01*
X125030000Y-95540000D02*
X125030000Y-97892000D01*
X125070000Y-91135000D02*
X125070000Y-93460000D01*
X125070000Y-95540000D02*
X125070000Y-97865000D01*
X125110000Y-91163000D02*
X125110000Y-93460000D01*
X125110000Y-95540000D02*
X125110000Y-97837000D01*
X125150000Y-91191000D02*
X125150000Y-93460000D01*
X125150000Y-95540000D02*
X125150000Y-97809000D01*
X125190000Y-91220000D02*
X125190000Y-93460000D01*
X125190000Y-95540000D02*
X125190000Y-97780000D01*
X125230000Y-91250000D02*
X125230000Y-93460000D01*
X125230000Y-95540000D02*
X125230000Y-97750000D01*
X125270000Y-91281000D02*
X125270000Y-93460000D01*
X125270000Y-95540000D02*
X125270000Y-97719000D01*
X125310000Y-91312000D02*
X125310000Y-93460000D01*
X125310000Y-95540000D02*
X125310000Y-97688000D01*
X125350000Y-91344000D02*
X125350000Y-93460000D01*
X125350000Y-95540000D02*
X125350000Y-97656000D01*
X125390000Y-91377000D02*
X125390000Y-93460000D01*
X125390000Y-95540000D02*
X125390000Y-97623000D01*
X125430000Y-91411000D02*
X125430000Y-93460000D01*
X125430000Y-95540000D02*
X125430000Y-97589000D01*
X125470000Y-91445000D02*
X125470000Y-93460000D01*
X125470000Y-95540000D02*
X125470000Y-97555000D01*
X125510000Y-91481000D02*
X125510000Y-93460000D01*
X125510000Y-95540000D02*
X125510000Y-97519000D01*
X125550000Y-91518000D02*
X125550000Y-97482000D01*
X125590000Y-91555000D02*
X125590000Y-97445000D01*
X125630000Y-91594000D02*
X125630000Y-97406000D01*
X125670000Y-91633000D02*
X125670000Y-97367000D01*
X125710000Y-91674000D02*
X125710000Y-97326000D01*
X125750000Y-91716000D02*
X125750000Y-97284000D01*
X125790000Y-91759000D02*
X125790000Y-97241000D01*
X125830000Y-91804000D02*
X125830000Y-97196000D01*
X125870000Y-91849000D02*
X125870000Y-97151000D01*
X125910000Y-91896000D02*
X125910000Y-97104000D01*
X125950000Y-91945000D02*
X125950000Y-97055000D01*
X125990000Y-91995000D02*
X125990000Y-97005000D01*
X126030000Y-92047000D02*
X126030000Y-96953000D01*
X126070000Y-92100000D02*
X126070000Y-96900000D01*
X126110000Y-92156000D02*
X126110000Y-96844000D01*
X126150000Y-92213000D02*
X126150000Y-96787000D01*
X126190000Y-92273000D02*
X126190000Y-96727000D01*
X126230000Y-92335000D02*
X126230000Y-96665000D01*
X126270000Y-92399000D02*
X126270000Y-96601000D01*
X126310000Y-92466000D02*
X126310000Y-96534000D01*
X126350000Y-92536000D02*
X126350000Y-96464000D01*
X126390000Y-92610000D02*
X126390000Y-96390000D01*
X126430000Y-92687000D02*
X126430000Y-96313000D01*
X126470000Y-92769000D02*
X126470000Y-96231000D01*
X126510000Y-92856000D02*
X126510000Y-96144000D01*
X126550000Y-92948000D02*
X126550000Y-96052000D01*
X126590000Y-93047000D02*
X126590000Y-95953000D01*
X126630000Y-93154000D02*
X126630000Y-95846000D01*
X126670000Y-93272000D02*
X126670000Y-95728000D01*
X126710000Y-93403000D02*
X126710000Y-95597000D01*
X126750000Y-93553000D02*
X126750000Y-95447000D01*
X126790000Y-93732000D02*
X126790000Y-95268000D01*
X126830000Y-93967000D02*
X126830000Y-95033000D01*
X126870000Y-94500000D02*
G75*
G02*
X118630000Y-94500000I-4120000J0D01*
G01*
X118630000Y-94500000D02*
G75*
G02*
X126870000Y-94500000I4120000J0D01*
G01*
%TO.C,R6*%
X168000000Y-59040000D02*
X168000000Y-59810000D01*
X168000000Y-67120000D02*
X168000000Y-66350000D01*
X166630000Y-59810000D02*
X169370000Y-59810000D01*
X169370000Y-66350000D01*
X166630000Y-66350000D01*
X166630000Y-59810000D01*
%TO.C,U1*%
X160620000Y-76100000D02*
X160620000Y-93900000D01*
X162300000Y-76100000D02*
X160620000Y-76100000D01*
X162300000Y-93900000D02*
X160620000Y-93900000D01*
%TD*%
M02*
