M48
; DRILL file KiCad 10.0.6 date 2026-10-05T21:20:23
; FORMAT={-:-/ absolute / metric / decimal}
; #@! TF.CreationDate,2026-10-05T21:20:23+09:00
; #@! TF.GenerationSoftware,Kicad,Pcbnew,10.0.6
; #@! TF.FileFunction,Plated,1,2,PTH
FMAT,2
METRIC
; #@! TA.AperFunction,Plated,PTH,ComponentDrill
T1C0.800
; #@! TA.AperFunction,Plated,PTH,ComponentDrill
T2C0.900
; #@! TA.AperFunction,Plated,PTH,ComponentDrill
T3C1.000
; #@! TA.AperFunction,Plated,PTH,ComponentDrill
T4C1.100
%
G90
G05
T1
X120.5Y-54.5
X121.0Y-94.5
X123.04Y-54.5
X124.5Y-94.5
X125.58Y-54.5
X126.0Y-58.0
X126.0Y-68.16
X132.0Y-58.0
X132.0Y-68.16
X138.0Y-58.0
X138.0Y-68.16
X141.79Y-107.5
X144.0Y-58.0
X144.0Y-68.16
X144.29Y-107.5
X151.5Y-101.0
X154.5Y-77.5
X154.5Y-87.66
X155.0Y-101.0
X155.71Y-107.5
X156.0Y-58.0
X156.0Y-68.16
X158.21Y-107.5
X162.0Y-58.0
X162.0Y-68.16
X168.0Y-58.0
X168.0Y-68.16
T2
X135.95Y-52.73
X135.95Y-55.27
X140.05Y-52.73
X140.05Y-55.27
X147.95Y-52.73
X147.95Y-55.27
X152.05Y-52.73
X152.05Y-55.27
X154.5Y-89.96
X154.5Y-92.5
X159.95Y-52.73
X159.95Y-55.27
X164.05Y-52.73
X164.05Y-55.27
T3
X129.11Y-96.19
X129.11Y-103.81
X131.65Y-96.19
X131.65Y-103.81
X134.19Y-96.19
X134.19Y-103.81
X136.73Y-96.19
X136.73Y-103.81
X139.27Y-96.19
X139.27Y-103.81
X141.81Y-96.19
X141.81Y-103.81
X144.35Y-96.19
X144.35Y-103.81
X146.89Y-96.19
X146.89Y-103.81
X162.5Y-101.5
X163.43Y-77.38
X163.43Y-92.62
X165.0Y-101.5
X165.97Y-77.38
X165.97Y-92.62
X168.51Y-77.38
X168.51Y-92.62
X171.05Y-77.38
X171.05Y-92.62
X173.59Y-77.38
X173.59Y-92.62
X176.13Y-77.38
X176.13Y-92.62
X178.67Y-77.38
X178.67Y-92.62
T4
X120.0Y-74.5
X120.0Y-79.0
X126.5Y-74.5
X126.5Y-79.0
X140.5Y-111.5
X145.58Y-111.5
X154.42Y-111.5
X159.5Y-111.5
X170.64Y-98.0
X180.8Y-98.0
M30
