%TF.GenerationSoftware,KiCad,Pcbnew,10.0.6*%
%TF.CreationDate,2026-10-09T02:43:07+09:00*%
%TF.ProjectId,Linetracer2-Lite,4c696e65-7472-4616-9365-72322d4c6974,rev?*%
%TF.SameCoordinates,Original*%
%TF.FileFunction,Copper,L1,Top*%
%TF.FilePolarity,Positive*%
%FSLAX46Y46*%
G04 Gerber Fmt 4.6, Leading zero omitted, Abs format (unit mm)*
G04 Created by KiCad (PCBNEW 10.0.6) date 2026-10-09 02:43:07*
%MOMM*%
%LPD*%
G01*
G04 APERTURE LIST*
G04 Aperture macros list*
%AMRoundRect*
0 Rectangle with rounded corners*
0 $1 Rounding radius*
0 $2 $3 $4 $5 $6 $7 $8 $9 X,Y pos of 4 corners*
0 Add a 4 corners polygon primitive as box body*
4,1,4,$2,$3,$4,$5,$6,$7,$8,$9,$2,$3,0*
0 Add four circle primitives for the rounded corners*
1,1,$1+$1,$2,$3*
1,1,$1+$1,$4,$5*
1,1,$1+$1,$6,$7*
1,1,$1+$1,$8,$9*
0 Add four rect primitives between the rounded corners*
20,1,$1+$1,$2,$3,$4,$5,0*
20,1,$1+$1,$4,$5,$6,$7,0*
20,1,$1+$1,$6,$7,$8,$9,0*
20,1,$1+$1,$8,$9,$2,$3,0*%
G04 Aperture macros list end*
%TA.AperFunction,SMDPad,CuDef*%
%ADD10C,1.500000*%
%TD*%
%TA.AperFunction,ComponentPad*%
%ADD11C,1.600000*%
%TD*%
%TA.AperFunction,ComponentPad*%
%ADD12R,1.700000X1.700000*%
%TD*%
%TA.AperFunction,ComponentPad*%
%ADD13C,1.700000*%
%TD*%
%TA.AperFunction,ComponentPad*%
%ADD14C,1.400000*%
%TD*%
%TA.AperFunction,ComponentPad*%
%ADD15RoundRect,0.249999X-0.850001X0.850001X-0.850001X-0.850001X0.850001X-0.850001X0.850001X0.850001X0*%
%TD*%
%TA.AperFunction,ComponentPad*%
%ADD16C,2.200000*%
%TD*%
%TA.AperFunction,ComponentPad*%
%ADD17R,2.300000X2.300000*%
%TD*%
%TA.AperFunction,ComponentPad*%
%ADD18C,2.300000*%
%TD*%
%TA.AperFunction,ComponentPad*%
%ADD19R,1.800000X1.800000*%
%TD*%
%TA.AperFunction,ComponentPad*%
%ADD20C,1.800000*%
%TD*%
%TA.AperFunction,ComponentPad*%
%ADD21R,1.500000X1.500000*%
%TD*%
%TA.AperFunction,ComponentPad*%
%ADD22C,1.500000*%
%TD*%
%TA.AperFunction,ComponentPad*%
%ADD23RoundRect,0.250000X0.550000X-0.550000X0.550000X0.550000X-0.550000X0.550000X-0.550000X-0.550000X0*%
%TD*%
%TA.AperFunction,ComponentPad*%
%ADD24C,2.000000*%
%TD*%
%TA.AperFunction,ComponentPad*%
%ADD25R,1.500000X2.400000*%
%TD*%
%TA.AperFunction,ComponentPad*%
%ADD26O,1.500000X2.400000*%
%TD*%
%TA.AperFunction,ComponentPad*%
%ADD27RoundRect,0.250000X0.550000X0.550000X-0.550000X0.550000X-0.550000X-0.550000X0.550000X-0.550000X0*%
%TD*%
%TA.AperFunction,ComponentPad*%
%ADD28R,1.600000X1.600000*%
%TD*%
%TA.AperFunction,Conductor*%
%ADD29C,0.300000*%
%TD*%
%TA.AperFunction,Conductor*%
%ADD30C,0.400000*%
%TD*%
%TA.AperFunction,Conductor*%
%ADD31C,0.250000*%
%TD*%
%TA.AperFunction,Conductor*%
%ADD32C,0.800000*%
%TD*%
%TA.AperFunction,Conductor*%
%ADD33C,1.000000*%
%TD*%
G04 APERTURE END LIST*
D10*
%TO.P,TP2,1*%
%TO.N,+3V3*%
X150000000Y-68160000D03*
%TD*%
%TO.P,TP7,1*%
%TO.N,/LED_K*%
X128789999Y-57800000D03*
%TD*%
D11*
%TO.P,R6,1*%
%TO.N,+3V3*%
X168000000Y-68160000D03*
%TO.P,R6,2*%
%TO.N,/SENS3*%
X168000000Y-58000000D03*
%TD*%
D10*
%TO.P,TP6,1*%
%TO.N,/SENS3*%
X171000000Y-64000000D03*
%TD*%
%TO.P,TP4,1*%
%TO.N,/SENS1*%
X147200000Y-66599999D03*
%TD*%
D12*
%TO.P,U1,1*%
%TO.N,/SENS3*%
X178670000Y-73380000D03*
D13*
%TO.P,U1,2*%
%TO.N,/SENS2*%
X176130000Y-73380000D03*
%TO.P,U1,3*%
%TO.N,/SENS1*%
X173590000Y-73380000D03*
%TO.P,U1,4*%
%TO.N,/SENS_LED_EN*%
X171050000Y-73380000D03*
%TO.P,U1,5*%
%TO.N,/SW1*%
X168510000Y-73380000D03*
%TO.P,U1,6*%
%TO.N,/MOT_IN2*%
X165970000Y-73380000D03*
%TO.P,U1,7*%
%TO.N,/RGB_DIN*%
X163430000Y-73380000D03*
%TO.P,U1,8*%
%TO.N,/MOT_STBY*%
X163430000Y-88620000D03*
%TO.P,U1,9*%
%TO.N,/MOT_IN1*%
X165970000Y-88620000D03*
%TO.P,U1,10*%
%TO.N,/MOT_IN3*%
X168510000Y-88620000D03*
%TO.P,U1,11*%
%TO.N,/MOT_IN4*%
X171050000Y-88620000D03*
%TO.P,U1,12*%
%TO.N,+3V3*%
X173590000Y-88620000D03*
%TO.P,U1,13*%
%TO.N,GND*%
X176130000Y-88620000D03*
%TO.P,U1,14*%
%TO.N,/VSYS*%
X178670000Y-88620000D03*
%TD*%
D11*
%TO.P,R3,1*%
%TO.N,+3V3*%
X162000000Y-68160000D03*
%TO.P,R3,2*%
%TO.N,Net-(PS3-A)*%
X162000000Y-58000000D03*
%TD*%
D14*
%TO.P,D6,1*%
%TO.N,GND*%
X180150000Y-62235000D03*
%TO.P,D6,2*%
%TO.N,Net-(D6-DO)*%
X178350000Y-63505000D03*
%TO.P,D6,3*%
%TO.N,/VSYS*%
X178350000Y-60965000D03*
%TO.P,D6,4*%
%TO.N,Net-(D5-DO)*%
X180150000Y-59695000D03*
%TD*%
D11*
%TO.P,C3,1*%
%TO.N,/MOT_OUT1*%
X145790000Y-108350000D03*
%TO.P,C3,2*%
%TO.N,/MOT_OUT2*%
X143290000Y-108350000D03*
%TD*%
D14*
%TO.P,D5,1*%
%TO.N,GND*%
X180150000Y-55235000D03*
%TO.P,D5,2*%
%TO.N,Net-(D5-DO)*%
X178350000Y-56505000D03*
%TO.P,D5,3*%
%TO.N,/VSYS*%
X178350000Y-53965000D03*
%TO.P,D5,4*%
%TO.N,Net-(D4-DO)*%
X180150000Y-52695000D03*
%TD*%
D10*
%TO.P,TP1,1*%
%TO.N,GND*%
X150000000Y-72600000D03*
%TD*%
D15*
%TO.P,D1,1*%
%TO.N,/VSYS*%
X180600000Y-95250000D03*
D16*
%TO.P,D1,2*%
%TO.N,/VBAT*%
X180600000Y-105410000D03*
%TD*%
D14*
%TO.P,D2,1*%
%TO.N,GND*%
X119850000Y-67965000D03*
%TO.P,D2,2*%
%TO.N,Net-(D2-DO)*%
X121650000Y-66695000D03*
%TO.P,D2,3*%
%TO.N,/VSYS*%
X121650000Y-69235000D03*
%TO.P,D2,4*%
%TO.N,/RGB_DIN*%
X119850000Y-70505000D03*
%TD*%
D11*
%TO.P,C4,1*%
%TO.N,/MOT_OUT4*%
X156750000Y-108350000D03*
%TO.P,C4,2*%
%TO.N,/MOT_OUT3*%
X154250000Y-108350000D03*
%TD*%
%TO.P,R4,1*%
%TO.N,+3V3*%
X138000000Y-68160000D03*
%TO.P,R4,2*%
%TO.N,/SENS1*%
X138000000Y-58000000D03*
%TD*%
D17*
%TO.P,M1,1*%
%TO.N,/MOT_OUT1*%
X145579999Y-111500000D03*
D18*
%TO.P,M1,2*%
%TO.N,/MOT_OUT2*%
X140499999Y-111500000D03*
%TD*%
D14*
%TO.P,D7,1*%
%TO.N,GND*%
X180150000Y-69235000D03*
%TO.P,D7,2*%
%TO.N,unconnected-(D7-DO-Pad2)*%
X178350000Y-70505000D03*
%TO.P,D7,3*%
%TO.N,/VSYS*%
X178350000Y-67965000D03*
%TO.P,D7,4*%
%TO.N,Net-(D6-DO)*%
X180150000Y-66695000D03*
%TD*%
D11*
%TO.P,R1,1*%
%TO.N,+3V3*%
X132000000Y-68160000D03*
%TO.P,R1,2*%
%TO.N,Net-(PS1-A)*%
X132000000Y-58000000D03*
%TD*%
D19*
%TO.P,U2,1*%
%TO.N,GND*%
X158890000Y-97790000D03*
D20*
%TO.P,U2,2*%
X156350000Y-97790000D03*
%TO.P,U2,3*%
%TO.N,/MOT_STBY*%
X153810000Y-97790000D03*
%TO.P,U2,4*%
%TO.N,/MOT_IN4*%
X151270000Y-97790000D03*
%TO.P,U2,5*%
%TO.N,/MOT_IN3*%
X148730000Y-97790000D03*
%TO.P,U2,6*%
%TO.N,/MOT_IN1*%
X146190000Y-97790000D03*
%TO.P,U2,7*%
%TO.N,/MOT_IN2*%
X143650000Y-97790000D03*
%TO.P,U2,8*%
%TO.N,GND*%
X141110000Y-97790000D03*
%TO.P,U2,9*%
X141110000Y-105410000D03*
%TO.P,U2,10*%
X143650000Y-105410000D03*
%TO.P,U2,11*%
%TO.N,/MOT_OUT2*%
X146190000Y-105410000D03*
%TO.P,U2,12*%
%TO.N,/MOT_OUT1*%
X148730000Y-105410000D03*
%TO.P,U2,13*%
%TO.N,/MOT_OUT3*%
X151270000Y-105410000D03*
%TO.P,U2,14*%
%TO.N,/MOT_OUT4*%
X153810000Y-105410000D03*
%TO.P,U2,15*%
%TO.N,/VBAT*%
X156350000Y-105410000D03*
%TO.P,U2,16*%
X158890000Y-105410000D03*
%TD*%
D11*
%TO.P,R10,1*%
%TO.N,/SW1*%
X125580000Y-74500000D03*
%TO.P,R10,2*%
%TO.N,/BTN*%
X125580000Y-84660000D03*
%TD*%
D14*
%TO.P,D3,1*%
%TO.N,GND*%
X119850000Y-60965000D03*
%TO.P,D3,2*%
%TO.N,Net-(D3-DO)*%
X121650000Y-59695000D03*
%TO.P,D3,3*%
%TO.N,/VSYS*%
X121650000Y-62235000D03*
%TO.P,D3,4*%
%TO.N,Net-(D2-DO)*%
X119850000Y-63505000D03*
%TD*%
D21*
%TO.P,Q1,1*%
%TO.N,GND*%
X130660000Y-53200000D03*
D22*
%TO.P,Q1,2*%
%TO.N,/LED_K*%
X128120000Y-53200000D03*
%TO.P,Q1,3*%
%TO.N,Net-(Q1-B)*%
X125580000Y-53200000D03*
%TD*%
D10*
%TO.P,TP3,1*%
%TO.N,/VSYS*%
X181000000Y-91500000D03*
%TD*%
D23*
%TO.P,C1,1*%
%TO.N,/VBAT*%
X164800000Y-104250000D03*
D11*
%TO.P,C1,2*%
%TO.N,GND*%
X164800000Y-100750000D03*
%TD*%
D19*
%TO.P,BZ1,1*%
%TO.N,Net-(BZ1-+)*%
X132500000Y-97500000D03*
D20*
%TO.P,BZ1,2*%
%TO.N,GND*%
X132500000Y-102500000D03*
%TD*%
D17*
%TO.P,M2,1*%
%TO.N,/MOT_OUT4*%
X159500000Y-111500000D03*
D18*
%TO.P,M2,2*%
%TO.N,/MOT_OUT3*%
X154420000Y-111500000D03*
%TD*%
D24*
%TO.P,SW1,1*%
%TO.N,/BTN*%
X119080000Y-87400000D03*
X125580000Y-87400000D03*
%TO.P,SW1,2*%
%TO.N,GND*%
X119080000Y-91900000D03*
X125580000Y-91900000D03*
%TD*%
D14*
%TO.P,D4,1*%
%TO.N,GND*%
X119850000Y-53965000D03*
%TO.P,D4,2*%
%TO.N,Net-(D4-DO)*%
X121650000Y-52695000D03*
%TO.P,D4,3*%
%TO.N,/VSYS*%
X121650000Y-55235000D03*
%TO.P,D4,4*%
%TO.N,Net-(D3-DO)*%
X119850000Y-56505000D03*
%TD*%
D11*
%TO.P,R7,1*%
%TO.N,/SENS_LED_EN*%
X125580000Y-68160000D03*
%TO.P,R7,2*%
%TO.N,Net-(Q1-B)*%
X125580000Y-58000000D03*
%TD*%
D25*
%TO.P,J1,1*%
%TO.N,/VBAT*%
X172800000Y-103000000D03*
D26*
%TO.P,J1,2*%
%TO.N,GND*%
X175300000Y-103000000D03*
%TD*%
D27*
%TO.P,C2,1*%
%TO.N,/VSYS*%
X176350000Y-95250000D03*
D11*
%TO.P,C2,2*%
%TO.N,GND*%
X172850000Y-95250000D03*
%TD*%
D10*
%TO.P,TP5,1*%
%TO.N,/SENS2*%
X159000000Y-65300000D03*
%TD*%
D11*
%TO.P,R9,1*%
%TO.N,/SW1*%
X132500000Y-74500000D03*
%TO.P,R9,2*%
%TO.N,Net-(BZ1-+)*%
X132500000Y-84660000D03*
%TD*%
%TO.P,R5,1*%
%TO.N,+3V3*%
X156000000Y-68160000D03*
%TO.P,R5,2*%
%TO.N,/SENS2*%
X156000000Y-58000000D03*
%TD*%
%TO.P,R2,1*%
%TO.N,+3V3*%
X144000000Y-68160000D03*
%TO.P,R2,2*%
%TO.N,Net-(PS2-A)*%
X144000000Y-58000000D03*
%TD*%
D28*
%TO.P,PS1,1*%
%TO.N,Net-(PS1-A)*%
X135950000Y-52730000D03*
D11*
%TO.P,PS1,2*%
%TO.N,/LED_K*%
X135950000Y-55270000D03*
%TO.P,PS1,3*%
%TO.N,GND*%
X140050000Y-52730000D03*
%TO.P,PS1,4*%
%TO.N,/SENS1*%
X140050000Y-55270000D03*
%TD*%
D28*
%TO.P,PS2,1*%
%TO.N,Net-(PS2-A)*%
X147950000Y-52730000D03*
D11*
%TO.P,PS2,2*%
%TO.N,/LED_K*%
X147950000Y-55270000D03*
%TO.P,PS2,3*%
%TO.N,GND*%
X152050000Y-52730000D03*
%TO.P,PS2,4*%
%TO.N,/SENS2*%
X152050000Y-55270000D03*
%TD*%
D28*
%TO.P,PS3,1*%
%TO.N,Net-(PS3-A)*%
X159950000Y-52730000D03*
D11*
%TO.P,PS3,2*%
%TO.N,/LED_K*%
X159950000Y-55270000D03*
%TO.P,PS3,3*%
%TO.N,GND*%
X164050000Y-52730000D03*
%TO.P,PS3,4*%
%TO.N,/SENS3*%
X164050000Y-55270000D03*
%TD*%
%TO.N,+3V3*%
D29*
X172320000Y-68960000D02*
X172320000Y-87350000D01*
X171519999Y-68160000D02*
X172320000Y-68960000D01*
X168000000Y-68160000D02*
X171519999Y-68160000D01*
D30*
X132000000Y-68160000D02*
X150000000Y-68160000D01*
D29*
X172320000Y-87350000D02*
X173590000Y-88620000D01*
D30*
X150000000Y-68160000D02*
X168000000Y-68160000D01*
%TO.N,/LED_K*%
X128120000Y-53200000D02*
X128120000Y-57130000D01*
X128789999Y-57800000D02*
X128789999Y-57800000D01*
X128120000Y-57130000D02*
X128789999Y-57800000D01*
%TO.N,/SENS3*%
D31*
X164050000Y-63200000D02*
X164850000Y-64000000D01*
X171000000Y-64000000D02*
X176200000Y-64000000D01*
X176200000Y-64000000D02*
X177000000Y-64800000D01*
X177000000Y-71710000D02*
X178670000Y-73380000D01*
X177000000Y-64800000D02*
X177000000Y-71710000D01*
X164050000Y-55270000D02*
X164050000Y-63200000D01*
X164050000Y-58000000D02*
X168000000Y-58000000D01*
X164850000Y-64000000D02*
X171000000Y-64000000D01*
%TO.N,/SENS1*%
X172790000Y-66599999D02*
X173590000Y-67399999D01*
X140050000Y-58000000D02*
X138000000Y-58000000D01*
X140050000Y-55270000D02*
X140050000Y-66599999D01*
X140050000Y-66599999D02*
X147200000Y-66599999D01*
X147200000Y-66599999D02*
X172790000Y-66599999D01*
X173590000Y-67399999D02*
X173590000Y-73380000D01*
%TO.N,/SENS2*%
X153500000Y-56719999D02*
X153500000Y-64500000D01*
X175329999Y-65300000D02*
X176130000Y-66099999D01*
X159000000Y-65300000D02*
X175329999Y-65300000D01*
X153500000Y-64500000D02*
X154300000Y-65300000D01*
X152050000Y-55270000D02*
X153500000Y-56719999D01*
X153500000Y-58000000D02*
X156000000Y-58000000D01*
X154300000Y-65300000D02*
X159000000Y-65300000D01*
X176130000Y-66099999D02*
X176130000Y-73380000D01*
%TO.N,/SENS_LED_EN*%
X171050000Y-73380000D02*
X171050000Y-70400000D01*
X125580000Y-68800000D02*
X125580000Y-68160000D01*
X126380000Y-69600000D02*
X125580000Y-68800000D01*
X170250000Y-69600000D02*
X126380000Y-69600000D01*
X171050000Y-70400000D02*
X170250000Y-69600000D01*
%TO.N,/SW1*%
X168510000Y-71400000D02*
X167709999Y-70600000D01*
X168510000Y-73380000D02*
X168510000Y-71400000D01*
X125580000Y-71400000D02*
X125580000Y-74500000D01*
X126380000Y-70600000D02*
X125580000Y-71400000D01*
X167709999Y-70600000D02*
X126380000Y-70600000D01*
X132500000Y-70600000D02*
X132500000Y-74500000D01*
%TO.N,/MOT_IN2*%
X163900000Y-90600000D02*
X144450000Y-90600000D01*
X144450000Y-90600000D02*
X143650000Y-91400000D01*
X165970000Y-86200000D02*
X164700000Y-87470000D01*
X164700000Y-89800000D02*
X163900000Y-90600000D01*
X164700000Y-87470000D02*
X164700000Y-89800000D01*
X165970000Y-73380000D02*
X165970000Y-86200000D01*
X143650000Y-91400000D02*
X143650000Y-97790000D01*
%TO.N,/MOT_IN1*%
X146990000Y-91870000D02*
X146190000Y-92669999D01*
X146190000Y-92669999D02*
X146190000Y-97790000D01*
X165970000Y-88620000D02*
X165970000Y-91070000D01*
X165970000Y-91070000D02*
X165170000Y-91870000D01*
X165170000Y-91870000D02*
X146990000Y-91870000D01*
%TO.N,/MOT_IN3*%
X168510000Y-92340000D02*
X167709999Y-93140000D01*
X168510000Y-88620000D02*
X168510000Y-92340000D01*
X149530000Y-93140000D02*
X148730000Y-93940000D01*
X148730000Y-93940000D02*
X148730000Y-97790000D01*
X167709999Y-93140000D02*
X149530000Y-93140000D01*
%TO.N,/MOT_IN4*%
X151270000Y-95210000D02*
X151270000Y-97790000D01*
X170250000Y-94410000D02*
X152070000Y-94410000D01*
X171050000Y-93610000D02*
X170250000Y-94410000D01*
X152070000Y-94410000D02*
X151270000Y-95210000D01*
X171050000Y-88620000D02*
X171050000Y-93610000D01*
%TO.N,/VSYS*%
D32*
X176350000Y-95250000D02*
X180600000Y-95250000D01*
D30*
X181000000Y-91500000D02*
X178670000Y-91500000D01*
D32*
X178670000Y-88620000D02*
X178670000Y-95250000D01*
%TO.N,Net-(PS3-A)*%
D29*
X159950000Y-52730000D02*
X162000000Y-54780000D01*
X162000000Y-54780000D02*
X162000000Y-58000000D01*
%TO.N,Net-(D6-DO)*%
D31*
X178350000Y-63505000D02*
X178350000Y-64894999D01*
X178350000Y-64894999D02*
X180150000Y-66695000D01*
%TO.N,Net-(D5-DO)*%
X178350000Y-56505000D02*
X178350000Y-57894999D01*
X178350000Y-57894999D02*
X180150000Y-59695000D01*
%TO.N,/MOT_OUT1*%
D33*
X145579999Y-108559999D02*
X145579999Y-111500000D01*
X148730000Y-105410000D02*
X145579999Y-108559999D01*
%TO.N,/MOT_OUT2*%
X140500000Y-111100000D02*
X140499999Y-111500000D01*
X146190000Y-105410000D02*
X140500000Y-111100000D01*
%TO.N,Net-(D4-DO)*%
D31*
X121650000Y-51800000D02*
X122450000Y-51000000D01*
X180150000Y-51800000D02*
X180150000Y-52695000D01*
X122450000Y-51000000D02*
X179350000Y-51000000D01*
X121650000Y-52695000D02*
X121650000Y-51800000D01*
X179350000Y-51000000D02*
X180150000Y-51800000D01*
%TO.N,/VBAT*%
D33*
X172800000Y-105410000D02*
X172800000Y-103000000D01*
X156350000Y-105410000D02*
X180600000Y-105410000D01*
X164800000Y-105410000D02*
X164800000Y-104250000D01*
%TO.N,Net-(D2-DO)*%
D31*
X121650000Y-66694999D02*
X121650000Y-65305000D01*
X121650000Y-65305000D02*
X119850000Y-63504999D01*
%TO.N,/MOT_OUT4*%
D33*
X153810000Y-105410000D02*
X159500000Y-111100000D01*
X159500000Y-111100000D02*
X159500000Y-111500000D01*
%TO.N,/MOT_OUT3*%
X154420000Y-108559999D02*
X154420000Y-111500000D01*
X151270000Y-105410000D02*
X154420000Y-108559999D01*
%TO.N,Net-(PS1-A)*%
D29*
X135950000Y-52730000D02*
X132000000Y-56679999D01*
X132000000Y-56679999D02*
X132000000Y-58000000D01*
%TO.N,/BTN*%
D31*
X125580000Y-84660000D02*
X125580000Y-87400000D01*
X119080000Y-87400000D02*
X125580000Y-87400000D01*
%TO.N,Net-(D3-DO)*%
X121650000Y-58305000D02*
X119850000Y-56504999D01*
X121650000Y-59695000D02*
X121650000Y-58305000D01*
%TO.N,Net-(Q1-B)*%
X125580000Y-58000000D02*
X125580000Y-53200000D01*
%TO.N,Net-(BZ1-+)*%
X132500000Y-84660000D02*
X132500000Y-97500000D01*
%TO.N,Net-(PS2-A)*%
D29*
X144000000Y-56679999D02*
X144000000Y-58000000D01*
X147950000Y-52730000D02*
X144000000Y-56679999D01*
%TD*%
%TA.AperFunction,Conductor*%
%TO.N,GND*%
G36*
X180504418Y-50300816D02*
G01*
X180733020Y-50317165D01*
X180750529Y-50319683D01*
X180970144Y-50367458D01*
X180987103Y-50372437D01*
X181197694Y-50450983D01*
X181213777Y-50458327D01*
X181411034Y-50566039D01*
X181411036Y-50566040D01*
X181425919Y-50575605D01*
X181605836Y-50710289D01*
X181619207Y-50721875D01*
X181778124Y-50880792D01*
X181789710Y-50894163D01*
X181924394Y-51074080D01*
X181933959Y-51088963D01*
X182041669Y-51286217D01*
X182049019Y-51302311D01*
X182127559Y-51512887D01*
X182132543Y-51529862D01*
X182180316Y-51749470D01*
X182182834Y-51766982D01*
X182199184Y-51995581D01*
X182199500Y-52004427D01*
X182199500Y-91027370D01*
X182179815Y-91094409D01*
X182127011Y-91140164D01*
X182057853Y-91150108D01*
X181994297Y-91121083D01*
X181960939Y-91074823D01*
X181941283Y-91027370D01*
X181930941Y-91002402D01*
X181815977Y-90830345D01*
X181815975Y-90830342D01*
X181669657Y-90684024D01*
X181569473Y-90617084D01*
X181497598Y-90569059D01*
X181306420Y-90489870D01*
X181306412Y-90489868D01*
X181103469Y-90449500D01*
X181103465Y-90449500D01*
X180896535Y-90449500D01*
X180896530Y-90449500D01*
X180693587Y-90489868D01*
X180693579Y-90489870D01*
X180502403Y-90569058D01*
X180330342Y-90684024D01*
X180184024Y-90830342D01*
X180144292Y-90889806D01*
X180107819Y-90944391D01*
X180054210Y-90989195D01*
X180004719Y-90999500D01*
X179494500Y-90999500D01*
X179427461Y-90979815D01*
X179381706Y-90927011D01*
X179370500Y-90875500D01*
X179370500Y-89596336D01*
X179390185Y-89529297D01*
X179416444Y-89501493D01*
X179415788Y-89500725D01*
X179419495Y-89497557D01*
X179419501Y-89497553D01*
X179547553Y-89369501D01*
X179653996Y-89222994D01*
X179736211Y-89061639D01*
X179792171Y-88889409D01*
X179806765Y-88797259D01*
X179820500Y-88710551D01*
X179820500Y-88529448D01*
X179798724Y-88391966D01*
X179792171Y-88350591D01*
X179748530Y-88216275D01*
X179736212Y-88178363D01*
X179736211Y-88178360D01*
X179686915Y-88081613D01*
X179653996Y-88017006D01*
X179640396Y-87998287D01*
X179547558Y-87870505D01*
X179547554Y-87870500D01*
X179419499Y-87742445D01*
X179419494Y-87742441D01*
X179272997Y-87636006D01*
X179272996Y-87636005D01*
X179272994Y-87636004D01*
X179180923Y-87589091D01*
X179111639Y-87553788D01*
X179111636Y-87553787D01*
X178939410Y-87497829D01*
X178760551Y-87469500D01*
X178760546Y-87469500D01*
X178579454Y-87469500D01*
X178579449Y-87469500D01*
X178400589Y-87497829D01*
X178228363Y-87553787D01*
X178228360Y-87553788D01*
X178067002Y-87636006D01*
X177920505Y-87742441D01*
X177920500Y-87742445D01*
X177792445Y-87870500D01*
X177792441Y-87870505D01*
X177686004Y-88017004D01*
X177618908Y-88148685D01*
X177570933Y-88199480D01*
X177503112Y-88216275D01*
X177436977Y-88193737D01*
X177393527Y-88139021D01*
X177390492Y-88130705D01*
X177381094Y-88101780D01*
X177284624Y-87912449D01*
X177245270Y-87858282D01*
X177245269Y-87858282D01*
X176612962Y-88490590D01*
X176595925Y-88427007D01*
X176530099Y-88312993D01*
X176437007Y-88219901D01*
X176322993Y-88154075D01*
X176259409Y-88137037D01*
X176891716Y-87504728D01*
X176837550Y-87465375D01*
X176648217Y-87368904D01*
X176446129Y-87303242D01*
X176236246Y-87270000D01*
X176023754Y-87270000D01*
X175813872Y-87303242D01*
X175813869Y-87303242D01*
X175611782Y-87368904D01*
X175422439Y-87465380D01*
X175368282Y-87504727D01*
X175368282Y-87504728D01*
X176000591Y-88137037D01*
X175937007Y-88154075D01*
X175822993Y-88219901D01*
X175729901Y-88312993D01*
X175664075Y-88427007D01*
X175647037Y-88490591D01*
X175014728Y-87858282D01*
X175014727Y-87858282D01*
X174975380Y-87912439D01*
X174878905Y-88101781D01*
X174869506Y-88130708D01*
X174830068Y-88188383D01*
X174765709Y-88215581D01*
X174696862Y-88203666D01*
X174645387Y-88156421D01*
X174641090Y-88148684D01*
X174606915Y-88081613D01*
X174573996Y-88017006D01*
X174560396Y-87998287D01*
X174467558Y-87870505D01*
X174467554Y-87870500D01*
X174339499Y-87742445D01*
X174339494Y-87742441D01*
X174215432Y-87652305D01*
X174192996Y-87636005D01*
X174031639Y-87553788D01*
X174031636Y-87553787D01*
X173859410Y-87497829D01*
X173680551Y-87469500D01*
X173680546Y-87469500D01*
X173499454Y-87469500D01*
X173499449Y-87469500D01*
X173320592Y-87497828D01*
X173230084Y-87527235D01*
X173160243Y-87529229D01*
X173104087Y-87496984D01*
X172806819Y-87199716D01*
X172773334Y-87138393D01*
X172770500Y-87112035D01*
X172770500Y-74450059D01*
X172790185Y-74383020D01*
X172842989Y-74337265D01*
X172912147Y-74327321D01*
X172967385Y-74349740D01*
X172987006Y-74363996D01*
X173063092Y-74402764D01*
X173148360Y-74446211D01*
X173148363Y-74446212D01*
X173215145Y-74467910D01*
X173320591Y-74502171D01*
X173403429Y-74515291D01*
X173499449Y-74530500D01*
X173499454Y-74530500D01*
X173680551Y-74530500D01*
X173767259Y-74516765D01*
X173859409Y-74502171D01*
X174031639Y-74446211D01*
X174192994Y-74363996D01*
X174339501Y-74257553D01*
X174467553Y-74129501D01*
X174573996Y-73982994D01*
X174656211Y-73821639D01*
X174712171Y-73649409D01*
X174733027Y-73517729D01*
X174737527Y-73489321D01*
X174767456Y-73426186D01*
X174826768Y-73389255D01*
X174896630Y-73390253D01*
X174954863Y-73428863D01*
X174982473Y-73489321D01*
X175007829Y-73649410D01*
X175063787Y-73821636D01*
X175063788Y-73821639D01*
X175146006Y-73982997D01*
X175252441Y-74129494D01*
X175252445Y-74129499D01*
X175380500Y-74257554D01*
X175380505Y-74257558D01*
X175475068Y-74326261D01*
X175527006Y-74363996D01*
X175603094Y-74402765D01*
X175688360Y-74446211D01*
X175688363Y-74446212D01*
X175755145Y-74467910D01*
X175860591Y-74502171D01*
X175943429Y-74515291D01*
X176039449Y-74530500D01*
X176039454Y-74530500D01*
X176220551Y-74530500D01*
X176307259Y-74516765D01*
X176399409Y-74502171D01*
X176571639Y-74446211D01*
X176732994Y-74363996D01*
X176879501Y-74257553D01*
X177007553Y-74129501D01*
X177113996Y-73982994D01*
X177196211Y-73821639D01*
X177252171Y-73649409D01*
X177273027Y-73517729D01*
X177302956Y-73454595D01*
X177362267Y-73417663D01*
X177432130Y-73418661D01*
X177490363Y-73457271D01*
X177518477Y-73521234D01*
X177519500Y-73537127D01*
X177519500Y-74274856D01*
X177519502Y-74274882D01*
X177522413Y-74299987D01*
X177522415Y-74299991D01*
X177567793Y-74402764D01*
X177567794Y-74402765D01*
X177647235Y-74482206D01*
X177750009Y-74527585D01*
X177775135Y-74530500D01*
X179564864Y-74530499D01*
X179564879Y-74530497D01*
X179564882Y-74530497D01*
X179589987Y-74527586D01*
X179589988Y-74527585D01*
X179589991Y-74527585D01*
X179692765Y-74482206D01*
X179772206Y-74402765D01*
X179817585Y-74299991D01*
X179820500Y-74274865D01*
X179820499Y-72485136D01*
X179820497Y-72485117D01*
X179817586Y-72460012D01*
X179817585Y-72460010D01*
X179817585Y-72460009D01*
X179772206Y-72357235D01*
X179692765Y-72277794D01*
X179589992Y-72232415D01*
X179564868Y-72229500D01*
X179564865Y-72229500D01*
X178172610Y-72229500D01*
X178105571Y-72209815D01*
X178084929Y-72193181D01*
X177461819Y-71570071D01*
X177428334Y-71508748D01*
X177425500Y-71482390D01*
X177425500Y-71294784D01*
X177445185Y-71227745D01*
X177497989Y-71181990D01*
X177567147Y-71172046D01*
X177630703Y-71201071D01*
X177637181Y-71207103D01*
X177712214Y-71282136D01*
X177712218Y-71282139D01*
X177876079Y-71391628D01*
X177876092Y-71391635D01*
X178058160Y-71467049D01*
X178058165Y-71467051D01*
X178058169Y-71467051D01*
X178058170Y-71467052D01*
X178251456Y-71505500D01*
X178251459Y-71505500D01*
X178448543Y-71505500D01*
X178578582Y-71479632D01*
X178641835Y-71467051D01*
X178823914Y-71391632D01*
X178987782Y-71282139D01*
X179127139Y-71142782D01*
X179236632Y-70978914D01*
X179312051Y-70796835D01*
X179324632Y-70733582D01*
X179350500Y-70603543D01*
X179350500Y-70406457D01*
X179349016Y-70398998D01*
X179355243Y-70329406D01*
X179398105Y-70274228D01*
X179463994Y-70250983D01*
X179526928Y-70264320D01*
X179689362Y-70347085D01*
X179868997Y-70405451D01*
X180055553Y-70435000D01*
X180244447Y-70435000D01*
X180431002Y-70405451D01*
X180610637Y-70347085D01*
X180778937Y-70261331D01*
X180804328Y-70242883D01*
X180804328Y-70242882D01*
X180238584Y-69677138D01*
X180323694Y-69654333D01*
X180426306Y-69595090D01*
X180510090Y-69511306D01*
X180569333Y-69408694D01*
X180592138Y-69323584D01*
X181157882Y-69889328D01*
X181157883Y-69889328D01*
X181176331Y-69863937D01*
X181262085Y-69695637D01*
X181320451Y-69516002D01*
X181350000Y-69329447D01*
X181350000Y-69140552D01*
X181320451Y-68953997D01*
X181262085Y-68774362D01*
X181176329Y-68606059D01*
X181157883Y-68580670D01*
X181157882Y-68580669D01*
X180592137Y-69146414D01*
X180569333Y-69061306D01*
X180510090Y-68958694D01*
X180426306Y-68874910D01*
X180323694Y-68815667D01*
X180238582Y-68792861D01*
X180804328Y-68227116D01*
X180778933Y-68208666D01*
X180610637Y-68122914D01*
X180431002Y-68064548D01*
X180244447Y-68035000D01*
X180055553Y-68035000D01*
X179868997Y-68064548D01*
X179689362Y-68122914D01*
X179526928Y-68205679D01*
X179458259Y-68218575D01*
X179393518Y-68192299D01*
X179353261Y-68135192D01*
X179349016Y-68070999D01*
X179350300Y-68064548D01*
X179350500Y-68063541D01*
X179350500Y-67866459D01*
X179350500Y-67866456D01*
X179312052Y-67673170D01*
X179312051Y-67673169D01*
X179312051Y-67673165D01*
X179266925Y-67564222D01*
X179259457Y-67494754D01*
X179290732Y-67432275D01*
X179350821Y-67396623D01*
X179420646Y-67399117D01*
X179469168Y-67429090D01*
X179512214Y-67472136D01*
X179512218Y-67472139D01*
X179676079Y-67581628D01*
X179676092Y-67581635D01*
X179853411Y-67655082D01*
X179858165Y-67657051D01*
X179858169Y-67657051D01*
X179858170Y-67657052D01*
X180051456Y-67695500D01*
X180051459Y-67695500D01*
X180248543Y-67695500D01*
X180378582Y-67669632D01*
X180441835Y-67657051D01*
X180623914Y-67581632D01*
X180787782Y-67472139D01*
X180927139Y-67332782D01*
X181036632Y-67168914D01*
X181112051Y-66986835D01*
X181150500Y-66793541D01*
X181150500Y-66596459D01*
X181150500Y-66596456D01*
X181112052Y-66403170D01*
X181112051Y-66403169D01*
X181112051Y-66403165D01*
X181068983Y-66299189D01*
X181036635Y-66221092D01*
X181036628Y-66221079D01*
X180927139Y-66057218D01*
X180927136Y-66057214D01*
X180787785Y-65917863D01*
X180787781Y-65917860D01*
X180623920Y-65808371D01*
X180623907Y-65808364D01*
X180441839Y-65732950D01*
X180441829Y-65732947D01*
X180248543Y-65694500D01*
X180248541Y-65694500D01*
X180051459Y-65694500D01*
X180051454Y-65694500D01*
X179866061Y-65731377D01*
X179796469Y-65725150D01*
X179754189Y-65697441D01*
X178811819Y-64755070D01*
X178778334Y-64693747D01*
X178775500Y-64667389D01*
X178775500Y-64490260D01*
X178795185Y-64423221D01*
X178830607Y-64387159D01*
X178987782Y-64282139D01*
X179127139Y-64142782D01*
X179236632Y-63978914D01*
X179312051Y-63796835D01*
X179339366Y-63659515D01*
X179350500Y-63603543D01*
X179350500Y-63406457D01*
X179349016Y-63398998D01*
X179355243Y-63329406D01*
X179398105Y-63274228D01*
X179463994Y-63250983D01*
X179526928Y-63264320D01*
X179689362Y-63347085D01*
X179868997Y-63405451D01*
X180055553Y-63435000D01*
X180244447Y-63435000D01*
X180431002Y-63405451D01*
X180610637Y-63347085D01*
X180778937Y-63261331D01*
X180804328Y-63242883D01*
X180804328Y-63242882D01*
X180238584Y-62677138D01*
X180323694Y-62654333D01*
X180426306Y-62595090D01*
X180510090Y-62511306D01*
X180569333Y-62408694D01*
X180592138Y-62323584D01*
X181157882Y-62889328D01*
X181157883Y-62889328D01*
X181176331Y-62863937D01*
X181262085Y-62695637D01*
X181320451Y-62516002D01*
X181350000Y-62329447D01*
X181350000Y-62140552D01*
X181320451Y-61953997D01*
X181262085Y-61774362D01*
X181176329Y-61606059D01*
X181157883Y-61580670D01*
X181157882Y-61580669D01*
X180592137Y-62146414D01*
X180569333Y-62061306D01*
X180510090Y-61958694D01*
X180426306Y-61874910D01*
X180323694Y-61815667D01*
X180238582Y-61792861D01*
X180804328Y-61227116D01*
X180778933Y-61208666D01*
X180610637Y-61122914D01*
X180431002Y-61064548D01*
X180244447Y-61035000D01*
X180055553Y-61035000D01*
X179868997Y-61064548D01*
X179689362Y-61122914D01*
X179526928Y-61205679D01*
X179458259Y-61218575D01*
X179393518Y-61192299D01*
X179353261Y-61135192D01*
X179349016Y-61070999D01*
X179350300Y-61064548D01*
X179350500Y-61063541D01*
X179350500Y-60866459D01*
X179350500Y-60866456D01*
X179312052Y-60673170D01*
X179312051Y-60673169D01*
X179312051Y-60673165D01*
X179266925Y-60564222D01*
X179259457Y-60494754D01*
X179290732Y-60432275D01*
X179350821Y-60396623D01*
X179420646Y-60399117D01*
X179469168Y-60429090D01*
X179512214Y-60472136D01*
X179512218Y-60472139D01*
X179676079Y-60581628D01*
X179676092Y-60581635D01*
X179858160Y-60657049D01*
X179858165Y-60657051D01*
X179858169Y-60657051D01*
X179858170Y-60657052D01*
X180051456Y-60695500D01*
X180051459Y-60695500D01*
X180248543Y-60695500D01*
X180378582Y-60669632D01*
X180441835Y-60657051D01*
X180623914Y-60581632D01*
X180787782Y-60472139D01*
X180927139Y-60332782D01*
X181036632Y-60168914D01*
X181112051Y-59986835D01*
X181150500Y-59793541D01*
X181150500Y-59596459D01*
X181150500Y-59596456D01*
X181112052Y-59403170D01*
X181112051Y-59403169D01*
X181112051Y-59403165D01*
X181091997Y-59354749D01*
X181036635Y-59221092D01*
X181036628Y-59221079D01*
X180927139Y-59057218D01*
X180927136Y-59057214D01*
X180787785Y-58917863D01*
X180787781Y-58917860D01*
X180623920Y-58808371D01*
X180623907Y-58808364D01*
X180441839Y-58732950D01*
X180441829Y-58732947D01*
X180248543Y-58694500D01*
X180248541Y-58694500D01*
X180051459Y-58694500D01*
X180051454Y-58694500D01*
X179866061Y-58731377D01*
X179796469Y-58725150D01*
X179754189Y-58697441D01*
X178811819Y-57755070D01*
X178778334Y-57693747D01*
X178775500Y-57667389D01*
X178775500Y-57490260D01*
X178795185Y-57423221D01*
X178830607Y-57387159D01*
X178987782Y-57282139D01*
X179127139Y-57142782D01*
X179236632Y-56978914D01*
X179312051Y-56796835D01*
X179350500Y-56603541D01*
X179350500Y-56406459D01*
X179350499Y-56406456D01*
X179349016Y-56398998D01*
X179355243Y-56329406D01*
X179398105Y-56274228D01*
X179463994Y-56250983D01*
X179526928Y-56264320D01*
X179689362Y-56347085D01*
X179868997Y-56405451D01*
X180055553Y-56435000D01*
X180244447Y-56435000D01*
X180431002Y-56405451D01*
X180610637Y-56347085D01*
X180778937Y-56261331D01*
X180804328Y-56242883D01*
X180804328Y-56242882D01*
X180238584Y-55677138D01*
X180323694Y-55654333D01*
X180426306Y-55595090D01*
X180510090Y-55511306D01*
X180569333Y-55408694D01*
X180592138Y-55323584D01*
X181157882Y-55889328D01*
X181157883Y-55889328D01*
X181176331Y-55863937D01*
X181262085Y-55695637D01*
X181320451Y-55516002D01*
X181350000Y-55329447D01*
X181350000Y-55140552D01*
X181320451Y-54953997D01*
X181262085Y-54774362D01*
X181176329Y-54606059D01*
X181157883Y-54580670D01*
X181157882Y-54580669D01*
X180592137Y-55146414D01*
X180569333Y-55061306D01*
X180510090Y-54958694D01*
X180426306Y-54874910D01*
X180323694Y-54815667D01*
X180238582Y-54792861D01*
X180804328Y-54227116D01*
X180778933Y-54208666D01*
X180610637Y-54122914D01*
X180431002Y-54064548D01*
X180244447Y-54035000D01*
X180055553Y-54035000D01*
X179868997Y-54064548D01*
X179689362Y-54122914D01*
X179526928Y-54205679D01*
X179458259Y-54218575D01*
X179393518Y-54192299D01*
X179353261Y-54135192D01*
X179349016Y-54070999D01*
X179350300Y-54064548D01*
X179350500Y-54063541D01*
X179350500Y-53866459D01*
X179350500Y-53866456D01*
X179312052Y-53673170D01*
X179312051Y-53673169D01*
X179312051Y-53673165D01*
X179266925Y-53564222D01*
X179259457Y-53494754D01*
X179290732Y-53432275D01*
X179350821Y-53396623D01*
X179420646Y-53399117D01*
X179469168Y-53429090D01*
X179512214Y-53472136D01*
X179512218Y-53472139D01*
X179676079Y-53581628D01*
X179676092Y-53581635D01*
X179858160Y-53657049D01*
X179858165Y-53657051D01*
X179858169Y-53657051D01*
X179858170Y-53657052D01*
X180051456Y-53695500D01*
X180051459Y-53695500D01*
X180248543Y-53695500D01*
X180378582Y-53669632D01*
X180441835Y-53657051D01*
X180623914Y-53581632D01*
X180787782Y-53472139D01*
X180927139Y-53332782D01*
X181036632Y-53168914D01*
X181112051Y-52986835D01*
X181149015Y-52801008D01*
X181150500Y-52793543D01*
X181150500Y-52596456D01*
X181112052Y-52403170D01*
X181112051Y-52403169D01*
X181112051Y-52403165D01*
X181100984Y-52376446D01*
X181036635Y-52221092D01*
X181036628Y-52221079D01*
X180927139Y-52057218D01*
X180927136Y-52057214D01*
X180787785Y-51917863D01*
X180787781Y-51917860D01*
X180624760Y-51808932D01*
X180579955Y-51755320D01*
X180573878Y-51737929D01*
X180546503Y-51635763D01*
X180490485Y-51538737D01*
X180411263Y-51459515D01*
X179611263Y-50659515D01*
X179514237Y-50603497D01*
X179406018Y-50574500D01*
X122506019Y-50574500D01*
X122393982Y-50574500D01*
X122285763Y-50603497D01*
X122285760Y-50603498D01*
X122188740Y-50659513D01*
X122188734Y-50659517D01*
X121309517Y-51538734D01*
X121309513Y-51538740D01*
X121253498Y-51635760D01*
X121253497Y-51635761D01*
X121226123Y-51737924D01*
X121189757Y-51797584D01*
X121175239Y-51808932D01*
X121012218Y-51917860D01*
X121012214Y-51917863D01*
X120872863Y-52057214D01*
X120872860Y-52057218D01*
X120763371Y-52221079D01*
X120763364Y-52221092D01*
X120687950Y-52403160D01*
X120687947Y-52403170D01*
X120649500Y-52596456D01*
X120649500Y-52793548D01*
X120650984Y-52801008D01*
X120644754Y-52870599D01*
X120601889Y-52925775D01*
X120535998Y-52949017D01*
X120473071Y-52935679D01*
X120310637Y-52852914D01*
X120131002Y-52794548D01*
X119944447Y-52765000D01*
X119755553Y-52765000D01*
X119568997Y-52794548D01*
X119389362Y-52852914D01*
X119221060Y-52938669D01*
X119195670Y-52957116D01*
X119195669Y-52957116D01*
X119761414Y-53522861D01*
X119676306Y-53545667D01*
X119573694Y-53604910D01*
X119489910Y-53688694D01*
X119430667Y-53791306D01*
X119407861Y-53876414D01*
X118842116Y-53310669D01*
X118842116Y-53310670D01*
X118823669Y-53336060D01*
X118737914Y-53504362D01*
X118679548Y-53683997D01*
X118650000Y-53870552D01*
X118650000Y-54059447D01*
X118679548Y-54246002D01*
X118737914Y-54425637D01*
X118823666Y-54593933D01*
X118842116Y-54619328D01*
X119407861Y-54053584D01*
X119430667Y-54138694D01*
X119489910Y-54241306D01*
X119573694Y-54325090D01*
X119676306Y-54384333D01*
X119761413Y-54407137D01*
X119195669Y-54972882D01*
X119195670Y-54972883D01*
X119221059Y-54991329D01*
X119389362Y-55077085D01*
X119568997Y-55135451D01*
X119755553Y-55165000D01*
X119944447Y-55165000D01*
X120131002Y-55135451D01*
X120310639Y-55077084D01*
X120473070Y-54994321D01*
X120541740Y-54981424D01*
X120606480Y-55007700D01*
X120646738Y-55064806D01*
X120650985Y-55128989D01*
X120649500Y-55136456D01*
X120649500Y-55136459D01*
X120649500Y-55333541D01*
X120649500Y-55333543D01*
X120649499Y-55333543D01*
X120687947Y-55526829D01*
X120687950Y-55526839D01*
X120733073Y-55635776D01*
X120740542Y-55705245D01*
X120709267Y-55767724D01*
X120649177Y-55803376D01*
X120579352Y-55800882D01*
X120530831Y-55770909D01*
X120487785Y-55727863D01*
X120487781Y-55727860D01*
X120323920Y-55618371D01*
X120323907Y-55618364D01*
X120141839Y-55542950D01*
X120141829Y-55542947D01*
X119948543Y-55504500D01*
X119948541Y-55504500D01*
X119751459Y-55504500D01*
X119751457Y-55504500D01*
X119558170Y-55542947D01*
X119558160Y-55542950D01*
X119376092Y-55618364D01*
X119376079Y-55618371D01*
X119212218Y-55727860D01*
X119212214Y-55727863D01*
X119072863Y-55867214D01*
X119072860Y-55867218D01*
X118963371Y-56031079D01*
X118963364Y-56031092D01*
X118887950Y-56213160D01*
X118887947Y-56213170D01*
X118849500Y-56406456D01*
X118849500Y-56406457D01*
X118849500Y-56406459D01*
X118849500Y-56603541D01*
X118849500Y-56603543D01*
X118849499Y-56603543D01*
X118887947Y-56796829D01*
X118887950Y-56796839D01*
X118963364Y-56978907D01*
X118963371Y-56978920D01*
X119072860Y-57142781D01*
X119072863Y-57142785D01*
X119212214Y-57282136D01*
X119212218Y-57282139D01*
X119376079Y-57391628D01*
X119376092Y-57391635D01*
X119518207Y-57450500D01*
X119558165Y-57467051D01*
X119558169Y-57467051D01*
X119558170Y-57467052D01*
X119751456Y-57505500D01*
X119751459Y-57505500D01*
X119948543Y-57505500D01*
X120133938Y-57468622D01*
X120203530Y-57474849D01*
X120245811Y-57502558D01*
X121188181Y-58444928D01*
X121221666Y-58506251D01*
X121224500Y-58532609D01*
X121224500Y-58709738D01*
X121204815Y-58776777D01*
X121169391Y-58812840D01*
X121012218Y-58917860D01*
X121012214Y-58917863D01*
X120872863Y-59057214D01*
X120872860Y-59057218D01*
X120763371Y-59221079D01*
X120763364Y-59221092D01*
X120687950Y-59403160D01*
X120687947Y-59403170D01*
X120649500Y-59596456D01*
X120649500Y-59793548D01*
X120650984Y-59801008D01*
X120644754Y-59870599D01*
X120601889Y-59925775D01*
X120535998Y-59949017D01*
X120473071Y-59935679D01*
X120310637Y-59852914D01*
X120131002Y-59794548D01*
X119944447Y-59765000D01*
X119755553Y-59765000D01*
X119568997Y-59794548D01*
X119389362Y-59852914D01*
X119221060Y-59938669D01*
X119195670Y-59957116D01*
X119195669Y-59957116D01*
X119761414Y-60522861D01*
X119676306Y-60545667D01*
X119573694Y-60604910D01*
X119489910Y-60688694D01*
X119430667Y-60791306D01*
X119407861Y-60876414D01*
X118842116Y-60310669D01*
X118842116Y-60310670D01*
X118823669Y-60336060D01*
X118737914Y-60504362D01*
X118679548Y-60683997D01*
X118650000Y-60870552D01*
X118650000Y-61059447D01*
X118679548Y-61246002D01*
X118737914Y-61425637D01*
X118823666Y-61593933D01*
X118842116Y-61619328D01*
X119407861Y-61053584D01*
X119430667Y-61138694D01*
X119489910Y-61241306D01*
X119573694Y-61325090D01*
X119676306Y-61384333D01*
X119761413Y-61407137D01*
X119195669Y-61972882D01*
X119195670Y-61972883D01*
X119221059Y-61991329D01*
X119389362Y-62077085D01*
X119568997Y-62135451D01*
X119755553Y-62165000D01*
X119944447Y-62165000D01*
X120131002Y-62135451D01*
X120310639Y-62077084D01*
X120473070Y-61994321D01*
X120541740Y-61981424D01*
X120606480Y-62007700D01*
X120646738Y-62064806D01*
X120650985Y-62128989D01*
X120649500Y-62136456D01*
X120649500Y-62136459D01*
X120649500Y-62333541D01*
X120649500Y-62333543D01*
X120649499Y-62333543D01*
X120687947Y-62526829D01*
X120687950Y-62526839D01*
X120733073Y-62635776D01*
X120740542Y-62705245D01*
X120709267Y-62767724D01*
X120649177Y-62803376D01*
X120579352Y-62800882D01*
X120530831Y-62770909D01*
X120487785Y-62727863D01*
X120487781Y-62727860D01*
X120323920Y-62618371D01*
X120323907Y-62618364D01*
X120141839Y-62542950D01*
X120141829Y-62542947D01*
X119948543Y-62504500D01*
X119948541Y-62504500D01*
X119751459Y-62504500D01*
X119751457Y-62504500D01*
X119558170Y-62542947D01*
X119558160Y-62542950D01*
X119376092Y-62618364D01*
X119376079Y-62618371D01*
X119212218Y-62727860D01*
X119212214Y-62727863D01*
X119072863Y-62867214D01*
X119072860Y-62867218D01*
X118963371Y-63031079D01*
X118963364Y-63031092D01*
X118887950Y-63213160D01*
X118887947Y-63213170D01*
X118849500Y-63406456D01*
X118849500Y-63406457D01*
X118849500Y-63406459D01*
X118849500Y-63603541D01*
X118849500Y-63603543D01*
X118849499Y-63603543D01*
X118887947Y-63796829D01*
X118887950Y-63796839D01*
X118963364Y-63978907D01*
X118963371Y-63978920D01*
X119072860Y-64142781D01*
X119072863Y-64142785D01*
X119212214Y-64282136D01*
X119212218Y-64282139D01*
X119376079Y-64391628D01*
X119376092Y-64391635D01*
X119558160Y-64467049D01*
X119558165Y-64467051D01*
X119558169Y-64467051D01*
X119558170Y-64467052D01*
X119751456Y-64505500D01*
X119751459Y-64505500D01*
X119948543Y-64505500D01*
X120133938Y-64468622D01*
X120203530Y-64474849D01*
X120245811Y-64502558D01*
X121188181Y-65444928D01*
X121221666Y-65506251D01*
X121224500Y-65532609D01*
X121224500Y-65709738D01*
X121204815Y-65776777D01*
X121169391Y-65812840D01*
X121012218Y-65917860D01*
X121012214Y-65917863D01*
X120872863Y-66057214D01*
X120872860Y-66057218D01*
X120763371Y-66221079D01*
X120763364Y-66221092D01*
X120687950Y-66403160D01*
X120687947Y-66403170D01*
X120649500Y-66596456D01*
X120649500Y-66793548D01*
X120650984Y-66801008D01*
X120644754Y-66870599D01*
X120601889Y-66925775D01*
X120535998Y-66949017D01*
X120473071Y-66935679D01*
X120310637Y-66852914D01*
X120131002Y-66794548D01*
X119944447Y-66765000D01*
X119755553Y-66765000D01*
X119568997Y-66794548D01*
X119389362Y-66852914D01*
X119221060Y-66938669D01*
X119195670Y-66957116D01*
X119195669Y-66957116D01*
X119761414Y-67522861D01*
X119676306Y-67545667D01*
X119573694Y-67604910D01*
X119489910Y-67688694D01*
X119430667Y-67791306D01*
X119407861Y-67876414D01*
X118842116Y-67310669D01*
X118842116Y-67310670D01*
X118823669Y-67336060D01*
X118737914Y-67504362D01*
X118679548Y-67683997D01*
X118650000Y-67870552D01*
X118650000Y-68059447D01*
X118679548Y-68246002D01*
X118737914Y-68425637D01*
X118823666Y-68593933D01*
X118842116Y-68619328D01*
X119407861Y-68053584D01*
X119430667Y-68138694D01*
X119489910Y-68241306D01*
X119573694Y-68325090D01*
X119676306Y-68384333D01*
X119761413Y-68407137D01*
X119195669Y-68972882D01*
X119195670Y-68972883D01*
X119221059Y-68991329D01*
X119389362Y-69077085D01*
X119568997Y-69135451D01*
X119755553Y-69165000D01*
X119944447Y-69165000D01*
X120131002Y-69135451D01*
X120310639Y-69077084D01*
X120473070Y-68994321D01*
X120541740Y-68981424D01*
X120606480Y-69007700D01*
X120646738Y-69064806D01*
X120650985Y-69128989D01*
X120649500Y-69136456D01*
X120649500Y-69136459D01*
X120649500Y-69333541D01*
X120649500Y-69333543D01*
X120649499Y-69333543D01*
X120687947Y-69526829D01*
X120687950Y-69526839D01*
X120733073Y-69635776D01*
X120740542Y-69705245D01*
X120709267Y-69767724D01*
X120649177Y-69803376D01*
X120579352Y-69800882D01*
X120530831Y-69770909D01*
X120487785Y-69727863D01*
X120487781Y-69727860D01*
X120323920Y-69618371D01*
X120323907Y-69618364D01*
X120141839Y-69542950D01*
X120141829Y-69542947D01*
X119948543Y-69504500D01*
X119948541Y-69504500D01*
X119751459Y-69504500D01*
X119751457Y-69504500D01*
X119558170Y-69542947D01*
X119558160Y-69542950D01*
X119376092Y-69618364D01*
X119376079Y-69618371D01*
X119212218Y-69727860D01*
X119212214Y-69727863D01*
X119072863Y-69867214D01*
X119072860Y-69867218D01*
X118963371Y-70031079D01*
X118963364Y-70031092D01*
X118887950Y-70213160D01*
X118887947Y-70213170D01*
X118849500Y-70406456D01*
X118849500Y-70406457D01*
X118849500Y-70406459D01*
X118849500Y-70603541D01*
X118849500Y-70603543D01*
X118849499Y-70603543D01*
X118887947Y-70796829D01*
X118887950Y-70796839D01*
X118963364Y-70978907D01*
X118963371Y-70978920D01*
X119072860Y-71142781D01*
X119072863Y-71142785D01*
X119212214Y-71282136D01*
X119212218Y-71282139D01*
X119376079Y-71391628D01*
X119376092Y-71391635D01*
X119558160Y-71467049D01*
X119558165Y-71467051D01*
X119558169Y-71467051D01*
X119558170Y-71467052D01*
X119751456Y-71505500D01*
X119751459Y-71505500D01*
X119948543Y-71505500D01*
X120078582Y-71479632D01*
X120141835Y-71467051D01*
X120323914Y-71391632D01*
X120487782Y-71282139D01*
X120627139Y-71142782D01*
X120736632Y-70978914D01*
X120812051Y-70796835D01*
X120824632Y-70733582D01*
X120850500Y-70603543D01*
X120850500Y-70406456D01*
X120812052Y-70213170D01*
X120812051Y-70213169D01*
X120812051Y-70213165D01*
X120766925Y-70104222D01*
X120759457Y-70034754D01*
X120790732Y-69972275D01*
X120850821Y-69936623D01*
X120920646Y-69939117D01*
X120969168Y-69969090D01*
X121012214Y-70012136D01*
X121012218Y-70012139D01*
X121176079Y-70121628D01*
X121176092Y-70121635D01*
X121308917Y-70176652D01*
X121358165Y-70197051D01*
X121358169Y-70197051D01*
X121358170Y-70197052D01*
X121551456Y-70235500D01*
X121551459Y-70235500D01*
X121748543Y-70235500D01*
X121909429Y-70203497D01*
X121941835Y-70197051D01*
X122123914Y-70121632D01*
X122287782Y-70012139D01*
X122427139Y-69872782D01*
X122536632Y-69708914D01*
X122542132Y-69695637D01*
X122559240Y-69654333D01*
X122612051Y-69526835D01*
X122635551Y-69408694D01*
X122650500Y-69333543D01*
X122650500Y-69136456D01*
X122612052Y-68943170D01*
X122612051Y-68943169D01*
X122612051Y-68943165D01*
X122605377Y-68927052D01*
X122536635Y-68761092D01*
X122536628Y-68761079D01*
X122427139Y-68597218D01*
X122427136Y-68597214D01*
X122287785Y-68457863D01*
X122287781Y-68457860D01*
X122123920Y-68348371D01*
X122123907Y-68348364D01*
X121941839Y-68272950D01*
X121941829Y-68272947D01*
X121748543Y-68234500D01*
X121748541Y-68234500D01*
X121551459Y-68234500D01*
X121551457Y-68234500D01*
X121358170Y-68272947D01*
X121358160Y-68272950D01*
X121196735Y-68339814D01*
X121127266Y-68347283D01*
X121064787Y-68316007D01*
X121029135Y-68255918D01*
X121026810Y-68205854D01*
X121050000Y-68059446D01*
X121050000Y-67870553D01*
X121026810Y-67724145D01*
X121035764Y-67654851D01*
X121080760Y-67601399D01*
X121147511Y-67580759D01*
X121196734Y-67590184D01*
X121358165Y-67657051D01*
X121358169Y-67657051D01*
X121358170Y-67657052D01*
X121551456Y-67695500D01*
X121551459Y-67695500D01*
X121748543Y-67695500D01*
X121878582Y-67669632D01*
X121941835Y-67657051D01*
X122123914Y-67581632D01*
X122287782Y-67472139D01*
X122427139Y-67332782D01*
X122536632Y-67168914D01*
X122612051Y-66986835D01*
X122650500Y-66793541D01*
X122650500Y-66596459D01*
X122650500Y-66596456D01*
X122612052Y-66403170D01*
X122612051Y-66403169D01*
X122612051Y-66403165D01*
X122568983Y-66299189D01*
X122536635Y-66221092D01*
X122536628Y-66221079D01*
X122427139Y-66057218D01*
X122427136Y-66057214D01*
X122287785Y-65917863D01*
X122287781Y-65917860D01*
X122130609Y-65812840D01*
X122085804Y-65759227D01*
X122075500Y-65709738D01*
X122075500Y-65248984D01*
X122075500Y-65248982D01*
X122046503Y-65140763D01*
X121990485Y-65043737D01*
X121911263Y-64964515D01*
X121387518Y-64440770D01*
X120847558Y-63900809D01*
X120814073Y-63839486D01*
X120813622Y-63788936D01*
X120850500Y-63603543D01*
X120850500Y-63406456D01*
X120812052Y-63213170D01*
X120812051Y-63213169D01*
X120812051Y-63213165D01*
X120766925Y-63104222D01*
X120759457Y-63034754D01*
X120790732Y-62972275D01*
X120850821Y-62936623D01*
X120920646Y-62939117D01*
X120969168Y-62969090D01*
X121012214Y-63012136D01*
X121012218Y-63012139D01*
X121176079Y-63121628D01*
X121176092Y-63121635D01*
X121358160Y-63197049D01*
X121358165Y-63197051D01*
X121358169Y-63197051D01*
X121358170Y-63197052D01*
X121551456Y-63235500D01*
X121551459Y-63235500D01*
X121748543Y-63235500D01*
X121878582Y-63209632D01*
X121941835Y-63197051D01*
X122123914Y-63121632D01*
X122287782Y-63012139D01*
X122427139Y-62872782D01*
X122536632Y-62708914D01*
X122542132Y-62695637D01*
X122559240Y-62654333D01*
X122612051Y-62526835D01*
X122638422Y-62394260D01*
X122650500Y-62333543D01*
X122650500Y-62136456D01*
X122612052Y-61943170D01*
X122612051Y-61943169D01*
X122612051Y-61943165D01*
X122605377Y-61927052D01*
X122536635Y-61761092D01*
X122536628Y-61761079D01*
X122427139Y-61597218D01*
X122427136Y-61597214D01*
X122287785Y-61457863D01*
X122287781Y-61457860D01*
X122123920Y-61348371D01*
X122123907Y-61348364D01*
X121941839Y-61272950D01*
X121941829Y-61272947D01*
X121748543Y-61234500D01*
X121748541Y-61234500D01*
X121551459Y-61234500D01*
X121551457Y-61234500D01*
X121358170Y-61272947D01*
X121358160Y-61272950D01*
X121196735Y-61339814D01*
X121127266Y-61347283D01*
X121064787Y-61316007D01*
X121029135Y-61255918D01*
X121026810Y-61205854D01*
X121050000Y-61059446D01*
X121050000Y-60870553D01*
X121026810Y-60724145D01*
X121035764Y-60654851D01*
X121080760Y-60601399D01*
X121147511Y-60580759D01*
X121196734Y-60590184D01*
X121358165Y-60657051D01*
X121358169Y-60657051D01*
X121358170Y-60657052D01*
X121551456Y-60695500D01*
X121551459Y-60695500D01*
X121748543Y-60695500D01*
X121878582Y-60669632D01*
X121941835Y-60657051D01*
X122123914Y-60581632D01*
X122287782Y-60472139D01*
X122427139Y-60332782D01*
X122536632Y-60168914D01*
X122612051Y-59986835D01*
X122650500Y-59793541D01*
X122650500Y-59596459D01*
X122650500Y-59596456D01*
X122612052Y-59403170D01*
X122612051Y-59403169D01*
X122612051Y-59403165D01*
X122591997Y-59354749D01*
X122536635Y-59221092D01*
X122536628Y-59221079D01*
X122427139Y-59057218D01*
X122427136Y-59057214D01*
X122287785Y-58917863D01*
X122287781Y-58917860D01*
X122130609Y-58812840D01*
X122085804Y-58759227D01*
X122075500Y-58709738D01*
X122075500Y-58248984D01*
X122075500Y-58248982D01*
X122046503Y-58140763D01*
X121990485Y-58043737D01*
X121911263Y-57964515D01*
X121860137Y-57913389D01*
X124479500Y-57913389D01*
X124479500Y-58086611D01*
X124506598Y-58257701D01*
X124519561Y-58297598D01*
X124560128Y-58422447D01*
X124590088Y-58481247D01*
X124638768Y-58576788D01*
X124740586Y-58716928D01*
X124863072Y-58839414D01*
X125003212Y-58941232D01*
X125157555Y-59019873D01*
X125322299Y-59073402D01*
X125493389Y-59100500D01*
X125493390Y-59100500D01*
X125666610Y-59100500D01*
X125666611Y-59100500D01*
X125837701Y-59073402D01*
X126002445Y-59019873D01*
X126156788Y-58941232D01*
X126296928Y-58839414D01*
X126419414Y-58716928D01*
X126521232Y-58576788D01*
X126599873Y-58422445D01*
X126653402Y-58257701D01*
X126680500Y-58086611D01*
X126680500Y-57913389D01*
X126653402Y-57742299D01*
X126599873Y-57577555D01*
X126521232Y-57423212D01*
X126419414Y-57283072D01*
X126296928Y-57160586D01*
X126156788Y-57058768D01*
X126156784Y-57058766D01*
X126073205Y-57016180D01*
X126022409Y-56968205D01*
X126005500Y-56905695D01*
X126005500Y-54243659D01*
X126025185Y-54176620D01*
X126072971Y-54135212D01*
X126072224Y-54133814D01*
X126077592Y-54130944D01*
X126077594Y-54130942D01*
X126077598Y-54130941D01*
X126249655Y-54015977D01*
X126395977Y-53869655D01*
X126510941Y-53697598D01*
X126590130Y-53506420D01*
X126630500Y-53303465D01*
X126630500Y-53096535D01*
X126630499Y-53096530D01*
X127069500Y-53096530D01*
X127069500Y-53303469D01*
X127109868Y-53506412D01*
X127109870Y-53506420D01*
X127178940Y-53673170D01*
X127189059Y-53697598D01*
X127206797Y-53724145D01*
X127304024Y-53869657D01*
X127450340Y-54015973D01*
X127450343Y-54015975D01*
X127450345Y-54015977D01*
X127564390Y-54092178D01*
X127609196Y-54145791D01*
X127619500Y-54195281D01*
X127619500Y-57195892D01*
X127653608Y-57323186D01*
X127697668Y-57399500D01*
X127719500Y-57437314D01*
X127719502Y-57437316D01*
X127732321Y-57450135D01*
X127765806Y-57511458D01*
X127766257Y-57562006D01*
X127739500Y-57696534D01*
X127739499Y-57696537D01*
X127739499Y-57903469D01*
X127779867Y-58106412D01*
X127779869Y-58106420D01*
X127859057Y-58297596D01*
X127974023Y-58469657D01*
X128120341Y-58615975D01*
X128120344Y-58615977D01*
X128292401Y-58730941D01*
X128483579Y-58810130D01*
X128630801Y-58839414D01*
X128686529Y-58850499D01*
X128686533Y-58850500D01*
X128686534Y-58850500D01*
X128893465Y-58850500D01*
X128893466Y-58850499D01*
X129096419Y-58810130D01*
X129287597Y-58730941D01*
X129459654Y-58615977D01*
X129605976Y-58469655D01*
X129720940Y-58297598D01*
X129800129Y-58106420D01*
X129840499Y-57903465D01*
X129840499Y-57696535D01*
X129800129Y-57493580D01*
X129720940Y-57302402D01*
X129605976Y-57130345D01*
X129605974Y-57130342D01*
X129459656Y-56984024D01*
X129342427Y-56905695D01*
X129287597Y-56869059D01*
X129281665Y-56866602D01*
X129096419Y-56789870D01*
X129096411Y-56789868D01*
X128893468Y-56749500D01*
X128893464Y-56749500D01*
X128744500Y-56749500D01*
X128677461Y-56729815D01*
X128631706Y-56677011D01*
X128620500Y-56625500D01*
X128620500Y-54195281D01*
X128640185Y-54128242D01*
X128675610Y-54092178D01*
X128789655Y-54015977D01*
X128935977Y-53869655D01*
X129050941Y-53697598D01*
X129130130Y-53506420D01*
X129160370Y-53354394D01*
X129164383Y-53334219D01*
X129196768Y-53272308D01*
X129257483Y-53237734D01*
X129327253Y-53241473D01*
X129383925Y-53282339D01*
X129409506Y-53347357D01*
X129410000Y-53358410D01*
X129410000Y-53997844D01*
X129416401Y-54057372D01*
X129416403Y-54057379D01*
X129466645Y-54192086D01*
X129466649Y-54192093D01*
X129552809Y-54307187D01*
X129552812Y-54307190D01*
X129667906Y-54393350D01*
X129667913Y-54393354D01*
X129802620Y-54443596D01*
X129802627Y-54443598D01*
X129862155Y-54449999D01*
X129862172Y-54450000D01*
X130410000Y-54450000D01*
X130410000Y-53515686D01*
X130414394Y-53520080D01*
X130505606Y-53572741D01*
X130607339Y-53600000D01*
X130712661Y-53600000D01*
X130814394Y-53572741D01*
X130905606Y-53520080D01*
X130910000Y-53515686D01*
X130910000Y-54450000D01*
X131457828Y-54450000D01*
X131457844Y-54449999D01*
X131517372Y-54443598D01*
X131517379Y-54443596D01*
X131652086Y-54393354D01*
X131652093Y-54393350D01*
X131767187Y-54307190D01*
X131767190Y-54307187D01*
X131853350Y-54192093D01*
X131853354Y-54192086D01*
X131903596Y-54057379D01*
X131903598Y-54057372D01*
X131909999Y-53997844D01*
X131910000Y-53997827D01*
X131910000Y-53450000D01*
X130975686Y-53450000D01*
X130980080Y-53445606D01*
X131032741Y-53354394D01*
X131060000Y-53252661D01*
X131060000Y-53147339D01*
X131032741Y-53045606D01*
X130980080Y-52954394D01*
X130975686Y-52950000D01*
X131910000Y-52950000D01*
X131910000Y-52402172D01*
X131909999Y-52402155D01*
X131903598Y-52342627D01*
X131903596Y-52342620D01*
X131853354Y-52207913D01*
X131853350Y-52207906D01*
X131767190Y-52092812D01*
X131767187Y-52092809D01*
X131652093Y-52006649D01*
X131652086Y-52006645D01*
X131517379Y-51956403D01*
X131517372Y-51956401D01*
X131457844Y-51950000D01*
X130910000Y-51950000D01*
X130910000Y-52884314D01*
X130905606Y-52879920D01*
X130814394Y-52827259D01*
X130712661Y-52800000D01*
X130607339Y-52800000D01*
X130505606Y-52827259D01*
X130414394Y-52879920D01*
X130410000Y-52884314D01*
X130410000Y-51950000D01*
X129862155Y-51950000D01*
X129802627Y-51956401D01*
X129802620Y-51956403D01*
X129667913Y-52006645D01*
X129667906Y-52006649D01*
X129552812Y-52092809D01*
X129552809Y-52092812D01*
X129466649Y-52207906D01*
X129466645Y-52207913D01*
X129416403Y-52342620D01*
X129416401Y-52342627D01*
X129410000Y-52402155D01*
X129410000Y-53041589D01*
X129390315Y-53108628D01*
X129337511Y-53154383D01*
X129268353Y-53164327D01*
X129204797Y-53135302D01*
X129167023Y-53076524D01*
X129164383Y-53065780D01*
X129142227Y-52954394D01*
X129130130Y-52893580D01*
X129050941Y-52702402D01*
X128935977Y-52530345D01*
X128935975Y-52530342D01*
X128789657Y-52384024D01*
X128633972Y-52280000D01*
X128617598Y-52269059D01*
X128469962Y-52207906D01*
X128426420Y-52189870D01*
X128426412Y-52189868D01*
X128223469Y-52149500D01*
X128223465Y-52149500D01*
X128016535Y-52149500D01*
X128016530Y-52149500D01*
X127813587Y-52189868D01*
X127813579Y-52189870D01*
X127622403Y-52269058D01*
X127450342Y-52384024D01*
X127304024Y-52530342D01*
X127189058Y-52702403D01*
X127109870Y-52893579D01*
X127109868Y-52893587D01*
X127069500Y-53096530D01*
X126630499Y-53096530D01*
X126590130Y-52893580D01*
X126510941Y-52702402D01*
X126395977Y-52530345D01*
X126395975Y-52530342D01*
X126249657Y-52384024D01*
X126093972Y-52280000D01*
X126077598Y-52269059D01*
X125929962Y-52207906D01*
X125886420Y-52189870D01*
X125886412Y-52189868D01*
X125683469Y-52149500D01*
X125683465Y-52149500D01*
X125476535Y-52149500D01*
X125476530Y-52149500D01*
X125273587Y-52189868D01*
X125273579Y-52189870D01*
X125082403Y-52269058D01*
X124910342Y-52384024D01*
X124764024Y-52530342D01*
X124649058Y-52702403D01*
X124569870Y-52893579D01*
X124569868Y-52893587D01*
X124529500Y-53096530D01*
X124529500Y-53303469D01*
X124569868Y-53506412D01*
X124569870Y-53506420D01*
X124638940Y-53673170D01*
X124649059Y-53697598D01*
X124666797Y-53724145D01*
X124764024Y-53869657D01*
X124910342Y-54015975D01*
X124910345Y-54015977D01*
X125082402Y-54130941D01*
X125082403Y-54130941D01*
X125082407Y-54130944D01*
X125087776Y-54133814D01*
X125086577Y-54136056D01*
X125132338Y-54172913D01*
X125154420Y-54239201D01*
X125154500Y-54243659D01*
X125154500Y-56905695D01*
X125134815Y-56972734D01*
X125086795Y-57016180D01*
X125003211Y-57058768D01*
X124923256Y-57116859D01*
X124863072Y-57160586D01*
X124863070Y-57160588D01*
X124863069Y-57160588D01*
X124740588Y-57283069D01*
X124740588Y-57283070D01*
X124740586Y-57283072D01*
X124711440Y-57323188D01*
X124638768Y-57423211D01*
X124560128Y-57577552D01*
X124506597Y-57742302D01*
X124504575Y-57755070D01*
X124479500Y-57913389D01*
X121860137Y-57913389D01*
X121384058Y-57437310D01*
X120847558Y-56900809D01*
X120814073Y-56839486D01*
X120813622Y-56788936D01*
X120850500Y-56603543D01*
X120850500Y-56406456D01*
X120812052Y-56213170D01*
X120812051Y-56213169D01*
X120812051Y-56213165D01*
X120766925Y-56104222D01*
X120759457Y-56034754D01*
X120790732Y-55972275D01*
X120850821Y-55936623D01*
X120920646Y-55939117D01*
X120969168Y-55969090D01*
X121012214Y-56012136D01*
X121012218Y-56012139D01*
X121176079Y-56121628D01*
X121176092Y-56121635D01*
X121358160Y-56197049D01*
X121358165Y-56197051D01*
X121358169Y-56197051D01*
X121358170Y-56197052D01*
X121551456Y-56235500D01*
X121551459Y-56235500D01*
X121748543Y-56235500D01*
X121878582Y-56209632D01*
X121941835Y-56197051D01*
X122123914Y-56121632D01*
X122287782Y-56012139D01*
X122427139Y-55872782D01*
X122536632Y-55708914D01*
X122542132Y-55695637D01*
X122559240Y-55654333D01*
X122612051Y-55526835D01*
X122635551Y-55408694D01*
X122650500Y-55333543D01*
X122650500Y-55136456D01*
X122612052Y-54943170D01*
X122612051Y-54943169D01*
X122612051Y-54943165D01*
X122605377Y-54927052D01*
X122536635Y-54761092D01*
X122536628Y-54761079D01*
X122427139Y-54597218D01*
X122427136Y-54597214D01*
X122287785Y-54457863D01*
X122287781Y-54457860D01*
X122123920Y-54348371D01*
X122123907Y-54348364D01*
X121941839Y-54272950D01*
X121941829Y-54272947D01*
X121748543Y-54234500D01*
X121748541Y-54234500D01*
X121551459Y-54234500D01*
X121551457Y-54234500D01*
X121358170Y-54272947D01*
X121358160Y-54272950D01*
X121196735Y-54339814D01*
X121127266Y-54347283D01*
X121064787Y-54316007D01*
X121029135Y-54255918D01*
X121026810Y-54205854D01*
X121050000Y-54059446D01*
X121050000Y-53870553D01*
X121026810Y-53724145D01*
X121035764Y-53654851D01*
X121080760Y-53601399D01*
X121147511Y-53580759D01*
X121196734Y-53590184D01*
X121358165Y-53657051D01*
X121358169Y-53657051D01*
X121358170Y-53657052D01*
X121551456Y-53695500D01*
X121551459Y-53695500D01*
X121748543Y-53695500D01*
X121878582Y-53669632D01*
X121941835Y-53657051D01*
X122123914Y-53581632D01*
X122287782Y-53472139D01*
X122427139Y-53332782D01*
X122536632Y-53168914D01*
X122612051Y-52986835D01*
X122649015Y-52801008D01*
X122650500Y-52793543D01*
X122650500Y-52596456D01*
X122612052Y-52403170D01*
X122612051Y-52403169D01*
X122612051Y-52403165D01*
X122600984Y-52376446D01*
X122536635Y-52221092D01*
X122536628Y-52221079D01*
X122427139Y-52057218D01*
X122427136Y-52057214D01*
X122298515Y-51928593D01*
X122265030Y-51867270D01*
X122270014Y-51797578D01*
X122298510Y-51753236D01*
X122589931Y-51461816D01*
X122651252Y-51428334D01*
X122677610Y-51425500D01*
X134960803Y-51425500D01*
X135027842Y-51445185D01*
X135073597Y-51497989D01*
X135083541Y-51567147D01*
X135054516Y-51630703D01*
X135010890Y-51662934D01*
X134977234Y-51677794D01*
X134897794Y-51757234D01*
X134852415Y-51860006D01*
X134852415Y-51860008D01*
X134849500Y-51885131D01*
X134849500Y-53142033D01*
X134829815Y-53209072D01*
X134813181Y-53229714D01*
X131639513Y-56403382D01*
X131639509Y-56403388D01*
X131580201Y-56506111D01*
X131580200Y-56506116D01*
X131549500Y-56620690D01*
X131549500Y-56918433D01*
X131529815Y-56985472D01*
X131481796Y-57028917D01*
X131423214Y-57058766D01*
X131353142Y-57109677D01*
X131283072Y-57160586D01*
X131283070Y-57160588D01*
X131283069Y-57160588D01*
X131160588Y-57283069D01*
X131160588Y-57283070D01*
X131160586Y-57283072D01*
X131131440Y-57323188D01*
X131058768Y-57423211D01*
X130980128Y-57577552D01*
X130926597Y-57742302D01*
X130924575Y-57755070D01*
X130899500Y-57913389D01*
X130899500Y-58086611D01*
X130926598Y-58257701D01*
X130939561Y-58297598D01*
X130980128Y-58422447D01*
X131010088Y-58481247D01*
X131058768Y-58576788D01*
X131160586Y-58716928D01*
X131283072Y-58839414D01*
X131423212Y-58941232D01*
X131577555Y-59019873D01*
X131742299Y-59073402D01*
X131913389Y-59100500D01*
X131913390Y-59100500D01*
X132086610Y-59100500D01*
X132086611Y-59100500D01*
X132257701Y-59073402D01*
X132422445Y-59019873D01*
X132576788Y-58941232D01*
X132716928Y-58839414D01*
X132839414Y-58716928D01*
X132941232Y-58576788D01*
X133019873Y-58422445D01*
X133073402Y-58257701D01*
X133100500Y-58086611D01*
X133100500Y-57913389D01*
X133073402Y-57742299D01*
X133019873Y-57577555D01*
X132941232Y-57423212D01*
X132839414Y-57283072D01*
X132716928Y-57160586D01*
X132576788Y-57058768D01*
X132576787Y-57058767D01*
X132576785Y-57058766D01*
X132518204Y-57028917D01*
X132467409Y-56980943D01*
X132450500Y-56918433D01*
X132450500Y-56917964D01*
X132470185Y-56850925D01*
X132486819Y-56830283D01*
X133700187Y-55616915D01*
X134133713Y-55183389D01*
X134849500Y-55183389D01*
X134849500Y-55356610D01*
X134876460Y-55526835D01*
X134876598Y-55527701D01*
X134930127Y-55692445D01*
X135008768Y-55846788D01*
X135110586Y-55986928D01*
X135233072Y-56109414D01*
X135373212Y-56211232D01*
X135527555Y-56289873D01*
X135692299Y-56343402D01*
X135863389Y-56370500D01*
X135863390Y-56370500D01*
X136036610Y-56370500D01*
X136036611Y-56370500D01*
X136207701Y-56343402D01*
X136372445Y-56289873D01*
X136526788Y-56211232D01*
X136666928Y-56109414D01*
X136789414Y-55986928D01*
X136891232Y-55846788D01*
X136969873Y-55692445D01*
X137023402Y-55527701D01*
X137050500Y-55356611D01*
X137050500Y-55183389D01*
X137023402Y-55012299D01*
X136969873Y-54847555D01*
X136891232Y-54693212D01*
X136789414Y-54553072D01*
X136666928Y-54430586D01*
X136526788Y-54328768D01*
X136372445Y-54250127D01*
X136207701Y-54196598D01*
X136207699Y-54196597D01*
X136207698Y-54196597D01*
X136076271Y-54175781D01*
X136036611Y-54169500D01*
X135863389Y-54169500D01*
X135823728Y-54175781D01*
X135692302Y-54196597D01*
X135527552Y-54250128D01*
X135373208Y-54328770D01*
X135248314Y-54419510D01*
X135248306Y-54419517D01*
X135233072Y-54430586D01*
X135110586Y-54553072D01*
X135099517Y-54568306D01*
X135099510Y-54568314D01*
X135008770Y-54693208D01*
X134930128Y-54847552D01*
X134876597Y-55012302D01*
X134849500Y-55183389D01*
X134133713Y-55183389D01*
X135450284Y-53866818D01*
X135511607Y-53833333D01*
X135537965Y-53830499D01*
X136794856Y-53830499D01*
X136794864Y-53830499D01*
X136794879Y-53830497D01*
X136794882Y-53830497D01*
X136819987Y-53827586D01*
X136819988Y-53827585D01*
X136819991Y-53827585D01*
X136922765Y-53782206D01*
X137002206Y-53702765D01*
X137047585Y-53599991D01*
X137050500Y-53574865D01*
X137050499Y-51885136D01*
X137050396Y-51884247D01*
X137047586Y-51860012D01*
X137047585Y-51860010D01*
X137047585Y-51860009D01*
X137002206Y-51757235D01*
X136922765Y-51677794D01*
X136889109Y-51662933D01*
X136835734Y-51617848D01*
X136815207Y-51551062D01*
X136834045Y-51483780D01*
X136886269Y-51437363D01*
X136939197Y-51425500D01*
X139252163Y-51425500D01*
X139319202Y-51445185D01*
X139364957Y-51497989D01*
X139374901Y-51567147D01*
X139345876Y-51630703D01*
X139325047Y-51649819D01*
X139324077Y-51650523D01*
X139324077Y-51650524D01*
X139961415Y-52287861D01*
X139876306Y-52310667D01*
X139773694Y-52369910D01*
X139689910Y-52453694D01*
X139630667Y-52556306D01*
X139607861Y-52641414D01*
X138970524Y-52004077D01*
X138970523Y-52004077D01*
X138938143Y-52048644D01*
X138845244Y-52230968D01*
X138782009Y-52425582D01*
X138750000Y-52627682D01*
X138750000Y-52832317D01*
X138782009Y-53034417D01*
X138845244Y-53229031D01*
X138938141Y-53411350D01*
X138938147Y-53411359D01*
X138970523Y-53455921D01*
X138970524Y-53455922D01*
X139607861Y-52818584D01*
X139630667Y-52903694D01*
X139689910Y-53006306D01*
X139773694Y-53090090D01*
X139876306Y-53149333D01*
X139961414Y-53172137D01*
X139324076Y-53809474D01*
X139368650Y-53841859D01*
X139550970Y-53934755D01*
X139711613Y-53986952D01*
X139769289Y-54026390D01*
X139796487Y-54090748D01*
X139784572Y-54159595D01*
X139737328Y-54211070D01*
X139711615Y-54222814D01*
X139627549Y-54250129D01*
X139473211Y-54328768D01*
X139396734Y-54384333D01*
X139333072Y-54430586D01*
X139333070Y-54430588D01*
X139333069Y-54430588D01*
X139210588Y-54553069D01*
X139210588Y-54553070D01*
X139210586Y-54553072D01*
X139174467Y-54602785D01*
X139108768Y-54693211D01*
X139030128Y-54847552D01*
X138976597Y-55012302D01*
X138949500Y-55183389D01*
X138949500Y-55356610D01*
X138976460Y-55526835D01*
X138976598Y-55527701D01*
X139030127Y-55692445D01*
X139108768Y-55846788D01*
X139210586Y-55986928D01*
X139333072Y-56109414D01*
X139412186Y-56166894D01*
X139473207Y-56211229D01*
X139473209Y-56211230D01*
X139473212Y-56211232D01*
X139556795Y-56253819D01*
X139607590Y-56301792D01*
X139624500Y-56364303D01*
X139624500Y-57450500D01*
X139604815Y-57517539D01*
X139552011Y-57563294D01*
X139500500Y-57574500D01*
X139094303Y-57574500D01*
X139027264Y-57554815D01*
X138983819Y-57506795D01*
X138941232Y-57423212D01*
X138941230Y-57423209D01*
X138941229Y-57423207D01*
X138911672Y-57382526D01*
X138839414Y-57283072D01*
X138716928Y-57160586D01*
X138576788Y-57058768D01*
X138422445Y-56980127D01*
X138257701Y-56926598D01*
X138257699Y-56926597D01*
X138257698Y-56926597D01*
X138125725Y-56905695D01*
X138086611Y-56899500D01*
X137913389Y-56899500D01*
X137874275Y-56905695D01*
X137742302Y-56926597D01*
X137577552Y-56980128D01*
X137423211Y-57058768D01*
X137343256Y-57116859D01*
X137283072Y-57160586D01*
X137283070Y-57160588D01*
X137283069Y-57160588D01*
X137160588Y-57283069D01*
X137160588Y-57283070D01*
X137160586Y-57283072D01*
X137131440Y-57323188D01*
X137058768Y-57423211D01*
X136980128Y-57577552D01*
X136926597Y-57742302D01*
X136924575Y-57755070D01*
X136899500Y-57913389D01*
X136899500Y-58086611D01*
X136926598Y-58257701D01*
X136939561Y-58297598D01*
X136980128Y-58422447D01*
X137010088Y-58481247D01*
X137058768Y-58576788D01*
X137160586Y-58716928D01*
X137283072Y-58839414D01*
X137423212Y-58941232D01*
X137577555Y-59019873D01*
X137742299Y-59073402D01*
X137913389Y-59100500D01*
X137913390Y-59100500D01*
X138086610Y-59100500D01*
X138086611Y-59100500D01*
X138257701Y-59073402D01*
X138422445Y-59019873D01*
X138576788Y-58941232D01*
X138716928Y-58839414D01*
X138839414Y-58716928D01*
X138941232Y-58576788D01*
X138983819Y-58493204D01*
X139031792Y-58442410D01*
X139094303Y-58425500D01*
X139500500Y-58425500D01*
X139567539Y-58445185D01*
X139613294Y-58497989D01*
X139624500Y-58549500D01*
X139624500Y-66543981D01*
X139624500Y-66656017D01*
X139653497Y-66764236D01*
X139709515Y-66861262D01*
X139788737Y-66940484D01*
X139885763Y-66996502D01*
X139993982Y-67025499D01*
X143307591Y-67025499D01*
X143374630Y-67045184D01*
X143420385Y-67097988D01*
X143430329Y-67167146D01*
X143401304Y-67230702D01*
X143380477Y-67249816D01*
X143283072Y-67320586D01*
X143283070Y-67320588D01*
X143283069Y-67320588D01*
X143160588Y-67443069D01*
X143160588Y-67443070D01*
X143160586Y-67443072D01*
X143152431Y-67454297D01*
X143058770Y-67583207D01*
X143058765Y-67583216D01*
X143054393Y-67591798D01*
X143006418Y-67642592D01*
X142943910Y-67659500D01*
X139056090Y-67659500D01*
X138989051Y-67639815D01*
X138945607Y-67591798D01*
X138941234Y-67583216D01*
X138941229Y-67583207D01*
X138903254Y-67530940D01*
X138839414Y-67443072D01*
X138716928Y-67320586D01*
X138576788Y-67218768D01*
X138422445Y-67140127D01*
X138257701Y-67086598D01*
X138257699Y-67086597D01*
X138257698Y-67086597D01*
X138126271Y-67065781D01*
X138086611Y-67059500D01*
X137913389Y-67059500D01*
X137873728Y-67065781D01*
X137742302Y-67086597D01*
X137742299Y-67086598D01*
X137609754Y-67129665D01*
X137577552Y-67140128D01*
X137423211Y-67218768D01*
X137353174Y-67269654D01*
X137283072Y-67320586D01*
X137283070Y-67320588D01*
X137283069Y-67320588D01*
X137160588Y-67443069D01*
X137160588Y-67443070D01*
X137160586Y-67443072D01*
X137152431Y-67454297D01*
X137058770Y-67583207D01*
X137058765Y-67583216D01*
X137054393Y-67591798D01*
X137006418Y-67642592D01*
X136943910Y-67659500D01*
X133056090Y-67659500D01*
X132989051Y-67639815D01*
X132945607Y-67591798D01*
X132941234Y-67583216D01*
X132941229Y-67583207D01*
X132903254Y-67530940D01*
X132839414Y-67443072D01*
X132716928Y-67320586D01*
X132576788Y-67218768D01*
X132422445Y-67140127D01*
X132257701Y-67086598D01*
X132257699Y-67086597D01*
X132257698Y-67086597D01*
X132126271Y-67065781D01*
X132086611Y-67059500D01*
X131913389Y-67059500D01*
X131873728Y-67065781D01*
X131742302Y-67086597D01*
X131742299Y-67086598D01*
X131609754Y-67129665D01*
X131577552Y-67140128D01*
X131423211Y-67218768D01*
X131353174Y-67269654D01*
X131283072Y-67320586D01*
X131283070Y-67320588D01*
X131283069Y-67320588D01*
X131160588Y-67443069D01*
X131160588Y-67443070D01*
X131160586Y-67443072D01*
X131152431Y-67454297D01*
X131058768Y-67583211D01*
X130980128Y-67737552D01*
X130926597Y-67902302D01*
X130926050Y-67905756D01*
X130899500Y-68073389D01*
X130899500Y-68246611D01*
X130926598Y-68417701D01*
X130980127Y-68582445D01*
X131058768Y-68736788D01*
X131160586Y-68876928D01*
X131160588Y-68876930D01*
X131246477Y-68962819D01*
X131279962Y-69024142D01*
X131274978Y-69093834D01*
X131233106Y-69149767D01*
X131167642Y-69174184D01*
X131158796Y-69174500D01*
X126607610Y-69174500D01*
X126540571Y-69154815D01*
X126519929Y-69138181D01*
X126426421Y-69044673D01*
X126392936Y-68983350D01*
X126397920Y-68913658D01*
X126417021Y-68881211D01*
X126416550Y-68880869D01*
X126419413Y-68876929D01*
X126419414Y-68876928D01*
X126521232Y-68736788D01*
X126599873Y-68582445D01*
X126653402Y-68417701D01*
X126680500Y-68246611D01*
X126680500Y-68073389D01*
X126653402Y-67902299D01*
X126599873Y-67737555D01*
X126521232Y-67583212D01*
X126419414Y-67443072D01*
X126296928Y-67320586D01*
X126156788Y-67218768D01*
X126002445Y-67140127D01*
X125837701Y-67086598D01*
X125837699Y-67086597D01*
X125837698Y-67086597D01*
X125706271Y-67065781D01*
X125666611Y-67059500D01*
X125493389Y-67059500D01*
X125453728Y-67065781D01*
X125322302Y-67086597D01*
X125322299Y-67086598D01*
X125189754Y-67129665D01*
X125157552Y-67140128D01*
X125003211Y-67218768D01*
X124933174Y-67269654D01*
X124863072Y-67320586D01*
X124863070Y-67320588D01*
X124863069Y-67320588D01*
X124740588Y-67443069D01*
X124740588Y-67443070D01*
X124740586Y-67443072D01*
X124732431Y-67454297D01*
X124638768Y-67583211D01*
X124560128Y-67737552D01*
X124506597Y-67902302D01*
X124506050Y-67905756D01*
X124479500Y-68073389D01*
X124479500Y-68246611D01*
X124506598Y-68417701D01*
X124560127Y-68582445D01*
X124638768Y-68736788D01*
X124740586Y-68876928D01*
X124863072Y-68999414D01*
X125003212Y-69101232D01*
X125075729Y-69138181D01*
X125157550Y-69179871D01*
X125157552Y-69179871D01*
X125157555Y-69179873D01*
X125322293Y-69233400D01*
X125322294Y-69233400D01*
X125322299Y-69233402D01*
X125388676Y-69243914D01*
X125451808Y-69273842D01*
X125456958Y-69278706D01*
X126039515Y-69861263D01*
X126118737Y-69940485D01*
X126173799Y-69972275D01*
X126209025Y-69992613D01*
X126257241Y-70043180D01*
X126270463Y-70111787D01*
X126244495Y-70176652D01*
X126209025Y-70207387D01*
X126118740Y-70259513D01*
X126118734Y-70259517D01*
X125239517Y-71138734D01*
X125239513Y-71138740D01*
X125183498Y-71235760D01*
X125183497Y-71235763D01*
X125154500Y-71343982D01*
X125154500Y-73405695D01*
X125134815Y-73472734D01*
X125086795Y-73516180D01*
X125003211Y-73558768D01*
X124946491Y-73599978D01*
X124863072Y-73660586D01*
X124863070Y-73660588D01*
X124863069Y-73660588D01*
X124740588Y-73783069D01*
X124740588Y-73783070D01*
X124740586Y-73783072D01*
X124696859Y-73843256D01*
X124638768Y-73923211D01*
X124560128Y-74077552D01*
X124506597Y-74242302D01*
X124487323Y-74363995D01*
X124479500Y-74413389D01*
X124479500Y-74586611D01*
X124506598Y-74757701D01*
X124560127Y-74922445D01*
X124638768Y-75076788D01*
X124740586Y-75216928D01*
X124863072Y-75339414D01*
X125003212Y-75441232D01*
X125157555Y-75519873D01*
X125322299Y-75573402D01*
X125493389Y-75600500D01*
X125493390Y-75600500D01*
X125666610Y-75600500D01*
X125666611Y-75600500D01*
X125837701Y-75573402D01*
X126002445Y-75519873D01*
X126156788Y-75441232D01*
X126296928Y-75339414D01*
X126419414Y-75216928D01*
X126521232Y-75076788D01*
X126599873Y-74922445D01*
X126653402Y-74757701D01*
X126680500Y-74586611D01*
X126680500Y-74413389D01*
X126653402Y-74242299D01*
X126599873Y-74077555D01*
X126521232Y-73923212D01*
X126419414Y-73783072D01*
X126296928Y-73660586D01*
X126156788Y-73558768D01*
X126114315Y-73537127D01*
X126073205Y-73516180D01*
X126022409Y-73468205D01*
X126005500Y-73405695D01*
X126005500Y-71627610D01*
X126025185Y-71560571D01*
X126041819Y-71539929D01*
X126519929Y-71061819D01*
X126581252Y-71028334D01*
X126607610Y-71025500D01*
X131950500Y-71025500D01*
X132017539Y-71045185D01*
X132063294Y-71097989D01*
X132074500Y-71149500D01*
X132074500Y-73405695D01*
X132054815Y-73472734D01*
X132006795Y-73516180D01*
X131923211Y-73558768D01*
X131866491Y-73599978D01*
X131783072Y-73660586D01*
X131783070Y-73660588D01*
X131783069Y-73660588D01*
X131660588Y-73783069D01*
X131660588Y-73783070D01*
X131660586Y-73783072D01*
X131616859Y-73843256D01*
X131558768Y-73923211D01*
X131480128Y-74077552D01*
X131426597Y-74242302D01*
X131407323Y-74363995D01*
X131399500Y-74413389D01*
X131399500Y-74586611D01*
X131426598Y-74757701D01*
X131480127Y-74922445D01*
X131558768Y-75076788D01*
X131660586Y-75216928D01*
X131783072Y-75339414D01*
X131923212Y-75441232D01*
X132077555Y-75519873D01*
X132242299Y-75573402D01*
X132413389Y-75600500D01*
X132413390Y-75600500D01*
X132586610Y-75600500D01*
X132586611Y-75600500D01*
X132757701Y-75573402D01*
X132922445Y-75519873D01*
X133076788Y-75441232D01*
X133216928Y-75339414D01*
X133339414Y-75216928D01*
X133441232Y-75076788D01*
X133519873Y-74922445D01*
X133573402Y-74757701D01*
X133600500Y-74586611D01*
X133600500Y-74413389D01*
X133573402Y-74242299D01*
X133519873Y-74077555D01*
X133441232Y-73923212D01*
X133339414Y-73783072D01*
X133216928Y-73660586D01*
X133193655Y-73643677D01*
X149309873Y-73643677D01*
X149309873Y-73643678D01*
X149344858Y-73669096D01*
X149520164Y-73758418D01*
X149707294Y-73819221D01*
X149901618Y-73850000D01*
X150098382Y-73850000D01*
X150292705Y-73819221D01*
X150479835Y-73758418D01*
X150655143Y-73669095D01*
X150690125Y-73643678D01*
X150690126Y-73643678D01*
X150000001Y-72953553D01*
X150000000Y-72953553D01*
X149309873Y-73643677D01*
X133193655Y-73643677D01*
X133076788Y-73558768D01*
X133034315Y-73537127D01*
X132993205Y-73516180D01*
X132942409Y-73468205D01*
X132925500Y-73405695D01*
X132925500Y-72501617D01*
X148750000Y-72501617D01*
X148750000Y-72698382D01*
X148780778Y-72892705D01*
X148841581Y-73079835D01*
X148930905Y-73255145D01*
X148956319Y-73290125D01*
X148956320Y-73290125D01*
X149646446Y-72600000D01*
X149646446Y-72599999D01*
X150353553Y-72599999D01*
X150353553Y-72600001D01*
X151043678Y-73290126D01*
X151043678Y-73290125D01*
X151069095Y-73255143D01*
X151158418Y-73079835D01*
X151219221Y-72892705D01*
X151250000Y-72698382D01*
X151250000Y-72501617D01*
X151219221Y-72307294D01*
X151158418Y-72120164D01*
X151069096Y-71944858D01*
X151043678Y-71909873D01*
X151043677Y-71909873D01*
X150353553Y-72599999D01*
X149646446Y-72599999D01*
X148956320Y-71909872D01*
X148956320Y-71909873D01*
X148930902Y-71944859D01*
X148930899Y-71944863D01*
X148841582Y-72120161D01*
X148780778Y-72307294D01*
X148750000Y-72501617D01*
X132925500Y-72501617D01*
X132925500Y-71556320D01*
X149309872Y-71556320D01*
X150000000Y-72246446D01*
X150000001Y-72246446D01*
X150690125Y-71556320D01*
X150690125Y-71556319D01*
X150655145Y-71530905D01*
X150479835Y-71441581D01*
X150292705Y-71380778D01*
X150098382Y-71350000D01*
X149901618Y-71350000D01*
X149707294Y-71380778D01*
X149520161Y-71441582D01*
X149344863Y-71530899D01*
X149344859Y-71530902D01*
X149309873Y-71556320D01*
X149309872Y-71556320D01*
X132925500Y-71556320D01*
X132925500Y-71149500D01*
X132945185Y-71082461D01*
X132997989Y-71036706D01*
X133049500Y-71025500D01*
X167482390Y-71025500D01*
X167549429Y-71045185D01*
X167570071Y-71061819D01*
X168048181Y-71539929D01*
X168081666Y-71601252D01*
X168084500Y-71627610D01*
X168084500Y-72229578D01*
X168064815Y-72296617D01*
X168016795Y-72340062D01*
X167907007Y-72396002D01*
X167907006Y-72396003D01*
X167760505Y-72502441D01*
X167760500Y-72502445D01*
X167632445Y-72630500D01*
X167632441Y-72630505D01*
X167526006Y-72777002D01*
X167443788Y-72938360D01*
X167443787Y-72938363D01*
X167387829Y-73110589D01*
X167362473Y-73270678D01*
X167332544Y-73333813D01*
X167273232Y-73370744D01*
X167203369Y-73369746D01*
X167145137Y-73331136D01*
X167117527Y-73270678D01*
X167100000Y-73160021D01*
X167092171Y-73110591D01*
X167036211Y-72938361D01*
X167036211Y-72938360D01*
X166994374Y-72856252D01*
X166953996Y-72777006D01*
X166940396Y-72758287D01*
X166847558Y-72630505D01*
X166847554Y-72630500D01*
X166719499Y-72502445D01*
X166719494Y-72502441D01*
X166572997Y-72396006D01*
X166572996Y-72396005D01*
X166572994Y-72396004D01*
X166496906Y-72357235D01*
X166411639Y-72313788D01*
X166411636Y-72313787D01*
X166239410Y-72257829D01*
X166060551Y-72229500D01*
X166060546Y-72229500D01*
X165879454Y-72229500D01*
X165879449Y-72229500D01*
X165700589Y-72257829D01*
X165528363Y-72313787D01*
X165528360Y-72313788D01*
X165367002Y-72396006D01*
X165220505Y-72502441D01*
X165220500Y-72502445D01*
X165092445Y-72630500D01*
X165092441Y-72630505D01*
X164986006Y-72777002D01*
X164903788Y-72938360D01*
X164903787Y-72938363D01*
X164847829Y-73110589D01*
X164822473Y-73270678D01*
X164792544Y-73333813D01*
X164733232Y-73370744D01*
X164663369Y-73369746D01*
X164605137Y-73331136D01*
X164577527Y-73270678D01*
X164560000Y-73160021D01*
X164552171Y-73110591D01*
X164496211Y-72938361D01*
X164496211Y-72938360D01*
X164454374Y-72856252D01*
X164413996Y-72777006D01*
X164400396Y-72758287D01*
X164307558Y-72630505D01*
X164307554Y-72630500D01*
X164179499Y-72502445D01*
X164179494Y-72502441D01*
X164032997Y-72396006D01*
X164032996Y-72396005D01*
X164032994Y-72396004D01*
X163956906Y-72357235D01*
X163871639Y-72313788D01*
X163871636Y-72313787D01*
X163699410Y-72257829D01*
X163520551Y-72229500D01*
X163520546Y-72229500D01*
X163339454Y-72229500D01*
X163339449Y-72229500D01*
X163160589Y-72257829D01*
X162988363Y-72313787D01*
X162988360Y-72313788D01*
X162827002Y-72396006D01*
X162680505Y-72502441D01*
X162680500Y-72502445D01*
X162552445Y-72630500D01*
X162552441Y-72630505D01*
X162524318Y-72669214D01*
X162468988Y-72711880D01*
X162399375Y-72717859D01*
X162337580Y-72685254D01*
X162303223Y-72624415D01*
X162300000Y-72596329D01*
X162300000Y-72100000D01*
X156650000Y-72100000D01*
X156650000Y-89900000D01*
X162300000Y-89900000D01*
X162300000Y-89403670D01*
X162319685Y-89336631D01*
X162372489Y-89290876D01*
X162441647Y-89280932D01*
X162505203Y-89309957D01*
X162524319Y-89330786D01*
X162552443Y-89369497D01*
X162680500Y-89497554D01*
X162680505Y-89497558D01*
X162751526Y-89549157D01*
X162827006Y-89603996D01*
X162932484Y-89657740D01*
X162988360Y-89686211D01*
X162988363Y-89686212D01*
X163055145Y-89707910D01*
X163160591Y-89742171D01*
X163243429Y-89755291D01*
X163339449Y-89770500D01*
X163339454Y-89770500D01*
X163520551Y-89770500D01*
X163607259Y-89756765D01*
X163699409Y-89742171D01*
X163871639Y-89686211D01*
X163871641Y-89686209D01*
X163876142Y-89684346D01*
X163876981Y-89686373D01*
X163936644Y-89675110D01*
X164001409Y-89701325D01*
X164041720Y-89758394D01*
X164044778Y-89828196D01*
X164012067Y-89886184D01*
X163760071Y-90138181D01*
X163698748Y-90171666D01*
X163672390Y-90174500D01*
X144393982Y-90174500D01*
X144285763Y-90203497D01*
X144285760Y-90203498D01*
X144188740Y-90259513D01*
X144188734Y-90259517D01*
X143309517Y-91138734D01*
X143309513Y-91138740D01*
X143253498Y-91235760D01*
X143253497Y-91235763D01*
X143224500Y-91343982D01*
X143224500Y-96583463D01*
X143204815Y-96650502D01*
X143156795Y-96693948D01*
X143020800Y-96763240D01*
X142974030Y-96797221D01*
X142867927Y-96874310D01*
X142867925Y-96874312D01*
X142867924Y-96874312D01*
X142734312Y-97007924D01*
X142734312Y-97007925D01*
X142734310Y-97007927D01*
X142623241Y-97160800D01*
X142623240Y-97160801D01*
X142602435Y-97201631D01*
X142554459Y-97252426D01*
X142486638Y-97269220D01*
X142420503Y-97246681D01*
X142381466Y-97201629D01*
X142307388Y-97056243D01*
X142261066Y-96992485D01*
X142261065Y-96992485D01*
X141592962Y-97660589D01*
X141575925Y-97597007D01*
X141510099Y-97482993D01*
X141417007Y-97389901D01*
X141302993Y-97324075D01*
X141239407Y-97307037D01*
X141907513Y-96638932D01*
X141843756Y-96592611D01*
X141647410Y-96492567D01*
X141437835Y-96424473D01*
X141220181Y-96390000D01*
X140999819Y-96390000D01*
X140782164Y-96424473D01*
X140572589Y-96492567D01*
X140376233Y-96592616D01*
X140312485Y-96638931D01*
X140312485Y-96638932D01*
X140980590Y-97307037D01*
X140917007Y-97324075D01*
X140802993Y-97389901D01*
X140709901Y-97482993D01*
X140644075Y-97597007D01*
X140627037Y-97660590D01*
X139958932Y-96992485D01*
X139958931Y-96992485D01*
X139912616Y-97056233D01*
X139812567Y-97252589D01*
X139744473Y-97462164D01*
X139710000Y-97679818D01*
X139710000Y-97900181D01*
X139744473Y-98117835D01*
X139812567Y-98327410D01*
X139912611Y-98523756D01*
X139958932Y-98587513D01*
X140627037Y-97919408D01*
X140644075Y-97982993D01*
X140709901Y-98097007D01*
X140802993Y-98190099D01*
X140917007Y-98255925D01*
X140980590Y-98272962D01*
X140312485Y-98941065D01*
X140312485Y-98941066D01*
X140376243Y-98987388D01*
X140572589Y-99087432D01*
X140782164Y-99155526D01*
X140999819Y-99190000D01*
X141220181Y-99190000D01*
X141437835Y-99155526D01*
X141647410Y-99087432D01*
X141843760Y-98987386D01*
X141907513Y-98941066D01*
X141907514Y-98941066D01*
X141239409Y-98272962D01*
X141302993Y-98255925D01*
X141417007Y-98190099D01*
X141510099Y-98097007D01*
X141575925Y-97982993D01*
X141592962Y-97919409D01*
X142261066Y-98587514D01*
X142261066Y-98587513D01*
X142307388Y-98523758D01*
X142381466Y-98378371D01*
X142429440Y-98327574D01*
X142497261Y-98310779D01*
X142563396Y-98333316D01*
X142602435Y-98378369D01*
X142623238Y-98419196D01*
X142623240Y-98419199D01*
X142734310Y-98572073D01*
X142867927Y-98705690D01*
X143020801Y-98816760D01*
X143100347Y-98857290D01*
X143189163Y-98902545D01*
X143189165Y-98902545D01*
X143189168Y-98902547D01*
X143280079Y-98932086D01*
X143368881Y-98960940D01*
X143555514Y-98990500D01*
X143555519Y-98990500D01*
X143744486Y-98990500D01*
X143931118Y-98960940D01*
X143992283Y-98941066D01*
X144110832Y-98902547D01*
X144279199Y-98816760D01*
X144432073Y-98705690D01*
X144565690Y-98572073D01*
X144676760Y-98419199D01*
X144762547Y-98250832D01*
X144802069Y-98129195D01*
X144841507Y-98071521D01*
X144905866Y-98044323D01*
X144974712Y-98056238D01*
X145026188Y-98103482D01*
X145037931Y-98129196D01*
X145077454Y-98250836D01*
X145142437Y-98378371D01*
X145163240Y-98419199D01*
X145274310Y-98572073D01*
X145407927Y-98705690D01*
X145560801Y-98816760D01*
X145640347Y-98857290D01*
X145729163Y-98902545D01*
X145729165Y-98902545D01*
X145729168Y-98902547D01*
X145820079Y-98932086D01*
X145908881Y-98960940D01*
X146095514Y-98990500D01*
X146095519Y-98990500D01*
X146284486Y-98990500D01*
X146471118Y-98960940D01*
X146532283Y-98941066D01*
X146650832Y-98902547D01*
X146819199Y-98816760D01*
X146972073Y-98705690D01*
X147105690Y-98572073D01*
X147216760Y-98419199D01*
X147302547Y-98250832D01*
X147342069Y-98129195D01*
X147381507Y-98071521D01*
X147445866Y-98044323D01*
X147514712Y-98056238D01*
X147566188Y-98103482D01*
X147577931Y-98129196D01*
X147617454Y-98250836D01*
X147682437Y-98378371D01*
X147703240Y-98419199D01*
X147814310Y-98572073D01*
X147947927Y-98705690D01*
X148100801Y-98816760D01*
X148180347Y-98857290D01*
X148269163Y-98902545D01*
X148269165Y-98902545D01*
X148269168Y-98902547D01*
X148360079Y-98932086D01*
X148448881Y-98960940D01*
X148635514Y-98990500D01*
X148635519Y-98990500D01*
X148824486Y-98990500D01*
X149011118Y-98960940D01*
X149072283Y-98941066D01*
X149190832Y-98902547D01*
X149359199Y-98816760D01*
X149512073Y-98705690D01*
X149645690Y-98572073D01*
X149756760Y-98419199D01*
X149842547Y-98250832D01*
X149882069Y-98129195D01*
X149921507Y-98071521D01*
X149985866Y-98044323D01*
X150054712Y-98056238D01*
X150106188Y-98103482D01*
X150117931Y-98129196D01*
X150157454Y-98250836D01*
X150222437Y-98378371D01*
X150243240Y-98419199D01*
X150354310Y-98572073D01*
X150487927Y-98705690D01*
X150640801Y-98816760D01*
X150720347Y-98857290D01*
X150809163Y-98902545D01*
X150809165Y-98902545D01*
X150809168Y-98902547D01*
X150900079Y-98932086D01*
X150988881Y-98960940D01*
X151175514Y-98990500D01*
X151175519Y-98990500D01*
X151364486Y-98990500D01*
X151551118Y-98960940D01*
X151612283Y-98941066D01*
X151730832Y-98902547D01*
X151899199Y-98816760D01*
X152052073Y-98705690D01*
X152185690Y-98572073D01*
X152296760Y-98419199D01*
X152382547Y-98250832D01*
X152422069Y-98129195D01*
X152461507Y-98071521D01*
X152525866Y-98044323D01*
X152594712Y-98056238D01*
X152646188Y-98103482D01*
X152657931Y-98129196D01*
X152697454Y-98250836D01*
X152762437Y-98378371D01*
X152783240Y-98419199D01*
X152894310Y-98572073D01*
X153027927Y-98705690D01*
X153180801Y-98816760D01*
X153260347Y-98857290D01*
X153349163Y-98902545D01*
X153349165Y-98902545D01*
X153349168Y-98902547D01*
X153440079Y-98932086D01*
X153528881Y-98960940D01*
X153715514Y-98990500D01*
X153715519Y-98990500D01*
X153904486Y-98990500D01*
X154091118Y-98960940D01*
X154152283Y-98941066D01*
X154270832Y-98902547D01*
X154439199Y-98816760D01*
X154592073Y-98705690D01*
X154725690Y-98572073D01*
X154836760Y-98419199D01*
X154857563Y-98378371D01*
X154905537Y-98327574D01*
X154973358Y-98310779D01*
X155039493Y-98333316D01*
X155078533Y-98378370D01*
X155152611Y-98523756D01*
X155198932Y-98587513D01*
X155867037Y-97919408D01*
X155884075Y-97982993D01*
X155949901Y-98097007D01*
X156042993Y-98190099D01*
X156157007Y-98255925D01*
X156220590Y-98272962D01*
X155552485Y-98941065D01*
X155552485Y-98941066D01*
X155616243Y-98987388D01*
X155812589Y-99087432D01*
X156022164Y-99155526D01*
X156239819Y-99190000D01*
X156460181Y-99190000D01*
X156677835Y-99155526D01*
X156887410Y-99087432D01*
X157083760Y-98987386D01*
X157147513Y-98941066D01*
X157147514Y-98941066D01*
X156479409Y-98272962D01*
X156542993Y-98255925D01*
X156657007Y-98190099D01*
X156750099Y-98097007D01*
X156815925Y-97982993D01*
X156832962Y-97919409D01*
X157520968Y-98607415D01*
X157554453Y-98668738D01*
X157549469Y-98738430D01*
X157520967Y-98782778D01*
X157499108Y-98804635D01*
X157546648Y-98932090D01*
X157546650Y-98932094D01*
X157632809Y-99047187D01*
X157632812Y-99047190D01*
X157747906Y-99133350D01*
X157747913Y-99133354D01*
X157882620Y-99183596D01*
X157882627Y-99183598D01*
X157942155Y-99189999D01*
X157942172Y-99190000D01*
X158640000Y-99190000D01*
X158640000Y-98223012D01*
X158697007Y-98255925D01*
X158824174Y-98290000D01*
X158955826Y-98290000D01*
X159082993Y-98255925D01*
X159140000Y-98223012D01*
X159140000Y-99190000D01*
X159837828Y-99190000D01*
X159837844Y-99189999D01*
X159897372Y-99183598D01*
X159897379Y-99183596D01*
X160032086Y-99133354D01*
X160032093Y-99133350D01*
X160147187Y-99047190D01*
X160147190Y-99047187D01*
X160233350Y-98932093D01*
X160233354Y-98932086D01*
X160283596Y-98797379D01*
X160283598Y-98797372D01*
X160289999Y-98737844D01*
X160290000Y-98737827D01*
X160290000Y-98040000D01*
X159323012Y-98040000D01*
X159355925Y-97982993D01*
X159390000Y-97855826D01*
X159390000Y-97724174D01*
X159355925Y-97597007D01*
X159323012Y-97540000D01*
X160290000Y-97540000D01*
X160290000Y-96842172D01*
X160289999Y-96842155D01*
X160283598Y-96782627D01*
X160283596Y-96782620D01*
X160233354Y-96647913D01*
X160233350Y-96647906D01*
X160147190Y-96532812D01*
X160147187Y-96532809D01*
X160032093Y-96446649D01*
X160032086Y-96446645D01*
X159902725Y-96398397D01*
X159902723Y-96398395D01*
X159897383Y-96396404D01*
X159897372Y-96396401D01*
X159837844Y-96390000D01*
X159140000Y-96390000D01*
X159140000Y-97356988D01*
X159082993Y-97324075D01*
X158955826Y-97290000D01*
X158824174Y-97290000D01*
X158697007Y-97324075D01*
X158640000Y-97356988D01*
X158640000Y-96390000D01*
X157942155Y-96390000D01*
X157882627Y-96396401D01*
X157882620Y-96396403D01*
X157747913Y-96446645D01*
X157747906Y-96446649D01*
X157632813Y-96532809D01*
X157546645Y-96647914D01*
X157546644Y-96647916D01*
X157499108Y-96775362D01*
X157520967Y-96797221D01*
X157554453Y-96858544D01*
X157549469Y-96928235D01*
X157520968Y-96972584D01*
X156832962Y-97660589D01*
X156815925Y-97597007D01*
X156750099Y-97482993D01*
X156657007Y-97389901D01*
X156542993Y-97324075D01*
X156479407Y-97307037D01*
X157147513Y-96638932D01*
X157083756Y-96592611D01*
X156887410Y-96492567D01*
X156677835Y-96424473D01*
X156460181Y-96390000D01*
X156239819Y-96390000D01*
X156022164Y-96424473D01*
X155812589Y-96492567D01*
X155616233Y-96592616D01*
X155552485Y-96638931D01*
X155552485Y-96638932D01*
X156220590Y-97307037D01*
X156157007Y-97324075D01*
X156042993Y-97389901D01*
X155949901Y-97482993D01*
X155884075Y-97597007D01*
X155867037Y-97660590D01*
X155198932Y-96992485D01*
X155198931Y-96992485D01*
X155152616Y-97056234D01*
X155152614Y-97056237D01*
X155078532Y-97201630D01*
X155030558Y-97252425D01*
X154962737Y-97269220D01*
X154896602Y-97246682D01*
X154857563Y-97201629D01*
X154836759Y-97160800D01*
X154725690Y-97007927D01*
X154592073Y-96874310D01*
X154471226Y-96786509D01*
X154471224Y-96786507D01*
X154439202Y-96763242D01*
X154439201Y-96763241D01*
X154439199Y-96763240D01*
X154386620Y-96736450D01*
X154270836Y-96677454D01*
X154091118Y-96619059D01*
X153904486Y-96589500D01*
X153904481Y-96589500D01*
X153715519Y-96589500D01*
X153715514Y-96589500D01*
X153528881Y-96619059D01*
X153349163Y-96677454D01*
X153180800Y-96763240D01*
X153134030Y-96797221D01*
X153027927Y-96874310D01*
X153027925Y-96874312D01*
X153027924Y-96874312D01*
X152894312Y-97007924D01*
X152894312Y-97007925D01*
X152894310Y-97007927D01*
X152859213Y-97056234D01*
X152783240Y-97160800D01*
X152697454Y-97329163D01*
X152657931Y-97450803D01*
X152618493Y-97508478D01*
X152554134Y-97535676D01*
X152485288Y-97523761D01*
X152433812Y-97476516D01*
X152422069Y-97450803D01*
X152382545Y-97329163D01*
X152296759Y-97160800D01*
X152185690Y-97007927D01*
X152052073Y-96874310D01*
X151899199Y-96763240D01*
X151763204Y-96693947D01*
X151712409Y-96645974D01*
X151695500Y-96583463D01*
X151695500Y-95437610D01*
X151715185Y-95370571D01*
X151731819Y-95349929D01*
X151934066Y-95147682D01*
X171550000Y-95147682D01*
X171550000Y-95352317D01*
X171582009Y-95554417D01*
X171645244Y-95749031D01*
X171738141Y-95931350D01*
X171738147Y-95931359D01*
X171770523Y-95975921D01*
X171770524Y-95975922D01*
X172450000Y-95296446D01*
X172450000Y-95302661D01*
X172477259Y-95404394D01*
X172529920Y-95495606D01*
X172604394Y-95570080D01*
X172695606Y-95622741D01*
X172797339Y-95650000D01*
X172803553Y-95650000D01*
X172124076Y-96329474D01*
X172168650Y-96361859D01*
X172350968Y-96454755D01*
X172545582Y-96517990D01*
X172747683Y-96550000D01*
X172952317Y-96550000D01*
X173154417Y-96517990D01*
X173349031Y-96454755D01*
X173531349Y-96361859D01*
X173575921Y-96329474D01*
X172896447Y-95650000D01*
X172902661Y-95650000D01*
X173004394Y-95622741D01*
X173095606Y-95570080D01*
X173170080Y-95495606D01*
X173222741Y-95404394D01*
X173250000Y-95302661D01*
X173250000Y-95296448D01*
X173929474Y-95975922D01*
X173929474Y-95975921D01*
X173961859Y-95931349D01*
X174054755Y-95749031D01*
X174117990Y-95554417D01*
X174150000Y-95352317D01*
X174150000Y-95147682D01*
X174117990Y-94945582D01*
X174054755Y-94750968D01*
X173961859Y-94568650D01*
X173929474Y-94524077D01*
X173929474Y-94524076D01*
X173250000Y-95203551D01*
X173250000Y-95197339D01*
X173222741Y-95095606D01*
X173170080Y-95004394D01*
X173095606Y-94929920D01*
X173004394Y-94877259D01*
X172902661Y-94850000D01*
X172896446Y-94850000D01*
X173575922Y-94170524D01*
X173575921Y-94170523D01*
X173531359Y-94138147D01*
X173531350Y-94138141D01*
X173349031Y-94045244D01*
X173154417Y-93982009D01*
X172952317Y-93950000D01*
X172747683Y-93950000D01*
X172545582Y-93982009D01*
X172350968Y-94045244D01*
X172168644Y-94138143D01*
X172124077Y-94170523D01*
X172124077Y-94170524D01*
X172803554Y-94850000D01*
X172797339Y-94850000D01*
X172695606Y-94877259D01*
X172604394Y-94929920D01*
X172529920Y-95004394D01*
X172477259Y-95095606D01*
X172450000Y-95197339D01*
X172450000Y-95203553D01*
X171770524Y-94524077D01*
X171770523Y-94524077D01*
X171738143Y-94568644D01*
X171645244Y-94750968D01*
X171582009Y-94945582D01*
X171550000Y-95147682D01*
X151934066Y-95147682D01*
X152209929Y-94871819D01*
X152271252Y-94838334D01*
X152297610Y-94835500D01*
X170306016Y-94835500D01*
X170306018Y-94835500D01*
X170414237Y-94806503D01*
X170511263Y-94750485D01*
X171390485Y-93871263D01*
X171446503Y-93774237D01*
X171475500Y-93666018D01*
X171475500Y-93553981D01*
X171475500Y-89770421D01*
X171495185Y-89703382D01*
X171543203Y-89659937D01*
X171652994Y-89603996D01*
X171799501Y-89497553D01*
X171927553Y-89369501D01*
X172033996Y-89222994D01*
X172116211Y-89061639D01*
X172172171Y-88889409D01*
X172186422Y-88799425D01*
X172197527Y-88729321D01*
X172227456Y-88666186D01*
X172286768Y-88629255D01*
X172356630Y-88630253D01*
X172414863Y-88668863D01*
X172442473Y-88729321D01*
X172467829Y-88889410D01*
X172523787Y-89061636D01*
X172523788Y-89061639D01*
X172606006Y-89222997D01*
X172712441Y-89369494D01*
X172712445Y-89369499D01*
X172840500Y-89497554D01*
X172840505Y-89497558D01*
X172911526Y-89549157D01*
X172987006Y-89603996D01*
X173092484Y-89657740D01*
X173148360Y-89686211D01*
X173148363Y-89686212D01*
X173215145Y-89707910D01*
X173320591Y-89742171D01*
X173403429Y-89755291D01*
X173499449Y-89770500D01*
X173499454Y-89770500D01*
X173680551Y-89770500D01*
X173767259Y-89756765D01*
X173859409Y-89742171D01*
X174031639Y-89686211D01*
X174192994Y-89603996D01*
X174295809Y-89529297D01*
X174339495Y-89497558D01*
X174339497Y-89497555D01*
X174339501Y-89497553D01*
X174467553Y-89369501D01*
X174573996Y-89222994D01*
X174641090Y-89091314D01*
X174689065Y-89040519D01*
X174756886Y-89023724D01*
X174823021Y-89046262D01*
X174866472Y-89100977D01*
X174869506Y-89109292D01*
X174878904Y-89138217D01*
X174975375Y-89327550D01*
X175014728Y-89381716D01*
X175647037Y-88749408D01*
X175664075Y-88812993D01*
X175729901Y-88927007D01*
X175822993Y-89020099D01*
X175937007Y-89085925D01*
X176000590Y-89102962D01*
X175368282Y-89735269D01*
X175368282Y-89735270D01*
X175422449Y-89774624D01*
X175611782Y-89871095D01*
X175813870Y-89936757D01*
X176023754Y-89970000D01*
X176236246Y-89970000D01*
X176446127Y-89936757D01*
X176446130Y-89936757D01*
X176648217Y-89871095D01*
X176837554Y-89774622D01*
X176891716Y-89735270D01*
X176891717Y-89735270D01*
X176259408Y-89102962D01*
X176322993Y-89085925D01*
X176437007Y-89020099D01*
X176530099Y-88927007D01*
X176595925Y-88812993D01*
X176612962Y-88749408D01*
X177245270Y-89381717D01*
X177245270Y-89381716D01*
X177284622Y-89327554D01*
X177381095Y-89138217D01*
X177390492Y-89109295D01*
X177429928Y-89051618D01*
X177494286Y-89024419D01*
X177563133Y-89036331D01*
X177614610Y-89083574D01*
X177618908Y-89091314D01*
X177686004Y-89222995D01*
X177792441Y-89369494D01*
X177792445Y-89369499D01*
X177920500Y-89497554D01*
X177924212Y-89500725D01*
X177923056Y-89502077D01*
X177961049Y-89551343D01*
X177969500Y-89596336D01*
X177969500Y-94425500D01*
X177949815Y-94492539D01*
X177897011Y-94538294D01*
X177845500Y-94549500D01*
X177516804Y-94549500D01*
X177449765Y-94529815D01*
X177404010Y-94477011D01*
X177401450Y-94470990D01*
X177384362Y-94427660D01*
X177384361Y-94427658D01*
X177292922Y-94307077D01*
X177172343Y-94215639D01*
X177057936Y-94170523D01*
X177031564Y-94160123D01*
X177031563Y-94160122D01*
X177031561Y-94160122D01*
X176985926Y-94154642D01*
X176943102Y-94149500D01*
X175756898Y-94149500D01*
X175717853Y-94154188D01*
X175668438Y-94160122D01*
X175527656Y-94215639D01*
X175407077Y-94307077D01*
X175315639Y-94427656D01*
X175260122Y-94568438D01*
X175260097Y-94568650D01*
X175249500Y-94656898D01*
X175249500Y-95843102D01*
X175255126Y-95889954D01*
X175260122Y-95931561D01*
X175260122Y-95931563D01*
X175260123Y-95931564D01*
X175267659Y-95950673D01*
X175315639Y-96072343D01*
X175407077Y-96192922D01*
X175527656Y-96284360D01*
X175527657Y-96284360D01*
X175527658Y-96284361D01*
X175668436Y-96339877D01*
X175756898Y-96350500D01*
X175756903Y-96350500D01*
X176943097Y-96350500D01*
X176943102Y-96350500D01*
X177031564Y-96339877D01*
X177172342Y-96284361D01*
X177292922Y-96192922D01*
X177384361Y-96072342D01*
X177387512Y-96064350D01*
X177401450Y-96029010D01*
X177444356Y-95973866D01*
X177510264Y-95950673D01*
X177516804Y-95950500D01*
X178601007Y-95950500D01*
X178738993Y-95950500D01*
X179075501Y-95950500D01*
X179142540Y-95970185D01*
X179188295Y-96022989D01*
X179199501Y-96074500D01*
X179199501Y-96143102D01*
X179205483Y-96192922D01*
X179210123Y-96231564D01*
X179210124Y-96231568D01*
X179265637Y-96372339D01*
X179265640Y-96372345D01*
X179357076Y-96492923D01*
X179477654Y-96584359D01*
X179477657Y-96584361D01*
X179618435Y-96639877D01*
X179706897Y-96650500D01*
X181493102Y-96650499D01*
X181581565Y-96639877D01*
X181722343Y-96584361D01*
X181842923Y-96492923D01*
X181934361Y-96372343D01*
X181960146Y-96306958D01*
X182003051Y-96251814D01*
X182068959Y-96228621D01*
X182136944Y-96244742D01*
X182185420Y-96295059D01*
X182199500Y-96352448D01*
X182199500Y-105017735D01*
X182179815Y-105084774D01*
X182127011Y-105130529D01*
X182057853Y-105140473D01*
X181994297Y-105111448D01*
X181957569Y-105056053D01*
X181897896Y-104872396D01*
X181897895Y-104872393D01*
X181863237Y-104804375D01*
X181797815Y-104675978D01*
X181741375Y-104598294D01*
X181668247Y-104497641D01*
X181668243Y-104497636D01*
X181512363Y-104341756D01*
X181512358Y-104341752D01*
X181334025Y-104212187D01*
X181334024Y-104212186D01*
X181334022Y-104212185D01*
X181271096Y-104180122D01*
X181137606Y-104112104D01*
X181137603Y-104112103D01*
X180927952Y-104043985D01*
X180819086Y-104026742D01*
X180710222Y-104009500D01*
X180489778Y-104009500D01*
X180417201Y-104020995D01*
X180272047Y-104043985D01*
X180062396Y-104112103D01*
X180062393Y-104112104D01*
X179865974Y-104212187D01*
X179687641Y-104341752D01*
X179687636Y-104341756D01*
X179531752Y-104497640D01*
X179487620Y-104558385D01*
X179432291Y-104601051D01*
X179387302Y-104609500D01*
X176207628Y-104609500D01*
X176140589Y-104589815D01*
X176094834Y-104537011D01*
X176084890Y-104467853D01*
X176113915Y-104404297D01*
X176119947Y-104397819D01*
X176253443Y-104264322D01*
X176253444Y-104264321D01*
X176369095Y-104105143D01*
X176458418Y-103929835D01*
X176519221Y-103742705D01*
X176550000Y-103548382D01*
X176550000Y-103250000D01*
X175733012Y-103250000D01*
X175765925Y-103192993D01*
X175800000Y-103065826D01*
X175800000Y-102934174D01*
X175765925Y-102807007D01*
X175733012Y-102750000D01*
X176550000Y-102750000D01*
X176550000Y-102451617D01*
X176519221Y-102257294D01*
X176458418Y-102070164D01*
X176369095Y-101894856D01*
X176253444Y-101735678D01*
X176114321Y-101596555D01*
X175955143Y-101480904D01*
X175779835Y-101391581D01*
X175592705Y-101330778D01*
X175550000Y-101324014D01*
X175550000Y-102566988D01*
X175492993Y-102534075D01*
X175365826Y-102500000D01*
X175234174Y-102500000D01*
X175107007Y-102534075D01*
X175050000Y-102566988D01*
X175050000Y-101324014D01*
X175049999Y-101324014D01*
X175007294Y-101330778D01*
X174820164Y-101391581D01*
X174644856Y-101480904D01*
X174485678Y-101596555D01*
X174346555Y-101735678D01*
X174230904Y-101894856D01*
X174141581Y-102070162D01*
X174092430Y-102221434D01*
X174052992Y-102279109D01*
X173988633Y-102306307D01*
X173919787Y-102294392D01*
X173868311Y-102247148D01*
X173850499Y-102183115D01*
X173850499Y-101755143D01*
X173850499Y-101755136D01*
X173850497Y-101755117D01*
X173847586Y-101730012D01*
X173847585Y-101730010D01*
X173847585Y-101730009D01*
X173802206Y-101627235D01*
X173722765Y-101547794D01*
X173722763Y-101547793D01*
X173619992Y-101502415D01*
X173594865Y-101499500D01*
X172005143Y-101499500D01*
X172005117Y-101499502D01*
X171980012Y-101502413D01*
X171980008Y-101502415D01*
X171877235Y-101547793D01*
X171797794Y-101627234D01*
X171752415Y-101730006D01*
X171752415Y-101730008D01*
X171749500Y-101755131D01*
X171749500Y-104244856D01*
X171749502Y-104244882D01*
X171752413Y-104269987D01*
X171752415Y-104269991D01*
X171797793Y-104372764D01*
X171822848Y-104397819D01*
X171856333Y-104459142D01*
X171851349Y-104528834D01*
X171809477Y-104584767D01*
X171744013Y-104609184D01*
X171735167Y-104609500D01*
X166024500Y-104609500D01*
X165957461Y-104589815D01*
X165911706Y-104537011D01*
X165900500Y-104485500D01*
X165900500Y-103656903D01*
X165900500Y-103656898D01*
X165889877Y-103568436D01*
X165834361Y-103427658D01*
X165834360Y-103427657D01*
X165834360Y-103427656D01*
X165742922Y-103307077D01*
X165622343Y-103215639D01*
X165481561Y-103160122D01*
X165435926Y-103154642D01*
X165393102Y-103149500D01*
X164206898Y-103149500D01*
X164167853Y-103154188D01*
X164118438Y-103160122D01*
X163977656Y-103215639D01*
X163857077Y-103307077D01*
X163765639Y-103427656D01*
X163710122Y-103568438D01*
X163704188Y-103617853D01*
X163699500Y-103656898D01*
X163699500Y-103656903D01*
X163699500Y-104485500D01*
X163679815Y-104552539D01*
X163627011Y-104598294D01*
X163575500Y-104609500D01*
X159838625Y-104609500D01*
X159771586Y-104589815D01*
X159750944Y-104573181D01*
X159672075Y-104494312D01*
X159672073Y-104494310D01*
X159519199Y-104383240D01*
X159498639Y-104372764D01*
X159350836Y-104297454D01*
X159171118Y-104239059D01*
X158984486Y-104209500D01*
X158984481Y-104209500D01*
X158795519Y-104209500D01*
X158795514Y-104209500D01*
X158608881Y-104239059D01*
X158429163Y-104297454D01*
X158260800Y-104383240D01*
X158173579Y-104446610D01*
X158107927Y-104494310D01*
X158107925Y-104494312D01*
X158107924Y-104494312D01*
X158029056Y-104573181D01*
X157967733Y-104606666D01*
X157941375Y-104609500D01*
X157298625Y-104609500D01*
X157231586Y-104589815D01*
X157210944Y-104573181D01*
X157132075Y-104494312D01*
X157132073Y-104494310D01*
X156979199Y-104383240D01*
X156958639Y-104372764D01*
X156810836Y-104297454D01*
X156631118Y-104239059D01*
X156444486Y-104209500D01*
X156444481Y-104209500D01*
X156255519Y-104209500D01*
X156255514Y-104209500D01*
X156068881Y-104239059D01*
X155889163Y-104297454D01*
X155720800Y-104383240D01*
X155633579Y-104446610D01*
X155567927Y-104494310D01*
X155567925Y-104494312D01*
X155567924Y-104494312D01*
X155434312Y-104627924D01*
X155434312Y-104627925D01*
X155434310Y-104627927D01*
X155391572Y-104686750D01*
X155323240Y-104780800D01*
X155237454Y-104949163D01*
X155197931Y-105070803D01*
X155158493Y-105128478D01*
X155094134Y-105155676D01*
X155025288Y-105143761D01*
X154973812Y-105096516D01*
X154962069Y-105070803D01*
X154922545Y-104949163D01*
X154836759Y-104780800D01*
X154725690Y-104627927D01*
X154592073Y-104494310D01*
X154439199Y-104383240D01*
X154418639Y-104372764D01*
X154270836Y-104297454D01*
X154091118Y-104239059D01*
X153904486Y-104209500D01*
X153904481Y-104209500D01*
X153715519Y-104209500D01*
X153715514Y-104209500D01*
X153528881Y-104239059D01*
X153349163Y-104297454D01*
X153180800Y-104383240D01*
X153093579Y-104446610D01*
X153027927Y-104494310D01*
X153027925Y-104494312D01*
X153027924Y-104494312D01*
X152894312Y-104627924D01*
X152894312Y-104627925D01*
X152894310Y-104627927D01*
X152851572Y-104686750D01*
X152783240Y-104780800D01*
X152697454Y-104949163D01*
X152657931Y-105070803D01*
X152618493Y-105128478D01*
X152554134Y-105155676D01*
X152485288Y-105143761D01*
X152433812Y-105096516D01*
X152422069Y-105070803D01*
X152382545Y-104949163D01*
X152296759Y-104780800D01*
X152185690Y-104627927D01*
X152052073Y-104494310D01*
X151899199Y-104383240D01*
X151878639Y-104372764D01*
X151730836Y-104297454D01*
X151551118Y-104239059D01*
X151364486Y-104209500D01*
X151364481Y-104209500D01*
X151175519Y-104209500D01*
X151175514Y-104209500D01*
X150988881Y-104239059D01*
X150809163Y-104297454D01*
X150640800Y-104383240D01*
X150553579Y-104446610D01*
X150487927Y-104494310D01*
X150487925Y-104494312D01*
X150487924Y-104494312D01*
X150354312Y-104627924D01*
X150354312Y-104627925D01*
X150354310Y-104627927D01*
X150311572Y-104686750D01*
X150243240Y-104780800D01*
X150157454Y-104949163D01*
X150117931Y-105070803D01*
X150078493Y-105128478D01*
X150014134Y-105155676D01*
X149945288Y-105143761D01*
X149893812Y-105096516D01*
X149882069Y-105070803D01*
X149842545Y-104949163D01*
X149756759Y-104780800D01*
X149645690Y-104627927D01*
X149512073Y-104494310D01*
X149359199Y-104383240D01*
X149338639Y-104372764D01*
X149190836Y-104297454D01*
X149011118Y-104239059D01*
X148824486Y-104209500D01*
X148824481Y-104209500D01*
X148635519Y-104209500D01*
X148635514Y-104209500D01*
X148448881Y-104239059D01*
X148269163Y-104297454D01*
X148100800Y-104383240D01*
X148013579Y-104446610D01*
X147947927Y-104494310D01*
X147947925Y-104494312D01*
X147947924Y-104494312D01*
X147814312Y-104627924D01*
X147814312Y-104627925D01*
X147814310Y-104627927D01*
X147771572Y-104686750D01*
X147703240Y-104780800D01*
X147617454Y-104949163D01*
X147577931Y-105070803D01*
X147538493Y-105128478D01*
X147474134Y-105155676D01*
X147405288Y-105143761D01*
X147353812Y-105096516D01*
X147342069Y-105070803D01*
X147302545Y-104949163D01*
X147216759Y-104780800D01*
X147105690Y-104627927D01*
X146972073Y-104494310D01*
X146819199Y-104383240D01*
X146798639Y-104372764D01*
X146650836Y-104297454D01*
X146471118Y-104239059D01*
X146284486Y-104209500D01*
X146284481Y-104209500D01*
X146095519Y-104209500D01*
X146095514Y-104209500D01*
X145908881Y-104239059D01*
X145729163Y-104297454D01*
X145560800Y-104383240D01*
X145473579Y-104446610D01*
X145407927Y-104494310D01*
X145407925Y-104494312D01*
X145407924Y-104494312D01*
X145274312Y-104627924D01*
X145274312Y-104627925D01*
X145274310Y-104627927D01*
X145163241Y-104780800D01*
X145163240Y-104780801D01*
X145142435Y-104821631D01*
X145094459Y-104872426D01*
X145026638Y-104889220D01*
X144960503Y-104866681D01*
X144921466Y-104821629D01*
X144847388Y-104676243D01*
X144801066Y-104612485D01*
X144801065Y-104612485D01*
X144132962Y-105280590D01*
X144115925Y-105217007D01*
X144050099Y-105102993D01*
X143957007Y-105009901D01*
X143842993Y-104944075D01*
X143779407Y-104927037D01*
X144447513Y-104258932D01*
X144383756Y-104212611D01*
X144187410Y-104112567D01*
X143977835Y-104044473D01*
X143760181Y-104010000D01*
X143539819Y-104010000D01*
X143322164Y-104044473D01*
X143112589Y-104112567D01*
X142916233Y-104212616D01*
X142852485Y-104258931D01*
X142852485Y-104258932D01*
X143520590Y-104927037D01*
X143457007Y-104944075D01*
X143342993Y-105009901D01*
X143249901Y-105102993D01*
X143184075Y-105217007D01*
X143167037Y-105280590D01*
X142498932Y-104612485D01*
X142498930Y-104612485D01*
X142480317Y-104638105D01*
X142424988Y-104680771D01*
X142355374Y-104686750D01*
X142293579Y-104654145D01*
X142279681Y-104638105D01*
X142261067Y-104612485D01*
X142261065Y-104612485D01*
X141592962Y-105280589D01*
X141575925Y-105217007D01*
X141510099Y-105102993D01*
X141417007Y-105009901D01*
X141302993Y-104944075D01*
X141239407Y-104927037D01*
X141907513Y-104258932D01*
X141843756Y-104212611D01*
X141647410Y-104112567D01*
X141437835Y-104044473D01*
X141220181Y-104010000D01*
X140999819Y-104010000D01*
X140782164Y-104044473D01*
X140572589Y-104112567D01*
X140376233Y-104212616D01*
X140312485Y-104258931D01*
X140312485Y-104258932D01*
X140980590Y-104927037D01*
X140917007Y-104944075D01*
X140802993Y-105009901D01*
X140709901Y-105102993D01*
X140644075Y-105217007D01*
X140627037Y-105280590D01*
X139958932Y-104612485D01*
X139958931Y-104612485D01*
X139912616Y-104676233D01*
X139812567Y-104872589D01*
X139744473Y-105082164D01*
X139710000Y-105299818D01*
X139710000Y-105520181D01*
X139744473Y-105737835D01*
X139812567Y-105947410D01*
X139912611Y-106143756D01*
X139958932Y-106207513D01*
X140627037Y-105539408D01*
X140644075Y-105602993D01*
X140709901Y-105717007D01*
X140802993Y-105810099D01*
X140917007Y-105875925D01*
X140980590Y-105892962D01*
X140312485Y-106561065D01*
X140312485Y-106561066D01*
X140376243Y-106607388D01*
X140572589Y-106707432D01*
X140782164Y-106775526D01*
X140999819Y-106810000D01*
X141220181Y-106810000D01*
X141437835Y-106775526D01*
X141647410Y-106707432D01*
X141843760Y-106607386D01*
X141907513Y-106561066D01*
X141907514Y-106561066D01*
X141239409Y-105892962D01*
X141302993Y-105875925D01*
X141417007Y-105810099D01*
X141510099Y-105717007D01*
X141575925Y-105602993D01*
X141592962Y-105539409D01*
X142261065Y-106207513D01*
X142279680Y-106181893D01*
X142335010Y-106139227D01*
X142404623Y-106133248D01*
X142466419Y-106165853D01*
X142480317Y-106181893D01*
X142498931Y-106207513D01*
X142498932Y-106207513D01*
X143167037Y-105539408D01*
X143184075Y-105602993D01*
X143249901Y-105717007D01*
X143342993Y-105810099D01*
X143457007Y-105875925D01*
X143520590Y-105892962D01*
X142852485Y-106561065D01*
X142852485Y-106561066D01*
X142916243Y-106607388D01*
X143112589Y-106707432D01*
X143322159Y-106775525D01*
X143401406Y-106788076D01*
X143464541Y-106818005D01*
X143501473Y-106877317D01*
X143500475Y-106947179D01*
X143469690Y-106998231D01*
X143249740Y-107218181D01*
X143188417Y-107251666D01*
X143181457Y-107252973D01*
X143032302Y-107276597D01*
X142867552Y-107330128D01*
X142713211Y-107408768D01*
X142633256Y-107466859D01*
X142573072Y-107510586D01*
X142573070Y-107510588D01*
X142573069Y-107510588D01*
X142450588Y-107633069D01*
X142450588Y-107633070D01*
X142450586Y-107633072D01*
X142406859Y-107693256D01*
X142348768Y-107773211D01*
X142270128Y-107927552D01*
X142216597Y-108092302D01*
X142192973Y-108241457D01*
X142163044Y-108304592D01*
X142158181Y-108309740D01*
X140453043Y-110014878D01*
X140391720Y-110048363D01*
X140384760Y-110049670D01*
X140160338Y-110085215D01*
X139943195Y-110155770D01*
X139739770Y-110259421D01*
X139555060Y-110393622D01*
X139393621Y-110555061D01*
X139259420Y-110739771D01*
X139155769Y-110943196D01*
X139085214Y-111160339D01*
X139049499Y-111385837D01*
X139049499Y-111614162D01*
X139085214Y-111839660D01*
X139155769Y-112056803D01*
X139259420Y-112260228D01*
X139393620Y-112444937D01*
X139555062Y-112606379D01*
X139739771Y-112740579D01*
X139835883Y-112789550D01*
X139943195Y-112844229D01*
X139943197Y-112844229D01*
X139943200Y-112844231D01*
X140059591Y-112882049D01*
X140160338Y-112914784D01*
X140385837Y-112950500D01*
X140385842Y-112950500D01*
X140614161Y-112950500D01*
X140839659Y-112914784D01*
X140878373Y-112902205D01*
X141056798Y-112844231D01*
X141260227Y-112740579D01*
X141444936Y-112606379D01*
X141606378Y-112444937D01*
X141740578Y-112260228D01*
X141844230Y-112056799D01*
X141914783Y-111839660D01*
X141946689Y-111638214D01*
X141950499Y-111614162D01*
X141950499Y-111385837D01*
X141914783Y-111160339D01*
X141891277Y-111087998D01*
X141854135Y-110973688D01*
X141852141Y-110903849D01*
X141884384Y-110847692D01*
X143245259Y-109486819D01*
X143306582Y-109453334D01*
X143332940Y-109450500D01*
X143376610Y-109450500D01*
X143376611Y-109450500D01*
X143547701Y-109423402D01*
X143712445Y-109369873D01*
X143866788Y-109291232D01*
X144006928Y-109189414D01*
X144129414Y-109066928D01*
X144231232Y-108926788D01*
X144309873Y-108772445D01*
X144363402Y-108607701D01*
X144390500Y-108436611D01*
X144390500Y-108392939D01*
X144410185Y-108325900D01*
X144426815Y-108305262D01*
X144477820Y-108254257D01*
X144539142Y-108220773D01*
X144608834Y-108225757D01*
X144664767Y-108267629D01*
X144689184Y-108333093D01*
X144689500Y-108341939D01*
X144689500Y-108436610D01*
X144716597Y-108607697D01*
X144771633Y-108777079D01*
X144771051Y-108777267D01*
X144779499Y-108819735D01*
X144779499Y-109925500D01*
X144759814Y-109992539D01*
X144707010Y-110038294D01*
X144655499Y-110049500D01*
X144385142Y-110049500D01*
X144385116Y-110049502D01*
X144360011Y-110052413D01*
X144360007Y-110052415D01*
X144257234Y-110097793D01*
X144177793Y-110177234D01*
X144132414Y-110280006D01*
X144132414Y-110280008D01*
X144129499Y-110305131D01*
X144129499Y-112694856D01*
X144129501Y-112694882D01*
X144132412Y-112719987D01*
X144132414Y-112719991D01*
X144177792Y-112822764D01*
X144177793Y-112822765D01*
X144257234Y-112902206D01*
X144360008Y-112947585D01*
X144385134Y-112950500D01*
X146774863Y-112950499D01*
X146774878Y-112950497D01*
X146774881Y-112950497D01*
X146799986Y-112947586D01*
X146799987Y-112947585D01*
X146799990Y-112947585D01*
X146902764Y-112902206D01*
X146982205Y-112822765D01*
X147027584Y-112719991D01*
X147030499Y-112694865D01*
X147030498Y-110305136D01*
X147028590Y-110288680D01*
X147027585Y-110280012D01*
X147027584Y-110280010D01*
X147027584Y-110280009D01*
X146982205Y-110177235D01*
X146902764Y-110097794D01*
X146902762Y-110097793D01*
X146799991Y-110052415D01*
X146774867Y-110049500D01*
X146774864Y-110049500D01*
X146504499Y-110049500D01*
X146437460Y-110029815D01*
X146391705Y-109977011D01*
X146380499Y-109925500D01*
X146380499Y-109344450D01*
X146400184Y-109277411D01*
X146431608Y-109244136D01*
X146506928Y-109189414D01*
X146629414Y-109066928D01*
X146731232Y-108926788D01*
X146809873Y-108772445D01*
X146863402Y-108607701D01*
X146890500Y-108436611D01*
X146890500Y-108432938D01*
X146910185Y-108365899D01*
X146926819Y-108345257D01*
X147344522Y-107927555D01*
X148625259Y-106646819D01*
X148686582Y-106613334D01*
X148712940Y-106610500D01*
X148824486Y-106610500D01*
X149011118Y-106580940D01*
X149072283Y-106561066D01*
X149190832Y-106522547D01*
X149359199Y-106436760D01*
X149512073Y-106325690D01*
X149645690Y-106192073D01*
X149756760Y-106039199D01*
X149842547Y-105870832D01*
X149882069Y-105749195D01*
X149921507Y-105691521D01*
X149985866Y-105664323D01*
X150054712Y-105676238D01*
X150106188Y-105723482D01*
X150117931Y-105749196D01*
X150157454Y-105870836D01*
X150196471Y-105947410D01*
X150243240Y-106039199D01*
X150354310Y-106192073D01*
X150487927Y-106325690D01*
X150640801Y-106436760D01*
X150720347Y-106477290D01*
X150809163Y-106522545D01*
X150809165Y-106522545D01*
X150809168Y-106522547D01*
X150905497Y-106553846D01*
X150988881Y-106580940D01*
X151175514Y-106610500D01*
X151175519Y-106610500D01*
X151287060Y-106610500D01*
X151354099Y-106630185D01*
X151374741Y-106646819D01*
X153118181Y-108390258D01*
X153151666Y-108451581D01*
X153152973Y-108458541D01*
X153176598Y-108607701D01*
X153230127Y-108772445D01*
X153308768Y-108926788D01*
X153410586Y-109066928D01*
X153533072Y-109189414D01*
X153568384Y-109215069D01*
X153611050Y-109270397D01*
X153619500Y-109315388D01*
X153619500Y-110225499D01*
X153599815Y-110292538D01*
X153568386Y-110325816D01*
X153475069Y-110393616D01*
X153475060Y-110393623D01*
X153313622Y-110555061D01*
X153179421Y-110739771D01*
X153075770Y-110943196D01*
X153005215Y-111160339D01*
X152969500Y-111385837D01*
X152969500Y-111614162D01*
X153005215Y-111839660D01*
X153075770Y-112056803D01*
X153179421Y-112260228D01*
X153313621Y-112444937D01*
X153475063Y-112606379D01*
X153659772Y-112740579D01*
X153755884Y-112789550D01*
X153863196Y-112844229D01*
X153863198Y-112844229D01*
X153863201Y-112844231D01*
X153979592Y-112882049D01*
X154080339Y-112914784D01*
X154305838Y-112950500D01*
X154305843Y-112950500D01*
X154534162Y-112950500D01*
X154759660Y-112914784D01*
X154798374Y-112902205D01*
X154976799Y-112844231D01*
X155180228Y-112740579D01*
X155364937Y-112606379D01*
X155526379Y-112444937D01*
X155660579Y-112260228D01*
X155764231Y-112056799D01*
X155834784Y-111839660D01*
X155866690Y-111638214D01*
X155870500Y-111614162D01*
X155870500Y-111385837D01*
X155834784Y-111160339D01*
X155802049Y-111059592D01*
X155764231Y-110943201D01*
X155764229Y-110943198D01*
X155764229Y-110943196D01*
X155681880Y-110781578D01*
X155660579Y-110739772D01*
X155526379Y-110555063D01*
X155364937Y-110393621D01*
X155357426Y-110388164D01*
X155271614Y-110325816D01*
X155228948Y-110270486D01*
X155220500Y-110225499D01*
X155220500Y-108899115D01*
X155234015Y-108842820D01*
X155269873Y-108772445D01*
X155323402Y-108607701D01*
X155350500Y-108436611D01*
X155350500Y-108381940D01*
X155370185Y-108314901D01*
X155422989Y-108269146D01*
X155492147Y-108259202D01*
X155555703Y-108288227D01*
X155562181Y-108294259D01*
X155613181Y-108345259D01*
X155646666Y-108406582D01*
X155649500Y-108432938D01*
X155649500Y-108436611D01*
X155676598Y-108607701D01*
X155730127Y-108772445D01*
X155808768Y-108926788D01*
X155910586Y-109066928D01*
X156033072Y-109189414D01*
X156173212Y-109291232D01*
X156327555Y-109369873D01*
X156492299Y-109423402D01*
X156663389Y-109450500D01*
X156667060Y-109450500D01*
X156734099Y-109470185D01*
X156754741Y-109486819D01*
X158013181Y-110745259D01*
X158046666Y-110806582D01*
X158049500Y-110832940D01*
X158049500Y-112694856D01*
X158049502Y-112694882D01*
X158052413Y-112719987D01*
X158052415Y-112719991D01*
X158097793Y-112822764D01*
X158097794Y-112822765D01*
X158177235Y-112902206D01*
X158280009Y-112947585D01*
X158305135Y-112950500D01*
X160694864Y-112950499D01*
X160694879Y-112950497D01*
X160694882Y-112950497D01*
X160719987Y-112947586D01*
X160719988Y-112947585D01*
X160719991Y-112947585D01*
X160822765Y-112902206D01*
X160902206Y-112822765D01*
X160947585Y-112719991D01*
X160950500Y-112694865D01*
X160950499Y-111878711D01*
X168149500Y-111878711D01*
X168149500Y-112121288D01*
X168181161Y-112361785D01*
X168243947Y-112596104D01*
X168303791Y-112740579D01*
X168336776Y-112820212D01*
X168458064Y-113030289D01*
X168458066Y-113030292D01*
X168458067Y-113030293D01*
X168605733Y-113222736D01*
X168605739Y-113222743D01*
X168777256Y-113394260D01*
X168777262Y-113394265D01*
X168969711Y-113541936D01*
X169179788Y-113663224D01*
X169403900Y-113756054D01*
X169638211Y-113818838D01*
X169818586Y-113842584D01*
X169878711Y-113850500D01*
X169878712Y-113850500D01*
X170121289Y-113850500D01*
X170169388Y-113844167D01*
X170361789Y-113818838D01*
X170596100Y-113756054D01*
X170820212Y-113663224D01*
X171030289Y-113541936D01*
X171222738Y-113394265D01*
X171394265Y-113222738D01*
X171541936Y-113030289D01*
X171663224Y-112820212D01*
X171756054Y-112596100D01*
X171818838Y-112361789D01*
X171850500Y-112121288D01*
X171850500Y-111878712D01*
X171818838Y-111638211D01*
X171756054Y-111403900D01*
X171663224Y-111179788D01*
X171541936Y-110969711D01*
X171394265Y-110777262D01*
X171394260Y-110777256D01*
X171222743Y-110605739D01*
X171222736Y-110605733D01*
X171030293Y-110458067D01*
X171030292Y-110458066D01*
X171030289Y-110458064D01*
X170820212Y-110336776D01*
X170820205Y-110336773D01*
X170596104Y-110243947D01*
X170361785Y-110181161D01*
X170121289Y-110149500D01*
X170121288Y-110149500D01*
X169878712Y-110149500D01*
X169878711Y-110149500D01*
X169638214Y-110181161D01*
X169403895Y-110243947D01*
X169179794Y-110336773D01*
X169179785Y-110336777D01*
X168969706Y-110458067D01*
X168777263Y-110605733D01*
X168777256Y-110605739D01*
X168605739Y-110777256D01*
X168605733Y-110777263D01*
X168458067Y-110969706D01*
X168336777Y-111179785D01*
X168336773Y-111179794D01*
X168243947Y-111403895D01*
X168181161Y-111638214D01*
X168149500Y-111878711D01*
X160950499Y-111878711D01*
X160950499Y-111403900D01*
X160950499Y-110305143D01*
X160950499Y-110305136D01*
X160948591Y-110288680D01*
X160947586Y-110280012D01*
X160947585Y-110280010D01*
X160947585Y-110280009D01*
X160902206Y-110177235D01*
X160822765Y-110097794D01*
X160822763Y-110097793D01*
X160719992Y-110052415D01*
X160694868Y-110049500D01*
X160694865Y-110049500D01*
X159632940Y-110049500D01*
X159565901Y-110029815D01*
X159545259Y-110013181D01*
X157886819Y-108354741D01*
X157853334Y-108293418D01*
X157850500Y-108267060D01*
X157850500Y-108263389D01*
X157823402Y-108092302D01*
X157823402Y-108092299D01*
X157769873Y-107927555D01*
X157691232Y-107773212D01*
X157589414Y-107633072D01*
X157466928Y-107510586D01*
X157326788Y-107408768D01*
X157172445Y-107330127D01*
X157007701Y-107276598D01*
X157007699Y-107276597D01*
X157007698Y-107276597D01*
X156876271Y-107255781D01*
X156836611Y-107249500D01*
X156836610Y-107249500D01*
X156832940Y-107249500D01*
X156765901Y-107229815D01*
X156745259Y-107213181D01*
X156354259Y-106822181D01*
X156320774Y-106760858D01*
X156325758Y-106691166D01*
X156367630Y-106635233D01*
X156433094Y-106610816D01*
X156441940Y-106610500D01*
X156444486Y-106610500D01*
X156631118Y-106580940D01*
X156692283Y-106561066D01*
X156810832Y-106522547D01*
X156979199Y-106436760D01*
X157132073Y-106325690D01*
X157210944Y-106246819D01*
X157272267Y-106213334D01*
X157298625Y-106210500D01*
X157941375Y-106210500D01*
X158008414Y-106230185D01*
X158029056Y-106246819D01*
X158107927Y-106325690D01*
X158260801Y-106436760D01*
X158340347Y-106477290D01*
X158429163Y-106522545D01*
X158429165Y-106522545D01*
X158429168Y-106522547D01*
X158525497Y-106553846D01*
X158608881Y-106580940D01*
X158795514Y-106610500D01*
X158795519Y-106610500D01*
X158984486Y-106610500D01*
X159171118Y-106580940D01*
X159232283Y-106561066D01*
X159350832Y-106522547D01*
X159519199Y-106436760D01*
X159672073Y-106325690D01*
X159750944Y-106246819D01*
X159812267Y-106213334D01*
X159838625Y-106210500D01*
X164721158Y-106210500D01*
X164878842Y-106210500D01*
X172721158Y-106210500D01*
X172878842Y-106210500D01*
X179387302Y-106210500D01*
X179454341Y-106230185D01*
X179487620Y-106261615D01*
X179531752Y-106322359D01*
X179687636Y-106478243D01*
X179687641Y-106478247D01*
X179840418Y-106589245D01*
X179865978Y-106607815D01*
X179994375Y-106673237D01*
X180062393Y-106707895D01*
X180062396Y-106707896D01*
X180167221Y-106741955D01*
X180272049Y-106776015D01*
X180489778Y-106810500D01*
X180489779Y-106810500D01*
X180710221Y-106810500D01*
X180710222Y-106810500D01*
X180927951Y-106776015D01*
X181137606Y-106707895D01*
X181334022Y-106607815D01*
X181512365Y-106478242D01*
X181668242Y-106322365D01*
X181797815Y-106144022D01*
X181897895Y-105947606D01*
X181957569Y-105763947D01*
X181997006Y-105706271D01*
X182061364Y-105679072D01*
X182130211Y-105690986D01*
X182181687Y-105738230D01*
X182199500Y-105802264D01*
X182199500Y-147995572D01*
X182199184Y-148004419D01*
X182182833Y-148233019D01*
X182180315Y-148250530D01*
X182132544Y-148470133D01*
X182127560Y-148487109D01*
X182049016Y-148697691D01*
X182041666Y-148713783D01*
X181933961Y-148911032D01*
X181924396Y-148925917D01*
X181789708Y-149105838D01*
X181778122Y-149119208D01*
X181619208Y-149278122D01*
X181605838Y-149289708D01*
X181425917Y-149424396D01*
X181411032Y-149433961D01*
X181213783Y-149541666D01*
X181197691Y-149549016D01*
X180987109Y-149627560D01*
X180970133Y-149632544D01*
X180750530Y-149680315D01*
X180733019Y-149682833D01*
X180525320Y-149697688D01*
X180504417Y-149699184D01*
X180495572Y-149699500D01*
X119504428Y-149699500D01*
X119495582Y-149699184D01*
X119266982Y-149682834D01*
X119249470Y-149680316D01*
X119029862Y-149632543D01*
X119012887Y-149627559D01*
X118802311Y-149549019D01*
X118786217Y-149541669D01*
X118588963Y-149433959D01*
X118574080Y-149424394D01*
X118394163Y-149289710D01*
X118380792Y-149278124D01*
X118221875Y-149119207D01*
X118210289Y-149105836D01*
X118075605Y-148925919D01*
X118066040Y-148911036D01*
X117958330Y-148713782D01*
X117950983Y-148697694D01*
X117872437Y-148487103D01*
X117867458Y-148470144D01*
X117819683Y-148250529D01*
X117817165Y-148233017D01*
X117800816Y-148004418D01*
X117800500Y-147995572D01*
X117800500Y-145878711D01*
X128149500Y-145878711D01*
X128149500Y-146121288D01*
X128181161Y-146361785D01*
X128243947Y-146596104D01*
X128336773Y-146820205D01*
X128336776Y-146820212D01*
X128458064Y-147030289D01*
X128458066Y-147030292D01*
X128458067Y-147030293D01*
X128605733Y-147222736D01*
X128605739Y-147222743D01*
X128777256Y-147394260D01*
X128777262Y-147394265D01*
X128969711Y-147541936D01*
X129179788Y-147663224D01*
X129403900Y-147756054D01*
X129638211Y-147818838D01*
X129818586Y-147842584D01*
X129878711Y-147850500D01*
X129878712Y-147850500D01*
X130121289Y-147850500D01*
X130169388Y-147844167D01*
X130361789Y-147818838D01*
X130596100Y-147756054D01*
X130820212Y-147663224D01*
X131030289Y-147541936D01*
X131222738Y-147394265D01*
X131394265Y-147222738D01*
X131541936Y-147030289D01*
X131663224Y-146820212D01*
X131756054Y-146596100D01*
X131818838Y-146361789D01*
X131850500Y-146121288D01*
X131850500Y-145878712D01*
X131850500Y-145878711D01*
X168149500Y-145878711D01*
X168149500Y-146121288D01*
X168181161Y-146361785D01*
X168243947Y-146596104D01*
X168336773Y-146820205D01*
X168336776Y-146820212D01*
X168458064Y-147030289D01*
X168458066Y-147030292D01*
X168458067Y-147030293D01*
X168605733Y-147222736D01*
X168605739Y-147222743D01*
X168777256Y-147394260D01*
X168777262Y-147394265D01*
X168969711Y-147541936D01*
X169179788Y-147663224D01*
X169403900Y-147756054D01*
X169638211Y-147818838D01*
X169818586Y-147842584D01*
X169878711Y-147850500D01*
X169878712Y-147850500D01*
X170121289Y-147850500D01*
X170169388Y-147844167D01*
X170361789Y-147818838D01*
X170596100Y-147756054D01*
X170820212Y-147663224D01*
X171030289Y-147541936D01*
X171222738Y-147394265D01*
X171394265Y-147222738D01*
X171541936Y-147030289D01*
X171663224Y-146820212D01*
X171756054Y-146596100D01*
X171818838Y-146361789D01*
X171850500Y-146121288D01*
X171850500Y-145878712D01*
X171818838Y-145638211D01*
X171756054Y-145403900D01*
X171663224Y-145179788D01*
X171541936Y-144969711D01*
X171394265Y-144777262D01*
X171394260Y-144777256D01*
X171222743Y-144605739D01*
X171222736Y-144605733D01*
X171030293Y-144458067D01*
X171030292Y-144458066D01*
X171030289Y-144458064D01*
X170820212Y-144336776D01*
X170820205Y-144336773D01*
X170596104Y-144243947D01*
X170361785Y-144181161D01*
X170121289Y-144149500D01*
X170121288Y-144149500D01*
X169878712Y-144149500D01*
X169878711Y-144149500D01*
X169638214Y-144181161D01*
X169403895Y-144243947D01*
X169179794Y-144336773D01*
X169179785Y-144336777D01*
X168969706Y-144458067D01*
X168777263Y-144605733D01*
X168777256Y-144605739D01*
X168605739Y-144777256D01*
X168605733Y-144777263D01*
X168458067Y-144969706D01*
X168336777Y-145179785D01*
X168336773Y-145179794D01*
X168243947Y-145403895D01*
X168181161Y-145638214D01*
X168149500Y-145878711D01*
X131850500Y-145878711D01*
X131818838Y-145638211D01*
X131756054Y-145403900D01*
X131663224Y-145179788D01*
X131541936Y-144969711D01*
X131394265Y-144777262D01*
X131394260Y-144777256D01*
X131222743Y-144605739D01*
X131222736Y-144605733D01*
X131030293Y-144458067D01*
X131030292Y-144458066D01*
X131030289Y-144458064D01*
X130820212Y-144336776D01*
X130820205Y-144336773D01*
X130596104Y-144243947D01*
X130361785Y-144181161D01*
X130121289Y-144149500D01*
X130121288Y-144149500D01*
X129878712Y-144149500D01*
X129878711Y-144149500D01*
X129638214Y-144181161D01*
X129403895Y-144243947D01*
X129179794Y-144336773D01*
X129179785Y-144336777D01*
X128969706Y-144458067D01*
X128777263Y-144605733D01*
X128777256Y-144605739D01*
X128605739Y-144777256D01*
X128605733Y-144777263D01*
X128458067Y-144969706D01*
X128336777Y-145179785D01*
X128336773Y-145179794D01*
X128243947Y-145403895D01*
X128181161Y-145638214D01*
X128149500Y-145878711D01*
X117800500Y-145878711D01*
X117800500Y-114813389D01*
X139399499Y-114813389D01*
X139399499Y-114986611D01*
X139426597Y-115157701D01*
X139480126Y-115322445D01*
X139558767Y-115476788D01*
X139660585Y-115616928D01*
X139783071Y-115739414D01*
X139923211Y-115841232D01*
X140077554Y-115919873D01*
X140242298Y-115973402D01*
X140413388Y-116000500D01*
X140413389Y-116000500D01*
X140586609Y-116000500D01*
X140586610Y-116000500D01*
X140757700Y-115973402D01*
X140922444Y-115919873D01*
X141076787Y-115841232D01*
X141216927Y-115739414D01*
X141339413Y-115616928D01*
X141441231Y-115476788D01*
X141519872Y-115322445D01*
X141573401Y-115157701D01*
X141600499Y-114986611D01*
X141600499Y-114813389D01*
X144479499Y-114813389D01*
X144479499Y-114986611D01*
X144506597Y-115157701D01*
X144560126Y-115322445D01*
X144638767Y-115476788D01*
X144740585Y-115616928D01*
X144863071Y-115739414D01*
X145003211Y-115841232D01*
X145157554Y-115919873D01*
X145322298Y-115973402D01*
X145493388Y-116000500D01*
X145493389Y-116000500D01*
X145666609Y-116000500D01*
X145666610Y-116000500D01*
X145837700Y-115973402D01*
X146002444Y-115919873D01*
X146156787Y-115841232D01*
X146296927Y-115739414D01*
X146419413Y-115616928D01*
X146521231Y-115476788D01*
X146599872Y-115322445D01*
X146653401Y-115157701D01*
X146680499Y-114986611D01*
X146680499Y-114813389D01*
X153319500Y-114813389D01*
X153319500Y-114986611D01*
X153346598Y-115157701D01*
X153400127Y-115322445D01*
X153478768Y-115476788D01*
X153580586Y-115616928D01*
X153703072Y-115739414D01*
X153843212Y-115841232D01*
X153997555Y-115919873D01*
X154162299Y-115973402D01*
X154333389Y-116000500D01*
X154333390Y-116000500D01*
X154506610Y-116000500D01*
X154506611Y-116000500D01*
X154677701Y-115973402D01*
X154842445Y-115919873D01*
X154996788Y-115841232D01*
X155136928Y-115739414D01*
X155259414Y-115616928D01*
X155361232Y-115476788D01*
X155439873Y-115322445D01*
X155493402Y-115157701D01*
X155520500Y-114986611D01*
X155520500Y-114813389D01*
X158399500Y-114813389D01*
X158399500Y-114986611D01*
X158426598Y-115157701D01*
X158480127Y-115322445D01*
X158558768Y-115476788D01*
X158660586Y-115616928D01*
X158783072Y-115739414D01*
X158923212Y-115841232D01*
X159077555Y-115919873D01*
X159242299Y-115973402D01*
X159413389Y-116000500D01*
X159413390Y-116000500D01*
X159586610Y-116000500D01*
X159586611Y-116000500D01*
X159757701Y-115973402D01*
X159922445Y-115919873D01*
X160076788Y-115841232D01*
X160216928Y-115739414D01*
X160339414Y-115616928D01*
X160441232Y-115476788D01*
X160519873Y-115322445D01*
X160573402Y-115157701D01*
X160600500Y-114986611D01*
X160600500Y-114813389D01*
X160573402Y-114642299D01*
X160519873Y-114477555D01*
X160441232Y-114323212D01*
X160339414Y-114183072D01*
X160216928Y-114060586D01*
X160076788Y-113958768D01*
X159922445Y-113880127D01*
X159757701Y-113826598D01*
X159757699Y-113826597D01*
X159757698Y-113826597D01*
X159626271Y-113805781D01*
X159586611Y-113799500D01*
X159413389Y-113799500D01*
X159373728Y-113805781D01*
X159242302Y-113826597D01*
X159077552Y-113880128D01*
X158923211Y-113958768D01*
X158843256Y-114016859D01*
X158783072Y-114060586D01*
X158783070Y-114060588D01*
X158783069Y-114060588D01*
X158660588Y-114183069D01*
X158660588Y-114183070D01*
X158660586Y-114183072D01*
X158616859Y-114243256D01*
X158558768Y-114323211D01*
X158480128Y-114477552D01*
X158426597Y-114642302D01*
X158399500Y-114813389D01*
X155520500Y-114813389D01*
X155493402Y-114642299D01*
X155439873Y-114477555D01*
X155361232Y-114323212D01*
X155259414Y-114183072D01*
X155136928Y-114060586D01*
X154996788Y-113958768D01*
X154842445Y-113880127D01*
X154677701Y-113826598D01*
X154677699Y-113826597D01*
X154677698Y-113826597D01*
X154546271Y-113805781D01*
X154506611Y-113799500D01*
X154333389Y-113799500D01*
X154293728Y-113805781D01*
X154162302Y-113826597D01*
X153997552Y-113880128D01*
X153843211Y-113958768D01*
X153763256Y-114016859D01*
X153703072Y-114060586D01*
X153703070Y-114060588D01*
X153703069Y-114060588D01*
X153580588Y-114183069D01*
X153580588Y-114183070D01*
X153580586Y-114183072D01*
X153536859Y-114243256D01*
X153478768Y-114323211D01*
X153400128Y-114477552D01*
X153346597Y-114642302D01*
X153319500Y-114813389D01*
X146680499Y-114813389D01*
X146653401Y-114642299D01*
X146599872Y-114477555D01*
X146521231Y-114323212D01*
X146419413Y-114183072D01*
X146296927Y-114060586D01*
X146156787Y-113958768D01*
X146002444Y-113880127D01*
X145837700Y-113826598D01*
X145837698Y-113826597D01*
X145837697Y-113826597D01*
X145706270Y-113805781D01*
X145666610Y-113799500D01*
X145493388Y-113799500D01*
X145453727Y-113805781D01*
X145322301Y-113826597D01*
X145157551Y-113880128D01*
X145003210Y-113958768D01*
X144923255Y-114016859D01*
X144863071Y-114060586D01*
X144863069Y-114060588D01*
X144863068Y-114060588D01*
X144740587Y-114183069D01*
X144740587Y-114183070D01*
X144740585Y-114183072D01*
X144696858Y-114243256D01*
X144638767Y-114323211D01*
X144560127Y-114477552D01*
X144506596Y-114642302D01*
X144479499Y-114813389D01*
X141600499Y-114813389D01*
X141573401Y-114642299D01*
X141519872Y-114477555D01*
X141441231Y-114323212D01*
X141339413Y-114183072D01*
X141216927Y-114060586D01*
X141076787Y-113958768D01*
X140922444Y-113880127D01*
X140757700Y-113826598D01*
X140757698Y-113826597D01*
X140757697Y-113826597D01*
X140626270Y-113805781D01*
X140586610Y-113799500D01*
X140413388Y-113799500D01*
X140373727Y-113805781D01*
X140242301Y-113826597D01*
X140077551Y-113880128D01*
X139923210Y-113958768D01*
X139843255Y-114016859D01*
X139783071Y-114060586D01*
X139783069Y-114060588D01*
X139783068Y-114060588D01*
X139660587Y-114183069D01*
X139660587Y-114183070D01*
X139660585Y-114183072D01*
X139616858Y-114243256D01*
X139558767Y-114323211D01*
X139480127Y-114477552D01*
X139426596Y-114642302D01*
X139399499Y-114813389D01*
X117800500Y-114813389D01*
X117800500Y-111878711D01*
X128149500Y-111878711D01*
X128149500Y-112121288D01*
X128181161Y-112361785D01*
X128243947Y-112596104D01*
X128303791Y-112740579D01*
X128336776Y-112820212D01*
X128458064Y-113030289D01*
X128458066Y-113030292D01*
X128458067Y-113030293D01*
X128605733Y-113222736D01*
X128605739Y-113222743D01*
X128777256Y-113394260D01*
X128777262Y-113394265D01*
X128969711Y-113541936D01*
X129179788Y-113663224D01*
X129403900Y-113756054D01*
X129638211Y-113818838D01*
X129818586Y-113842584D01*
X129878711Y-113850500D01*
X129878712Y-113850500D01*
X130121289Y-113850500D01*
X130169388Y-113844167D01*
X130361789Y-113818838D01*
X130596100Y-113756054D01*
X130820212Y-113663224D01*
X131030289Y-113541936D01*
X131222738Y-113394265D01*
X131394265Y-113222738D01*
X131541936Y-113030289D01*
X131663224Y-112820212D01*
X131756054Y-112596100D01*
X131818838Y-112361789D01*
X131850500Y-112121288D01*
X131850500Y-111878712D01*
X131818838Y-111638211D01*
X131756054Y-111403900D01*
X131663224Y-111179788D01*
X131541936Y-110969711D01*
X131394265Y-110777262D01*
X131394260Y-110777256D01*
X131222743Y-110605739D01*
X131222736Y-110605733D01*
X131030293Y-110458067D01*
X131030292Y-110458066D01*
X131030289Y-110458064D01*
X130820212Y-110336776D01*
X130820205Y-110336773D01*
X130596104Y-110243947D01*
X130361785Y-110181161D01*
X130121289Y-110149500D01*
X130121288Y-110149500D01*
X129878712Y-110149500D01*
X129878711Y-110149500D01*
X129638214Y-110181161D01*
X129403895Y-110243947D01*
X129179794Y-110336773D01*
X129179785Y-110336777D01*
X128969706Y-110458067D01*
X128777263Y-110605733D01*
X128777256Y-110605739D01*
X128605739Y-110777256D01*
X128605733Y-110777263D01*
X128458067Y-110969706D01*
X128336777Y-111179785D01*
X128336773Y-111179794D01*
X128243947Y-111403895D01*
X128181161Y-111638214D01*
X128149500Y-111878711D01*
X117800500Y-111878711D01*
X117800500Y-102389818D01*
X131100000Y-102389818D01*
X131100000Y-102610181D01*
X131134473Y-102827835D01*
X131202567Y-103037410D01*
X131302611Y-103233756D01*
X131348932Y-103297513D01*
X132017037Y-102629408D01*
X132034075Y-102692993D01*
X132099901Y-102807007D01*
X132192993Y-102900099D01*
X132307007Y-102965925D01*
X132370590Y-102982962D01*
X131702485Y-103651065D01*
X131702485Y-103651066D01*
X131766243Y-103697388D01*
X131962589Y-103797432D01*
X132172164Y-103865526D01*
X132389819Y-103900000D01*
X132610181Y-103900000D01*
X132827835Y-103865526D01*
X133037410Y-103797432D01*
X133233760Y-103697386D01*
X133297513Y-103651066D01*
X133297514Y-103651066D01*
X132629409Y-102982962D01*
X132692993Y-102965925D01*
X132807007Y-102900099D01*
X132900099Y-102807007D01*
X132965925Y-102692993D01*
X132982962Y-102629410D01*
X133651066Y-103297514D01*
X133651066Y-103297513D01*
X133697386Y-103233760D01*
X133797432Y-103037410D01*
X133865526Y-102827835D01*
X133900000Y-102610181D01*
X133900000Y-102389818D01*
X133865526Y-102172164D01*
X133797432Y-101962589D01*
X133734210Y-101838510D01*
X133697388Y-101766243D01*
X133651066Y-101702485D01*
X133651065Y-101702485D01*
X132982962Y-102370589D01*
X132965925Y-102307007D01*
X132900099Y-102192993D01*
X132807007Y-102099901D01*
X132692993Y-102034075D01*
X132629407Y-102017037D01*
X133297513Y-101348932D01*
X133233756Y-101302611D01*
X133037410Y-101202567D01*
X132827835Y-101134473D01*
X132610181Y-101100000D01*
X132389819Y-101100000D01*
X132172164Y-101134473D01*
X131962589Y-101202567D01*
X131766233Y-101302616D01*
X131702485Y-101348931D01*
X131702485Y-101348932D01*
X132370590Y-102017037D01*
X132307007Y-102034075D01*
X132192993Y-102099901D01*
X132099901Y-102192993D01*
X132034075Y-102307007D01*
X132017037Y-102370590D01*
X131348932Y-101702485D01*
X131348931Y-101702485D01*
X131302616Y-101766233D01*
X131202567Y-101962589D01*
X131134473Y-102172164D01*
X131100000Y-102389818D01*
X117800500Y-102389818D01*
X117800500Y-100647682D01*
X163500000Y-100647682D01*
X163500000Y-100852317D01*
X163532009Y-101054417D01*
X163595244Y-101249031D01*
X163688141Y-101431350D01*
X163688147Y-101431359D01*
X163720523Y-101475921D01*
X163720524Y-101475922D01*
X164400000Y-100796446D01*
X164400000Y-100802661D01*
X164427259Y-100904394D01*
X164479920Y-100995606D01*
X164554394Y-101070080D01*
X164645606Y-101122741D01*
X164747339Y-101150000D01*
X164753553Y-101150000D01*
X164074076Y-101829474D01*
X164118650Y-101861859D01*
X164300968Y-101954755D01*
X164495582Y-102017990D01*
X164697683Y-102050000D01*
X164902317Y-102050000D01*
X165104417Y-102017990D01*
X165299031Y-101954755D01*
X165481349Y-101861859D01*
X165525921Y-101829474D01*
X164846447Y-101150000D01*
X164852661Y-101150000D01*
X164954394Y-101122741D01*
X165045606Y-101070080D01*
X165120080Y-100995606D01*
X165172741Y-100904394D01*
X165200000Y-100802661D01*
X165200000Y-100796448D01*
X165879474Y-101475922D01*
X165879474Y-101475921D01*
X165911859Y-101431349D01*
X166004755Y-101249031D01*
X166067990Y-101054417D01*
X166100000Y-100852317D01*
X166100000Y-100647682D01*
X166067990Y-100445582D01*
X166004755Y-100250968D01*
X165911859Y-100068650D01*
X165879474Y-100024077D01*
X165879474Y-100024076D01*
X165200000Y-100703551D01*
X165200000Y-100697339D01*
X165172741Y-100595606D01*
X165120080Y-100504394D01*
X165045606Y-100429920D01*
X164954394Y-100377259D01*
X164852661Y-100350000D01*
X164846446Y-100350000D01*
X165525922Y-99670524D01*
X165525921Y-99670523D01*
X165481359Y-99638147D01*
X165481350Y-99638141D01*
X165299031Y-99545244D01*
X165104417Y-99482009D01*
X164902317Y-99450000D01*
X164697683Y-99450000D01*
X164495582Y-99482009D01*
X164300968Y-99545244D01*
X164118644Y-99638143D01*
X164074077Y-99670523D01*
X164074077Y-99670524D01*
X164753554Y-100350000D01*
X164747339Y-100350000D01*
X164645606Y-100377259D01*
X164554394Y-100429920D01*
X164479920Y-100504394D01*
X164427259Y-100595606D01*
X164400000Y-100697339D01*
X164400000Y-100703553D01*
X163720524Y-100024077D01*
X163720523Y-100024077D01*
X163688143Y-100068644D01*
X163595244Y-100250968D01*
X163532009Y-100445582D01*
X163500000Y-100647682D01*
X117800500Y-100647682D01*
X117800500Y-96555131D01*
X131299500Y-96555131D01*
X131299500Y-98444856D01*
X131299502Y-98444882D01*
X131302413Y-98469987D01*
X131302415Y-98469991D01*
X131347793Y-98572764D01*
X131347794Y-98572765D01*
X131427235Y-98652206D01*
X131530009Y-98697585D01*
X131555135Y-98700500D01*
X133444864Y-98700499D01*
X133444879Y-98700497D01*
X133444882Y-98700497D01*
X133469987Y-98697586D01*
X133469988Y-98697585D01*
X133469991Y-98697585D01*
X133572765Y-98652206D01*
X133652206Y-98572765D01*
X133697585Y-98469991D01*
X133700500Y-98444865D01*
X133700499Y-97482993D01*
X133700499Y-96686191D01*
X133700499Y-96555143D01*
X133700499Y-96555136D01*
X133700497Y-96555117D01*
X133697586Y-96530012D01*
X133697585Y-96530010D01*
X133697585Y-96530009D01*
X133652206Y-96427235D01*
X133572765Y-96347794D01*
X133531274Y-96329474D01*
X133469992Y-96302415D01*
X133444868Y-96299500D01*
X133444865Y-96299500D01*
X133049500Y-96299500D01*
X132982461Y-96279815D01*
X132936706Y-96227011D01*
X132925500Y-96175500D01*
X132925500Y-85754303D01*
X132945185Y-85687264D01*
X132993204Y-85643819D01*
X133076788Y-85601232D01*
X133216928Y-85499414D01*
X133339414Y-85376928D01*
X133441232Y-85236788D01*
X133519873Y-85082445D01*
X133573402Y-84917701D01*
X133600500Y-84746611D01*
X133600500Y-84573389D01*
X133573402Y-84402299D01*
X133519873Y-84237555D01*
X133441232Y-84083212D01*
X133339414Y-83943072D01*
X133216928Y-83820586D01*
X133076788Y-83718768D01*
X132922445Y-83640127D01*
X132757701Y-83586598D01*
X132757699Y-83586597D01*
X132757698Y-83586597D01*
X132626271Y-83565781D01*
X132586611Y-83559500D01*
X132413389Y-83559500D01*
X132373728Y-83565781D01*
X132242302Y-83586597D01*
X132077552Y-83640128D01*
X131923211Y-83718768D01*
X131843256Y-83776859D01*
X131783072Y-83820586D01*
X131783070Y-83820588D01*
X131783069Y-83820588D01*
X131660588Y-83943069D01*
X131660588Y-83943070D01*
X131660586Y-83943072D01*
X131616859Y-84003256D01*
X131558768Y-84083211D01*
X131480128Y-84237552D01*
X131426597Y-84402302D01*
X131399500Y-84573389D01*
X131399500Y-84746611D01*
X131426598Y-84917701D01*
X131480127Y-85082445D01*
X131558768Y-85236788D01*
X131660586Y-85376928D01*
X131783072Y-85499414D01*
X131862186Y-85556894D01*
X131923207Y-85601229D01*
X131923209Y-85601230D01*
X131923212Y-85601232D01*
X132006795Y-85643819D01*
X132057590Y-85691792D01*
X132074500Y-85754303D01*
X132074500Y-96175500D01*
X132054815Y-96242539D01*
X132002011Y-96288294D01*
X131950500Y-96299500D01*
X131555143Y-96299500D01*
X131555117Y-96299502D01*
X131530012Y-96302413D01*
X131530008Y-96302415D01*
X131427235Y-96347793D01*
X131347794Y-96427234D01*
X131302415Y-96530006D01*
X131302415Y-96530008D01*
X131299500Y-96555131D01*
X117800500Y-96555131D01*
X117800500Y-92877308D01*
X117820185Y-92810269D01*
X117836819Y-92789627D01*
X118556212Y-92070233D01*
X118567482Y-92112292D01*
X118639890Y-92237708D01*
X118742292Y-92340110D01*
X118867708Y-92412518D01*
X118909765Y-92423787D01*
X118210893Y-93122658D01*
X118293828Y-93182914D01*
X118504197Y-93290102D01*
X118728752Y-93363065D01*
X118728751Y-93363065D01*
X118961948Y-93400000D01*
X119198052Y-93400000D01*
X119431247Y-93363065D01*
X119655802Y-93290102D01*
X119866163Y-93182918D01*
X119866169Y-93182914D01*
X119949104Y-93122658D01*
X119949105Y-93122658D01*
X119250233Y-92423787D01*
X119292292Y-92412518D01*
X119417708Y-92340110D01*
X119520110Y-92237708D01*
X119592518Y-92112292D01*
X119603787Y-92070234D01*
X120302658Y-92769105D01*
X120302658Y-92769104D01*
X120362914Y-92686169D01*
X120362918Y-92686163D01*
X120470102Y-92475802D01*
X120543065Y-92251247D01*
X120580000Y-92018052D01*
X120580000Y-91781947D01*
X124080000Y-91781947D01*
X124080000Y-92018052D01*
X124116934Y-92251247D01*
X124189897Y-92475802D01*
X124297087Y-92686174D01*
X124357338Y-92769104D01*
X124357340Y-92769105D01*
X125056212Y-92070233D01*
X125067482Y-92112292D01*
X125139890Y-92237708D01*
X125242292Y-92340110D01*
X125367708Y-92412518D01*
X125409765Y-92423787D01*
X124710893Y-93122658D01*
X124793828Y-93182914D01*
X125004197Y-93290102D01*
X125228752Y-93363065D01*
X125228751Y-93363065D01*
X125461948Y-93400000D01*
X125698052Y-93400000D01*
X125931247Y-93363065D01*
X126155802Y-93290102D01*
X126366163Y-93182918D01*
X126366169Y-93182914D01*
X126449104Y-93122658D01*
X126449105Y-93122658D01*
X125750233Y-92423787D01*
X125792292Y-92412518D01*
X125917708Y-92340110D01*
X126020110Y-92237708D01*
X126092518Y-92112292D01*
X126103787Y-92070234D01*
X126802658Y-92769105D01*
X126802658Y-92769104D01*
X126862914Y-92686169D01*
X126862918Y-92686163D01*
X126970102Y-92475802D01*
X127043065Y-92251247D01*
X127080000Y-92018052D01*
X127080000Y-91781947D01*
X127043065Y-91548752D01*
X126970102Y-91324197D01*
X126862914Y-91113828D01*
X126802658Y-91030894D01*
X126802658Y-91030893D01*
X126103787Y-91729765D01*
X126092518Y-91687708D01*
X126020110Y-91562292D01*
X125917708Y-91459890D01*
X125792292Y-91387482D01*
X125750234Y-91376212D01*
X126449105Y-90677340D01*
X126449104Y-90677338D01*
X126366174Y-90617087D01*
X126155802Y-90509897D01*
X125931247Y-90436934D01*
X125931248Y-90436934D01*
X125698052Y-90400000D01*
X125461948Y-90400000D01*
X125228752Y-90436934D01*
X125004197Y-90509897D01*
X124793830Y-90617084D01*
X124710894Y-90677340D01*
X125409766Y-91376212D01*
X125367708Y-91387482D01*
X125242292Y-91459890D01*
X125139890Y-91562292D01*
X125067482Y-91687708D01*
X125056212Y-91729766D01*
X124357340Y-91030894D01*
X124297084Y-91113830D01*
X124189897Y-91324197D01*
X124116934Y-91548752D01*
X124080000Y-91781947D01*
X120580000Y-91781947D01*
X120543065Y-91548752D01*
X120470102Y-91324197D01*
X120362914Y-91113828D01*
X120302658Y-91030894D01*
X120302658Y-91030893D01*
X119603787Y-91729765D01*
X119592518Y-91687708D01*
X119520110Y-91562292D01*
X119417708Y-91459890D01*
X119292292Y-91387482D01*
X119250234Y-91376212D01*
X119949105Y-90677340D01*
X119949104Y-90677339D01*
X119866174Y-90617087D01*
X119655802Y-90509897D01*
X119431247Y-90436934D01*
X119431248Y-90436934D01*
X119198052Y-90400000D01*
X118961948Y-90400000D01*
X118728752Y-90436934D01*
X118504197Y-90509897D01*
X118293830Y-90617084D01*
X118210894Y-90677340D01*
X118909766Y-91376212D01*
X118867708Y-91387482D01*
X118742292Y-91459890D01*
X118639890Y-91562292D01*
X118567482Y-91687708D01*
X118556212Y-91729765D01*
X117836819Y-91010372D01*
X117822115Y-90983444D01*
X117805523Y-90957626D01*
X117804631Y-90951425D01*
X117803334Y-90949049D01*
X117800500Y-90922691D01*
X117800500Y-88233095D01*
X117820185Y-88166056D01*
X117872989Y-88120301D01*
X117942147Y-88110357D01*
X118005703Y-88139382D01*
X118024817Y-88160208D01*
X118077772Y-88233095D01*
X118088034Y-88247219D01*
X118232786Y-88391971D01*
X118387749Y-88504556D01*
X118398390Y-88512287D01*
X118480598Y-88554174D01*
X118580776Y-88605218D01*
X118580778Y-88605218D01*
X118580781Y-88605220D01*
X118654753Y-88629255D01*
X118775465Y-88668477D01*
X118876557Y-88684488D01*
X118977648Y-88700500D01*
X118977649Y-88700500D01*
X119182351Y-88700500D01*
X119182352Y-88700500D01*
X119384534Y-88668477D01*
X119579219Y-88605220D01*
X119761610Y-88512287D01*
X119878989Y-88427007D01*
X119927213Y-88391971D01*
X119927215Y-88391968D01*
X119927219Y-88391966D01*
X120071966Y-88247219D01*
X120071968Y-88247215D01*
X120071971Y-88247213D01*
X120137934Y-88156421D01*
X120192287Y-88081610D01*
X120285220Y-87899219D01*
X120285219Y-87899219D01*
X120287432Y-87894878D01*
X120289128Y-87895742D01*
X120327891Y-87847643D01*
X120394185Y-87825579D01*
X120398610Y-87825500D01*
X124261390Y-87825500D01*
X124328429Y-87845185D01*
X124371818Y-87895259D01*
X124372568Y-87894878D01*
X124374109Y-87897902D01*
X124374184Y-87897989D01*
X124374365Y-87898406D01*
X124467715Y-88081613D01*
X124588028Y-88247213D01*
X124732786Y-88391971D01*
X124887749Y-88504556D01*
X124898390Y-88512287D01*
X124980598Y-88554174D01*
X125080776Y-88605218D01*
X125080778Y-88605218D01*
X125080781Y-88605220D01*
X125154753Y-88629255D01*
X125275465Y-88668477D01*
X125376557Y-88684488D01*
X125477648Y-88700500D01*
X125477649Y-88700500D01*
X125682351Y-88700500D01*
X125682352Y-88700500D01*
X125884534Y-88668477D01*
X126079219Y-88605220D01*
X126261610Y-88512287D01*
X126378989Y-88427007D01*
X126427213Y-88391971D01*
X126427215Y-88391968D01*
X126427219Y-88391966D01*
X126571966Y-88247219D01*
X126571968Y-88247215D01*
X126571971Y-88247213D01*
X126637934Y-88156421D01*
X126692287Y-88081610D01*
X126785220Y-87899219D01*
X126848477Y-87704534D01*
X126880500Y-87502352D01*
X126880500Y-87297648D01*
X126848477Y-87095466D01*
X126785220Y-86900781D01*
X126785218Y-86900778D01*
X126785218Y-86900776D01*
X126751503Y-86834607D01*
X126692287Y-86718390D01*
X126666179Y-86682455D01*
X126571971Y-86552786D01*
X126427213Y-86408028D01*
X126261613Y-86287715D01*
X126261612Y-86287714D01*
X126261610Y-86287713D01*
X126079219Y-86194780D01*
X126074878Y-86192568D01*
X126075742Y-86190871D01*
X126027643Y-86152109D01*
X126005579Y-86085815D01*
X126005500Y-86081390D01*
X126005500Y-85754303D01*
X126025185Y-85687264D01*
X126073204Y-85643819D01*
X126156788Y-85601232D01*
X126296928Y-85499414D01*
X126419414Y-85376928D01*
X126521232Y-85236788D01*
X126599873Y-85082445D01*
X126653402Y-84917701D01*
X126680500Y-84746611D01*
X126680500Y-84573389D01*
X126653402Y-84402299D01*
X126599873Y-84237555D01*
X126521232Y-84083212D01*
X126419414Y-83943072D01*
X126296928Y-83820586D01*
X126156788Y-83718768D01*
X126002445Y-83640127D01*
X125837701Y-83586598D01*
X125837699Y-83586597D01*
X125837698Y-83586597D01*
X125706271Y-83565781D01*
X125666611Y-83559500D01*
X125493389Y-83559500D01*
X125453728Y-83565781D01*
X125322302Y-83586597D01*
X125157552Y-83640128D01*
X125003211Y-83718768D01*
X124923256Y-83776859D01*
X124863072Y-83820586D01*
X124863070Y-83820588D01*
X124863069Y-83820588D01*
X124740588Y-83943069D01*
X124740588Y-83943070D01*
X124740586Y-83943072D01*
X124696859Y-84003256D01*
X124638768Y-84083211D01*
X124560128Y-84237552D01*
X124506597Y-84402302D01*
X124479500Y-84573389D01*
X124479500Y-84746611D01*
X124506598Y-84917701D01*
X124560127Y-85082445D01*
X124638768Y-85236788D01*
X124740586Y-85376928D01*
X124863072Y-85499414D01*
X124942186Y-85556894D01*
X125003207Y-85601229D01*
X125003209Y-85601230D01*
X125003212Y-85601232D01*
X125086795Y-85643819D01*
X125137590Y-85691792D01*
X125154500Y-85754303D01*
X125154500Y-86081390D01*
X125134815Y-86148429D01*
X125084740Y-86191818D01*
X125085122Y-86192568D01*
X125082097Y-86194109D01*
X125082011Y-86194184D01*
X125081593Y-86194365D01*
X124898386Y-86287715D01*
X124732786Y-86408028D01*
X124588028Y-86552786D01*
X124467715Y-86718386D01*
X124372568Y-86905122D01*
X124370871Y-86904257D01*
X124332109Y-86952357D01*
X124265815Y-86974421D01*
X124261390Y-86974500D01*
X120398610Y-86974500D01*
X120331571Y-86954815D01*
X120288181Y-86904740D01*
X120287432Y-86905122D01*
X120285890Y-86902097D01*
X120285816Y-86902011D01*
X120285634Y-86901593D01*
X120265489Y-86862057D01*
X120192287Y-86718390D01*
X120166179Y-86682455D01*
X120071971Y-86552786D01*
X119927213Y-86408028D01*
X119761613Y-86287715D01*
X119761612Y-86287714D01*
X119761610Y-86287713D01*
X119699401Y-86256016D01*
X119579223Y-86194781D01*
X119384534Y-86131522D01*
X119209995Y-86103878D01*
X119182352Y-86099500D01*
X118977648Y-86099500D01*
X118953329Y-86103351D01*
X118775465Y-86131522D01*
X118580776Y-86194781D01*
X118398386Y-86287715D01*
X118232786Y-86408028D01*
X118088032Y-86552782D01*
X118088028Y-86552787D01*
X118024818Y-86639789D01*
X117969488Y-86682455D01*
X117899875Y-86688434D01*
X117838080Y-86655828D01*
X117803723Y-86594990D01*
X117800500Y-86566904D01*
X117800500Y-52004427D01*
X117800816Y-51995581D01*
X117806374Y-51917863D01*
X117817165Y-51766973D01*
X117819683Y-51749470D01*
X117867457Y-51529852D01*
X117872434Y-51512901D01*
X117950986Y-51302295D01*
X117958325Y-51286226D01*
X118066043Y-51088955D01*
X118075599Y-51074086D01*
X118210293Y-50894156D01*
X118221867Y-50880799D01*
X118380799Y-50721867D01*
X118394156Y-50710293D01*
X118574086Y-50575599D01*
X118588955Y-50566043D01*
X118786226Y-50458325D01*
X118802295Y-50450986D01*
X119012901Y-50372434D01*
X119029852Y-50367457D01*
X119249476Y-50319681D01*
X119266973Y-50317165D01*
X119495582Y-50300816D01*
X119504428Y-50300500D01*
X119547594Y-50300500D01*
X180452405Y-50300500D01*
X180495572Y-50300500D01*
X180504418Y-50300816D01*
G37*
%TD.AperFunction*%
%TA.AperFunction,Conductor*%
G36*
X179189429Y-51445185D02*
G01*
X179210071Y-51461819D01*
X179501484Y-51753232D01*
X179534969Y-51814555D01*
X179529985Y-51884247D01*
X179501484Y-51928594D01*
X179372863Y-52057214D01*
X179372860Y-52057218D01*
X179263371Y-52221079D01*
X179263364Y-52221092D01*
X179187950Y-52403160D01*
X179187947Y-52403170D01*
X179149500Y-52596456D01*
X179149500Y-52596459D01*
X179149500Y-52793541D01*
X179149500Y-52793543D01*
X179149499Y-52793543D01*
X179187947Y-52986829D01*
X179187950Y-52986839D01*
X179233073Y-53095776D01*
X179240542Y-53165245D01*
X179209267Y-53227724D01*
X179149177Y-53263376D01*
X179079352Y-53260882D01*
X179030831Y-53230909D01*
X178987785Y-53187863D01*
X178987781Y-53187860D01*
X178823920Y-53078371D01*
X178823907Y-53078364D01*
X178641839Y-53002950D01*
X178641829Y-53002947D01*
X178448543Y-52964500D01*
X178448541Y-52964500D01*
X178251459Y-52964500D01*
X178251457Y-52964500D01*
X178058170Y-53002947D01*
X178058160Y-53002950D01*
X177876092Y-53078364D01*
X177876079Y-53078371D01*
X177712218Y-53187860D01*
X177712214Y-53187863D01*
X177572863Y-53327214D01*
X177572860Y-53327218D01*
X177463371Y-53491079D01*
X177463364Y-53491092D01*
X177387950Y-53673160D01*
X177387947Y-53673170D01*
X177349500Y-53866456D01*
X177349500Y-53866459D01*
X177349500Y-54063541D01*
X177349500Y-54063543D01*
X177349499Y-54063543D01*
X177387947Y-54256829D01*
X177387950Y-54256839D01*
X177463364Y-54438907D01*
X177463371Y-54438920D01*
X177572860Y-54602781D01*
X177572863Y-54602785D01*
X177712214Y-54742136D01*
X177712218Y-54742139D01*
X177876079Y-54851628D01*
X177876092Y-54851635D01*
X178058160Y-54927049D01*
X178058165Y-54927051D01*
X178058169Y-54927051D01*
X178058170Y-54927052D01*
X178251456Y-54965500D01*
X178251459Y-54965500D01*
X178448543Y-54965500D01*
X178578582Y-54939632D01*
X178641835Y-54927051D01*
X178803265Y-54860184D01*
X178872733Y-54852716D01*
X178935212Y-54883991D01*
X178970864Y-54944080D01*
X178973189Y-54994144D01*
X178950000Y-55140552D01*
X178950000Y-55329447D01*
X178973189Y-55475855D01*
X178964235Y-55545148D01*
X178919238Y-55598600D01*
X178852487Y-55619240D01*
X178803264Y-55609814D01*
X178641839Y-55542950D01*
X178641829Y-55542947D01*
X178448543Y-55504500D01*
X178448541Y-55504500D01*
X178251459Y-55504500D01*
X178251457Y-55504500D01*
X178058170Y-55542947D01*
X178058160Y-55542950D01*
X177876092Y-55618364D01*
X177876079Y-55618371D01*
X177712218Y-55727860D01*
X177712214Y-55727863D01*
X177572863Y-55867214D01*
X177572860Y-55867218D01*
X177463371Y-56031079D01*
X177463364Y-56031092D01*
X177387950Y-56213160D01*
X177387947Y-56213170D01*
X177349500Y-56406456D01*
X177349500Y-56406457D01*
X177349500Y-56406459D01*
X177349500Y-56603541D01*
X177349500Y-56603543D01*
X177349499Y-56603543D01*
X177387947Y-56796829D01*
X177387950Y-56796839D01*
X177463364Y-56978907D01*
X177463371Y-56978920D01*
X177572860Y-57142781D01*
X177572863Y-57142785D01*
X177712215Y-57282137D01*
X177712218Y-57282139D01*
X177869391Y-57387158D01*
X177914196Y-57440770D01*
X177924500Y-57490260D01*
X177924500Y-57838980D01*
X177924500Y-57951017D01*
X177953497Y-58059236D01*
X178009515Y-58156262D01*
X178009517Y-58156264D01*
X179152442Y-59299189D01*
X179185927Y-59360512D01*
X179186378Y-59411062D01*
X179149500Y-59596456D01*
X179149500Y-59596459D01*
X179149500Y-59793541D01*
X179149500Y-59793543D01*
X179149499Y-59793543D01*
X179187947Y-59986829D01*
X179187950Y-59986839D01*
X179233073Y-60095776D01*
X179240542Y-60165245D01*
X179209267Y-60227724D01*
X179149177Y-60263376D01*
X179079352Y-60260882D01*
X179030831Y-60230909D01*
X178987785Y-60187863D01*
X178987781Y-60187860D01*
X178823920Y-60078371D01*
X178823907Y-60078364D01*
X178641839Y-60002950D01*
X178641829Y-60002947D01*
X178448543Y-59964500D01*
X178448541Y-59964500D01*
X178251459Y-59964500D01*
X178251457Y-59964500D01*
X178058170Y-60002947D01*
X178058160Y-60002950D01*
X177876092Y-60078364D01*
X177876079Y-60078371D01*
X177712218Y-60187860D01*
X177712214Y-60187863D01*
X177572863Y-60327214D01*
X177572860Y-60327218D01*
X177463371Y-60491079D01*
X177463364Y-60491092D01*
X177387950Y-60673160D01*
X177387947Y-60673170D01*
X177349500Y-60866456D01*
X177349500Y-60866459D01*
X177349500Y-61063541D01*
X177349500Y-61063543D01*
X177349499Y-61063543D01*
X177387947Y-61256829D01*
X177387950Y-61256839D01*
X177463364Y-61438907D01*
X177463371Y-61438920D01*
X177572860Y-61602781D01*
X177572863Y-61602785D01*
X177712214Y-61742136D01*
X177712218Y-61742139D01*
X177876079Y-61851628D01*
X177876092Y-61851635D01*
X178058160Y-61927049D01*
X178058165Y-61927051D01*
X178058169Y-61927051D01*
X178058170Y-61927052D01*
X178251456Y-61965500D01*
X178251459Y-61965500D01*
X178448543Y-61965500D01*
X178578582Y-61939632D01*
X178641835Y-61927051D01*
X178803265Y-61860184D01*
X178872733Y-61852716D01*
X178935212Y-61883991D01*
X178970864Y-61944080D01*
X178973189Y-61994144D01*
X178950000Y-62140552D01*
X178950000Y-62329447D01*
X178973189Y-62475855D01*
X178964235Y-62545148D01*
X178919238Y-62598600D01*
X178852487Y-62619240D01*
X178803264Y-62609814D01*
X178641839Y-62542950D01*
X178641829Y-62542947D01*
X178448543Y-62504500D01*
X178448541Y-62504500D01*
X178251459Y-62504500D01*
X178251457Y-62504500D01*
X178058170Y-62542947D01*
X178058160Y-62542950D01*
X177876092Y-62618364D01*
X177876079Y-62618371D01*
X177712218Y-62727860D01*
X177712214Y-62727863D01*
X177572863Y-62867214D01*
X177572860Y-62867218D01*
X177463371Y-63031079D01*
X177463364Y-63031092D01*
X177387950Y-63213160D01*
X177387947Y-63213170D01*
X177349500Y-63406456D01*
X177349500Y-63406457D01*
X177349500Y-63406459D01*
X177349500Y-63603541D01*
X177349500Y-63603543D01*
X177349499Y-63603543D01*
X177387947Y-63796829D01*
X177387950Y-63796839D01*
X177463364Y-63978907D01*
X177463371Y-63978920D01*
X177572860Y-64142781D01*
X177572863Y-64142785D01*
X177712215Y-64282137D01*
X177712218Y-64282139D01*
X177869391Y-64387158D01*
X177914196Y-64440770D01*
X177924500Y-64490260D01*
X177924500Y-64838980D01*
X177924500Y-64951017D01*
X177953497Y-65059236D01*
X178009515Y-65156262D01*
X178009517Y-65156264D01*
X179152442Y-66299189D01*
X179185927Y-66360512D01*
X179186378Y-66411062D01*
X179149500Y-66596456D01*
X179149500Y-66596459D01*
X179149500Y-66793541D01*
X179149500Y-66793543D01*
X179149499Y-66793543D01*
X179187947Y-66986829D01*
X179187950Y-66986839D01*
X179233073Y-67095776D01*
X179240542Y-67165245D01*
X179209267Y-67227724D01*
X179149177Y-67263376D01*
X179079352Y-67260882D01*
X179030831Y-67230909D01*
X178987785Y-67187863D01*
X178987781Y-67187860D01*
X178823920Y-67078371D01*
X178823907Y-67078364D01*
X178641839Y-67002950D01*
X178641829Y-67002947D01*
X178448543Y-66964500D01*
X178448541Y-66964500D01*
X178251459Y-66964500D01*
X178251457Y-66964500D01*
X178058170Y-67002947D01*
X178058160Y-67002950D01*
X177876092Y-67078364D01*
X177876079Y-67078371D01*
X177712218Y-67187860D01*
X177712214Y-67187863D01*
X177637181Y-67262897D01*
X177575858Y-67296382D01*
X177506166Y-67291398D01*
X177450233Y-67249526D01*
X177425816Y-67184062D01*
X177425500Y-67175216D01*
X177425500Y-64743984D01*
X177425500Y-64743982D01*
X177396503Y-64635763D01*
X177340485Y-64538737D01*
X177261263Y-64459515D01*
X176461263Y-63659515D01*
X176364237Y-63603497D01*
X176256018Y-63574500D01*
X176256017Y-63574500D01*
X172043659Y-63574500D01*
X171976620Y-63554815D01*
X171935212Y-63507028D01*
X171933814Y-63507776D01*
X171930944Y-63502407D01*
X171815975Y-63330342D01*
X171669657Y-63184024D01*
X171576274Y-63121628D01*
X171497598Y-63069059D01*
X171475899Y-63060071D01*
X171306420Y-62989870D01*
X171306412Y-62989868D01*
X171103469Y-62949500D01*
X171103465Y-62949500D01*
X170896535Y-62949500D01*
X170896530Y-62949500D01*
X170693587Y-62989868D01*
X170693579Y-62989870D01*
X170502403Y-63069058D01*
X170330342Y-63184024D01*
X170184024Y-63330342D01*
X170069055Y-63502407D01*
X170066186Y-63507776D01*
X170063943Y-63506577D01*
X170027087Y-63552338D01*
X169960799Y-63574420D01*
X169956341Y-63574500D01*
X165077610Y-63574500D01*
X165010571Y-63554815D01*
X164989929Y-63538181D01*
X164511819Y-63060071D01*
X164478334Y-62998748D01*
X164475500Y-62972390D01*
X164475500Y-58549500D01*
X164495185Y-58482461D01*
X164547989Y-58436706D01*
X164599500Y-58425500D01*
X166905697Y-58425500D01*
X166972736Y-58445185D01*
X167016180Y-58493204D01*
X167036258Y-58532609D01*
X167058766Y-58576784D01*
X167058770Y-58576792D01*
X167101100Y-58635053D01*
X167160586Y-58716928D01*
X167283072Y-58839414D01*
X167423212Y-58941232D01*
X167577555Y-59019873D01*
X167742299Y-59073402D01*
X167913389Y-59100500D01*
X167913390Y-59100500D01*
X168086610Y-59100500D01*
X168086611Y-59100500D01*
X168257701Y-59073402D01*
X168422445Y-59019873D01*
X168576788Y-58941232D01*
X168716928Y-58839414D01*
X168839414Y-58716928D01*
X168941232Y-58576788D01*
X169019873Y-58422445D01*
X169073402Y-58257701D01*
X169100500Y-58086611D01*
X169100500Y-57913389D01*
X169073402Y-57742299D01*
X169019873Y-57577555D01*
X168941232Y-57423212D01*
X168839414Y-57283072D01*
X168716928Y-57160586D01*
X168576788Y-57058768D01*
X168422445Y-56980127D01*
X168257701Y-56926598D01*
X168257699Y-56926597D01*
X168257698Y-56926597D01*
X168125725Y-56905695D01*
X168086611Y-56899500D01*
X167913389Y-56899500D01*
X167874275Y-56905695D01*
X167742302Y-56926597D01*
X167577552Y-56980128D01*
X167423211Y-57058768D01*
X167343256Y-57116859D01*
X167283072Y-57160586D01*
X167283070Y-57160588D01*
X167283069Y-57160588D01*
X167160588Y-57283069D01*
X167160588Y-57283070D01*
X167160586Y-57283072D01*
X167146542Y-57302402D01*
X167058770Y-57423207D01*
X167058766Y-57423215D01*
X167049822Y-57440770D01*
X167016180Y-57506795D01*
X166968208Y-57557590D01*
X166905697Y-57574500D01*
X164599500Y-57574500D01*
X164532461Y-57554815D01*
X164486706Y-57502011D01*
X164475500Y-57450500D01*
X164475500Y-56364303D01*
X164495185Y-56297264D01*
X164543204Y-56253819D01*
X164626788Y-56211232D01*
X164766928Y-56109414D01*
X164889414Y-55986928D01*
X164991232Y-55846788D01*
X165069873Y-55692445D01*
X165123402Y-55527701D01*
X165150500Y-55356611D01*
X165150500Y-55183389D01*
X165123402Y-55012299D01*
X165069873Y-54847555D01*
X164991232Y-54693212D01*
X164889414Y-54553072D01*
X164766928Y-54430586D01*
X164626788Y-54328768D01*
X164472449Y-54250128D01*
X164388385Y-54222814D01*
X164330710Y-54183376D01*
X164303512Y-54119017D01*
X164315427Y-54050171D01*
X164362672Y-53998695D01*
X164388386Y-53986952D01*
X164549029Y-53934755D01*
X164731349Y-53841859D01*
X164775922Y-53809474D01*
X164138585Y-53172138D01*
X164223694Y-53149333D01*
X164326306Y-53090090D01*
X164410090Y-53006306D01*
X164469333Y-52903694D01*
X164492137Y-52818585D01*
X165129474Y-53455922D01*
X165129474Y-53455921D01*
X165161859Y-53411349D01*
X165254755Y-53229031D01*
X165317990Y-53034417D01*
X165350000Y-52832317D01*
X165350000Y-52627682D01*
X165317990Y-52425582D01*
X165254755Y-52230968D01*
X165161859Y-52048650D01*
X165129474Y-52004077D01*
X165129474Y-52004076D01*
X164492137Y-52641413D01*
X164469333Y-52556306D01*
X164410090Y-52453694D01*
X164326306Y-52369910D01*
X164223694Y-52310667D01*
X164138584Y-52287861D01*
X164775922Y-51650524D01*
X164774951Y-51649819D01*
X164732285Y-51594489D01*
X164726306Y-51524876D01*
X164758911Y-51463080D01*
X164819749Y-51428723D01*
X164847836Y-51425500D01*
X179122390Y-51425500D01*
X179189429Y-51445185D01*
G37*
%TD.AperFunction*%
%TA.AperFunction,Conductor*%
G36*
X147027842Y-51445185D02*
G01*
X147073597Y-51497989D01*
X147083541Y-51567147D01*
X147054516Y-51630703D01*
X147010890Y-51662934D01*
X146977234Y-51677794D01*
X146897794Y-51757234D01*
X146852415Y-51860006D01*
X146852415Y-51860008D01*
X146849500Y-51885131D01*
X146849500Y-53142033D01*
X146829815Y-53209072D01*
X146813181Y-53229714D01*
X143639513Y-56403382D01*
X143639509Y-56403388D01*
X143580201Y-56506111D01*
X143580200Y-56506116D01*
X143549500Y-56620690D01*
X143549500Y-56918433D01*
X143529815Y-56985472D01*
X143481796Y-57028917D01*
X143423214Y-57058766D01*
X143353142Y-57109677D01*
X143283072Y-57160586D01*
X143283070Y-57160588D01*
X143283069Y-57160588D01*
X143160588Y-57283069D01*
X143160588Y-57283070D01*
X143160586Y-57283072D01*
X143131440Y-57323188D01*
X143058768Y-57423211D01*
X142980128Y-57577552D01*
X142926597Y-57742302D01*
X142924575Y-57755070D01*
X142899500Y-57913389D01*
X142899500Y-58086611D01*
X142926598Y-58257701D01*
X142939561Y-58297598D01*
X142980128Y-58422447D01*
X143010088Y-58481247D01*
X143058768Y-58576788D01*
X143160586Y-58716928D01*
X143283072Y-58839414D01*
X143423212Y-58941232D01*
X143577555Y-59019873D01*
X143742299Y-59073402D01*
X143913389Y-59100500D01*
X143913390Y-59100500D01*
X144086610Y-59100500D01*
X144086611Y-59100500D01*
X144257701Y-59073402D01*
X144422445Y-59019873D01*
X144576788Y-58941232D01*
X144716928Y-58839414D01*
X144839414Y-58716928D01*
X144941232Y-58576788D01*
X145019873Y-58422445D01*
X145073402Y-58257701D01*
X145100500Y-58086611D01*
X145100500Y-57913389D01*
X145073402Y-57742299D01*
X145019873Y-57577555D01*
X144941232Y-57423212D01*
X144839414Y-57283072D01*
X144716928Y-57160586D01*
X144576788Y-57058768D01*
X144576787Y-57058767D01*
X144576785Y-57058766D01*
X144518204Y-57028917D01*
X144467409Y-56980943D01*
X144450500Y-56918433D01*
X144450500Y-56917964D01*
X144470185Y-56850925D01*
X144486819Y-56830283D01*
X145700187Y-55616915D01*
X146133713Y-55183389D01*
X146849500Y-55183389D01*
X146849500Y-55356610D01*
X146876460Y-55526835D01*
X146876598Y-55527701D01*
X146930127Y-55692445D01*
X147008768Y-55846788D01*
X147110586Y-55986928D01*
X147233072Y-56109414D01*
X147373212Y-56211232D01*
X147527555Y-56289873D01*
X147692299Y-56343402D01*
X147863389Y-56370500D01*
X147863390Y-56370500D01*
X148036610Y-56370500D01*
X148036611Y-56370500D01*
X148207701Y-56343402D01*
X148372445Y-56289873D01*
X148526788Y-56211232D01*
X148666928Y-56109414D01*
X148789414Y-55986928D01*
X148891232Y-55846788D01*
X148969873Y-55692445D01*
X149023402Y-55527701D01*
X149050500Y-55356611D01*
X149050500Y-55183389D01*
X149023402Y-55012299D01*
X148969873Y-54847555D01*
X148891232Y-54693212D01*
X148789414Y-54553072D01*
X148666928Y-54430586D01*
X148526788Y-54328768D01*
X148372445Y-54250127D01*
X148207701Y-54196598D01*
X148207699Y-54196597D01*
X148207698Y-54196597D01*
X148076271Y-54175781D01*
X148036611Y-54169500D01*
X147863389Y-54169500D01*
X147823728Y-54175781D01*
X147692302Y-54196597D01*
X147527552Y-54250128D01*
X147373208Y-54328770D01*
X147248314Y-54419510D01*
X147248306Y-54419517D01*
X147233072Y-54430586D01*
X147110586Y-54553072D01*
X147099517Y-54568306D01*
X147099510Y-54568314D01*
X147008770Y-54693208D01*
X146930128Y-54847552D01*
X146876597Y-55012302D01*
X146849500Y-55183389D01*
X146133713Y-55183389D01*
X147450284Y-53866818D01*
X147511607Y-53833333D01*
X147537965Y-53830499D01*
X148794856Y-53830499D01*
X148794864Y-53830499D01*
X148794879Y-53830497D01*
X148794882Y-53830497D01*
X148819987Y-53827586D01*
X148819988Y-53827585D01*
X148819991Y-53827585D01*
X148922765Y-53782206D01*
X149002206Y-53702765D01*
X149047585Y-53599991D01*
X149050500Y-53574865D01*
X149050499Y-51885136D01*
X149050396Y-51884247D01*
X149047586Y-51860012D01*
X149047585Y-51860010D01*
X149047585Y-51860009D01*
X149002206Y-51757235D01*
X148922765Y-51677794D01*
X148889109Y-51662933D01*
X148835734Y-51617848D01*
X148815207Y-51551062D01*
X148834045Y-51483780D01*
X148886269Y-51437363D01*
X148939197Y-51425500D01*
X151252163Y-51425500D01*
X151319202Y-51445185D01*
X151364957Y-51497989D01*
X151374901Y-51567147D01*
X151345876Y-51630703D01*
X151325047Y-51649819D01*
X151324077Y-51650523D01*
X151324077Y-51650524D01*
X151961415Y-52287861D01*
X151876306Y-52310667D01*
X151773694Y-52369910D01*
X151689910Y-52453694D01*
X151630667Y-52556306D01*
X151607861Y-52641414D01*
X150970524Y-52004077D01*
X150970523Y-52004077D01*
X150938143Y-52048644D01*
X150845244Y-52230968D01*
X150782009Y-52425582D01*
X150750000Y-52627682D01*
X150750000Y-52832317D01*
X150782009Y-53034417D01*
X150845244Y-53229031D01*
X150938141Y-53411350D01*
X150938147Y-53411359D01*
X150970523Y-53455921D01*
X150970524Y-53455922D01*
X151607861Y-52818584D01*
X151630667Y-52903694D01*
X151689910Y-53006306D01*
X151773694Y-53090090D01*
X151876306Y-53149333D01*
X151961414Y-53172137D01*
X151324076Y-53809474D01*
X151368650Y-53841859D01*
X151550970Y-53934755D01*
X151711613Y-53986952D01*
X151769289Y-54026390D01*
X151796487Y-54090748D01*
X151784572Y-54159595D01*
X151737328Y-54211070D01*
X151711615Y-54222814D01*
X151627549Y-54250129D01*
X151473211Y-54328768D01*
X151396734Y-54384333D01*
X151333072Y-54430586D01*
X151333070Y-54430588D01*
X151333069Y-54430588D01*
X151210588Y-54553069D01*
X151210588Y-54553070D01*
X151210586Y-54553072D01*
X151174467Y-54602785D01*
X151108768Y-54693211D01*
X151030128Y-54847552D01*
X150976597Y-55012302D01*
X150949500Y-55183389D01*
X150949500Y-55356610D01*
X150976460Y-55526835D01*
X150976598Y-55527701D01*
X151030127Y-55692445D01*
X151108768Y-55846788D01*
X151210586Y-55986928D01*
X151333072Y-56109414D01*
X151473212Y-56211232D01*
X151627555Y-56289873D01*
X151792299Y-56343402D01*
X151963389Y-56370500D01*
X151963390Y-56370500D01*
X152136610Y-56370500D01*
X152136611Y-56370500D01*
X152307701Y-56343402D01*
X152396918Y-56314412D01*
X152466756Y-56312418D01*
X152522915Y-56344663D01*
X153038181Y-56859928D01*
X153071666Y-56921251D01*
X153074500Y-56947609D01*
X153074500Y-64443982D01*
X153074500Y-64556018D01*
X153103497Y-64664237D01*
X153159515Y-64761263D01*
X153959515Y-65561263D01*
X154038737Y-65640485D01*
X154135763Y-65696503D01*
X154243982Y-65725500D01*
X157956341Y-65725500D01*
X158023380Y-65745185D01*
X158064787Y-65792971D01*
X158066186Y-65792224D01*
X158069055Y-65797592D01*
X158184025Y-65969658D01*
X158185810Y-65971833D01*
X158186388Y-65973195D01*
X158187408Y-65974721D01*
X158187118Y-65974914D01*
X158213124Y-66036142D01*
X158201334Y-66105010D01*
X158154182Y-66156571D01*
X158089958Y-66174499D01*
X148243659Y-66174499D01*
X148176620Y-66154814D01*
X148135212Y-66107027D01*
X148133814Y-66107775D01*
X148130944Y-66102406D01*
X148130679Y-66102010D01*
X148015977Y-65930344D01*
X148015975Y-65930341D01*
X147869657Y-65784023D01*
X147740076Y-65697441D01*
X147697598Y-65669058D01*
X147506420Y-65589869D01*
X147506412Y-65589867D01*
X147303469Y-65549499D01*
X147303465Y-65549499D01*
X147096535Y-65549499D01*
X147096530Y-65549499D01*
X146893587Y-65589867D01*
X146893579Y-65589869D01*
X146702403Y-65669057D01*
X146530342Y-65784023D01*
X146384024Y-65930341D01*
X146269055Y-66102406D01*
X146266186Y-66107775D01*
X146263943Y-66106576D01*
X146227087Y-66152337D01*
X146160799Y-66174419D01*
X146156341Y-66174499D01*
X140599500Y-66174499D01*
X140532461Y-66154814D01*
X140486706Y-66102010D01*
X140475500Y-66050499D01*
X140475500Y-60878711D01*
X148149500Y-60878711D01*
X148149500Y-61121288D01*
X148181161Y-61361785D01*
X148243947Y-61596104D01*
X148248071Y-61606059D01*
X148336776Y-61820212D01*
X148458064Y-62030289D01*
X148458066Y-62030292D01*
X148458067Y-62030293D01*
X148605733Y-62222736D01*
X148605739Y-62222743D01*
X148777256Y-62394260D01*
X148777263Y-62394266D01*
X148883592Y-62475855D01*
X148969711Y-62541936D01*
X149179788Y-62663224D01*
X149403900Y-62756054D01*
X149638211Y-62818838D01*
X149818586Y-62842584D01*
X149878711Y-62850500D01*
X149878712Y-62850500D01*
X150121289Y-62850500D01*
X150169388Y-62844167D01*
X150361789Y-62818838D01*
X150596100Y-62756054D01*
X150820212Y-62663224D01*
X151030289Y-62541936D01*
X151222738Y-62394265D01*
X151394265Y-62222738D01*
X151541936Y-62030289D01*
X151663224Y-61820212D01*
X151756054Y-61596100D01*
X151818838Y-61361789D01*
X151850500Y-61121288D01*
X151850500Y-60878712D01*
X151848886Y-60866456D01*
X151825484Y-60688694D01*
X151818838Y-60638211D01*
X151756054Y-60403900D01*
X151663224Y-60179788D01*
X151541936Y-59969711D01*
X151394265Y-59777262D01*
X151394260Y-59777256D01*
X151222743Y-59605739D01*
X151222736Y-59605733D01*
X151030293Y-59458067D01*
X151030292Y-59458066D01*
X151030289Y-59458064D01*
X150820212Y-59336776D01*
X150820205Y-59336773D01*
X150596104Y-59243947D01*
X150361785Y-59181161D01*
X150121289Y-59149500D01*
X150121288Y-59149500D01*
X149878712Y-59149500D01*
X149878711Y-59149500D01*
X149638214Y-59181161D01*
X149403895Y-59243947D01*
X149179794Y-59336773D01*
X149179785Y-59336777D01*
X148969706Y-59458067D01*
X148777263Y-59605733D01*
X148777256Y-59605739D01*
X148605739Y-59777256D01*
X148605733Y-59777263D01*
X148458067Y-59969706D01*
X148336777Y-60179785D01*
X148336773Y-60179794D01*
X148243947Y-60403895D01*
X148181161Y-60638214D01*
X148149500Y-60878711D01*
X140475500Y-60878711D01*
X140475500Y-56364303D01*
X140495185Y-56297264D01*
X140543204Y-56253819D01*
X140626788Y-56211232D01*
X140766928Y-56109414D01*
X140889414Y-55986928D01*
X140991232Y-55846788D01*
X141069873Y-55692445D01*
X141123402Y-55527701D01*
X141150500Y-55356611D01*
X141150500Y-55183389D01*
X141123402Y-55012299D01*
X141069873Y-54847555D01*
X140991232Y-54693212D01*
X140889414Y-54553072D01*
X140766928Y-54430586D01*
X140626788Y-54328768D01*
X140472449Y-54250128D01*
X140388385Y-54222814D01*
X140330710Y-54183376D01*
X140303512Y-54119017D01*
X140315427Y-54050171D01*
X140362672Y-53998695D01*
X140388386Y-53986952D01*
X140549029Y-53934755D01*
X140731349Y-53841859D01*
X140775921Y-53809474D01*
X140138585Y-53172138D01*
X140223694Y-53149333D01*
X140326306Y-53090090D01*
X140410090Y-53006306D01*
X140469333Y-52903694D01*
X140492138Y-52818585D01*
X141129474Y-53455921D01*
X141161859Y-53411349D01*
X141254755Y-53229031D01*
X141317990Y-53034417D01*
X141350000Y-52832317D01*
X141350000Y-52627682D01*
X141317990Y-52425582D01*
X141254755Y-52230968D01*
X141161859Y-52048650D01*
X141129474Y-52004077D01*
X141129474Y-52004076D01*
X140492137Y-52641413D01*
X140469333Y-52556306D01*
X140410090Y-52453694D01*
X140326306Y-52369910D01*
X140223694Y-52310667D01*
X140138584Y-52287861D01*
X140775922Y-51650524D01*
X140774951Y-51649819D01*
X140732285Y-51594489D01*
X140726306Y-51524876D01*
X140758911Y-51463080D01*
X140819749Y-51428723D01*
X140847836Y-51425500D01*
X146960803Y-51425500D01*
X147027842Y-51445185D01*
G37*
%TD.AperFunction*%
%TA.AperFunction,Conductor*%
G36*
X159027842Y-51445185D02*
G01*
X159073597Y-51497989D01*
X159083541Y-51567147D01*
X159054516Y-51630703D01*
X159010890Y-51662934D01*
X158977234Y-51677794D01*
X158897794Y-51757234D01*
X158852415Y-51860006D01*
X158852415Y-51860008D01*
X158849500Y-51885131D01*
X158849500Y-53574856D01*
X158849502Y-53574882D01*
X158852413Y-53599987D01*
X158852415Y-53599991D01*
X158897793Y-53702764D01*
X158897794Y-53702765D01*
X158977235Y-53782206D01*
X159080009Y-53827585D01*
X159105135Y-53830500D01*
X160362033Y-53830499D01*
X160429072Y-53850184D01*
X160449714Y-53866818D01*
X160982756Y-54399859D01*
X161513181Y-54930284D01*
X161546666Y-54991607D01*
X161549500Y-55017965D01*
X161549500Y-56918433D01*
X161529815Y-56985472D01*
X161481796Y-57028917D01*
X161423214Y-57058766D01*
X161353142Y-57109677D01*
X161283072Y-57160586D01*
X161283070Y-57160588D01*
X161283069Y-57160588D01*
X161160588Y-57283069D01*
X161160588Y-57283070D01*
X161160586Y-57283072D01*
X161131440Y-57323188D01*
X161058768Y-57423211D01*
X160980128Y-57577552D01*
X160926597Y-57742302D01*
X160924575Y-57755070D01*
X160899500Y-57913389D01*
X160899500Y-58086611D01*
X160926598Y-58257701D01*
X160939561Y-58297598D01*
X160980128Y-58422447D01*
X161010088Y-58481247D01*
X161058768Y-58576788D01*
X161160586Y-58716928D01*
X161283072Y-58839414D01*
X161423212Y-58941232D01*
X161577555Y-59019873D01*
X161742299Y-59073402D01*
X161913389Y-59100500D01*
X161913390Y-59100500D01*
X162086610Y-59100500D01*
X162086611Y-59100500D01*
X162257701Y-59073402D01*
X162422445Y-59019873D01*
X162576788Y-58941232D01*
X162716928Y-58839414D01*
X162839414Y-58716928D01*
X162941232Y-58576788D01*
X163019873Y-58422445D01*
X163073402Y-58257701D01*
X163100500Y-58086611D01*
X163100500Y-57913389D01*
X163073402Y-57742299D01*
X163019873Y-57577555D01*
X162941232Y-57423212D01*
X162839414Y-57283072D01*
X162716928Y-57160586D01*
X162576788Y-57058768D01*
X162576787Y-57058767D01*
X162576785Y-57058766D01*
X162518204Y-57028917D01*
X162467409Y-56980943D01*
X162450500Y-56918433D01*
X162450500Y-54720693D01*
X162450500Y-54720691D01*
X162419799Y-54606114D01*
X162419799Y-54606113D01*
X162419799Y-54606112D01*
X162360492Y-54503389D01*
X162360488Y-54503384D01*
X161086818Y-53229714D01*
X161053333Y-53168391D01*
X161050499Y-53142033D01*
X161050499Y-51885143D01*
X161050499Y-51885136D01*
X161050396Y-51884247D01*
X161047586Y-51860012D01*
X161047585Y-51860010D01*
X161047585Y-51860009D01*
X161002206Y-51757235D01*
X160922765Y-51677794D01*
X160889109Y-51662933D01*
X160835734Y-51617848D01*
X160815207Y-51551062D01*
X160834045Y-51483780D01*
X160886269Y-51437363D01*
X160939197Y-51425500D01*
X163252163Y-51425500D01*
X163319202Y-51445185D01*
X163364957Y-51497989D01*
X163374901Y-51567147D01*
X163345876Y-51630703D01*
X163325047Y-51649819D01*
X163324077Y-51650523D01*
X163324077Y-51650524D01*
X163961415Y-52287861D01*
X163876306Y-52310667D01*
X163773694Y-52369910D01*
X163689910Y-52453694D01*
X163630667Y-52556306D01*
X163607861Y-52641414D01*
X162970524Y-52004077D01*
X162970523Y-52004077D01*
X162938143Y-52048644D01*
X162845244Y-52230968D01*
X162782009Y-52425582D01*
X162750000Y-52627682D01*
X162750000Y-52832317D01*
X162782009Y-53034417D01*
X162845244Y-53229031D01*
X162938141Y-53411350D01*
X162938147Y-53411359D01*
X162970523Y-53455921D01*
X162970524Y-53455922D01*
X163607861Y-52818584D01*
X163630667Y-52903694D01*
X163689910Y-53006306D01*
X163773694Y-53090090D01*
X163876306Y-53149333D01*
X163961414Y-53172137D01*
X163324076Y-53809474D01*
X163368650Y-53841859D01*
X163550970Y-53934755D01*
X163711613Y-53986952D01*
X163769289Y-54026390D01*
X163796487Y-54090748D01*
X163784572Y-54159595D01*
X163737328Y-54211070D01*
X163711615Y-54222814D01*
X163627549Y-54250129D01*
X163473211Y-54328768D01*
X163396734Y-54384333D01*
X163333072Y-54430586D01*
X163333070Y-54430588D01*
X163333069Y-54430588D01*
X163210588Y-54553069D01*
X163210588Y-54553070D01*
X163210586Y-54553072D01*
X163174467Y-54602785D01*
X163108768Y-54693211D01*
X163030128Y-54847552D01*
X162976597Y-55012302D01*
X162949500Y-55183389D01*
X162949500Y-55356610D01*
X162976460Y-55526835D01*
X162976598Y-55527701D01*
X163030127Y-55692445D01*
X163108768Y-55846788D01*
X163210586Y-55986928D01*
X163333072Y-56109414D01*
X163412186Y-56166894D01*
X163473207Y-56211229D01*
X163473209Y-56211230D01*
X163473212Y-56211232D01*
X163556795Y-56253819D01*
X163607590Y-56301792D01*
X163624500Y-56364303D01*
X163624500Y-63143982D01*
X163624500Y-63256018D01*
X163653497Y-63364237D01*
X163709515Y-63461263D01*
X164509515Y-64261263D01*
X164588737Y-64340485D01*
X164685763Y-64396503D01*
X164793982Y-64425500D01*
X169956341Y-64425500D01*
X170023380Y-64445185D01*
X170064787Y-64492971D01*
X170066186Y-64492224D01*
X170069055Y-64497592D01*
X170069058Y-64497597D01*
X170069059Y-64497598D01*
X170184023Y-64669655D01*
X170184026Y-64669658D01*
X170185810Y-64671832D01*
X170186389Y-64673197D01*
X170187408Y-64674721D01*
X170187119Y-64674914D01*
X170213125Y-64736142D01*
X170201336Y-64805009D01*
X170154185Y-64856571D01*
X170089959Y-64874500D01*
X160043659Y-64874500D01*
X159976620Y-64854815D01*
X159935212Y-64807028D01*
X159933814Y-64807776D01*
X159930944Y-64802407D01*
X159930679Y-64802011D01*
X159815977Y-64630345D01*
X159815975Y-64630342D01*
X159669657Y-64484024D01*
X159538671Y-64396503D01*
X159497598Y-64369059D01*
X159475899Y-64360071D01*
X159306420Y-64289870D01*
X159306412Y-64289868D01*
X159103469Y-64249500D01*
X159103465Y-64249500D01*
X158896535Y-64249500D01*
X158896530Y-64249500D01*
X158693587Y-64289868D01*
X158693579Y-64289870D01*
X158502403Y-64369058D01*
X158330342Y-64484024D01*
X158184024Y-64630342D01*
X158069055Y-64802407D01*
X158066186Y-64807776D01*
X158063943Y-64806577D01*
X158027087Y-64852338D01*
X157960799Y-64874420D01*
X157956341Y-64874500D01*
X154527610Y-64874500D01*
X154460571Y-64854815D01*
X154439929Y-64838181D01*
X153961819Y-64360071D01*
X153928334Y-64298748D01*
X153925500Y-64272390D01*
X153925500Y-58549500D01*
X153945185Y-58482461D01*
X153997989Y-58436706D01*
X154049500Y-58425500D01*
X154905697Y-58425500D01*
X154972736Y-58445185D01*
X155016180Y-58493204D01*
X155036258Y-58532609D01*
X155058766Y-58576784D01*
X155058770Y-58576792D01*
X155101100Y-58635053D01*
X155160586Y-58716928D01*
X155283072Y-58839414D01*
X155423212Y-58941232D01*
X155577555Y-59019873D01*
X155742299Y-59073402D01*
X155913389Y-59100500D01*
X155913390Y-59100500D01*
X156086610Y-59100500D01*
X156086611Y-59100500D01*
X156257701Y-59073402D01*
X156422445Y-59019873D01*
X156576788Y-58941232D01*
X156716928Y-58839414D01*
X156839414Y-58716928D01*
X156941232Y-58576788D01*
X157019873Y-58422445D01*
X157073402Y-58257701D01*
X157100500Y-58086611D01*
X157100500Y-57913389D01*
X157073402Y-57742299D01*
X157019873Y-57577555D01*
X156941232Y-57423212D01*
X156839414Y-57283072D01*
X156716928Y-57160586D01*
X156576788Y-57058768D01*
X156422445Y-56980127D01*
X156257701Y-56926598D01*
X156257699Y-56926597D01*
X156257698Y-56926597D01*
X156125725Y-56905695D01*
X156086611Y-56899500D01*
X155913389Y-56899500D01*
X155874275Y-56905695D01*
X155742302Y-56926597D01*
X155577552Y-56980128D01*
X155423211Y-57058768D01*
X155343256Y-57116859D01*
X155283072Y-57160586D01*
X155283070Y-57160588D01*
X155283069Y-57160588D01*
X155160588Y-57283069D01*
X155160588Y-57283070D01*
X155160586Y-57283072D01*
X155146542Y-57302402D01*
X155058770Y-57423207D01*
X155058766Y-57423215D01*
X155049822Y-57440770D01*
X155016180Y-57506795D01*
X154968208Y-57557590D01*
X154905697Y-57574500D01*
X154049500Y-57574500D01*
X153982461Y-57554815D01*
X153936706Y-57502011D01*
X153925500Y-57450500D01*
X153925500Y-56663983D01*
X153925500Y-56663981D01*
X153896503Y-56555762D01*
X153840485Y-56458736D01*
X153761263Y-56379514D01*
X153761262Y-56379513D01*
X153124662Y-55742914D01*
X153091178Y-55681592D01*
X153094412Y-55616918D01*
X153123402Y-55527701D01*
X153150500Y-55356611D01*
X153150500Y-55183389D01*
X158849500Y-55183389D01*
X158849500Y-55356610D01*
X158876460Y-55526835D01*
X158876598Y-55527701D01*
X158930127Y-55692445D01*
X159008768Y-55846788D01*
X159110586Y-55986928D01*
X159233072Y-56109414D01*
X159373212Y-56211232D01*
X159527555Y-56289873D01*
X159692299Y-56343402D01*
X159863389Y-56370500D01*
X159863390Y-56370500D01*
X160036610Y-56370500D01*
X160036611Y-56370500D01*
X160207701Y-56343402D01*
X160372445Y-56289873D01*
X160526788Y-56211232D01*
X160666928Y-56109414D01*
X160789414Y-55986928D01*
X160891232Y-55846788D01*
X160969873Y-55692445D01*
X161023402Y-55527701D01*
X161050500Y-55356611D01*
X161050500Y-55183389D01*
X161023402Y-55012299D01*
X160969873Y-54847555D01*
X160891232Y-54693212D01*
X160789414Y-54553072D01*
X160666928Y-54430586D01*
X160526788Y-54328768D01*
X160372445Y-54250127D01*
X160207701Y-54196598D01*
X160207699Y-54196597D01*
X160207698Y-54196597D01*
X160076271Y-54175781D01*
X160036611Y-54169500D01*
X159863389Y-54169500D01*
X159823728Y-54175781D01*
X159692302Y-54196597D01*
X159527552Y-54250128D01*
X159373211Y-54328768D01*
X159296734Y-54384333D01*
X159233072Y-54430586D01*
X159233070Y-54430588D01*
X159233069Y-54430588D01*
X159110588Y-54553069D01*
X159110588Y-54553070D01*
X159110586Y-54553072D01*
X159074467Y-54602785D01*
X159008768Y-54693211D01*
X158930128Y-54847552D01*
X158876597Y-55012302D01*
X158849500Y-55183389D01*
X153150500Y-55183389D01*
X153123402Y-55012299D01*
X153069873Y-54847555D01*
X152991232Y-54693212D01*
X152889414Y-54553072D01*
X152766928Y-54430586D01*
X152626788Y-54328768D01*
X152472449Y-54250128D01*
X152388385Y-54222814D01*
X152330710Y-54183376D01*
X152303512Y-54119017D01*
X152315427Y-54050171D01*
X152362672Y-53998695D01*
X152388386Y-53986952D01*
X152549029Y-53934755D01*
X152731349Y-53841859D01*
X152775922Y-53809474D01*
X152138585Y-53172138D01*
X152223694Y-53149333D01*
X152326306Y-53090090D01*
X152410090Y-53006306D01*
X152469333Y-52903694D01*
X152492138Y-52818585D01*
X153129474Y-53455921D01*
X153161859Y-53411349D01*
X153254755Y-53229031D01*
X153317990Y-53034417D01*
X153350000Y-52832317D01*
X153350000Y-52627682D01*
X153317990Y-52425582D01*
X153254755Y-52230968D01*
X153161859Y-52048650D01*
X153129474Y-52004077D01*
X153129474Y-52004076D01*
X152492137Y-52641413D01*
X152469333Y-52556306D01*
X152410090Y-52453694D01*
X152326306Y-52369910D01*
X152223694Y-52310667D01*
X152138584Y-52287861D01*
X152775922Y-51650524D01*
X152774951Y-51649819D01*
X152732285Y-51594489D01*
X152726306Y-51524876D01*
X152758911Y-51463080D01*
X152819749Y-51428723D01*
X152847836Y-51425500D01*
X158960803Y-51425500D01*
X159027842Y-51445185D01*
G37*
%TD.AperFunction*%
%TD*%
M02*
