%TF.GenerationSoftware,KiCad,Pcbnew,10.0.6*%
%TF.CreationDate,2026-10-09T02:43:07+09:00*%
%TF.ProjectId,Linetracer2-Lite,4c696e65-7472-4616-9365-72322d4c6974,rev?*%
%TF.SameCoordinates,Original*%
%TF.FileFunction,Soldermask,Bot*%
%TF.FilePolarity,Negative*%
%FSLAX46Y46*%
G04 Gerber Fmt 4.6, Leading zero omitted, Abs format (unit mm)*
G04 Created by KiCad (PCBNEW 10.0.6) date 2026-10-09 02:43:07*
%MOMM*%
%LPD*%
G01*
G04 APERTURE LIST*
G04 Aperture macros list*
%AMRoundRect*
0 Rectangle with rounded corners*
0 $1 Rounding radius*
0 $2 $3 $4 $5 $6 $7 $8 $9 X,Y pos of 4 corners*
0 Add a 4 corners polygon primitive as box body*
4,1,4,$2,$3,$4,$5,$6,$7,$8,$9,$2,$3,0*
0 Add four circle primitives for the rounded corners*
1,1,$1+$1,$2,$3*
1,1,$1+$1,$4,$5*
1,1,$1+$1,$6,$7*
1,1,$1+$1,$8,$9*
0 Add four rect primitives between the rounded corners*
20,1,$1+$1,$2,$3,$4,$5,0*
20,1,$1+$1,$4,$5,$6,$7,0*
20,1,$1+$1,$6,$7,$8,$9,0*
20,1,$1+$1,$8,$9,$2,$3,0*%
G04 Aperture macros list end*
%ADD10C,1.600000*%
%ADD11R,1.700000X1.700000*%
%ADD12C,1.700000*%
%ADD13C,1.400000*%
%ADD14C,3.200000*%
%ADD15RoundRect,0.249999X-0.850001X0.850001X-0.850001X-0.850001X0.850001X-0.850001X0.850001X0.850001X0*%
%ADD16C,2.200000*%
%ADD17R,2.300000X2.300000*%
%ADD18C,2.300000*%
%ADD19R,1.800000X1.800000*%
%ADD20C,1.800000*%
%ADD21R,1.500000X1.500000*%
%ADD22C,1.500000*%
%ADD23RoundRect,0.250000X0.550000X-0.550000X0.550000X0.550000X-0.550000X0.550000X-0.550000X-0.550000X0*%
%ADD24C,2.000000*%
%ADD25R,1.500000X2.400000*%
%ADD26O,1.500000X2.400000*%
%ADD27RoundRect,0.250000X0.550000X0.550000X-0.550000X0.550000X-0.550000X-0.550000X0.550000X-0.550000X0*%
%ADD28R,1.600000X1.600000*%
G04 APERTURE END LIST*
D10*
%TO.C,R6*%
X168000000Y-68160000D03*
X168000000Y-58000000D03*
%TD*%
D11*
%TO.C,U1*%
X178670000Y-73380000D03*
D12*
X176130000Y-73380000D03*
X173590000Y-73380000D03*
X171050000Y-73380000D03*
X168510000Y-73380000D03*
X165970000Y-73380000D03*
X163430000Y-73380000D03*
X163430000Y-88620000D03*
X165970000Y-88620000D03*
X168510000Y-88620000D03*
X171050000Y-88620000D03*
X173590000Y-88620000D03*
X176130000Y-88620000D03*
X178670000Y-88620000D03*
%TD*%
D10*
%TO.C,R3*%
X162000000Y-68160000D03*
X162000000Y-58000000D03*
%TD*%
D13*
%TO.C,D6*%
X180150000Y-62235000D03*
X178350000Y-63505000D03*
X178350000Y-60965000D03*
X180150000Y-59695000D03*
%TD*%
D10*
%TO.C,C3*%
X145790000Y-108350000D03*
X143290000Y-108350000D03*
%TD*%
D13*
%TO.C,D5*%
X180150000Y-55235000D03*
X178350000Y-56505000D03*
X178350000Y-53965000D03*
X180150000Y-52695000D03*
%TD*%
D14*
%TO.C,H3*%
X170000000Y-112000000D03*
%TD*%
D15*
%TO.C,D1*%
X180600000Y-95250000D03*
D16*
X180600000Y-105410000D03*
%TD*%
D13*
%TO.C,D2*%
X119850000Y-67965000D03*
X121650000Y-66695000D03*
X121650000Y-69235000D03*
X119850000Y-70505000D03*
%TD*%
D10*
%TO.C,C4*%
X156750000Y-108350000D03*
X154250000Y-108350000D03*
%TD*%
%TO.C,R4*%
X138000000Y-68160000D03*
X138000000Y-58000000D03*
%TD*%
D12*
%TO.C,M1*%
X145579999Y-114900000D03*
X140499999Y-114900000D03*
D17*
X145579999Y-111500000D03*
D18*
X140499999Y-111500000D03*
%TD*%
D13*
%TO.C,D7*%
X180150000Y-69235000D03*
X178350000Y-70505000D03*
X178350000Y-67965000D03*
X180150000Y-66695000D03*
%TD*%
D10*
%TO.C,R1*%
X132000000Y-68160000D03*
X132000000Y-58000000D03*
%TD*%
D19*
%TO.C,U2*%
X158890000Y-97790000D03*
D20*
X156350000Y-97790000D03*
X153810000Y-97790000D03*
X151270000Y-97790000D03*
X148730000Y-97790000D03*
X146190000Y-97790000D03*
X143650000Y-97790000D03*
X141110000Y-97790000D03*
X141110000Y-105410000D03*
X143650000Y-105410000D03*
X146190000Y-105410000D03*
X148730000Y-105410000D03*
X151270000Y-105410000D03*
X153810000Y-105410000D03*
X156350000Y-105410000D03*
X158890000Y-105410000D03*
%TD*%
D10*
%TO.C,R10*%
X125580000Y-74500000D03*
X125580000Y-84660000D03*
%TD*%
D13*
%TO.C,D3*%
X119850000Y-60965000D03*
X121650000Y-59695000D03*
X121650000Y-62235000D03*
X119850000Y-63505000D03*
%TD*%
D21*
%TO.C,Q1*%
X130660000Y-53200000D03*
D22*
X128120000Y-53200000D03*
X125580000Y-53200000D03*
%TD*%
D14*
%TO.C,H2*%
X130000000Y-146000000D03*
%TD*%
D23*
%TO.C,C1*%
X164800000Y-104250000D03*
D10*
X164800000Y-100750000D03*
%TD*%
D19*
%TO.C,BZ1*%
X132500000Y-97500000D03*
D20*
X132500000Y-102500000D03*
%TD*%
D12*
%TO.C,M2*%
X159500000Y-114900000D03*
X154420000Y-114900000D03*
D17*
X159500000Y-111500000D03*
D18*
X154420000Y-111500000D03*
%TD*%
D24*
%TO.C,SW1*%
X119080000Y-87400000D03*
X125580000Y-87400000D03*
X119080000Y-91900000D03*
X125580000Y-91900000D03*
%TD*%
D14*
%TO.C,H4*%
X170000000Y-146000000D03*
%TD*%
D13*
%TO.C,D4*%
X119850000Y-53965000D03*
X121650000Y-52695000D03*
X121650000Y-55235000D03*
X119850000Y-56505000D03*
%TD*%
D10*
%TO.C,R7*%
X125580000Y-68160000D03*
X125580000Y-58000000D03*
%TD*%
D25*
%TO.C,J1*%
X172800000Y-103000000D03*
D26*
X175300000Y-103000000D03*
%TD*%
D27*
%TO.C,C2*%
X176350000Y-95250000D03*
D10*
X172850000Y-95250000D03*
%TD*%
D14*
%TO.C,H5*%
X150000000Y-61000000D03*
%TD*%
%TO.C,H1*%
X130000000Y-112000000D03*
%TD*%
D10*
%TO.C,R9*%
X132500000Y-74500000D03*
X132500000Y-84660000D03*
%TD*%
%TO.C,R5*%
X156000000Y-68160000D03*
X156000000Y-58000000D03*
%TD*%
%TO.C,R2*%
X144000000Y-68160000D03*
X144000000Y-58000000D03*
%TD*%
D28*
%TO.C,PS1*%
X135950000Y-52730000D03*
D10*
X135950000Y-55270000D03*
X140050000Y-52730000D03*
X140050000Y-55270000D03*
%TD*%
D28*
%TO.C,PS2*%
X147950000Y-52730000D03*
D10*
X147950000Y-55270000D03*
X152050000Y-52730000D03*
X152050000Y-55270000D03*
%TD*%
D28*
%TO.C,PS3*%
X159950000Y-52730000D03*
D10*
X159950000Y-55270000D03*
X164050000Y-52730000D03*
X164050000Y-55270000D03*
%TD*%
M02*
