%TF.GenerationSoftware,KiCad,Pcbnew,10.0.6*%
%TF.CreationDate,2026-10-08T19:36:36+09:00*%
%TF.ProjectId,Linetracer2-Lite,4c696e65-7472-4616-9365-72322d4c6974,rev?*%
%TF.SameCoordinates,Original*%
%TF.FileFunction,Soldermask,Bot*%
%TF.FilePolarity,Negative*%
%FSLAX46Y46*%
G04 Gerber Fmt 4.6, Leading zero omitted, Abs format (unit mm)*
G04 Created by KiCad (PCBNEW 10.0.6) date 2026-10-08 19:36:36*
%MOMM*%
%LPD*%
G01*
G04 APERTURE LIST*
G04 Aperture macros list*
%AMRoundRect*
0 Rectangle with rounded corners*
0 $1 Rounding radius*
0 $2 $3 $4 $5 $6 $7 $8 $9 X,Y pos of 4 corners*
0 Add a 4 corners polygon primitive as box body*
4,1,4,$2,$3,$4,$5,$6,$7,$8,$9,$2,$3,0*
0 Add four circle primitives for the rounded corners*
1,1,$1+$1,$2,$3*
1,1,$1+$1,$4,$5*
1,1,$1+$1,$6,$7*
1,1,$1+$1,$8,$9*
0 Add four rect primitives between the rounded corners*
20,1,$1+$1,$2,$3,$4,$5,0*
20,1,$1+$1,$4,$5,$6,$7,0*
20,1,$1+$1,$6,$7,$8,$9,0*
20,1,$1+$1,$8,$9,$2,$3,0*%
G04 Aperture macros list end*
%ADD10C,1.700000*%
%ADD11R,2.300000X2.300000*%
%ADD12C,2.300000*%
%ADD13R,1.800000X1.800000*%
%ADD14C,1.800000*%
%ADD15R,1.500000X2.400000*%
%ADD16O,1.500000X2.400000*%
%ADD17C,3.200000*%
%ADD18C,1.600000*%
%ADD19RoundRect,0.250000X0.550000X-0.550000X0.550000X0.550000X-0.550000X0.550000X-0.550000X-0.550000X0*%
%ADD20C,1.500000*%
%ADD21R,1.500000X1.500000*%
%ADD22RoundRect,0.250000X0.550000X0.550000X-0.550000X0.550000X-0.550000X-0.550000X0.550000X-0.550000X0*%
%ADD23RoundRect,0.249999X-0.850001X0.850001X-0.850001X-0.850001X0.850001X-0.850001X0.850001X0.850001X0*%
%ADD24C,2.200000*%
%ADD25C,2.000000*%
%ADD26R,1.700000X1.700000*%
%ADD27R,1.600000X1.600000*%
G04 APERTURE END LIST*
D10*
%TO.C,M1*%
X145579999Y-114900000D03*
X140499999Y-114900000D03*
D11*
X145579999Y-111500000D03*
D12*
X140499999Y-111500000D03*
%TD*%
D13*
%TO.C,BZ1*%
X132500000Y-97500000D03*
D14*
X132500000Y-102500000D03*
%TD*%
D15*
%TO.C,J1*%
X172800000Y-103000000D03*
D16*
X175300000Y-103000000D03*
%TD*%
D17*
%TO.C,H3*%
X170000000Y-112000000D03*
%TD*%
%TO.C,H5*%
X150000000Y-61000000D03*
%TD*%
D10*
%TO.C,M2*%
X159500000Y-114900000D03*
X154420000Y-114900000D03*
D11*
X159500000Y-111500000D03*
D12*
X154420000Y-111500000D03*
%TD*%
D18*
%TO.C,R2*%
X144000000Y-68160000D03*
X144000000Y-58000000D03*
%TD*%
D19*
%TO.C,C1*%
X164800000Y-104250000D03*
D18*
X164800000Y-100750000D03*
%TD*%
D20*
%TO.C,D6*%
X141865000Y-84900000D03*
X140595000Y-83100000D03*
X143135000Y-83100000D03*
D21*
X144405000Y-84900000D03*
%TD*%
D18*
%TO.C,R3*%
X162000000Y-68160000D03*
X162000000Y-58000000D03*
%TD*%
D22*
%TO.C,C2*%
X176350000Y-95250000D03*
D18*
X172850000Y-95250000D03*
%TD*%
D13*
%TO.C,U2*%
X158890000Y-97790000D03*
D14*
X156350000Y-97790000D03*
X153810000Y-97790000D03*
X151270000Y-97790000D03*
X148730000Y-97790000D03*
X146190000Y-97790000D03*
X143650000Y-97790000D03*
X141110000Y-97790000D03*
X141110000Y-105410000D03*
X143650000Y-105410000D03*
X146190000Y-105410000D03*
X148730000Y-105410000D03*
X151270000Y-105410000D03*
X153810000Y-105410000D03*
X156350000Y-105410000D03*
X158890000Y-105410000D03*
%TD*%
D18*
%TO.C,R7*%
X125580000Y-68160000D03*
X125580000Y-58000000D03*
%TD*%
%TO.C,C4*%
X156750000Y-108350000D03*
X154250000Y-108350000D03*
%TD*%
D23*
%TO.C,D1*%
X180600000Y-95250000D03*
D24*
X180600000Y-105410000D03*
%TD*%
D18*
%TO.C,R9*%
X132500000Y-74500000D03*
X132500000Y-84660000D03*
%TD*%
%TO.C,R6*%
X168000000Y-68160000D03*
X168000000Y-58000000D03*
%TD*%
%TO.C,R4*%
X138000000Y-68160000D03*
X138000000Y-58000000D03*
%TD*%
D20*
%TO.C,D5*%
X148865000Y-84900000D03*
X147595000Y-83100000D03*
X150135000Y-83100000D03*
D21*
X151405000Y-84900000D03*
%TD*%
D20*
%TO.C,D2*%
X139635000Y-76100000D03*
X140905000Y-77900000D03*
X138365000Y-77900000D03*
D21*
X137095000Y-76100000D03*
%TD*%
D17*
%TO.C,H1*%
X130000000Y-112000000D03*
%TD*%
D18*
%TO.C,R10*%
X125580000Y-74500000D03*
X125580000Y-84660000D03*
%TD*%
D20*
%TO.C,D4*%
X153635000Y-76100000D03*
X154905000Y-77900000D03*
X152365000Y-77900000D03*
D21*
X151095000Y-76100000D03*
%TD*%
D17*
%TO.C,H2*%
X130000000Y-146000000D03*
%TD*%
D25*
%TO.C,SW1*%
X119080000Y-87400000D03*
X125580000Y-87400000D03*
X119080000Y-91900000D03*
X125580000Y-91900000D03*
%TD*%
D18*
%TO.C,R5*%
X156000000Y-68160000D03*
X156000000Y-58000000D03*
%TD*%
D26*
%TO.C,U1*%
X178670000Y-73380000D03*
D10*
X176130000Y-73380000D03*
X173590000Y-73380000D03*
X171050000Y-73380000D03*
X168510000Y-73380000D03*
X165970000Y-73380000D03*
X163430000Y-73380000D03*
X163430000Y-88620000D03*
X165970000Y-88620000D03*
X168510000Y-88620000D03*
X171050000Y-88620000D03*
X173590000Y-88620000D03*
X176130000Y-88620000D03*
X178670000Y-88620000D03*
%TD*%
D17*
%TO.C,H4*%
X170000000Y-146000000D03*
%TD*%
D18*
%TO.C,C5*%
X136000000Y-81300000D03*
X136000000Y-83800000D03*
%TD*%
%TO.C,R1*%
X132000000Y-68160000D03*
X132000000Y-58000000D03*
%TD*%
%TO.C,C3*%
X145790000Y-108350000D03*
X143290000Y-108350000D03*
%TD*%
D21*
%TO.C,Q1*%
X120500000Y-54500000D03*
D20*
X123040000Y-54500000D03*
X125580000Y-54500000D03*
%TD*%
%TO.C,D3*%
X146635000Y-76100000D03*
X147905000Y-77900000D03*
X145365000Y-77900000D03*
D21*
X144095000Y-76100000D03*
%TD*%
D27*
%TO.C,PS1*%
X135950000Y-52730000D03*
D18*
X135950000Y-55270000D03*
X140050000Y-52730000D03*
X140050000Y-55270000D03*
%TD*%
D27*
%TO.C,PS2*%
X147950000Y-52730000D03*
D18*
X147950000Y-55270000D03*
X152050000Y-52730000D03*
X152050000Y-55270000D03*
%TD*%
D27*
%TO.C,PS3*%
X159950000Y-52730000D03*
D18*
X159950000Y-55270000D03*
X164050000Y-52730000D03*
X164050000Y-55270000D03*
%TD*%
M02*
