%TF.GenerationSoftware,KiCad,Pcbnew,10.0.6*%
%TF.CreationDate,2026-10-05T08:05:47+09:00*%
%TF.ProjectId,Linetracer2-Lite,4c696e65-7472-4616-9365-72322d4c6974,rev?*%
%TF.SameCoordinates,Original*%
%TF.FileFunction,Soldermask,Top*%
%TF.FilePolarity,Negative*%
%FSLAX46Y46*%
G04 Gerber Fmt 4.6, Leading zero omitted, Abs format (unit mm)*
G04 Created by KiCad (PCBNEW 10.0.6) date 2026-10-05 08:05:47*
%MOMM*%
%LPD*%
G01*
G04 APERTURE LIST*
G04 Aperture macros list*
%AMRoundRect*
0 Rectangle with rounded corners*
0 $1 Rounding radius*
0 $2 $3 $4 $5 $6 $7 $8 $9 X,Y pos of 4 corners*
0 Add a 4 corners polygon primitive as box body*
4,1,4,$2,$3,$4,$5,$6,$7,$8,$9,$2,$3,0*
0 Add four circle primitives for the rounded corners*
1,1,$1+$1,$2,$3*
1,1,$1+$1,$4,$5*
1,1,$1+$1,$6,$7*
1,1,$1+$1,$8,$9*
0 Add four rect primitives between the rounded corners*
20,1,$1+$1,$2,$3,$4,$5,0*
20,1,$1+$1,$4,$5,$6,$7,0*
20,1,$1+$1,$6,$7,$8,$9,0*
20,1,$1+$1,$8,$9,$2,$3,0*%
G04 Aperture macros list end*
%ADD10RoundRect,0.250000X-0.550000X-0.550000X0.550000X-0.550000X0.550000X0.550000X-0.550000X0.550000X0*%
%ADD11C,1.600000*%
%ADD12C,1.700000*%
%ADD13R,2.300000X2.300000*%
%ADD14C,2.300000*%
%ADD15C,3.200000*%
%ADD16C,2.200000*%
%ADD17C,1.850000*%
%ADD18RoundRect,0.425000X0.425000X-1.725000X0.425000X1.725000X-0.425000X1.725000X-0.425000X-1.725000X0*%
%ADD19O,1.700000X4.300000*%
%ADD20C,2.000000*%
%ADD21R,1.700000X1.700000*%
%ADD22R,1.800000X2.200000*%
%ADD23O,1.800000X2.200000*%
%ADD24R,1.800000X1.800000*%
%ADD25C,1.800000*%
%ADD26RoundRect,0.249999X-0.850001X-0.850001X0.850001X-0.850001X0.850001X0.850001X-0.850001X0.850001X0*%
%ADD27R,1.500000X1.500000*%
%ADD28C,1.500000*%
%ADD29R,1.600000X1.150000*%
%ADD30O,1.600000X1.150000*%
G04 APERTURE END LIST*
D10*
%TO.C,C1*%
X170250000Y-83000000D03*
D11*
X173750000Y-83000000D03*
%TD*%
%TO.C,R7*%
X102000000Y-63000000D03*
X112160000Y-63000000D03*
%TD*%
D12*
%TO.C,M1*%
X145580000Y-114900000D03*
X140500000Y-114900000D03*
D13*
X145580000Y-111500000D03*
D14*
X140500000Y-111500000D03*
%TD*%
D11*
%TO.C,R3*%
X159460000Y-68160000D03*
X159460000Y-58000000D03*
%TD*%
D15*
%TO.C,H5*%
X150000000Y-61000000D03*
%TD*%
D11*
%TO.C,C3*%
X141790000Y-108000000D03*
X144290000Y-108000000D03*
%TD*%
%TO.C,R2*%
X144000000Y-68160000D03*
X144000000Y-58000000D03*
%TD*%
D16*
%TO.C,U1*%
X102130000Y-95835000D03*
D17*
X105160000Y-95535000D03*
X105160000Y-90685000D03*
D16*
X102130000Y-90385000D03*
D18*
X102000000Y-103350000D03*
D19*
X104540000Y-103350000D03*
X107080000Y-103350000D03*
X109620000Y-103350000D03*
X112160000Y-103350000D03*
X114700000Y-103350000D03*
X117240000Y-103350000D03*
X119780000Y-103350000D03*
X122320000Y-103350000D03*
X124860000Y-103350000D03*
X127400000Y-103350000D03*
X129940000Y-103350000D03*
X132480000Y-103350000D03*
X135020000Y-103350000D03*
X137560000Y-103350000D03*
X140100000Y-103350000D03*
X142640000Y-103350000D03*
X145180000Y-103350000D03*
X147720000Y-103350000D03*
X150260000Y-103350000D03*
X150260000Y-82870000D03*
X147720000Y-82870000D03*
X145180000Y-82870000D03*
X142640000Y-82870000D03*
X140100000Y-82870000D03*
X137560000Y-82870000D03*
X135020000Y-82870000D03*
X132480000Y-82870000D03*
X129940000Y-82870000D03*
X127400000Y-82870000D03*
X124860000Y-82870000D03*
X122320000Y-82870000D03*
X119780000Y-82870000D03*
X117240000Y-82870000D03*
X114700000Y-82870000D03*
X112160000Y-82870000D03*
X109620000Y-82870000D03*
X107080000Y-82870000D03*
X104540000Y-82870000D03*
X102000000Y-82870000D03*
%TD*%
D20*
%TO.C,SW1*%
X188750000Y-53250000D03*
X195250000Y-53250000D03*
X188750000Y-57750000D03*
X195250000Y-57750000D03*
%TD*%
D21*
%TO.C,J2*%
X103000000Y-108600000D03*
D12*
X105540000Y-108600000D03*
X108080000Y-108600000D03*
X110620000Y-108600000D03*
%TD*%
D22*
%TO.C,J1*%
X175000000Y-103000000D03*
D23*
X177500000Y-103000000D03*
%TD*%
D15*
%TO.C,H1*%
X130000000Y-112000000D03*
%TD*%
D12*
%TO.C,M2*%
X159500000Y-114900000D03*
X154420000Y-114900000D03*
D13*
X159500000Y-111500000D03*
D14*
X154420000Y-111500000D03*
%TD*%
D10*
%TO.C,C2*%
X170250000Y-92000000D03*
D11*
X173750000Y-92000000D03*
%TD*%
D24*
%TO.C,U2*%
X157190000Y-84110000D03*
D25*
X157190000Y-86650000D03*
X157190000Y-89190000D03*
X157190000Y-91730000D03*
X157190000Y-94270000D03*
X157190000Y-96810000D03*
X157190000Y-99350000D03*
X157190000Y-101890000D03*
X164810000Y-101890000D03*
X164810000Y-99350000D03*
X164810000Y-96810000D03*
X164810000Y-94270000D03*
X164810000Y-91730000D03*
X164810000Y-89190000D03*
X164810000Y-86650000D03*
X164810000Y-84110000D03*
%TD*%
D11*
%TO.C,R5*%
X156000000Y-68160000D03*
X156000000Y-58000000D03*
%TD*%
%TO.C,R4*%
X140540000Y-68160000D03*
X140540000Y-58000000D03*
%TD*%
%TO.C,C4*%
X155710000Y-108000000D03*
X158210000Y-108000000D03*
%TD*%
D24*
%TO.C,D2*%
X184730000Y-74000000D03*
D25*
X187270000Y-74000000D03*
%TD*%
D15*
%TO.C,H2*%
X130000000Y-146000000D03*
%TD*%
D26*
%TO.C,D1*%
X175000000Y-98000000D03*
D16*
X185160000Y-98000000D03*
%TD*%
D15*
%TO.C,H4*%
X170000000Y-146000000D03*
%TD*%
D11*
%TO.C,R1*%
X135460000Y-68160000D03*
X135460000Y-58000000D03*
%TD*%
%TO.C,R8*%
X186000000Y-87660000D03*
X186000000Y-77500000D03*
%TD*%
D27*
%TO.C,Q1*%
X102000000Y-58000000D03*
D28*
X104540000Y-58000000D03*
X107080000Y-58000000D03*
%TD*%
D15*
%TO.C,H3*%
X170000000Y-112000000D03*
%TD*%
D11*
%TO.C,R6*%
X164540000Y-68160000D03*
X164540000Y-58000000D03*
%TD*%
D29*
%TO.C,PS3*%
X160150000Y-53100000D03*
D30*
X163850000Y-53100000D03*
X160150000Y-54900000D03*
X163850000Y-54900000D03*
%TD*%
D29*
%TO.C,PS1*%
X136150000Y-53100000D03*
D30*
X139850000Y-53100000D03*
X136150000Y-54900000D03*
X139850000Y-54900000D03*
%TD*%
D29*
%TO.C,PS2*%
X148150000Y-53100000D03*
D30*
X151850000Y-53100000D03*
X148150000Y-54900000D03*
X151850000Y-54900000D03*
%TD*%
M02*
