M48
; DRILL file KiCad 10.0.6 date 2026-10-05T08:05:48
; FORMAT={-:-/ absolute / metric / decimal}
; #@! TF.CreationDate,2026-10-05T08:05:48+09:00
; #@! TF.GenerationSoftware,Kicad,Pcbnew,10.0.6
; #@! TF.FileFunction,Plated,1,2,PTH
FMAT,2
METRIC
; #@! TA.AperFunction,Plated,PTH,ViaDrill
T1C0.450
; #@! TA.AperFunction,Plated,PTH,ComponentDrill
T2C0.700
; #@! TA.AperFunction,Plated,PTH,ComponentDrill
T3C0.800
; #@! TA.AperFunction,Plated,PTH,ComponentDrill
T4C0.900
; #@! TA.AperFunction,Plated,PTH,ComponentDrill
T5C1.000
; #@! TA.AperFunction,Plated,PTH,ComponentDrill
T6C1.100
%
G90
G05
T1
X148.378Y-99.731
X154.514Y-86.597
T2
X136.15Y-53.1
X136.15Y-54.9
X139.85Y-53.1
X139.85Y-54.9
X148.15Y-53.1
X148.15Y-54.9
X151.85Y-53.1
X151.85Y-54.9
X160.15Y-53.1
X160.15Y-54.9
X163.85Y-53.1
X163.85Y-54.9
T3
X102.0Y-58.0
X102.0Y-63.0
X104.54Y-58.0
X107.08Y-58.0
X112.16Y-63.0
X135.46Y-58.0
X135.46Y-68.16
X140.54Y-58.0
X140.54Y-68.16
X141.79Y-108.0
X144.0Y-58.0
X144.0Y-68.16
X144.29Y-108.0
X155.71Y-108.0
X156.0Y-58.0
X156.0Y-68.16
X158.21Y-108.0
X159.46Y-58.0
X159.46Y-68.16
X164.54Y-58.0
X164.54Y-68.16
X170.25Y-83.0
X170.25Y-92.0
X173.75Y-83.0
X173.75Y-92.0
X186.0Y-77.5
X186.0Y-87.66
T4
X184.73Y-74.0
X187.27Y-74.0
T5
X102.0Y-84.22
X102.0Y-102.0
X103.0Y-108.6
X104.54Y-84.22
X104.54Y-102.0
X105.54Y-108.6
X107.08Y-84.22
X107.08Y-102.0
X108.08Y-108.6
X109.62Y-84.22
X109.62Y-102.0
X110.62Y-108.6
X112.16Y-84.22
X112.16Y-102.0
X114.7Y-84.22
X114.7Y-102.0
X117.24Y-84.22
X117.24Y-102.0
X119.78Y-84.22
X119.78Y-102.0
X122.32Y-84.22
X122.32Y-102.0
X124.86Y-84.22
X124.86Y-102.0
X127.4Y-84.22
X127.4Y-102.0
X129.94Y-84.22
X129.94Y-102.0
X132.48Y-84.22
X132.48Y-102.0
X135.02Y-84.22
X135.02Y-102.0
X137.56Y-84.22
X137.56Y-102.0
X140.1Y-84.22
X140.1Y-102.0
X142.64Y-84.22
X142.64Y-102.0
X145.18Y-84.22
X145.18Y-102.0
X147.72Y-84.22
X147.72Y-102.0
X150.26Y-84.22
X150.26Y-102.0
X157.19Y-84.11
X157.19Y-86.65
X157.19Y-89.19
X157.19Y-91.73
X157.19Y-94.27
X157.19Y-96.81
X157.19Y-99.35
X157.19Y-101.89
X164.81Y-84.11
X164.81Y-86.65
X164.81Y-89.19
X164.81Y-91.73
X164.81Y-94.27
X164.81Y-96.81
X164.81Y-99.35
X164.81Y-101.89
X175.0Y-103.0
X177.5Y-103.0
T6
X140.5Y-111.5
X145.58Y-111.5
X154.42Y-111.5
X159.5Y-111.5
X175.0Y-98.0
X185.16Y-98.0
X188.75Y-53.25
X188.75Y-57.75
X195.25Y-53.25
X195.25Y-57.75
M30
