M48
; DRILL file KiCad 10.0.6 date 2026-10-05T03:36:34
; FORMAT={-:-/ absolute / metric / decimal}
; #@! TF.CreationDate,2026-10-05T03:36:34+09:00
; #@! TF.GenerationSoftware,Kicad,Pcbnew,10.0.6
; #@! TF.FileFunction,Plated,1,2,PTH
FMAT,2
METRIC
; #@! TA.AperFunction,Plated,PTH,ViaDrill
T1C0.350
; #@! TA.AperFunction,Plated,PTH,ViaDrill
T2C0.450
; #@! TA.AperFunction,Plated,PTH,ComponentDrill
T3C0.700
; #@! TA.AperFunction,Plated,PTH,ComponentDrill
T4C0.800
; #@! TA.AperFunction,Plated,PTH,ComponentDrill
T5C0.900
; #@! TA.AperFunction,Plated,PTH,ComponentDrill
T6C1.000
; #@! TA.AperFunction,Plated,PTH,ComponentDrill
T7C1.100
%
G90
G05
T1
X145.692Y-82.168
X150.247Y-100.056
X153.456Y-80.769
X155.953Y-85.646
T2
X162.97Y-64.597
T3
X118.15Y-53.1
X118.15Y-54.9
X121.85Y-53.1
X121.85Y-54.9
X130.15Y-53.1
X130.15Y-54.9
X133.85Y-53.1
X133.85Y-54.9
X142.15Y-53.1
X142.15Y-54.9
X145.85Y-53.1
X145.85Y-54.9
X154.15Y-53.1
X154.15Y-54.9
X157.85Y-53.1
X157.85Y-54.9
X166.15Y-53.1
X166.15Y-54.9
X169.85Y-53.1
X169.85Y-54.9
X178.15Y-53.1
X178.15Y-54.9
X181.85Y-53.1
X181.85Y-54.9
T4
X102.0Y-58.0
X102.0Y-63.0
X104.54Y-58.0
X107.08Y-58.0
X112.16Y-63.0
X114.4Y-70.24
X114.4Y-80.4
X117.46Y-58.0
X117.46Y-68.16
X122.54Y-58.0
X122.54Y-68.16
X129.46Y-58.0
X129.46Y-68.16
X134.54Y-58.0
X134.54Y-68.16
X137.6Y-71.5
X137.6Y-74.0
X140.64Y-71.5
X140.64Y-79.12
X141.46Y-58.0
X141.46Y-68.16
X141.79Y-107.0
X143.18Y-71.5
X143.18Y-79.12
X144.29Y-107.0
X145.72Y-71.5
X145.72Y-79.12
X146.54Y-58.0
X146.54Y-68.16
X148.26Y-71.5
X148.26Y-79.12
X150.8Y-71.5
X150.8Y-79.12
X153.34Y-71.5
X153.34Y-79.12
X153.46Y-58.0
X153.46Y-68.16
X155.71Y-107.0
X155.88Y-71.5
X155.88Y-79.12
X158.21Y-107.0
X158.42Y-71.5
X158.42Y-79.12
X158.54Y-58.0
X158.54Y-68.16
X165.46Y-58.0
X165.46Y-68.16
X170.25Y-83.0
X170.25Y-92.0
X170.54Y-58.0
X170.54Y-68.16
X173.75Y-83.0
X173.75Y-92.0
X177.46Y-58.0
X177.46Y-68.16
X180.0Y-77.5
X180.0Y-87.66
X182.54Y-58.0
X182.54Y-68.16
X186.0Y-77.5
X186.0Y-87.66
X190.5Y-93.0
X190.5Y-95.5
X192.0Y-77.5
X192.0Y-87.66
X194.0Y-91.0
X194.0Y-101.16
X197.0Y-91.0
X197.0Y-101.16
T5
X178.73Y-74.0
X181.27Y-74.0
X184.73Y-74.0
X187.27Y-74.0
X190.73Y-74.0
X193.27Y-74.0
T6
X102.8Y-74.5
X103.0Y-84.22
X103.0Y-102.0
X103.0Y-107.0
X105.54Y-84.22
X105.54Y-102.0
X105.54Y-107.0
X107.8Y-74.5
X108.08Y-84.22
X108.08Y-102.0
X108.08Y-107.0
X110.4Y-74.5
X110.62Y-84.22
X110.62Y-102.0
X110.62Y-107.0
X113.16Y-84.22
X113.16Y-102.0
X115.7Y-84.22
X115.7Y-102.0
X118.24Y-84.22
X118.24Y-102.0
X120.78Y-84.22
X120.78Y-102.0
X123.32Y-84.22
X123.32Y-102.0
X125.86Y-84.22
X125.86Y-102.0
X128.4Y-84.22
X128.4Y-102.0
X130.94Y-84.22
X130.94Y-102.0
X133.48Y-84.22
X133.48Y-102.0
X136.02Y-84.22
X136.02Y-102.0
X138.56Y-84.22
X138.56Y-102.0
X141.1Y-84.22
X141.1Y-102.0
X143.64Y-84.22
X143.64Y-102.0
X146.18Y-84.22
X146.18Y-102.0
X148.72Y-84.22
X148.72Y-102.0
X151.26Y-84.22
X151.26Y-102.0
X157.19Y-84.11
X157.19Y-86.65
X157.19Y-89.19
X157.19Y-91.73
X157.19Y-94.27
X157.19Y-96.81
X157.19Y-99.35
X157.19Y-101.89
X162.5Y-72.0
X162.5Y-74.54
X162.5Y-77.08
X164.81Y-84.11
X164.81Y-86.65
X164.81Y-89.19
X164.81Y-91.73
X164.81Y-94.27
X164.81Y-96.81
X164.81Y-99.35
X164.81Y-101.89
X165.04Y-72.0
X165.04Y-74.54
X165.04Y-77.08
X175.0Y-103.0
X177.5Y-103.0
T7
X140.5Y-111.5
X145.58Y-111.5
X154.42Y-111.5
X159.5Y-111.5
X175.0Y-98.0
X185.16Y-98.0
X188.75Y-53.25
X188.75Y-57.75
X188.75Y-63.25
X188.75Y-67.75
X195.25Y-53.25
X195.25Y-57.75
X195.25Y-63.25
X195.25Y-67.75
M30
