%TF.GenerationSoftware,KiCad,Pcbnew,10.0.6*%
%TF.CreationDate,2026-10-05T03:36:33+09:00*%
%TF.ProjectId,Linetracer2,4c696e65-7472-4616-9365-72322e6b6963,rev?*%
%TF.SameCoordinates,Original*%
%TF.FileFunction,Legend,Bot*%
%TF.FilePolarity,Positive*%
%FSLAX46Y46*%
G04 Gerber Fmt 4.6, Leading zero omitted, Abs format (unit mm)*
G04 Created by KiCad (PCBNEW 10.0.6) date 2026-10-05 03:36:33*
%MOMM*%
%LPD*%
G01*
G04 APERTURE LIST*
%ADD10C,0.150000*%
%ADD11C,0.180000*%
%ADD12C,0.600000*%
%ADD13C,0.120000*%
%ADD14C,0.300000*%
G04 APERTURE END LIST*
D10*
X151219047Y-57924200D02*
X151104761Y-57962295D01*
X151104761Y-57962295D02*
X150914285Y-57962295D01*
X150914285Y-57962295D02*
X150838094Y-57924200D01*
X150838094Y-57924200D02*
X150799999Y-57886104D01*
X150799999Y-57886104D02*
X150761904Y-57809914D01*
X150761904Y-57809914D02*
X150761904Y-57733723D01*
X150761904Y-57733723D02*
X150799999Y-57657533D01*
X150799999Y-57657533D02*
X150838094Y-57619438D01*
X150838094Y-57619438D02*
X150914285Y-57581342D01*
X150914285Y-57581342D02*
X151066666Y-57543247D01*
X151066666Y-57543247D02*
X151142856Y-57505152D01*
X151142856Y-57505152D02*
X151180951Y-57467057D01*
X151180951Y-57467057D02*
X151219047Y-57390866D01*
X151219047Y-57390866D02*
X151219047Y-57314676D01*
X151219047Y-57314676D02*
X151180951Y-57238485D01*
X151180951Y-57238485D02*
X151142856Y-57200390D01*
X151142856Y-57200390D02*
X151066666Y-57162295D01*
X151066666Y-57162295D02*
X150876189Y-57162295D01*
X150876189Y-57162295D02*
X150761904Y-57200390D01*
X150419046Y-57962295D02*
X150419046Y-57162295D01*
X149961903Y-57962295D02*
X150304761Y-57505152D01*
X149961903Y-57162295D02*
X150419046Y-57619438D01*
X149619046Y-57962295D02*
X149619046Y-57162295D01*
X149238094Y-57962295D02*
X149238094Y-57162295D01*
X149238094Y-57162295D02*
X149047618Y-57162295D01*
X149047618Y-57162295D02*
X148933332Y-57200390D01*
X148933332Y-57200390D02*
X148857142Y-57276580D01*
X148857142Y-57276580D02*
X148819047Y-57352771D01*
X148819047Y-57352771D02*
X148780951Y-57505152D01*
X148780951Y-57505152D02*
X148780951Y-57619438D01*
X148780951Y-57619438D02*
X148819047Y-57771819D01*
X148819047Y-57771819D02*
X148857142Y-57848009D01*
X148857142Y-57848009D02*
X148933332Y-57924200D01*
X148933332Y-57924200D02*
X149047618Y-57962295D01*
X149047618Y-57962295D02*
X149238094Y-57962295D01*
X166521429Y-61865700D02*
X166392858Y-61908557D01*
X166392858Y-61908557D02*
X166178572Y-61908557D01*
X166178572Y-61908557D02*
X166092858Y-61865700D01*
X166092858Y-61865700D02*
X166050000Y-61822842D01*
X166050000Y-61822842D02*
X166007143Y-61737128D01*
X166007143Y-61737128D02*
X166007143Y-61651414D01*
X166007143Y-61651414D02*
X166050000Y-61565700D01*
X166050000Y-61565700D02*
X166092858Y-61522842D01*
X166092858Y-61522842D02*
X166178572Y-61479985D01*
X166178572Y-61479985D02*
X166350000Y-61437128D01*
X166350000Y-61437128D02*
X166435715Y-61394271D01*
X166435715Y-61394271D02*
X166478572Y-61351414D01*
X166478572Y-61351414D02*
X166521429Y-61265700D01*
X166521429Y-61265700D02*
X166521429Y-61179985D01*
X166521429Y-61179985D02*
X166478572Y-61094271D01*
X166478572Y-61094271D02*
X166435715Y-61051414D01*
X166435715Y-61051414D02*
X166350000Y-61008557D01*
X166350000Y-61008557D02*
X166135715Y-61008557D01*
X166135715Y-61008557D02*
X166007143Y-61051414D01*
X165621429Y-61437128D02*
X165321429Y-61437128D01*
X165192857Y-61908557D02*
X165621429Y-61908557D01*
X165621429Y-61908557D02*
X165621429Y-61008557D01*
X165621429Y-61008557D02*
X165192857Y-61008557D01*
X164807143Y-61908557D02*
X164807143Y-61008557D01*
X164807143Y-61008557D02*
X164292857Y-61908557D01*
X164292857Y-61908557D02*
X164292857Y-61008557D01*
X163907143Y-61865700D02*
X163778572Y-61908557D01*
X163778572Y-61908557D02*
X163564286Y-61908557D01*
X163564286Y-61908557D02*
X163478572Y-61865700D01*
X163478572Y-61865700D02*
X163435714Y-61822842D01*
X163435714Y-61822842D02*
X163392857Y-61737128D01*
X163392857Y-61737128D02*
X163392857Y-61651414D01*
X163392857Y-61651414D02*
X163435714Y-61565700D01*
X163435714Y-61565700D02*
X163478572Y-61522842D01*
X163478572Y-61522842D02*
X163564286Y-61479985D01*
X163564286Y-61479985D02*
X163735714Y-61437128D01*
X163735714Y-61437128D02*
X163821429Y-61394271D01*
X163821429Y-61394271D02*
X163864286Y-61351414D01*
X163864286Y-61351414D02*
X163907143Y-61265700D01*
X163907143Y-61265700D02*
X163907143Y-61179985D01*
X163907143Y-61179985D02*
X163864286Y-61094271D01*
X163864286Y-61094271D02*
X163821429Y-61051414D01*
X163821429Y-61051414D02*
X163735714Y-61008557D01*
X163735714Y-61008557D02*
X163521429Y-61008557D01*
X163521429Y-61008557D02*
X163392857Y-61051414D01*
X162835714Y-61008557D02*
X162664286Y-61008557D01*
X162664286Y-61008557D02*
X162578571Y-61051414D01*
X162578571Y-61051414D02*
X162492857Y-61137128D01*
X162492857Y-61137128D02*
X162450000Y-61308557D01*
X162450000Y-61308557D02*
X162450000Y-61608557D01*
X162450000Y-61608557D02*
X162492857Y-61779985D01*
X162492857Y-61779985D02*
X162578571Y-61865700D01*
X162578571Y-61865700D02*
X162664286Y-61908557D01*
X162664286Y-61908557D02*
X162835714Y-61908557D01*
X162835714Y-61908557D02*
X162921429Y-61865700D01*
X162921429Y-61865700D02*
X163007143Y-61779985D01*
X163007143Y-61779985D02*
X163050000Y-61608557D01*
X163050000Y-61608557D02*
X163050000Y-61308557D01*
X163050000Y-61308557D02*
X163007143Y-61137128D01*
X163007143Y-61137128D02*
X162921429Y-61051414D01*
X162921429Y-61051414D02*
X162835714Y-61008557D01*
X161550000Y-61908557D02*
X161850000Y-61479985D01*
X162064286Y-61908557D02*
X162064286Y-61008557D01*
X162064286Y-61008557D02*
X161721429Y-61008557D01*
X161721429Y-61008557D02*
X161635714Y-61051414D01*
X161635714Y-61051414D02*
X161592857Y-61094271D01*
X161592857Y-61094271D02*
X161550000Y-61179985D01*
X161550000Y-61179985D02*
X161550000Y-61308557D01*
X161550000Y-61308557D02*
X161592857Y-61394271D01*
X161592857Y-61394271D02*
X161635714Y-61437128D01*
X161635714Y-61437128D02*
X161721429Y-61479985D01*
X161721429Y-61479985D02*
X162064286Y-61479985D01*
X160521429Y-61865700D02*
X160392858Y-61908557D01*
X160392858Y-61908557D02*
X160178572Y-61908557D01*
X160178572Y-61908557D02*
X160092858Y-61865700D01*
X160092858Y-61865700D02*
X160050000Y-61822842D01*
X160050000Y-61822842D02*
X160007143Y-61737128D01*
X160007143Y-61737128D02*
X160007143Y-61651414D01*
X160007143Y-61651414D02*
X160050000Y-61565700D01*
X160050000Y-61565700D02*
X160092858Y-61522842D01*
X160092858Y-61522842D02*
X160178572Y-61479985D01*
X160178572Y-61479985D02*
X160350000Y-61437128D01*
X160350000Y-61437128D02*
X160435715Y-61394271D01*
X160435715Y-61394271D02*
X160478572Y-61351414D01*
X160478572Y-61351414D02*
X160521429Y-61265700D01*
X160521429Y-61265700D02*
X160521429Y-61179985D01*
X160521429Y-61179985D02*
X160478572Y-61094271D01*
X160478572Y-61094271D02*
X160435715Y-61051414D01*
X160435715Y-61051414D02*
X160350000Y-61008557D01*
X160350000Y-61008557D02*
X160135715Y-61008557D01*
X160135715Y-61008557D02*
X160007143Y-61051414D01*
X159621429Y-61908557D02*
X159621429Y-61008557D01*
X159192858Y-61908557D02*
X159192858Y-61008557D01*
X159192858Y-61008557D02*
X158978572Y-61008557D01*
X158978572Y-61008557D02*
X158850001Y-61051414D01*
X158850001Y-61051414D02*
X158764286Y-61137128D01*
X158764286Y-61137128D02*
X158721429Y-61222842D01*
X158721429Y-61222842D02*
X158678572Y-61394271D01*
X158678572Y-61394271D02*
X158678572Y-61522842D01*
X158678572Y-61522842D02*
X158721429Y-61694271D01*
X158721429Y-61694271D02*
X158764286Y-61779985D01*
X158764286Y-61779985D02*
X158850001Y-61865700D01*
X158850001Y-61865700D02*
X158978572Y-61908557D01*
X158978572Y-61908557D02*
X159192858Y-61908557D01*
X158292858Y-61437128D02*
X157992858Y-61437128D01*
X157864286Y-61908557D02*
X158292858Y-61908557D01*
X158292858Y-61908557D02*
X158292858Y-61008557D01*
X158292858Y-61008557D02*
X157864286Y-61008557D01*
X157478572Y-61822842D02*
X157435715Y-61865700D01*
X157435715Y-61865700D02*
X157478572Y-61908557D01*
X157478572Y-61908557D02*
X157521429Y-61865700D01*
X157521429Y-61865700D02*
X157478572Y-61822842D01*
X157478572Y-61822842D02*
X157478572Y-61908557D01*
X157478572Y-61351414D02*
X157435715Y-61394271D01*
X157435715Y-61394271D02*
X157478572Y-61437128D01*
X157478572Y-61437128D02*
X157521429Y-61394271D01*
X157521429Y-61394271D02*
X157478572Y-61351414D01*
X157478572Y-61351414D02*
X157478572Y-61437128D01*
X155935715Y-61908557D02*
X156364287Y-61908557D01*
X156364287Y-61908557D02*
X156364287Y-61008557D01*
X155335716Y-61437128D02*
X155207144Y-61479985D01*
X155207144Y-61479985D02*
X155164287Y-61522842D01*
X155164287Y-61522842D02*
X155121430Y-61608557D01*
X155121430Y-61608557D02*
X155121430Y-61737128D01*
X155121430Y-61737128D02*
X155164287Y-61822842D01*
X155164287Y-61822842D02*
X155207144Y-61865700D01*
X155207144Y-61865700D02*
X155292859Y-61908557D01*
X155292859Y-61908557D02*
X155635716Y-61908557D01*
X155635716Y-61908557D02*
X155635716Y-61008557D01*
X155635716Y-61008557D02*
X155335716Y-61008557D01*
X155335716Y-61008557D02*
X155250002Y-61051414D01*
X155250002Y-61051414D02*
X155207144Y-61094271D01*
X155207144Y-61094271D02*
X155164287Y-61179985D01*
X155164287Y-61179985D02*
X155164287Y-61265700D01*
X155164287Y-61265700D02*
X155207144Y-61351414D01*
X155207144Y-61351414D02*
X155250002Y-61394271D01*
X155250002Y-61394271D02*
X155335716Y-61437128D01*
X155335716Y-61437128D02*
X155635716Y-61437128D01*
X154221430Y-61908557D02*
X154521430Y-61479985D01*
X154735716Y-61908557D02*
X154735716Y-61008557D01*
X154735716Y-61008557D02*
X154392859Y-61008557D01*
X154392859Y-61008557D02*
X154307144Y-61051414D01*
X154307144Y-61051414D02*
X154264287Y-61094271D01*
X154264287Y-61094271D02*
X154221430Y-61179985D01*
X154221430Y-61179985D02*
X154221430Y-61308557D01*
X154221430Y-61308557D02*
X154264287Y-61394271D01*
X154264287Y-61394271D02*
X154307144Y-61437128D01*
X154307144Y-61437128D02*
X154392859Y-61479985D01*
X154392859Y-61479985D02*
X154735716Y-61479985D01*
X153835716Y-61565700D02*
X153150002Y-61565700D01*
X152250001Y-61908557D02*
X152764287Y-61908557D01*
X152507144Y-61908557D02*
X152507144Y-61008557D01*
X152507144Y-61008557D02*
X152592858Y-61137128D01*
X152592858Y-61137128D02*
X152678573Y-61222842D01*
X152678573Y-61222842D02*
X152764287Y-61265700D01*
X151907144Y-61094271D02*
X151864287Y-61051414D01*
X151864287Y-61051414D02*
X151778573Y-61008557D01*
X151778573Y-61008557D02*
X151564287Y-61008557D01*
X151564287Y-61008557D02*
X151478573Y-61051414D01*
X151478573Y-61051414D02*
X151435715Y-61094271D01*
X151435715Y-61094271D02*
X151392858Y-61179985D01*
X151392858Y-61179985D02*
X151392858Y-61265700D01*
X151392858Y-61265700D02*
X151435715Y-61394271D01*
X151435715Y-61394271D02*
X151950001Y-61908557D01*
X151950001Y-61908557D02*
X151392858Y-61908557D01*
X151092858Y-61008557D02*
X150535715Y-61008557D01*
X150535715Y-61008557D02*
X150835715Y-61351414D01*
X150835715Y-61351414D02*
X150707144Y-61351414D01*
X150707144Y-61351414D02*
X150621430Y-61394271D01*
X150621430Y-61394271D02*
X150578572Y-61437128D01*
X150578572Y-61437128D02*
X150535715Y-61522842D01*
X150535715Y-61522842D02*
X150535715Y-61737128D01*
X150535715Y-61737128D02*
X150578572Y-61822842D01*
X150578572Y-61822842D02*
X150621430Y-61865700D01*
X150621430Y-61865700D02*
X150707144Y-61908557D01*
X150707144Y-61908557D02*
X150964287Y-61908557D01*
X150964287Y-61908557D02*
X151050001Y-61865700D01*
X151050001Y-61865700D02*
X151092858Y-61822842D01*
X149850001Y-61437128D02*
X150150001Y-61437128D01*
X150150001Y-61908557D02*
X150150001Y-61008557D01*
X150150001Y-61008557D02*
X149721429Y-61008557D01*
X148778572Y-61908557D02*
X148307144Y-61308557D01*
X148778572Y-61308557D02*
X148307144Y-61908557D01*
X147578573Y-61008557D02*
X147750001Y-61008557D01*
X147750001Y-61008557D02*
X147835715Y-61051414D01*
X147835715Y-61051414D02*
X147878573Y-61094271D01*
X147878573Y-61094271D02*
X147964287Y-61222842D01*
X147964287Y-61222842D02*
X148007144Y-61394271D01*
X148007144Y-61394271D02*
X148007144Y-61737128D01*
X148007144Y-61737128D02*
X147964287Y-61822842D01*
X147964287Y-61822842D02*
X147921430Y-61865700D01*
X147921430Y-61865700D02*
X147835715Y-61908557D01*
X147835715Y-61908557D02*
X147664287Y-61908557D01*
X147664287Y-61908557D02*
X147578573Y-61865700D01*
X147578573Y-61865700D02*
X147535715Y-61822842D01*
X147535715Y-61822842D02*
X147492858Y-61737128D01*
X147492858Y-61737128D02*
X147492858Y-61522842D01*
X147492858Y-61522842D02*
X147535715Y-61437128D01*
X147535715Y-61437128D02*
X147578573Y-61394271D01*
X147578573Y-61394271D02*
X147664287Y-61351414D01*
X147664287Y-61351414D02*
X147835715Y-61351414D01*
X147835715Y-61351414D02*
X147921430Y-61394271D01*
X147921430Y-61394271D02*
X147964287Y-61437128D01*
X147964287Y-61437128D02*
X148007144Y-61522842D01*
X145478573Y-62251414D02*
X145521430Y-62208557D01*
X145521430Y-62208557D02*
X145607144Y-62079985D01*
X145607144Y-62079985D02*
X145650002Y-61994271D01*
X145650002Y-61994271D02*
X145692859Y-61865700D01*
X145692859Y-61865700D02*
X145735716Y-61651414D01*
X145735716Y-61651414D02*
X145735716Y-61479985D01*
X145735716Y-61479985D02*
X145692859Y-61265700D01*
X145692859Y-61265700D02*
X145650002Y-61137128D01*
X145650002Y-61137128D02*
X145607144Y-61051414D01*
X145607144Y-61051414D02*
X145521430Y-60922842D01*
X145521430Y-60922842D02*
X145478573Y-60879985D01*
X145007144Y-61908557D02*
X145092859Y-61865700D01*
X145092859Y-61865700D02*
X145135716Y-61779985D01*
X145135716Y-61779985D02*
X145135716Y-61008557D01*
X144321430Y-61865700D02*
X144407144Y-61908557D01*
X144407144Y-61908557D02*
X144578573Y-61908557D01*
X144578573Y-61908557D02*
X144664287Y-61865700D01*
X144664287Y-61865700D02*
X144707144Y-61779985D01*
X144707144Y-61779985D02*
X144707144Y-61437128D01*
X144707144Y-61437128D02*
X144664287Y-61351414D01*
X144664287Y-61351414D02*
X144578573Y-61308557D01*
X144578573Y-61308557D02*
X144407144Y-61308557D01*
X144407144Y-61308557D02*
X144321430Y-61351414D01*
X144321430Y-61351414D02*
X144278573Y-61437128D01*
X144278573Y-61437128D02*
X144278573Y-61522842D01*
X144278573Y-61522842D02*
X144707144Y-61608557D01*
X143892858Y-61308557D02*
X143892858Y-61908557D01*
X143892858Y-61394271D02*
X143850001Y-61351414D01*
X143850001Y-61351414D02*
X143764286Y-61308557D01*
X143764286Y-61308557D02*
X143635715Y-61308557D01*
X143635715Y-61308557D02*
X143550001Y-61351414D01*
X143550001Y-61351414D02*
X143507144Y-61437128D01*
X143507144Y-61437128D02*
X143507144Y-61908557D01*
X143121429Y-61865700D02*
X143035715Y-61908557D01*
X143035715Y-61908557D02*
X142864286Y-61908557D01*
X142864286Y-61908557D02*
X142778572Y-61865700D01*
X142778572Y-61865700D02*
X142735715Y-61779985D01*
X142735715Y-61779985D02*
X142735715Y-61737128D01*
X142735715Y-61737128D02*
X142778572Y-61651414D01*
X142778572Y-61651414D02*
X142864286Y-61608557D01*
X142864286Y-61608557D02*
X142992858Y-61608557D01*
X142992858Y-61608557D02*
X143078572Y-61565700D01*
X143078572Y-61565700D02*
X143121429Y-61479985D01*
X143121429Y-61479985D02*
X143121429Y-61437128D01*
X143121429Y-61437128D02*
X143078572Y-61351414D01*
X143078572Y-61351414D02*
X142992858Y-61308557D01*
X142992858Y-61308557D02*
X142864286Y-61308557D01*
X142864286Y-61308557D02*
X142778572Y-61351414D01*
X141792858Y-61308557D02*
X141450001Y-61308557D01*
X141664287Y-61008557D02*
X141664287Y-61779985D01*
X141664287Y-61779985D02*
X141621430Y-61865700D01*
X141621430Y-61865700D02*
X141535715Y-61908557D01*
X141535715Y-61908557D02*
X141450001Y-61908557D01*
X141021429Y-61908557D02*
X141107144Y-61865700D01*
X141107144Y-61865700D02*
X141150001Y-61822842D01*
X141150001Y-61822842D02*
X141192858Y-61737128D01*
X141192858Y-61737128D02*
X141192858Y-61479985D01*
X141192858Y-61479985D02*
X141150001Y-61394271D01*
X141150001Y-61394271D02*
X141107144Y-61351414D01*
X141107144Y-61351414D02*
X141021429Y-61308557D01*
X141021429Y-61308557D02*
X140892858Y-61308557D01*
X140892858Y-61308557D02*
X140807144Y-61351414D01*
X140807144Y-61351414D02*
X140764287Y-61394271D01*
X140764287Y-61394271D02*
X140721429Y-61479985D01*
X140721429Y-61479985D02*
X140721429Y-61737128D01*
X140721429Y-61737128D02*
X140764287Y-61822842D01*
X140764287Y-61822842D02*
X140807144Y-61865700D01*
X140807144Y-61865700D02*
X140892858Y-61908557D01*
X140892858Y-61908557D02*
X141021429Y-61908557D01*
X139778572Y-61308557D02*
X139435715Y-61308557D01*
X139650001Y-61008557D02*
X139650001Y-61779985D01*
X139650001Y-61779985D02*
X139607144Y-61865700D01*
X139607144Y-61865700D02*
X139521429Y-61908557D01*
X139521429Y-61908557D02*
X139435715Y-61908557D01*
X139135715Y-61908557D02*
X139135715Y-61008557D01*
X138750001Y-61908557D02*
X138750001Y-61437128D01*
X138750001Y-61437128D02*
X138792858Y-61351414D01*
X138792858Y-61351414D02*
X138878572Y-61308557D01*
X138878572Y-61308557D02*
X139007143Y-61308557D01*
X139007143Y-61308557D02*
X139092858Y-61351414D01*
X139092858Y-61351414D02*
X139135715Y-61394271D01*
X137978572Y-61865700D02*
X138064286Y-61908557D01*
X138064286Y-61908557D02*
X138235715Y-61908557D01*
X138235715Y-61908557D02*
X138321429Y-61865700D01*
X138321429Y-61865700D02*
X138364286Y-61779985D01*
X138364286Y-61779985D02*
X138364286Y-61437128D01*
X138364286Y-61437128D02*
X138321429Y-61351414D01*
X138321429Y-61351414D02*
X138235715Y-61308557D01*
X138235715Y-61308557D02*
X138064286Y-61308557D01*
X138064286Y-61308557D02*
X137978572Y-61351414D01*
X137978572Y-61351414D02*
X137935715Y-61437128D01*
X137935715Y-61437128D02*
X137935715Y-61522842D01*
X137935715Y-61522842D02*
X138364286Y-61608557D01*
X136992857Y-61308557D02*
X136650000Y-61308557D01*
X136864286Y-61908557D02*
X136864286Y-61137128D01*
X136864286Y-61137128D02*
X136821429Y-61051414D01*
X136821429Y-61051414D02*
X136735714Y-61008557D01*
X136735714Y-61008557D02*
X136650000Y-61008557D01*
X136221428Y-61908557D02*
X136307143Y-61865700D01*
X136307143Y-61865700D02*
X136350000Y-61779985D01*
X136350000Y-61779985D02*
X136350000Y-61008557D01*
X135749999Y-61908557D02*
X135835714Y-61865700D01*
X135835714Y-61865700D02*
X135878571Y-61822842D01*
X135878571Y-61822842D02*
X135921428Y-61737128D01*
X135921428Y-61737128D02*
X135921428Y-61479985D01*
X135921428Y-61479985D02*
X135878571Y-61394271D01*
X135878571Y-61394271D02*
X135835714Y-61351414D01*
X135835714Y-61351414D02*
X135749999Y-61308557D01*
X135749999Y-61308557D02*
X135621428Y-61308557D01*
X135621428Y-61308557D02*
X135535714Y-61351414D01*
X135535714Y-61351414D02*
X135492857Y-61394271D01*
X135492857Y-61394271D02*
X135449999Y-61479985D01*
X135449999Y-61479985D02*
X135449999Y-61737128D01*
X135449999Y-61737128D02*
X135492857Y-61822842D01*
X135492857Y-61822842D02*
X135535714Y-61865700D01*
X135535714Y-61865700D02*
X135621428Y-61908557D01*
X135621428Y-61908557D02*
X135749999Y-61908557D01*
X134935713Y-61908557D02*
X135021428Y-61865700D01*
X135021428Y-61865700D02*
X135064285Y-61822842D01*
X135064285Y-61822842D02*
X135107142Y-61737128D01*
X135107142Y-61737128D02*
X135107142Y-61479985D01*
X135107142Y-61479985D02*
X135064285Y-61394271D01*
X135064285Y-61394271D02*
X135021428Y-61351414D01*
X135021428Y-61351414D02*
X134935713Y-61308557D01*
X134935713Y-61308557D02*
X134807142Y-61308557D01*
X134807142Y-61308557D02*
X134721428Y-61351414D01*
X134721428Y-61351414D02*
X134678571Y-61394271D01*
X134678571Y-61394271D02*
X134635713Y-61479985D01*
X134635713Y-61479985D02*
X134635713Y-61737128D01*
X134635713Y-61737128D02*
X134678571Y-61822842D01*
X134678571Y-61822842D02*
X134721428Y-61865700D01*
X134721428Y-61865700D02*
X134807142Y-61908557D01*
X134807142Y-61908557D02*
X134935713Y-61908557D01*
X134249999Y-61908557D02*
X134249999Y-61308557D01*
X134249999Y-61479985D02*
X134207142Y-61394271D01*
X134207142Y-61394271D02*
X134164285Y-61351414D01*
X134164285Y-61351414D02*
X134078570Y-61308557D01*
X134078570Y-61308557D02*
X133992856Y-61308557D01*
X133778570Y-62251414D02*
X133735713Y-62208557D01*
X133735713Y-62208557D02*
X133649999Y-62079985D01*
X133649999Y-62079985D02*
X133607142Y-61994271D01*
X133607142Y-61994271D02*
X133564284Y-61865700D01*
X133564284Y-61865700D02*
X133521427Y-61651414D01*
X133521427Y-61651414D02*
X133521427Y-61479985D01*
X133521427Y-61479985D02*
X133564284Y-61265700D01*
X133564284Y-61265700D02*
X133607142Y-61137128D01*
X133607142Y-61137128D02*
X133649999Y-61051414D01*
X133649999Y-61051414D02*
X133735713Y-60922842D01*
X133735713Y-60922842D02*
X133778570Y-60879985D01*
X168023811Y-137954819D02*
X168357144Y-137478628D01*
X168595239Y-137954819D02*
X168595239Y-136954819D01*
X168595239Y-136954819D02*
X168214287Y-136954819D01*
X168214287Y-136954819D02*
X168119049Y-137002438D01*
X168119049Y-137002438D02*
X168071430Y-137050057D01*
X168071430Y-137050057D02*
X168023811Y-137145295D01*
X168023811Y-137145295D02*
X168023811Y-137288152D01*
X168023811Y-137288152D02*
X168071430Y-137383390D01*
X168071430Y-137383390D02*
X168119049Y-137431009D01*
X168119049Y-137431009D02*
X168214287Y-137478628D01*
X168214287Y-137478628D02*
X168595239Y-137478628D01*
X167166668Y-137954819D02*
X167166668Y-137431009D01*
X167166668Y-137431009D02*
X167214287Y-137335771D01*
X167214287Y-137335771D02*
X167309525Y-137288152D01*
X167309525Y-137288152D02*
X167500001Y-137288152D01*
X167500001Y-137288152D02*
X167595239Y-137335771D01*
X167166668Y-137907200D02*
X167261906Y-137954819D01*
X167261906Y-137954819D02*
X167500001Y-137954819D01*
X167500001Y-137954819D02*
X167595239Y-137907200D01*
X167595239Y-137907200D02*
X167642858Y-137811961D01*
X167642858Y-137811961D02*
X167642858Y-137716723D01*
X167642858Y-137716723D02*
X167595239Y-137621485D01*
X167595239Y-137621485D02*
X167500001Y-137573866D01*
X167500001Y-137573866D02*
X167261906Y-137573866D01*
X167261906Y-137573866D02*
X167166668Y-137526247D01*
X166738096Y-137907200D02*
X166642858Y-137954819D01*
X166642858Y-137954819D02*
X166452382Y-137954819D01*
X166452382Y-137954819D02*
X166357144Y-137907200D01*
X166357144Y-137907200D02*
X166309525Y-137811961D01*
X166309525Y-137811961D02*
X166309525Y-137764342D01*
X166309525Y-137764342D02*
X166357144Y-137669104D01*
X166357144Y-137669104D02*
X166452382Y-137621485D01*
X166452382Y-137621485D02*
X166595239Y-137621485D01*
X166595239Y-137621485D02*
X166690477Y-137573866D01*
X166690477Y-137573866D02*
X166738096Y-137478628D01*
X166738096Y-137478628D02*
X166738096Y-137431009D01*
X166738096Y-137431009D02*
X166690477Y-137335771D01*
X166690477Y-137335771D02*
X166595239Y-137288152D01*
X166595239Y-137288152D02*
X166452382Y-137288152D01*
X166452382Y-137288152D02*
X166357144Y-137335771D01*
X165880953Y-137288152D02*
X165880953Y-138288152D01*
X165880953Y-137335771D02*
X165785715Y-137288152D01*
X165785715Y-137288152D02*
X165595239Y-137288152D01*
X165595239Y-137288152D02*
X165500001Y-137335771D01*
X165500001Y-137335771D02*
X165452382Y-137383390D01*
X165452382Y-137383390D02*
X165404763Y-137478628D01*
X165404763Y-137478628D02*
X165404763Y-137764342D01*
X165404763Y-137764342D02*
X165452382Y-137859580D01*
X165452382Y-137859580D02*
X165500001Y-137907200D01*
X165500001Y-137907200D02*
X165595239Y-137954819D01*
X165595239Y-137954819D02*
X165785715Y-137954819D01*
X165785715Y-137954819D02*
X165880953Y-137907200D01*
X164976191Y-137954819D02*
X164976191Y-136954819D01*
X164976191Y-137335771D02*
X164880953Y-137288152D01*
X164880953Y-137288152D02*
X164690477Y-137288152D01*
X164690477Y-137288152D02*
X164595239Y-137335771D01*
X164595239Y-137335771D02*
X164547620Y-137383390D01*
X164547620Y-137383390D02*
X164500001Y-137478628D01*
X164500001Y-137478628D02*
X164500001Y-137764342D01*
X164500001Y-137764342D02*
X164547620Y-137859580D01*
X164547620Y-137859580D02*
X164595239Y-137907200D01*
X164595239Y-137907200D02*
X164690477Y-137954819D01*
X164690477Y-137954819D02*
X164880953Y-137954819D01*
X164880953Y-137954819D02*
X164976191Y-137907200D01*
X163690477Y-137907200D02*
X163785715Y-137954819D01*
X163785715Y-137954819D02*
X163976191Y-137954819D01*
X163976191Y-137954819D02*
X164071429Y-137907200D01*
X164071429Y-137907200D02*
X164119048Y-137811961D01*
X164119048Y-137811961D02*
X164119048Y-137431009D01*
X164119048Y-137431009D02*
X164071429Y-137335771D01*
X164071429Y-137335771D02*
X163976191Y-137288152D01*
X163976191Y-137288152D02*
X163785715Y-137288152D01*
X163785715Y-137288152D02*
X163690477Y-137335771D01*
X163690477Y-137335771D02*
X163642858Y-137431009D01*
X163642858Y-137431009D02*
X163642858Y-137526247D01*
X163642858Y-137526247D02*
X164119048Y-137621485D01*
X163214286Y-137954819D02*
X163214286Y-137288152D01*
X163214286Y-137478628D02*
X163166667Y-137383390D01*
X163166667Y-137383390D02*
X163119048Y-137335771D01*
X163119048Y-137335771D02*
X163023810Y-137288152D01*
X163023810Y-137288152D02*
X162928572Y-137288152D01*
X162595238Y-137954819D02*
X162595238Y-137288152D01*
X162595238Y-137478628D02*
X162547619Y-137383390D01*
X162547619Y-137383390D02*
X162500000Y-137335771D01*
X162500000Y-137335771D02*
X162404762Y-137288152D01*
X162404762Y-137288152D02*
X162309524Y-137288152D01*
X162071428Y-137288152D02*
X161833333Y-137954819D01*
X161595238Y-137288152D02*
X161833333Y-137954819D01*
X161833333Y-137954819D02*
X161928571Y-138192914D01*
X161928571Y-138192914D02*
X161976190Y-138240533D01*
X161976190Y-138240533D02*
X162071428Y-138288152D01*
X160452380Y-137954819D02*
X160452380Y-136954819D01*
X160452380Y-136954819D02*
X160071428Y-136954819D01*
X160071428Y-136954819D02*
X159976190Y-137002438D01*
X159976190Y-137002438D02*
X159928571Y-137050057D01*
X159928571Y-137050057D02*
X159880952Y-137145295D01*
X159880952Y-137145295D02*
X159880952Y-137288152D01*
X159880952Y-137288152D02*
X159928571Y-137383390D01*
X159928571Y-137383390D02*
X159976190Y-137431009D01*
X159976190Y-137431009D02*
X160071428Y-137478628D01*
X160071428Y-137478628D02*
X160452380Y-137478628D01*
X159452380Y-137954819D02*
X159452380Y-137288152D01*
X159452380Y-136954819D02*
X159499999Y-137002438D01*
X159499999Y-137002438D02*
X159452380Y-137050057D01*
X159452380Y-137050057D02*
X159404761Y-137002438D01*
X159404761Y-137002438D02*
X159452380Y-136954819D01*
X159452380Y-136954819D02*
X159452380Y-137050057D01*
X158214285Y-137954819D02*
X158214285Y-136954819D01*
X158214285Y-136954819D02*
X157833333Y-136954819D01*
X157833333Y-136954819D02*
X157738095Y-137002438D01*
X157738095Y-137002438D02*
X157690476Y-137050057D01*
X157690476Y-137050057D02*
X157642857Y-137145295D01*
X157642857Y-137145295D02*
X157642857Y-137288152D01*
X157642857Y-137288152D02*
X157690476Y-137383390D01*
X157690476Y-137383390D02*
X157738095Y-137431009D01*
X157738095Y-137431009D02*
X157833333Y-137478628D01*
X157833333Y-137478628D02*
X158214285Y-137478628D01*
X157214285Y-137954819D02*
X157214285Y-137288152D01*
X157214285Y-136954819D02*
X157261904Y-137002438D01*
X157261904Y-137002438D02*
X157214285Y-137050057D01*
X157214285Y-137050057D02*
X157166666Y-137002438D01*
X157166666Y-137002438D02*
X157214285Y-136954819D01*
X157214285Y-136954819D02*
X157214285Y-137050057D01*
X156309524Y-137907200D02*
X156404762Y-137954819D01*
X156404762Y-137954819D02*
X156595238Y-137954819D01*
X156595238Y-137954819D02*
X156690476Y-137907200D01*
X156690476Y-137907200D02*
X156738095Y-137859580D01*
X156738095Y-137859580D02*
X156785714Y-137764342D01*
X156785714Y-137764342D02*
X156785714Y-137478628D01*
X156785714Y-137478628D02*
X156738095Y-137383390D01*
X156738095Y-137383390D02*
X156690476Y-137335771D01*
X156690476Y-137335771D02*
X156595238Y-137288152D01*
X156595238Y-137288152D02*
X156404762Y-137288152D01*
X156404762Y-137288152D02*
X156309524Y-137335771D01*
X155738095Y-137954819D02*
X155833333Y-137907200D01*
X155833333Y-137907200D02*
X155880952Y-137859580D01*
X155880952Y-137859580D02*
X155928571Y-137764342D01*
X155928571Y-137764342D02*
X155928571Y-137478628D01*
X155928571Y-137478628D02*
X155880952Y-137383390D01*
X155880952Y-137383390D02*
X155833333Y-137335771D01*
X155833333Y-137335771D02*
X155738095Y-137288152D01*
X155738095Y-137288152D02*
X155595238Y-137288152D01*
X155595238Y-137288152D02*
X155500000Y-137335771D01*
X155500000Y-137335771D02*
X155452381Y-137383390D01*
X155452381Y-137383390D02*
X155404762Y-137478628D01*
X155404762Y-137478628D02*
X155404762Y-137764342D01*
X155404762Y-137764342D02*
X155452381Y-137859580D01*
X155452381Y-137859580D02*
X155500000Y-137907200D01*
X155500000Y-137907200D02*
X155595238Y-137954819D01*
X155595238Y-137954819D02*
X155738095Y-137954819D01*
X154214285Y-137573866D02*
X153452381Y-137573866D01*
X153833333Y-137954819D02*
X153833333Y-137192914D01*
X152357142Y-136954819D02*
X151785714Y-136954819D01*
X152071428Y-137954819D02*
X152071428Y-136954819D01*
X150880952Y-137859580D02*
X150928571Y-137907200D01*
X150928571Y-137907200D02*
X151071428Y-137954819D01*
X151071428Y-137954819D02*
X151166666Y-137954819D01*
X151166666Y-137954819D02*
X151309523Y-137907200D01*
X151309523Y-137907200D02*
X151404761Y-137811961D01*
X151404761Y-137811961D02*
X151452380Y-137716723D01*
X151452380Y-137716723D02*
X151499999Y-137526247D01*
X151499999Y-137526247D02*
X151499999Y-137383390D01*
X151499999Y-137383390D02*
X151452380Y-137192914D01*
X151452380Y-137192914D02*
X151404761Y-137097676D01*
X151404761Y-137097676D02*
X151309523Y-137002438D01*
X151309523Y-137002438D02*
X151166666Y-136954819D01*
X151166666Y-136954819D02*
X151071428Y-136954819D01*
X151071428Y-136954819D02*
X150928571Y-137002438D01*
X150928571Y-137002438D02*
X150880952Y-137050057D01*
X150547618Y-136954819D02*
X149880952Y-136954819D01*
X149880952Y-136954819D02*
X150309523Y-137954819D01*
X149357142Y-137383390D02*
X149452380Y-137335771D01*
X149452380Y-137335771D02*
X149499999Y-137288152D01*
X149499999Y-137288152D02*
X149547618Y-137192914D01*
X149547618Y-137192914D02*
X149547618Y-137145295D01*
X149547618Y-137145295D02*
X149499999Y-137050057D01*
X149499999Y-137050057D02*
X149452380Y-137002438D01*
X149452380Y-137002438D02*
X149357142Y-136954819D01*
X149357142Y-136954819D02*
X149166666Y-136954819D01*
X149166666Y-136954819D02*
X149071428Y-137002438D01*
X149071428Y-137002438D02*
X149023809Y-137050057D01*
X149023809Y-137050057D02*
X148976190Y-137145295D01*
X148976190Y-137145295D02*
X148976190Y-137192914D01*
X148976190Y-137192914D02*
X149023809Y-137288152D01*
X149023809Y-137288152D02*
X149071428Y-137335771D01*
X149071428Y-137335771D02*
X149166666Y-137383390D01*
X149166666Y-137383390D02*
X149357142Y-137383390D01*
X149357142Y-137383390D02*
X149452380Y-137431009D01*
X149452380Y-137431009D02*
X149499999Y-137478628D01*
X149499999Y-137478628D02*
X149547618Y-137573866D01*
X149547618Y-137573866D02*
X149547618Y-137764342D01*
X149547618Y-137764342D02*
X149499999Y-137859580D01*
X149499999Y-137859580D02*
X149452380Y-137907200D01*
X149452380Y-137907200D02*
X149357142Y-137954819D01*
X149357142Y-137954819D02*
X149166666Y-137954819D01*
X149166666Y-137954819D02*
X149071428Y-137907200D01*
X149071428Y-137907200D02*
X149023809Y-137859580D01*
X149023809Y-137859580D02*
X148976190Y-137764342D01*
X148976190Y-137764342D02*
X148976190Y-137573866D01*
X148976190Y-137573866D02*
X149023809Y-137478628D01*
X149023809Y-137478628D02*
X149071428Y-137431009D01*
X149071428Y-137431009D02*
X149166666Y-137383390D01*
X148547618Y-137954819D02*
X148547618Y-136954819D01*
X148547618Y-137431009D02*
X147976190Y-137431009D01*
X147976190Y-137954819D02*
X147976190Y-136954819D01*
X147071428Y-136954819D02*
X147261904Y-136954819D01*
X147261904Y-136954819D02*
X147357142Y-137002438D01*
X147357142Y-137002438D02*
X147404761Y-137050057D01*
X147404761Y-137050057D02*
X147499999Y-137192914D01*
X147499999Y-137192914D02*
X147547618Y-137383390D01*
X147547618Y-137383390D02*
X147547618Y-137764342D01*
X147547618Y-137764342D02*
X147499999Y-137859580D01*
X147499999Y-137859580D02*
X147452380Y-137907200D01*
X147452380Y-137907200D02*
X147357142Y-137954819D01*
X147357142Y-137954819D02*
X147166666Y-137954819D01*
X147166666Y-137954819D02*
X147071428Y-137907200D01*
X147071428Y-137907200D02*
X147023809Y-137859580D01*
X147023809Y-137859580D02*
X146976190Y-137764342D01*
X146976190Y-137764342D02*
X146976190Y-137526247D01*
X146976190Y-137526247D02*
X147023809Y-137431009D01*
X147023809Y-137431009D02*
X147071428Y-137383390D01*
X147071428Y-137383390D02*
X147166666Y-137335771D01*
X147166666Y-137335771D02*
X147357142Y-137335771D01*
X147357142Y-137335771D02*
X147452380Y-137383390D01*
X147452380Y-137383390D02*
X147499999Y-137431009D01*
X147499999Y-137431009D02*
X147547618Y-137526247D01*
X146071428Y-136954819D02*
X146547618Y-136954819D01*
X146547618Y-136954819D02*
X146595237Y-137431009D01*
X146595237Y-137431009D02*
X146547618Y-137383390D01*
X146547618Y-137383390D02*
X146452380Y-137335771D01*
X146452380Y-137335771D02*
X146214285Y-137335771D01*
X146214285Y-137335771D02*
X146119047Y-137383390D01*
X146119047Y-137383390D02*
X146071428Y-137431009D01*
X146071428Y-137431009D02*
X146023809Y-137526247D01*
X146023809Y-137526247D02*
X146023809Y-137764342D01*
X146023809Y-137764342D02*
X146071428Y-137859580D01*
X146071428Y-137859580D02*
X146119047Y-137907200D01*
X146119047Y-137907200D02*
X146214285Y-137954819D01*
X146214285Y-137954819D02*
X146452380Y-137954819D01*
X146452380Y-137954819D02*
X146547618Y-137907200D01*
X146547618Y-137907200D02*
X146595237Y-137859580D01*
X145690475Y-136954819D02*
X145071428Y-136954819D01*
X145071428Y-136954819D02*
X145404761Y-137335771D01*
X145404761Y-137335771D02*
X145261904Y-137335771D01*
X145261904Y-137335771D02*
X145166666Y-137383390D01*
X145166666Y-137383390D02*
X145119047Y-137431009D01*
X145119047Y-137431009D02*
X145071428Y-137526247D01*
X145071428Y-137526247D02*
X145071428Y-137764342D01*
X145071428Y-137764342D02*
X145119047Y-137859580D01*
X145119047Y-137859580D02*
X145166666Y-137907200D01*
X145166666Y-137907200D02*
X145261904Y-137954819D01*
X145261904Y-137954819D02*
X145547618Y-137954819D01*
X145547618Y-137954819D02*
X145642856Y-137907200D01*
X145642856Y-137907200D02*
X145690475Y-137859580D01*
X144309523Y-137431009D02*
X144642856Y-137431009D01*
X144642856Y-137954819D02*
X144642856Y-136954819D01*
X144642856Y-136954819D02*
X144166666Y-136954819D01*
X143928570Y-136954819D02*
X143357142Y-136954819D01*
X143642856Y-137954819D02*
X143642856Y-136954819D01*
X142499999Y-137002438D02*
X142595237Y-136954819D01*
X142595237Y-136954819D02*
X142738094Y-136954819D01*
X142738094Y-136954819D02*
X142880951Y-137002438D01*
X142880951Y-137002438D02*
X142976189Y-137097676D01*
X142976189Y-137097676D02*
X143023808Y-137192914D01*
X143023808Y-137192914D02*
X143071427Y-137383390D01*
X143071427Y-137383390D02*
X143071427Y-137526247D01*
X143071427Y-137526247D02*
X143023808Y-137716723D01*
X143023808Y-137716723D02*
X142976189Y-137811961D01*
X142976189Y-137811961D02*
X142880951Y-137907200D01*
X142880951Y-137907200D02*
X142738094Y-137954819D01*
X142738094Y-137954819D02*
X142642856Y-137954819D01*
X142642856Y-137954819D02*
X142499999Y-137907200D01*
X142499999Y-137907200D02*
X142452380Y-137859580D01*
X142452380Y-137859580D02*
X142452380Y-137526247D01*
X142452380Y-137526247D02*
X142642856Y-137526247D01*
X141261903Y-137573866D02*
X140499999Y-137573866D01*
X140880951Y-137954819D02*
X140880951Y-137192914D01*
X138928570Y-137431009D02*
X139261903Y-137431009D01*
X139261903Y-137954819D02*
X139261903Y-136954819D01*
X139261903Y-136954819D02*
X138785713Y-136954819D01*
X138452379Y-137669104D02*
X137976189Y-137669104D01*
X138547617Y-137954819D02*
X138214284Y-136954819D01*
X138214284Y-136954819D02*
X137880951Y-137954819D01*
X137547617Y-137573866D02*
X136785713Y-137573866D01*
X135785713Y-137954819D02*
X136357141Y-137954819D01*
X136071427Y-137954819D02*
X136071427Y-136954819D01*
X136071427Y-136954819D02*
X136166665Y-137097676D01*
X136166665Y-137097676D02*
X136261903Y-137192914D01*
X136261903Y-137192914D02*
X136357141Y-137240533D01*
X135452379Y-136954819D02*
X134833332Y-136954819D01*
X134833332Y-136954819D02*
X135166665Y-137335771D01*
X135166665Y-137335771D02*
X135023808Y-137335771D01*
X135023808Y-137335771D02*
X134928570Y-137383390D01*
X134928570Y-137383390D02*
X134880951Y-137431009D01*
X134880951Y-137431009D02*
X134833332Y-137526247D01*
X134833332Y-137526247D02*
X134833332Y-137764342D01*
X134833332Y-137764342D02*
X134880951Y-137859580D01*
X134880951Y-137859580D02*
X134928570Y-137907200D01*
X134928570Y-137907200D02*
X135023808Y-137954819D01*
X135023808Y-137954819D02*
X135309522Y-137954819D01*
X135309522Y-137954819D02*
X135404760Y-137907200D01*
X135404760Y-137907200D02*
X135452379Y-137859580D01*
X134214284Y-136954819D02*
X134119046Y-136954819D01*
X134119046Y-136954819D02*
X134023808Y-137002438D01*
X134023808Y-137002438D02*
X133976189Y-137050057D01*
X133976189Y-137050057D02*
X133928570Y-137145295D01*
X133928570Y-137145295D02*
X133880951Y-137335771D01*
X133880951Y-137335771D02*
X133880951Y-137573866D01*
X133880951Y-137573866D02*
X133928570Y-137764342D01*
X133928570Y-137764342D02*
X133976189Y-137859580D01*
X133976189Y-137859580D02*
X134023808Y-137907200D01*
X134023808Y-137907200D02*
X134119046Y-137954819D01*
X134119046Y-137954819D02*
X134214284Y-137954819D01*
X134214284Y-137954819D02*
X134309522Y-137907200D01*
X134309522Y-137907200D02*
X134357141Y-137859580D01*
X134357141Y-137859580D02*
X134404760Y-137764342D01*
X134404760Y-137764342D02*
X134452379Y-137573866D01*
X134452379Y-137573866D02*
X134452379Y-137335771D01*
X134452379Y-137335771D02*
X134404760Y-137145295D01*
X134404760Y-137145295D02*
X134357141Y-137050057D01*
X134357141Y-137050057D02*
X134309522Y-137002438D01*
X134309522Y-137002438D02*
X134214284Y-136954819D01*
X132785712Y-137954819D02*
X132261903Y-137288152D01*
X132785712Y-137288152D02*
X132261903Y-137954819D01*
X131928569Y-137050057D02*
X131880950Y-137002438D01*
X131880950Y-137002438D02*
X131785712Y-136954819D01*
X131785712Y-136954819D02*
X131547617Y-136954819D01*
X131547617Y-136954819D02*
X131452379Y-137002438D01*
X131452379Y-137002438D02*
X131404760Y-137050057D01*
X131404760Y-137050057D02*
X131357141Y-137145295D01*
X131357141Y-137145295D02*
X131357141Y-137240533D01*
X131357141Y-137240533D02*
X131404760Y-137383390D01*
X131404760Y-137383390D02*
X131976188Y-137954819D01*
X131976188Y-137954819D02*
X131357141Y-137954819D01*
D11*
X160628570Y-135045782D02*
X160628570Y-134245782D01*
X160628570Y-134474354D02*
X160571427Y-134360068D01*
X160571427Y-134360068D02*
X160514285Y-134302925D01*
X160514285Y-134302925D02*
X160399999Y-134245782D01*
X160399999Y-134245782D02*
X160285713Y-134245782D01*
X159428570Y-134988640D02*
X159542856Y-135045782D01*
X159542856Y-135045782D02*
X159771428Y-135045782D01*
X159771428Y-135045782D02*
X159885713Y-134988640D01*
X159885713Y-134988640D02*
X159942856Y-134874354D01*
X159942856Y-134874354D02*
X159942856Y-134417211D01*
X159942856Y-134417211D02*
X159885713Y-134302925D01*
X159885713Y-134302925D02*
X159771428Y-134245782D01*
X159771428Y-134245782D02*
X159542856Y-134245782D01*
X159542856Y-134245782D02*
X159428570Y-134302925D01*
X159428570Y-134302925D02*
X159371428Y-134417211D01*
X159371428Y-134417211D02*
X159371428Y-134531497D01*
X159371428Y-134531497D02*
X159942856Y-134645782D01*
X158971428Y-134245782D02*
X158685714Y-135045782D01*
X158685714Y-135045782D02*
X158399999Y-134245782D01*
X157942856Y-134931497D02*
X157885713Y-134988640D01*
X157885713Y-134988640D02*
X157942856Y-135045782D01*
X157942856Y-135045782D02*
X157999999Y-134988640D01*
X157999999Y-134988640D02*
X157942856Y-134931497D01*
X157942856Y-134931497D02*
X157942856Y-135045782D01*
X157428570Y-134702925D02*
X156857142Y-134702925D01*
X157542856Y-135045782D02*
X157142856Y-133845782D01*
X157142856Y-133845782D02*
X156742856Y-135045782D01*
X155714285Y-135045782D02*
X156399999Y-135045782D01*
X156057142Y-135045782D02*
X156057142Y-133845782D01*
X156057142Y-133845782D02*
X156171428Y-134017211D01*
X156171428Y-134017211D02*
X156285713Y-134131497D01*
X156285713Y-134131497D02*
X156399999Y-134188640D01*
X153428570Y-133960068D02*
X153371427Y-133902925D01*
X153371427Y-133902925D02*
X153257142Y-133845782D01*
X153257142Y-133845782D02*
X152971427Y-133845782D01*
X152971427Y-133845782D02*
X152857142Y-133902925D01*
X152857142Y-133902925D02*
X152799999Y-133960068D01*
X152799999Y-133960068D02*
X152742856Y-134074354D01*
X152742856Y-134074354D02*
X152742856Y-134188640D01*
X152742856Y-134188640D02*
X152799999Y-134360068D01*
X152799999Y-134360068D02*
X153485713Y-135045782D01*
X153485713Y-135045782D02*
X152742856Y-135045782D01*
X151999999Y-133845782D02*
X151885713Y-133845782D01*
X151885713Y-133845782D02*
X151771427Y-133902925D01*
X151771427Y-133902925D02*
X151714285Y-133960068D01*
X151714285Y-133960068D02*
X151657142Y-134074354D01*
X151657142Y-134074354D02*
X151599999Y-134302925D01*
X151599999Y-134302925D02*
X151599999Y-134588640D01*
X151599999Y-134588640D02*
X151657142Y-134817211D01*
X151657142Y-134817211D02*
X151714285Y-134931497D01*
X151714285Y-134931497D02*
X151771427Y-134988640D01*
X151771427Y-134988640D02*
X151885713Y-135045782D01*
X151885713Y-135045782D02*
X151999999Y-135045782D01*
X151999999Y-135045782D02*
X152114285Y-134988640D01*
X152114285Y-134988640D02*
X152171427Y-134931497D01*
X152171427Y-134931497D02*
X152228570Y-134817211D01*
X152228570Y-134817211D02*
X152285713Y-134588640D01*
X152285713Y-134588640D02*
X152285713Y-134302925D01*
X152285713Y-134302925D02*
X152228570Y-134074354D01*
X152228570Y-134074354D02*
X152171427Y-133960068D01*
X152171427Y-133960068D02*
X152114285Y-133902925D01*
X152114285Y-133902925D02*
X151999999Y-133845782D01*
X151142856Y-133960068D02*
X151085713Y-133902925D01*
X151085713Y-133902925D02*
X150971428Y-133845782D01*
X150971428Y-133845782D02*
X150685713Y-133845782D01*
X150685713Y-133845782D02*
X150571428Y-133902925D01*
X150571428Y-133902925D02*
X150514285Y-133960068D01*
X150514285Y-133960068D02*
X150457142Y-134074354D01*
X150457142Y-134074354D02*
X150457142Y-134188640D01*
X150457142Y-134188640D02*
X150514285Y-134360068D01*
X150514285Y-134360068D02*
X151199999Y-135045782D01*
X151199999Y-135045782D02*
X150457142Y-135045782D01*
X149428571Y-133845782D02*
X149657142Y-133845782D01*
X149657142Y-133845782D02*
X149771428Y-133902925D01*
X149771428Y-133902925D02*
X149828571Y-133960068D01*
X149828571Y-133960068D02*
X149942856Y-134131497D01*
X149942856Y-134131497D02*
X149999999Y-134360068D01*
X149999999Y-134360068D02*
X149999999Y-134817211D01*
X149999999Y-134817211D02*
X149942856Y-134931497D01*
X149942856Y-134931497D02*
X149885713Y-134988640D01*
X149885713Y-134988640D02*
X149771428Y-135045782D01*
X149771428Y-135045782D02*
X149542856Y-135045782D01*
X149542856Y-135045782D02*
X149428571Y-134988640D01*
X149428571Y-134988640D02*
X149371428Y-134931497D01*
X149371428Y-134931497D02*
X149314285Y-134817211D01*
X149314285Y-134817211D02*
X149314285Y-134531497D01*
X149314285Y-134531497D02*
X149371428Y-134417211D01*
X149371428Y-134417211D02*
X149428571Y-134360068D01*
X149428571Y-134360068D02*
X149542856Y-134302925D01*
X149542856Y-134302925D02*
X149771428Y-134302925D01*
X149771428Y-134302925D02*
X149885713Y-134360068D01*
X149885713Y-134360068D02*
X149942856Y-134417211D01*
X149942856Y-134417211D02*
X149999999Y-134531497D01*
X148799999Y-134588640D02*
X147885714Y-134588640D01*
X146685714Y-135045782D02*
X147371428Y-135045782D01*
X147028571Y-135045782D02*
X147028571Y-133845782D01*
X147028571Y-133845782D02*
X147142857Y-134017211D01*
X147142857Y-134017211D02*
X147257142Y-134131497D01*
X147257142Y-134131497D02*
X147371428Y-134188640D01*
X145942857Y-133845782D02*
X145828571Y-133845782D01*
X145828571Y-133845782D02*
X145714285Y-133902925D01*
X145714285Y-133902925D02*
X145657143Y-133960068D01*
X145657143Y-133960068D02*
X145600000Y-134074354D01*
X145600000Y-134074354D02*
X145542857Y-134302925D01*
X145542857Y-134302925D02*
X145542857Y-134588640D01*
X145542857Y-134588640D02*
X145600000Y-134817211D01*
X145600000Y-134817211D02*
X145657143Y-134931497D01*
X145657143Y-134931497D02*
X145714285Y-134988640D01*
X145714285Y-134988640D02*
X145828571Y-135045782D01*
X145828571Y-135045782D02*
X145942857Y-135045782D01*
X145942857Y-135045782D02*
X146057143Y-134988640D01*
X146057143Y-134988640D02*
X146114285Y-134931497D01*
X146114285Y-134931497D02*
X146171428Y-134817211D01*
X146171428Y-134817211D02*
X146228571Y-134588640D01*
X146228571Y-134588640D02*
X146228571Y-134302925D01*
X146228571Y-134302925D02*
X146171428Y-134074354D01*
X146171428Y-134074354D02*
X146114285Y-133960068D01*
X146114285Y-133960068D02*
X146057143Y-133902925D01*
X146057143Y-133902925D02*
X145942857Y-133845782D01*
X143199999Y-134417211D02*
X142799999Y-134417211D01*
X142628571Y-135045782D02*
X143199999Y-135045782D01*
X143199999Y-135045782D02*
X143199999Y-133845782D01*
X143199999Y-133845782D02*
X142628571Y-133845782D01*
X142114285Y-135045782D02*
X142114285Y-133845782D01*
X142114285Y-133845782D02*
X141828571Y-133845782D01*
X141828571Y-133845782D02*
X141657142Y-133902925D01*
X141657142Y-133902925D02*
X141542857Y-134017211D01*
X141542857Y-134017211D02*
X141485714Y-134131497D01*
X141485714Y-134131497D02*
X141428571Y-134360068D01*
X141428571Y-134360068D02*
X141428571Y-134531497D01*
X141428571Y-134531497D02*
X141485714Y-134760068D01*
X141485714Y-134760068D02*
X141542857Y-134874354D01*
X141542857Y-134874354D02*
X141657142Y-134988640D01*
X141657142Y-134988640D02*
X141828571Y-135045782D01*
X141828571Y-135045782D02*
X142114285Y-135045782D01*
X141085714Y-133845782D02*
X140400000Y-133845782D01*
X140742857Y-135045782D02*
X140742857Y-133845782D01*
X139314285Y-134931497D02*
X139371428Y-134988640D01*
X139371428Y-134988640D02*
X139542856Y-135045782D01*
X139542856Y-135045782D02*
X139657142Y-135045782D01*
X139657142Y-135045782D02*
X139828571Y-134988640D01*
X139828571Y-134988640D02*
X139942856Y-134874354D01*
X139942856Y-134874354D02*
X139999999Y-134760068D01*
X139999999Y-134760068D02*
X140057142Y-134531497D01*
X140057142Y-134531497D02*
X140057142Y-134360068D01*
X140057142Y-134360068D02*
X139999999Y-134131497D01*
X139999999Y-134131497D02*
X139942856Y-134017211D01*
X139942856Y-134017211D02*
X139828571Y-133902925D01*
X139828571Y-133902925D02*
X139657142Y-133845782D01*
X139657142Y-133845782D02*
X139542856Y-133845782D01*
X139542856Y-133845782D02*
X139371428Y-133902925D01*
X139371428Y-133902925D02*
X139314285Y-133960068D01*
D12*
X160500000Y-131356657D02*
X161928572Y-131356657D01*
X161928572Y-131356657D02*
X161928572Y-128356657D01*
X159500001Y-131356657D02*
X159500001Y-129356657D01*
X159500001Y-128356657D02*
X159642858Y-128499514D01*
X159642858Y-128499514D02*
X159500001Y-128642371D01*
X159500001Y-128642371D02*
X159357144Y-128499514D01*
X159357144Y-128499514D02*
X159500001Y-128356657D01*
X159500001Y-128356657D02*
X159500001Y-128642371D01*
X158071430Y-129356657D02*
X158071430Y-131356657D01*
X158071430Y-129642371D02*
X157928573Y-129499514D01*
X157928573Y-129499514D02*
X157642858Y-129356657D01*
X157642858Y-129356657D02*
X157214287Y-129356657D01*
X157214287Y-129356657D02*
X156928573Y-129499514D01*
X156928573Y-129499514D02*
X156785716Y-129785228D01*
X156785716Y-129785228D02*
X156785716Y-131356657D01*
X154214287Y-131213800D02*
X154500001Y-131356657D01*
X154500001Y-131356657D02*
X155071430Y-131356657D01*
X155071430Y-131356657D02*
X155357144Y-131213800D01*
X155357144Y-131213800D02*
X155500001Y-130928085D01*
X155500001Y-130928085D02*
X155500001Y-129785228D01*
X155500001Y-129785228D02*
X155357144Y-129499514D01*
X155357144Y-129499514D02*
X155071430Y-129356657D01*
X155071430Y-129356657D02*
X154500001Y-129356657D01*
X154500001Y-129356657D02*
X154214287Y-129499514D01*
X154214287Y-129499514D02*
X154071430Y-129785228D01*
X154071430Y-129785228D02*
X154071430Y-130070942D01*
X154071430Y-130070942D02*
X155500001Y-130356657D01*
X153214286Y-129356657D02*
X152071429Y-129356657D01*
X152785715Y-128356657D02*
X152785715Y-130928085D01*
X152785715Y-130928085D02*
X152642858Y-131213800D01*
X152642858Y-131213800D02*
X152357143Y-131356657D01*
X152357143Y-131356657D02*
X152071429Y-131356657D01*
X151071429Y-131356657D02*
X151071429Y-129356657D01*
X151071429Y-129928085D02*
X150928572Y-129642371D01*
X150928572Y-129642371D02*
X150785715Y-129499514D01*
X150785715Y-129499514D02*
X150500000Y-129356657D01*
X150500000Y-129356657D02*
X150214286Y-129356657D01*
X147928572Y-131356657D02*
X147928572Y-129785228D01*
X147928572Y-129785228D02*
X148071429Y-129499514D01*
X148071429Y-129499514D02*
X148357143Y-129356657D01*
X148357143Y-129356657D02*
X148928572Y-129356657D01*
X148928572Y-129356657D02*
X149214286Y-129499514D01*
X147928572Y-131213800D02*
X148214286Y-131356657D01*
X148214286Y-131356657D02*
X148928572Y-131356657D01*
X148928572Y-131356657D02*
X149214286Y-131213800D01*
X149214286Y-131213800D02*
X149357143Y-130928085D01*
X149357143Y-130928085D02*
X149357143Y-130642371D01*
X149357143Y-130642371D02*
X149214286Y-130356657D01*
X149214286Y-130356657D02*
X148928572Y-130213800D01*
X148928572Y-130213800D02*
X148214286Y-130213800D01*
X148214286Y-130213800D02*
X147928572Y-130070942D01*
X145214286Y-131213800D02*
X145500000Y-131356657D01*
X145500000Y-131356657D02*
X146071428Y-131356657D01*
X146071428Y-131356657D02*
X146357143Y-131213800D01*
X146357143Y-131213800D02*
X146500000Y-131070942D01*
X146500000Y-131070942D02*
X146642857Y-130785228D01*
X146642857Y-130785228D02*
X146642857Y-129928085D01*
X146642857Y-129928085D02*
X146500000Y-129642371D01*
X146500000Y-129642371D02*
X146357143Y-129499514D01*
X146357143Y-129499514D02*
X146071428Y-129356657D01*
X146071428Y-129356657D02*
X145500000Y-129356657D01*
X145500000Y-129356657D02*
X145214286Y-129499514D01*
X142785714Y-131213800D02*
X143071428Y-131356657D01*
X143071428Y-131356657D02*
X143642857Y-131356657D01*
X143642857Y-131356657D02*
X143928571Y-131213800D01*
X143928571Y-131213800D02*
X144071428Y-130928085D01*
X144071428Y-130928085D02*
X144071428Y-129785228D01*
X144071428Y-129785228D02*
X143928571Y-129499514D01*
X143928571Y-129499514D02*
X143642857Y-129356657D01*
X143642857Y-129356657D02*
X143071428Y-129356657D01*
X143071428Y-129356657D02*
X142785714Y-129499514D01*
X142785714Y-129499514D02*
X142642857Y-129785228D01*
X142642857Y-129785228D02*
X142642857Y-130070942D01*
X142642857Y-130070942D02*
X144071428Y-130356657D01*
X141357142Y-131356657D02*
X141357142Y-129356657D01*
X141357142Y-129928085D02*
X141214285Y-129642371D01*
X141214285Y-129642371D02*
X141071428Y-129499514D01*
X141071428Y-129499514D02*
X140785713Y-129356657D01*
X140785713Y-129356657D02*
X140499999Y-129356657D01*
X139642856Y-128642371D02*
X139499999Y-128499514D01*
X139499999Y-128499514D02*
X139214285Y-128356657D01*
X139214285Y-128356657D02*
X138499999Y-128356657D01*
X138499999Y-128356657D02*
X138214285Y-128499514D01*
X138214285Y-128499514D02*
X138071427Y-128642371D01*
X138071427Y-128642371D02*
X137928570Y-128928085D01*
X137928570Y-128928085D02*
X137928570Y-129213800D01*
X137928570Y-129213800D02*
X138071427Y-129642371D01*
X138071427Y-129642371D02*
X139785713Y-131356657D01*
X139785713Y-131356657D02*
X137928570Y-131356657D01*
D10*
G36*
X163637152Y-63581236D02*
G01*
X163852184Y-63414956D01*
X163942277Y-63449628D01*
X164011235Y-63466637D01*
X164752658Y-63617189D01*
X164752658Y-63352039D01*
X164742255Y-63169777D01*
X164732533Y-63093630D01*
X165066266Y-63093630D01*
X165051417Y-63250143D01*
X165048387Y-63352039D01*
X165048387Y-63673364D01*
X165572533Y-63760999D01*
X165518799Y-64055360D01*
X165048387Y-63956491D01*
X165048387Y-64569931D01*
X165044654Y-64658231D01*
X165031028Y-64734754D01*
X165015955Y-64776497D01*
X164994768Y-64813797D01*
X164970661Y-64842689D01*
X164940677Y-64868276D01*
X164862121Y-64909148D01*
X164745874Y-64938938D01*
X164570625Y-64955736D01*
X164463768Y-64957789D01*
X164146087Y-64946721D01*
X163801374Y-64913023D01*
X163769337Y-64908549D01*
X163760348Y-64603637D01*
X163922035Y-64633081D01*
X164089563Y-64656544D01*
X164243130Y-64671395D01*
X164396470Y-64679146D01*
X164466015Y-64680036D01*
X164560808Y-64676786D01*
X164632574Y-64666540D01*
X164671796Y-64654374D01*
X164701748Y-64637893D01*
X164720925Y-64620106D01*
X164734847Y-64598762D01*
X164750172Y-64541852D01*
X164752658Y-64491285D01*
X164752658Y-63895821D01*
X164062819Y-63758752D01*
X164157174Y-63908043D01*
X164229152Y-64004250D01*
X164310042Y-64100452D01*
X164421172Y-64212653D01*
X164174780Y-64358710D01*
X164056001Y-64225238D01*
X163903661Y-64018992D01*
X163747411Y-63770675D01*
X163711109Y-63704823D01*
X163640667Y-63586700D01*
X163637152Y-63581236D01*
G37*
G36*
X162900223Y-63163288D02*
G01*
X163110760Y-63387307D01*
X162924644Y-63530848D01*
X162658020Y-63764726D01*
X162550760Y-63871201D01*
X162322344Y-63638193D01*
X162467143Y-63501964D01*
X162721819Y-63293397D01*
X162900223Y-63163288D01*
G37*
G36*
X163180223Y-64655123D02*
G01*
X162992058Y-64950852D01*
X162773902Y-64901764D01*
X162552217Y-64827671D01*
X162331755Y-64729375D01*
X162161046Y-64634997D01*
X161958970Y-64499104D01*
X161767458Y-64341010D01*
X161593618Y-64165975D01*
X161515730Y-64074501D01*
X161444793Y-63981587D01*
X161332281Y-63806233D01*
X161506964Y-63490378D01*
X161601563Y-63663352D01*
X161661837Y-63753719D01*
X161729558Y-63843857D01*
X161804426Y-63932939D01*
X161886116Y-64020108D01*
X161972110Y-64102519D01*
X162064010Y-64181522D01*
X162157452Y-64253382D01*
X162255804Y-64320694D01*
X162322344Y-64361739D01*
X162419598Y-64416140D01*
X162525566Y-64467776D01*
X162635262Y-64513960D01*
X162752505Y-64556053D01*
X162871019Y-64591663D01*
X162995963Y-64622222D01*
X163180223Y-64655123D01*
G37*
G36*
X161070160Y-63505325D02*
G01*
X161070160Y-63810043D01*
X160828164Y-63801055D01*
X160637850Y-63801055D01*
X160637850Y-64106260D01*
X160647102Y-64308319D01*
X160651235Y-64341808D01*
X160337627Y-64341808D01*
X160339406Y-64309890D01*
X160346615Y-64106260D01*
X160346615Y-63801055D01*
X159815729Y-63801055D01*
X159815729Y-63886344D01*
X159818876Y-64003064D01*
X159828401Y-64108766D01*
X159842505Y-64194990D01*
X159861951Y-64273495D01*
X159884887Y-64340007D01*
X159912587Y-64400782D01*
X159943868Y-64454361D01*
X159979709Y-64503425D01*
X160065862Y-64590055D01*
X160177324Y-64666845D01*
X160325927Y-64739004D01*
X160438450Y-64781543D01*
X160198799Y-65008200D01*
X160100308Y-64961385D01*
X160011306Y-64911922D01*
X159936051Y-64862944D01*
X159868429Y-64811325D01*
X159810421Y-64759196D01*
X159758804Y-64704366D01*
X159713947Y-64647642D01*
X159674686Y-64588047D01*
X159611075Y-64457944D01*
X159565198Y-64307596D01*
X159536152Y-64127274D01*
X159524690Y-63900914D01*
X159524591Y-63875109D01*
X159524591Y-63801055D01*
X159358799Y-63801055D01*
X159112407Y-63807796D01*
X159112407Y-63509819D01*
X159183313Y-63519520D01*
X159272546Y-63524508D01*
X159358799Y-63525549D01*
X159524591Y-63525549D01*
X159524591Y-63289415D01*
X159516344Y-63131803D01*
X159512925Y-63097960D01*
X159511109Y-63080245D01*
X159829211Y-63080245D01*
X159820068Y-63166227D01*
X159815734Y-63284970D01*
X159815729Y-63289415D01*
X159815729Y-63525549D01*
X160346615Y-63525549D01*
X160346615Y-63302897D01*
X160337388Y-63131810D01*
X160333133Y-63100566D01*
X160651235Y-63100566D01*
X160642015Y-63202574D01*
X160637850Y-63302897D01*
X160637850Y-63525549D01*
X160828164Y-63525549D01*
X160990572Y-63516520D01*
X161070160Y-63505325D01*
G37*
G36*
X158753956Y-63829484D02*
G01*
X158753956Y-64181194D01*
X158393356Y-64169959D01*
X157190509Y-64169959D01*
X156988267Y-64177933D01*
X156928387Y-64181194D01*
X156928387Y-63829484D01*
X156950648Y-63831242D01*
X157058002Y-63838880D01*
X157190509Y-63842967D01*
X158393356Y-63842967D01*
X158692208Y-63833739D01*
X158753956Y-63829484D01*
G37*
G36*
X156409234Y-63265494D02*
G01*
X156417627Y-63327810D01*
X156426268Y-63387539D01*
X156478687Y-63785289D01*
X156500521Y-64025410D01*
X156509462Y-64262576D01*
X156498121Y-64533754D01*
X156465606Y-64784665D01*
X156419874Y-64981529D01*
X156166741Y-64961404D01*
X156171235Y-64869568D01*
X156160097Y-64764251D01*
X156100375Y-64544815D01*
X155998799Y-64228968D01*
X156135380Y-64117007D01*
X156167364Y-64187516D01*
X156236203Y-64347670D01*
X156245191Y-64202101D01*
X156234216Y-64005317D01*
X156192830Y-63660087D01*
X156137627Y-63334551D01*
X156102712Y-63185548D01*
X156086140Y-63134272D01*
X156395254Y-63107307D01*
X156409234Y-63265494D01*
G37*
G36*
X155298647Y-63229735D02*
G01*
X155297627Y-63258054D01*
X155295380Y-63507768D01*
X155452184Y-63510015D01*
X155608803Y-63506889D01*
X155762072Y-63497510D01*
X155844242Y-63489792D01*
X155844242Y-63756407D01*
X155650688Y-63766385D01*
X155457216Y-63769789D01*
X155452184Y-63769792D01*
X155293230Y-63767642D01*
X155283330Y-64076830D01*
X155277501Y-64228968D01*
X155423070Y-64219980D01*
X155495314Y-64223060D01*
X155562825Y-64232113D01*
X155624178Y-64246521D01*
X155680481Y-64266141D01*
X155730223Y-64290005D01*
X155774714Y-64318318D01*
X155812693Y-64349854D01*
X155845293Y-64385135D01*
X155871729Y-64422976D01*
X155892647Y-64463966D01*
X155907701Y-64507344D01*
X155916995Y-64553392D01*
X155920348Y-64604418D01*
X155917252Y-64654777D01*
X155908085Y-64701630D01*
X155893522Y-64743773D01*
X155873557Y-64782498D01*
X155818215Y-64849366D01*
X155741027Y-64903228D01*
X155639318Y-64943128D01*
X155510049Y-64966213D01*
X155418576Y-64970294D01*
X155346713Y-64967218D01*
X155282139Y-64958191D01*
X155227185Y-64944336D01*
X155178398Y-64925616D01*
X155136836Y-64903103D01*
X155100657Y-64876511D01*
X155043787Y-64812231D01*
X155004960Y-64731516D01*
X154984070Y-64631143D01*
X154981870Y-64602171D01*
X154838280Y-64713049D01*
X154708513Y-64829219D01*
X154553956Y-64593085D01*
X154660665Y-64500537D01*
X154716627Y-64459924D01*
X155266266Y-64459924D01*
X155266266Y-64500566D01*
X155269532Y-64555915D01*
X155279888Y-64602957D01*
X155293480Y-64633832D01*
X155312330Y-64659372D01*
X155333917Y-64677571D01*
X155360296Y-64691359D01*
X155429863Y-64705468D01*
X155449937Y-64706023D01*
X155506004Y-64702827D01*
X155555694Y-64692955D01*
X155590989Y-64679363D01*
X155619824Y-64660623D01*
X155638350Y-64640759D01*
X155651128Y-64616959D01*
X155658325Y-64575109D01*
X155655256Y-64547811D01*
X155646283Y-64523025D01*
X155611732Y-64481495D01*
X155553184Y-64450863D01*
X155468038Y-64435689D01*
X155445540Y-64435109D01*
X155322669Y-64446935D01*
X155266266Y-64459924D01*
X154716627Y-64459924D01*
X154787502Y-64408489D01*
X154868320Y-64360297D01*
X154956414Y-64316635D01*
X154988513Y-64302925D01*
X154990273Y-64273101D01*
X155003417Y-64033947D01*
X155013230Y-63751034D01*
X154695967Y-63717296D01*
X154666015Y-63713030D01*
X154666015Y-63433030D01*
X154803108Y-63458242D01*
X154948410Y-63477968D01*
X155013230Y-63484516D01*
X155006489Y-63253951D01*
X154993007Y-63109554D01*
X155313356Y-63109554D01*
X155298647Y-63229735D01*
G37*
G36*
X153991709Y-63236365D02*
G01*
X153991709Y-63532192D01*
X153785731Y-63546573D01*
X153561034Y-63554922D01*
X153380223Y-63556812D01*
X152996975Y-63546641D01*
X152732882Y-63529945D01*
X152732882Y-63231773D01*
X153081284Y-63256307D01*
X153382470Y-63263330D01*
X153612745Y-63260203D01*
X153820626Y-63250824D01*
X153991709Y-63236365D01*
G37*
G36*
X153803545Y-64187838D02*
G01*
X154097027Y-64160873D01*
X154102085Y-64184145D01*
X154128480Y-64319783D01*
X154138028Y-64398647D01*
X154141772Y-64484251D01*
X154138646Y-64541258D01*
X154129271Y-64594932D01*
X154114500Y-64642990D01*
X154094043Y-64687909D01*
X154037492Y-64766624D01*
X153958317Y-64833272D01*
X153852938Y-64888329D01*
X153716197Y-64930490D01*
X153542032Y-64956912D01*
X153371235Y-64964041D01*
X153198249Y-64960991D01*
X153036073Y-64952145D01*
X152885407Y-64937903D01*
X152748001Y-64918748D01*
X152593956Y-64887935D01*
X152596203Y-64571885D01*
X152796516Y-64616125D01*
X153063651Y-64648948D01*
X153217371Y-64658306D01*
X153376643Y-64661665D01*
X153382470Y-64661669D01*
X153474109Y-64658606D01*
X153554785Y-64649673D01*
X153620942Y-64636253D01*
X153677913Y-64618293D01*
X153723128Y-64597658D01*
X153760725Y-64573588D01*
X153789421Y-64547938D01*
X153811678Y-64519676D01*
X153837234Y-64457797D01*
X153841646Y-64414690D01*
X153830352Y-64299302D01*
X153803545Y-64187838D01*
G37*
G36*
X152007090Y-63340510D02*
G01*
X152007090Y-63618361D01*
X151695785Y-63636855D01*
X151619623Y-63638487D01*
X151665357Y-63818599D01*
X151720317Y-64004408D01*
X151771519Y-64153493D01*
X151827659Y-64293416D01*
X151874905Y-64393197D01*
X151610635Y-64487377D01*
X151600208Y-64469495D01*
X151547913Y-64388703D01*
X151464285Y-64302413D01*
X151360369Y-64230682D01*
X151236735Y-64175575D01*
X151094970Y-64139813D01*
X150938143Y-64126244D01*
X150927438Y-64126191D01*
X150866925Y-64129237D01*
X150812326Y-64138052D01*
X150764428Y-64151887D01*
X150722345Y-64170379D01*
X150686632Y-64192693D01*
X150656647Y-64218638D01*
X150632602Y-64247530D01*
X150614279Y-64279134D01*
X150594923Y-64349154D01*
X150593705Y-64372974D01*
X150596783Y-64416684D01*
X150605824Y-64457066D01*
X150640185Y-64527495D01*
X150696748Y-64587547D01*
X150778812Y-64638408D01*
X150891558Y-64678897D01*
X151040195Y-64705801D01*
X151227603Y-64714561D01*
X151451038Y-64700397D01*
X151579274Y-64682576D01*
X151500823Y-64971564D01*
X151359058Y-64983858D01*
X151224095Y-64989059D01*
X151104150Y-64987394D01*
X150990941Y-64979305D01*
X150891894Y-64965917D01*
X150799304Y-64946804D01*
X150719333Y-64923856D01*
X150645427Y-64895845D01*
X150582226Y-64865133D01*
X150524691Y-64829926D01*
X150475891Y-64792644D01*
X150432439Y-64751298D01*
X150396005Y-64707879D01*
X150364758Y-64660665D01*
X150339339Y-64610761D01*
X150319152Y-64557157D01*
X150294985Y-64438578D01*
X150291235Y-64363986D01*
X150294328Y-64308473D01*
X150303472Y-64255590D01*
X150318350Y-64205830D01*
X150338805Y-64158998D01*
X150395950Y-64074446D01*
X150474555Y-64002739D01*
X150574747Y-63945572D01*
X150696490Y-63905537D01*
X150839030Y-63885797D01*
X150893831Y-63884293D01*
X150988149Y-63887502D01*
X151079443Y-63897466D01*
X151160773Y-63912877D01*
X151240822Y-63934711D01*
X151317513Y-63962270D01*
X151394089Y-63996525D01*
X151449337Y-64025465D01*
X151375327Y-63748100D01*
X151348513Y-63633504D01*
X150957133Y-63602197D01*
X150508523Y-63545013D01*
X150459274Y-63537175D01*
X150463768Y-63270461D01*
X150772381Y-63325148D01*
X151128592Y-63364914D01*
X151292533Y-63375877D01*
X151279148Y-63306414D01*
X151268742Y-63255524D01*
X151227564Y-63076728D01*
X151543419Y-63063344D01*
X151541727Y-63154657D01*
X151549722Y-63253428D01*
X151554654Y-63291076D01*
X151568039Y-63383204D01*
X151799079Y-63368357D01*
X152007090Y-63340510D01*
G37*
G36*
X149251933Y-63059729D02*
G01*
X149323545Y-63329177D01*
X148959222Y-63411143D01*
X148666195Y-63468957D01*
X148423070Y-63508745D01*
X148355952Y-63234900D01*
X148674012Y-63186466D01*
X148919341Y-63140230D01*
X149144840Y-63089621D01*
X149251933Y-63059729D01*
G37*
G36*
X149238450Y-63510992D02*
G01*
X149538576Y-63470643D01*
X149571344Y-63851922D01*
X149601253Y-64099652D01*
X149634239Y-64319032D01*
X149650635Y-64407461D01*
X149393007Y-64472820D01*
X149364996Y-64418709D01*
X149327421Y-64363982D01*
X149310160Y-64342101D01*
X149220914Y-64253099D01*
X149112197Y-64179559D01*
X148985361Y-64123795D01*
X148842816Y-64088487D01*
X148688212Y-64076170D01*
X148687438Y-64076170D01*
X148631765Y-64079230D01*
X148579801Y-64088146D01*
X148532069Y-64102499D01*
X148488971Y-64121903D01*
X148451688Y-64145431D01*
X148419743Y-64173055D01*
X148394410Y-64203215D01*
X148374839Y-64236503D01*
X148361819Y-64271159D01*
X148354843Y-64308104D01*
X148353705Y-64330866D01*
X148356825Y-64376227D01*
X148366159Y-64419316D01*
X148381171Y-64458940D01*
X148401996Y-64496175D01*
X148461221Y-64563252D01*
X148546528Y-64620911D01*
X148662263Y-64667653D01*
X148813238Y-64700311D01*
X149003777Y-64714566D01*
X149237073Y-64705541D01*
X149381772Y-64689219D01*
X149296678Y-64982799D01*
X149147203Y-64992183D01*
X149008681Y-64994654D01*
X148884829Y-64990751D01*
X148770686Y-64980933D01*
X148669332Y-64966078D01*
X148576561Y-64946197D01*
X148494708Y-64922398D01*
X148420455Y-64894343D01*
X148355305Y-64863179D01*
X148296941Y-64828405D01*
X148246016Y-64790924D01*
X148201257Y-64750350D01*
X148162558Y-64706986D01*
X148129619Y-64660932D01*
X148079587Y-64559709D01*
X148050328Y-64445320D01*
X148042344Y-64337607D01*
X148045451Y-64282859D01*
X148054690Y-64229341D01*
X148069984Y-64177327D01*
X148091199Y-64127334D01*
X148118173Y-64079817D01*
X148150812Y-64035101D01*
X148188806Y-63993759D01*
X148232175Y-63955966D01*
X148280464Y-63922317D01*
X148333825Y-63892929D01*
X148391723Y-63868337D01*
X148454395Y-63848693D01*
X148521314Y-63834436D01*
X148592727Y-63825801D01*
X148662819Y-63823134D01*
X148751513Y-63826297D01*
X148838863Y-63835930D01*
X148921178Y-63851416D01*
X149002161Y-63873224D01*
X149079490Y-63900637D01*
X149155472Y-63934368D01*
X149228959Y-63973945D01*
X149301052Y-64019990D01*
X149323545Y-64035919D01*
X149295946Y-63836358D01*
X149258554Y-63609210D01*
X149238450Y-63510992D01*
G37*
G36*
X146753454Y-63213462D02*
G01*
X146911965Y-63249489D01*
X147061638Y-63308487D01*
X147199565Y-63389153D01*
X147322496Y-63489534D01*
X147377302Y-63546298D01*
X147427157Y-63606924D01*
X147471624Y-63670835D01*
X147510658Y-63737972D01*
X147543649Y-63807210D01*
X147570827Y-63879014D01*
X147591630Y-63951804D01*
X147606335Y-64026513D01*
X147616678Y-64162436D01*
X147613610Y-64241703D01*
X147604643Y-64317390D01*
X147589914Y-64390001D01*
X147569866Y-64458198D01*
X147544835Y-64521671D01*
X147515206Y-64579970D01*
X147481839Y-64632035D01*
X147444709Y-64678341D01*
X147405373Y-64717466D01*
X147363141Y-64750487D01*
X147320103Y-64776174D01*
X147274973Y-64795616D01*
X147229885Y-64808148D01*
X147183384Y-64814376D01*
X147161995Y-64815053D01*
X147117713Y-64811950D01*
X147074598Y-64802736D01*
X146990673Y-64765794D01*
X146907796Y-64701726D01*
X146824734Y-64605327D01*
X146741541Y-64469644D01*
X146659461Y-64286919D01*
X146590760Y-64083888D01*
X146522644Y-63825458D01*
X146463953Y-63520529D01*
X146457547Y-63481976D01*
X146761046Y-63481976D01*
X146809335Y-63756795D01*
X146879748Y-64025465D01*
X146922564Y-64155954D01*
X146964978Y-64263163D01*
X147000034Y-64334749D01*
X147035138Y-64390906D01*
X147064447Y-64426021D01*
X147093976Y-64450820D01*
X147119338Y-64463912D01*
X147144971Y-64469739D01*
X147153007Y-64470085D01*
X147203591Y-64457529D01*
X147251372Y-64418788D01*
X147292442Y-64350669D01*
X147308712Y-64304340D01*
X147320799Y-64250311D01*
X147329937Y-64133225D01*
X147317519Y-64022000D01*
X147278566Y-63901871D01*
X147249149Y-63841956D01*
X147213250Y-63783499D01*
X147172164Y-63728835D01*
X147125080Y-63677167D01*
X147074643Y-63631406D01*
X147018873Y-63589788D01*
X146961125Y-63554785D01*
X146898689Y-63524718D01*
X146834928Y-63501216D01*
X146767006Y-63483233D01*
X146761046Y-63481976D01*
X146457547Y-63481976D01*
X146456427Y-63475235D01*
X146393004Y-63489207D01*
X146333868Y-63508575D01*
X146279666Y-63532815D01*
X146229804Y-63561889D01*
X146184451Y-63595497D01*
X146143566Y-63633477D01*
X146075001Y-63722469D01*
X146024773Y-63828565D01*
X145994447Y-63951564D01*
X145986015Y-64068159D01*
X145989090Y-64133542D01*
X145998110Y-64195498D01*
X146012840Y-64254225D01*
X146032943Y-64309430D01*
X146089099Y-64410671D01*
X146166016Y-64499242D01*
X146263505Y-64574158D01*
X146380969Y-64633348D01*
X146496678Y-64669484D01*
X146591603Y-64689097D01*
X146705066Y-64705339D01*
X146537027Y-64972150D01*
X146437776Y-64953636D01*
X146344572Y-64929870D01*
X146259719Y-64901843D01*
X146180621Y-64869108D01*
X146109019Y-64832763D01*
X146042926Y-64792182D01*
X145983461Y-64748377D01*
X145929325Y-64700728D01*
X145881045Y-64649937D01*
X145838003Y-64595606D01*
X145767756Y-64476906D01*
X145718217Y-64344075D01*
X145689946Y-64196161D01*
X145683545Y-64077147D01*
X145686647Y-63997901D01*
X145695863Y-63920782D01*
X145711013Y-63846218D01*
X145731973Y-63774323D01*
X145758460Y-63705694D01*
X145790425Y-63640250D01*
X145827446Y-63578690D01*
X145869598Y-63520802D01*
X145916324Y-63467292D01*
X145967830Y-63417911D01*
X146023475Y-63373289D01*
X146083561Y-63333229D01*
X146147444Y-63298236D01*
X146215448Y-63268227D01*
X146287011Y-63243579D01*
X146362403Y-63224339D01*
X146441206Y-63210789D01*
X146523567Y-63203087D01*
X146588513Y-63201292D01*
X146753454Y-63213462D01*
G37*
G36*
X145408039Y-63341390D02*
G01*
X144588262Y-63341390D01*
X144612452Y-63491248D01*
X144621772Y-63544697D01*
X145316203Y-63544697D01*
X145316203Y-65067698D01*
X145056329Y-65067698D01*
X145056329Y-64951536D01*
X143759399Y-64951536D01*
X143759399Y-65067698D01*
X143486140Y-65067698D01*
X143486140Y-64702995D01*
X143759399Y-64702995D01*
X144001297Y-64702995D01*
X144243293Y-64702995D01*
X144588262Y-64702995D01*
X144827913Y-64702995D01*
X145056329Y-64702995D01*
X145056329Y-63791187D01*
X144827913Y-63791187D01*
X144827913Y-64702995D01*
X144588262Y-64702995D01*
X144588262Y-64538863D01*
X144243293Y-64538863D01*
X144243293Y-64702995D01*
X144001297Y-64702995D01*
X144001297Y-64328326D01*
X144243293Y-64328326D01*
X144588262Y-64328326D01*
X144588262Y-64157454D01*
X144243293Y-64157454D01*
X144243293Y-64328326D01*
X144001297Y-64328326D01*
X144001297Y-63946916D01*
X144243293Y-63946916D01*
X144588262Y-63946916D01*
X144588262Y-63791187D01*
X144243293Y-63791187D01*
X144243293Y-63946916D01*
X144001297Y-63946916D01*
X144001297Y-63791187D01*
X143759399Y-63791187D01*
X143759399Y-64702995D01*
X143486140Y-64702995D01*
X143486140Y-63544697D01*
X144341870Y-63544697D01*
X144279148Y-63341390D01*
X143383070Y-63341390D01*
X143383070Y-63088256D01*
X145408039Y-63088256D01*
X145408039Y-63341390D01*
G37*
G36*
X142276552Y-63295570D02*
G01*
X142276552Y-63582213D01*
X141976935Y-63599386D01*
X141586630Y-63598176D01*
X141313356Y-63582213D01*
X141313356Y-63293420D01*
X141591219Y-63314573D01*
X141779405Y-63319635D01*
X141971136Y-63318050D01*
X142132148Y-63310243D01*
X142276193Y-63295619D01*
X142276552Y-63295570D01*
G37*
G36*
X142097376Y-64254076D02*
G01*
X142354905Y-64229359D01*
X142379965Y-64362766D01*
X142392024Y-64479923D01*
X142393007Y-64521473D01*
X142389875Y-64571742D01*
X142380457Y-64618731D01*
X142365741Y-64660042D01*
X142345348Y-64698237D01*
X142288930Y-64763600D01*
X142209088Y-64816719D01*
X142101115Y-64857211D01*
X141958753Y-64882515D01*
X141821870Y-64889010D01*
X141639874Y-64885959D01*
X141483275Y-64877110D01*
X141355969Y-64863968D01*
X141243893Y-64846512D01*
X141250635Y-64543944D01*
X141394907Y-64570549D01*
X141534047Y-64588854D01*
X141787915Y-64602288D01*
X141810635Y-64602367D01*
X141893222Y-64599291D01*
X141961817Y-64590266D01*
X142011330Y-64577611D01*
X142051112Y-64560773D01*
X142078835Y-64542385D01*
X142099623Y-64520979D01*
X142121376Y-64472603D01*
X142124242Y-64442827D01*
X142111768Y-64319740D01*
X142097376Y-64254076D01*
G37*
G36*
X142621521Y-63145995D02*
G01*
X142935129Y-63119129D01*
X142950434Y-63279218D01*
X142957501Y-63338068D01*
X142973217Y-63441702D01*
X143023777Y-63802640D01*
X143043605Y-64013654D01*
X143051584Y-64227112D01*
X143040317Y-64501841D01*
X143007591Y-64765243D01*
X142964242Y-64961599D01*
X142704368Y-64943427D01*
X142708862Y-64851006D01*
X142697627Y-64745688D01*
X142644264Y-64541244D01*
X142536329Y-64195653D01*
X142675254Y-64085549D01*
X142776078Y-64314746D01*
X142784968Y-64168689D01*
X142774029Y-63983811D01*
X142733770Y-63672703D01*
X142677501Y-63344809D01*
X142652845Y-63247893D01*
X142621521Y-63145995D01*
G37*
G36*
X140153007Y-63987754D02*
G01*
X140126820Y-64033677D01*
X139979034Y-64297370D01*
X139913351Y-64423640D01*
X139864019Y-64531829D01*
X139608736Y-64399157D01*
X139706021Y-64221138D01*
X139865845Y-63958256D01*
X139915603Y-63877649D01*
X140153007Y-63987754D01*
G37*
G36*
X139398101Y-62985479D02*
G01*
X139398101Y-63444655D01*
X140253831Y-63444655D01*
X140253831Y-63715765D01*
X139398101Y-63715765D01*
X139398101Y-64740901D01*
X139401409Y-64769861D01*
X139412060Y-64790041D01*
X139443453Y-64805775D01*
X139474305Y-64808312D01*
X139746987Y-64808079D01*
X139899874Y-64803818D01*
X139846004Y-64913218D01*
X139817802Y-64989880D01*
X139798834Y-65060166D01*
X139796901Y-65070336D01*
X139561897Y-65068336D01*
X139380883Y-65053039D01*
X139268262Y-65025591D01*
X139226861Y-65006556D01*
X139192962Y-64982665D01*
X139170317Y-64958466D01*
X139152229Y-64929517D01*
X139128745Y-64854920D01*
X139120348Y-64740901D01*
X139120348Y-63715765D01*
X138871709Y-63715765D01*
X138871709Y-63444655D01*
X139120348Y-63444655D01*
X139120348Y-62985479D01*
X139398101Y-62985479D01*
G37*
G36*
X140444242Y-62971997D02*
G01*
X140540764Y-63199409D01*
X140662845Y-63424224D01*
X140730567Y-63529573D01*
X140801826Y-63628670D01*
X140873011Y-63716930D01*
X140946197Y-63797259D01*
X140981772Y-63832611D01*
X140909135Y-63950726D01*
X140824968Y-64113685D01*
X140694743Y-63966175D01*
X140666015Y-63929331D01*
X140666015Y-65063692D01*
X140392658Y-65063692D01*
X140392658Y-63511871D01*
X140257399Y-63242336D01*
X140177627Y-63054844D01*
X140444242Y-62971997D01*
G37*
G36*
X138170635Y-63120399D02*
G01*
X138502121Y-63086693D01*
X138502638Y-63099859D01*
X138507148Y-63189632D01*
X138517850Y-63282087D01*
X138555618Y-63578629D01*
X138573165Y-63770591D01*
X138585498Y-63981997D01*
X138589462Y-64177286D01*
X138578274Y-64373031D01*
X138543102Y-64600019D01*
X138487509Y-64826271D01*
X138461772Y-64904739D01*
X138213133Y-64880120D01*
X138217627Y-64787991D01*
X138214511Y-64737718D01*
X138205209Y-64681779D01*
X138204242Y-64677984D01*
X138130063Y-64384288D01*
X138051933Y-64130099D01*
X138190760Y-64040315D01*
X138258373Y-64202711D01*
X138298325Y-64300775D01*
X138316945Y-64160320D01*
X138318255Y-63968244D01*
X138297089Y-63720784D01*
X138251415Y-63432525D01*
X138224368Y-63302213D01*
X138170635Y-63120399D01*
G37*
G36*
X137939874Y-63520078D02*
G01*
X137939874Y-63804572D01*
X137881969Y-63807005D01*
X137594905Y-63815807D01*
X137344019Y-63811313D01*
X137344019Y-63892108D01*
X137347645Y-64071313D01*
X137360521Y-64223937D01*
X137375160Y-64310610D01*
X137395716Y-64389445D01*
X137418843Y-64452181D01*
X137447503Y-64510846D01*
X137519421Y-64614466D01*
X137552407Y-64651020D01*
X137631610Y-64722285D01*
X137752674Y-64800833D01*
X137812184Y-64830685D01*
X137554654Y-65034969D01*
X137473318Y-64979584D01*
X137401477Y-64922936D01*
X137341544Y-64867765D01*
X137289142Y-64811001D01*
X137244707Y-64753745D01*
X137206531Y-64694546D01*
X137146419Y-64567717D01*
X137104442Y-64422063D01*
X137078313Y-64243526D01*
X137066969Y-64002485D01*
X137066266Y-63895332D01*
X137066266Y-63801055D01*
X136734780Y-63774188D01*
X136732533Y-63482855D01*
X136943664Y-63512573D01*
X137068513Y-63523302D01*
X137068513Y-63235486D01*
X137068121Y-63226805D01*
X137057376Y-63082492D01*
X137382121Y-63082492D01*
X137368162Y-63152529D01*
X137357501Y-63237733D01*
X137348513Y-63540301D01*
X137601646Y-63544697D01*
X137835803Y-63532851D01*
X137939874Y-63520078D01*
G37*
G36*
X135053820Y-63140151D02*
G01*
X135137627Y-63149219D01*
X135373099Y-63160055D01*
X135863419Y-63169540D01*
X135965317Y-63167293D01*
X136067215Y-63158305D01*
X136058325Y-63449443D01*
X135874654Y-63431662D01*
X135332533Y-63409289D01*
X135698873Y-63711972D01*
X135800697Y-63794802D01*
X135984522Y-63948840D01*
X136362944Y-64264237D01*
X136159050Y-64474969D01*
X136053283Y-64359449D01*
X135946959Y-64257604D01*
X135873587Y-64197528D01*
X135797972Y-64145068D01*
X135730887Y-64106651D01*
X135661072Y-64074569D01*
X135594104Y-64050983D01*
X135524019Y-64033310D01*
X135453315Y-64022145D01*
X135379022Y-64016942D01*
X135352658Y-64016575D01*
X135285424Y-64019653D01*
X135221557Y-64028694D01*
X135161870Y-64043329D01*
X135106595Y-64063300D01*
X135057495Y-64087619D01*
X135013588Y-64116469D01*
X134976901Y-64148066D01*
X134945854Y-64183337D01*
X134921967Y-64220059D01*
X134903941Y-64259693D01*
X134892497Y-64300294D01*
X134887125Y-64343220D01*
X134886741Y-64358515D01*
X134889862Y-64409622D01*
X134899207Y-64457279D01*
X134913866Y-64499412D01*
X134934118Y-64538327D01*
X134990247Y-64605383D01*
X135069648Y-64660470D01*
X135072658Y-64662060D01*
X135083746Y-64608509D01*
X135100781Y-64557281D01*
X135123222Y-64509665D01*
X135151213Y-64465232D01*
X135183810Y-64425358D01*
X135221515Y-64389398D01*
X135263181Y-64358471D01*
X135309548Y-64332093D01*
X135359583Y-64311002D01*
X135413992Y-64295070D01*
X135472116Y-64284752D01*
X135534375Y-64280241D01*
X135549811Y-64280064D01*
X135656137Y-64291962D01*
X135751578Y-64326333D01*
X135832754Y-64380800D01*
X135866764Y-64414602D01*
X135895462Y-64451790D01*
X135918523Y-64491801D01*
X135935632Y-64534084D01*
X135946323Y-64577236D01*
X135950673Y-64621514D01*
X135950760Y-64628745D01*
X135947681Y-64672246D01*
X135938630Y-64713511D01*
X135903263Y-64789615D01*
X135844543Y-64857394D01*
X135761058Y-64915516D01*
X135651784Y-64960764D01*
X135517846Y-64988623D01*
X135404242Y-64995304D01*
X135308042Y-64992225D01*
X135217944Y-64983176D01*
X135135274Y-64968725D01*
X135058495Y-64949042D01*
X134988647Y-64924809D01*
X134924500Y-64896019D01*
X134866718Y-64863353D01*
X134814488Y-64826738D01*
X134768070Y-64786675D01*
X134727127Y-64743196D01*
X134720383Y-64733281D01*
X135330286Y-64733281D01*
X135460223Y-64740022D01*
X135513562Y-64736970D01*
X135560961Y-64728111D01*
X135600070Y-64714645D01*
X135632602Y-64696680D01*
X135656156Y-64676597D01*
X135673272Y-64653359D01*
X135682952Y-64629466D01*
X135686481Y-64603392D01*
X135686489Y-64601976D01*
X135674470Y-64557580D01*
X135638647Y-64520104D01*
X135612397Y-64506590D01*
X135581279Y-64497960D01*
X135547564Y-64495095D01*
X135510568Y-64498172D01*
X135476340Y-64507202D01*
X135417423Y-64541631D01*
X135371232Y-64597396D01*
X135340117Y-64674934D01*
X135330286Y-64733281D01*
X134720383Y-64733281D01*
X134661513Y-64646727D01*
X134617453Y-64538150D01*
X134595597Y-64418113D01*
X134593356Y-64363009D01*
X134596440Y-64304502D01*
X134605520Y-64248193D01*
X134641156Y-64141802D01*
X134699362Y-64045113D01*
X134779421Y-63960094D01*
X134880273Y-63889446D01*
X135000041Y-63836351D01*
X135066252Y-63817369D01*
X135135840Y-63803986D01*
X135263070Y-63794802D01*
X135346247Y-63798201D01*
X135429317Y-63809492D01*
X135475854Y-63819519D01*
X135325577Y-63698721D01*
X135136982Y-63547271D01*
X134978674Y-63427168D01*
X134869595Y-63354580D01*
X134821870Y-63324195D01*
X134967438Y-63124307D01*
X135053820Y-63140151D01*
G37*
G36*
X176739108Y-140211039D02*
G01*
X176739108Y-140640479D01*
X174930062Y-140640479D01*
X175101144Y-140773428D01*
X175282627Y-140900739D01*
X175443326Y-141001812D01*
X175668921Y-141001812D01*
X175668921Y-141581913D01*
X177121238Y-141581913D01*
X177121238Y-142022307D01*
X175668921Y-142022307D01*
X175668921Y-142893570D01*
X175674432Y-142935360D01*
X175692686Y-142961239D01*
X175746772Y-142976652D01*
X175770844Y-142977394D01*
X176389682Y-142966599D01*
X176291844Y-143162290D01*
X176239536Y-143297494D01*
X176204094Y-143417948D01*
X175881000Y-143414500D01*
X175618180Y-143388899D01*
X175443326Y-143341426D01*
X175377943Y-143309985D01*
X175324766Y-143271565D01*
X175288017Y-143231876D01*
X175259105Y-143185288D01*
X175222229Y-143066743D01*
X175210270Y-142900873D01*
X175210270Y-142022307D01*
X173761604Y-142022307D01*
X173761604Y-141581913D01*
X175210270Y-141581913D01*
X175210270Y-141348380D01*
X174836852Y-141107180D01*
X174442133Y-140805157D01*
X174258517Y-140645989D01*
X174090955Y-140486793D01*
X174041812Y-140436793D01*
X174373140Y-140185320D01*
X174475062Y-140211039D01*
X176739108Y-140211039D01*
G37*
G36*
X170765844Y-140176430D02*
G01*
X171053513Y-140293117D01*
X170908563Y-140532011D01*
X170769495Y-140800507D01*
X170474682Y-140676358D01*
X170583904Y-140474456D01*
X170713333Y-140256242D01*
X170765844Y-140176430D01*
G37*
G36*
X170332752Y-140008464D02*
G01*
X170623914Y-140128961D01*
X170478375Y-140355480D01*
X170329101Y-140632541D01*
X170037939Y-140508551D01*
X170241691Y-140150286D01*
X170332752Y-140008464D01*
G37*
G36*
X172523928Y-140231042D02*
G01*
X172982580Y-140417265D01*
X172730968Y-140988397D01*
X172476618Y-141504757D01*
X172615679Y-141614669D01*
X172741352Y-141730171D01*
X172830423Y-141827112D01*
X172908037Y-141928748D01*
X172965176Y-142021273D01*
X173011836Y-142118053D01*
X173044531Y-142210290D01*
X173067164Y-142306588D01*
X173080851Y-142464607D01*
X173075835Y-142565707D01*
X173061043Y-142659147D01*
X173037667Y-142742831D01*
X173005774Y-142819707D01*
X172918224Y-142953438D01*
X172797388Y-143065332D01*
X172638526Y-143157630D01*
X172434075Y-143229712D01*
X172174589Y-143278457D01*
X171849515Y-143298800D01*
X171806978Y-143299038D01*
X171266434Y-143280487D01*
X170783744Y-143228041D01*
X170638520Y-143204418D01*
X170631217Y-142683534D01*
X171036948Y-142755220D01*
X171297615Y-142786216D01*
X171559046Y-142806867D01*
X171817773Y-142814826D01*
X171976344Y-142809766D01*
X172116474Y-142794662D01*
X172226514Y-142772649D01*
X172321654Y-142742725D01*
X172394172Y-142709292D01*
X172454714Y-142669645D01*
X172499437Y-142628162D01*
X172534193Y-142581618D01*
X172572840Y-142478781D01*
X172578541Y-142413487D01*
X172558859Y-142278281D01*
X172499388Y-142146109D01*
X172393864Y-142009530D01*
X172228478Y-141860897D01*
X172072580Y-141749244D01*
X171699847Y-141529519D01*
X171241102Y-141295281D01*
X171169882Y-141260270D01*
X170805851Y-141066903D01*
X171038907Y-140636192D01*
X171246843Y-140780613D01*
X171373728Y-140855120D01*
X171617219Y-140989450D01*
X172068928Y-141242012D01*
X172216797Y-140951116D01*
X172366530Y-140625263D01*
X172523928Y-140231042D01*
G37*
G36*
X169651999Y-141518569D02*
G01*
X169677559Y-141958010D01*
X169352967Y-142029455D01*
X168978548Y-142078190D01*
X169004108Y-142447461D01*
X168999092Y-142561369D01*
X168984300Y-142666354D01*
X168961086Y-142759486D01*
X168929454Y-142844631D01*
X168890534Y-142920635D01*
X168844160Y-142989259D01*
X168729668Y-143105561D01*
X168584034Y-143196392D01*
X168402957Y-143261666D01*
X168181058Y-143298447D01*
X168028541Y-143304753D01*
X167875541Y-143299739D01*
X167730678Y-143284962D01*
X167596062Y-143261205D01*
X167469997Y-143228715D01*
X167354936Y-143188724D01*
X167248704Y-143141054D01*
X167153733Y-143087416D01*
X167067747Y-143027130D01*
X166992778Y-142962224D01*
X166926883Y-142891622D01*
X166871436Y-142817326D01*
X166825162Y-142738166D01*
X166788769Y-142655685D01*
X166761749Y-142569044D01*
X166744390Y-142478963D01*
X166736769Y-142385314D01*
X166736411Y-142359668D01*
X166741517Y-142247726D01*
X166756944Y-142139387D01*
X166817017Y-141935132D01*
X166921280Y-141726636D01*
X167089488Y-141486023D01*
X167602752Y-141594614D01*
X167503463Y-141694744D01*
X167418492Y-141796053D01*
X167354953Y-141887994D01*
X167303782Y-141981101D01*
X167268064Y-142067634D01*
X167243412Y-142155316D01*
X167227766Y-142301245D01*
X167232826Y-142370336D01*
X167247919Y-142436524D01*
X167272482Y-142498428D01*
X167306543Y-142556585D01*
X167402972Y-142660047D01*
X167538860Y-142744138D01*
X167716772Y-142804058D01*
X167938743Y-142833382D01*
X168014094Y-142835147D01*
X168118489Y-142830087D01*
X168211978Y-142814982D01*
X168287912Y-142792450D01*
X168354559Y-142761689D01*
X168408279Y-142725664D01*
X168453801Y-142682633D01*
X168518560Y-142579330D01*
X168552102Y-142447529D01*
X168556411Y-142370622D01*
X168545828Y-142162862D01*
X168541805Y-142103591D01*
X168396224Y-142103591D01*
X167947295Y-142086685D01*
X167751985Y-142070887D01*
X167741030Y-141637954D01*
X168189511Y-141674684D01*
X168472587Y-141681454D01*
X168498147Y-141681454D01*
X168436231Y-141189146D01*
X168162316Y-141184346D01*
X167928647Y-141171068D01*
X167726425Y-141152790D01*
X167711978Y-140719382D01*
X167923126Y-140745320D01*
X168174432Y-140764054D01*
X168377967Y-140770660D01*
X168337960Y-140488706D01*
X168335731Y-140474145D01*
X168312375Y-140331298D01*
X168276044Y-140162777D01*
X168789308Y-140133406D01*
X168784288Y-140262080D01*
X168792960Y-140459336D01*
X168822171Y-140756055D01*
X169030513Y-140733615D01*
X169234891Y-140701116D01*
X169412555Y-140662873D01*
X169575636Y-140616824D01*
X169597386Y-141036421D01*
X169263691Y-141112826D01*
X168873133Y-141167396D01*
X168934889Y-141663356D01*
X169188969Y-141629762D01*
X169444573Y-141578472D01*
X169651999Y-141518569D01*
G37*
G36*
X164881763Y-140185012D02*
G01*
X164948636Y-140399294D01*
X165021985Y-140597138D01*
X166030256Y-140597138D01*
X166030256Y-143406993D01*
X165593354Y-143406993D01*
X165593354Y-141026578D01*
X163442185Y-141026578D01*
X163442185Y-142897539D01*
X163447509Y-142936986D01*
X163464456Y-142961692D01*
X163515715Y-142976891D01*
X163533154Y-142977394D01*
X163711853Y-142980670D01*
X163985281Y-142974968D01*
X164068326Y-142970250D01*
X163990299Y-143155497D01*
X163951592Y-143283196D01*
X163927774Y-143398676D01*
X163926238Y-143410645D01*
X163515462Y-143399466D01*
X163357135Y-143378633D01*
X163226921Y-143341538D01*
X163209288Y-143334123D01*
X163153435Y-143303263D01*
X163107734Y-143265497D01*
X163047794Y-143175843D01*
X163014239Y-143049860D01*
X163005442Y-142904683D01*
X163005442Y-140597138D01*
X164526978Y-140597138D01*
X164398146Y-140339930D01*
X164272171Y-140063553D01*
X164829094Y-139983063D01*
X164881763Y-140185012D01*
G37*
G36*
X165240277Y-142886585D02*
G01*
X164843541Y-142886585D01*
X164843541Y-142631937D01*
X163809868Y-142631937D01*
X163809868Y-142249807D01*
X164210256Y-142249807D01*
X164843541Y-142249807D01*
X164843541Y-141758134D01*
X164210256Y-141758134D01*
X164210256Y-142249807D01*
X163809868Y-142249807D01*
X163809868Y-141379655D01*
X165240277Y-141379655D01*
X165240277Y-142886585D01*
G37*
G36*
X161680449Y-140245648D02*
G01*
X162219115Y-140190877D01*
X162219955Y-140212271D01*
X162227284Y-140358153D01*
X162244675Y-140508392D01*
X162306047Y-140990272D01*
X162334561Y-141302211D01*
X162354602Y-141645745D01*
X162361044Y-141963091D01*
X162342864Y-142281176D01*
X162285709Y-142650031D01*
X162195371Y-143017690D01*
X162153548Y-143145202D01*
X161749509Y-143105195D01*
X161756812Y-142955486D01*
X161751749Y-142873791D01*
X161736633Y-142782891D01*
X161735062Y-142776725D01*
X161614520Y-142299469D01*
X161487559Y-141886411D01*
X161713154Y-141740512D01*
X161823025Y-142004406D01*
X161887946Y-142163760D01*
X161918204Y-141935520D01*
X161920332Y-141623397D01*
X161885937Y-141221274D01*
X161811717Y-140752853D01*
X161767766Y-140541096D01*
X161680449Y-140245648D01*
G37*
G36*
X161305463Y-140895127D02*
G01*
X161305463Y-141357429D01*
X161211368Y-141361383D01*
X160744889Y-141375687D01*
X160337199Y-141368384D01*
X160337199Y-141499676D01*
X160343091Y-141790883D01*
X160364015Y-142038898D01*
X160387803Y-142179742D01*
X160421207Y-142307848D01*
X160458789Y-142409794D01*
X160505360Y-142505126D01*
X160622227Y-142673508D01*
X160675830Y-142732907D01*
X160804535Y-142848713D01*
X161001264Y-142976354D01*
X161097967Y-143024863D01*
X160679481Y-143356826D01*
X160547309Y-143266824D01*
X160430569Y-143174771D01*
X160333177Y-143085119D01*
X160248024Y-142992878D01*
X160175818Y-142899836D01*
X160113780Y-142803638D01*
X160016099Y-142597541D01*
X159947887Y-142360853D01*
X159905427Y-142070730D01*
X159886993Y-141679039D01*
X159885851Y-141504915D01*
X159885851Y-141351714D01*
X159347185Y-141308056D01*
X159343534Y-140834640D01*
X159686623Y-140882931D01*
X159889502Y-140900366D01*
X159889502Y-140432665D01*
X159888865Y-140418558D01*
X159871404Y-140184050D01*
X160399115Y-140184050D01*
X160376432Y-140297860D01*
X160359108Y-140436316D01*
X160344502Y-140927989D01*
X160755844Y-140935133D01*
X161136348Y-140915883D01*
X161305463Y-140895127D01*
G37*
G36*
X158251597Y-140286925D02*
G01*
X158251597Y-140756690D01*
X157872960Y-140745735D01*
X156478907Y-140745735D01*
X156078520Y-140756690D01*
X156078520Y-140286925D01*
X156296273Y-140302426D01*
X156471604Y-140305182D01*
X157872960Y-140305182D01*
X158070494Y-140301531D01*
X158251597Y-140286925D01*
G37*
G36*
X155772752Y-141342824D02*
G01*
X156096618Y-141142630D01*
X156209026Y-141169587D01*
X156362379Y-141178986D01*
X158164122Y-141178986D01*
X158586418Y-141157236D01*
X158586418Y-141630493D01*
X158263430Y-141613385D01*
X158164122Y-141612236D01*
X156406037Y-141612236D01*
X156453933Y-141743480D01*
X156516363Y-141877851D01*
X156581389Y-141991017D01*
X156659245Y-142102984D01*
X156781023Y-142243616D01*
X156981971Y-142420968D01*
X157100745Y-142505103D01*
X157229965Y-142584064D01*
X157370104Y-142657606D01*
X157519983Y-142724540D01*
X157678177Y-142783836D01*
X157845170Y-142835251D01*
X158040449Y-142882299D01*
X157680069Y-143294751D01*
X157508839Y-143241094D01*
X157338698Y-143176400D01*
X157180546Y-143105003D01*
X157025232Y-143023003D01*
X156882120Y-142935560D01*
X156743102Y-142837987D01*
X156615678Y-142735734D01*
X156493278Y-142623770D01*
X156380636Y-142506360D01*
X156205323Y-142283239D01*
X156054367Y-142029035D01*
X155924238Y-141735825D01*
X155841812Y-141495707D01*
X155772752Y-141342824D01*
G37*
G36*
X155197573Y-141665578D02*
G01*
X154968326Y-142124230D01*
X154511172Y-141970597D01*
X154020307Y-141765376D01*
X153683340Y-141600011D01*
X153683340Y-142764818D01*
X153697895Y-143121528D01*
X153708900Y-143241568D01*
X153133721Y-143241568D01*
X153154428Y-143102561D01*
X153166425Y-142764818D01*
X153166425Y-141294244D01*
X152759759Y-141002633D01*
X152360703Y-140668289D01*
X152187365Y-140504423D01*
X152580449Y-140129437D01*
X152811749Y-140379950D01*
X153137966Y-140673483D01*
X153317859Y-140815109D01*
X153500079Y-140944834D01*
X153606978Y-141014036D01*
X153794366Y-141122710D01*
X153998591Y-141228831D01*
X154214586Y-141329182D01*
X154446190Y-141424961D01*
X154685415Y-141512469D01*
X154938831Y-141593732D01*
X155197573Y-141665578D01*
G37*
G36*
X150906030Y-140315343D02*
G01*
X151248154Y-140679375D01*
X150945715Y-140912628D01*
X150512450Y-141292680D01*
X150338154Y-141465702D01*
X149966978Y-141087065D01*
X150202276Y-140865692D01*
X150616124Y-140526770D01*
X150906030Y-140315343D01*
G37*
G36*
X151361030Y-142739575D02*
G01*
X151055263Y-143220135D01*
X150700760Y-143140367D01*
X150340521Y-143019965D01*
X149982271Y-142860234D01*
X149704868Y-142706871D01*
X149376495Y-142486044D01*
X149065287Y-142229141D01*
X148782798Y-141944709D01*
X148656230Y-141796065D01*
X148540957Y-141645078D01*
X148358126Y-141360128D01*
X148641985Y-140846864D01*
X148795708Y-141127947D01*
X148893654Y-141274793D01*
X149003700Y-141421268D01*
X149125360Y-141566027D01*
X149258107Y-141707676D01*
X149397846Y-141841594D01*
X149547185Y-141969974D01*
X149699027Y-142086746D01*
X149858850Y-142196128D01*
X149966978Y-142262825D01*
X150125015Y-142351228D01*
X150297213Y-142435137D01*
X150475469Y-142510186D01*
X150665989Y-142578587D01*
X150858574Y-142636453D01*
X151061608Y-142686111D01*
X151361030Y-142739575D01*
G37*
G36*
X147000270Y-142732114D02*
G01*
X147018234Y-143084773D01*
X147036625Y-143241568D01*
X146468907Y-143241568D01*
X146501611Y-142732114D01*
X146501611Y-141701934D01*
X146153181Y-141827036D01*
X145775977Y-141975128D01*
X145471874Y-142106352D01*
X145196596Y-142239536D01*
X145187573Y-142244251D01*
X144980076Y-141741941D01*
X145366307Y-141573925D01*
X146025181Y-141329947D01*
X146501611Y-141177715D01*
X146501611Y-140639050D01*
X146486277Y-140364063D01*
X146469113Y-140204125D01*
X146468907Y-140202307D01*
X147036625Y-140202307D01*
X147008169Y-140430768D01*
X147000270Y-140639050D01*
X147000270Y-142732114D01*
G37*
G36*
X143793520Y-142932942D02*
G01*
X143447587Y-143231407D01*
X143316632Y-143164006D01*
X143248464Y-143138636D01*
X143232946Y-143133136D01*
X142984791Y-143046792D01*
X142743490Y-142951663D01*
X142520088Y-142852501D01*
X142304425Y-142745208D01*
X142106750Y-142635333D01*
X141917390Y-142517976D01*
X141745313Y-142399181D01*
X141581894Y-142273515D01*
X141434569Y-142147197D01*
X141296086Y-142014554D01*
X141121784Y-141822749D01*
X141380242Y-141411566D01*
X141599375Y-141648054D01*
X141875951Y-141888510D01*
X142205520Y-142123182D01*
X142572867Y-142337057D01*
X142762739Y-142430595D01*
X142948678Y-142511123D01*
X143251044Y-142616379D01*
X143251044Y-140723509D01*
X143232966Y-140440331D01*
X143214689Y-140308675D01*
X143786217Y-140308675D01*
X143752943Y-140561203D01*
X143746210Y-140723509D01*
X143746210Y-142696393D01*
X143753434Y-142811929D01*
X143793520Y-142932942D01*
G37*
G36*
X140528347Y-141397913D02*
G01*
X140528347Y-141969441D01*
X139942372Y-141951184D01*
X137987745Y-141951184D01*
X137659102Y-141964141D01*
X137561798Y-141969441D01*
X137561798Y-141397913D01*
X137597971Y-141400769D01*
X137772421Y-141413180D01*
X137987745Y-141419821D01*
X139942372Y-141419821D01*
X140428006Y-141404827D01*
X140528347Y-141397913D01*
G37*
G36*
X137085842Y-140871154D02*
G01*
X137085842Y-141366320D01*
X136692599Y-141351714D01*
X136383338Y-141351714D01*
X136383338Y-141847674D01*
X136398373Y-142176019D01*
X136405088Y-142230439D01*
X135895476Y-142230439D01*
X135898366Y-142178572D01*
X135910081Y-141847674D01*
X135910081Y-141351714D01*
X135047391Y-141351714D01*
X135047391Y-141490310D01*
X135052505Y-141679979D01*
X135067983Y-141851745D01*
X135090902Y-141991859D01*
X135122502Y-142119429D01*
X135159773Y-142227511D01*
X135204785Y-142326272D01*
X135255617Y-142413336D01*
X135313858Y-142493066D01*
X135453857Y-142633840D01*
X135634983Y-142758623D01*
X135876463Y-142875881D01*
X136059314Y-142945008D01*
X135669881Y-143313326D01*
X135509832Y-143237251D01*
X135365204Y-143156874D01*
X135242916Y-143077285D01*
X135133030Y-142993403D01*
X135038766Y-142908694D01*
X134954888Y-142819596D01*
X134881995Y-142727419D01*
X134818197Y-142630576D01*
X134714828Y-142419159D01*
X134640279Y-142174843D01*
X134593079Y-141881821D01*
X134574453Y-141513986D01*
X134574293Y-141472053D01*
X134574293Y-141351714D01*
X134304881Y-141351714D01*
X133904493Y-141362668D01*
X133904493Y-140878457D01*
X134019716Y-140894220D01*
X134164719Y-140902326D01*
X134304881Y-140904017D01*
X134574293Y-140904017D01*
X134574293Y-140520299D01*
X134560891Y-140264179D01*
X134555336Y-140209185D01*
X134552384Y-140180399D01*
X135069300Y-140180399D01*
X135054442Y-140320119D01*
X135047400Y-140513076D01*
X135047391Y-140520299D01*
X135047391Y-140904017D01*
X135910081Y-140904017D01*
X135910081Y-140542208D01*
X135895087Y-140264191D01*
X135888173Y-140213420D01*
X136405088Y-140213420D01*
X136390106Y-140379183D01*
X136383338Y-140542208D01*
X136383338Y-140904017D01*
X136692599Y-140904017D01*
X136956512Y-140889346D01*
X137085842Y-140871154D01*
G37*
G36*
X133322011Y-141397913D02*
G01*
X133322011Y-141969441D01*
X132736036Y-141951184D01*
X130781409Y-141951184D01*
X130452765Y-141964141D01*
X130355462Y-141969441D01*
X130355462Y-141397913D01*
X130391635Y-141400769D01*
X130566085Y-141413180D01*
X130781409Y-141419821D01*
X132736036Y-141419821D01*
X133221669Y-141404827D01*
X133322011Y-141397913D01*
G37*
G36*
X129350842Y-140315343D02*
G01*
X129765676Y-140315343D01*
X129765676Y-140683026D01*
X129350842Y-140683026D01*
X129350842Y-140935133D01*
X129889507Y-140935133D01*
X129889507Y-141310120D01*
X129154300Y-141310120D01*
X129354493Y-141490786D01*
X129587391Y-141490786D01*
X129587391Y-141665578D01*
X129771743Y-141781346D01*
X129966784Y-141886812D01*
X129969521Y-141888157D01*
X129777341Y-142097837D01*
X129678359Y-142226152D01*
X129366536Y-142026186D01*
X129114134Y-141829258D01*
X128855835Y-141829258D01*
X129045074Y-142013099D01*
X129187004Y-142013099D01*
X129187004Y-142299657D01*
X129918560Y-142354429D01*
X129874902Y-142740369D01*
X129187004Y-142682105D01*
X129187004Y-142992000D01*
X129193850Y-143027161D01*
X129221452Y-143043218D01*
X129248919Y-143046772D01*
X129594694Y-143043120D01*
X129516118Y-143229592D01*
X129470863Y-143414296D01*
X129173872Y-143404562D01*
X129054009Y-143387159D01*
X128949899Y-143356746D01*
X128939500Y-143352539D01*
X128887795Y-143322466D01*
X128847621Y-143286352D01*
X128799978Y-143202321D01*
X128777930Y-143078475D01*
X128775662Y-143002637D01*
X128775662Y-142641939D01*
X128116817Y-142583357D01*
X128116817Y-142208371D01*
X128775662Y-142262984D01*
X128775662Y-142190114D01*
X128527120Y-141972212D01*
X128270386Y-141696883D01*
X128262398Y-141687328D01*
X128072799Y-141859066D01*
X128022198Y-141913241D01*
X127935714Y-141790660D01*
X127854708Y-141654624D01*
X127785500Y-141906313D01*
X127707600Y-142143486D01*
X127603553Y-142401421D01*
X127686212Y-142510269D01*
X127776831Y-142612205D01*
X127872655Y-142704431D01*
X127976716Y-142790190D01*
X128088305Y-142868792D01*
X128208708Y-142941073D01*
X128393532Y-143032007D01*
X128282842Y-143177769D01*
X128144826Y-143414896D01*
X128138726Y-143428584D01*
X127985095Y-143345320D01*
X127841634Y-143255649D01*
X127713667Y-143163584D01*
X127594649Y-143065180D01*
X127487271Y-142963137D01*
X127388030Y-142854664D01*
X127367004Y-142829591D01*
X127276423Y-142952559D01*
X127178509Y-143067381D01*
X127078820Y-143168234D01*
X126971739Y-143261529D01*
X126751817Y-143414296D01*
X126632802Y-143239296D01*
X126539889Y-143127233D01*
X126450805Y-143036644D01*
X126449701Y-143035659D01*
X126656341Y-142906185D01*
X126845551Y-142740954D01*
X127019319Y-142536599D01*
X127097592Y-142423171D01*
X126957453Y-142112342D01*
X126840238Y-141752784D01*
X126744642Y-141327476D01*
X126700856Y-141054678D01*
X127152204Y-141054678D01*
X127185276Y-141279165D01*
X127226998Y-141490817D01*
X127274695Y-141680202D01*
X127330252Y-141858221D01*
X127348747Y-141910224D01*
X127460839Y-141556851D01*
X127516239Y-141310120D01*
X128175081Y-141310120D01*
X128248927Y-141435327D01*
X128329795Y-141550226D01*
X128346222Y-141570959D01*
X128473546Y-141469195D01*
X128553719Y-141490786D01*
X128764708Y-141490786D01*
X128604680Y-141310120D01*
X128175081Y-141310120D01*
X127516239Y-141310120D01*
X127558431Y-141122212D01*
X127570849Y-141054678D01*
X127152204Y-141054678D01*
X126700856Y-141054678D01*
X126486215Y-141054678D01*
X126486215Y-140650639D01*
X127461624Y-140650639D01*
X127345050Y-140130989D01*
X127330648Y-140052281D01*
X127774694Y-139983063D01*
X127817798Y-140233667D01*
X127871057Y-140478576D01*
X127928836Y-140694873D01*
X127995584Y-140901902D01*
X128109514Y-141182796D01*
X128109514Y-140935133D01*
X128335268Y-140935133D01*
X128220636Y-140741438D01*
X128189716Y-140683026D01*
X128659134Y-140683026D01*
X128826624Y-140935133D01*
X128946803Y-140935133D01*
X128946803Y-140683026D01*
X128659134Y-140683026D01*
X128189716Y-140683026D01*
X128114487Y-140540910D01*
X127956631Y-140187543D01*
X128360669Y-140074348D01*
X128436256Y-140257970D01*
X128520429Y-140435667D01*
X128590074Y-140566657D01*
X128590074Y-140315343D01*
X128946803Y-140315343D01*
X128946803Y-139983063D01*
X129350842Y-139983063D01*
X129350842Y-140315343D01*
G37*
G36*
X123668740Y-139990683D02*
G01*
X123668740Y-140742084D01*
X124644307Y-140742084D01*
X124644307Y-141157077D01*
X123799874Y-141157077D01*
X123987284Y-141487756D01*
X124220649Y-141817713D01*
X124348516Y-141972301D01*
X124482323Y-142117706D01*
X124614739Y-142246452D01*
X124750250Y-142363267D01*
X124957377Y-142512710D01*
X124803731Y-142663899D01*
X124640655Y-142869757D01*
X124392219Y-142658781D01*
X124127383Y-142381233D01*
X123860175Y-142043308D01*
X123668740Y-141758452D01*
X123668740Y-142873408D01*
X123674064Y-142915193D01*
X123691010Y-142941517D01*
X123742100Y-142959416D01*
X123759708Y-142960884D01*
X124251222Y-142953581D01*
X124152813Y-143207305D01*
X124105641Y-143393975D01*
X123769739Y-143385709D01*
X123631348Y-143371792D01*
X123511993Y-143348168D01*
X123406631Y-143310310D01*
X123348981Y-143277858D01*
X123302361Y-143238260D01*
X123270031Y-143196707D01*
X123244963Y-143147660D01*
X123213752Y-143017630D01*
X123206437Y-142877060D01*
X123206437Y-141157077D01*
X122857011Y-141157077D01*
X122857011Y-140742084D01*
X123206437Y-140742084D01*
X123206437Y-139990683D01*
X123668740Y-139990683D01*
G37*
G36*
X125648926Y-139983380D02*
G01*
X125648926Y-140742084D01*
X126213152Y-140742084D01*
X126213152Y-141157077D01*
X125703539Y-141157077D01*
X125829397Y-141527733D01*
X125908631Y-141713933D01*
X125996747Y-141893926D01*
X126086254Y-142053234D01*
X126181498Y-142200136D01*
X126318726Y-142374273D01*
X126231514Y-142516955D01*
X126146377Y-142678698D01*
X126092972Y-142807841D01*
X125944663Y-142600404D01*
X125787256Y-142311868D01*
X125648926Y-141995318D01*
X125648926Y-143408581D01*
X125208532Y-143408581D01*
X125208532Y-141754800D01*
X125055690Y-141957650D01*
X124928208Y-142144582D01*
X124899113Y-142192019D01*
X124644307Y-141820367D01*
X124907971Y-141544870D01*
X125208532Y-141251855D01*
X125208532Y-141157077D01*
X124746229Y-141157077D01*
X124746229Y-140742084D01*
X125208532Y-140742084D01*
X125208532Y-139983380D01*
X125648926Y-139983380D01*
G37*
X156971428Y-57562295D02*
X156971428Y-56762295D01*
X156971428Y-56762295D02*
X156666666Y-56762295D01*
X156666666Y-56762295D02*
X156590476Y-56800390D01*
X156590476Y-56800390D02*
X156552381Y-56838485D01*
X156552381Y-56838485D02*
X156514285Y-56914676D01*
X156514285Y-56914676D02*
X156514285Y-57028961D01*
X156514285Y-57028961D02*
X156552381Y-57105152D01*
X156552381Y-57105152D02*
X156590476Y-57143247D01*
X156590476Y-57143247D02*
X156666666Y-57181342D01*
X156666666Y-57181342D02*
X156971428Y-57181342D01*
X156209524Y-57524200D02*
X156095238Y-57562295D01*
X156095238Y-57562295D02*
X155904762Y-57562295D01*
X155904762Y-57562295D02*
X155828571Y-57524200D01*
X155828571Y-57524200D02*
X155790476Y-57486104D01*
X155790476Y-57486104D02*
X155752381Y-57409914D01*
X155752381Y-57409914D02*
X155752381Y-57333723D01*
X155752381Y-57333723D02*
X155790476Y-57257533D01*
X155790476Y-57257533D02*
X155828571Y-57219438D01*
X155828571Y-57219438D02*
X155904762Y-57181342D01*
X155904762Y-57181342D02*
X156057143Y-57143247D01*
X156057143Y-57143247D02*
X156133333Y-57105152D01*
X156133333Y-57105152D02*
X156171428Y-57067057D01*
X156171428Y-57067057D02*
X156209524Y-56990866D01*
X156209524Y-56990866D02*
X156209524Y-56914676D01*
X156209524Y-56914676D02*
X156171428Y-56838485D01*
X156171428Y-56838485D02*
X156133333Y-56800390D01*
X156133333Y-56800390D02*
X156057143Y-56762295D01*
X156057143Y-56762295D02*
X155866666Y-56762295D01*
X155866666Y-56762295D02*
X155752381Y-56800390D01*
X155066666Y-57028961D02*
X155066666Y-57562295D01*
X155257142Y-56724200D02*
X155447619Y-57295628D01*
X155447619Y-57295628D02*
X154952380Y-57295628D01*
X132971428Y-57562295D02*
X132971428Y-56762295D01*
X132971428Y-56762295D02*
X132666666Y-56762295D01*
X132666666Y-56762295D02*
X132590476Y-56800390D01*
X132590476Y-56800390D02*
X132552381Y-56838485D01*
X132552381Y-56838485D02*
X132514285Y-56914676D01*
X132514285Y-56914676D02*
X132514285Y-57028961D01*
X132514285Y-57028961D02*
X132552381Y-57105152D01*
X132552381Y-57105152D02*
X132590476Y-57143247D01*
X132590476Y-57143247D02*
X132666666Y-57181342D01*
X132666666Y-57181342D02*
X132971428Y-57181342D01*
X132209524Y-57524200D02*
X132095238Y-57562295D01*
X132095238Y-57562295D02*
X131904762Y-57562295D01*
X131904762Y-57562295D02*
X131828571Y-57524200D01*
X131828571Y-57524200D02*
X131790476Y-57486104D01*
X131790476Y-57486104D02*
X131752381Y-57409914D01*
X131752381Y-57409914D02*
X131752381Y-57333723D01*
X131752381Y-57333723D02*
X131790476Y-57257533D01*
X131790476Y-57257533D02*
X131828571Y-57219438D01*
X131828571Y-57219438D02*
X131904762Y-57181342D01*
X131904762Y-57181342D02*
X132057143Y-57143247D01*
X132057143Y-57143247D02*
X132133333Y-57105152D01*
X132133333Y-57105152D02*
X132171428Y-57067057D01*
X132171428Y-57067057D02*
X132209524Y-56990866D01*
X132209524Y-56990866D02*
X132209524Y-56914676D01*
X132209524Y-56914676D02*
X132171428Y-56838485D01*
X132171428Y-56838485D02*
X132133333Y-56800390D01*
X132133333Y-56800390D02*
X132057143Y-56762295D01*
X132057143Y-56762295D02*
X131866666Y-56762295D01*
X131866666Y-56762295D02*
X131752381Y-56800390D01*
X131447619Y-56838485D02*
X131409523Y-56800390D01*
X131409523Y-56800390D02*
X131333333Y-56762295D01*
X131333333Y-56762295D02*
X131142857Y-56762295D01*
X131142857Y-56762295D02*
X131066666Y-56800390D01*
X131066666Y-56800390D02*
X131028571Y-56838485D01*
X131028571Y-56838485D02*
X130990476Y-56914676D01*
X130990476Y-56914676D02*
X130990476Y-56990866D01*
X130990476Y-56990866D02*
X131028571Y-57105152D01*
X131028571Y-57105152D02*
X131485714Y-57562295D01*
X131485714Y-57562295D02*
X130990476Y-57562295D01*
X168971428Y-57562295D02*
X168971428Y-56762295D01*
X168971428Y-56762295D02*
X168666666Y-56762295D01*
X168666666Y-56762295D02*
X168590476Y-56800390D01*
X168590476Y-56800390D02*
X168552381Y-56838485D01*
X168552381Y-56838485D02*
X168514285Y-56914676D01*
X168514285Y-56914676D02*
X168514285Y-57028961D01*
X168514285Y-57028961D02*
X168552381Y-57105152D01*
X168552381Y-57105152D02*
X168590476Y-57143247D01*
X168590476Y-57143247D02*
X168666666Y-57181342D01*
X168666666Y-57181342D02*
X168971428Y-57181342D01*
X168209524Y-57524200D02*
X168095238Y-57562295D01*
X168095238Y-57562295D02*
X167904762Y-57562295D01*
X167904762Y-57562295D02*
X167828571Y-57524200D01*
X167828571Y-57524200D02*
X167790476Y-57486104D01*
X167790476Y-57486104D02*
X167752381Y-57409914D01*
X167752381Y-57409914D02*
X167752381Y-57333723D01*
X167752381Y-57333723D02*
X167790476Y-57257533D01*
X167790476Y-57257533D02*
X167828571Y-57219438D01*
X167828571Y-57219438D02*
X167904762Y-57181342D01*
X167904762Y-57181342D02*
X168057143Y-57143247D01*
X168057143Y-57143247D02*
X168133333Y-57105152D01*
X168133333Y-57105152D02*
X168171428Y-57067057D01*
X168171428Y-57067057D02*
X168209524Y-56990866D01*
X168209524Y-56990866D02*
X168209524Y-56914676D01*
X168209524Y-56914676D02*
X168171428Y-56838485D01*
X168171428Y-56838485D02*
X168133333Y-56800390D01*
X168133333Y-56800390D02*
X168057143Y-56762295D01*
X168057143Y-56762295D02*
X167866666Y-56762295D01*
X167866666Y-56762295D02*
X167752381Y-56800390D01*
X167028571Y-56762295D02*
X167409523Y-56762295D01*
X167409523Y-56762295D02*
X167447619Y-57143247D01*
X167447619Y-57143247D02*
X167409523Y-57105152D01*
X167409523Y-57105152D02*
X167333333Y-57067057D01*
X167333333Y-57067057D02*
X167142857Y-57067057D01*
X167142857Y-57067057D02*
X167066666Y-57105152D01*
X167066666Y-57105152D02*
X167028571Y-57143247D01*
X167028571Y-57143247D02*
X166990476Y-57219438D01*
X166990476Y-57219438D02*
X166990476Y-57409914D01*
X166990476Y-57409914D02*
X167028571Y-57486104D01*
X167028571Y-57486104D02*
X167066666Y-57524200D01*
X167066666Y-57524200D02*
X167142857Y-57562295D01*
X167142857Y-57562295D02*
X167333333Y-57562295D01*
X167333333Y-57562295D02*
X167409523Y-57524200D01*
X167409523Y-57524200D02*
X167447619Y-57486104D01*
X144971428Y-57562295D02*
X144971428Y-56762295D01*
X144971428Y-56762295D02*
X144666666Y-56762295D01*
X144666666Y-56762295D02*
X144590476Y-56800390D01*
X144590476Y-56800390D02*
X144552381Y-56838485D01*
X144552381Y-56838485D02*
X144514285Y-56914676D01*
X144514285Y-56914676D02*
X144514285Y-57028961D01*
X144514285Y-57028961D02*
X144552381Y-57105152D01*
X144552381Y-57105152D02*
X144590476Y-57143247D01*
X144590476Y-57143247D02*
X144666666Y-57181342D01*
X144666666Y-57181342D02*
X144971428Y-57181342D01*
X144209524Y-57524200D02*
X144095238Y-57562295D01*
X144095238Y-57562295D02*
X143904762Y-57562295D01*
X143904762Y-57562295D02*
X143828571Y-57524200D01*
X143828571Y-57524200D02*
X143790476Y-57486104D01*
X143790476Y-57486104D02*
X143752381Y-57409914D01*
X143752381Y-57409914D02*
X143752381Y-57333723D01*
X143752381Y-57333723D02*
X143790476Y-57257533D01*
X143790476Y-57257533D02*
X143828571Y-57219438D01*
X143828571Y-57219438D02*
X143904762Y-57181342D01*
X143904762Y-57181342D02*
X144057143Y-57143247D01*
X144057143Y-57143247D02*
X144133333Y-57105152D01*
X144133333Y-57105152D02*
X144171428Y-57067057D01*
X144171428Y-57067057D02*
X144209524Y-56990866D01*
X144209524Y-56990866D02*
X144209524Y-56914676D01*
X144209524Y-56914676D02*
X144171428Y-56838485D01*
X144171428Y-56838485D02*
X144133333Y-56800390D01*
X144133333Y-56800390D02*
X144057143Y-56762295D01*
X144057143Y-56762295D02*
X143866666Y-56762295D01*
X143866666Y-56762295D02*
X143752381Y-56800390D01*
X143485714Y-56762295D02*
X142990476Y-56762295D01*
X142990476Y-56762295D02*
X143257142Y-57067057D01*
X143257142Y-57067057D02*
X143142857Y-57067057D01*
X143142857Y-57067057D02*
X143066666Y-57105152D01*
X143066666Y-57105152D02*
X143028571Y-57143247D01*
X143028571Y-57143247D02*
X142990476Y-57219438D01*
X142990476Y-57219438D02*
X142990476Y-57409914D01*
X142990476Y-57409914D02*
X143028571Y-57486104D01*
X143028571Y-57486104D02*
X143066666Y-57524200D01*
X143066666Y-57524200D02*
X143142857Y-57562295D01*
X143142857Y-57562295D02*
X143371428Y-57562295D01*
X143371428Y-57562295D02*
X143447619Y-57524200D01*
X143447619Y-57524200D02*
X143485714Y-57486104D01*
X120971428Y-57562295D02*
X120971428Y-56762295D01*
X120971428Y-56762295D02*
X120666666Y-56762295D01*
X120666666Y-56762295D02*
X120590476Y-56800390D01*
X120590476Y-56800390D02*
X120552381Y-56838485D01*
X120552381Y-56838485D02*
X120514285Y-56914676D01*
X120514285Y-56914676D02*
X120514285Y-57028961D01*
X120514285Y-57028961D02*
X120552381Y-57105152D01*
X120552381Y-57105152D02*
X120590476Y-57143247D01*
X120590476Y-57143247D02*
X120666666Y-57181342D01*
X120666666Y-57181342D02*
X120971428Y-57181342D01*
X120209524Y-57524200D02*
X120095238Y-57562295D01*
X120095238Y-57562295D02*
X119904762Y-57562295D01*
X119904762Y-57562295D02*
X119828571Y-57524200D01*
X119828571Y-57524200D02*
X119790476Y-57486104D01*
X119790476Y-57486104D02*
X119752381Y-57409914D01*
X119752381Y-57409914D02*
X119752381Y-57333723D01*
X119752381Y-57333723D02*
X119790476Y-57257533D01*
X119790476Y-57257533D02*
X119828571Y-57219438D01*
X119828571Y-57219438D02*
X119904762Y-57181342D01*
X119904762Y-57181342D02*
X120057143Y-57143247D01*
X120057143Y-57143247D02*
X120133333Y-57105152D01*
X120133333Y-57105152D02*
X120171428Y-57067057D01*
X120171428Y-57067057D02*
X120209524Y-56990866D01*
X120209524Y-56990866D02*
X120209524Y-56914676D01*
X120209524Y-56914676D02*
X120171428Y-56838485D01*
X120171428Y-56838485D02*
X120133333Y-56800390D01*
X120133333Y-56800390D02*
X120057143Y-56762295D01*
X120057143Y-56762295D02*
X119866666Y-56762295D01*
X119866666Y-56762295D02*
X119752381Y-56800390D01*
X118990476Y-57562295D02*
X119447619Y-57562295D01*
X119219047Y-57562295D02*
X119219047Y-56762295D01*
X119219047Y-56762295D02*
X119295238Y-56876580D01*
X119295238Y-56876580D02*
X119371428Y-56952771D01*
X119371428Y-56952771D02*
X119447619Y-56990866D01*
X180971428Y-57562295D02*
X180971428Y-56762295D01*
X180971428Y-56762295D02*
X180666666Y-56762295D01*
X180666666Y-56762295D02*
X180590476Y-56800390D01*
X180590476Y-56800390D02*
X180552381Y-56838485D01*
X180552381Y-56838485D02*
X180514285Y-56914676D01*
X180514285Y-56914676D02*
X180514285Y-57028961D01*
X180514285Y-57028961D02*
X180552381Y-57105152D01*
X180552381Y-57105152D02*
X180590476Y-57143247D01*
X180590476Y-57143247D02*
X180666666Y-57181342D01*
X180666666Y-57181342D02*
X180971428Y-57181342D01*
X180209524Y-57524200D02*
X180095238Y-57562295D01*
X180095238Y-57562295D02*
X179904762Y-57562295D01*
X179904762Y-57562295D02*
X179828571Y-57524200D01*
X179828571Y-57524200D02*
X179790476Y-57486104D01*
X179790476Y-57486104D02*
X179752381Y-57409914D01*
X179752381Y-57409914D02*
X179752381Y-57333723D01*
X179752381Y-57333723D02*
X179790476Y-57257533D01*
X179790476Y-57257533D02*
X179828571Y-57219438D01*
X179828571Y-57219438D02*
X179904762Y-57181342D01*
X179904762Y-57181342D02*
X180057143Y-57143247D01*
X180057143Y-57143247D02*
X180133333Y-57105152D01*
X180133333Y-57105152D02*
X180171428Y-57067057D01*
X180171428Y-57067057D02*
X180209524Y-56990866D01*
X180209524Y-56990866D02*
X180209524Y-56914676D01*
X180209524Y-56914676D02*
X180171428Y-56838485D01*
X180171428Y-56838485D02*
X180133333Y-56800390D01*
X180133333Y-56800390D02*
X180057143Y-56762295D01*
X180057143Y-56762295D02*
X179866666Y-56762295D01*
X179866666Y-56762295D02*
X179752381Y-56800390D01*
X179066666Y-56762295D02*
X179219047Y-56762295D01*
X179219047Y-56762295D02*
X179295238Y-56800390D01*
X179295238Y-56800390D02*
X179333333Y-56838485D01*
X179333333Y-56838485D02*
X179409523Y-56952771D01*
X179409523Y-56952771D02*
X179447619Y-57105152D01*
X179447619Y-57105152D02*
X179447619Y-57409914D01*
X179447619Y-57409914D02*
X179409523Y-57486104D01*
X179409523Y-57486104D02*
X179371428Y-57524200D01*
X179371428Y-57524200D02*
X179295238Y-57562295D01*
X179295238Y-57562295D02*
X179142857Y-57562295D01*
X179142857Y-57562295D02*
X179066666Y-57524200D01*
X179066666Y-57524200D02*
X179028571Y-57486104D01*
X179028571Y-57486104D02*
X178990476Y-57409914D01*
X178990476Y-57409914D02*
X178990476Y-57219438D01*
X178990476Y-57219438D02*
X179028571Y-57143247D01*
X179028571Y-57143247D02*
X179066666Y-57105152D01*
X179066666Y-57105152D02*
X179142857Y-57067057D01*
X179142857Y-57067057D02*
X179295238Y-57067057D01*
X179295238Y-57067057D02*
X179371428Y-57105152D01*
X179371428Y-57105152D02*
X179409523Y-57143247D01*
X179409523Y-57143247D02*
X179447619Y-57219438D01*
%TO.C,PS4*%
D13*
X154650000Y-52400000D02*
X155050000Y-52000000D01*
X154650000Y-56000000D02*
X157350000Y-56000000D01*
X155050000Y-52000000D02*
X157350000Y-52000000D01*
D14*
X152750000Y-52400000D02*
G75*
G02*
X152450000Y-52400000I-150000J0D01*
G01*
X152450000Y-52400000D02*
G75*
G02*
X152750000Y-52400000I150000J0D01*
G01*
%TO.C,PS2*%
D13*
X130650000Y-52400000D02*
X131050000Y-52000000D01*
X130650000Y-56000000D02*
X133350000Y-56000000D01*
X131050000Y-52000000D02*
X133350000Y-52000000D01*
D14*
X128750000Y-52400000D02*
G75*
G02*
X128450000Y-52400000I-150000J0D01*
G01*
X128450000Y-52400000D02*
G75*
G02*
X128750000Y-52400000I150000J0D01*
G01*
%TO.C,PS5*%
D13*
X166650000Y-52400000D02*
X167050000Y-52000000D01*
X166650000Y-56000000D02*
X169350000Y-56000000D01*
X167050000Y-52000000D02*
X169350000Y-52000000D01*
D14*
X164750000Y-52400000D02*
G75*
G02*
X164450000Y-52400000I-150000J0D01*
G01*
X164450000Y-52400000D02*
G75*
G02*
X164750000Y-52400000I150000J0D01*
G01*
%TO.C,PS3*%
D13*
X142650000Y-52400000D02*
X143050000Y-52000000D01*
X142650000Y-56000000D02*
X145350000Y-56000000D01*
X143050000Y-52000000D02*
X145350000Y-52000000D01*
D14*
X140750000Y-52400000D02*
G75*
G02*
X140450000Y-52400000I-150000J0D01*
G01*
X140450000Y-52400000D02*
G75*
G02*
X140750000Y-52400000I150000J0D01*
G01*
%TO.C,PS1*%
D13*
X118650000Y-52400000D02*
X119050000Y-52000000D01*
X118650000Y-56000000D02*
X121350000Y-56000000D01*
X119050000Y-52000000D02*
X121350000Y-52000000D01*
D14*
X116750000Y-52400000D02*
G75*
G02*
X116450000Y-52400000I-150000J0D01*
G01*
X116450000Y-52400000D02*
G75*
G02*
X116750000Y-52400000I150000J0D01*
G01*
%TO.C,PS6*%
D13*
X178650000Y-52400000D02*
X179050000Y-52000000D01*
X178650000Y-56000000D02*
X181350000Y-56000000D01*
X179050000Y-52000000D02*
X181350000Y-52000000D01*
D14*
X176750000Y-52400000D02*
G75*
G02*
X176450000Y-52400000I-150000J0D01*
G01*
X176450000Y-52400000D02*
G75*
G02*
X176750000Y-52400000I150000J0D01*
G01*
%TD*%
M02*
