#VRML V2.0 utf8
Shape { appearance Appearance { material Material { diffuseColor 0.92 0.92 0.88 specularColor 0.2 0.2 0.2 } } geometry IndexedFaceSet { coord Coordinate { point [ -0.9646 -1.2992 0.0000, 1.9488 -1.2992 0.0000, -0.9646 0.9646 0.0000, 1.9488 0.9646 0.0000, -0.9646 -1.2992 2.7559, 1.9488 -1.2992 2.7559, -0.9646 0.9646 2.7559, 1.9488 0.9646 2.7559 ] } coordIndex [ 0 2 3 1 -1 4 5 7 6 -1 0 1 5 4 -1 2 6 7 3 -1 0 4 6 2 -1 1 3 7 5 -1 ] } }
Shape { appearance Appearance { material Material { diffuseColor 0.85 0.70 0.20 specularColor 0.2 0.2 0.2 } } geometry IndexedFaceSet { coord Coordinate { point [ -0.1260 -0.1260 -1.1811, 0.1260 -0.1260 -1.1811, -0.1260 0.1260 -1.1811, 0.1260 0.1260 -1.1811, -0.1260 -0.1260 2.5591, 0.1260 -0.1260 2.5591, -0.1260 0.1260 2.5591, 0.1260 0.1260 2.5591 ] } coordIndex [ 0 2 3 1 -1 4 5 7 6 -1 0 1 5 4 -1 2 6 7 3 -1 0 4 6 2 -1 1 3 7 5 -1 ] } }
Shape { appearance Appearance { material Material { diffuseColor 0.85 0.70 0.20 specularColor 0.2 0.2 0.2 } } geometry IndexedFaceSet { coord Coordinate { point [ 0.8583 -0.1260 -1.1811, 1.1102 -0.1260 -1.1811, 0.8583 0.1260 -1.1811, 1.1102 0.1260 -1.1811, 0.8583 -0.1260 2.5591, 1.1102 -0.1260 2.5591, 0.8583 0.1260 2.5591, 1.1102 0.1260 2.5591 ] } coordIndex [ 0 2 3 1 -1 4 5 7 6 -1 0 1 5 4 -1 2 6 7 3 -1 0 4 6 2 -1 1 3 7 5 -1 ] } }
