#VRML V2.0 utf8
Shape { appearance Appearance { material Material { diffuseColor 0.08 0.08 0.08 specularColor 0.2 0.2 0.2 } } geometry IndexedFaceSet { coord Coordinate { point [ 3.5433 0.0000 0.0000, 3.4941 0.4992 0.0000, 3.3485 0.9793 0.0000, 3.1120 1.4217 0.0000, 2.7938 1.8095 0.0000, 2.4060 2.1278 0.0000, 1.9636 2.3643 0.0000, 1.4835 2.5099 0.0000, 0.9843 2.5591 0.0000, 0.4850 2.5099 0.0000, 0.0049 2.3643 0.0000, -0.4375 2.1278 0.0000, -0.8253 1.8095 0.0000, -1.1435 1.4217 0.0000, -1.3800 0.9793 0.0000, -1.5256 0.4992 0.0000, -1.5748 0.0000 0.0000, -1.5256 -0.4992 0.0000, -1.3800 -0.9793 0.0000, -1.1435 -1.4217 0.0000, -0.8253 -1.8095 0.0000, -0.4375 -2.1278 0.0000, 0.0049 -2.3643 0.0000, 0.4850 -2.5099 0.0000, 0.9843 -2.5591 0.0000, 1.4835 -2.5099 0.0000, 1.9636 -2.3643 0.0000, 2.4060 -2.1278 0.0000, 2.7938 -1.8095 0.0000, 3.1120 -1.4217 0.0000, 3.3485 -0.9793 0.0000, 3.4941 -0.4992 0.0000, 3.5433 0.0000 2.7165, 3.4941 0.4992 2.7165, 3.3485 0.9793 2.7165, 3.1120 1.4217 2.7165, 2.7938 1.8095 2.7165, 2.4060 2.1278 2.7165, 1.9636 2.3643 2.7165, 1.4835 2.5099 2.7165, 0.9843 2.5591 2.7165, 0.4850 2.5099 2.7165, 0.0049 2.3643 2.7165, -0.4375 2.1278 2.7165, -0.8253 1.8095 2.7165, -1.1435 1.4217 2.7165, -1.3800 0.9793 2.7165, -1.5256 0.4992 2.7165, -1.5748 0.0000 2.7165, -1.5256 -0.4992 2.7165, -1.3800 -0.9793 2.7165, -1.1435 -1.4217 2.7165, -0.8253 -1.8095 2.7165, -0.4375 -2.1278 2.7165, 0.0049 -2.3643 2.7165, 0.4850 -2.5099 2.7165, 0.9843 -2.5591 2.7165, 1.4835 -2.5099 2.7165, 1.9636 -2.3643 2.7165, 2.4060 -2.1278 2.7165, 2.7938 -1.8095 2.7165, 3.1120 -1.4217 2.7165, 3.3485 -0.9793 2.7165, 3.4941 -0.4992 2.7165 ] } coordIndex [ 31 30 29 28 27 26 25 24 23 22 21 20 19 18 17 16 15 14 13 12 11 10 9 8 7 6 5 4 3 2 1 0 -1 32 33 34 35 36 37 38 39 40 41 42 43 44 45 46 47 48 49 50 51 52 53 54 55 56 57 58 59 60 61 62 63 -1 0 1 33 32 -1 1 2 34 33 -1 2 3 35 34 -1 3 4 36 35 -1 4 5 37 36 -1 5 6 38 37 -1 6 7 39 38 -1 7 8 40 39 -1 8 9 41 40 -1 9 10 42 41 -1 10 11 43 42 -1 11 12 44 43 -1 12 13 45 44 -1 13 14 46 45 -1 14 15 47 46 -1 15 16 48 47 -1 16 17 49 48 -1 17 18 50 49 -1 18 19 51 50 -1 19 20 52 51 -1 20 21 53 52 -1 21 22 54 53 -1 22 23 55 54 -1 23 24 56 55 -1 24 25 57 56 -1 25 26 58 57 -1 26 27 59 58 -1 27 28 60 59 -1 28 29 61 60 -1 29 30 62 61 -1 30 31 63 62 -1 31 0 32 63 -1 ] } }
Shape { appearance Appearance { material Material { diffuseColor 0.92 0.92 0.88 specularColor 0.2 0.2 0.2 } } geometry IndexedFaceSet { coord Coordinate { point [ 1.3780 0.0000 2.7165, 1.3704 0.0768 2.7165, 1.3480 0.1507 2.7165, 1.3116 0.2187 2.7165, 1.2626 0.2784 2.7165, 1.2030 0.3274 2.7165, 1.1349 0.3637 2.7165, 1.0611 0.3861 2.7165, 0.9843 0.3937 2.7165, 0.9074 0.3861 2.7165, 0.8336 0.3637 2.7165, 0.7655 0.3274 2.7165, 0.7059 0.2784 2.7165, 0.6569 0.2187 2.7165, 0.6205 0.1507 2.7165, 0.5981 0.0768 2.7165, 0.5906 0.0000 2.7165, 0.5981 -0.0768 2.7165, 0.6205 -0.1507 2.7165, 0.6569 -0.2187 2.7165, 0.7059 -0.2784 2.7165, 0.7655 -0.3274 2.7165, 0.8336 -0.3637 2.7165, 0.9074 -0.3861 2.7165, 0.9843 -0.3937 2.7165, 1.0611 -0.3861 2.7165, 1.1349 -0.3637 2.7165, 1.2030 -0.3274 2.7165, 1.2626 -0.2784 2.7165, 1.3116 -0.2187 2.7165, 1.3480 -0.1507 2.7165, 1.3704 -0.0768 2.7165, 1.3780 0.0000 2.7362, 1.3704 0.0768 2.7362, 1.3480 0.1507 2.7362, 1.3116 0.2187 2.7362, 1.2626 0.2784 2.7362, 1.2030 0.3274 2.7362, 1.1349 0.3637 2.7362, 1.0611 0.3861 2.7362, 0.9843 0.3937 2.7362, 0.9074 0.3861 2.7362, 0.8336 0.3637 2.7362, 0.7655 0.3274 2.7362, 0.7059 0.2784 2.7362, 0.6569 0.2187 2.7362, 0.6205 0.1507 2.7362, 0.5981 0.0768 2.7362, 0.5906 0.0000 2.7362, 0.5981 -0.0768 2.7362, 0.6205 -0.1507 2.7362, 0.6569 -0.2187 2.7362, 0.7059 -0.2784 2.7362, 0.7655 -0.3274 2.7362, 0.8336 -0.3637 2.7362, 0.9074 -0.3861 2.7362, 0.9843 -0.3937 2.7362, 1.0611 -0.3861 2.7362, 1.1349 -0.3637 2.7362, 1.2030 -0.3274 2.7362, 1.2626 -0.2784 2.7362, 1.3116 -0.2187 2.7362, 1.3480 -0.1507 2.7362, 1.3704 -0.0768 2.7362 ] } coordIndex [ 31 30 29 28 27 26 25 24 23 22 21 20 19 18 17 16 15 14 13 12 11 10 9 8 7 6 5 4 3 2 1 0 -1 32 33 34 35 36 37 38 39 40 41 42 43 44 45 46 47 48 49 50 51 52 53 54 55 56 57 58 59 60 61 62 63 -1 0 1 33 32 -1 1 2 34 33 -1 2 3 35 34 -1 3 4 36 35 -1 4 5 37 36 -1 5 6 38 37 -1 6 7 39 38 -1 7 8 40 39 -1 8 9 41 40 -1 9 10 42 41 -1 10 11 43 42 -1 11 12 44 43 -1 12 13 45 44 -1 13 14 46 45 -1 14 15 47 46 -1 15 16 48 47 -1 16 17 49 48 -1 17 18 50 49 -1 18 19 51 50 -1 19 20 52 51 -1 20 21 53 52 -1 21 22 54 53 -1 22 23 55 54 -1 23 24 56 55 -1 24 25 57 56 -1 25 26 58 57 -1 26 27 59 58 -1 27 28 60 59 -1 28 29 61 60 -1 29 30 62 61 -1 30 31 63 62 -1 31 0 32 63 -1 ] } }
Shape { appearance Appearance { material Material { diffuseColor 0.85 0.70 0.20 specularColor 0.2 0.2 0.2 } } geometry IndexedFaceSet { coord Coordinate { point [ -0.0984 -0.0984 -1.1811, 0.0984 -0.0984 -1.1811, -0.0984 0.0984 -1.1811, 0.0984 0.0984 -1.1811, -0.0984 -0.0984 0.0000, 0.0984 -0.0984 0.0000, -0.0984 0.0984 0.0000, 0.0984 0.0984 0.0000 ] } coordIndex [ 0 2 3 1 -1 4 5 7 6 -1 0 1 5 4 -1 2 6 7 3 -1 0 4 6 2 -1 1 3 7 5 -1 ] } }
Shape { appearance Appearance { material Material { diffuseColor 0.85 0.70 0.20 specularColor 0.2 0.2 0.2 } } geometry IndexedFaceSet { coord Coordinate { point [ 1.8701 -0.0984 -1.1811, 2.0669 -0.0984 -1.1811, 1.8701 0.0984 -1.1811, 2.0669 0.0984 -1.1811, 1.8701 -0.0984 0.0000, 2.0669 -0.0984 0.0000, 1.8701 0.0984 0.0000, 2.0669 0.0984 0.0000 ] } coordIndex [ 0 2 3 1 -1 4 5 7 6 -1 0 1 5 4 -1 2 6 7 3 -1 0 4 6 2 -1 1 3 7 5 -1 ] } }
