#VRML V2.0 utf8
Shape { appearance Appearance { material Material { diffuseColor 0.08 0.08 0.08 specularColor 0.2 0.2 0.2 } } geometry IndexedFaceSet { coord Coordinate { point [ -0.5315 -0.6693 0.0000, 0.5315 -0.6693 0.0000, -0.5315 0.6693 0.0000, 0.5315 0.6693 0.0000, -0.5315 -0.6693 0.5906, 0.5315 -0.6693 0.5906, -0.5315 0.6693 0.5906, 0.5315 0.6693 0.5906 ] } coordIndex [ 0 2 3 1 -1 4 5 7 6 -1 0 1 5 4 -1 2 6 7 3 -1 0 4 6 2 -1 1 3 7 5 -1 ] } }
Shape { appearance Appearance { material Material { diffuseColor 0.30 0.00 0.00 specularColor 0.2 0.2 0.2 } } geometry IndexedFaceSet { coord Coordinate { point [ -0.3150 -0.6102 0.5906, 0.3150 -0.6102 0.5906, -0.3150 -0.0984 0.5906, 0.3150 -0.0984 0.5906, -0.3150 -0.6102 0.6102, 0.3150 -0.6102 0.6102, -0.3150 -0.0984 0.6102, 0.3150 -0.0984 0.6102 ] } coordIndex [ 0 2 3 1 -1 4 5 7 6 -1 0 1 5 4 -1 2 6 7 3 -1 0 4 6 2 -1 1 3 7 5 -1 ] } }
Shape { appearance Appearance { material Material { diffuseColor 0.15 0.15 0.20 specularColor 0.2 0.2 0.2 } } geometry IndexedFaceSet { coord Coordinate { point [ -0.3150 0.0984 0.5906, 0.3150 0.0984 0.5906, -0.3150 0.6102 0.5906, 0.3150 0.6102 0.5906, -0.3150 0.0984 0.6102, 0.3150 0.0984 0.6102, -0.3150 0.6102 0.6102, 0.3150 0.6102 0.6102 ] } coordIndex [ 0 2 3 1 -1 4 5 7 6 -1 0 1 5 4 -1 2 6 7 3 -1 0 4 6 2 -1 1 3 7 5 -1 ] } }
Shape { appearance Appearance { material Material { diffuseColor 0.85 0.70 0.20 specularColor 0.2 0.2 0.2 } } geometry IndexedFaceSet { coord Coordinate { point [ -0.7283 -0.3839 -1.1811, -0.5315 -0.3839 -1.1811, -0.7283 -0.3248 -1.1811, -0.5315 -0.3248 -1.1811, -0.7283 -0.3839 0.0000, -0.5315 -0.3839 0.0000, -0.7283 -0.3248 0.0000, -0.5315 -0.3248 0.0000 ] } coordIndex [ 0 2 3 1 -1 4 5 7 6 -1 0 1 5 4 -1 2 6 7 3 -1 0 4 6 2 -1 1 3 7 5 -1 ] } }
Shape { appearance Appearance { material Material { diffuseColor 0.85 0.70 0.20 specularColor 0.2 0.2 0.2 } } geometry IndexedFaceSet { coord Coordinate { point [ -0.7283 0.3248 -1.1811, -0.5315 0.3248 -1.1811, -0.7283 0.3839 -1.1811, -0.5315 0.3839 -1.1811, -0.7283 0.3248 0.0000, -0.5315 0.3248 0.0000, -0.7283 0.3839 0.0000, -0.5315 0.3839 0.0000 ] } coordIndex [ 0 2 3 1 -1 4 5 7 6 -1 0 1 5 4 -1 2 6 7 3 -1 0 4 6 2 -1 1 3 7 5 -1 ] } }
Shape { appearance Appearance { material Material { diffuseColor 0.85 0.70 0.20 specularColor 0.2 0.2 0.2 } } geometry IndexedFaceSet { coord Coordinate { point [ 0.5315 -0.3839 -1.1811, 0.7283 -0.3839 -1.1811, 0.5315 -0.3248 -1.1811, 0.7283 -0.3248 -1.1811, 0.5315 -0.3839 0.0000, 0.7283 -0.3839 0.0000, 0.5315 -0.3248 0.0000, 0.7283 -0.3248 0.0000 ] } coordIndex [ 0 2 3 1 -1 4 5 7 6 -1 0 1 5 4 -1 2 6 7 3 -1 0 4 6 2 -1 1 3 7 5 -1 ] } }
Shape { appearance Appearance { material Material { diffuseColor 0.85 0.70 0.20 specularColor 0.2 0.2 0.2 } } geometry IndexedFaceSet { coord Coordinate { point [ 0.5315 0.3248 -1.1811, 0.7283 0.3248 -1.1811, 0.5315 0.3839 -1.1811, 0.7283 0.3839 -1.1811, 0.5315 0.3248 0.0000, 0.7283 0.3248 0.0000, 0.5315 0.3839 0.0000, 0.7283 0.3839 0.0000 ] } coordIndex [ 0 2 3 1 -1 4 5 7 6 -1 0 1 5 4 -1 2 6 7 3 -1 0 4 6 2 -1 1 3 7 5 -1 ] } }
