#VRML V2.0 utf8
Shape { appearance Appearance { material Material { diffuseColor 0.08 0.08 0.08 specularColor 0.2 0.2 0.2 } } geometry IndexedFaceSet { coord Coordinate { point [ -1.7126 -0.8858 0.0000, 1.7126 -0.8858 0.0000, -1.7126 0.8858 0.0000, 1.7126 0.8858 0.0000, -1.7126 -0.8858 2.2047, 1.7126 -0.8858 2.2047, -1.7126 0.8858 2.2047, 1.7126 0.8858 2.2047 ] } coordIndex [ 0 2 3 1 -1 4 5 7 6 -1 0 1 5 4 -1 2 6 7 3 -1 0 4 6 2 -1 1 3 7 5 -1 ] } }
Shape { appearance Appearance { material Material { diffuseColor 0.30 0.00 0.00 specularColor 0.2 0.2 0.2 } } geometry IndexedFaceSet { coord Coordinate { point [ 0.1969 -0.5118 2.2047, 1.2205 -0.5118 2.2047, 0.1969 0.5118 2.2047, 1.2205 0.5118 2.2047, 0.1969 -0.5118 2.2244, 1.2205 -0.5118 2.2244, 0.1969 0.5118 2.2244, 1.2205 0.5118 2.2244 ] } coordIndex [ 0 2 3 1 -1 4 5 7 6 -1 0 1 5 4 -1 2 6 7 3 -1 0 4 6 2 -1 1 3 7 5 -1 ] } }
Shape { appearance Appearance { material Material { diffuseColor 0.15 0.15 0.20 specularColor 0.2 0.2 0.2 } } geometry IndexedFaceSet { coord Coordinate { point [ -1.2205 -0.5118 2.2047, -0.1969 -0.5118 2.2047, -1.2205 0.5118 2.2047, -0.1969 0.5118 2.2047, -1.2205 -0.5118 2.2244, -0.1969 -0.5118 2.2244, -1.2205 0.5118 2.2244, -0.1969 0.5118 2.2244 ] } coordIndex [ 0 2 3 1 -1 4 5 7 6 -1 0 1 5 4 -1 2 6 7 3 -1 0 4 6 2 -1 1 3 7 5 -1 ] } }
Shape { appearance Appearance { material Material { diffuseColor 0.85 0.70 0.20 specularColor 0.2 0.2 0.2 } } geometry IndexedFaceSet { coord Coordinate { point [ -0.9055 -0.5984 -1.1811, -0.7087 -0.5984 -1.1811, -0.9055 -0.4016 -1.1811, -0.7087 -0.4016 -1.1811, -0.9055 -0.5984 0.0000, -0.7087 -0.5984 0.0000, -0.9055 -0.4016 0.0000, -0.7087 -0.4016 0.0000 ] } coordIndex [ 0 2 3 1 -1 4 5 7 6 -1 0 1 5 4 -1 2 6 7 3 -1 0 4 6 2 -1 1 3 7 5 -1 ] } }
Shape { appearance Appearance { material Material { diffuseColor 0.85 0.70 0.20 specularColor 0.2 0.2 0.2 } } geometry IndexedFaceSet { coord Coordinate { point [ -0.9055 0.4016 -1.1811, -0.7087 0.4016 -1.1811, -0.9055 0.5984 -1.1811, -0.7087 0.5984 -1.1811, -0.9055 0.4016 0.0000, -0.7087 0.4016 0.0000, -0.9055 0.5984 0.0000, -0.7087 0.5984 0.0000 ] } coordIndex [ 0 2 3 1 -1 4 5 7 6 -1 0 1 5 4 -1 2 6 7 3 -1 0 4 6 2 -1 1 3 7 5 -1 ] } }
Shape { appearance Appearance { material Material { diffuseColor 0.85 0.70 0.20 specularColor 0.2 0.2 0.2 } } geometry IndexedFaceSet { coord Coordinate { point [ 0.7087 -0.5984 -1.1811, 0.9055 -0.5984 -1.1811, 0.7087 -0.4016 -1.1811, 0.9055 -0.4016 -1.1811, 0.7087 -0.5984 0.0000, 0.9055 -0.5984 0.0000, 0.7087 -0.4016 0.0000, 0.9055 -0.4016 0.0000 ] } coordIndex [ 0 2 3 1 -1 4 5 7 6 -1 0 1 5 4 -1 2 6 7 3 -1 0 4 6 2 -1 1 3 7 5 -1 ] } }
Shape { appearance Appearance { material Material { diffuseColor 0.85 0.70 0.20 specularColor 0.2 0.2 0.2 } } geometry IndexedFaceSet { coord Coordinate { point [ 0.7087 0.4016 -1.1811, 0.9055 0.4016 -1.1811, 0.7087 0.5984 -1.1811, 0.9055 0.5984 -1.1811, 0.7087 0.4016 0.0000, 0.9055 0.4016 0.0000, 0.7087 0.5984 0.0000, 0.9055 0.5984 0.0000 ] } coordIndex [ 0 2 3 1 -1 4 5 7 6 -1 0 1 5 4 -1 2 6 7 3 -1 0 4 6 2 -1 1 3 7 5 -1 ] } }
