#VRML V2.0 utf8
Shape { appearance Appearance { material Material { diffuseColor 0.93 0.93 0.90 specularColor 0.2 0.2 0.2 } } geometry IndexedFaceSet { coord Coordinate { point [ 1.1417 0.0000 0.0000, 1.1198 0.2227 0.0000, 1.0548 0.4369 0.0000, 0.9493 0.6343 0.0000, 0.8073 0.8073 0.0000, 0.6343 0.9493 0.0000, 0.4369 1.0548 0.0000, 0.2227 1.1198 0.0000, 0.0000 1.1417 0.0000, -0.2227 1.1198 0.0000, -0.4369 1.0548 0.0000, -0.6343 0.9493 0.0000, -0.8073 0.8073 0.0000, -0.9493 0.6343 0.0000, -1.0548 0.4369 0.0000, -1.1198 0.2227 0.0000, -1.1417 0.0000 0.0000, -1.1198 -0.2227 0.0000, -1.0548 -0.4369 0.0000, -0.9493 -0.6343 0.0000, -0.8073 -0.8073 0.0000, -0.6343 -0.9493 0.0000, -0.4369 -1.0548 0.0000, -0.2227 -1.1198 0.0000, -0.0000 -1.1417 0.0000, 0.2227 -1.1198 0.0000, 0.4369 -1.0548 0.0000, 0.6343 -0.9493 0.0000, 0.8073 -0.8073 0.0000, 0.9493 -0.6343 0.0000, 1.0548 -0.4369 0.0000, 1.1198 -0.2227 0.0000, 1.1417 0.0000 0.3937, 1.1198 0.2227 0.3937, 1.0548 0.4369 0.3937, 0.9493 0.6343 0.3937, 0.8073 0.8073 0.3937, 0.6343 0.9493 0.3937, 0.4369 1.0548 0.3937, 0.2227 1.1198 0.3937, 0.0000 1.1417 0.3937, -0.2227 1.1198 0.3937, -0.4369 1.0548 0.3937, -0.6343 0.9493 0.3937, -0.8073 0.8073 0.3937, -0.9493 0.6343 0.3937, -1.0548 0.4369 0.3937, -1.1198 0.2227 0.3937, -1.1417 0.0000 0.3937, -1.1198 -0.2227 0.3937, -1.0548 -0.4369 0.3937, -0.9493 -0.6343 0.3937, -0.8073 -0.8073 0.3937, -0.6343 -0.9493 0.3937, -0.4369 -1.0548 0.3937, -0.2227 -1.1198 0.3937, -0.0000 -1.1417 0.3937, 0.2227 -1.1198 0.3937, 0.4369 -1.0548 0.3937, 0.6343 -0.9493 0.3937, 0.8073 -0.8073 0.3937, 0.9493 -0.6343 0.3937, 1.0548 -0.4369 0.3937, 1.1198 -0.2227 0.3937 ] } coordIndex [ 31 30 29 28 27 26 25 24 23 22 21 20 19 18 17 16 15 14 13 12 11 10 9 8 7 6 5 4 3 2 1 0 -1 32 33 34 35 36 37 38 39 40 41 42 43 44 45 46 47 48 49 50 51 52 53 54 55 56 57 58 59 60 61 62 63 -1 0 1 33 32 -1 1 2 34 33 -1 2 3 35 34 -1 3 4 36 35 -1 4 5 37 36 -1 5 6 38 37 -1 6 7 39 38 -1 7 8 40 39 -1 8 9 41 40 -1 9 10 42 41 -1 10 11 43 42 -1 11 12 44 43 -1 12 13 45 44 -1 13 14 46 45 -1 14 15 47 46 -1 15 16 48 47 -1 16 17 49 48 -1 17 18 50 49 -1 18 19 51 50 -1 19 20 52 51 -1 20 21 53 52 -1 21 22 54 53 -1 22 23 55 54 -1 23 24 56 55 -1 24 25 57 56 -1 25 26 58 57 -1 26 27 59 58 -1 27 28 60 59 -1 28 29 61 60 -1 29 30 62 61 -1 30 31 63 62 -1 31 0 32 63 -1 ] } }
Shape { appearance Appearance { material Material { diffuseColor 0.93 0.93 0.90 specularColor 0.2 0.2 0.2 } } geometry IndexedFaceSet { coord Coordinate { point [ 0.9843 0.0000 0.3937, 0.9653 0.1920 0.3937, 0.9093 0.3767 0.3937, 0.8184 0.5468 0.3937, 0.6960 0.6960 0.3937, 0.5468 0.8184 0.3937, 0.3767 0.9093 0.3937, 0.1920 0.9653 0.3937, 0.0000 0.9843 0.3937, -0.1920 0.9653 0.3937, -0.3767 0.9093 0.3937, -0.5468 0.8184 0.3937, -0.6960 0.6960 0.3937, -0.8184 0.5468 0.3937, -0.9093 0.3767 0.3937, -0.9653 0.1920 0.3937, -0.9843 0.0000 0.3937, -0.9653 -0.1920 0.3937, -0.9093 -0.3767 0.3937, -0.8184 -0.5468 0.3937, -0.6960 -0.6960 0.3937, -0.5468 -0.8184 0.3937, -0.3767 -0.9093 0.3937, -0.1920 -0.9653 0.3937, -0.0000 -0.9843 0.3937, 0.1920 -0.9653 0.3937, 0.3767 -0.9093 0.3937, 0.5468 -0.8184 0.3937, 0.6960 -0.6960 0.3937, 0.8184 -0.5468 0.3937, 0.9093 -0.3767 0.3937, 0.9653 -0.1920 0.3937, 0.9843 0.0000 2.4409, 0.9653 0.1920 2.4409, 0.9093 0.3767 2.4409, 0.8184 0.5468 2.4409, 0.6960 0.6960 2.4409, 0.5468 0.8184 2.4409, 0.3767 0.9093 2.4409, 0.1920 0.9653 2.4409, 0.0000 0.9843 2.4409, -0.1920 0.9653 2.4409, -0.3767 0.9093 2.4409, -0.5468 0.8184 2.4409, -0.6960 0.6960 2.4409, -0.8184 0.5468 2.4409, -0.9093 0.3767 2.4409, -0.9653 0.1920 2.4409, -0.9843 0.0000 2.4409, -0.9653 -0.1920 2.4409, -0.9093 -0.3767 2.4409, -0.8184 -0.5468 2.4409, -0.6960 -0.6960 2.4409, -0.5468 -0.8184 2.4409, -0.3767 -0.9093 2.4409, -0.1920 -0.9653 2.4409, -0.0000 -0.9843 2.4409, 0.1920 -0.9653 2.4409, 0.3767 -0.9093 2.4409, 0.5468 -0.8184 2.4409, 0.6960 -0.6960 2.4409, 0.8184 -0.5468 2.4409, 0.9093 -0.3767 2.4409, 0.9653 -0.1920 2.4409 ] } coordIndex [ 31 30 29 28 27 26 25 24 23 22 21 20 19 18 17 16 15 14 13 12 11 10 9 8 7 6 5 4 3 2 1 0 -1 32 33 34 35 36 37 38 39 40 41 42 43 44 45 46 47 48 49 50 51 52 53 54 55 56 57 58 59 60 61 62 63 -1 0 1 33 32 -1 1 2 34 33 -1 2 3 35 34 -1 3 4 36 35 -1 4 5 37 36 -1 5 6 38 37 -1 6 7 39 38 -1 7 8 40 39 -1 8 9 41 40 -1 9 10 42 41 -1 10 11 43 42 -1 11 12 44 43 -1 12 13 45 44 -1 13 14 46 45 -1 14 15 47 46 -1 15 16 48 47 -1 16 17 49 48 -1 17 18 50 49 -1 18 19 51 50 -1 19 20 52 51 -1 20 21 53 52 -1 21 22 54 53 -1 22 23 55 54 -1 23 24 56 55 -1 24 25 57 56 -1 25 26 58 57 -1 26 27 59 58 -1 27 28 60 59 -1 28 29 61 60 -1 29 30 62 61 -1 30 31 63 62 -1 31 0 32 63 -1 ] } }
Shape { appearance Appearance { material Material { diffuseColor 0.93 0.93 0.90 specularColor 0.2 0.2 0.2 } } geometry IndexedFaceSet { coord Coordinate { point [ 0.8858 0.0000 2.4409, 0.8688 0.1728 2.4409, 0.8184 0.3390 2.4409, 0.7365 0.4921 2.4409, 0.6264 0.6264 2.4409, 0.4921 0.7365 2.4409, 0.3390 0.8184 2.4409, 0.1728 0.8688 2.4409, 0.0000 0.8858 2.4409, -0.1728 0.8688 2.4409, -0.3390 0.8184 2.4409, -0.4921 0.7365 2.4409, -0.6264 0.6264 2.4409, -0.7365 0.4921 2.4409, -0.8184 0.3390 2.4409, -0.8688 0.1728 2.4409, -0.8858 0.0000 2.4409, -0.8688 -0.1728 2.4409, -0.8184 -0.3390 2.4409, -0.7365 -0.4921 2.4409, -0.6264 -0.6264 2.4409, -0.4921 -0.7365 2.4409, -0.3390 -0.8184 2.4409, -0.1728 -0.8688 2.4409, -0.0000 -0.8858 2.4409, 0.1728 -0.8688 2.4409, 0.3390 -0.8184 2.4409, 0.4921 -0.7365 2.4409, 0.6264 -0.6264 2.4409, 0.7365 -0.4921 2.4409, 0.8184 -0.3390 2.4409, 0.8688 -0.1728 2.4409, 0.8858 0.0000 2.8346, 0.8688 0.1728 2.8346, 0.8184 0.3390 2.8346, 0.7365 0.4921 2.8346, 0.6264 0.6264 2.8346, 0.4921 0.7365 2.8346, 0.3390 0.8184 2.8346, 0.1728 0.8688 2.8346, 0.0000 0.8858 2.8346, -0.1728 0.8688 2.8346, -0.3390 0.8184 2.8346, -0.4921 0.7365 2.8346, -0.6264 0.6264 2.8346, -0.7365 0.4921 2.8346, -0.8184 0.3390 2.8346, -0.8688 0.1728 2.8346, -0.8858 0.0000 2.8346, -0.8688 -0.1728 2.8346, -0.8184 -0.3390 2.8346, -0.7365 -0.4921 2.8346, -0.6264 -0.6264 2.8346, -0.4921 -0.7365 2.8346, -0.3390 -0.8184 2.8346, -0.1728 -0.8688 2.8346, -0.0000 -0.8858 2.8346, 0.1728 -0.8688 2.8346, 0.3390 -0.8184 2.8346, 0.4921 -0.7365 2.8346, 0.6264 -0.6264 2.8346, 0.7365 -0.4921 2.8346, 0.8184 -0.3390 2.8346, 0.8688 -0.1728 2.8346 ] } coordIndex [ 31 30 29 28 27 26 25 24 23 22 21 20 19 18 17 16 15 14 13 12 11 10 9 8 7 6 5 4 3 2 1 0 -1 32 33 34 35 36 37 38 39 40 41 42 43 44 45 46 47 48 49 50 51 52 53 54 55 56 57 58 59 60 61 62 63 -1 0 1 33 32 -1 1 2 34 33 -1 2 3 35 34 -1 3 4 36 35 -1 4 5 37 36 -1 5 6 38 37 -1 6 7 39 38 -1 7 8 40 39 -1 8 9 41 40 -1 9 10 42 41 -1 10 11 43 42 -1 11 12 44 43 -1 12 13 45 44 -1 13 14 46 45 -1 14 15 47 46 -1 15 16 48 47 -1 16 17 49 48 -1 17 18 50 49 -1 18 19 51 50 -1 19 20 52 51 -1 20 21 53 52 -1 21 22 54 53 -1 22 23 55 54 -1 23 24 56 55 -1 24 25 57 56 -1 25 26 58 57 -1 26 27 59 58 -1 27 28 60 59 -1 28 29 61 60 -1 29 30 62 61 -1 30 31 63 62 -1 31 0 32 63 -1 ] } }
Shape { appearance Appearance { material Material { diffuseColor 0.93 0.93 0.90 specularColor 0.2 0.2 0.2 } } geometry IndexedFaceSet { coord Coordinate { point [ 0.7087 0.0000 2.8346, 0.6950 0.1383 2.8346, 0.6547 0.2712 2.8346, 0.5892 0.3937 2.8346, 0.5011 0.5011 2.8346, 0.3937 0.5892 2.8346, 0.2712 0.6547 2.8346, 0.1383 0.6950 2.8346, 0.0000 0.7087 2.8346, -0.1383 0.6950 2.8346, -0.2712 0.6547 2.8346, -0.3937 0.5892 2.8346, -0.5011 0.5011 2.8346, -0.5892 0.3937 2.8346, -0.6547 0.2712 2.8346, -0.6950 0.1383 2.8346, -0.7087 0.0000 2.8346, -0.6950 -0.1383 2.8346, -0.6547 -0.2712 2.8346, -0.5892 -0.3937 2.8346, -0.5011 -0.5011 2.8346, -0.3937 -0.5892 2.8346, -0.2712 -0.6547 2.8346, -0.1383 -0.6950 2.8346, -0.0000 -0.7087 2.8346, 0.1383 -0.6950 2.8346, 0.2712 -0.6547 2.8346, 0.3937 -0.5892 2.8346, 0.5011 -0.5011 2.8346, 0.5892 -0.3937 2.8346, 0.6547 -0.2712 2.8346, 0.6950 -0.1383 2.8346, 0.7087 0.0000 3.1496, 0.6950 0.1383 3.1496, 0.6547 0.2712 3.1496, 0.5892 0.3937 3.1496, 0.5011 0.5011 3.1496, 0.3937 0.5892 3.1496, 0.2712 0.6547 3.1496, 0.1383 0.6950 3.1496, 0.0000 0.7087 3.1496, -0.1383 0.6950 3.1496, -0.2712 0.6547 3.1496, -0.3937 0.5892 3.1496, -0.5011 0.5011 3.1496, -0.5892 0.3937 3.1496, -0.6547 0.2712 3.1496, -0.6950 0.1383 3.1496, -0.7087 0.0000 3.1496, -0.6950 -0.1383 3.1496, -0.6547 -0.2712 3.1496, -0.5892 -0.3937 3.1496, -0.5011 -0.5011 3.1496, -0.3937 -0.5892 3.1496, -0.2712 -0.6547 3.1496, -0.1383 -0.6950 3.1496, -0.0000 -0.7087 3.1496, 0.1383 -0.6950 3.1496, 0.2712 -0.6547 3.1496, 0.3937 -0.5892 3.1496, 0.5011 -0.5011 3.1496, 0.5892 -0.3937 3.1496, 0.6547 -0.2712 3.1496, 0.6950 -0.1383 3.1496 ] } coordIndex [ 31 30 29 28 27 26 25 24 23 22 21 20 19 18 17 16 15 14 13 12 11 10 9 8 7 6 5 4 3 2 1 0 -1 32 33 34 35 36 37 38 39 40 41 42 43 44 45 46 47 48 49 50 51 52 53 54 55 56 57 58 59 60 61 62 63 -1 0 1 33 32 -1 1 2 34 33 -1 2 3 35 34 -1 3 4 36 35 -1 4 5 37 36 -1 5 6 38 37 -1 6 7 39 38 -1 7 8 40 39 -1 8 9 41 40 -1 9 10 42 41 -1 10 11 43 42 -1 11 12 44 43 -1 12 13 45 44 -1 13 14 46 45 -1 14 15 47 46 -1 15 16 48 47 -1 16 17 49 48 -1 17 18 50 49 -1 18 19 51 50 -1 19 20 52 51 -1 20 21 53 52 -1 21 22 54 53 -1 22 23 55 54 -1 23 24 56 55 -1 24 25 57 56 -1 25 26 58 57 -1 26 27 59 58 -1 27 28 60 59 -1 28 29 61 60 -1 29 30 62 61 -1 30 31 63 62 -1 31 0 32 63 -1 ] } }
Shape { appearance Appearance { material Material { diffuseColor 0.93 0.93 0.90 specularColor 0.2 0.2 0.2 } } geometry IndexedFaceSet { coord Coordinate { point [ 0.4331 0.0000 3.1496, 0.4247 0.0845 3.1496, 0.4001 0.1657 3.1496, 0.3601 0.2406 3.1496, 0.3062 0.3062 3.1496, 0.2406 0.3601 3.1496, 0.1657 0.4001 3.1496, 0.0845 0.4247 3.1496, 0.0000 0.4331 3.1496, -0.0845 0.4247 3.1496, -0.1657 0.4001 3.1496, -0.2406 0.3601 3.1496, -0.3062 0.3062 3.1496, -0.3601 0.2406 3.1496, -0.4001 0.1657 3.1496, -0.4247 0.0845 3.1496, -0.4331 0.0000 3.1496, -0.4247 -0.0845 3.1496, -0.4001 -0.1657 3.1496, -0.3601 -0.2406 3.1496, -0.3062 -0.3062 3.1496, -0.2406 -0.3601 3.1496, -0.1657 -0.4001 3.1496, -0.0845 -0.4247 3.1496, -0.0000 -0.4331 3.1496, 0.0845 -0.4247 3.1496, 0.1657 -0.4001 3.1496, 0.2406 -0.3601 3.1496, 0.3062 -0.3062 3.1496, 0.3601 -0.2406 3.1496, 0.4001 -0.1657 3.1496, 0.4247 -0.0845 3.1496, 0.4331 0.0000 3.4252, 0.4247 0.0845 3.4252, 0.4001 0.1657 3.4252, 0.3601 0.2406 3.4252, 0.3062 0.3062 3.4252, 0.2406 0.3601 3.4252, 0.1657 0.4001 3.4252, 0.0845 0.4247 3.4252, 0.0000 0.4331 3.4252, -0.0845 0.4247 3.4252, -0.1657 0.4001 3.4252, -0.2406 0.3601 3.4252, -0.3062 0.3062 3.4252, -0.3601 0.2406 3.4252, -0.4001 0.1657 3.4252, -0.4247 0.0845 3.4252, -0.4331 0.0000 3.4252, -0.4247 -0.0845 3.4252, -0.4001 -0.1657 3.4252, -0.3601 -0.2406 3.4252, -0.3062 -0.3062 3.4252, -0.2406 -0.3601 3.4252, -0.1657 -0.4001 3.4252, -0.0845 -0.4247 3.4252, -0.0000 -0.4331 3.4252, 0.0845 -0.4247 3.4252, 0.1657 -0.4001 3.4252, 0.2406 -0.3601 3.4252, 0.3062 -0.3062 3.4252, 0.3601 -0.2406 3.4252, 0.4001 -0.1657 3.4252, 0.4247 -0.0845 3.4252 ] } coordIndex [ 31 30 29 28 27 26 25 24 23 22 21 20 19 18 17 16 15 14 13 12 11 10 9 8 7 6 5 4 3 2 1 0 -1 32 33 34 35 36 37 38 39 40 41 42 43 44 45 46 47 48 49 50 51 52 53 54 55 56 57 58 59 60 61 62 63 -1 0 1 33 32 -1 1 2 34 33 -1 2 3 35 34 -1 3 4 36 35 -1 4 5 37 36 -1 5 6 38 37 -1 6 7 39 38 -1 7 8 40 39 -1 8 9 41 40 -1 9 10 42 41 -1 10 11 43 42 -1 11 12 44 43 -1 12 13 45 44 -1 13 14 46 45 -1 14 15 47 46 -1 15 16 48 47 -1 16 17 49 48 -1 17 18 50 49 -1 18 19 51 50 -1 19 20 52 51 -1 20 21 53 52 -1 21 22 54 53 -1 22 23 55 54 -1 23 24 56 55 -1 24 25 57 56 -1 25 26 58 57 -1 26 27 59 58 -1 27 28 60 59 -1 28 29 61 60 -1 29 30 62 61 -1 30 31 63 62 -1 31 0 32 63 -1 ] } }
Shape { appearance Appearance { material Material { diffuseColor 0.85 0.70 0.20 specularColor 0.2 0.2 0.2 } } geometry IndexedFaceSet { coord Coordinate { point [ -0.8484 0.2559 -1.1811, -0.6516 0.2559 -1.1811, -0.8484 0.4528 -1.1811, -0.6516 0.4528 -1.1811, -0.8484 0.2559 0.0000, -0.6516 0.2559 0.0000, -0.8484 0.4528 0.0000, -0.6516 0.4528 0.0000 ] } coordIndex [ 0 2 3 1 -1 4 5 7 6 -1 0 1 5 4 -1 2 6 7 3 -1 0 4 6 2 -1 1 3 7 5 -1 ] } }
Shape { appearance Appearance { material Material { diffuseColor 0.85 0.70 0.20 specularColor 0.2 0.2 0.2 } } geometry IndexedFaceSet { coord Coordinate { point [ -0.3484 -0.4528 -1.1811, -0.1516 -0.4528 -1.1811, -0.3484 -0.2559 -1.1811, -0.1516 -0.2559 -1.1811, -0.3484 -0.4528 0.0000, -0.1516 -0.4528 0.0000, -0.3484 -0.2559 0.0000, -0.1516 -0.2559 0.0000 ] } coordIndex [ 0 2 3 1 -1 4 5 7 6 -1 0 1 5 4 -1 2 6 7 3 -1 0 4 6 2 -1 1 3 7 5 -1 ] } }
Shape { appearance Appearance { material Material { diffuseColor 0.85 0.70 0.20 specularColor 0.2 0.2 0.2 } } geometry IndexedFaceSet { coord Coordinate { point [ 0.1516 0.2559 -1.1811, 0.3484 0.2559 -1.1811, 0.1516 0.4528 -1.1811, 0.3484 0.4528 -1.1811, 0.1516 0.2559 0.0000, 0.3484 0.2559 0.0000, 0.1516 0.4528 0.0000, 0.3484 0.4528 0.0000 ] } coordIndex [ 0 2 3 1 -1 4 5 7 6 -1 0 1 5 4 -1 2 6 7 3 -1 0 4 6 2 -1 1 3 7 5 -1 ] } }
Shape { appearance Appearance { material Material { diffuseColor 0.85 0.70 0.20 specularColor 0.2 0.2 0.2 } } geometry IndexedFaceSet { coord Coordinate { point [ 0.6516 -0.4528 -1.1811, 0.8484 -0.4528 -1.1811, 0.6516 -0.2559 -1.1811, 0.8484 -0.2559 -1.1811, 0.6516 -0.4528 0.0000, 0.8484 -0.4528 0.0000, 0.6516 -0.2559 0.0000, 0.8484 -0.2559 0.0000 ] } coordIndex [ 0 2 3 1 -1 4 5 7 6 -1 0 1 5 4 -1 2 6 7 3 -1 0 4 6 2 -1 1 3 7 5 -1 ] } }
