#VRML V2.0 utf8
Shape { appearance Appearance { material Material { diffuseColor 0.08 0.08 0.08 specularColor 0.2 0.2 0.2 } } geometry IndexedFaceSet { coord Coordinate { point [ -3.5000 -3.5000 0.0000, -2.5000 -3.5000 0.0000, -3.5000 3.5000 0.0000, -2.5000 3.5000 0.0000, -3.5000 -3.5000 0.9843, -2.5000 -3.5000 0.9843, -3.5000 3.5000 0.9843, -2.5000 3.5000 0.9843 ] } coordIndex [ 0 2 3 1 -1 4 5 7 6 -1 0 1 5 4 -1 2 6 7 3 -1 0 4 6 2 -1 1 3 7 5 -1 ] } }
Shape { appearance Appearance { material Material { diffuseColor 0.08 0.08 0.08 specularColor 0.2 0.2 0.2 } } geometry IndexedFaceSet { coord Coordinate { point [ 2.5000 -3.5000 0.0000, 3.5000 -3.5000 0.0000, 2.5000 3.5000 0.0000, 3.5000 3.5000 0.0000, 2.5000 -3.5000 0.9843, 3.5000 -3.5000 0.9843, 2.5000 3.5000 0.9843, 3.5000 3.5000 0.9843 ] } coordIndex [ 0 2 3 1 -1 4 5 7 6 -1 0 1 5 4 -1 2 6 7 3 -1 0 4 6 2 -1 1 3 7 5 -1 ] } }
Shape { appearance Appearance { material Material { diffuseColor 0.85 0.70 0.20 specularColor 0.2 0.2 0.2 } } geometry IndexedFaceSet { coord Coordinate { point [ -3.1260 -3.1260 -1.1811, -2.8740 -3.1260 -1.1811, -3.1260 -2.8740 -1.1811, -2.8740 -2.8740 -1.1811, -3.1260 -3.1260 1.9685, -2.8740 -3.1260 1.9685, -3.1260 -2.8740 1.9685, -2.8740 -2.8740 1.9685 ] } coordIndex [ 0 2 3 1 -1 4 5 7 6 -1 0 1 5 4 -1 2 6 7 3 -1 0 4 6 2 -1 1 3 7 5 -1 ] } }
Shape { appearance Appearance { material Material { diffuseColor 0.85 0.70 0.20 specularColor 0.2 0.2 0.2 } } geometry IndexedFaceSet { coord Coordinate { point [ -3.1260 -2.1260 -1.1811, -2.8740 -2.1260 -1.1811, -3.1260 -1.8740 -1.1811, -2.8740 -1.8740 -1.1811, -3.1260 -2.1260 1.9685, -2.8740 -2.1260 1.9685, -3.1260 -1.8740 1.9685, -2.8740 -1.8740 1.9685 ] } coordIndex [ 0 2 3 1 -1 4 5 7 6 -1 0 1 5 4 -1 2 6 7 3 -1 0 4 6 2 -1 1 3 7 5 -1 ] } }
Shape { appearance Appearance { material Material { diffuseColor 0.85 0.70 0.20 specularColor 0.2 0.2 0.2 } } geometry IndexedFaceSet { coord Coordinate { point [ -3.1260 -1.1260 -1.1811, -2.8740 -1.1260 -1.1811, -3.1260 -0.8740 -1.1811, -2.8740 -0.8740 -1.1811, -3.1260 -1.1260 1.9685, -2.8740 -1.1260 1.9685, -3.1260 -0.8740 1.9685, -2.8740 -0.8740 1.9685 ] } coordIndex [ 0 2 3 1 -1 4 5 7 6 -1 0 1 5 4 -1 2 6 7 3 -1 0 4 6 2 -1 1 3 7 5 -1 ] } }
Shape { appearance Appearance { material Material { diffuseColor 0.85 0.70 0.20 specularColor 0.2 0.2 0.2 } } geometry IndexedFaceSet { coord Coordinate { point [ -3.1260 -0.1260 -1.1811, -2.8740 -0.1260 -1.1811, -3.1260 0.1260 -1.1811, -2.8740 0.1260 -1.1811, -3.1260 -0.1260 1.9685, -2.8740 -0.1260 1.9685, -3.1260 0.1260 1.9685, -2.8740 0.1260 1.9685 ] } coordIndex [ 0 2 3 1 -1 4 5 7 6 -1 0 1 5 4 -1 2 6 7 3 -1 0 4 6 2 -1 1 3 7 5 -1 ] } }
Shape { appearance Appearance { material Material { diffuseColor 0.85 0.70 0.20 specularColor 0.2 0.2 0.2 } } geometry IndexedFaceSet { coord Coordinate { point [ -3.1260 0.8740 -1.1811, -2.8740 0.8740 -1.1811, -3.1260 1.1260 -1.1811, -2.8740 1.1260 -1.1811, -3.1260 0.8740 1.9685, -2.8740 0.8740 1.9685, -3.1260 1.1260 1.9685, -2.8740 1.1260 1.9685 ] } coordIndex [ 0 2 3 1 -1 4 5 7 6 -1 0 1 5 4 -1 2 6 7 3 -1 0 4 6 2 -1 1 3 7 5 -1 ] } }
Shape { appearance Appearance { material Material { diffuseColor 0.85 0.70 0.20 specularColor 0.2 0.2 0.2 } } geometry IndexedFaceSet { coord Coordinate { point [ -3.1260 1.8740 -1.1811, -2.8740 1.8740 -1.1811, -3.1260 2.1260 -1.1811, -2.8740 2.1260 -1.1811, -3.1260 1.8740 1.9685, -2.8740 1.8740 1.9685, -3.1260 2.1260 1.9685, -2.8740 2.1260 1.9685 ] } coordIndex [ 0 2 3 1 -1 4 5 7 6 -1 0 1 5 4 -1 2 6 7 3 -1 0 4 6 2 -1 1 3 7 5 -1 ] } }
Shape { appearance Appearance { material Material { diffuseColor 0.85 0.70 0.20 specularColor 0.2 0.2 0.2 } } geometry IndexedFaceSet { coord Coordinate { point [ -3.1260 2.8740 -1.1811, -2.8740 2.8740 -1.1811, -3.1260 3.1260 -1.1811, -2.8740 3.1260 -1.1811, -3.1260 2.8740 1.9685, -2.8740 2.8740 1.9685, -3.1260 3.1260 1.9685, -2.8740 3.1260 1.9685 ] } coordIndex [ 0 2 3 1 -1 4 5 7 6 -1 0 1 5 4 -1 2 6 7 3 -1 0 4 6 2 -1 1 3 7 5 -1 ] } }
Shape { appearance Appearance { material Material { diffuseColor 0.85 0.70 0.20 specularColor 0.2 0.2 0.2 } } geometry IndexedFaceSet { coord Coordinate { point [ 2.8740 -3.1260 -1.1811, 3.1260 -3.1260 -1.1811, 2.8740 -2.8740 -1.1811, 3.1260 -2.8740 -1.1811, 2.8740 -3.1260 1.9685, 3.1260 -3.1260 1.9685, 2.8740 -2.8740 1.9685, 3.1260 -2.8740 1.9685 ] } coordIndex [ 0 2 3 1 -1 4 5 7 6 -1 0 1 5 4 -1 2 6 7 3 -1 0 4 6 2 -1 1 3 7 5 -1 ] } }
Shape { appearance Appearance { material Material { diffuseColor 0.85 0.70 0.20 specularColor 0.2 0.2 0.2 } } geometry IndexedFaceSet { coord Coordinate { point [ 2.8740 -2.1260 -1.1811, 3.1260 -2.1260 -1.1811, 2.8740 -1.8740 -1.1811, 3.1260 -1.8740 -1.1811, 2.8740 -2.1260 1.9685, 3.1260 -2.1260 1.9685, 2.8740 -1.8740 1.9685, 3.1260 -1.8740 1.9685 ] } coordIndex [ 0 2 3 1 -1 4 5 7 6 -1 0 1 5 4 -1 2 6 7 3 -1 0 4 6 2 -1 1 3 7 5 -1 ] } }
Shape { appearance Appearance { material Material { diffuseColor 0.85 0.70 0.20 specularColor 0.2 0.2 0.2 } } geometry IndexedFaceSet { coord Coordinate { point [ 2.8740 -1.1260 -1.1811, 3.1260 -1.1260 -1.1811, 2.8740 -0.8740 -1.1811, 3.1260 -0.8740 -1.1811, 2.8740 -1.1260 1.9685, 3.1260 -1.1260 1.9685, 2.8740 -0.8740 1.9685, 3.1260 -0.8740 1.9685 ] } coordIndex [ 0 2 3 1 -1 4 5 7 6 -1 0 1 5 4 -1 2 6 7 3 -1 0 4 6 2 -1 1 3 7 5 -1 ] } }
Shape { appearance Appearance { material Material { diffuseColor 0.85 0.70 0.20 specularColor 0.2 0.2 0.2 } } geometry IndexedFaceSet { coord Coordinate { point [ 2.8740 -0.1260 -1.1811, 3.1260 -0.1260 -1.1811, 2.8740 0.1260 -1.1811, 3.1260 0.1260 -1.1811, 2.8740 -0.1260 1.9685, 3.1260 -0.1260 1.9685, 2.8740 0.1260 1.9685, 3.1260 0.1260 1.9685 ] } coordIndex [ 0 2 3 1 -1 4 5 7 6 -1 0 1 5 4 -1 2 6 7 3 -1 0 4 6 2 -1 1 3 7 5 -1 ] } }
Shape { appearance Appearance { material Material { diffuseColor 0.85 0.70 0.20 specularColor 0.2 0.2 0.2 } } geometry IndexedFaceSet { coord Coordinate { point [ 2.8740 0.8740 -1.1811, 3.1260 0.8740 -1.1811, 2.8740 1.1260 -1.1811, 3.1260 1.1260 -1.1811, 2.8740 0.8740 1.9685, 3.1260 0.8740 1.9685, 2.8740 1.1260 1.9685, 3.1260 1.1260 1.9685 ] } coordIndex [ 0 2 3 1 -1 4 5 7 6 -1 0 1 5 4 -1 2 6 7 3 -1 0 4 6 2 -1 1 3 7 5 -1 ] } }
Shape { appearance Appearance { material Material { diffuseColor 0.85 0.70 0.20 specularColor 0.2 0.2 0.2 } } geometry IndexedFaceSet { coord Coordinate { point [ 2.8740 1.8740 -1.1811, 3.1260 1.8740 -1.1811, 2.8740 2.1260 -1.1811, 3.1260 2.1260 -1.1811, 2.8740 1.8740 1.9685, 3.1260 1.8740 1.9685, 2.8740 2.1260 1.9685, 3.1260 2.1260 1.9685 ] } coordIndex [ 0 2 3 1 -1 4 5 7 6 -1 0 1 5 4 -1 2 6 7 3 -1 0 4 6 2 -1 1 3 7 5 -1 ] } }
Shape { appearance Appearance { material Material { diffuseColor 0.85 0.70 0.20 specularColor 0.2 0.2 0.2 } } geometry IndexedFaceSet { coord Coordinate { point [ 2.8740 2.8740 -1.1811, 3.1260 2.8740 -1.1811, 2.8740 3.1260 -1.1811, 3.1260 3.1260 -1.1811, 2.8740 2.8740 1.9685, 3.1260 2.8740 1.9685, 2.8740 3.1260 1.9685, 3.1260 3.1260 1.9685 ] } coordIndex [ 0 2 3 1 -1 4 5 7 6 -1 0 1 5 4 -1 2 6 7 3 -1 0 4 6 2 -1 1 3 7 5 -1 ] } }
Shape { appearance Appearance { material Material { diffuseColor 0.12 0.16 0.30 specularColor 0.2 0.2 0.2 } } geometry IndexedFaceSet { coord Coordinate { point [ -3.5039 -4.1063 0.9843, 3.5039 -4.1063 0.9843, -3.5039 4.1535 0.9843, 3.5039 4.1535 0.9843, -3.5039 -4.1063 1.3780, 3.5039 -4.1063 1.3780, -3.5039 4.1535 1.3780, 3.5039 4.1535 1.3780 ] } coordIndex [ 0 2 3 1 -1 4 5 7 6 -1 0 1 5 4 -1 2 6 7 3 -1 0 4 6 2 -1 1 3 7 5 -1 ] } }
Shape { appearance Appearance { material Material { diffuseColor 0.78 0.78 0.80 specularColor 0.2 0.2 0.2 } } geometry IndexedFaceSet { coord Coordinate { point [ -1.7598 1.8701 1.3780, 1.7598 1.8701 1.3780, -1.7598 4.7441 1.3780, 1.7598 4.7441 1.3780, -1.7598 1.8701 2.6378, 1.7598 1.8701 2.6378, -1.7598 4.7441 2.6378, 1.7598 4.7441 2.6378 ] } coordIndex [ 0 2 3 1 -1 4 5 7 6 -1 0 1 5 4 -1 2 6 7 3 -1 0 4 6 2 -1 1 3 7 5 -1 ] } }
Shape { appearance Appearance { material Material { diffuseColor 0.08 0.08 0.08 specularColor 0.2 0.2 0.2 } } geometry IndexedFaceSet { coord Coordinate { point [ 0.1693 -1.5984 1.3780, 2.1378 -1.5984 1.3780, 0.1693 0.3701 1.3780, 2.1378 0.3701 1.3780, 0.1693 -1.5984 1.7126, 2.1378 -1.5984 1.7126, 0.1693 0.3701 1.7126, 2.1378 0.3701 1.7126 ] } coordIndex [ 0 2 3 1 -1 4 5 7 6 -1 0 1 5 4 -1 2 6 7 3 -1 0 4 6 2 -1 1 3 7 5 -1 ] } }
Shape { appearance Appearance { material Material { diffuseColor 0.76 0.69 0.50 specularColor 0.2 0.2 0.2 } } geometry IndexedFaceSet { coord Coordinate { point [ 0.2047 -4.0394 1.3780, 2.2520 -4.0394 1.3780, 0.2047 -3.2520 1.3780, 2.2520 -3.2520 1.3780, 0.2047 -4.0394 1.8110, 2.2520 -4.0394 1.8110, 0.2047 -3.2520 1.8110, 2.2520 -3.2520 1.8110 ] } coordIndex [ 0 2 3 1 -1 4 5 7 6 -1 0 1 5 4 -1 2 6 7 3 -1 0 4 6 2 -1 1 3 7 5 -1 ] } }
