#VRML V2.0 utf8
Shape { appearance Appearance { material Material { diffuseColor 0.12 0.16 0.30 specularColor 0.2 0.2 0.2 } } geometry IndexedFaceSet { coord Coordinate { point [ -3.5039 -4.1063 0.0000, 3.5039 -4.1063 0.0000, -3.5039 4.1535 0.0000, 3.5039 4.1535 0.0000, -3.5039 -4.1063 0.3937, 3.5039 -4.1063 0.3937, -3.5039 4.1535 0.3937, 3.5039 4.1535 0.3937 ] } coordIndex [ 0 2 3 1 -1 4 5 7 6 -1 0 1 5 4 -1 2 6 7 3 -1 0 4 6 2 -1 1 3 7 5 -1 ] } }
Shape { appearance Appearance { material Material { diffuseColor 0.78 0.78 0.80 specularColor 0.2 0.2 0.2 } } geometry IndexedFaceSet { coord Coordinate { point [ -1.7598 1.8701 0.3937, 1.7598 1.8701 0.3937, -1.7598 4.7441 0.3937, 1.7598 4.7441 0.3937, -1.7598 1.8701 1.6535, 1.7598 1.8701 1.6535, -1.7598 4.7441 1.6535, 1.7598 4.7441 1.6535 ] } coordIndex [ 0 2 3 1 -1 4 5 7 6 -1 0 1 5 4 -1 2 6 7 3 -1 0 4 6 2 -1 1 3 7 5 -1 ] } }
Shape { appearance Appearance { material Material { diffuseColor 0.08 0.08 0.08 specularColor 0.2 0.2 0.2 } } geometry IndexedFaceSet { coord Coordinate { point [ 0.1693 -1.5984 0.3937, 2.1378 -1.5984 0.3937, 0.1693 0.3701 0.3937, 2.1378 0.3701 0.3937, 0.1693 -1.5984 0.7283, 2.1378 -1.5984 0.7283, 0.1693 0.3701 0.7283, 2.1378 0.3701 0.7283 ] } coordIndex [ 0 2 3 1 -1 4 5 7 6 -1 0 1 5 4 -1 2 6 7 3 -1 0 4 6 2 -1 1 3 7 5 -1 ] } }
Shape { appearance Appearance { material Material { diffuseColor 0.76 0.69 0.50 specularColor 0.2 0.2 0.2 } } geometry IndexedFaceSet { coord Coordinate { point [ 0.2047 -4.0394 0.3937, 2.2520 -4.0394 0.3937, 0.2047 -3.2520 0.3937, 2.2520 -3.2520 0.3937, 0.2047 -4.0394 0.8268, 2.2520 -4.0394 0.8268, 0.2047 -3.2520 0.8268, 2.2520 -3.2520 0.8268 ] } coordIndex [ 0 2 3 1 -1 4 5 7 6 -1 0 1 5 4 -1 2 6 7 3 -1 0 4 6 2 -1 1 3 7 5 -1 ] } }
Shape { appearance Appearance { material Material { diffuseColor 0.85 0.70 0.20 specularColor 0.2 0.2 0.2 } } geometry IndexedFaceSet { coord Coordinate { point [ -3.5039 -3.2559 0.0000, -3.1890 -3.2559 0.0000, -3.5039 -2.7441 0.0000, -3.1890 -2.7441 0.0000, -3.5039 -3.2559 0.4016, -3.1890 -3.2559 0.4016, -3.5039 -2.7441 0.4016, -3.1890 -2.7441 0.4016 ] } coordIndex [ 0 2 3 1 -1 4 5 7 6 -1 0 1 5 4 -1 2 6 7 3 -1 0 4 6 2 -1 1 3 7 5 -1 ] } }
Shape { appearance Appearance { material Material { diffuseColor 0.85 0.70 0.20 specularColor 0.2 0.2 0.2 } } geometry IndexedFaceSet { coord Coordinate { point [ -3.5039 -2.2559 0.0000, -3.1890 -2.2559 0.0000, -3.5039 -1.7441 0.0000, -3.1890 -1.7441 0.0000, -3.5039 -2.2559 0.4016, -3.1890 -2.2559 0.4016, -3.5039 -1.7441 0.4016, -3.1890 -1.7441 0.4016 ] } coordIndex [ 0 2 3 1 -1 4 5 7 6 -1 0 1 5 4 -1 2 6 7 3 -1 0 4 6 2 -1 1 3 7 5 -1 ] } }
Shape { appearance Appearance { material Material { diffuseColor 0.85 0.70 0.20 specularColor 0.2 0.2 0.2 } } geometry IndexedFaceSet { coord Coordinate { point [ -3.5039 -1.2559 0.0000, -3.1890 -1.2559 0.0000, -3.5039 -0.7441 0.0000, -3.1890 -0.7441 0.0000, -3.5039 -1.2559 0.4016, -3.1890 -1.2559 0.4016, -3.5039 -0.7441 0.4016, -3.1890 -0.7441 0.4016 ] } coordIndex [ 0 2 3 1 -1 4 5 7 6 -1 0 1 5 4 -1 2 6 7 3 -1 0 4 6 2 -1 1 3 7 5 -1 ] } }
Shape { appearance Appearance { material Material { diffuseColor 0.85 0.70 0.20 specularColor 0.2 0.2 0.2 } } geometry IndexedFaceSet { coord Coordinate { point [ -3.5039 -0.2559 0.0000, -3.1890 -0.2559 0.0000, -3.5039 0.2559 0.0000, -3.1890 0.2559 0.0000, -3.5039 -0.2559 0.4016, -3.1890 -0.2559 0.4016, -3.5039 0.2559 0.4016, -3.1890 0.2559 0.4016 ] } coordIndex [ 0 2 3 1 -1 4 5 7 6 -1 0 1 5 4 -1 2 6 7 3 -1 0 4 6 2 -1 1 3 7 5 -1 ] } }
Shape { appearance Appearance { material Material { diffuseColor 0.85 0.70 0.20 specularColor 0.2 0.2 0.2 } } geometry IndexedFaceSet { coord Coordinate { point [ -3.5039 0.7441 0.0000, -3.1890 0.7441 0.0000, -3.5039 1.2559 0.0000, -3.1890 1.2559 0.0000, -3.5039 0.7441 0.4016, -3.1890 0.7441 0.4016, -3.5039 1.2559 0.4016, -3.1890 1.2559 0.4016 ] } coordIndex [ 0 2 3 1 -1 4 5 7 6 -1 0 1 5 4 -1 2 6 7 3 -1 0 4 6 2 -1 1 3 7 5 -1 ] } }
Shape { appearance Appearance { material Material { diffuseColor 0.85 0.70 0.20 specularColor 0.2 0.2 0.2 } } geometry IndexedFaceSet { coord Coordinate { point [ -3.5039 1.7441 0.0000, -3.1890 1.7441 0.0000, -3.5039 2.2559 0.0000, -3.1890 2.2559 0.0000, -3.5039 1.7441 0.4016, -3.1890 1.7441 0.4016, -3.5039 2.2559 0.4016, -3.1890 2.2559 0.4016 ] } coordIndex [ 0 2 3 1 -1 4 5 7 6 -1 0 1 5 4 -1 2 6 7 3 -1 0 4 6 2 -1 1 3 7 5 -1 ] } }
Shape { appearance Appearance { material Material { diffuseColor 0.85 0.70 0.20 specularColor 0.2 0.2 0.2 } } geometry IndexedFaceSet { coord Coordinate { point [ -3.5039 2.7441 0.0000, -3.1890 2.7441 0.0000, -3.5039 3.2559 0.0000, -3.1890 3.2559 0.0000, -3.5039 2.7441 0.4016, -3.1890 2.7441 0.4016, -3.5039 3.2559 0.4016, -3.1890 3.2559 0.4016 ] } coordIndex [ 0 2 3 1 -1 4 5 7 6 -1 0 1 5 4 -1 2 6 7 3 -1 0 4 6 2 -1 1 3 7 5 -1 ] } }
Shape { appearance Appearance { material Material { diffuseColor 0.85 0.70 0.20 specularColor 0.2 0.2 0.2 } } geometry IndexedFaceSet { coord Coordinate { point [ 3.1890 -3.2559 0.0000, 3.5039 -3.2559 0.0000, 3.1890 -2.7441 0.0000, 3.5039 -2.7441 0.0000, 3.1890 -3.2559 0.4016, 3.5039 -3.2559 0.4016, 3.1890 -2.7441 0.4016, 3.5039 -2.7441 0.4016 ] } coordIndex [ 0 2 3 1 -1 4 5 7 6 -1 0 1 5 4 -1 2 6 7 3 -1 0 4 6 2 -1 1 3 7 5 -1 ] } }
Shape { appearance Appearance { material Material { diffuseColor 0.85 0.70 0.20 specularColor 0.2 0.2 0.2 } } geometry IndexedFaceSet { coord Coordinate { point [ 3.1890 -2.2559 0.0000, 3.5039 -2.2559 0.0000, 3.1890 -1.7441 0.0000, 3.5039 -1.7441 0.0000, 3.1890 -2.2559 0.4016, 3.5039 -2.2559 0.4016, 3.1890 -1.7441 0.4016, 3.5039 -1.7441 0.4016 ] } coordIndex [ 0 2 3 1 -1 4 5 7 6 -1 0 1 5 4 -1 2 6 7 3 -1 0 4 6 2 -1 1 3 7 5 -1 ] } }
Shape { appearance Appearance { material Material { diffuseColor 0.85 0.70 0.20 specularColor 0.2 0.2 0.2 } } geometry IndexedFaceSet { coord Coordinate { point [ 3.1890 -1.2559 0.0000, 3.5039 -1.2559 0.0000, 3.1890 -0.7441 0.0000, 3.5039 -0.7441 0.0000, 3.1890 -1.2559 0.4016, 3.5039 -1.2559 0.4016, 3.1890 -0.7441 0.4016, 3.5039 -0.7441 0.4016 ] } coordIndex [ 0 2 3 1 -1 4 5 7 6 -1 0 1 5 4 -1 2 6 7 3 -1 0 4 6 2 -1 1 3 7 5 -1 ] } }
Shape { appearance Appearance { material Material { diffuseColor 0.85 0.70 0.20 specularColor 0.2 0.2 0.2 } } geometry IndexedFaceSet { coord Coordinate { point [ 3.1890 -0.2559 0.0000, 3.5039 -0.2559 0.0000, 3.1890 0.2559 0.0000, 3.5039 0.2559 0.0000, 3.1890 -0.2559 0.4016, 3.5039 -0.2559 0.4016, 3.1890 0.2559 0.4016, 3.5039 0.2559 0.4016 ] } coordIndex [ 0 2 3 1 -1 4 5 7 6 -1 0 1 5 4 -1 2 6 7 3 -1 0 4 6 2 -1 1 3 7 5 -1 ] } }
Shape { appearance Appearance { material Material { diffuseColor 0.85 0.70 0.20 specularColor 0.2 0.2 0.2 } } geometry IndexedFaceSet { coord Coordinate { point [ 3.1890 0.7441 0.0000, 3.5039 0.7441 0.0000, 3.1890 1.2559 0.0000, 3.5039 1.2559 0.0000, 3.1890 0.7441 0.4016, 3.5039 0.7441 0.4016, 3.1890 1.2559 0.4016, 3.5039 1.2559 0.4016 ] } coordIndex [ 0 2 3 1 -1 4 5 7 6 -1 0 1 5 4 -1 2 6 7 3 -1 0 4 6 2 -1 1 3 7 5 -1 ] } }
Shape { appearance Appearance { material Material { diffuseColor 0.85 0.70 0.20 specularColor 0.2 0.2 0.2 } } geometry IndexedFaceSet { coord Coordinate { point [ 3.1890 1.7441 0.0000, 3.5039 1.7441 0.0000, 3.1890 2.2559 0.0000, 3.5039 2.2559 0.0000, 3.1890 1.7441 0.4016, 3.5039 1.7441 0.4016, 3.1890 2.2559 0.4016, 3.5039 2.2559 0.4016 ] } coordIndex [ 0 2 3 1 -1 4 5 7 6 -1 0 1 5 4 -1 2 6 7 3 -1 0 4 6 2 -1 1 3 7 5 -1 ] } }
Shape { appearance Appearance { material Material { diffuseColor 0.85 0.70 0.20 specularColor 0.2 0.2 0.2 } } geometry IndexedFaceSet { coord Coordinate { point [ 3.1890 2.7441 0.0000, 3.5039 2.7441 0.0000, 3.1890 3.2559 0.0000, 3.5039 3.2559 0.0000, 3.1890 2.7441 0.4016, 3.5039 2.7441 0.4016, 3.1890 3.2559 0.4016, 3.5039 3.2559 0.4016 ] } coordIndex [ 0 2 3 1 -1 4 5 7 6 -1 0 1 5 4 -1 2 6 7 3 -1 0 4 6 2 -1 1 3 7 5 -1 ] } }
